<svg width="14" height="14" viewBox="0 0 14 14" fill="none" xmlns="http://www.w3.org/2000/svg">
<path d="M6.88379 1.52344C6.9541 1.5 7.02441 1.5 7.09473 1.52344L11.7822 2.46094C12.04 2.50781 12.251 2.74219 12.251 3C12.251 3.28125 12.04 3.51562 11.7822 3.5625L10.001 3.91406V5.25C10.001 6.91406 8.6416 8.25 7.00098 8.25C5.33691 8.25 4.00098 6.91406 4.00098 5.25V3.91406L2.87598 3.70312V5.22656L3.22754 7.05469C3.25098 7.17188 3.22754 7.28906 3.15723 7.38281C3.08691 7.45312 2.96973 7.5 2.87598 7.5H2.12598C2.00879 7.5 1.8916 7.45312 1.82129 7.38281C1.75098 7.28906 1.72754 7.17188 1.75098 7.05469L2.12598 5.22656V3.53906C1.8916 3.46875 1.75098 3.25781 1.75098 3C1.75098 2.74219 1.93848 2.50781 2.19629 2.46094L6.88379 1.52344ZM4.35254 9.1875C4.61035 9.11719 4.86816 9.21094 5.05566 9.39844L6.71973 11.1562C6.86035 11.3203 7.11816 11.3203 7.25879 11.1562L8.92285 9.39844C9.11035 9.21094 9.36816 9.11719 9.62598 9.1875C11.1494 9.67969 12.251 11.1094 12.251 12.7969C12.251 13.1953 11.9229 13.5 11.5244 13.5H2.4541C2.05566 13.5 1.75098 13.1953 1.75098 12.7969C1.75098 11.1094 2.85254 9.67969 4.35254 9.1875Z" fill="#A533FF"/>
</svg>
