<svg width="14" height="14" viewBox="0 0 14 14" fill="none" xmlns="http://www.w3.org/2000/svg">
<path d="M6.2956 3.67924C6.62373 4.68706 6.2956 5.71831 5.52216 5.95268C4.77216 6.21049 3.88154 5.60112 3.55341 4.59331C3.22529 3.58549 3.55341 2.55424 4.32685 2.31987C5.07685 2.06206 5.96748 2.67143 6.2956 3.67924ZM3.34248 6.16362C3.78779 6.91362 3.6706 7.80424 3.1081 8.13237C2.52216 8.46049 1.70185 8.10893 1.25654 7.35893C0.811225 6.58549 0.928413 5.71831 1.49091 5.39018C2.07685 5.06206 2.89716 5.41362 3.34248 6.16362ZM2.61591 10.9214C3.83466 7.59331 6.01435 6.74956 6.99873 6.74956C7.95966 6.74956 10.1394 7.59331 11.3581 10.9214C11.4519 11.1324 11.4987 11.3902 11.4987 11.6246V11.6714C11.4987 12.2808 11.0065 12.7496 10.3972 12.7496C10.1159 12.7496 9.8581 12.7261 9.60029 12.6558L7.53779 12.1402C7.18623 12.0464 6.81123 12.0464 6.43623 12.1402L4.37373 12.6558C4.11591 12.7261 3.8581 12.7496 3.57685 12.7496C2.96748 12.7496 2.49873 12.2808 2.49873 11.6714V11.6246C2.49873 11.3902 2.52216 11.1324 2.61591 10.9214ZM10.8659 8.13237C10.3034 7.80424 10.1862 6.91362 10.6315 6.16362C11.0769 5.41362 11.8972 5.06206 12.4831 5.39018C13.0456 5.71831 13.1628 6.58549 12.7175 7.35893C12.2722 8.10893 11.4519 8.46049 10.8659 8.13237ZM8.26435 5.95268C7.49091 5.71831 7.16279 4.68706 7.49091 3.67924C7.81904 2.67143 8.70966 2.06206 9.45966 2.31987C10.2331 2.55424 10.5612 3.58549 10.2331 4.59331C9.90498 5.60112 9.01435 6.21049 8.26435 5.95268Z" fill="#00BD79"/>
</svg>
