<svg width="14" height="14" viewBox="0 0 14 14" fill="none" xmlns="http://www.w3.org/2000/svg">
<path d="M5.12566 3.75C4.70378 3.75 4.35222 3.53906 4.14128 3.1875C3.93035 2.85938 3.93035 2.41406 4.14128 2.0625C4.35222 1.73438 4.70378 1.5 5.12566 1.5C5.5241 1.5 5.87566 1.73438 6.0866 2.0625C6.29753 2.41406 6.29753 2.85938 6.0866 3.1875C5.87566 3.53906 5.5241 3.75 5.12566 3.75ZM4.91472 4.5H5.50066C6.20378 4.5 6.86003 4.85156 7.28191 5.41406L9.0866 7.80469C9.34441 8.13281 9.2741 8.60156 8.94597 8.85938C8.61785 9.11719 8.1491 9.04688 7.89128 8.71875L6.25066 6.51562V8.69531L7.3991 9.86719C7.61003 10.0781 7.75066 10.3594 7.75066 10.6641V12.75C7.75066 13.1719 7.3991 13.5 7.00066 13.5C6.57878 13.5 6.25066 13.1719 6.25066 12.75V10.8281L4.42253 9.02344C4.14128 8.74219 4.00066 8.34375 4.00066 7.94531V6.9375L3.15691 8.60156C2.96941 8.97656 2.5241 9.11719 2.1491 8.92969C1.7741 8.74219 1.63347 8.29688 1.82097 7.92188L2.8991 5.76562C3.29753 4.99219 4.07097 4.5 4.91472 4.5ZM4.00066 9.63281L5.24285 10.875L4.72722 12.9375C4.61003 13.3359 4.2116 13.5938 3.81316 13.4766C3.41472 13.3828 3.15691 12.9844 3.2741 12.5859L4.00066 9.63281ZM11.5475 13.3594L8.78191 9.35156C8.92253 9.30469 9.03972 9.25781 9.15691 9.16406C9.25066 9.09375 9.34441 9 9.39128 8.92969L12.1803 12.9141C12.2975 13.1016 12.2507 13.3125 12.0866 13.4531C11.8991 13.5703 11.6647 13.5234 11.5475 13.3594Z" fill="#ED7000"/>
</svg>
