<svg width="14" height="14" viewBox="0 0 14 14" fill="none" xmlns="http://www.w3.org/2000/svg">
<path d="M13.5156 2.78906L9.01562 7.28906L9.83594 8.10938C9.92969 8.20312 10 8.34375 10 8.48438C10 8.76562 9.74219 9 9.46094 9H8.78125L6.25 6.46875V5.78906C6.25 5.50781 6.48438 5.25 6.76562 5.25C6.90625 5.25 7.04688 5.32031 7.14062 5.41406L7.96094 6.23438L12.4609 1.73438C12.7422 1.42969 13.2344 1.42969 13.5156 1.73438C13.8203 2.01562 13.8203 2.50781 13.5156 2.78906ZM8.24219 9.79688C8.3125 10.8047 7.96094 11.7891 7.23438 12.5156C6.60156 13.1484 5.73438 13.5 4.82031 13.5H0.765625C0.460938 13.5 0.25 13.2891 0.25 12.9844C0.25 12.8438 0.296875 12.7031 0.414062 12.6094L3.36719 9.9375C3.46094 9.84375 3.36719 9.70312 3.25 9.75L2.05469 10.3594C1.91406 10.4297 1.75 10.3125 1.75 10.1719C1.75 9.42188 2.03125 8.71875 2.54688 8.20312L2.73438 8.01562C3.46094 7.28906 4.44531 6.9375 5.45312 7.00781L8.24219 9.79688Z" fill="#009CB8"/>
</svg>
