<svg width="20" height="20" viewBox="0 0 20 20" fill="none" xmlns="http://www.w3.org/2000/svg">
<path d="M2.6875 4.0625V5.75H17.3125V4.0625H2.6875ZM2.125 2.375H17.875C18.4727 2.375 19 2.90234 19 3.5V6.3125C19 6.94531 18.4727 7.4375 17.875 7.4375H2.125C1.49219 7.4375 1 6.94531 1 6.3125V3.5C1 2.90234 1.49219 2.375 2.125 2.375ZM6.625 9.96875C6.625 9.51172 6.97656 9.125 7.46875 9.125H12.5312C12.9883 9.125 13.375 9.51172 13.375 9.96875C13.375 10.4609 12.9883 10.8125 12.5312 10.8125H7.46875C6.97656 10.8125 6.625 10.4609 6.625 9.96875ZM2.125 15.875V8.5625H3.8125V15.875C3.8125 16.1914 4.05859 16.4375 4.375 16.4375H15.625C15.9062 16.4375 16.1875 16.1914 16.1875 15.875V8.5625H17.875V15.875C17.875 17.1406 16.8555 18.125 15.625 18.125H4.375C3.10938 18.125 2.125 17.1406 2.125 15.875Z" fill="#2A3539"/>
</svg>
