<svg width="18" height="18" viewBox="0 0 18 18" fill="none" xmlns="http://www.w3.org/2000/svg">
<path d="M9.99826 3C9.99826 2.46875 9.52951 2 8.99826 2C8.43576 2 7.99826 2.46875 7.99826 3C7.99826 3.5625 8.43576 4 8.99826 4C9.52951 4 9.99826 3.5625 9.99826 3ZM6.99826 3C6.99826 2.3125 7.37326 1.65625 7.99826 1.28125C8.59201 0.9375 9.37326 0.9375 9.99826 1.28125C10.592 1.65625 10.9983 2.3125 10.9983 3C10.9983 3.71875 10.592 4.375 9.99826 4.75C9.37326 5.09375 8.59201 5.09375 7.99826 4.75C7.37326 4.375 6.99826 3.71875 6.99826 3ZM6.49826 6.875C5.62326 6.4375 4.87326 5.71875 4.37326 4.84375L4.06076 4.25C3.90451 4.03125 3.99826 3.71875 4.24826 3.59375C4.46701 3.4375 4.77951 3.53125 4.90451 3.78125L5.24826 4.34375C5.99826 5.6875 7.43576 6.5 8.96701 6.5C10.4983 6.5 11.9045 5.6875 12.6858 4.375L13.0608 3.75C13.1858 3.53125 13.4983 3.4375 13.7483 3.59375C13.967 3.71875 14.0608 4.03125 13.9045 4.25L13.5608 4.875C13.0608 5.75 12.342 6.4375 11.4983 6.875V16.5C11.4983 16.7812 11.2483 17 10.9983 17C10.717 17 10.4983 16.7812 10.4983 16.5V13H7.49826V16.5C7.49826 16.7812 7.24826 17 6.99826 17C6.71701 17 6.49826 16.7812 6.49826 16.5V6.875ZM7.49826 7.3125V12H10.4983V7.28125C9.99826 7.4375 9.49826 7.5 8.96701 7.5C8.46701 7.5 7.96701 7.4375 7.49826 7.3125Z" fill="#8B91A3"/>
</svg>
