<svg width="25" height="12" viewBox="0 0 25 12" fill="none" xmlns="http://www.w3.org/2000/svg">
<path opacity="0.35" d="M2.66699 0.5H19.333C20.5296 0.5 21.5 1.47037 21.5 2.66699V8.66699C21.4998 9.86346 20.5295 10.833 19.333 10.833H2.66699C1.47048 10.833 0.500176 9.86346 0.5 8.66699V2.66699C0.5 1.47038 1.47037 0.5 2.66699 0.5Z" stroke="#2A3539"/>
<path opacity="0.4" d="M23 3.66699V7.66699C23.8047 7.32822 24.328 6.54013 24.328 5.66699C24.328 4.79386 23.8047 4.00577 23 3.66699" fill="#2A3539"/>
<path d="M2 3.1C2 2.49249 2.49249 2 3.1 2H18.9C19.5075 2 20 2.49249 20 3.1V8.23333C20 8.84085 19.5075 9.33333 18.9 9.33333H3.1C2.49249 9.33333 2 8.84085 2 8.23333V3.1Z" fill="#2A3539"/>
</svg>
