<svg width="24" height="24" viewBox="0 0 24 24" fill="none" xmlns="http://www.w3.org/2000/svg">
<path d="M18.5 6.5H5.5V8.5H18.5V6.5ZM4 8.5V6.5C4 5.6875 4.6875 5 5.5 5H18.5C19.3438 5 20 5.6875 20 6.5V8.5C20 9.15625 19.5938 9.71875 19 9.90625V17C19 18.0938 18.0938 19 17 19H7C5.90625 19 5 18.0938 5 17V9.90625C4.40625 9.71875 4 9.15625 4 8.5ZM6.5 17C6.5 17.2812 6.71875 17.5 7 17.5H17C17.2812 17.5 17.5 17.2812 17.5 17V10H6.5V17ZM9.75 11.5H14.25C14.6562 11.5 15 11.8438 15 12.25C15 12.6562 14.6562 13 14.25 13H9.75C9.34375 13 9 12.6562 9 12.25C9 11.8438 9.34375 11.5 9.75 11.5Z" fill="#8B91A3"/>
</svg>
