<svg fill="none" height="42" viewBox="0 0 42 42" width="42" xmlns="http://www.w3.org/2000/svg"><path d="m33.9637 21.7063c-.6364-.1149 1.5977-.7676 1.5977-.7676l-2.1624-.4562 1.834-.2888 1.7261-.2724.1213-.3937c-1.6146-.1739-4.046-.4364-4.0687-.4364-.0228 0 2.2972-.4334 4.4199-.7186l.0688-.2229c.6499-2.1297-.574-4.3872-2.6576-4.8988l-21.5087-5.27041c-2.0078-.49233-4.00982.8365-4.43273 2.94351l-1.106 5.4991c1.88008-.0654 3.62603.5576 4.07223.5349.0397-.0035.0723-.0064.0887-.0064.0361 0 0 0-.0887.0064-.5116.0525-2.7399.4235-4.32132.6889l-.07525.3774c.7875.049 1.2635.1085 1.40467.105 4.4887-.105-.91525.9386-1.68992 1.3061l-1.76225 8.5441c-.45266 2.2441 1.07275 4.4001 3.26142 4.6072l20.72115 1.5026c1.7162.1639 3.3075-.2689 3.8325-1.9816l3.1138-10.1984c-.9152-.0589-2.0311-.1371-2.3887-.203z" fill="#ffd5da"/><path d="m20.0856 36.3985c8.638 0 15.6404-1.9655 15.6404-4.3902 0-2.4246-7.0024-4.3901-15.6404-4.3901-8.6379 0-15.64029 1.9655-15.64029 4.3901 0 2.4247 7.00239 4.3902 15.64029 4.3902z" fill="#fff"/><path d="m19.7261 34.0596c6.7243 0 12.1753-1.0546 12.1753-2.3555s-5.451-2.3555-12.1753-2.3555c-6.7242 0-12.17532 1.0546-12.17532 2.3555s5.45112 2.3555 12.17532 2.3555z" fill="#ff9ba7"/><path d="m15.2573 33.4429-2.6128-1.1993v-25.88715h2.6128z" fill="#fff"/><path d="m15.2568 33.4429-1.624-.8038v-26.28265h1.624z" fill="#fff3cd"/><path d="m22.3488 7.8916h-7.091v10.6365h7.091z" fill="#fff"/><path d="m32.6108 21.3269h-9.1706c-.6031 0-1.0925-.4888-1.0925-1.0926v-9.5439h10.2631l-5.446 5.019z" fill="#fff"/><path d="m22.3488 8.94922h-7.091v8.54878h7.091z" fill="#ff9ba7"/><path d="m30.0704 20.2933-4.4427-4.5826 4.3873-4.0437h-7.6679v8.568c0 .0198-1.5319.0385-1.5307.0577h9.2546z" fill="#ff9ba7"/><g stroke-linecap="round" stroke-linejoin="round"><path d="m22.3443 18.5281v1.6794c0 .6183.5011 1.1194 1.1195 1.1194h9.1431l-5.5982-5.5982 5.5982-5.0383h-10.2631" stroke="#2a3539"/><path d="m16.5326 7.8916h4.6929c.6183 0 1.1194.50108 1.1194 1.11942v9.51648h-7.091" stroke="#2a3539"/><path d="m12.6406 23.409v-17.05255h2.6122v27.08645" stroke="#2a3539"/><path d="m12.6406 32.0455v-5.9576" stroke="#2a3539"/><path d="m16.7676 28.8377c1.0354-.0519 2.1134-.0799 3.22-.0799 7.9579 0 14.4095 1.4251 14.4095 3.1833 0 1.7581-6.4511 3.1832-14.4095 3.1832s-14.40948-1.4251-14.40948-3.1832c0-1.0045 2.10701-1.9005 5.39758-2.4839" stroke="#2a3539"/><path d="m26.168 4.27832v2.71892" stroke="#f96073"/><path d="m24.8086 5.6377h2.7189" stroke="#f96073"/><path d="m39.2664 26.5674-1.9226 1.9227" stroke="#f96073"/><path d="m37.3438 26.5674 1.9226 1.9227" stroke="#f96073"/><path d="m7.26172 36.4717 1.92208 1.9226" stroke="#f96073"/><path d="m7.26172 38.3943 1.92208-1.9226" stroke="#f96073"/><path d="m31.6236 39.7111c.6292 0 1.1393-.51 1.1393-1.1392s-.5101-1.1393-1.1393-1.1393-1.1392.5101-1.1392 1.1393.51 1.1392 1.1392 1.1392z" stroke="#ffda6a"/><path d="m3.81112 18.4113c.6292 0 1.13926-.51 1.13926-1.1392s-.51006-1.1393-1.13926-1.1393c-.62919 0-1.13924.5101-1.13924 1.1393s.51005 1.1392 1.13924 1.1392z" stroke="#ffda6a"/></g></svg>