<svg width="42" height="42" viewBox="0 0 42 42" fill="none" xmlns="http://www.w3.org/2000/svg">
<g opacity="0.5">
<path d="M34.1975 21.3303C33.5611 21.2154 35.7952 20.5627 35.7952 20.5627L33.6328 20.1065L35.4668 19.8178L37.1929 19.5453L37.3142 19.1516C35.6996 18.9778 33.2682 18.7153 33.2455 18.7153C33.2227 18.7153 35.5421 18.2818 37.6654 17.9966L37.7342 17.7738C38.3841 15.644 37.1602 13.3865 35.0766 12.8749L13.5685 7.60451C11.5607 7.11218 9.55866 8.44101 9.13574 10.548L8.02974 16.0471C9.90982 15.9818 11.6557 16.6048 12.102 16.582C12.1417 16.5785 12.1743 16.5756 12.1907 16.5756C12.2268 16.5756 12.1907 16.5756 12.102 16.582C11.5904 16.6345 9.36207 17.0055 7.78066 17.2709L7.70541 17.6483C8.49291 17.6973 8.96891 17.7568 9.11007 17.7533C13.5988 17.6483 8.19482 18.6919 7.42016 19.0594L5.65791 27.6035C5.20524 29.8476 6.73066 32.0036 8.91932 32.2107L29.6405 33.7133C31.3567 33.8773 32.948 33.4444 33.473 31.7318L36.5868 21.5333C35.6716 21.4744 34.5557 21.3957 34.1981 21.3298L34.1975 21.3303Z" fill="#E4C1FF"/>
</g>
<path d="M11.6775 28.8947L10.6228 34.714L15.6092 32.1777C17.3452 33.1075 19.3297 33.6319 21.439 33.6319C28.3077 33.6319 33.878 28.0617 33.878 21.1929C33.878 14.3242 28.3077 8.75391 21.439 8.75391C14.5703 8.75391 9 14.3242 9 21.1929C9 24.1026 10.0004 26.7795 11.6769 28.8941L11.6775 28.8947Z" fill="white"/>
<path d="M15.6248 30.5321L16.2956 30.8915C17.863 31.7303 19.6404 32.1736 21.4371 32.1736C27.4921 32.1736 32.4178 27.248 32.4178 21.193C32.4178 15.138 27.4921 10.2129 21.4371 10.2129C15.3821 10.2129 10.457 15.1386 10.457 21.193C10.457 23.6896 11.2731 26.0399 12.8184 27.9882L13.2279 28.5051L12.5804 32.0809L15.6248 30.5321Z" fill="#FFF3CD"/>
<path d="M21.4386 26.8718C24.0858 24.2246 27.6156 23.3421 27.6156 19.8123C27.6156 17.1651 24.4072 15.0786 21.4386 18.0471C18.4695 15.078 15.2617 17.1646 15.2617 19.8123C15.2617 23.3421 18.7915 24.2246 21.4386 26.8718Z" fill="#CD8EFF"/>
<path d="M23.5312 37.8809V40.5998" stroke="#B85EFF" stroke-linecap="round" stroke-linejoin="round"/>
<path d="M22.1719 39.2402H24.8908" stroke="#B85EFF" stroke-linecap="round" stroke-linejoin="round"/>
<path d="M35.2422 8.70898L37.1643 10.6317" stroke="#B85EFF" stroke-linecap="round" stroke-linejoin="round"/>
<path d="M35.2422 10.6317L37.1643 8.70898" stroke="#B85EFF" stroke-linecap="round" stroke-linejoin="round"/>
<path d="M3.35547 16.1289L5.27814 18.0516" stroke="#B85EFF" stroke-linecap="round" stroke-linejoin="round"/>
<path d="M3.35547 18.0516L5.27814 16.1289" stroke="#B85EFF" stroke-linecap="round" stroke-linejoin="round"/>
<path d="M19.0377 4.55096C19.6669 4.55096 20.1769 4.0409 20.1769 3.41171C20.1769 2.78252 19.6669 2.27246 19.0377 2.27246C18.4085 2.27246 17.8984 2.78252 17.8984 3.41171C17.8984 4.0409 18.4085 4.55096 19.0377 4.55096Z" stroke="#FFDA6A" stroke-linecap="round" stroke-linejoin="round"/>
<path d="M36.2017 34.4465C36.8309 34.4465 37.341 33.9364 37.341 33.3072C37.341 32.678 36.8309 32.168 36.2017 32.168C35.5726 32.168 35.0625 32.678 35.0625 33.3072C35.0625 33.9364 35.5726 34.4465 36.2017 34.4465Z" stroke="#FFDA6A" stroke-linecap="round" stroke-linejoin="round"/>
<path d="M6.41659 36.1633C7.04578 36.1633 7.55584 35.6532 7.55584 35.024C7.55584 34.3948 7.04578 33.8848 6.41659 33.8848C5.7874 33.8848 5.27734 34.3948 5.27734 35.024C5.27734 35.6532 5.7874 36.1633 6.41659 36.1633Z" stroke="#FFDA6A" stroke-linecap="round" stroke-linejoin="round"/>
<path d="M11.6736 28.8937L10.6189 34.713L15.6053 32.1767C17.3413 33.1065 19.3258 33.6309 21.4351 33.6309C28.3038 33.6309 33.8741 28.0607 33.8741 21.1919C33.8741 14.3232 28.3038 8.75293 21.4351 8.75293C14.5663 8.75293 8.99609 14.3232 8.99609 21.1919C8.99609 24.1016 9.99651 26.7785 11.673 28.8931L11.6736 28.8937Z" stroke="#2A3539" stroke-linecap="round" stroke-linejoin="round"/>
<path d="M21.4347 26.8718C24.0819 24.2246 27.6116 23.3421 27.6116 19.8123C27.6116 17.1651 24.4033 15.0786 21.4347 18.0471C18.4656 15.078 15.2578 17.1646 15.2578 19.8123C15.2578 23.3421 18.7876 24.2246 21.4347 26.8718Z" stroke="#2A3539" stroke-linecap="round" stroke-linejoin="round"/>
<path d="M29.2445 33.6084C26.9841 35.0358 24.306 35.8618 21.4348 35.8618C19.5396 35.8618 17.7283 35.5019 16.0664 34.8468" stroke="#2A3539" stroke-linecap="round" stroke-linejoin="round"/>
<path d="M14.4961 8.31681C16.5623 7.20265 18.9259 6.57031 21.4378 6.57031C29.5263 6.57031 36.0835 13.1276 36.0835 21.2161C36.0835 25.0608 34.6018 28.5591 32.1793 31.1724" stroke="#2A3539" stroke-linecap="round" stroke-linejoin="round"/>
<path d="M9.08915 29.0987C7.63315 26.8231 6.78906 24.1182 6.78906 21.2156C6.78906 17.4828 8.18556 14.0767 10.4839 11.4902" stroke="#2A3539" stroke-linecap="round" stroke-linejoin="round"/>
</svg>
