<svg width="64" height="64" viewBox="0 0 64 64" fill="none" xmlns="http://www.w3.org/2000/svg">
<path d="M51.7559 33.0767C50.7861 32.9016 54.1905 31.9069 54.1905 31.9069L50.8954 31.2118L53.6901 30.7718L56.3203 30.3567L56.5052 29.7567C54.0448 29.4918 50.3399 29.0918 50.3052 29.0918C50.2706 29.0918 53.8057 28.4314 57.0403 27.9967L57.1452 27.6572C58.1354 24.4118 56.2706 20.9718 53.0954 20.1923L20.3203 12.1612C17.2608 11.4109 14.2101 13.4358 13.5657 16.6465L11.8803 25.0261C14.7452 24.9265 17.4057 25.8758 18.0857 25.8412C18.1461 25.8358 18.1959 25.8314 18.2208 25.8314C18.2759 25.8314 18.2208 25.8314 18.0857 25.8412C17.3061 25.9212 13.9105 26.4865 11.5008 26.8909L11.3861 27.4661C12.5861 27.5407 13.3114 27.6314 13.5265 27.6261C20.3666 27.4661 12.1319 29.0563 10.9514 29.6163L8.26611 42.6358C7.57633 46.0554 9.90077 49.3407 13.2359 49.6563L44.811 51.9461C47.4261 52.1958 49.851 51.5363 50.651 48.9265L55.3959 33.3861C54.0012 33.2963 52.3008 33.1772 51.7559 33.0767Z" fill="#FFD5DA"/>
<path d="M30.6063 55.4655C43.7689 55.4655 54.4392 52.4704 54.4392 48.7757C54.4392 45.0811 43.7689 42.0859 30.6063 42.0859C17.4438 42.0859 6.77344 45.0811 6.77344 48.7757C6.77344 52.4704 17.4438 55.4655 30.6063 55.4655Z" fill="white"/>
<path d="M30.0607 51.9003C40.3072 51.9003 48.6136 50.2933 48.6136 48.311C48.6136 46.3287 40.3072 44.7217 30.0607 44.7217C19.8142 44.7217 11.5078 46.3287 11.5078 48.311C11.5078 50.2933 19.8142 51.9003 30.0607 51.9003Z" fill="#FF9BA7"/>
<path d="M23.247 50.9612L19.2656 49.1336V9.68652H23.247V50.9612Z" fill="white"/>
<path d="M23.2481 50.9612L20.7734 49.7363V9.68652H23.2481V50.9612Z" fill="#FFF3CD"/>
<path d="M34.0553 12.0264H23.25V28.2344H34.0553V12.0264Z" fill="white"/>
<path d="M49.6899 32.499H35.7157C34.7966 32.499 34.0508 31.7541 34.0508 30.8341V16.291H49.6899L41.3912 23.939L49.6899 32.499Z" fill="white"/>
<path d="M34.0553 13.6367H23.25V26.6634H34.0553V13.6367Z" fill="#FF9BA7"/>
<path d="M45.824 30.9232L39.0542 23.9401L45.7395 17.7783H34.0551V30.8343C34.0551 30.8645 31.7209 30.893 31.7227 30.9223H45.8249L45.824 30.9232Z" fill="#FF9BA7"/>
<path d="M34.0517 28.2341V30.7932C34.0517 31.7355 34.8152 32.499 35.7574 32.499H49.6899L41.1592 23.9683L49.6899 16.291H34.0508" stroke="#2A3539" stroke-width="1.4" stroke-linecap="round" stroke-linejoin="round"/>
<path d="M25.1945 12.0264H32.3456C33.2879 12.0264 34.0514 12.7899 34.0514 13.7321V28.2335H23.2461" stroke="#2A3539" stroke-width="1.4" stroke-linecap="round" stroke-linejoin="round"/>
<path d="M19.2656 35.6714V9.68652H23.2461V50.9612" stroke="#2A3539" stroke-width="1.4" stroke-linecap="round" stroke-linejoin="round"/>
<path d="M19.2656 48.8321V39.7539" stroke="#2A3539" stroke-width="1.4" stroke-linecap="round" stroke-linejoin="round"/>
<path d="M25.5507 43.9431C27.1284 43.864 28.7711 43.8213 30.4573 43.8213C42.5836 43.8213 52.4147 45.9928 52.4147 48.672C52.4147 51.3511 42.5844 53.5226 30.4573 53.5226C18.3302 53.5226 8.5 51.3511 8.5 48.672C8.5 47.1413 11.7107 45.776 16.7249 44.8871" stroke="#2A3539" stroke-width="1.4" stroke-linecap="round" stroke-linejoin="round"/>
<path d="M39.8789 6.51953V10.6626" stroke="#F96073" stroke-width="1.4" stroke-linecap="round" stroke-linejoin="round"/>
<path d="M37.8086 8.5918H41.9517" stroke="#F96073" stroke-width="1.4" stroke-linecap="round" stroke-linejoin="round"/>
<path d="M59.836 40.4834L56.9062 43.4132" stroke="#F96073" stroke-width="1.4" stroke-linecap="round" stroke-linejoin="round"/>
<path d="M56.9062 40.4834L59.836 43.4132" stroke="#F96073" stroke-width="1.4" stroke-linecap="round" stroke-linejoin="round"/>
<path d="M11.0664 55.5752L13.9953 58.505" stroke="#F96073" stroke-width="1.4" stroke-linecap="round" stroke-linejoin="round"/>
<path d="M11.0664 58.505L13.9953 55.5752" stroke="#F96073" stroke-width="1.4" stroke-linecap="round" stroke-linejoin="round"/>
<path d="M48.1891 60.512C49.1479 60.512 49.9251 59.7348 49.9251 58.776C49.9251 57.8173 49.1479 57.04 48.1891 57.04C47.2304 57.04 46.4531 57.8173 46.4531 58.776C46.4531 59.7348 47.2304 60.512 48.1891 60.512Z" stroke="#FFDA6A" stroke-width="1.4" stroke-linecap="round" stroke-linejoin="round"/>
<path d="M5.81022 28.056C6.76898 28.056 7.54622 27.2787 7.54622 26.32C7.54622 25.3612 6.76898 24.584 5.81022 24.584C4.85145 24.584 4.07422 25.3612 4.07422 26.32C4.07422 27.2787 4.85145 28.056 5.81022 28.056Z" stroke="#FFDA6A" stroke-width="1.4" stroke-linecap="round" stroke-linejoin="round"/>
</svg>
