<svg width="42" height="42" viewBox="0 0 42 42" fill="none" xmlns="http://www.w3.org/2000/svg">
<path d="M34.1841 19.0166C33.5424 18.9 35.7591 18.2583 35.7591 18.2583L33.6007 17.85L35.4091 17.5583L37.1591 17.325L37.2757 16.975C35.6424 16.8 33.2507 16.5666 33.1924 16.5666C33.1341 16.5666 35.4674 16.1583 37.6257 15.8666V15.6333C38.3257 13.5916 37.1007 11.4333 35.0591 10.9666L13.5924 5.83329C11.6091 5.36662 9.56738 6.64996 9.15905 8.63329L8.05072 13.8833C9.91738 13.825 11.6674 14.4083 12.1341 14.4083C12.1341 14.4083 12.1924 14.4083 12.2507 14.4083C12.2507 14.4083 12.2507 14.4083 12.1341 14.4083C11.6091 14.4083 9.39238 14.8166 7.81738 15.05V15.4C8.51738 15.4 8.98405 15.5166 9.15905 15.5166C13.6507 15.4 8.22572 16.3916 7.46738 16.7416L5.71738 25.1416C5.25072 27.3 6.76738 29.3416 8.98405 29.575L29.6924 31.4416C31.3841 31.6166 33.0174 30.5666 33.5424 28.875L36.6341 19.1333C35.7007 19.1333 34.5924 19.0166 34.2424 18.9583L34.1841 19.0166Z" fill="#FFD5DA"/>
<path d="M31.3253 28.8165C33.1294 28.8165 34.5919 27.354 34.5919 25.5499C34.5919 23.7457 33.1294 22.2832 31.3253 22.2832C29.5211 22.2832 28.0586 23.7457 28.0586 25.5499C28.0586 27.354 29.5211 28.8165 31.3253 28.8165Z" fill="white"/>
<path d="M4.55078 24.4995L30.5091 7.75781L30.0424 17.8495C26.6008 18.1995 23.9758 22.6328 25.3174 25.4911C26.6591 28.3495 29.2258 29.3411 29.2258 29.3411L28.7008 34.2995L20.8258 31.0911C20.8258 31.0911 16.6841 35.3495 16.6841 35.0578C16.6841 34.7661 12.4258 27.7078 12.4258 27.7078L4.55078 24.4411V24.4995Z" fill="white"/>
<path d="M6.30052 24.7332L30.3922 9.1582L29.8089 17.3832L29.1672 29.2832L28.6422 34.2415L20.7672 31.0332C20.7672 31.0332 16.5089 35.4082 16.6255 34.9999C16.6839 34.6499 12.3672 27.6499 12.3672 27.6499L6.24219 24.6165L6.30052 24.7332Z" fill="#FFF3CD"/>
<path d="M37.2745 24.0332L38.5578 23.3915L37.6245 21.1165L36.2245 21.5832C35.8745 21.0582 35.4078 20.5915 34.8828 20.2415L35.3495 18.8415L33.0745 17.9082L32.4328 19.1915C31.7911 19.0749 31.1495 19.0749 30.5078 19.1915L29.8661 17.9082L27.5911 18.8415L28.0578 20.2415C27.5328 20.5915 27.0661 21.0582 26.7161 21.5832L25.3161 21.1165L24.3828 23.3915L25.6661 24.0332C25.5495 24.6749 25.5495 25.3165 25.6661 25.9582L24.3828 26.5999L25.3161 28.8749L26.7161 28.4082C27.0661 28.9332 27.5328 29.3999 28.0578 29.7499L27.5911 31.1499L29.8661 32.0832L30.5078 30.7999C31.1495 30.9165 31.7911 30.9165 32.4328 30.7999L33.0745 32.0832L35.3495 31.1499L34.8828 29.7499C35.4078 29.3999 35.8745 28.9332 36.2245 28.4082L37.6245 28.8749L38.5578 26.5999L37.2745 25.9582C37.3911 25.3165 37.3911 24.6749 37.2745 24.0332ZM32.3745 27.1249C31.1495 27.5915 29.8078 27.0665 29.2828 25.8415C28.8161 24.6165 29.3411 23.2749 30.5661 22.7499C31.7911 22.2832 33.1328 22.8082 33.6578 24.0332C34.1245 25.2582 33.5995 26.5999 32.3745 27.1249Z" fill="#FF9BA7"/>
<path d="M24.3828 23.3339L25.3161 21.0589L26.7161 21.5256C27.1245 21.0006 27.5911 20.5339 28.0578 20.1839L27.5911 18.7839L29.8661 17.8506L30.5078 19.1339C31.1495 19.0173 31.7911 19.0173 32.4328 19.1339L33.0745 17.8506L35.3495 18.7839L34.8828 20.1839C35.4078 20.5923 35.8745 21.0589 36.2245 21.5256L37.6245 21.0589L38.5578 23.3339L37.2745 23.9756C37.3911 24.6173 37.3911 25.2589 37.2745 25.9006L38.5578 26.5423L37.6245 28.8173L36.2245 28.3506C35.8161 28.8756 35.4078 29.3423 34.8828 29.6923L35.3495 31.0923L33.0745 32.0256L32.4328 30.7423C31.7911 30.8589 31.1495 30.8589 30.5078 30.7423L29.8661 32.0256L27.5911 31.0923L28.0578 29.6923C27.5328 29.2839 27.0661 28.8173 26.7161 28.3506L25.3161 28.8173L24.3828 26.5423L25.6661 25.9006C25.5495 25.2589 25.5495 24.6173 25.6661 23.9756L24.3828 23.3339Z" stroke="#2A3539" stroke-linecap="round" stroke-linejoin="round"/>
<path d="M28.7591 33.3088V34.3005C28.7008 34.3005 16.9174 29.5171 16.9174 29.5171L26.0758 14.1171L12.4258 27.8838L4.55078 24.5005L30.5091 7.75879L29.9258 16.5088" stroke="#2A3539" stroke-linecap="round" stroke-linejoin="round"/>
<path d="M12.4258 27.8838L16.6841 35.0588L16.9758 29.5171" stroke="#2A3539" stroke-linecap="round" stroke-linejoin="round"/>
<path d="M16.6836 35.0587L20.8253 31.1504" stroke="#2A3539" stroke-linecap="round" stroke-linejoin="round"/>
<path d="M4.78411 20.6504L2.80078 21.8754" stroke="#2A3539" stroke-linecap="round" stroke-linejoin="round"/>
<path d="M18.7247 11.8418L6.94141 19.3085" stroke="#2A3539" stroke-linecap="round" stroke-linejoin="round"/>
<path d="M29.3406 25.8424C29.8073 27.0674 31.2073 27.5924 32.4323 27.1257C33.6573 26.6007 34.1823 25.2591 33.7156 24.0341C33.2489 22.8091 31.8489 22.2841 30.6239 22.7507C29.3989 23.2174 28.8739 24.6174 29.3406 25.8424Z" stroke="#2A3539" stroke-linecap="round" stroke-linejoin="round"/>
<path d="M19.7143 3.0918L17.8477 4.95846" stroke="#F96073" stroke-width="0.583333" stroke-linecap="round" stroke-linejoin="round"/>
<path d="M17.7891 3.0918L19.6557 4.95846" stroke="#F96073" stroke-width="0.583333" stroke-linecap="round" stroke-linejoin="round"/>
<path d="M9.09714 32.9004L7.23047 34.7671" stroke="#F96073" stroke-width="0.583333" stroke-linecap="round" stroke-linejoin="round"/>
<path d="M7.23047 32.9004L9.09714 34.7671" stroke="#F96073" stroke-width="0.583333" stroke-linecap="round" stroke-linejoin="round"/>
<path d="M35.4062 33.3086V35.9919" stroke="#F96073" stroke-width="0.583333" stroke-linecap="round" stroke-linejoin="round"/>
<path d="M34.0664 34.6504H36.7497" stroke="#F96073" stroke-width="0.583333" stroke-linecap="round" stroke-linejoin="round"/>
<path d="M34.5888 7.99206C35.2305 7.99206 35.6971 7.46706 35.6971 6.88372C35.6971 6.30039 35.1721 5.77539 34.5888 5.77539C34.0055 5.77539 33.4805 6.30039 33.4805 6.88372C33.4805 7.46706 34.0055 7.99206 34.5888 7.99206Z" stroke="#FFDA6A" stroke-width="0.583333" stroke-linecap="round" stroke-linejoin="round"/>
<path d="M6.00677 11.6669C6.64844 11.6669 7.1151 11.1419 7.1151 10.5585C7.1151 9.9752 6.5901 9.4502 6.00677 9.4502C5.42344 9.4502 4.89844 9.9752 4.89844 10.5585C4.89844 11.1419 5.42344 11.6669 6.00677 11.6669Z" stroke="#FFDA6A" stroke-width="0.583333" stroke-linecap="round" stroke-linejoin="round"/>
<path d="M23.2724 37.4501C23.9141 37.4501 24.3807 36.9251 24.3807 36.3417C24.3807 35.7584 23.8557 35.2334 23.2724 35.2334C22.6891 35.2334 22.1641 35.7584 22.1641 36.3417C22.1641 36.9251 22.6891 37.4501 23.2724 37.4501Z" stroke="#FFDA6A" stroke-width="0.583333" stroke-linecap="round" stroke-linejoin="round"/>
</svg>
