<svg width="18" height="18" viewBox="0 0 18 18" fill="none" xmlns="http://www.w3.org/2000/svg">
<path d="M15.1875 2.4375C14.8125 2.03125 14.1562 2.03125 13.7812 2.4375L12.9375 3.25L14.75 5.0625L15.5625 4.21875C15.9688 3.84375 15.9688 3.1875 15.5625 2.8125L15.1875 2.4375ZM6.90625 9.3125C6.75 9.4375 6.65625 9.625 6.625 9.78125L6.15625 11.8438L8.21875 11.375C8.375 11.3438 8.5625 11.25 8.6875 11.0938L14.0312 5.75L12.25 3.96875L6.90625 9.3125ZM13.0625 1.71875C13.8438 0.9375 15.125 0.9375 15.9062 1.71875L16.2813 2.09375C17.0625 2.875 17.0625 4.15625 16.2813 4.9375L9.40625 11.8125C9.125 12.0938 8.78125 12.2812 8.4375 12.3438L5.59375 13C5.4375 13.0312 5.25 13 5.125 12.875C5 12.75 4.96875 12.5625 5 12.4062L5.65625 9.5625C5.75 9.21875 5.90625 8.875 6.1875 8.59375L13.0625 1.71875ZM3.5 3H7.5C7.75 3 8 3.25 8 3.5C8 3.78125 7.75 4 7.5 4H3.5C2.65625 4 2 4.6875 2 5.5V14.5C2 15.3438 2.65625 16 3.5 16H12.5C13.3125 16 14 15.3438 14 14.5V10.5C14 10.25 14.2188 10 14.5 10C14.75 10 15 10.25 15 10.5V14.5C15 15.9062 13.875 17 12.5 17H3.5C2.09375 17 1 15.9062 1 14.5V5.5C1 4.125 2.09375 3 3.5 3Z" fill="#F96073"/>
</svg>
