<svg width="16" height="16" viewBox="0 0 16 16" fill="none" xmlns="http://www.w3.org/2000/svg">
<path d="M0 13C0 12.75 0.21875 12.5 0.5 12.5H2.53125C2.78125 11.375 3.78125 10.5 5 10.5C6.1875 10.5 7.21875 11.375 7.4375 12.5H15.5C15.75 12.5 16 12.75 16 13C16 13.2812 15.75 13.5 15.5 13.5H7.4375C7.21875 14.6562 6.1875 15.5 5 15.5C3.78125 15.5 2.78125 14.6562 2.53125 13.5H0.5C0.21875 13.5 0 13.2812 0 13ZM3.5 13C3.5 13.5625 3.78125 14.0312 4.25 14.3125C4.6875 14.5938 5.28125 14.5938 5.75 14.3125C6.1875 14.0312 6.5 13.5625 6.5 13C6.5 12.4688 6.1875 12 5.75 11.7188C5.28125 11.4375 4.6875 11.4375 4.25 11.7188C3.78125 12 3.5 12.4688 3.5 13ZM9.5 8C9.5 8.5625 9.78125 9.03125 10.25 9.3125C10.6875 9.59375 11.2812 9.59375 11.75 9.3125C12.1875 9.03125 12.5 8.5625 12.5 8C12.5 7.46875 12.1875 7 11.75 6.71875C11.2812 6.4375 10.6875 6.4375 10.25 6.71875C9.78125 7 9.5 7.46875 9.5 8ZM11 5.5C12.1875 5.5 13.2188 6.375 13.4375 7.5H15.5C15.75 7.5 16 7.75 16 8C16 8.28125 15.75 8.5 15.5 8.5H13.4375C13.2188 9.65625 12.1875 10.5 11 10.5C9.78125 10.5 8.78125 9.65625 8.53125 8.5H0.5C0.21875 8.5 0 8.28125 0 8C0 7.75 0.21875 7.5 0.5 7.5H8.53125C8.78125 6.375 9.78125 5.5 11 5.5ZM6 4.5C6.53125 4.5 7 4.21875 7.28125 3.75C7.5625 3.3125 7.5625 2.71875 7.28125 2.25C7 1.8125 6.53125 1.5 6 1.5C5.4375 1.5 4.96875 1.8125 4.6875 2.25C4.40625 2.71875 4.40625 3.3125 4.6875 3.75C4.96875 4.21875 5.4375 4.5 6 4.5ZM8.4375 2.5H15.5C15.75 2.5 16 2.75 16 3C16 3.28125 15.75 3.5 15.5 3.5H8.4375C8.21875 4.65625 7.1875 5.5 6 5.5C4.78125 5.5 3.78125 4.65625 3.53125 3.5H0.5C0.21875 3.5 0 3.28125 0 3C0 2.75 0.21875 2.5 0.5 2.5H3.53125C3.78125 1.375 4.78125 0.5 6 0.5C7.1875 0.5 8.21875 1.375 8.4375 2.5Z" fill="#2A3539"/>
</svg>
