<svg width="19" height="19" viewBox="0 0 19 19" fill="none" xmlns="http://www.w3.org/2000/svg">
<path d="M9.42188 1.375C6.57422 1.375 4.00781 2.88672 2.60156 5.3125C1.16016 7.77344 1.16016 10.7617 2.60156 13.1875C4.00781 15.6484 6.57422 17.125 9.42188 17.125C12.2344 17.125 14.8008 15.6484 16.207 13.1875C17.6484 10.7617 17.6484 7.77344 16.207 5.3125C14.8008 2.88672 12.2344 1.375 9.42188 1.375ZM9.42188 18.25C6.1875 18.25 3.23438 16.5625 1.61719 13.75C0 10.9727 0 7.5625 1.61719 4.75C3.23438 1.97266 6.1875 0.25 9.42188 0.25C12.6211 0.25 15.5742 1.97266 17.1914 4.75C18.8086 7.5625 18.8086 10.9727 17.1914 13.75C15.5742 16.5625 12.6211 18.25 9.42188 18.25ZM7.73438 12.625H8.85938V9.25H8.01562C7.69922 9.25 7.45312 9.00391 7.45312 8.6875C7.45312 8.40625 7.69922 8.125 8.01562 8.125H9.42188C9.70312 8.125 9.98438 8.40625 9.98438 8.6875V12.625H11.1094C11.3906 12.625 11.6719 12.9062 11.6719 13.1875C11.6719 13.5039 11.3906 13.75 11.1094 13.75H7.73438C7.41797 13.75 7.17188 13.5039 7.17188 13.1875C7.17188 12.9062 7.41797 12.625 7.73438 12.625ZM9.42188 6.71875C8.92969 6.71875 8.57812 6.36719 8.57812 5.875C8.57812 5.41797 8.92969 5.03125 9.42188 5.03125C9.87891 5.03125 10.2656 5.41797 10.2656 5.875C10.2656 6.36719 9.87891 6.71875 9.42188 6.71875Z" fill="#2A3539"/>
</svg>
