<svg width="18" height="18" viewBox="0 0 18 18" fill="none" xmlns="http://www.w3.org/2000/svg">
<g clip-path="url(#clip0_2552_122910)">
<path d="M9.00781 3.5C6.97656 3.5 5.28906 4.4375 4.00781 5.625C2.82031 6.75 1.97656 8.0625 1.53906 9C1.97656 9.9375 2.82031 11.2812 4.00781 12.375C5.28906 13.5625 6.97656 14.5 9.00781 14.5C11.0391 14.5 12.7266 13.5625 14.0078 12.375C15.1953 11.2812 16.0391 9.9375 16.4766 9C16.0391 8.0625 15.1953 6.75 14.0078 5.625C12.7266 4.4375 11.0391 3.5 9.00781 3.5ZM2.97656 4.53125C4.47656 3.15625 6.47656 2 9.00781 2C11.5391 2 13.5703 3.15625 15.0391 4.53125C16.4766 5.875 17.4766 7.5 17.9453 8.625C18.0391 8.875 18.0391 9.125 17.9453 9.375C17.4766 10.5 16.4766 12.125 15.0391 13.4688C13.5703 14.8438 11.5391 16 9.00781 16C6.47656 16 4.47656 14.8438 2.97656 13.4688C1.53906 12.125 0.539062 10.5 0.0703125 9.375C-0.0234375 9.125 -0.0234375 8.875 0.0703125 8.625C0.539062 7.5 1.53906 5.875 2.97656 4.53125ZM9.00781 11.5C10.3828 11.5 11.5078 10.375 11.5078 9C11.5078 8.0625 11.0078 7.28125 10.2578 6.84375C10.2266 8.6875 8.69531 10.2188 6.85156 10.25C7.28906 11 8.07031 11.5 9.00781 11.5ZM6.50781 8.75C6.60156 8.75 6.66406 8.75 6.75781 8.75C7.85156 8.75 8.75781 7.84375 8.75781 6.75C8.75781 6.65625 8.75781 6.59375 8.75781 6.5C7.57031 6.625 6.63281 7.5625 6.53906 8.75H6.50781ZM7.94531 5.15625C8.28906 5.0625 8.63281 5 9.00781 5C9.28906 5 9.53906 5.03125 9.82031 5.09375C9.82031 5.09375 9.82031 5.09375 9.85156 5.09375C11.6328 5.46875 13.0078 7.09375 13.0078 9C13.0078 11.2188 11.2266 13 9.00781 13C7.07031 13 5.47656 11.6562 5.10156 9.84375C5.03906 9.5625 5.00781 9.28125 5.00781 9C5.00781 8.65625 5.03906 8.3125 5.13281 8C5.13281 7.96875 5.13281 7.96875 5.13281 7.9375C5.50781 6.59375 6.60156 5.53125 7.94531 5.15625Z" fill="#BEC2CE"/>
</g>
<defs>
<clipPath id="clip0_2552_122910">
<rect width="18" height="18" fill="white"/>
</clipPath>
</defs>
</svg>
