<svg width="16" height="16" viewBox="0 0 16 16" fill="none" xmlns="http://www.w3.org/2000/svg">
<path d="M14.6402 2.29706L12.9735 13.1304C12.9475 13.3908 12.7912 13.6252 12.5568 13.7294C12.3485 13.8596 12.0621 13.8856 11.8277 13.7814L8.85893 12.5314L7.47872 14.2502C7.27039 14.5366 6.95789 14.6669 6.61935 14.6669C5.99435 14.6669 5.49955 14.1721 5.49955 13.5471V11.1252L1.82768 9.61477C1.54122 9.48456 1.33289 9.22415 1.33289 8.8856C1.30685 8.5731 1.4631 8.28665 1.74955 8.1304L13.4162 1.46373C13.6766 1.30748 14.0412 1.30748 14.3016 1.48977C14.5621 1.67206 14.6923 1.98456 14.6402 2.29706ZM8.05164 12.2189L6.33289 11.4898V13.5471C6.33289 13.7294 6.43705 13.8335 6.61935 13.8335C6.69747 13.8335 6.7756 13.8075 6.82768 13.7294L8.05164 12.2189ZM9.17143 11.7762L12.1662 13.0002L13.6766 3.18248L6.67143 10.7346L9.17143 11.7762ZM13.0516 2.60956L2.16622 8.83352L5.8381 10.37L13.0516 2.60956Z" fill="white"/>
</svg>
