<svg width="42" height="42" viewBox="0 0 42 42" fill="none" xmlns="http://www.w3.org/2000/svg">
<path d="M33.8208 21.1077C33.1892 20.997 35.4064 20.3751 35.4064 20.3751L33.2608 19.9421L35.0808 19.6686L36.7934 19.4114L36.9138 19.037C35.312 18.871 32.8994 18.6203 32.8766 18.6203C32.8538 18.6203 35.1557 18.21 37.2622 17.9365L37.3306 17.7249C37.9752 15.6998 36.7608 13.5575 34.6933 13.0724L13.3547 8.06166C11.3622 7.59282 9.37614 8.85608 8.95614 10.8584L7.85893 16.084C9.72451 16.0221 11.4566 16.6147 11.8994 16.5919C11.9385 16.5886 11.971 16.5854 11.9873 16.5854C12.0231 16.5854 11.9873 16.5854 11.8994 16.5919C11.3915 16.6407 9.18079 16.9924 7.61149 17.2463L7.53661 17.6045C8.318 17.6533 8.79009 17.7054 8.93009 17.7021C13.384 17.6012 8.02172 18.5942 7.25335 18.9426L5.50498 27.2579C5.05568 29.3905 6.56963 31.4384 8.74126 31.637L29.3017 33.5058C31.0045 33.6621 32.5836 32.6105 33.1045 30.9826L36.1943 21.2933C35.2859 21.2379 34.1789 21.1631 33.824 21.1012L33.8208 21.1077Z" fill="#FFD5DA"/>
<path d="M32.1148 9.21876L7.72656 12.5205L10.2906 31.4594L34.6788 28.1576L32.1148 9.21876Z" fill="white"/>
<path d="M30.987 10.4909L9.49609 13.4004L11.7347 29.9356L33.2256 27.0261L30.987 10.4909Z" fill="#FFF3CD"/>
<path d="M24.3867 28.0068L27.037 24.8682L35.4402 32.1449L32.5946 35.3226L24.3867 28.0068Z" fill="#FF9BA7"/>
<path d="M34.5837 36.5597C35.8079 35.8239 37.0256 33.9974 37.0256 33.9974L35.4042 32.1807L32.6562 35.316L34.5837 36.563V36.5597Z" fill="white"/>
<path d="M22.2064 23.3799L26.5659 24.4348L27.1682 24.9231C27.1682 24.9231 24.2282 28.1008 24.2282 28.0324C24.2282 28.0129 23.8408 27.7003 23.8408 27.7003L22.2031 23.3799H22.2064Z" fill="white"/>
<path d="M23.2327 26.4114C23.3238 26.2974 25.2806 24.0151 25.2122 23.9923C25.1438 23.9695 21.9727 23.3281 21.9727 23.3281L23.2327 26.4114Z" fill="#FF9BA7"/>
<path d="M26.885 37.266C27.4945 37.266 27.9887 36.7719 27.9887 36.1623C27.9887 35.5527 27.4945 35.0586 26.885 35.0586C26.2754 35.0586 25.7812 35.5527 25.7812 36.1623C25.7812 36.7719 26.2754 37.266 26.885 37.266Z" stroke="#FFDA6A" stroke-linecap="round" stroke-linejoin="round"/>
<path d="M19.3264 5.226C19.9359 5.226 20.4301 4.73184 20.4301 4.12228C20.4301 3.51271 19.9359 3.01855 19.3264 3.01855C18.7168 3.01855 18.2227 3.51271 18.2227 4.12228C18.2227 4.73184 18.7168 5.226 19.3264 5.226Z" stroke="#FFDA6A" stroke-linecap="round" stroke-linejoin="round"/>
<path d="M4.31856 19.4281C4.92813 19.4281 5.42229 18.934 5.42229 18.3244C5.42229 17.7149 4.92813 17.2207 4.31856 17.2207C3.709 17.2207 3.21484 17.7149 3.21484 18.3244C3.21484 18.934 3.709 19.4281 4.31856 19.4281Z" stroke="#FFDA6A" stroke-linecap="round" stroke-linejoin="round"/>
<path d="M7.1898 5.38184L5.32422 7.24416" stroke="#F96073" stroke-linecap="round" stroke-linejoin="round"/>
<path d="M5.32422 5.38184L7.1898 7.24416" stroke="#F96073" stroke-linecap="round" stroke-linejoin="round"/>
<path d="M33.793 3.67969V6.31364" stroke="#F96073" stroke-linecap="round" stroke-linejoin="round"/>
<path d="M32.4766 4.99805H35.1138" stroke="#F96073" stroke-linecap="round" stroke-linejoin="round"/>
<path d="M12.1289 33.5254V36.1626" stroke="#F96073" stroke-linecap="round" stroke-linejoin="round"/>
<path d="M10.8125 34.8438H13.4497" stroke="#F96073" stroke-linecap="round" stroke-linejoin="round"/>
<path d="M23.8431 29.5992L10.2891 31.4323L9.83984 28.1211" stroke="#2A3539" stroke-linecap="round" stroke-linejoin="round"/>
<path d="M9.51271 25.7216L7.67969 12.1774L32.069 8.87598L34.6769 28.1309L33.7522 28.2578L33.2313 28.3262" stroke="#2A3539" stroke-linecap="round" stroke-linejoin="round"/>
<path d="M11.8672 15.9741L28.9635 13.6592" stroke="#2A3539" stroke-linecap="round" stroke-linejoin="round"/>
<path d="M12.3477 19.5356L29.4439 17.2207" stroke="#2A3539" stroke-linecap="round" stroke-linejoin="round"/>
<path d="M12.8359 23.0978L29.929 20.7861" stroke="#2A3539" stroke-linecap="round" stroke-linejoin="round"/>
<path d="M13.3164 26.6633L20.5997 25.6768" stroke="#2A3539" stroke-linecap="round" stroke-linejoin="round"/>
<path d="M35.3638 36.0196L36.5326 34.6685C36.9624 34.1736 36.9071 33.4182 36.4122 32.9885L26.7196 24.595L22.0703 23.3252L23.9912 27.7466L33.6838 36.1401C34.1787 36.5698 34.934 36.5145 35.3638 36.0196Z" stroke="#2A3539" stroke-linecap="round" stroke-linejoin="round"/>
<path d="M34.6429 33.1416L32.875 35.183" stroke="#2A3539" stroke-linecap="round" stroke-linejoin="round"/>
<path d="M24.3867 27.8537L26.8872 24.9658" stroke="#2A3539" stroke-linecap="round" stroke-linejoin="round"/>
<path d="M24.859 24.1982L23.332 25.9629" stroke="#2A3539" stroke-linecap="round" stroke-linejoin="round"/>
<path d="M32.4251 32.2921L25.6367 26.4121" stroke="#2A3539" stroke-linecap="round" stroke-linejoin="round"/>
</svg>
