<svg width="16" height="16" viewBox="0 0 16 16" fill="none" xmlns="http://www.w3.org/2000/svg">
<path d="M0 13C0 12.5938 0.3125 12.25 0.75 12.25H2.59375C2.90625 11.25 3.875 10.5 5 10.5C6.09375 10.5 7.0625 11.25 7.375 12.25H15.25C15.6562 12.25 16 12.5938 16 13C16 13.4375 15.6562 13.75 15.25 13.75H7.375C7.0625 14.7812 6.09375 15.5 5 15.5C3.875 15.5 2.90625 14.7812 2.59375 13.75H0.75C0.3125 13.75 0 13.4375 0 13ZM4 13C4 13.5625 4.4375 14 5 14C5.53125 14 6 13.5625 6 13C6 12.4688 5.53125 12 5 12C4.4375 12 4 12.4688 4 13ZM10 8C10 8.5625 10.4375 9 11 9C11.5312 9 12 8.5625 12 8C12 7.46875 11.5312 7 11 7C10.4375 7 10 7.46875 10 8ZM11 5.5C12.0938 5.5 13.0625 6.25 13.375 7.25H15.25C15.6562 7.25 16 7.59375 16 8C16 8.4375 15.6562 8.75 15.25 8.75H13.375C13.0625 9.78125 12.0938 10.5 11 10.5C9.875 10.5 8.90625 9.78125 8.59375 8.75H0.75C0.3125 8.75 0 8.4375 0 8C0 7.59375 0.3125 7.25 0.75 7.25H8.59375C8.90625 6.25 9.875 5.5 11 5.5ZM6 4C6.53125 4 7 3.5625 7 3C7 2.46875 6.53125 2 6 2C5.4375 2 5 2.46875 5 3C5 3.5625 5.4375 4 6 4ZM8.375 2.25H15.25C15.6562 2.25 16 2.59375 16 3C16 3.4375 15.6562 3.75 15.25 3.75H8.375C8.0625 4.78125 7.09375 5.5 6 5.5C4.875 5.5 3.90625 4.78125 3.59375 3.75H0.75C0.3125 3.75 0 3.4375 0 3C0 2.59375 0.3125 2.25 0.75 2.25H3.59375C3.90625 1.25 4.875 0.5 6 0.5C7.09375 0.5 8.0625 1.25 8.375 2.25Z" fill="#2A3539"/>
</svg>
