<svg width="16" height="16" viewBox="0 0 16 16" fill="none" xmlns="http://www.w3.org/2000/svg">
<path d="M4.0625 5.91797C4.0625 7.14844 4.71875 8.67969 5.67578 10.2109C6.44141 11.4414 7.34375 12.5352 8 13.2734C8.65625 12.5352 9.55859 11.4414 10.3242 10.2109C11.2812 8.67969 11.9375 7.14844 11.9375 5.91797C11.9375 3.8125 10.1875 2.0625 8 2.0625C5.8125 2.0625 4.0625 3.8125 4.0625 5.91797ZM8 0.75C10.8984 0.75 13.25 3.04688 13.25 5.91797C13.25 9.17188 9.96875 13.082 8.60156 14.5586C8.27344 14.9141 7.72656 14.9141 7.39844 14.5586C6.03125 13.082 2.75 9.17188 2.75 5.91797C2.75 3.04688 5.10156 0.75 8 0.75ZM7.125 6C7.125 6.49219 7.50781 6.875 8 6.875C8.49219 6.875 8.875 6.49219 8.875 6C8.875 5.50781 8.49219 5.125 8 5.125C7.50781 5.125 7.125 5.50781 7.125 6ZM10.1875 6C10.1875 7.20312 9.20312 8.1875 8 8.1875C6.79688 8.1875 5.8125 7.20312 5.8125 6C5.8125 4.79688 6.79688 3.8125 8 3.8125C9.20312 3.8125 10.1875 4.79688 10.1875 6Z" fill="#F96073"/>
</svg>
