<svg width="18" height="18" viewBox="0 0 18 18" fill="none" xmlns="http://www.w3.org/2000/svg">
<path d="M1.125 3.0625C1.125 2.78125 1.37109 2.5 1.6875 2.5H16.3125C16.5938 2.5 16.875 2.78125 16.875 3.0625C16.875 3.37891 16.5938 3.625 16.3125 3.625H1.6875C1.37109 3.625 1.125 3.37891 1.125 3.0625ZM1.125 8.6875C1.125 8.40625 1.37109 8.125 1.6875 8.125H11.8125C12.0938 8.125 12.375 8.40625 12.375 8.6875C12.375 9.00391 12.0938 9.25 11.8125 9.25H1.6875C1.37109 9.25 1.125 9.00391 1.125 8.6875ZM7.875 14.3125C7.875 14.6289 7.59375 14.875 7.3125 14.875H1.6875C1.37109 14.875 1.125 14.6289 1.125 14.3125C1.125 14.0312 1.37109 13.75 1.6875 13.75H7.3125C7.59375 13.75 7.875 14.0312 7.875 14.3125Z" fill="#2A3539"/>
</svg>
