<svg width="16" height="16" viewBox="0 0 16 16" fill="none" xmlns="http://www.w3.org/2000/svg">
<path d="M3.1875 1.40625V2.17188L5.51172 1.59766C6.55078 1.32422 7.64453 1.46094 8.62891 1.92578C9.88672 2.55469 11.3633 2.55469 12.6484 1.92578L12.8945 1.78906C13.4688 1.51562 14.125 1.92578 14.125 2.55469V10.2109C14.125 10.5664 13.9062 10.8945 13.5508 11.0312L12.6211 11.3867C11.3359 11.8516 9.94141 11.7695 8.73828 11.168C7.69922 10.6484 6.49609 10.5391 5.375 10.8125L3.1875 11.3594V14.0938C3.1875 14.4492 2.88672 14.75 2.53125 14.75C2.17578 14.75 1.875 14.4492 1.875 14.0938V1.40625C1.875 1.05078 2.17578 0.75 2.53125 0.75C2.88672 0.75 3.1875 1.05078 3.1875 1.40625ZM3.1875 3.53906V10.0195L5.07422 9.52734C6.49609 9.17188 8 9.33594 9.3125 9.99219C10.1875 10.457 11.2266 10.4844 12.1562 10.1562L12.8125 9.91016V3.29297C11.2812 3.92188 9.53125 3.86719 8.02734 3.10156C7.34375 2.77344 6.57812 2.69141 5.83984 2.85547L3.1875 3.53906Z" fill="#F96073"/>
</svg>
