<svg width="16" height="16" viewBox="0 0 16 16" fill="none" xmlns="http://www.w3.org/2000/svg">
<path d="M5.15625 0.75C5.51172 0.75 5.8125 1.05078 5.8125 1.40625V2.5H10.1875V1.40625C10.1875 1.05078 10.4883 0.75 10.8438 0.75C11.1992 0.75 11.5 1.05078 11.5 1.40625V2.5H12.375C13.332 2.5 14.125 3.29297 14.125 4.25V12.125C14.125 13.082 13.332 13.875 12.375 13.875H3.625C2.66797 13.875 1.875 13.082 1.875 12.125V4.25C1.875 3.29297 2.66797 2.5 3.625 2.5H4.5V1.40625C4.5 1.05078 4.80078 0.75 5.15625 0.75ZM5.15625 3.8125H3.625C3.37891 3.8125 3.1875 4.00391 3.1875 4.25V5.5625H12.8125V4.25C12.8125 4.00391 12.6211 3.8125 12.375 3.8125H5.15625ZM3.1875 6.875V12.125C3.1875 12.3711 3.37891 12.5625 3.625 12.5625H12.375C12.6211 12.5625 12.8125 12.3711 12.8125 12.125V6.875H3.1875Z" fill="#F96073"/>
</svg>
