<svg width="16" height="16" viewBox="0 0 16 16" fill="none" xmlns="http://www.w3.org/2000/svg">
<path d="M3.1875 12.125C3.1875 12.3711 3.37891 12.5625 3.625 12.5625H12.375C12.6211 12.5625 12.8125 12.3711 12.8125 12.125V3.375C12.8125 3.12891 12.6211 2.9375 12.375 2.9375H3.625C3.37891 2.9375 3.1875 3.12891 3.1875 3.375V12.125ZM3.625 13.875C2.66797 13.875 1.875 13.082 1.875 12.125V3.375C1.875 2.41797 2.66797 1.625 3.625 1.625H12.375C13.332 1.625 14.125 2.41797 14.125 3.375V12.125C14.125 13.082 13.332 13.875 12.375 13.875H3.625ZM7.125 7.75C7.125 7.25781 7.50781 6.875 8 6.875C8.49219 6.875 8.875 7.25781 8.875 7.75C8.875 8.24219 8.49219 8.625 8 8.625C7.50781 8.625 7.125 8.24219 7.125 7.75ZM5.375 8.625C4.88281 8.625 4.5 8.24219 4.5 7.75C4.5 7.25781 4.88281 6.875 5.375 6.875C5.86719 6.875 6.25 7.25781 6.25 7.75C6.25 8.24219 5.86719 8.625 5.375 8.625ZM9.75 7.75C9.75 7.25781 10.1328 6.875 10.625 6.875C11.1172 6.875 11.5 7.25781 11.5 7.75C11.5 8.24219 11.1172 8.625 10.625 8.625C10.1328 8.625 9.75 8.24219 9.75 7.75Z" fill="#F96073"/>
</svg>
