<svg width="16" height="16" viewBox="0 0 16 16" fill="none" xmlns="http://www.w3.org/2000/svg">
<path d="M9.75 0.75C11.0898 0.75 12.3203 0.96875 13.25 1.35156C13.6875 1.51562 14.0977 1.76172 14.4258 2.03516C14.7266 2.28125 15 2.66406 15 3.15625V8.84375C15 9.33594 14.7266 9.71875 14.4258 9.99219C14.0977 10.2656 13.6875 10.4844 13.25 10.6484C13.1133 10.7031 12.9492 10.7578 12.8125 10.8125V9.41797C13.168 9.28125 13.4141 9.11719 13.5508 8.98047C13.6602 8.89844 13.6875 8.84375 13.6875 8.81641V7.72266C13.4141 7.83203 13.1133 7.94141 12.8125 8.02344V6.65625C13.0312 6.57422 13.2227 6.51953 13.3867 6.4375C13.4961 6.35547 13.6055 6.30078 13.6875 6.24609V4.79688C13.5508 4.87891 13.3867 4.93359 13.2227 5.01562C12.9766 5.09766 12.7031 5.17969 12.4297 5.26172C12.2383 4.96094 12.0195 4.6875 11.8008 4.49609C11.6641 4.38672 11.5 4.25 11.3359 4.14062C12.7305 3.97656 13.6875 3.59375 13.6875 3.15625C13.6875 2.60938 11.9102 2.0625 9.75 2.0625C7.86328 2.0625 6.27734 2.47266 5.89453 2.9375C5.42969 2.9375 4.96484 2.99219 4.5 3.04688C4.52734 2.60938 4.80078 2.25391 5.07422 2.00781C5.40234 1.73438 5.8125 1.51562 6.25 1.35156C7.17969 0.96875 8.41016 0.75 9.75 0.75ZM2.75 4.85156C3.67969 4.46875 4.91016 4.25 6.25 4.25C7.58984 4.25 8.82031 4.46875 9.75 4.85156C10.1875 5.01562 10.5977 5.26172 10.9258 5.53516C11.2266 5.78125 11.5 6.16406 11.5 6.65625V12.3438C11.5 12.8359 11.2266 13.2188 10.9258 13.4922C10.5977 13.7656 10.1875 13.9844 9.75 14.1484C8.82031 14.5312 7.58984 14.75 6.25 14.75C4.91016 14.75 3.67969 14.5312 2.75 14.1484C2.3125 13.9844 1.90234 13.7383 1.57422 13.4922C1.27344 13.2188 1 12.8359 1 12.3438V6.65625C1 6.16406 1.27344 5.78125 1.57422 5.53516C1.90234 5.26172 2.3125 5.01562 2.75 4.85156ZM9.72266 8.51562C8.82031 8.87109 7.58984 9.0625 6.25 9.0625C4.9375 9.0625 3.67969 8.87109 2.77734 8.51562C2.61328 8.46094 2.44922 8.37891 2.3125 8.32422V9.74609C2.39453 9.80078 2.50391 9.88281 2.64062 9.9375C2.88672 10.0469 3.1875 10.1836 3.57031 10.2656C4.33594 10.4844 5.26562 10.5938 6.25 10.5938C7.23438 10.5938 8.16406 10.4844 8.92969 10.2656C9.3125 10.1836 9.61328 10.0469 9.88672 9.9375C9.99609 9.88281 10.1055 9.80078 10.1875 9.74609V8.32422C10.0508 8.37891 9.88672 8.46094 9.72266 8.51562ZM2.3125 11.2227V12.3438C2.3125 12.3438 2.33984 12.3984 2.44922 12.5078C2.61328 12.6445 2.85938 12.7812 3.24219 12.9453C3.98047 13.2188 5.04688 13.4375 6.25 13.4375C7.45312 13.4375 8.51953 13.2188 9.25781 12.9453C9.64062 12.7812 9.88672 12.6445 10.0508 12.5078C10.1602 12.3984 10.1875 12.3438 10.1875 12.3438V11.2227C9.91406 11.3594 9.58594 11.4414 9.25781 11.5508C8.38281 11.7695 7.31641 11.9062 6.25 11.9062C5.18359 11.9062 4.11719 11.7695 3.24219 11.5508C2.91406 11.4414 2.58594 11.3594 2.3125 11.2227ZM10.1875 6.65625C10.1875 6.10938 8.4375 5.5625 6.25 5.5625C4.08984 5.5625 2.3125 6.10938 2.3125 6.65625C2.3125 7.25781 4.08984 7.75 6.25 7.75C8.4375 7.75 10.1875 7.25781 10.1875 6.65625Z" fill="#F96073"/>
</svg>
