<svg width="18" height="19" viewBox="0 0 18 19" fill="none" xmlns="http://www.w3.org/2000/svg">
<path d="M14.625 7C14.625 3.90625 12.0938 1.375 9 1.375C5.87109 1.375 3.375 3.90625 3.375 7C3.375 7.5625 3.55078 8.30078 3.9375 9.25C4.32422 10.1641 4.85156 11.1484 5.48438 12.1328C6.67969 14.0664 8.08594 15.9297 9 17.0547C9.87891 15.9297 11.2852 14.0664 12.5156 12.1328C13.1133 11.1484 13.6406 10.1641 14.0273 9.25C14.4141 8.30078 14.625 7.5625 14.625 7ZM15.75 7C15.75 10.0938 11.6367 15.543 9.80859 17.8281C9.38672 18.3555 8.57812 18.3555 8.15625 17.8281C6.36328 15.543 2.25 10.0938 2.25 7C2.25 3.27344 5.27344 0.25 9 0.25C12.7266 0.25 15.75 3.27344 15.75 7ZM7.3125 7C7.3125 7.63281 7.62891 8.16016 8.15625 8.47656C8.64844 8.79297 9.31641 8.79297 9.84375 8.47656C10.3359 8.16016 10.6875 7.63281 10.6875 7C10.6875 6.40234 10.3359 5.875 9.84375 5.55859C9.31641 5.24219 8.64844 5.24219 8.15625 5.55859C7.62891 5.875 7.3125 6.40234 7.3125 7ZM9 9.8125C7.98047 9.8125 7.06641 9.28516 6.53906 8.40625C6.04688 7.5625 6.04688 6.47266 6.53906 5.59375C7.06641 4.75 7.98047 4.1875 9 4.1875C9.98438 4.1875 10.8984 4.75 11.4258 5.59375C11.918 6.47266 11.918 7.5625 11.4258 8.40625C10.8984 9.28516 9.98438 9.8125 9 9.8125Z" fill="#2A3539"/>
</svg>
