<svg width="14" height="14" viewBox="0 0 14 14" fill="none" xmlns="http://www.w3.org/2000/svg">
<path d="M10.75 5.5C10.75 3.4375 9.0625 1.75 7 1.75C4.91406 1.75 3.25 3.4375 3.25 5.5C3.25 5.875 3.36719 6.36719 3.625 7C3.88281 7.60938 4.23438 8.26562 4.65625 8.92188C5.45312 10.2109 6.39062 11.4531 7 12.2031C7.58594 11.4531 8.52344 10.2109 9.34375 8.92188C9.74219 8.26562 10.0938 7.60938 10.3516 7C10.6094 6.36719 10.75 5.875 10.75 5.5ZM11.5 5.5C11.5 7.5625 8.75781 11.1953 7.53906 12.7188C7.25781 13.0703 6.71875 13.0703 6.4375 12.7188C5.24219 11.1953 2.5 7.5625 2.5 5.5C2.5 3.01562 4.51562 1 7 1C9.48438 1 11.5 3.01562 11.5 5.5ZM5.875 5.5C5.875 5.92188 6.08594 6.27344 6.4375 6.48438C6.76562 6.69531 7.21094 6.69531 7.5625 6.48438C7.89062 6.27344 8.125 5.92188 8.125 5.5C8.125 5.10156 7.89062 4.75 7.5625 4.53906C7.21094 4.32812 6.76562 4.32812 6.4375 4.53906C6.08594 4.75 5.875 5.10156 5.875 5.5ZM7 7.375C6.32031 7.375 5.71094 7.02344 5.35938 6.4375C5.03125 5.875 5.03125 5.14844 5.35938 4.5625C5.71094 4 6.32031 3.625 7 3.625C7.65625 3.625 8.26562 4 8.61719 4.5625C8.94531 5.14844 8.94531 5.875 8.61719 6.4375C8.26562 7.02344 7.65625 7.375 7 7.375Z" fill="#F96073"/>
</svg>
