<svg width="18" height="18" viewBox="0 0 18 18" fill="none" xmlns="http://www.w3.org/2000/svg">
<path d="M8.0621 3.90598C8.4996 5.24973 8.0621 6.62473 7.03085 6.93723C6.03085 7.28098 4.84335 6.46848 4.40585 5.12473C3.96835 3.78098 4.40585 2.40598 5.4371 2.09348C6.4371 1.74973 7.6246 2.56223 8.0621 3.90598ZM4.1246 7.21848C4.71835 8.21848 4.5621 9.40598 3.8121 9.84348C3.03085 10.281 1.9371 9.81223 1.34335 8.81223C0.749603 7.78098 0.905853 6.62473 1.65585 6.18723C2.4371 5.74973 3.53085 6.21848 4.1246 7.21848ZM3.15585 13.5622C4.78085 9.12473 7.6871 7.99973 8.9996 7.99973C10.2809 7.99973 13.1871 9.12473 14.8121 13.5622C14.9371 13.8435 14.9996 14.1872 14.9996 14.4997V14.5622C14.9996 15.3747 14.3434 15.9997 13.5309 15.9997C13.1559 15.9997 12.8121 15.9685 12.4684 15.8747L9.71835 15.1872C9.2496 15.0622 8.7496 15.0622 8.2496 15.1872L5.4996 15.8747C5.15585 15.9685 4.8121 15.9997 4.4371 15.9997C3.6246 15.9997 2.9996 15.3747 2.9996 14.5622V14.4997C2.9996 14.1872 3.03085 13.8435 3.15585 13.5622ZM14.1559 9.84348C13.4059 9.40598 13.2496 8.21848 13.8434 7.21848C14.4371 6.21848 15.5309 5.74973 16.3121 6.18723C17.0621 6.62473 17.2184 7.78098 16.6246 8.81223C16.0309 9.81223 14.9371 10.281 14.1559 9.84348ZM10.6871 6.93723C9.65585 6.62473 9.21835 5.24973 9.65585 3.90598C10.0934 2.56223 11.2809 1.74973 12.2809 2.09348C13.3121 2.40598 13.7496 3.78098 13.3121 5.12473C12.8746 6.46848 11.6871 7.28098 10.6871 6.93723Z" fill="#00D98B"/>
</svg>
