<svg width="18" height="18" viewBox="0 0 18 18" fill="none" xmlns="http://www.w3.org/2000/svg">
<path d="M7.15585 5.49973C7.2496 5.15598 7.28085 4.71848 7.1246 4.21848C6.96835 3.74973 6.6871 3.40598 6.3746 3.18723C6.09335 2.99973 5.8746 2.99973 5.7496 3.03098C5.59335 3.09348 5.4371 3.21848 5.3121 3.53098C5.21835 3.87473 5.1871 4.31223 5.34335 4.81223C5.53085 5.28098 5.8121 5.62473 6.09335 5.84348C6.3746 6.03098 6.59335 6.03098 6.7496 5.99973C6.8746 5.93723 7.03085 5.81223 7.15585 5.49973ZM7.03085 6.93723C6.03085 7.28098 4.84335 6.43723 4.40585 5.12473C3.96835 3.78098 4.40585 2.40598 5.4371 2.09348C6.4371 1.74973 7.6246 2.56223 8.0621 3.90598C8.4996 5.24973 8.0621 6.62473 7.03085 6.93723ZM3.46835 8.62473C3.4996 8.40598 3.46835 8.06223 3.2496 7.71848C3.0621 7.37473 2.8121 7.18723 2.5621 7.06223C2.34335 6.96848 2.21835 7.03098 2.15585 7.06223C2.1246 7.06223 2.03085 7.15598 1.9996 7.40598C1.96835 7.62473 2.03085 7.96848 2.21835 8.31223C2.40585 8.65598 2.6871 8.84348 2.90585 8.96848C3.1246 9.06223 3.2496 8.99973 3.3121 8.96848C3.34335 8.96848 3.4371 8.87473 3.46835 8.62473ZM3.8121 9.84348C3.03085 10.281 1.9371 9.81223 1.34335 8.81223C0.749603 7.78098 0.905853 6.62473 1.65585 6.18723C2.4371 5.74973 3.53085 6.21848 4.1246 7.21848C4.71835 8.21848 4.5621 9.40598 3.8121 9.84348ZM8.9996 8.99973C8.1871 8.99973 5.59335 9.81223 4.09335 13.906C4.03085 14.0622 3.9996 14.281 3.9996 14.4997V14.656C3.9996 14.8435 4.15585 14.9997 4.34335 14.9997C4.65585 14.9997 4.9996 14.9685 5.28085 14.8747L7.78085 14.0935C8.5621 13.8435 9.40585 13.8435 10.1871 14.0935L12.6871 14.8747C12.9996 14.9685 13.3121 14.9997 13.6246 14.9997C13.8121 14.9997 13.9996 14.8435 13.9996 14.656V14.4997C13.9996 14.281 13.9371 14.0622 13.8746 13.906C12.3746 9.81223 9.78085 8.99973 8.9996 8.99973ZM8.9996 7.99973C10.2809 7.99973 13.1871 9.12473 14.8121 13.5622C14.9371 13.8435 14.9996 14.1872 14.9996 14.4997V14.656C14.9996 15.406 14.3746 15.9997 13.6246 15.9997C13.1871 15.9997 12.7809 15.9372 12.3746 15.8122L9.8746 15.031C9.3121 14.8747 8.6871 14.8747 8.09335 15.031L5.59335 15.8122C5.1871 15.9372 4.78085 15.9997 4.34335 15.9997C3.59335 15.9997 2.9996 15.406 2.9996 14.656V14.4997C2.9996 14.1872 3.03085 13.8435 3.15585 13.5622C4.78085 9.12473 7.6871 7.99973 8.9996 7.99973ZM14.7184 7.71848C14.5309 8.06223 14.4684 8.37473 14.4996 8.62473C14.5309 8.87473 14.6246 8.96848 14.6559 8.96848C14.7184 8.99973 14.8434 9.06223 15.0621 8.96848C15.3121 8.84348 15.5621 8.65598 15.7496 8.31223C15.9684 7.96848 15.9996 7.65598 15.9684 7.40598C15.9371 7.15598 15.8434 7.06223 15.8121 7.06223C15.7496 7.03098 15.6246 6.96848 15.4059 7.06223C15.1871 7.18723 14.9059 7.37473 14.7184 7.71848ZM13.8434 7.21848C14.4371 6.21848 15.5309 5.74973 16.3121 6.18723C17.0621 6.62473 17.2184 7.78098 16.6246 8.81223C16.0309 9.81223 14.9371 10.281 14.1559 9.84348C13.4059 9.40598 13.2496 8.21848 13.8434 7.21848ZM10.5934 4.21848C10.4371 4.71848 10.4684 5.15598 10.5621 5.49973C10.6871 5.81223 10.8434 5.93723 10.9996 5.99973C11.1246 6.03098 11.3434 6.03098 11.6246 5.84348C11.9371 5.62473 12.2184 5.28098 12.3746 4.81223C12.5309 4.31223 12.4996 3.87473 12.4059 3.53098C12.2809 3.21848 12.1246 3.09348 11.9996 3.03098C11.8434 2.99973 11.6246 2.99973 11.3434 3.18723C11.0621 3.40598 10.7809 3.74973 10.5934 4.21848ZM9.65585 3.90598C10.0934 2.56223 11.2809 1.74973 12.2809 2.09348C13.3121 2.40598 13.7496 3.78098 13.3121 5.12473C12.8746 6.46848 11.6871 7.28098 10.6871 6.93723C9.65585 6.62473 9.21835 5.24973 9.65585 3.90598Z" fill="#8B91A3"/>
</svg>
