<svg width="18" height="19" viewBox="0 0 18 19" fill="none" xmlns="http://www.w3.org/2000/svg">
<path d="M1.125 9.25C1.125 13.6094 4.64062 17.125 9 17.125C13.3242 17.125 16.875 13.6094 16.875 9.25C16.875 8.96875 17.1211 8.6875 17.4375 8.6875C17.7188 8.6875 18 8.96875 18 9.25C18 14.2422 13.957 18.25 9 18.25C4.00781 18.25 0 14.2422 0 9.25C0 4.29297 4.00781 0.25 9 0.25C11.25 0.25 13.3594 1.12891 14.9414 2.5L16.4531 0.988281C16.6641 0.777344 17.0508 0.777344 17.2617 0.988281C17.4727 1.19922 17.4727 1.58594 17.2617 1.79688L9.38672 9.67188C9.17578 9.88281 8.78906 9.88281 8.57812 9.67188C8.36719 9.46094 8.36719 9.07422 8.57812 8.86328L10.125 7.31641C9.80859 7.14062 9.38672 7 9 7C7.73438 7 6.75 8.01953 6.75 9.25C6.75 10.5156 7.73438 11.5 9 11.5C10.2305 11.5 11.25 10.5156 11.25 9.25C11.25 8.96875 11.4961 8.6875 11.8125 8.6875C12.0938 8.6875 12.375 8.96875 12.375 9.25C12.375 11.1133 10.8633 12.625 9 12.625C7.13672 12.625 5.625 11.1133 5.625 9.25C5.625 7.38672 7.13672 5.875 9 5.875C9.70312 5.875 10.3711 6.12109 10.9336 6.50781L12.1641 5.3125C11.2852 4.60938 10.1953 4.1875 9 4.1875C6.92578 4.1875 5.13281 5.45312 4.35938 7.24609C4.21875 7.52734 3.90234 7.66797 3.62109 7.52734C3.30469 7.42188 3.19922 7.07031 3.30469 6.78906C4.25391 4.60938 6.43359 3.0625 9 3.0625C10.4766 3.0625 11.8828 3.625 12.9375 4.50391L14.1328 3.30859C12.7617 2.11328 10.9688 1.375 9 1.375C4.64062 1.375 1.125 4.92578 1.125 9.25ZM14.625 8.6875C14.9062 8.6875 15.1875 8.96875 15.1875 9.25C15.1875 11.8164 13.6406 13.9961 11.4609 14.9453C11.1797 15.0508 10.8281 14.9453 10.7227 14.6641C10.582 14.3477 10.7227 14.0312 11.0039 13.8906C12.7969 13.1172 14.0625 11.3242 14.0625 9.25C14.0625 8.96875 14.3086 8.6875 14.625 8.6875ZM3.58594 11.0078C3.86719 10.8672 4.21875 11.0078 4.32422 11.2891C4.85156 12.4492 5.80078 13.3984 6.96094 13.8906C7.24219 14.0312 7.38281 14.3477 7.24219 14.6289C7.13672 14.9453 6.78516 15.0508 6.50391 14.9453C5.0625 14.3125 3.9375 13.1523 3.30469 11.7461C3.19922 11.4648 3.30469 11.1133 3.58594 11.0078ZM4.21875 9.25C4.21875 9.74219 3.83203 10.0938 3.375 10.0938C2.88281 10.0938 2.53125 9.74219 2.53125 9.25C2.53125 8.79297 2.88281 8.40625 3.375 8.40625C3.83203 8.40625 4.21875 8.79297 4.21875 9.25ZM9 15.7188C8.50781 15.7188 8.15625 15.3672 8.15625 14.875C8.15625 14.418 8.50781 14.0312 9 14.0312C9.45703 14.0312 9.84375 14.418 9.84375 14.875C9.84375 15.3672 9.45703 15.7188 9 15.7188Z" fill="#2A3539"/>
</svg>
