<svg width="16" height="16" viewBox="0 0 16 16" fill="none" xmlns="http://www.w3.org/2000/svg">
<path d="M1.42578 6.41797C1.35547 6.69922 1.10938 6.875 0.863281 6.875C0.511719 6.875 0.230469 6.59375 0.300781 6.24219C1.10938 2.76172 4.23828 0.125 8 0.125C10.8477 0.125 13.3438 1.67188 14.75 3.95703V1.8125C14.75 1.53125 14.9961 1.25 15.3125 1.25C15.5938 1.25 15.875 1.53125 15.875 1.8125V5.1875C15.875 5.50391 15.5938 5.75 15.3125 5.75H14.75H11.9375C11.6211 5.75 11.375 5.50391 11.375 5.1875C11.375 4.90625 11.6211 4.625 11.9375 4.625H13.8359C12.6758 2.62109 10.4961 1.25 8 1.25C4.80078 1.25 2.12891 3.46484 1.42578 6.41797ZM14.5391 9.61719C14.6094 9.33594 14.8555 9.125 15.1367 9.125C15.4531 9.125 15.7344 9.44141 15.6641 9.79297C14.8555 13.2734 11.7266 15.875 8 15.875C5.11719 15.875 2.62109 14.3633 1.25 12.0781V14.1875C1.25 14.5039 1.00391 14.75 0.6875 14.75C0.371094 14.75 0.125 14.5039 0.125 14.1875V10.8125C0.125 10.5312 0.371094 10.25 0.6875 10.25H1.21484H4.0625C4.37891 10.25 4.625 10.5312 4.625 10.8125C4.625 11.1289 4.37891 11.375 4.0625 11.375H2.12891C3.28906 13.4141 5.46875 14.75 8 14.75C11.1641 14.75 13.8359 12.5703 14.5391 9.61719Z" fill="white"/>
</svg>
