<svg width="18" height="18" viewBox="0 0 18 18" fill="none" xmlns="http://www.w3.org/2000/svg">
<path d="M6.74826 2C6.31076 2 5.99826 2.34375 5.99826 2.75C5.99826 3.1875 6.31076 3.5 6.74826 3.5C7.15451 3.5 7.49826 3.1875 7.49826 2.75C7.49826 2.34375 7.15451 2 6.74826 2ZM6.74826 4.5C6.09201 4.5 5.52951 4.1875 5.21701 3.625C4.90451 3.09375 4.90451 2.4375 5.21701 1.875C5.52951 1.34375 6.09201 1 6.74826 1C7.37326 1 7.93576 1.34375 8.24826 1.875C8.56076 2.4375 8.56076 3.09375 8.24826 3.625C7.93576 4.1875 7.37326 4.5 6.74826 4.5ZM5.77951 5.5H7.40451C8.24826 5.5 9.02951 5.9375 9.49826 6.625L11.9045 10.25C12.0608 10.4688 11.9983 10.7812 11.7483 10.9375C11.5295 11.0938 11.217 11.0312 11.0608 10.7812L8.65451 7.1875C8.62326 7.09375 8.56076 7.03125 8.49826 6.96875V11.8438L9.49826 12.4375C9.81076 12.625 9.99826 12.9375 9.99826 13.3125V16.5C9.99826 16.7812 9.74826 17 9.49826 17C9.21701 17 8.99826 16.7812 8.99826 16.5V13.3125L5.46701 11.25C5.02951 10.9688 4.74826 10.4688 4.74826 9.9375V6.9375C4.59201 7.0625 4.49826 7.21875 4.40451 7.40625L2.93576 10.7188C2.84201 10.9688 2.52951 11.0938 2.27951 10.9688C2.02951 10.8438 1.90451 10.5625 2.02951 10.3125L3.49826 7C3.90451 6.09375 4.81076 5.5 5.77951 5.5ZM5.74826 9.9375C5.74826 10.125 5.84201 10.2812 5.99826 10.375L7.49826 11.25V6.53125C7.46701 6.5 7.43576 6.5 7.40451 6.5H5.77951H5.74826V9.9375ZM3.99826 16.375L5.15451 12.1875L6.02951 12.7188L4.96701 16.6562C4.90451 16.9062 4.62326 17.0625 4.34201 17C4.09201 16.9375 3.93576 16.6562 3.99826 16.375ZM15.0608 16.8125L11.7483 12C11.9358 11.9688 12.1233 11.875 12.3108 11.75C12.4358 11.6875 12.5295 11.5938 12.6233 11.5L15.9045 16.2188C16.0608 16.4688 15.9983 16.75 15.7795 16.9375C15.5295 17.0938 15.217 17.0312 15.0608 16.8125Z" fill="#8B91A3"/>
</svg>
