<svg width="18" height="18" viewBox="0 0 18 18" fill="none" xmlns="http://www.w3.org/2000/svg">
<path d="M6.50088 4C5.93838 4 5.46963 3.71875 5.18838 3.25C4.90713 2.8125 4.90713 2.21875 5.18838 1.75C5.46963 1.3125 5.93838 1 6.50088 1C7.03213 1 7.50088 1.3125 7.78213 1.75C8.06338 2.21875 8.06338 2.8125 7.78213 3.25C7.50088 3.71875 7.03213 4 6.50088 4ZM6.21963 5H7.00088C7.93838 5 8.81338 5.46875 9.37588 6.21875L11.7821 9.40625C12.1259 9.84375 12.0321 10.4688 11.5946 10.8125C11.1571 11.1562 10.5321 11.0625 10.1884 10.625L8.00088 7.6875V10.5938L9.53213 12.1562C9.81338 12.4375 10.0009 12.8125 10.0009 13.2188V16C10.0009 16.5625 9.53213 17 9.00088 17C8.43838 17 8.00088 16.5625 8.00088 16V13.4375L5.56338 11.0312C5.18838 10.6562 5.00088 10.125 5.00088 9.59375V8.25L3.87588 10.4688C3.62588 10.9688 3.03213 11.1562 2.53213 10.9062C2.03213 10.6562 1.84463 10.0625 2.09463 9.5625L3.53213 6.6875C4.06338 5.65625 5.09463 5 6.21963 5ZM5.00088 11.8438L6.65713 13.5L5.96963 16.25C5.81338 16.7812 5.28213 17.125 4.75088 16.9688C4.21963 16.8438 3.87588 16.3125 4.03213 15.7812L5.00088 11.8438ZM15.0634 16.8125L11.3759 11.4688C11.5634 11.4062 11.7196 11.3438 11.8759 11.2188C12.0009 11.125 12.1259 11 12.1884 10.9062L15.9071 16.2188C16.0634 16.4688 16.0009 16.75 15.7821 16.9375C15.5321 17.0938 15.2196 17.0312 15.0634 16.8125Z" fill="#FD8B25"/>
</svg>
