<svg width="18" height="18" viewBox="0 0 18 18" fill="none" xmlns="http://www.w3.org/2000/svg">
<path d="M13.125 3.25C13.3125 3.25 13.5 3.4375 13.5 3.625V4.75H14.625C14.8125 4.75 15 4.9375 15 5.125C15 5.33594 14.8125 5.5 14.625 5.5H13.5V6.625C13.5 6.83594 13.3125 7 13.125 7C12.9141 7 12.75 6.83594 12.75 6.625V5.5H11.625C11.4141 5.5 11.25 5.33594 11.25 5.125C11.25 4.9375 11.4141 4.75 11.625 4.75H12.75V3.625C12.75 3.4375 12.9141 3.25 13.125 3.25ZM13.125 10C13.3125 10 13.5 10.1875 13.5 10.375V11.5H14.625C14.8125 11.5 15 11.6875 15 11.875C15 12.0859 14.8125 12.25 14.625 12.25H13.5V13.375C13.5 13.5859 13.3125 13.75 13.125 13.75C12.9141 13.75 12.75 13.5859 12.75 13.375V12.25H11.625C11.4141 12.25 11.25 12.0859 11.25 11.875C11.25 11.6875 11.4141 11.5 11.625 11.5H12.75V10.375C12.75 10.1875 12.9141 10 13.125 10ZM6.1875 7.58594L4.26562 8.47656L6.1875 9.36719C6.35156 9.4375 6.49219 9.57812 6.5625 9.74219L7.45312 11.6641L8.34375 9.74219C8.41406 9.57812 8.55469 9.4375 8.71875 9.36719L10.6406 8.47656L8.71875 7.58594C8.55469 7.51562 8.41406 7.375 8.34375 7.21094L7.45312 5.28906L6.5625 7.21094C6.49219 7.375 6.35156 7.51562 6.1875 7.58594ZM5.88281 10.0469L3.21094 8.82812C3.07031 8.75781 3 8.61719 3 8.47656C3 8.33594 3.07031 8.19531 3.21094 8.14844L5.88281 6.90625L7.125 4.23438C7.17188 4.09375 7.3125 4 7.45312 4C7.59375 4 7.73438 4.09375 7.80469 4.23438L9.02344 6.90625L11.6953 8.125C11.8359 8.19531 11.9297 8.33594 11.9297 8.47656C11.9297 8.61719 11.8359 8.75781 11.6953 8.80469L9.02344 10.0469L7.80469 12.7188C7.73438 12.8594 7.59375 12.9531 7.45312 12.9531C7.3125 12.9531 7.17188 12.8594 7.125 12.7188L5.88281 10.0469Z" fill="#F96073"/>
</svg>
