<svg width="18" height="18" viewBox="0 0 18 18" fill="none" xmlns="http://www.w3.org/2000/svg">
<path d="M9.125 1.03125L15.625 3.03125C15.8438 3.09375 16 3.28125 16 3.5C16 3.71875 15.8438 3.9375 15.625 4L9.125 6C9.03125 6.03125 8.9375 6.03125 8.84375 6L4 4.5V6.4375L4.96875 9.34375C5 9.5 5 9.6875 4.90625 9.8125C4.8125 9.9375 4.65625 10 4.5 10H2.5C2.3125 10 2.1875 9.9375 2.09375 9.8125C2 9.6875 1.96875 9.5 2 9.34375L3 6.4375V4.1875L2.34375 4C2.125 3.9375 2 3.71875 2 3.5C2 3.28125 2.125 3.09375 2.34375 3.03125L8.84375 1.03125C8.9375 1 9.03125 1 9.125 1.03125ZM9 5L13.7812 3.5L9 2.03125L4.1875 3.5L9 5ZM7.875 14.75L5.65625 12.25C4.09375 12.8125 3 14.2812 3 16H15C14.9688 14.2812 13.875 12.8125 12.3438 12.25L10.0938 14.75C9.5 15.4375 8.46875 15.4375 7.875 14.75ZM5.40625 11.2812C5.75 11.1562 6.125 11.2812 6.375 11.5625L8.625 14.0938C8.8125 14.3125 9.15625 14.3125 9.375 14.0938L11.625 11.5625C11.8438 11.2812 12.2188 11.1562 12.5625 11.2812C14.5625 11.9375 16 13.8438 16 16.0625C16 16.5938 15.5625 17 15.0312 17H2.9375C2.40625 17 2 16.5938 2 16.0625C2 13.8438 3.40625 11.9375 5.40625 11.2812ZM3.5 8.09375L3.1875 9H3.78125L3.5 8.09375ZM5 5.84375L6 6.15625V6.5C6 8.15625 7.34375 9.5 9 9.5C10.6562 9.5 12 8.15625 12 6.5V6.15625L13 5.84375V6.5C13 8.71875 11.1875 10.5 9 10.5C6.78125 10.5 5 8.71875 5 6.5V5.84375Z" fill="#8B91A3"/>
</svg>
