<svg width="18" height="18" viewBox="0 0 18 18" fill="none" xmlns="http://www.w3.org/2000/svg">
<path d="M8.84375 1.03125C8.9375 1 9.03125 1 9.125 1.03125L15.375 2.28125C15.7188 2.34375 16 2.65625 16 3C16 3.375 15.7188 3.6875 15.375 3.75L13 4.21875V6C13 8.21875 11.1875 10 9 10C6.78125 10 5 8.21875 5 6V4.21875L3.5 3.9375V5.96875L3.96875 8.40625C4 8.5625 3.96875 8.71875 3.875 8.84375C3.78125 8.9375 3.625 9 3.5 9H2.5C2.34375 9 2.1875 8.9375 2.09375 8.84375C2 8.71875 1.96875 8.5625 2 8.40625L2.5 5.96875V3.71875C2.1875 3.625 2 3.34375 2 3C2 2.65625 2.25 2.34375 2.59375 2.28125L8.84375 1.03125ZM5.46875 11.25C5.8125 11.1562 6.15625 11.2812 6.40625 11.5312L8.625 13.875C8.8125 14.0938 9.15625 14.0938 9.34375 13.875L11.5625 11.5312C11.8125 11.2812 12.1562 11.1562 12.5 11.25C14.5312 11.9062 16 13.8125 16 16.0625C16 16.5938 15.5625 17 15.0312 17H2.9375C2.40625 17 2 16.5938 2 16.0625C2 13.8125 3.46875 11.9062 5.46875 11.25Z" fill="#B85EFF"/>
</svg>
