<svg width="64" height="64" viewBox="0 0 64 64" fill="none" xmlns="http://www.w3.org/2000/svg">
<path d="M52.1548 32.6898C51.1923 32.5212 54.5709 31.5736 54.5709 31.5736L51.3015 30.9137L54.0748 30.497L56.6844 30.105L56.868 29.5345C54.4271 29.2815 50.7508 28.8995 50.7161 28.8995C50.6813 28.8995 54.1889 28.2743 57.3988 27.8576L57.503 27.5351C58.4854 24.4492 56.6348 21.1847 53.4844 20.4455L20.9685 12.8102C17.9322 12.0957 14.9058 14.0207 14.2658 17.0719L12.5939 25.0346C15.4367 24.9404 18.0761 25.8433 18.7508 25.8086C18.8103 25.8036 18.8599 25.7987 18.8847 25.7987C18.9393 25.7987 18.8847 25.7987 18.7508 25.8086C17.9768 25.883 14.6082 26.4188 12.2168 26.8058L12.1027 27.3516C13.2934 27.426 14.0128 27.5053 14.2261 27.5004C21.0131 27.3466 12.8419 28.8598 11.6711 29.3906L9.00691 42.0616C8.32226 45.3112 10.6292 48.4319 13.9384 48.7345L45.2686 51.5822C47.8633 51.8204 50.2695 50.2179 51.0633 47.7373L55.7716 32.9726C54.3874 32.8883 52.7006 32.7742 52.1598 32.6799L52.1548 32.6898Z" fill="#FFD5DA"/>
<path d="M12.4443 13.0884L51.9999 10.6665L54.2221 52.4443L15.0887 54.9017L12.4443 13.0884Z" fill="white"/>
<path d="M15.1108 15.5553L49.7775 12.8887L51.9997 50.222L16.8886 52.4442L15.1108 15.5553Z" fill="#FF9BA7"/>
<path d="M44.3904 59.2836C45.3192 59.2836 46.0722 58.5306 46.0722 57.6018C46.0722 56.6729 45.3192 55.9199 44.3904 55.9199C43.4615 55.9199 42.7085 56.6729 42.7085 57.6018C42.7085 58.5306 43.4615 59.2836 44.3904 59.2836Z" stroke="#FFDA6A" stroke-width="1.24444" stroke-linecap="round" stroke-linejoin="round"/>
<path d="M34.1257 7.35249C35.0546 7.35249 35.8076 6.5995 35.8076 5.67063C35.8076 4.74176 35.0546 3.98877 34.1257 3.98877C33.1968 3.98877 32.4438 4.74176 32.4438 5.67063C32.4438 6.5995 33.1968 7.35249 34.1257 7.35249Z" stroke="#FFDA6A" stroke-width="1.24444" stroke-linecap="round" stroke-linejoin="round"/>
<path d="M10.0287 8.23535L7.19092 11.0732" stroke="#F96073" stroke-width="1.24444" stroke-linecap="round" stroke-linejoin="round"/>
<path d="M7.19092 8.23535L10.0287 11.0732" stroke="#F96073" stroke-width="1.24444" stroke-linecap="round" stroke-linejoin="round"/>
<path d="M60.6948 34.3662L57.8569 37.204" stroke="#F96073" stroke-width="1.24444" stroke-linecap="round" stroke-linejoin="round"/>
<path d="M57.8569 34.3662L60.6948 37.204" stroke="#F96073" stroke-width="1.24444" stroke-linecap="round" stroke-linejoin="round"/>
<path d="M5.56006 48V52.0136" stroke="#F96073" stroke-width="1.24444" stroke-linecap="round" stroke-linejoin="round"/>
<path d="M3.55566 50.0093H7.56931" stroke="#F96073" stroke-width="1.24444" stroke-linecap="round" stroke-linejoin="round"/>
<path d="M28.7944 11.9633L41.848 11.0782L51.9096 10.394L52.5666 22.253L52.7675 25.9236L53.582 40.7202" stroke="#2A3539" stroke-width="1.24444" stroke-linecap="round" stroke-linejoin="round"/>
<path d="M13.0362 23.8604L12.4443 13.0766L25.0146 12.2241" stroke="#2A3539" stroke-width="1.24444" stroke-linecap="round" stroke-linejoin="round"/>
<path d="M33.3281 53.7956L47.1419 52.8562L54.2225 52.3784L53.8369 45.3521" stroke="#2A3539" stroke-width="1.24444" stroke-linecap="round" stroke-linejoin="round"/>
<path d="M14.3447 47.6597L14.752 55.0607L26.4154 54.2679" stroke="#2A3539" stroke-width="1.24444" stroke-linecap="round" stroke-linejoin="round"/>
<path d="M41.4873 45.4754C41.3483 45.4754 41.2094 45.4606 41.0705 45.4308C36.5359 44.4683 34.8491 40.3406 34.7797 40.1669C34.3728 39.1499 34.8739 37.9939 35.891 37.592C36.9031 37.1852 38.0541 37.6813 38.4609 38.6885C38.5105 38.8125 39.4879 41.0401 41.8941 41.5511C42.9657 41.7793 43.6504 42.8311 43.4221 43.9027C43.2237 44.8354 42.4001 45.4754 41.4823 45.4754H41.4873Z" fill="white"/>
<path d="M24.7041 24.8663C24.2079 24.8663 23.7168 24.6828 23.3298 24.3156C22.536 23.5566 22.5112 22.3014 23.2703 21.5076C24.0145 20.7336 28.0281 16.8887 34.4777 16.8887C34.5323 16.8887 34.5819 16.8887 34.6365 16.8887C35.7329 16.8986 36.611 17.7966 36.6011 18.893C36.5912 19.9894 35.6982 20.8577 34.5968 20.8577C34.5571 20.8577 34.5174 20.8577 34.4777 20.8577C29.6405 20.8577 26.6836 23.6806 26.1379 24.2512C25.7459 24.658 25.225 24.8614 24.7041 24.8614V24.8663Z" fill="white"/>
<path d="M21.5377 34.6995C21.2897 34.6995 21.0366 34.6548 20.7935 34.5556C19.7765 34.1438 19.2903 32.9879 19.7021 31.9708C21.379 27.8431 24.5492 24.2859 28.3991 22.2121C31.6041 20.4855 36.7786 18.9773 43.2283 21.5671C44.2453 21.9739 44.7365 23.1299 44.3297 24.1469C43.9228 25.164 42.7669 25.6552 41.7498 25.2483C32.3334 21.4629 25.4869 28.2747 23.3833 33.4592C23.0707 34.2282 22.3266 34.6995 21.5427 34.6995H21.5377Z" fill="white"/>
<path d="M23.6368 42.1563C22.5999 42.1563 21.7268 41.3526 21.6573 40.3058C21.2108 33.6428 24.8722 27.4115 30.7612 24.8069C36.4666 22.2866 42.7277 23.7501 47.5153 28.7262C48.2744 29.5151 48.2496 30.7703 47.4607 31.5343C46.6719 32.2934 45.4167 32.2686 44.6527 31.4797C41.0161 27.6993 36.541 26.5929 32.3637 28.4385C27.9928 30.3734 25.279 35.0369 25.6114 40.0428C25.6858 41.1343 24.8573 42.0819 23.7658 42.1563C23.7212 42.1563 23.6765 42.1563 23.6319 42.1563H23.6368Z" fill="white"/>
<path d="M33.1178 48.1245C32.6167 48.1245 32.1106 47.936 31.7237 47.554C28.4889 44.3639 26.7525 38.5742 29.4564 34.4166C31.1829 31.7574 34.0158 30.2839 37.0421 30.5022C40.1578 30.7106 42.8865 32.6752 44.3351 35.7463C44.8015 36.7385 44.3798 37.9193 43.3875 38.3856C42.3953 38.852 41.2145 38.4253 40.7482 37.438C39.9097 35.6619 38.466 34.5754 36.7792 34.4613C35.2114 34.3571 33.723 35.1459 32.7903 36.5797C31.1234 39.1447 32.7209 42.9649 34.5168 44.7311C35.2958 45.5001 35.3057 46.7552 34.5367 47.5391C34.1497 47.9311 33.6337 48.1295 33.1227 48.1295L33.1178 48.1245Z" fill="white"/>
<path d="M37.6626 47.4747C37.3104 47.4747 36.9532 47.3805 36.6307 47.182C36.2487 46.9489 32.8651 44.7858 31.6744 41.2087C30.5432 37.8152 32.3342 35.2651 34.4775 34.3374C36.9532 33.2608 39.7017 34.2332 41.0114 36.6444C41.9094 38.2965 42.4949 37.9889 42.8471 37.8102C42.8471 37.8102 43.6359 37.3439 43.7104 36.5749C43.755 36.1085 43.5764 34.7938 40.9668 32.6258C38.1587 30.294 34.7752 30.8596 32.7311 32.0552C31.4809 32.7845 30.3299 34.129 29.5807 35.7365C28.1023 38.9017 29.2583 42.7318 29.6899 43.4264C30.2952 44.3392 30.0421 45.5696 29.1293 46.1749C28.2164 46.7802 26.9811 46.5271 26.3758 45.6143C25.5026 44.2996 23.7166 38.9017 25.9839 34.0595C27.0704 31.7377 28.7969 29.7631 30.7318 28.632C34.8794 26.2109 39.8952 26.578 43.502 29.5746C46.5184 32.08 47.9175 34.5805 47.6545 37.0165C47.347 39.8741 44.9457 41.1938 44.6728 41.3377C42.5445 42.4391 39.5479 42.2853 37.5187 38.5445C37.0474 37.6713 36.338 37.8648 36.0502 37.9889C35.7873 38.103 34.9687 38.5792 35.4301 39.9684C36.1792 42.2208 38.6797 43.8034 38.7045 43.8183C39.6322 44.3988 39.92 45.6192 39.3445 46.547C38.9674 47.1523 38.3225 47.4896 37.6576 47.4896L37.6626 47.4747Z" fill="white"/>
<path d="M13.2646 27.0854L14.1389 44.0051" stroke="#2A3539" stroke-width="1.24444" stroke-linecap="round" stroke-linejoin="round"/>
<path d="M36.625 39.4326C36.625 39.4326 37.9397 42.7368 41.487 43.4909" stroke="#2A3539" stroke-width="1.24444" stroke-linecap="round" stroke-linejoin="round"/>
<path d="M24.7031 22.8819C25.4225 22.1278 28.9549 18.8187 34.6157 18.8732" stroke="#2A3539" stroke-width="1.24444" stroke-linecap="round" stroke-linejoin="round"/>
<path d="M21.5381 32.715C24.3561 25.7742 32.5322 19.409 42.4844 23.4077" stroke="#2A3539" stroke-width="1.24444" stroke-linecap="round" stroke-linejoin="round"/>
<path d="M23.6374 40.1721C22.8486 28.3445 36.3977 20.0245 46.087 30.1008" stroke="#2A3539" stroke-width="1.24444" stroke-linecap="round" stroke-linejoin="round"/>
<path d="M33.1183 46.1401C30.6526 43.709 28.8814 38.9413 31.1189 35.4932C33.9419 31.1422 40.1137 31.4498 42.5347 36.5847" stroke="#2A3539" stroke-width="1.24444" stroke-linecap="round" stroke-linejoin="round"/>
<path d="M28.027 44.5078C27.3622 43.5007 25.9284 38.8421 27.779 34.888C28.5579 33.221 29.9073 31.4002 31.7281 30.3336C34.8041 28.5376 38.9715 28.3838 42.2311 31.0926C48.4723 36.2771 44.5331 39.1646 43.7542 39.5664C42.5883 40.1717 40.7576 40.3503 39.2593 37.5869C37.3988 34.1537 32.125 36.3069 33.5489 40.5785C34.5461 43.5751 37.6618 45.4901 37.6618 45.4901" stroke="#2A3539" stroke-width="1.24444" stroke-linecap="round" stroke-linejoin="round"/>
</svg>
