<svg width="64" height="64" viewBox="0 0 64 64" fill="none" xmlns="http://www.w3.org/2000/svg">
<path d="M52.115 32.5064C51.1461 32.3287 54.5505 31.3331 54.5505 31.3331L51.2528 30.6398L54.0439 30.2042L56.675 29.7864L56.8617 29.1909C54.3994 28.9242 50.6928 28.5242 50.6572 28.5242C50.6217 28.5242 54.1594 27.8665 57.395 27.4309L57.5017 27.0931C58.4883 23.8487 56.6305 20.4087 53.4483 19.6264L20.675 11.5909C17.6172 10.8442 14.5683 12.862 13.9194 16.0798L12.2305 24.462C15.0928 24.3642 17.7594 25.3153 18.435 25.2798C18.4972 25.2798 18.5417 25.2709 18.5683 25.2709C18.6217 25.2709 18.5683 25.2709 18.435 25.2798C17.6528 25.3598 14.2572 25.9287 11.8483 26.3287L11.7328 26.9065C12.9328 26.9776 13.6617 27.0753 13.875 27.0665C20.7105 26.9065 12.4794 28.4976 11.2972 29.0576L8.61276 42.0798C7.91943 45.502 10.2483 48.782 13.5817 49.102L45.155 51.3953C47.7683 51.6442 50.195 50.9864 50.995 48.3731L55.7417 32.8353C54.3461 32.7464 52.6483 32.622 52.0972 32.5242L52.115 32.5064Z" fill="#FFD5DA"/>
<path d="M53.2532 12.4624H12.791V43.8846H53.2532V12.4624Z" fill="white"/>
<path d="M51.1289 14.2847H15.4756V41.7247H51.1289V14.2847Z" fill="#FFF3CD"/>
<path d="M32.9597 50.0444C38.998 50.0444 43.893 45.1494 43.893 39.1111C43.893 33.0728 38.998 28.1777 32.9597 28.1777C26.9214 28.1777 22.0264 33.0728 22.0264 39.1111C22.0264 45.1494 26.9214 50.0444 32.9597 50.0444Z" fill="#FF9BA7"/>
<path d="M33.1468 47.9469C38.0118 47.9469 41.9557 44.003 41.9557 39.138C41.9557 34.273 38.0118 30.3291 33.1468 30.3291C28.2818 30.3291 24.3379 34.273 24.3379 39.138C24.3379 44.003 28.2818 47.9469 33.1468 47.9469Z" fill="white"/>
<path d="M28.9863 48.4712V57.7956L33.8486 55.7779L37.2797 58.3467L36.9952 48.4712C36.9952 48.4712 36.1419 49.7779 32.5597 49.129L28.9863 48.4712Z" fill="#FF9BA7"/>
<path d="M34.7108 33.3335H31.5908V43.9468H34.7108V33.3335Z" fill="#FF9BA7"/>
<path d="M38.4531 40.1957V37.0757H27.8398V40.1957H38.4531Z" fill="#FF9BA7"/>
<path d="M12.7905 34.3642V11.8931H53.2528V43.8308H45.795" stroke="#2A3539" stroke-width="1.24444" stroke-linecap="round" stroke-linejoin="round"/>
<path d="M20.2394 43.8307H12.7905V38.3374" stroke="#2A3539" stroke-width="1.24444" stroke-linecap="round" stroke-linejoin="round"/>
<path d="M28.7637 52.6843V49.4043" stroke="#2A3539" stroke-width="1.24444" stroke-linecap="round" stroke-linejoin="round"/>
<path d="M37.2792 49.2617V58.3373L33.0215 55.1462L28.7637 58.3639V55.5906" stroke="#2A3539" stroke-width="1.24444" stroke-linecap="round" stroke-linejoin="round"/>
<path d="M24.5059 19.2886H43.1459" stroke="#2A3539" stroke-width="1.24444" stroke-linecap="round" stroke-linejoin="round"/>
<path d="M27.6973 23.5464H39.8217" stroke="#2A3539" stroke-width="1.24444" stroke-linecap="round" stroke-linejoin="round"/>
<path d="M6.93311 50.1245V54.2667" stroke="#F96073" stroke-width="1.24444" stroke-linecap="round" stroke-linejoin="round"/>
<path d="M4.86182 52.1953H9.00404" stroke="#F96073" stroke-width="1.24444" stroke-linecap="round" stroke-linejoin="round"/>
<path d="M60.2839 37.1733L57.3506 40.1067" stroke="#F96073" stroke-width="1.24444" stroke-linecap="round" stroke-linejoin="round"/>
<path d="M57.3506 37.1733L60.2839 40.1067" stroke="#F96073" stroke-width="1.24444" stroke-linecap="round" stroke-linejoin="round"/>
<path d="M5.57275 11.3511L8.4972 14.2844" stroke="#F96073" stroke-width="1.24444" stroke-linecap="round" stroke-linejoin="round"/>
<path d="M5.57275 14.2844L8.4972 11.3511" stroke="#F96073" stroke-width="1.24444" stroke-linecap="round" stroke-linejoin="round"/>
<path d="M45.6352 58.3378C46.5925 58.3378 47.3685 57.5617 47.3685 56.6044C47.3685 55.6471 46.5925 54.8711 45.6352 54.8711C44.6779 54.8711 43.9019 55.6471 43.9019 56.6044C43.9019 57.5617 44.6779 58.3378 45.6352 58.3378Z" stroke="#FFDA6A" stroke-width="1.24444" stroke-linecap="round" stroke-linejoin="round"/>
<path d="M31.9994 6.77331C32.9567 6.77331 33.7328 5.99727 33.7328 5.03997C33.7328 4.08268 32.9567 3.30664 31.9994 3.30664C31.0422 3.30664 30.2661 4.08268 30.2661 5.03997C30.2661 5.99727 31.0422 6.77331 31.9994 6.77331Z" stroke="#FFDA6A" stroke-width="1.24444" stroke-linecap="round" stroke-linejoin="round"/>
<path d="M33.022 50.0534C39.1487 50.0534 44.1154 45.0867 44.1154 38.96C44.1154 32.8334 39.1487 27.8667 33.022 27.8667C26.8954 27.8667 21.9287 32.8334 21.9287 38.96C21.9287 45.0867 26.8954 50.0534 33.022 50.0534Z" stroke="#2A3539" stroke-width="1.24444" stroke-linecap="round" stroke-linejoin="round"/>
<path d="M34.8085 35.0575V33.3242H31.5107V37.2798H27.5552V40.5776H31.5107V44.5331H34.8085V40.5776H38.7641V37.2798H34.8974" stroke="#2A3539" stroke-width="1.24444" stroke-linecap="round" stroke-linejoin="round"/>
</svg>
