<svg width="64" height="64" viewBox="0 0 64 64" fill="none" xmlns="http://www.w3.org/2000/svg">
<path d="M52.1032 30.713C51.1332 30.543 54.5382 29.588 54.5382 29.588L51.2432 28.923L54.0382 28.503L56.6682 28.108L56.8532 27.533C54.3932 27.278 50.6882 26.893 50.6532 26.893C50.6182 26.893 54.1532 26.263 57.3882 25.843L57.4932 25.518C58.4832 22.408 56.6182 19.118 53.4432 18.373L20.6732 10.678C17.6132 9.95802 14.5632 11.898 13.9182 14.973L12.2332 22.998C15.0982 22.903 17.7582 23.813 18.4382 23.778C18.4982 23.773 18.5482 23.768 18.5732 23.768C18.6282 23.768 18.5732 23.768 18.4382 23.778C17.6582 23.853 14.2632 24.393 11.8532 24.783L11.7382 25.333C12.9382 25.408 13.6632 25.488 13.8782 25.483C20.7182 25.328 12.4832 26.853 11.3032 27.388L8.6182 40.158C7.9282 43.433 10.2532 46.578 13.5882 46.883L45.1632 49.753C47.7782 49.993 50.2032 48.378 51.0032 45.878L55.7482 30.998C54.3532 30.913 52.6532 30.798 52.1082 30.703L52.1032 30.713Z" fill="#FFD5DA"/>
<path d="M44.1575 17.8379L34.9575 32.9679C34.2675 33.9579 33.0175 34.3979 31.8575 34.0679L15.2275 28.1129" fill="white"/>
<path d="M12.1745 25.7062L44.9858 14.0807C46.0368 13.7083 47.1921 14.2591 47.5645 15.3101L55.3026 37.1497C55.675 38.2007 55.1242 39.356 54.0732 39.7284L21.2619 51.3539C20.2109 51.7263 19.0556 51.1755 18.6832 50.1245L10.9451 28.2849C10.5728 27.2339 11.1235 26.0786 12.1745 25.7062Z" fill="white"/>
<path d="M46.7282 13.9673L55.3032 37.1573L22.5782 48.0173C21.5282 48.3923 20.3682 47.8373 19.9982 46.7873L12.6382 25.5423L46.7232 13.9673H46.7282Z" fill="#FFF3CD"/>
<path d="M55.409 19.0603C55.409 18.4947 55.3395 17.949 55.2155 17.4181L57.2893 16.2225L55.2205 12.6405L53.1665 13.8262C52.3578 13.0523 51.3706 12.4619 50.2692 12.1295V9.77783H46.1364V12.1195C45.0251 12.447 44.0279 13.0324 43.2093 13.8113L41.1802 12.6405L39.1113 16.2225L41.1405 17.3933C41.0164 17.9292 40.942 18.4848 40.942 19.0554C40.942 19.6259 41.0214 20.2113 41.1504 20.762L39.1113 21.9428L41.1802 25.5248L43.2391 24.3341C44.0527 25.0932 45.035 25.6736 46.1364 25.9961V28.3825H50.2692V25.9812C51.3557 25.6538 52.333 25.0733 53.1368 24.3143L55.2254 25.5198L57.2943 21.9378L55.2106 20.7372C55.3395 20.1964 55.414 19.6358 55.414 19.0554L55.409 19.0603ZM48.2003 22.1859C46.4887 22.1859 45.0995 20.7967 45.0995 19.0851C45.0995 17.3735 46.4887 15.9843 48.2003 15.9843C49.9119 15.9843 51.3011 17.3735 51.3011 19.0851C51.3011 20.7967 49.9119 22.1859 48.2003 22.1859Z" fill="#FF9BA7"/>
<path d="M28.7863 10.5347L25.9263 13.3947" stroke="#F96073" stroke-width="1.25" stroke-linecap="round" stroke-linejoin="round"/>
<path d="M25.9263 10.5347L28.7863 13.3947" stroke="#F96073" stroke-width="1.25" stroke-linecap="round" stroke-linejoin="round"/>
<path d="M53.9307 47.4287V51.4737" stroke="#F96073" stroke-width="1.25" stroke-linecap="round" stroke-linejoin="round"/>
<path d="M51.9053 49.4497H55.9553" stroke="#F96073" stroke-width="1.25" stroke-linecap="round" stroke-linejoin="round"/>
<path d="M13.481 49.3037V53.3537" stroke="#F96073" stroke-width="1.25" stroke-linecap="round" stroke-linejoin="round"/>
<path d="M11.4556 51.3291H15.5056" stroke="#F96073" stroke-width="1.25" stroke-linecap="round" stroke-linejoin="round"/>
<path d="M9.13592 19.5345C10.072 19.5345 10.8309 18.7757 10.8309 17.8395C10.8309 16.9034 10.072 16.1445 9.13592 16.1445C8.1998 16.1445 7.44092 16.9034 7.44092 17.8395C7.44092 18.7757 8.1998 19.5345 9.13592 19.5345Z" stroke="#FFDA6A" stroke-width="1.25" stroke-linecap="round" stroke-linejoin="round"/>
<path d="M37.1403 57.1341C38.0764 57.1341 38.8353 56.3753 38.8353 55.4391C38.8353 54.503 38.0764 53.7441 37.1403 53.7441C36.2042 53.7441 35.4453 54.503 35.4453 55.4391C35.4453 56.3753 36.2042 57.1341 37.1403 57.1341Z" stroke="#FFDA6A" stroke-width="1.25" stroke-linecap="round" stroke-linejoin="round"/>
<path d="M15.231 28.1137L31.861 34.0687C33.021 34.3987 34.271 33.9587 34.961 32.9687L38.2223 26.2222" stroke="#2A3539" stroke-width="1.25" stroke-linecap="round" stroke-linejoin="round"/>
<path d="M37.3347 16.7938L12.1779 25.7072C11.127 26.0796 10.5762 27.2349 10.9485 28.2859L18.6867 50.1255C19.059 51.1765 20.2143 51.7273 21.2653 51.3549L54.0766 39.7294C55.1276 39.357 55.6784 38.2017 55.306 37.1507L51.9996 27.9999" stroke="#2A3539" stroke-width="1.25" stroke-linecap="round" stroke-linejoin="round"/>
<path d="M22.0718 47.4273L29.7818 33.3223" stroke="#2A3539" stroke-width="1.25" stroke-linecap="round" stroke-linejoin="round"/>
<path d="M51.0209 37.203L39.1128 32.3169L36 31.1113" stroke="#2A3539" stroke-width="1.25" stroke-linecap="round" stroke-linejoin="round"/>
<path d="M40.9465 19.0554C40.9465 18.4798 41.0209 17.9242 41.1449 17.3933L39.1158 16.2225L41.1846 12.6405L43.2138 13.8113C44.0324 13.0374 45.0296 12.447 46.1409 12.1195V9.77783H50.2736V12.1295C51.375 12.4619 52.3623 13.0523 53.171 13.8262L55.2249 12.6405L57.2938 16.2225L55.22 17.4181C55.344 17.944 55.4135 18.4947 55.4135 19.0603C55.4135 19.6259 55.3391 20.2014 55.2101 20.7422L57.2938 21.9428L55.2249 25.5248L53.1363 24.3192C52.3325 25.0783 51.3552 25.6588 50.2687 25.9862V28.3874H46.136V26.0011C45.0395 25.6786 44.0522 25.1031 43.2386 24.3391L41.1797 25.5298L39.1108 21.9478L41.1499 20.767C41.016 20.2212 40.9415 19.6507 40.9415 19.0603L40.9465 19.0554Z" stroke="#2A3539" stroke-width="1.24031" stroke-linecap="round" stroke-linejoin="round"/>
<path d="M48.2067 22.1762C49.9192 22.1762 51.3075 20.7879 51.3075 19.0754C51.3075 17.3629 49.9192 15.9746 48.2067 15.9746C46.4942 15.9746 45.106 17.3629 45.106 19.0754C45.106 20.7879 46.4942 22.1762 48.2067 22.1762Z" stroke="#2A3539" stroke-width="1.24031" stroke-linecap="round" stroke-linejoin="round"/>
</svg>
