<svg width="64" height="64" viewBox="0 0 64 64" fill="none" xmlns="http://www.w3.org/2000/svg">
<path d="M51.8101 30.5417C50.8476 30.373 54.2262 29.4254 54.2262 29.4254L50.9568 28.7655L53.7301 28.3488L56.3397 27.9568L56.5233 27.3863C54.0823 27.1333 50.4061 26.7513 50.3713 26.7513C50.3366 26.7513 53.8442 26.1261 57.0541 25.7094L57.1583 25.3869C58.1406 22.301 56.2901 19.0365 53.1397 18.2973L20.6237 10.662C17.5875 9.94754 14.5611 11.8725 13.9211 14.9237L12.2492 22.8865C15.092 22.7922 17.7313 23.6951 18.4061 23.6604C18.4656 23.6554 18.5152 23.6505 18.54 23.6505C18.5946 23.6505 18.54 23.6505 18.4061 23.6604C17.6321 23.7348 14.2634 24.2706 11.8721 24.6576L11.758 25.2034C12.9487 25.2778 13.6681 25.3572 13.8814 25.3522C20.6684 25.1984 12.4972 26.7116 11.3264 27.2424L8.66218 39.9134C7.97753 43.163 10.2845 46.2837 13.5937 46.5863L44.9239 49.4341C47.5186 49.6722 49.9248 48.0697 50.7186 45.5891L55.4268 30.8244C54.0427 30.7401 52.3558 30.626 51.8151 30.5317L51.8101 30.5417Z" fill="#FFD5DA"/>
<path d="M47.2014 54.5494L16.3375 52.1085C15.2708 52.0241 14.4721 51.0914 14.5564 50.0198L17.3198 15.0629C17.4042 13.9962 18.3369 13.1975 19.4085 13.2818L25.8333 13.7879L27.2671 12.6716L30.9136 12.9147L32.4516 10.0074L35.4879 9.16895L38.1025 10.8012L39.829 13.51L42.771 13.8821L43.9021 15.2167L50.2724 15.7178C51.339 15.8021 52.1378 16.7348 52.0535 17.8065L49.29 52.7634C49.2057 53.83 48.273 54.6288 47.2014 54.5444V54.5494Z" fill="white"/>
<path d="M50.263 17.1884L20.716 14.863C20.0549 14.811 19.4769 15.3047 19.4248 15.9657L16.6763 50.889C16.6243 51.5501 17.118 52.1281 17.779 52.1802L47.3261 54.5056C47.9872 54.5576 48.5652 54.0639 48.6172 53.4028L51.3658 18.4795C51.4178 17.8185 50.9241 17.2404 50.263 17.1884Z" fill="#FF9BA7"/>
<path d="M47.8281 18.9512L21.1704 16.9702L18.86 48.0609L45.5176 50.0419L47.8281 18.9512Z" fill="#FFF3CD"/>
<path d="M25.1084 18.1687C25.1084 18.005 25.3168 14.2692 25.3168 14.2692L27.0929 12.7262L30.9131 12.9098L32.2774 10.32L34.6588 9.45679L36.8318 9.64531L38.722 11.9821L39.0495 13.5002L42.7754 13.8872L43.9065 15.2217L44.234 17.6825L43.9562 19.8307L25.1134 18.1737L25.1084 18.1687Z" fill="white"/>
<path d="M26.6968 18.7644C26.6968 18.6701 26.7067 17.0875 26.8258 16.2887C26.9498 15.4453 27.9321 14.6019 27.9321 14.6019C28.3786 14.2149 28.9591 14.0115 29.5545 14.0413L32.4518 14.1802L32.9231 11.9575C33.3051 11.0744 34.223 10.4592 35.1805 10.365C35.6617 10.3154 37.0906 10.6428 37.0906 10.6428L38.0034 10.8512L38.6534 13.1085L41.1538 13.4261L43.2177 14.0214L44.1306 15.4701L44.2844 17.4099L43.9917 19.6723L26.7017 18.7594L26.6968 18.7644Z" fill="#FF9BA7"/>
<path d="M11.9214 8.18042L9.07861 11.0232" stroke="#F96073" stroke-width="1.24031" stroke-linecap="round" stroke-linejoin="round"/>
<path d="M9.07861 8.18042L11.9214 11.0232" stroke="#F96073" stroke-width="1.24031" stroke-linecap="round" stroke-linejoin="round"/>
<path d="M9.09863 48.5002V52.5139" stroke="#F96073" stroke-width="1.24031" stroke-linecap="round" stroke-linejoin="round"/>
<path d="M7.08887 50.5051H11.1075" stroke="#F96073" stroke-width="1.24031" stroke-linecap="round" stroke-linejoin="round"/>
<path d="M53.645 7.96729V11.9859" stroke="#F96073" stroke-width="1.24031" stroke-linecap="round" stroke-linejoin="round"/>
<path d="M51.6367 9.97705H55.6553" stroke="#F96073" stroke-width="1.24031" stroke-linecap="round" stroke-linejoin="round"/>
<path d="M56.8454 42.5966C57.7743 42.5966 58.5273 41.8436 58.5273 40.9148C58.5273 39.9859 57.7743 39.2329 56.8454 39.2329C55.9166 39.2329 55.1636 39.9859 55.1636 40.9148C55.1636 41.8436 55.9166 42.5966 56.8454 42.5966Z" stroke="#FFDA6A" stroke-width="1.24031" stroke-linecap="round" stroke-linejoin="round"/>
<path d="M6.9802 28.1247C7.90907 28.1247 8.66206 27.3717 8.66206 26.4428C8.66206 25.514 7.90907 24.761 6.9802 24.761C6.05133 24.761 5.29834 25.514 5.29834 26.4428C5.29834 27.3717 6.05133 28.1247 6.9802 28.1247Z" stroke="#FFDA6A" stroke-width="1.24031" stroke-linecap="round" stroke-linejoin="round"/>
<path d="M20.3705 52.426L16.476 52.1283C15.4192 52.0489 14.6254 51.1261 14.7098 50.0694L17.4335 14.661C17.5129 13.6043 18.4357 12.8105 19.4924 12.8948L23.3225 13.1875" stroke="#2A3539" stroke-width="1.24031" stroke-linecap="round" stroke-linejoin="round"/>
<path d="M46.288 14.9438L50.1181 15.2366C51.1749 15.3159 51.9687 16.2387 51.8843 17.2955L49.1606 52.7038C49.0812 53.7606 48.1584 54.5544 47.1017 54.47L24.3296 52.7187" stroke="#2A3539" stroke-width="1.24031" stroke-linecap="round" stroke-linejoin="round"/>
<path d="M45.9947 18.7737L47.9048 18.9225L45.4788 50.5008L18.6831 48.4419L21.1092 16.8586L23.0242 17.0075" stroke="#2A3539" stroke-width="1.24031" stroke-linecap="round" stroke-linejoin="round"/>
<path d="M41.5747 13.6193L38.7021 13.401C38.8659 11.2875 37.2832 9.44196 35.1697 9.27824C33.0562 9.11452 31.2107 10.6972 31.0469 12.8106L28.1744 12.5923C26.5868 12.4683 25.2026 13.659 25.0835 15.2417L24.8652 18.1142L44.0057 19.5827L44.224 16.7102C44.348 15.1226 43.1573 13.7384 41.5747 13.6193Z" stroke="#2A3539" stroke-width="1.24031" stroke-linecap="round" stroke-linejoin="round"/>
<path d="M34.9511 12.1504L34.8022 14.0605" stroke="#2A3539" stroke-width="1.24031" stroke-linecap="round" stroke-linejoin="round"/>
<path d="M25.0942 26.4737L26.8604 28.5326L30.9832 25.0002" stroke="#2A3539" stroke-width="1.24031" stroke-linecap="round" stroke-linejoin="round"/>
<path d="M24.5776 33.1712L26.3438 35.2351L30.4666 31.6978" stroke="#2A3539" stroke-width="1.24031" stroke-linecap="round" stroke-linejoin="round"/>
<path d="M24.062 39.8689L25.8332 41.9328L29.951 38.4004" stroke="#2A3539" stroke-width="1.24031" stroke-linecap="round" stroke-linejoin="round"/>
<path d="M33.7065 27.1338L42.3193 27.7986" stroke="#2A3539" stroke-width="1.24031" stroke-linecap="round" stroke-linejoin="round"/>
<path d="M33.1899 33.8364L41.8027 34.4963" stroke="#2A3539" stroke-width="1.24031" stroke-linecap="round" stroke-linejoin="round"/>
<path d="M32.6743 40.5339L41.292 41.1938" stroke="#2A3539" stroke-width="1.24031" stroke-linecap="round" stroke-linejoin="round"/>
</svg>
