<svg width="64" height="64" viewBox="0 0 64 64" fill="none" xmlns="http://www.w3.org/2000/svg">
<path d="M52.4307 33.537C51.4682 33.3683 54.8468 32.4207 54.8468 32.4207L51.5774 31.7609L54.3507 31.3441L56.9603 30.9522L57.1439 30.3817C54.7029 30.1286 51.0267 29.7466 50.9919 29.7466C50.9572 29.7466 54.4648 29.1215 57.6747 28.7048L57.7789 28.3823C58.7612 25.2964 56.9107 22.0319 53.7603 21.2927L21.2443 13.6573C18.2081 12.9429 15.1817 14.8679 14.5417 17.919L12.8698 25.8818C15.7126 25.7876 18.3519 26.6905 19.0267 26.6558C19.0862 26.6508 19.1358 26.6458 19.1606 26.6458C19.2152 26.6458 19.1606 26.6458 19.0267 26.6558C18.2527 26.7302 14.884 27.266 12.4927 27.653L12.3786 28.1987C13.5693 28.2731 14.2887 28.3525 14.502 28.3476C21.289 28.1938 13.1178 29.7069 11.947 30.2378L9.28279 42.9088C8.59814 46.1584 10.9051 49.279 14.2143 49.5817L45.5445 52.4294C48.1392 52.6676 50.5454 51.0651 51.3392 48.5845L56.0474 33.8198C54.6633 33.7355 52.9764 33.6214 52.4357 33.5271L52.4307 33.537Z" fill="#FFD5DA"/>
<path d="M11.1396 18.177C11.2189 18.048 30.667 10.2539 30.667 10.2539L52.1839 12.7693L53.5135 15.4285L53.0918 30.595L52.2137 37.5358L50.1051 43.1767L45.3126 49.8992L38.2676 56.324L36.7743 56.83L34.4127 56.4579L24.8127 50.9162L21.2059 47.8204L17.6586 43.3057L14.672 36.4046L11.209 24.9987L10.4351 20.8213L11.1396 18.172V18.177Z" fill="white"/>
<path d="M49.5397 14.3223C47.8926 14.099 45.7096 13.8013 42.9214 13.4541C36.4371 12.6354 32.8203 12.2882 31.5651 12.1741C31.2427 12.1443 30.9103 12.1889 30.5878 12.2981C29.4169 12.7148 25.9986 13.9502 19.9211 16.3564C17.3115 17.3883 15.2724 18.2218 13.7196 18.8519C12.7174 19.2537 12.1469 20.3204 12.3651 21.3821C12.7075 23.1086 13.1689 25.0336 13.7791 27.2761L16.3391 35.3976C16.731 36.504 17.1577 37.6798 17.6141 38.8903C20.7695 47.1806 28.3651 51.4125 35.2365 54.7365C36.0253 55.1136 36.9729 54.9995 37.6377 54.4339C42.1475 50.6237 49.6836 44.2485 50.7602 34.6931C51.7078 26.3483 51.678 20.1567 51.4845 16.4308C51.43 15.3592 50.6064 14.4711 49.5348 14.3223H49.5397Z" fill="#FF9BA7"/>
<path d="M32.2198 21.233C26.8467 21.9126 23.0464 26.8193 23.7261 32.1923C24.4058 37.5654 29.3125 41.3657 34.6855 40.686C40.0585 40.0063 43.8588 35.0996 43.1791 29.7266C42.4995 24.3536 37.5928 20.5533 32.2198 21.233ZM28.3103 28.0894C28.1565 26.8937 29.0049 25.7973 30.2055 25.6485C31.4012 25.4947 32.4976 26.343 32.6464 27.5437C32.7953 28.7443 31.9519 29.8357 30.7512 29.9846C29.5556 30.1384 28.4591 29.29 28.3103 28.0894ZM33.3013 36.8807C32.0164 37.0444 30.8455 36.1316 30.6818 34.8516C30.5181 33.5716 31.4309 32.3957 32.7109 32.232C33.9909 32.0683 35.1667 32.9812 35.3305 34.2612C35.4942 35.5412 34.5813 36.717 33.3013 36.8807ZM37.7714 29.4934C37.0272 29.5877 36.3475 29.0618 36.2533 28.3126C36.159 27.5635 36.6849 26.8888 37.434 26.7945C38.1832 26.7002 38.8579 27.2261 38.9522 27.9753C39.0464 28.7244 38.5205 29.3992 37.7714 29.4934Z" fill="#FFE69C"/>
<path d="M23.7351 58.353C24.6639 58.353 25.4169 57.6 25.4169 56.6711C25.4169 55.7423 24.6639 54.9893 23.7351 54.9893C22.8062 54.9893 22.0532 55.7423 22.0532 56.6711C22.0532 57.6 22.8062 58.353 23.7351 58.353Z" stroke="#FFDA6A" stroke-width="1.24444" stroke-linecap="round" stroke-linejoin="round"/>
<path d="M25.1238 7.80806C26.0526 7.80806 26.8056 7.05506 26.8056 6.1262C26.8056 5.19733 26.0526 4.44434 25.1238 4.44434C24.1949 4.44434 23.4419 5.19733 23.4419 6.1262C23.4419 7.05506 24.1949 7.80806 25.1238 7.80806Z" stroke="#FFDA6A" stroke-width="1.24444" stroke-linecap="round" stroke-linejoin="round"/>
<path d="M55.3628 9.08301L58.2006 11.9208" stroke="#F96073" stroke-width="1.24444" stroke-linecap="round" stroke-linejoin="round"/>
<path d="M58.2006 9.08301L55.3628 11.9208" stroke="#F96073" stroke-width="1.24444" stroke-linecap="round" stroke-linejoin="round"/>
<path d="M5.3335 29.5435L8.17133 32.3813" stroke="#F96073" stroke-width="1.24444" stroke-linecap="round" stroke-linejoin="round"/>
<path d="M8.17133 29.5435L5.3335 32.3813" stroke="#F96073" stroke-width="1.24444" stroke-linecap="round" stroke-linejoin="round"/>
<path d="M55.5112 48.5249V52.5385" stroke="#F96073" stroke-width="1.24444" stroke-linecap="round" stroke-linejoin="round"/>
<path d="M57.521 50.5293H53.5073" stroke="#F96073" stroke-width="1.24444" stroke-linecap="round" stroke-linejoin="round"/>
<path d="M14.5219 35.9879C14.9188 37.1191 15.3604 38.3247 15.8268 39.565C19.2351 48.5151 27.2029 52.9752 34.4066 56.458C35.8801 57.1675 37.6364 56.9442 38.8767 55.8924C43.5998 51.8986 51.508 45.2158 52.664 34.9064C53.6215 26.4326 53.5917 20.1269 53.4032 16.3315C53.299 14.342 51.7858 12.6999 49.8013 12.422C48.1443 12.1938 45.9514 11.9011 43.1632 11.5489C36.654 10.7253 33.0026 10.378 31.7374 10.2639C31.1371 10.2143 30.5368 10.2887 29.9564 10.4872C28.7607 10.9089 25.3176 12.1591 19.2153 14.5752C16.6007 15.6121 14.5517 16.4456 13.0038 17.0757C11.1533 17.8298 10.0965 19.7945 10.4885 21.7591C10.8407 23.5303 11.312 25.5148 11.9471 27.8267" stroke="#2A3539" stroke-width="1.24444" stroke-linecap="round" stroke-linejoin="round"/>
<path d="M26.1759 37.5358C24.876 36.0971 23.983 34.2614 23.725 32.1926C23.596 31.1854 23.6258 30.1932 23.7945 29.2456" stroke="#2A3539" stroke-width="1.24444" stroke-linecap="round" stroke-linejoin="round"/>
<path d="M39.9132 38.3345C38.4943 39.5797 36.6983 40.4331 34.6841 40.6861C32.6698 40.9391 30.72 40.567 29.0332 39.7087" stroke="#2A3539" stroke-width="1.24444" stroke-linecap="round" stroke-linejoin="round"/>
<path d="M34.1733 21.1836C38.7327 21.516 42.5826 25.0186 43.178 29.7318C43.4409 31.8155 43.0292 33.8298 42.1163 35.5563" stroke="#2A3539" stroke-width="1.24444" stroke-linecap="round" stroke-linejoin="round"/>
<path d="M24.8062 26.3331C25.9522 24.1948 27.8722 22.508 30.2486 21.6943" stroke="#2A3539" stroke-width="1.24444" stroke-linecap="round" stroke-linejoin="round"/>
<path d="M34.6841 40.686L35.0314 43.4494" stroke="#2A3539" stroke-width="1.24444" stroke-linecap="round" stroke-linejoin="round"/>
<path d="M31.8916 18.6436L32.219 21.2333" stroke="#2A3539" stroke-width="1.24444" stroke-linecap="round" stroke-linejoin="round"/>
<path d="M33.9102 43.5885L36.1526 43.3057" stroke="#2A3539" stroke-width="1.24444" stroke-linecap="round" stroke-linejoin="round"/>
<path d="M30.7754 18.7873L33.0129 18.4995" stroke="#2A3539" stroke-width="1.24444" stroke-linecap="round" stroke-linejoin="round"/>
<path d="M43.1875 29.8159L45.8666 29.4785" stroke="#2A3539" stroke-width="1.24444" stroke-linecap="round" stroke-linejoin="round"/>
<path d="M21.0605 32.6142L23.7347 32.2769" stroke="#2A3539" stroke-width="1.24444" stroke-linecap="round" stroke-linejoin="round"/>
<path d="M46.0059 30.5949L45.7231 28.3574" stroke="#2A3539" stroke-width="1.24444" stroke-linecap="round" stroke-linejoin="round"/>
<path d="M21.1998 33.7356L20.917 31.4932" stroke="#2A3539" stroke-width="1.24444" stroke-linecap="round" stroke-linejoin="round"/>
<path d="M27.49 38.7466L25.8032 40.9246" stroke="#2A3539" stroke-width="1.24444" stroke-linecap="round" stroke-linejoin="round"/>
<path d="M41.1244 21.1685L39.5269 23.2224" stroke="#2A3539" stroke-width="1.24444" stroke-linecap="round" stroke-linejoin="round"/>
<path d="M24.9111 40.2349L26.6922 41.619" stroke="#2A3539" stroke-width="1.24444" stroke-linecap="round" stroke-linejoin="round"/>
<path d="M40.231 20.4741L42.017 21.8583" stroke="#2A3539" stroke-width="1.24444" stroke-linecap="round" stroke-linejoin="round"/>
<path d="M41.1641 37.0146L43.3421 38.7064" stroke="#2A3539" stroke-width="1.24444" stroke-linecap="round" stroke-linejoin="round"/>
<path d="M23.5815 23.3862L25.6653 25.0036" stroke="#2A3539" stroke-width="1.24444" stroke-linecap="round" stroke-linejoin="round"/>
<path d="M42.6523 39.5995L44.0365 37.8135" stroke="#2A3539" stroke-width="1.24444" stroke-linecap="round" stroke-linejoin="round"/>
<path d="M22.8916 24.2792L24.2758 22.4932" stroke="#2A3539" stroke-width="1.24444" stroke-linecap="round" stroke-linejoin="round"/>
<path d="M30.0603 29.9602C29.1574 29.7865 28.4281 29.0523 28.309 28.0898C28.1552 26.8941 29.0036 25.7977 30.2042 25.6489C31.3999 25.4951 32.4963 26.3434 32.6451 27.5441C32.7394 28.2882 32.4467 28.9977 31.9208 29.4591" stroke="#2A3539" stroke-width="1.24444" stroke-linecap="round" stroke-linejoin="round"/>
<path d="M33.3026 36.8798C34.5857 36.7175 35.4942 35.5458 35.3319 34.2627C35.1696 32.9797 33.9979 32.0711 32.7148 32.2334C31.4317 32.3958 30.5232 33.5675 30.6855 34.8505C30.8478 36.1336 32.0195 37.0421 33.3026 36.8798Z" stroke="#2A3539" stroke-width="1.24444" stroke-linecap="round" stroke-linejoin="round"/>
<path d="M37.7703 29.4935C37.0261 29.5878 36.3464 29.0619 36.2521 28.3128C36.1579 27.5636 36.6838 26.8889 37.4329 26.7946C38.1821 26.7004 38.8568 27.2262 38.9511 27.9754C39.0453 28.7245 38.5194 29.3993 37.7703 29.4935Z" stroke="#2A3539" stroke-width="1.24444" stroke-linecap="round" stroke-linejoin="round"/>
</svg>
