<svg width="64" height="64" viewBox="0 0 64 64" fill="none" xmlns="http://www.w3.org/2000/svg">
<path d="M52.8885 31.2888C51.9107 31.1111 55.2885 30.1333 55.2885 30.1333L51.9996 29.5111L54.7552 29.0666L57.4218 28.7111L57.5996 28.1777C55.1107 27.9111 51.4663 27.5555 51.3774 27.5555C51.2885 27.5555 54.844 26.9333 58.1329 26.4888V26.1333C59.1996 23.0222 57.3329 19.7333 54.2218 19.0222L21.5107 11.2888C18.4885 10.5777 15.3774 12.5333 14.7552 15.5555L13.0663 23.5555C15.9107 23.4666 18.5774 24.3555 19.2885 24.3555C19.2885 24.3555 19.3774 24.3555 19.4663 24.3555C19.4663 24.3555 19.4663 24.3555 19.2885 24.3555C18.4885 24.3555 15.1107 24.9777 12.7107 25.3333V25.8666C13.7774 25.8666 14.4885 26.0444 14.7552 26.0444C21.5996 25.8666 13.3329 27.3777 12.1774 27.9111L9.51071 40.7111C8.7996 44 11.1107 47.1111 14.4885 47.4666L46.044 50.3111C48.6218 50.5777 51.1107 48.9777 51.9107 46.4L56.6218 31.5555C55.1996 31.5555 53.5107 31.3777 52.9774 31.2888H52.8885Z" fill="#FFD5DA"/>
<path d="M33.5998 53.4223C43.9998 53.4223 52.4443 44.9778 52.4443 34.5778C52.4443 24.1778 43.9998 15.7334 33.5998 15.7334C23.1998 15.7334 14.7554 24.1778 14.7554 34.5778C14.7554 44.9778 23.1998 53.4223 33.5998 53.4223Z" fill="#FF9BA7"/>
<path d="M33.422 50.7555C42.3997 50.7555 49.7775 43.4667 49.7775 34.4C49.7775 25.3333 42.4886 18.0444 33.422 18.0444C24.3553 18.0444 17.0664 25.3333 17.0664 34.4C17.0664 43.4667 24.3553 50.7555 33.422 50.7555Z" fill="white"/>
<path d="M33.422 47.1115C40.3553 47.1115 45.8664 41.5115 45.8664 34.6671C45.8664 27.8227 40.2664 22.2227 33.422 22.2227C26.5775 22.2227 20.9775 27.8227 20.9775 34.6671C20.9775 41.5115 26.5775 47.1115 33.422 47.1115Z" fill="#FFF3CD"/>
<path d="M33.4221 37.689C35.111 37.689 36.5333 36.2668 36.5333 34.5779C36.5333 32.889 35.111 31.4668 33.4221 31.4668C31.7333 31.4668 30.311 32.889 30.311 34.5779C30.311 36.2668 31.7333 37.689 33.4221 37.689Z" fill="#FF9BA7"/>
<path d="M35.4663 7.11133H31.3774V16.6224H35.4663V7.11133Z" fill="#FF9BA7"/>
<path d="M36.4444 7.11133H30.4888C29.3332 7.11133 28.3555 8.08911 28.3555 9.24466C28.3555 10.4002 29.3332 11.378 30.4888 11.378H36.4444C37.5999 11.378 38.5777 10.4002 38.5777 9.24466C38.5777 8.08911 37.5999 7.11133 36.4444 7.11133Z" fill="#FF9BA7"/>
<path d="M35.5552 11.3779H31.3774V15.9113H35.5552V11.3779Z" fill="#FFF3CD"/>
<path d="M55.4663 26.7559L37.5996 45.867L46.8441 44.8892L40.8885 59.1114L59.6441 38.9336L50.4885 40.4447L55.4663 26.7559Z" fill="#FFF3CD"/>
<path d="M8.80029 48.5337V52.6226" stroke="#F96073" stroke-width="1.24444" stroke-linecap="round" stroke-linejoin="round"/>
<path d="M10.8447 50.5781H6.75586" stroke="#F96073" stroke-width="1.24444" stroke-linecap="round" stroke-linejoin="round"/>
<path d="M54.2227 51.4668L57.0671 54.3112" stroke="#F96073" stroke-width="1.24444" stroke-linecap="round" stroke-linejoin="round"/>
<path d="M54.2227 54.3112L57.0671 51.4668" stroke="#F96073" stroke-width="1.24444" stroke-linecap="round" stroke-linejoin="round"/>
<path d="M48.356 7.82227L51.2004 10.6667" stroke="#F96073" stroke-width="1.24444" stroke-linecap="round" stroke-linejoin="round"/>
<path d="M48.356 10.6667L51.2004 7.82227" stroke="#F96073" stroke-width="1.24444" stroke-linecap="round" stroke-linejoin="round"/>
<path d="M28.267 60.3558C29.2448 60.3558 29.9559 59.5558 29.9559 58.6669C29.9559 57.778 29.1559 56.978 28.267 56.978C27.3781 56.978 26.5781 57.778 26.5781 58.6669C26.5781 59.5558 27.3781 60.3558 28.267 60.3558Z" stroke="#FFDA6A" stroke-width="1.24444" stroke-linecap="round" stroke-linejoin="round"/>
<path d="M11.3783 12.3558C12.3561 12.3558 13.0672 11.5558 13.0672 10.6669C13.0672 9.77803 12.2672 8.97803 11.3783 8.97803C10.4895 8.97803 9.68945 9.77803 9.68945 10.6669C9.68945 11.5558 10.4895 12.3558 11.3783 12.3558Z" stroke="#FFDA6A" stroke-width="1.24444" stroke-linecap="round" stroke-linejoin="round"/>
<path d="M11.0225 24H24.0002" stroke="#2A3539" stroke-width="1.24444" stroke-linecap="round" stroke-linejoin="round"/>
<path d="M6.04492 32.4448H23.4671" stroke="#2A3539" stroke-width="1.24444" stroke-linecap="round" stroke-linejoin="round"/>
<path d="M9.86719 40.8003H24.5339" stroke="#2A3539" stroke-width="1.24444" stroke-linecap="round" stroke-linejoin="round"/>
<path d="M17.0674 44C18.3118 46.1333 20.0007 48 21.8674 49.5111" stroke="#2A3539" stroke-width="1.24444" stroke-linecap="round" stroke-linejoin="round"/>
<path d="M14.5781 35.5557C14.5781 36.4446 14.7559 37.3334 14.9337 38.2223C15.1115 39.1112 15.3781 39.9112 15.6448 40.7112" stroke="#2A3539" stroke-width="1.24444" stroke-linecap="round" stroke-linejoin="round"/>
<path d="M16.0003 27.1113C15.2892 28.8002 14.8448 30.4891 14.667 32.3558" stroke="#2A3539" stroke-width="1.24444" stroke-linecap="round" stroke-linejoin="round"/>
<path d="M35.5562 15.6445C38.6673 16.0001 41.5117 17.0668 44.0006 18.7556" stroke="#2A3539" stroke-width="1.24444" stroke-linecap="round" stroke-linejoin="round"/>
<path d="M31.3782 14.4002V11.378H30.3116C29.156 11.378 28.1782 10.4002 28.1782 9.24466C28.1782 8.08911 29.156 7.11133 30.3116 7.11133H36.6227C37.7782 7.11133 38.756 8.08911 38.756 9.24466C38.756 10.4002 37.7782 11.378 36.6227 11.378H35.556V13.8669" stroke="#2A3539" stroke-width="1.24444" stroke-linecap="round" stroke-linejoin="round"/>
<path d="M19.0225 22.2223C22.0447 18.6668 26.4002 16.1779 31.378 15.6445" stroke="#2A3539" stroke-width="1.24444" stroke-linecap="round" stroke-linejoin="round"/>
<path d="M33.4227 37.6891C35.2004 37.6891 36.6227 36.2668 36.6227 34.4891C36.6227 32.7113 35.2004 31.2891 33.4227 31.2891C31.6449 31.2891 30.2227 32.7113 30.2227 34.4891C30.2227 36.2668 31.6449 37.6891 33.4227 37.6891Z" stroke="#2A3539" stroke-width="1.24444" stroke-linecap="round" stroke-linejoin="round"/>
<path d="M35.8228 32.1778L44.0005 24" stroke="#2A3539" stroke-width="1.24444" stroke-linecap="round" stroke-linejoin="round"/>
<path d="M51.3782 18.7557L48.1782 15.5557" stroke="#2A3539" stroke-width="1.24444" stroke-linecap="round" stroke-linejoin="round"/>
<path d="M46.4893 20.4445L49.3337 17.6001" stroke="#2A3539" stroke-width="1.24444" stroke-linecap="round" stroke-linejoin="round"/>
<path d="M41.1561 51.7335C35.0227 54.3112 27.6449 53.689 21.9561 49.5112" stroke="#2A3539" stroke-width="1.24444" stroke-linecap="round" stroke-linejoin="round"/>
<path d="M46.4004 20.6226C48.6226 22.667 50.2226 25.1559 51.2004 27.8226" stroke="#2A3539" stroke-width="1.24444" stroke-linecap="round" stroke-linejoin="round"/>
<path d="M29.1562 16.0892C33.6896 15.0225 38.6674 15.6447 42.934 18.1336" stroke="#2A3539" stroke-width="1.24444" stroke-linecap="round" stroke-linejoin="round"/>
<path d="M26.2227 21.4223C28.356 20.2668 30.756 19.5557 33.4227 19.5557C36.0893 19.5557 39.6449 20.6223 42.0449 22.3112" stroke="#2A3539" stroke-width="1.24444" stroke-linecap="round" stroke-linejoin="round"/>
<path d="M37.8674 48.4447C36.4451 48.8892 34.934 49.1559 33.334 49.1559C28.2674 49.1559 23.8229 46.5781 21.1562 42.7559" stroke="#2A3539" stroke-width="1.24444" stroke-linecap="round" stroke-linejoin="round"/>
<path d="M45.6006 26.0444C46.6673 27.6444 47.4673 29.4222 47.9117 31.3778" stroke="#2A3539" stroke-width="1.24444" stroke-linecap="round" stroke-linejoin="round"/>
<path d="M55.9116 26.8447L38.0449 45.8669L47.2894 44.8892L41.3338 59.1114L60.0894 39.0225L50.9338 40.4447L55.9116 26.8447Z" stroke="#2A3539" stroke-width="1.24444" stroke-linecap="round" stroke-linejoin="round"/>
</svg>
