<svg width="64" height="64" viewBox="0 0 64 64" fill="none" xmlns="http://www.w3.org/2000/svg">
<path d="M50.5846 33.6061C49.6146 33.4361 53.0196 32.4811 53.0196 32.4811L49.7246 31.8161L52.5196 31.3961L55.1497 31.0011L55.3346 30.4261C52.8746 30.1711 49.1696 29.7861 49.1346 29.7861C49.0996 29.7861 52.6346 29.1561 55.8696 28.7361L55.9746 28.4111C56.9646 25.3011 55.0996 22.0111 51.9246 21.2661L19.1547 13.5711C16.0947 12.8511 13.0446 14.7911 12.3996 17.8661L10.7147 25.8911C13.5797 25.7961 16.2397 26.7061 16.9197 26.6711C16.9797 26.6661 17.0297 26.6611 17.0547 26.6611C17.1097 26.6611 17.0547 26.6611 16.9197 26.6711C16.1397 26.7461 12.7447 27.2861 10.3347 27.6761L10.2197 28.2261C11.4197 28.3011 12.1446 28.3811 12.3596 28.3761C19.1996 28.2211 10.9647 29.7461 9.78465 30.2811L7.09965 43.0511C6.40965 46.3261 8.73465 49.4711 12.0696 49.7761L43.6446 52.6461C46.2596 52.8861 48.6846 51.2711 49.4846 48.7711L54.2296 33.8911C52.8346 33.8061 51.1346 33.6911 50.5896 33.5961L50.5846 33.6061Z" fill="#FFD5DA"/>
<path d="M13.2892 23.1263L32.0042 11.3213L51.5842 23.1263V28.0463L12.4292 27.8213L12.4592 23.4413L13.2892 23.1263Z" fill="white"/>
<path d="M53.0295 49.4658H9.83447V53.7658H53.0295V49.4658Z" fill="#FFF3CD"/>
<path d="M47.9851 27.541H16.7651V49.291H47.9851V27.541Z" fill="#FFD5DA"/>
<path d="M21.3745 27.8311H15.3345V49.2911H21.3745V27.8311Z" fill="#FFF3CD"/>
<path d="M35.0249 27.8311H28.9849V49.2911H35.0249V27.8311Z" fill="#FFF3CD"/>
<path d="M48.6743 27.9414H42.6343V49.4014H48.6743V27.9414Z" fill="#FFF3CD"/>
<path d="M51.6143 23.6963H13.1343V25.9763H51.6143V23.6963Z" fill="#FFF3CD"/>
<path d="M20.0894 21.0715L32.2194 13.7715C32.2194 13.7715 45.0644 21.4215 44.9494 21.4215C44.8344 21.4215 20.0894 21.0715 20.0894 21.0715Z" fill="#FFF3CD"/>
<path d="M13.1349 9.39014L10.2749 12.2501" stroke="#F96073" stroke-width="1.25" stroke-linecap="round" stroke-linejoin="round"/>
<path d="M10.2749 9.39014L13.1349 12.2501" stroke="#F96073" stroke-width="1.25" stroke-linecap="round" stroke-linejoin="round"/>
<path d="M52.5698 17.6548H56.6148" stroke="#F96073" stroke-width="1.25" stroke-linecap="round" stroke-linejoin="round"/>
<path d="M54.5903 19.6754V15.6304" stroke="#F96073" stroke-width="1.25" stroke-linecap="round" stroke-linejoin="round"/>
<path d="M40.9396 10.4501C41.8758 10.4501 42.6346 9.69118 42.6346 8.75506C42.6346 7.81894 41.8758 7.06006 40.9396 7.06006C40.0035 7.06006 39.2446 7.81894 39.2446 8.75506C39.2446 9.69118 40.0035 10.4501 40.9396 10.4501Z" stroke="#FFDA6A" stroke-width="1.25" stroke-linecap="round" stroke-linejoin="round"/>
<path d="M56.0197 45.6454C56.9558 45.6454 57.7147 44.8865 57.7147 43.9504C57.7147 43.0142 56.9558 42.2554 56.0197 42.2554C55.0836 42.2554 54.3247 43.0142 54.3247 43.9504C54.3247 44.8865 55.0836 45.6454 56.0197 45.6454Z" stroke="#FFDA6A" stroke-width="1.25" stroke-linecap="round" stroke-linejoin="round"/>
<path d="M5.25066 34.5008C6.18679 34.5008 6.94566 33.742 6.94566 32.8058C6.94566 31.8697 6.18679 31.1108 5.25066 31.1108C4.31454 31.1108 3.55566 31.8697 3.55566 32.8058C3.55566 33.742 4.31454 34.5008 5.25066 34.5008Z" stroke="#FFDA6A" stroke-width="1.25" stroke-linecap="round" stroke-linejoin="round"/>
<path d="M34.8042 28.2686V49.2886" stroke="#2A3539" stroke-width="1.25" stroke-linecap="round" stroke-linejoin="round"/>
<path d="M29.2095 28.2686V49.2886" stroke="#2A3539" stroke-width="1.25" stroke-linecap="round" stroke-linejoin="round"/>
<path d="M21.3784 28.2695V49.2895" stroke="#2A3539" stroke-width="1.25" stroke-linecap="round" stroke-linejoin="round"/>
<path d="M15.7837 28.0449V49.2899" stroke="#2A3539" stroke-width="1.25" stroke-linecap="round" stroke-linejoin="round"/>
<path d="M12.4302 49.2891H51.5852" stroke="#2A3539" stroke-width="1.25" stroke-linecap="round" stroke-linejoin="round"/>
<path d="M12.4302 23.3438H51.5852" stroke="#2A3539" stroke-width="1.25" stroke-linecap="round" stroke-linejoin="round"/>
<path d="M51.5852 23.2842L32.0052 11.0342L12.4302 23.2842V27.8192H51.5852V23.2842Z" stroke="#2A3539" stroke-width="1.25" stroke-linecap="round" stroke-linejoin="round"/>
<path d="M30.3296 18.8691H33.6846" stroke="#2A3539" stroke-width="1.25" stroke-linecap="round" stroke-linejoin="round"/>
<path d="M16.7651 53.7646H53.8251" stroke="#2A3539" stroke-width="1.25" stroke-linecap="round" stroke-linejoin="round"/>
<path d="M9.06982 53.7646H13.9498" stroke="#2A3539" stroke-width="1.25" stroke-linecap="round" stroke-linejoin="round"/>
<path d="M48.2295 28.2656V49.2906" stroke="#2A3539" stroke-width="1.25" stroke-linecap="round" stroke-linejoin="round"/>
<path d="M42.6348 28.2656V49.2906" stroke="#2A3539" stroke-width="1.25" stroke-linecap="round" stroke-linejoin="round"/>
</svg>
