<svg width="64" height="64" viewBox="0 0 64 64" fill="none" xmlns="http://www.w3.org/2000/svg">
<path d="M52.115 32.5064C51.1461 32.3287 54.5505 31.3331 54.5505 31.3331L51.2528 30.6398L54.0439 30.2042L56.675 29.7864L56.8617 29.1909C54.3994 28.9242 50.6928 28.5242 50.6572 28.5242C50.6217 28.5242 54.1594 27.8665 57.395 27.4309L57.5017 27.0931C58.4883 23.8487 56.6305 20.4087 53.4483 19.6264L20.675 11.5909C17.6172 10.8442 14.5683 12.862 13.9194 16.0798L12.2305 24.462C15.0928 24.3642 17.7594 25.3153 18.435 25.2798C18.4972 25.2798 18.5417 25.2709 18.5683 25.2709C18.6217 25.2709 18.5683 25.2709 18.435 25.2798C17.6528 25.3598 14.2572 25.9287 11.8483 26.3287L11.7328 26.9065C12.9328 26.9776 13.6617 27.0753 13.875 27.0665C20.7105 26.9065 12.4794 28.4976 11.2972 29.0576L8.61276 42.0798C7.91943 45.502 10.2483 48.782 13.5817 49.102L45.155 51.3953C47.7683 51.6442 50.195 50.9864 50.995 48.3731L55.7417 32.8353C54.3461 32.7464 52.6483 32.622 52.0972 32.5242L52.115 32.5064Z" fill="#FFD5DA"/>
<path d="M21.6978 32.9514L31.3866 22.3914C33.2711 20.338 35.4844 18.6047 37.9378 17.2714L43.6622 14.1514L50.3111 20.9603L48.2044 26.2847L45.7244 29.9114L31.6711 42.9247L21.6978 32.9514Z" fill="#FFF3CD"/>
<path d="M12.5508 33.7155L21.6974 24.5688H29.1463L18.373 36.2755L12.5508 33.7155Z" fill="#FF9BA7"/>
<path d="M40.0534 35.4844V42.9244L31.0134 51.9644L28.5601 46.0622L40.0534 35.4844Z" fill="#FF9BA7"/>
<path d="M36.3554 32.2581C38.5596 32.2581 40.3465 30.4712 40.3465 28.267C40.3465 26.0628 38.5596 24.2759 36.3554 24.2759C34.1511 24.2759 32.3643 26.0628 32.3643 28.267C32.3643 30.4712 34.1511 32.2581 36.3554 32.2581Z" fill="white"/>
<path d="M43.6533 14.8801L52.7555 12.5957L50.3111 21.689L43.6533 14.8801Z" fill="#FF9BA7"/>
<path d="M21.6975 32.9512L31.6708 42.9245L28.5597 46.0623L18.373 36.2756L21.6975 32.9512Z" fill="white"/>
<path d="M19.9909 38.0713L17.5376 40.4357L24.1865 47.0846L26.6843 44.5868L19.9909 38.0713Z" fill="#FF9BA7"/>
<path d="M23.369 34.6224C23.369 34.6224 30.8623 24.7202 37.3245 19.8668C38.6223 18.889 43.9645 15.7335 44.8534 15.8135L43.2623 14.1602C43.2623 14.1602 35.929 17.1824 31.6623 21.8224C27.3956 26.4624 21.689 32.9602 21.689 32.9602L23.3601 34.6313L23.369 34.6224Z" fill="white"/>
<path d="M20.1511 34.2402L30.3111 44.2225L28.2222 46.3291L18.0444 36.5425L20.1511 34.2402Z" fill="#FFF3CD"/>
<path d="M18.1954 43.8491C18.1954 43.8491 13.6532 41.9736 12.2398 44.0003C10.8265 46.0269 9.85763 54.0625 8.15985 54.5869C6.46207 55.1114 8.18651 55.7603 10.2043 55.1025C12.2221 54.4447 14.1332 52.658 15.0132 51.5291C15.8932 50.4003 16.6043 50.4003 16.9776 50.8091C17.351 51.218 18.6221 53.3514 17.3598 54.0447C16.0976 54.738 19.3954 54.3114 20.551 51.8936C21.7065 49.4758 21.1198 47.3603 21.1198 47.3603C21.1198 47.3603 18.6843 48.4891 17.5287 48.1425C16.3732 47.7958 15.5998 48.1958 15.3154 48.3291C15.031 48.4625 15.6976 44.0269 16.951 43.938" fill="#FF9BA7"/>
<path d="M17.3153 43.2002C17.3153 43.2002 21.3064 45.778 21.182 46.7824C21.0575 47.7869 17.0042 47.5646 16.3286 47.8758C15.6531 48.1869 15.022 48.4713 15.022 48.4713C15.022 48.4713 14.462 46.4891 15.9286 45.4224C17.3953 44.3558 17.3064 43.2002 17.3064 43.2002H17.3153Z" fill="#FFF3CD"/>
<path d="M38.4268 55.1558V59.298" stroke="#F96073" stroke-width="1.24444" stroke-linecap="round" stroke-linejoin="round"/>
<path d="M36.3555 57.2266H40.4977" stroke="#F96073" stroke-width="1.24444" stroke-linecap="round" stroke-linejoin="round"/>
<path d="M57.4668 14.3555L60.3912 17.2888" stroke="#F96073" stroke-width="1.24444" stroke-linecap="round" stroke-linejoin="round"/>
<path d="M57.4668 17.2888L60.3912 14.3555" stroke="#F96073" stroke-width="1.24444" stroke-linecap="round" stroke-linejoin="round"/>
<path d="M7.87549 18.7646L10.7999 21.6891" stroke="#F96073" stroke-width="1.24444" stroke-linecap="round" stroke-linejoin="round"/>
<path d="M7.87549 21.6891L10.7999 18.7646" stroke="#F96073" stroke-width="1.24444" stroke-linecap="round" stroke-linejoin="round"/>
<path d="M32.0444 8.49792C33.0017 8.49792 33.7777 7.72188 33.7777 6.76458C33.7777 5.80729 33.0017 5.03125 32.0444 5.03125C31.0871 5.03125 30.311 5.80729 30.311 6.76458C30.311 7.72188 31.0871 8.49792 32.0444 8.49792Z" stroke="#FFDA6A" stroke-width="1.24444" stroke-linecap="round" stroke-linejoin="round"/>
<path d="M55.7245 49.2977C56.6818 49.2977 57.4579 48.5217 57.4579 47.5644C57.4579 46.6071 56.6818 45.8311 55.7245 45.8311C54.7672 45.8311 53.9912 46.6071 53.9912 47.5644C53.9912 48.5217 54.7672 49.2977 55.7245 49.2977Z" stroke="#FFDA6A" stroke-width="1.24444" stroke-linecap="round" stroke-linejoin="round"/>
<path d="M28.3469 46.2489L18.3735 36.2756L32.0713 21.3867C35.6091 17.5467 40.2224 14.8711 45.3158 13.7245L52.7558 11.8667L50.898 19.3067C49.7513 24.4 47.0758 29.0134 43.2358 32.5511L28.3469 46.2489Z" stroke="#2A3539" stroke-width="1.24444" stroke-linecap="round" stroke-linejoin="round"/>
<path d="M20.0324 37.9383L17.5371 40.4336L24.1871 47.0835L26.6824 44.5882L20.0324 37.9383Z" stroke="#2A3539" stroke-width="1.24444" stroke-linecap="round" stroke-linejoin="round"/>
<path d="M18.3735 36.2044L12.5513 33.7155L21.6979 24.5688H28.4179" stroke="#2A3539" stroke-width="1.24444" stroke-linecap="round" stroke-linejoin="round"/>
<path d="M40.0535 36.2046V42.9246L30.9157 52.0713L28.418 46.249" stroke="#2A3539" stroke-width="1.24444" stroke-linecap="round" stroke-linejoin="round"/>
<path d="M38.9692 30.8891C37.5203 32.338 35.1825 32.338 33.7336 30.8891C32.2848 29.4402 32.2848 27.1025 33.7336 25.6536C35.1825 24.2047 37.5203 24.2047 38.9692 25.6536C40.4181 27.1025 40.4181 29.4402 38.9692 30.8891Z" stroke="#2A3539" stroke-width="1.24444" stroke-linecap="round" stroke-linejoin="round"/>
<path d="M21.6978 32.9512L31.6711 42.9245" stroke="#2A3539" stroke-width="1.24444" stroke-linecap="round" stroke-linejoin="round"/>
<path d="M43.6533 14.311L50.3111 20.9688" stroke="#2A3539" stroke-width="1.24444" stroke-linecap="round" stroke-linejoin="round"/>
<path d="M20.7468 51.5378C20.0446 52.96 18.7646 54.0445 16.9779 54.2667C18.6401 53.6267 18.7112 50.2933 16.1157 50.3822C13.2001 50.48 14.9779 56.1245 7.4668 55.0133C12.2224 52.6311 7.60902 46.0889 13.6179 43.6178C15.2801 42.9333 16.8712 43.1467 18.1957 43.8489" stroke="#2A3539" stroke-width="1.24444" stroke-linecap="round" stroke-linejoin="round"/>
<path d="M20.4536 46.1069C20.9425 46.5958 21.2536 47.6358 21.3158 48.2136C21.3336 48.3558 21.3425 48.5069 21.3514 48.658" stroke="#2A3539" stroke-width="1.24444" stroke-linecap="round" stroke-linejoin="round"/>
<path d="M17.8135 43.6626C16.0179 44.2315 14.8979 46.4715 15.0312 48.4626C16.7023 46.8804 17.8757 49.1737 21.0579 47.1559" stroke="#2A3539" stroke-width="1.24444" stroke-linecap="round" stroke-linejoin="round"/>
</svg>
