<svg width="64" height="64" viewBox="0 0 64 64" fill="none" xmlns="http://www.w3.org/2000/svg">
<path d="M50.669 32.9149C49.7065 32.7463 53.0851 31.7987 53.0851 31.7987L49.8156 31.1388L52.589 30.7221L55.1986 30.3301L55.3822 29.7596C52.9412 29.5066 49.2649 29.1246 49.2302 29.1246C49.1955 29.1246 52.7031 28.4994 55.913 28.0827L56.0172 27.7602C56.9995 24.6743 55.149 21.4098 51.9986 20.6706L19.4826 13.0353C16.4463 12.3208 13.42 14.2458 12.78 17.297L11.108 25.2597C13.9508 25.1655 16.5902 26.0684 17.2649 26.0337C17.3245 26.0287 17.3741 26.0238 17.3989 26.0238C17.4535 26.0238 17.3989 26.0238 17.2649 26.0337C16.491 26.1081 13.1223 26.6439 10.731 27.0309L10.6169 27.5766C11.8076 27.6511 12.527 27.7304 12.7403 27.7255C19.5273 27.5717 11.3561 29.0849 10.1853 29.6157L7.52107 42.2867C6.83642 45.5363 9.1434 48.657 12.4525 48.9596L43.7828 51.8073C46.3775 52.0455 48.7837 50.443 49.5775 47.9624L54.2857 33.1977C52.9015 33.1134 51.2147 32.9993 50.6739 32.905L50.669 32.9149Z" fill="#FFD5DA"/>
<path d="M33.4242 7.36475L37.3882 8.18831L32.7693 30.499L33.2754 34.9443C33.2754 34.9443 28.6267 32.8953 27.1879 33.2277C25.7492 33.5601 28.8301 29.5514 28.8301 29.5514L33.4242 7.36475Z" fill="#FF9BA7"/>
<path d="M14.2882 54.025L35.81 57.8402L37.8937 45.4867C38.7818 40.2079 35.3685 35.1673 30.1344 34.0362L28.8395 33.7583C23.4119 32.5875 18.0686 36.0504 16.9226 41.4879L14.2832 54.03L14.2882 54.025Z" fill="#FFF3CD"/>
<path d="M19.5773 36.77L37.4031 40.2776L38.0381 44.8023L17.1562 40.7837L19.5773 36.77Z" fill="#FF9BA7"/>
<path d="M16.0896 54.3427L18.9572 41.0912C18.9572 41.0912 20.5299 35.2568 27.5947 34.9392C28.6316 34.8946 28.0561 33.2227 28.0561 33.2227L27.3119 33.0837C21.9786 32.0717 16.8139 35.4999 15.6778 40.8084L12.8945 53.8068L16.0896 54.3427Z" fill="white"/>
<path d="M35.1007 7.52351L30.333 30.3551L28.8396 33.7536L26.5674 33.3666L28.8942 29.864L33.4238 7.36475L35.1007 7.52351Z" fill="white"/>
<path d="M5.71506 29.7397C6.64393 29.7397 7.39692 28.9867 7.39692 28.0578C7.39692 27.129 6.64393 26.376 5.71506 26.376C4.7862 26.376 4.0332 27.129 4.0332 28.0578C4.0332 28.9867 4.7862 29.7397 5.71506 29.7397Z" stroke="#FFDA6A" stroke-width="1.24031" stroke-linecap="round" stroke-linejoin="round"/>
<path d="M47.0573 12.832C47.9862 12.832 48.7392 12.079 48.7392 11.1501C48.7392 10.2213 47.9862 9.46826 47.0573 9.46826C46.1285 9.46826 45.3755 10.2213 45.3755 11.1501C45.3755 12.079 46.1285 12.832 47.0573 12.832Z" stroke="#FFDA6A" stroke-width="1.24031" stroke-linecap="round" stroke-linejoin="round"/>
<path d="M20.415 6.76416L17.5771 9.60199" stroke="#F96073" stroke-width="1.24031" stroke-linecap="round" stroke-linejoin="round"/>
<path d="M17.5771 6.76416L20.415 9.60199" stroke="#F96073" stroke-width="1.24031" stroke-linecap="round" stroke-linejoin="round"/>
<path d="M10.2397 51.8965L7.40186 54.7343" stroke="#F96073" stroke-width="1.24031" stroke-linecap="round" stroke-linejoin="round"/>
<path d="M7.40186 51.8965L10.2397 54.7343" stroke="#F96073" stroke-width="1.24031" stroke-linecap="round" stroke-linejoin="round"/>
<path d="M59.2418 45.6851H55.2231" stroke="#F96073" stroke-width="1.24031" stroke-linecap="round" stroke-linejoin="round"/>
<path d="M57.2324 43.6758V47.6894" stroke="#F96073" stroke-width="1.24031" stroke-linecap="round" stroke-linejoin="round"/>
<path d="M19.7355 47.4463L18.3117 54.7393L14.2881 54.0249L16.8779 41.7656C17.3293 39.8208 18.2868 38.1191 19.5768 36.7697C22.0177 34.2196 25.6543 32.9247 29.3603 33.6242C35.031 34.6909 38.8512 40.0292 38.0326 45.7396L35.8099 57.8401L32.0146 57.1653L33.0267 51.1077" stroke="#2A3539" stroke-width="1.24031" stroke-linecap="round" stroke-linejoin="round"/>
<path d="M22.3254 50.6861L21.229 55.2554L28.6014 56.5602L29.7425 50.0659" stroke="#2A3539" stroke-width="1.24031" stroke-linecap="round" stroke-linejoin="round"/>
<path d="M37.4024 40.2771L19.5767 36.7695" stroke="#2A3539" stroke-width="1.24031" stroke-linecap="round" stroke-linejoin="round"/>
<path d="M29.5489 42.9116L17.1558 40.7832" stroke="#2A3539" stroke-width="1.24031" stroke-linecap="round" stroke-linejoin="round"/>
<path d="M38.142 44.3854L32 43.3286" stroke="#2A3539" stroke-width="1.24031" stroke-linecap="round" stroke-linejoin="round"/>
<path d="M26.5773 47.2529L24.8062 55.8905" stroke="#2A3539" stroke-width="1.24031" stroke-linecap="round" stroke-linejoin="round"/>
<path d="M37.3925 8.18311L32.7041 30.8312L33.2746 34.9391" stroke="#2A3539" stroke-width="1.24031" stroke-linecap="round" stroke-linejoin="round"/>
<path d="M26.7754 33.2272L28.7351 30.0222L33.4235 7.36426" stroke="#2A3539" stroke-width="1.24031" stroke-linecap="round" stroke-linejoin="round"/>
<path d="M29.3154 30.1465L32.699 30.846" stroke="#2A3539" stroke-width="1.24031" stroke-linecap="round" stroke-linejoin="round"/>
<path d="M40.9844 49.6343H50.5596" stroke="#2A3539" stroke-width="1.24031" stroke-linecap="round" stroke-linejoin="round"/>
<path d="M46.918 46.4395H49.4184" stroke="#2A3539" stroke-width="1.24031" stroke-linecap="round" stroke-linejoin="round"/>
<path d="M40.6323 46.4395H43.7926" stroke="#2A3539" stroke-width="1.24031" stroke-linecap="round" stroke-linejoin="round"/>
<path d="M39.4863 52.8838H48.5952" stroke="#2A3539" stroke-width="1.24031" stroke-linecap="round" stroke-linejoin="round"/>
</svg>
