<svg width="32" height="32" viewBox="0 0 32 32" fill="none" xmlns="http://www.w3.org/2000/svg">
<path d="M13.0592 6.41176C12.9416 6.82353 12.6474 7.17647 12.2357 7.35294C11.5886 7.64706 11.0004 8 10.4121 8.41176C10.0592 8.70588 9.58861 8.76471 9.17685 8.64706L5.64744 7.52941L3.52979 11.2941L6.17685 13.7647C6.52979 14.0588 6.70626 14.5294 6.64744 14.9412C6.58862 15.6471 6.58862 16.3529 6.64744 17.0588C6.70626 17.4706 6.52979 17.9412 6.17685 18.2353L3.52979 20.7059L5.64744 24.4706L9.17685 23.3529C9.58861 23.2353 10.0592 23.3529 10.4121 23.5882C11.0004 24 11.5886 24.3529 12.2357 24.6471C12.6474 24.8235 12.9416 25.1765 13.0592 25.5882L13.8239 29.1765H18.1769L19.0004 25.5882C19.0592 25.1765 19.3533 24.8235 19.7651 24.6471C20.4121 24.3529 21.0004 24 21.5886 23.5882C21.9416 23.3529 22.4121 23.2353 22.8239 23.3529L26.3533 24.4706L28.471 20.7059L25.8239 18.2353C25.471 17.9412 25.2945 17.4706 25.3533 17.0588C25.4121 16.3529 25.4121 15.6471 25.3533 14.9412C25.2945 14.5294 25.471 14.0588 25.8239 13.7647L28.471 11.2941L26.3533 7.52941L22.8239 8.64706C22.4121 8.76471 21.9416 8.70588 21.5886 8.41176C21.0004 8 20.4121 7.64706 19.7651 7.35294C19.3533 7.17647 19.0592 6.82353 19.0004 6.41176L18.1769 2.82353H13.8239L13.0592 6.41176ZM13.471 0H18.5298C19.6474 0 20.5886 0.764706 20.8239 1.82353L21.5886 5.11765C21.9416 5.29412 22.2945 5.52941 22.6474 5.70588L25.8827 4.70588C26.8827 4.41176 28.0592 4.82353 28.5886 5.82353L31.118 10.1765C31.7063 11.1765 31.5298 12.3529 30.7063 13.1176L28.2357 15.4118C28.2357 15.8235 28.2357 16.2353 28.2357 16.6471L30.7063 18.8824C31.5298 19.6471 31.7063 20.8235 31.118 21.8235L28.5886 26.1765C28.0592 27.1765 26.9416 27.5882 25.8827 27.2941L22.6474 26.2941C22.2945 26.5294 21.9416 26.7059 21.5886 26.8824L20.8239 30.1765C20.5886 31.2353 19.6474 32 18.5298 32H13.471C12.3533 32 11.4121 31.2353 11.1768 30.1765L10.4121 26.8824C10.0592 26.7059 9.70626 26.5294 9.35332 26.2941L6.17685 27.2941C5.11803 27.5882 3.94156 27.1765 3.41214 26.1765L0.882733 21.8235C0.294498 20.8235 0.529792 19.6471 1.2945 18.8824L3.76509 16.6471C3.76509 16.2353 3.76509 15.7647 3.76509 15.4118L1.2945 13.1176C0.529792 12.3529 0.353321 11.1765 0.882733 10.1765L3.41214 5.82353C3.94156 4.82353 5.11803 4.41176 6.17685 4.70588L9.35332 5.70588C9.70626 5.52941 10.0592 5.29412 10.4121 5.11765L11.1768 1.82353C11.4121 0.764706 12.3533 0 13.471 0ZM18.8239 16C18.8239 14.4118 17.5886 13.1765 16.0004 13.1765C14.4121 13.1765 13.1768 14.4118 13.1768 16C13.1768 17.5882 14.4121 18.8235 16.0004 18.8235C17.5886 18.8235 18.8239 17.5882 18.8239 16ZM16.0004 10.3529C19.118 10.3529 21.6474 12.8824 21.6474 16C21.6474 19.1176 19.118 21.6471 16.0004 21.6471C12.8827 21.6471 10.3533 19.1176 10.3533 16C10.3533 12.8824 12.8827 10.3529 16.0004 10.3529Z" fill="white"/>
</svg>
