<svg width="64" height="64" viewBox="0 0 64 64" fill="none" xmlns="http://www.w3.org/2000/svg">
<path d="M51.8101 30.5417C50.8476 30.373 54.2262 29.4254 54.2262 29.4254L50.9568 28.7655L53.7301 28.3488L56.3397 27.9568L56.5233 27.3863C54.0823 27.1333 50.4061 26.7513 50.3713 26.7513C50.3366 26.7513 53.8442 26.1261 57.0541 25.7094L57.1583 25.3869C58.1406 22.301 56.2901 19.0365 53.1397 18.2973L20.6237 10.662C17.5875 9.94754 14.5611 11.8725 13.9211 14.9237L12.2492 22.8865C15.092 22.7922 17.7313 23.6951 18.4061 23.6604C18.4656 23.6554 18.5152 23.6505 18.54 23.6505C18.5946 23.6505 18.54 23.6505 18.4061 23.6604C17.6321 23.7348 14.2634 24.2706 11.8721 24.6576L11.758 25.2034C12.9487 25.2778 13.6681 25.3572 13.8814 25.3522C20.6684 25.1984 12.4972 26.7116 11.3264 27.2424L8.66218 39.9134C7.97753 43.163 10.2845 46.2837 13.5937 46.5863L44.9239 49.4341C47.5186 49.6722 49.9248 48.0697 50.7186 45.5891L55.4268 30.8244C54.0427 30.7401 52.3558 30.626 51.8151 30.5317L51.8101 30.5417Z" fill="#FFD5DA"/>
<path d="M52.5599 16.9617L10.1909 23.0596L14.0887 50.1418L56.4577 44.0438L52.5599 16.9617Z" fill="white"/>
<path d="M31.9649 22.4924L14.7924 24.9639C13.8052 25.106 13.1201 26.0215 13.2621 27.0087L15.921 45.4825C16.0631 46.4697 16.9785 47.1548 17.9657 47.0127L35.1382 44.5412C36.1254 44.3991 36.8105 43.4836 36.6684 42.4964L34.0096 24.0226C33.8675 23.0354 32.9521 22.3503 31.9649 22.4924Z" fill="#FF9BA7"/>
<path d="M34.3106 11.3881L27.3228 12.3938L28.867 23.1235L35.8549 22.1178L34.3106 11.3881Z" fill="white"/>
<path d="M35.3388 21.0009L30.2288 21.7351L28.8545 12.1748L33.9398 11.262L35.3388 21.0009Z" fill="#FF9BA7"/>
<path d="M28.5662 32.2037C28.5662 35.3491 27.187 36.6886 24.9941 36.6886C22.8013 36.6886 20.8862 35.3739 20.8862 32.2285C20.8862 29.083 21.4915 27.0886 24.7113 27.0886C26.9042 27.0886 28.5662 29.0632 28.5662 32.2086V32.2037Z" fill="white"/>
<path d="M28.4621 31.1369C28.854 33.8607 27.9759 35.1655 26.3238 35.4036C24.6717 35.6418 23.0593 34.714 22.6673 31.9903C22.2754 29.2666 22.4838 27.4756 24.9148 27.1283C26.5718 26.8901 28.0701 28.4182 28.4621 31.1369Z" fill="#FFF3CD"/>
<path d="M20.4698 43.6693L32.3519 41.8931C32.3519 41.8931 32.5405 38.3905 31.1166 37.8795C29.6927 37.3685 26.8201 36.3316 25.9122 36.5102C25.0043 36.6888 23.8087 36.9666 22.6676 37.8547C21.5265 38.7427 20.5442 39.5812 20.4747 40.6082C20.4053 41.6351 20.4747 43.6643 20.4747 43.6643L20.4698 43.6693Z" fill="white"/>
<path d="M21.7753 43.446L32.1145 42.032C32.1145 42.032 31.6729 37.9936 30.2491 37.4776C28.8252 36.9617 26.9746 36.5995 26.0667 36.7781C25.1588 36.9567 24.5684 36.4606 23.4274 37.3486C22.2863 38.2367 21.8497 39.3579 21.7753 40.3849C21.7008 41.4119 21.7753 43.441 21.7753 43.441V43.446Z" fill="#FFF3CD"/>
<path d="M26.9289 7.39204C27.8578 7.39204 28.6108 6.63905 28.6108 5.71018C28.6108 4.78132 27.8578 4.02832 26.9289 4.02832C26.0001 4.02832 25.2471 4.78132 25.2471 5.71018C25.2471 6.63905 26.0001 7.39204 26.9289 7.39204Z" stroke="#FFDA6A" stroke-width="1.24031" stroke-linecap="round" stroke-linejoin="round"/>
<path d="M4.70823 36.4348C5.63709 36.4348 6.39009 35.6818 6.39009 34.7529C6.39009 33.824 5.63709 33.071 4.70823 33.071C3.77936 33.071 3.02637 33.824 3.02637 34.7529C3.02637 35.6818 3.77936 36.4348 4.70823 36.4348Z" stroke="#FFDA6A" stroke-width="1.24031" stroke-linecap="round" stroke-linejoin="round"/>
<path d="M54.7024 53.0354C55.6312 53.0354 56.3842 52.2824 56.3842 51.3535C56.3842 50.4246 55.6312 49.6716 54.7024 49.6716C53.7735 49.6716 53.0205 50.4246 53.0205 51.3535C53.0205 52.2824 53.7735 53.0354 54.7024 53.0354Z" stroke="#FFDA6A" stroke-width="1.24031" stroke-linecap="round" stroke-linejoin="round"/>
<path d="M11.6938 12.4033L8.85596 15.2411" stroke="#F96073" stroke-width="1.24031" stroke-linecap="round" stroke-linejoin="round"/>
<path d="M8.85596 12.4033L11.6938 15.2411" stroke="#F96073" stroke-width="1.24031" stroke-linecap="round" stroke-linejoin="round"/>
<path d="M48.9722 9.36157V13.3802" stroke="#F96073" stroke-width="1.24031" stroke-linecap="round" stroke-linejoin="round"/>
<path d="M46.9683 11.3713H50.9819" stroke="#F96073" stroke-width="1.24031" stroke-linecap="round" stroke-linejoin="round"/>
<path d="M25.5303 51.855V55.8736" stroke="#F96073" stroke-width="1.24031" stroke-linecap="round" stroke-linejoin="round"/>
<path d="M23.5264 53.8635H27.54" stroke="#F96073" stroke-width="1.24031" stroke-linecap="round" stroke-linejoin="round"/>
<path d="M37.8936 19.1347L52.569 17.0212L54.5113 30.5307L54.7541 32.2194M26.3885 20.7868L10.2744 23.1037L14.1591 50.1276L56.4536 44.0402L55.4825 37.2854L55.2397 35.5967" stroke="#2A3539" stroke-width="1.24031" stroke-linecap="round" stroke-linejoin="round"/>
<path d="M32.1142 41.55L31.7769 39.1983C31.5834 37.8588 28.0361 36.1472 25.3967 36.5292C22.7573 36.9112 19.8352 39.5506 20.0286 40.8901L20.366 43.2417" stroke="#2A3539" stroke-width="1.24031" stroke-linecap="round" stroke-linejoin="round"/>
<path d="M25.3868 36.4695C23.2684 36.7722 21.6064 35.1846 21.2839 32.9669L21.0904 31.6323C20.7729 29.4196 21.9189 27.4202 24.0374 27.1176C26.1558 26.8149 27.8178 28.4025 28.1403 30.6202L28.3338 31.9548C28.6513 34.1675 27.5053 36.1669 25.3868 36.4695Z" stroke="#2A3539" stroke-width="1.24031" stroke-linecap="round" stroke-linejoin="round"/>
<path d="M30.05 23.2577C29.3852 23.352 28.765 22.8956 28.6658 22.2258L27.3362 13.4047C27.2419 12.7548 27.6934 12.1545 28.3433 12.0602L33.0416 11.3855C33.6915 11.2912 34.2918 11.7427 34.3861 12.3926L35.7157 21.1988C35.8149 21.8736 35.3535 22.4987 34.6788 22.5929L30.0549 23.2577H30.05Z" stroke="#2A3539" stroke-width="1.24031" stroke-linecap="round" stroke-linejoin="round"/>
<path d="M37.1343 26.4377L47.7067 24.9146" stroke="#2A3539" stroke-width="1.24031" stroke-linecap="round" stroke-linejoin="round"/>
<path d="M37.7051 30.4164L48.2824 28.8933" stroke="#2A3539" stroke-width="1.24031" stroke-linecap="round" stroke-linejoin="round"/>
<path d="M38.2808 34.3949L48.8532 32.8718" stroke="#2A3539" stroke-width="1.24031" stroke-linecap="round" stroke-linejoin="round"/>
<path d="M38.8516 38.3747L49.424 36.8516" stroke="#2A3539" stroke-width="1.24031" stroke-linecap="round" stroke-linejoin="round"/>
</svg>
