<svg width="64" height="64" viewBox="0 0 64 64" fill="none" xmlns="http://www.w3.org/2000/svg">
<path d="M51.7105 31.8007C50.748 31.632 54.1266 30.6844 54.1266 30.6844L50.8571 30.0246L53.6305 29.6078L56.2401 29.2159L56.4237 28.6453C53.9827 28.3923 50.3065 28.0103 50.2717 28.0103C50.237 28.0103 53.7446 27.3852 56.9545 26.9684L57.0587 26.646C58.041 23.5601 56.1905 20.2956 53.0401 19.5563L20.5241 11.921C17.4878 11.2066 14.4615 13.1315 13.8215 16.1827L12.1496 24.1455C14.9923 24.0512 17.6317 24.9542 18.3065 24.9194C18.366 24.9145 18.4156 24.9095 18.4404 24.9095C18.495 24.9095 18.4404 24.9095 18.3065 24.9194C17.5325 24.9939 14.1638 25.5297 11.7725 25.9167L11.6584 26.4624C12.8491 26.5368 13.5685 26.6162 13.7818 26.6112C20.5688 26.4574 12.3976 27.9706 11.2268 28.5015L8.56257 41.1725C7.87792 44.4221 10.1849 47.5427 13.494 47.8453L44.8243 50.6931C47.419 50.9312 49.8252 49.3287 50.619 46.8481L55.3272 32.0835C53.943 31.9991 52.2562 31.885 51.7154 31.7908L51.7105 31.8007Z" fill="#FFD5DA"/>
<path d="M33.0319 51.9535C44.1262 51.9535 53.12 42.9597 53.12 31.8654C53.12 20.7711 44.1262 11.7773 33.0319 11.7773C21.9376 11.7773 12.9438 20.7711 12.9438 31.8654C12.9438 42.9597 21.9376 51.9535 33.0319 51.9535Z" fill="white"/>
<path d="M15.6727 39.2183L9.00977 51.0359L21.6957 46.7097L15.6727 39.2183Z" fill="white"/>
<path d="M33.0324 49.5423C42.7951 49.5423 50.7093 41.6281 50.7093 31.8654C50.7093 22.1027 42.7951 14.1885 33.0324 14.1885C23.2697 14.1885 15.3555 22.1027 15.3555 31.8654C15.3555 41.6281 23.2697 49.5423 33.0324 49.5423Z" fill="#FF9BA7"/>
<path d="M17.9948 39.5059L13.7231 47.1908L21.6959 44.3232L17.9948 39.5059Z" fill="#FF9BA7"/>
<path d="M43.5057 36.0527C41.9132 34.6387 39.1895 33.6018 37.076 33.6266C36.4459 34.0979 35.1957 35.4375 34.7442 36.0775C33.5485 35.6706 32.2487 34.3658 31.0977 32.9668C29.9467 31.5677 28.9197 30.0396 28.746 28.7894C29.4654 28.4719 31.0183 27.5044 31.6037 26.9785C32.0353 24.9097 31.5442 22.0372 30.4676 20.2015C29.2174 19.9931 26.196 20.0527 24.013 21.0449C23.115 23.7091 22.8174 29.7072 27.8133 36.0229C33.0425 42.1401 39.0704 42.1302 41.8536 41.768C43.2477 39.8182 43.471 37.3227 43.5107 36.0576L43.5057 36.0527Z" fill="white"/>
<path d="M30.7651 5.50098L27.9272 8.33881" stroke="#F96073" stroke-width="1.24444" stroke-linecap="round" stroke-linejoin="round"/>
<path d="M27.9272 5.50098L30.7651 8.33881" stroke="#F96073" stroke-width="1.24444" stroke-linecap="round" stroke-linejoin="round"/>
<path d="M55.2783 42.3135V46.3321" stroke="#F96073" stroke-width="1.24444" stroke-linecap="round" stroke-linejoin="round"/>
<path d="M53.2739 44.3228H57.2876" stroke="#F96073" stroke-width="1.24444" stroke-linecap="round" stroke-linejoin="round"/>
<path d="M16.2778 52.9849V56.9985" stroke="#F96073" stroke-width="1.24444" stroke-linecap="round" stroke-linejoin="round"/>
<path d="M14.2734 54.9893H18.2871" stroke="#F96073" stroke-width="1.24444" stroke-linecap="round" stroke-linejoin="round"/>
<path d="M55.2785 13.4589C56.2074 13.4589 56.9604 12.7059 56.9604 11.7771C56.9604 10.8482 56.2074 10.0952 55.2785 10.0952C54.3497 10.0952 53.5967 10.8482 53.5967 11.7771C53.5967 12.7059 54.3497 13.4589 55.2785 13.4589Z" stroke="#FFDA6A" stroke-width="1.24444" stroke-linecap="round" stroke-linejoin="round"/>
<path d="M7.18381 19.9331C8.11268 19.9331 8.86567 19.1801 8.86567 18.2512C8.86567 17.3223 8.11268 16.5693 7.18381 16.5693C6.25495 16.5693 5.50195 17.3223 5.50195 18.2512C5.50195 19.1801 6.25495 19.9331 7.18381 19.9331Z" stroke="#FFDA6A" stroke-width="1.24444" stroke-linecap="round" stroke-linejoin="round"/>
<path d="M41.0993 57.996C42.0282 57.996 42.7812 57.2431 42.7812 56.3142C42.7812 55.3853 42.0282 54.6323 41.0993 54.6323C40.1705 54.6323 39.4175 55.3853 39.4175 56.3142C39.4175 57.2431 40.1705 57.996 41.0993 57.996Z" stroke="#FFDA6A" stroke-width="1.24444" stroke-linecap="round" stroke-linejoin="round"/>
<path d="M53.011 31.865C53.011 42.9583 44.0163 51.9531 32.9229 51.9531C28.0113 51.9531 23.5164 50.1918 20.0287 47.2696C19.9592 47.2151 19.726 47.1605 19.726 47.1605L9.00977 50.9955L14.8839 40.7407C14.8839 40.7407 14.869 40.6762 14.8541 40.6464C13.5642 37.9921 12.8349 35.0104 12.8349 31.86C12.8349 20.7667 21.8296 11.772 32.9229 11.772C44.0163 11.772 53.011 20.7667 53.011 31.86V31.865Z" stroke="#2A3539" stroke-width="1.24444" stroke-linecap="round" stroke-linejoin="round"/>
<path d="M43.5052 36.0522C41.9127 34.6382 39.189 33.6013 37.0755 33.6261C36.4454 34.0974 35.1952 35.437 34.7437 36.077C33.548 35.6702 32.2482 34.3653 31.0972 32.9663C29.9462 31.5672 28.9192 30.0391 28.7456 28.7889C29.4649 28.4714 31.0178 27.504 31.6032 26.9781C32.0349 24.9092 31.5437 22.0367 30.4671 20.201C29.2169 19.9926 26.1955 20.0522 24.0125 21.0444C23.1145 23.7086 22.8169 29.7067 27.8128 36.0224C33.042 42.1396 39.0699 42.1297 41.8532 41.7675C43.2473 39.8178 43.4705 37.3222 43.5102 36.0571L43.5052 36.0522Z" stroke="#2A3539" stroke-width="1.24444" stroke-linecap="round" stroke-linejoin="round"/>
</svg>
