<svg width="64" height="64" viewBox="0 0 64 64" fill="none" xmlns="http://www.w3.org/2000/svg">
<path d="M51.4429 30.5409C50.4804 30.3722 53.859 29.4246 53.859 29.4246L50.5896 28.7648L53.3629 28.348L55.9725 27.9561L56.1561 27.3856C53.7152 27.1325 50.0389 26.7505 50.0041 26.7505C49.9694 26.7505 53.477 26.1254 56.6869 25.7087L56.7911 25.3862C57.7734 22.3003 55.9229 19.0358 52.7725 18.2966L20.2565 10.6612C17.2203 9.94681 14.1939 11.8718 13.5539 14.9229L11.882 22.8857C14.7248 22.7915 17.3641 23.6944 18.0389 23.6597C18.0984 23.6547 18.148 23.6498 18.1728 23.6498C18.2274 23.6498 18.1728 23.6498 18.0389 23.6597C17.2649 23.7341 13.8962 24.2699 11.5049 24.6569L11.3908 25.2026C12.5815 25.277 13.3009 25.3564 13.5142 25.3515C20.3012 25.1977 12.13 26.7108 10.9592 27.2417L8.295 39.9127C7.61035 43.1623 9.91732 46.2829 13.2265 46.5856L44.5567 49.4333C47.1514 49.6715 49.5576 48.069 50.3514 45.5884L55.0596 30.8237C53.6755 30.7394 51.9886 30.6253 51.4479 30.531L51.4429 30.5409Z" fill="#FFD5DA"/>
<path d="M52.1962 16.9582L9.82715 23.0562L13.7249 50.1383L56.0939 44.0404L52.1962 16.9582Z" fill="white"/>
<path d="M31.5967 22.4948L14.4242 24.9664C13.437 25.1085 12.7519 26.0239 12.894 27.0111L15.5528 45.4849C15.6949 46.4721 16.6103 47.1572 17.5975 47.0152L34.7701 44.5436C35.7572 44.4015 36.4423 43.4861 36.3003 42.4989L33.6414 24.025C33.4994 23.0379 32.5839 22.3528 31.5967 22.4948Z" fill="#FF9BA7"/>
<path d="M33.9424 11.3903L26.9546 12.396L28.4989 23.1257L35.4867 22.12L33.9424 11.3903Z" fill="white"/>
<path d="M34.9716 21.0006L29.8616 21.7349L28.4873 12.1746L33.5726 11.2617L34.9716 21.0006Z" fill="#FF9BA7"/>
<path d="M28.199 32.2029C28.199 35.3484 26.8198 36.6879 24.6269 36.6879C22.4341 36.6879 20.519 35.3732 20.519 32.2277C20.519 29.0823 21.1243 27.0879 24.3442 27.0879C26.537 27.0879 28.199 29.0625 28.199 32.2079V32.2029Z" fill="white"/>
<path d="M28.0949 31.1365C28.4868 33.8602 27.6087 35.165 25.9566 35.4031C24.3045 35.6413 22.6921 34.7135 22.3002 31.9898C21.9082 29.2661 22.1166 27.4751 24.5476 27.1278C26.2047 26.8896 27.7029 28.4177 28.0949 31.1365Z" fill="#FFF3CD"/>
<path d="M20.1031 43.6683L31.9852 41.8922C31.9852 41.8922 32.1738 38.3895 30.7499 37.8785C29.326 37.3675 26.4534 36.3306 25.5455 36.5092C24.6376 36.6878 23.442 36.9656 22.3009 37.8537C21.1598 38.7418 20.1775 39.5802 20.108 40.6072C20.0386 41.6342 20.108 43.6633 20.108 43.6633L20.1031 43.6683Z" fill="white"/>
<path d="M21.4076 43.445L31.7468 42.0311C31.7468 42.0311 31.3053 37.9926 29.8814 37.4767C28.4575 36.9607 26.607 36.5985 25.6991 36.7771C24.7912 36.9557 24.2008 36.4596 23.0597 37.3477C21.9186 38.2357 21.482 39.357 21.4076 40.3839C21.3332 41.4109 21.4076 43.4401 21.4076 43.4401V43.445Z" fill="#FFF3CD"/>
<path d="M47.8318 58.1552C55.4134 58.1552 61.5595 52.0091 61.5595 44.4275C61.5595 36.8458 55.4134 30.6997 47.8318 30.6997C40.2501 30.6997 34.104 36.8458 34.104 44.4275C34.104 52.0091 40.2501 58.1552 47.8318 58.1552Z" fill="white"/>
<path d="M47.8319 56.0965C54.2764 56.0965 59.5008 50.8721 59.5008 44.4276C59.5008 37.9831 54.2764 32.7588 47.8319 32.7588C41.3874 32.7588 36.1631 37.9831 36.1631 44.4276C36.1631 50.8721 41.3874 56.0965 47.8319 56.0965Z" fill="#FFF3CD"/>
<path d="M26.5622 7.39204C27.4911 7.39204 28.2441 6.63905 28.2441 5.71018C28.2441 4.78132 27.4911 4.02832 26.5622 4.02832C25.6334 4.02832 24.8804 4.78132 24.8804 5.71018C24.8804 6.63905 25.6334 7.39204 26.5622 7.39204Z" stroke="#FFDA6A" stroke-width="1.24031" stroke-linecap="round" stroke-linejoin="round"/>
<path d="M4.34104 36.435C5.26991 36.435 6.0229 35.682 6.0229 34.7531C6.0229 33.8243 5.26991 33.0713 4.34104 33.0713C3.41217 33.0713 2.65918 33.8243 2.65918 34.7531C2.65918 35.682 3.41217 36.435 4.34104 36.435Z" stroke="#FFDA6A" stroke-width="1.24031" stroke-linecap="round" stroke-linejoin="round"/>
<path d="M11.3266 12.4028L8.48877 15.2407" stroke="#F96073" stroke-width="1.24031" stroke-linecap="round" stroke-linejoin="round"/>
<path d="M8.48877 12.4028L11.3266 15.2407" stroke="#F96073" stroke-width="1.24031" stroke-linecap="round" stroke-linejoin="round"/>
<path d="M48.6055 9.36182V13.3804" stroke="#F96073" stroke-width="1.24031" stroke-linecap="round" stroke-linejoin="round"/>
<path d="M46.6011 11.3711H50.6147" stroke="#F96073" stroke-width="1.24031" stroke-linecap="round" stroke-linejoin="round"/>
<path d="M25.1636 51.855V55.8736" stroke="#F96073" stroke-width="1.24031" stroke-linecap="round" stroke-linejoin="round"/>
<path d="M23.1592 53.8643H27.1728" stroke="#F96073" stroke-width="1.24031" stroke-linecap="round" stroke-linejoin="round"/>
<path d="M32.9576 47.3694L13.7924 50.1279L9.90771 23.104L26.0218 20.7871" stroke="#2A3539" stroke-width="1.24031" stroke-linecap="round" stroke-linejoin="round"/>
<path d="M37.5269 19.1355L52.2022 17.022L53.9436 29.1472" stroke="#2A3539" stroke-width="1.24031" stroke-linecap="round" stroke-linejoin="round"/>
<path d="M31.747 41.5502L31.4097 39.1986C31.2162 37.859 27.6689 36.1474 25.0295 36.5294C22.3901 36.9114 19.468 39.5508 19.6615 40.8903L19.9988 43.242" stroke="#2A3539" stroke-width="1.24031" stroke-linecap="round" stroke-linejoin="round"/>
<path d="M25.0196 36.47C22.9012 36.7726 21.2392 35.185 20.9167 32.9674L20.7232 31.6328C20.4057 29.4201 21.5517 27.4207 23.6702 27.1181C25.7886 26.8154 27.4506 28.403 27.7731 30.6207L27.9666 31.9553C28.2841 34.168 27.1381 36.1674 25.0196 36.47Z" stroke="#2A3539" stroke-width="1.24031" stroke-linecap="round" stroke-linejoin="round"/>
<path d="M29.6833 23.2582C29.0185 23.3525 28.3983 22.8961 28.2991 22.2263L26.9695 13.4052C26.8752 12.7553 27.3267 12.155 27.9766 12.0607L32.6749 11.386C33.3248 11.2917 33.9251 11.7432 34.0194 12.3931L35.349 21.1993C35.4482 21.874 34.9868 22.4992 34.3121 22.5934L29.6882 23.2582H29.6833Z" stroke="#2A3539" stroke-width="1.24031" stroke-linecap="round" stroke-linejoin="round"/>
<path d="M36.708 25.9274L47.2804 24.4043" stroke="#2A3539" stroke-width="1.24031" stroke-linecap="round" stroke-linejoin="round"/>
<path d="M37.2588 29.321L47.8312 27.7979" stroke="#2A3539" stroke-width="1.24031" stroke-linecap="round" stroke-linejoin="round"/>
<path d="M47.8313 58.1552C55.4129 58.1552 61.559 52.0091 61.559 44.4275C61.559 36.8458 55.4129 30.6997 47.8313 30.6997C40.2496 30.6997 34.1035 36.8458 34.1035 44.4275C34.1035 52.0091 40.2496 58.1552 47.8313 58.1552Z" stroke="#2A3539" stroke-width="1.24031" stroke-linecap="round" stroke-linejoin="round"/>
<path d="M47.4248 47.9322C47.4948 46.6822 48.2348 45.5072 49.4548 44.9372C51.2148 44.1172 51.9798 42.0222 51.1598 40.2572C50.3398 38.4922 48.2448 37.7322 46.4798 38.5522C44.7148 39.3722 43.9548 41.4672 44.7748 43.2322" stroke="#2A3539" stroke-width="1.24444" stroke-linecap="round" stroke-linejoin="round"/>
<path d="M47.4194 49.9819V50.8719" stroke="#2A3539" stroke-width="1.24444" stroke-linecap="round" stroke-linejoin="round"/>
</svg>
