<svg width="64" height="64" viewBox="0 0 64 64" fill="none" xmlns="http://www.w3.org/2000/svg">
<path d="M52.1548 32.6898C51.1923 32.5212 54.5709 31.5736 54.5709 31.5736L51.3015 30.9137L54.0748 30.497L56.6844 30.105L56.868 29.5345C54.4271 29.2815 50.7508 28.8995 50.7161 28.8995C50.6813 28.8995 54.1889 28.2743 57.3988 27.8576L57.503 27.5351C58.4854 24.4492 56.6348 21.1847 53.4844 20.4455L20.9685 12.8102C17.9322 12.0957 14.9058 14.0207 14.2658 17.0719L12.5939 25.0346C15.4367 24.9404 18.0761 25.8433 18.7508 25.8086C18.8103 25.8036 18.8599 25.7987 18.8847 25.7987C18.9393 25.7987 18.8847 25.7987 18.7508 25.8086C17.9768 25.883 14.6082 26.4188 12.2168 26.8058L12.1027 27.3516C13.2934 27.426 14.0128 27.5053 14.2261 27.5004C21.0131 27.3466 12.8419 28.8598 11.6711 29.3906L9.00691 42.0616C8.32226 45.3112 10.6292 48.4319 13.9384 48.7345L45.2686 51.5822C47.8633 51.8204 50.2695 50.2179 51.0633 47.7373L55.7716 32.9726C54.3874 32.8883 52.7006 32.7742 52.1598 32.6799L52.1548 32.6898Z" fill="#FFD5DA"/>
<path d="M53.3334 12.4445L13.7779 9.77783L11.5557 51.5556L51.1112 54.2223L53.3334 12.4445Z" fill="white"/>
<path d="M50.2226 15.1114L16.8892 12.8892L14.667 48.8892L48.4448 51.1114L50.2226 15.1114Z" fill="#FF9BA7"/>
<path d="M27.0471 60.1723C27.976 60.1723 28.729 59.4193 28.729 58.4905C28.729 57.5616 27.976 56.8086 27.0471 56.8086C26.1182 56.8086 25.3652 57.5616 25.3652 58.4905C25.3652 59.4193 26.1182 60.1723 27.0471 60.1723Z" stroke="#FFDA6A" stroke-width="1.24031" stroke-linecap="round" stroke-linejoin="round"/>
<path d="M23.0154 6.03022C23.9442 6.03022 24.6972 5.27723 24.6972 4.34836C24.6972 3.4195 23.9442 2.6665 23.0154 2.6665C22.0865 2.6665 21.3335 3.4195 21.3335 4.34836C21.3335 5.27723 22.0865 6.03022 23.0154 6.03022Z" stroke="#FFDA6A" stroke-width="1.24031" stroke-linecap="round" stroke-linejoin="round"/>
<path d="M45.3335 5.33301L48.1713 8.17084" stroke="#F96073" stroke-width="1.24031" stroke-linecap="round" stroke-linejoin="round"/>
<path d="M48.1713 5.33301L45.3335 8.17084" stroke="#F96073" stroke-width="1.24031" stroke-linecap="round" stroke-linejoin="round"/>
<path d="M5.77344 26.7559L8.61127 29.5937" stroke="#F96073" stroke-width="1.24031" stroke-linecap="round" stroke-linejoin="round"/>
<path d="M8.61127 26.7559L5.77344 29.5937" stroke="#F96073" stroke-width="1.24031" stroke-linecap="round" stroke-linejoin="round"/>
<path d="M56.666 49.106V53.1246" stroke="#F96073" stroke-width="1.24031" stroke-linecap="round" stroke-linejoin="round"/>
<path d="M58.6753 51.1157H54.6567" stroke="#F96073" stroke-width="1.24031" stroke-linecap="round" stroke-linejoin="round"/>
<path d="M36.984 11.2607L23.9304 10.3756L13.8633 9.69141L13.2117 21.5504L13.0108 25.2211L12.1963 40.0177" stroke="#2A3539" stroke-width="1.24444" stroke-linecap="round" stroke-linejoin="round"/>
<path d="M52.7417 23.1574L53.3335 12.3735L40.7632 11.521" stroke="#2A3539" stroke-width="1.24444" stroke-linecap="round" stroke-linejoin="round"/>
<path d="M32.4447 53.093L18.6363 52.1536L11.5557 51.6758L11.9412 44.6494" stroke="#2A3539" stroke-width="1.24444" stroke-linecap="round" stroke-linejoin="round"/>
<path d="M51.4331 46.957L51.0204 54.3581L39.3623 53.5653" stroke="#2A3539" stroke-width="1.24444" stroke-linecap="round" stroke-linejoin="round"/>
<path d="M52.5139 26.3828L51.6343 43.3025" stroke="#2A3539" stroke-width="1.24444" stroke-linecap="round" stroke-linejoin="round"/>
<path d="M36.8754 22.4146L28.9473 21.8887L28.2279 32.7191C29.6022 31.8608 31.0013 31.3101 32.4003 30.7693L32.703 26.1851L36.6075 26.4431V26.453C39.7479 26.6614 42.1244 29.3801 41.916 32.5206C41.7076 35.6611 38.9889 38.0375 35.8484 37.8291L31.9439 37.5712L32.1771 34.0636C32.182 33.9643 32.0927 33.9594 32.0431 33.9891C31.0013 34.6093 29.0168 36.0332 27.9104 37.3628L27.6475 41.3367L35.5755 41.8626C40.9436 42.2198 45.5873 38.1566 45.9445 32.7885C46.3017 27.4205 42.2385 22.7767 36.8704 22.4195" fill="white"/>
<path d="M40.3287 29.4546C40.2543 29.3703 40.1303 29.3058 39.8574 29.3108C35.2881 29.4497 29.1213 31.1613 24.1154 35.7306L24.6562 27.6091L20.7963 27.3511L19.9033 40.7911L23.7632 41.0491C28.3374 34.1132 34.5638 31.2556 40.0906 30.0946C40.3387 30.0301 40.423 29.8912 40.423 29.7573C40.428 29.663 40.3982 29.534 40.3287 29.4596V29.4546Z" fill="#FECB54"/>
<path d="M22.8356 25.8775C24.1107 25.9619 25.217 24.9944 25.3014 23.7194C25.3857 22.4444 24.4183 21.338 23.1432 21.2537C21.8682 21.1693 20.7618 22.1368 20.6775 23.4118C20.5931 24.6868 21.5606 25.7932 22.8356 25.8775Z" fill="#FECB54"/>
<path d="M28.9523 21.8838L28.2329 32.7142C29.8701 31.7567 31.0062 31.3052 32.4053 30.7644" fill="white"/>
</svg>
