<svg width="64" height="64" viewBox="0 0 64 64" fill="none" xmlns="http://www.w3.org/2000/svg">
<path d="M52.0976 32.2755C51.0754 32.0977 54.6754 31.0844 54.6754 31.0844L51.182 30.3821L54.142 29.9377L56.9242 29.5199L57.1198 28.9155C54.5154 28.6488 50.5954 28.2399 50.5509 28.2399C50.5065 28.2399 54.2576 27.5732 57.6887 27.1288L57.7953 26.7821C58.8442 23.4932 56.8709 19.9999 53.502 19.2088L18.8087 11.0666C15.5731 10.3021 12.3376 12.3644 11.6531 15.6177L9.86646 24.1155C12.8976 24.0177 15.7154 24.9777 16.4442 24.9421C16.5065 24.9421 16.5598 24.9332 16.5865 24.9332C16.6398 24.9332 16.5865 24.9332 16.4442 24.9421C15.6176 25.0221 12.0265 25.591 9.47535 26.0088L9.35091 26.5866C10.622 26.6666 11.3865 26.7555 11.6176 26.7466C18.862 26.5866 10.142 28.1955 8.88869 28.7644L6.04424 42.2933C5.31535 45.7599 7.77757 49.0932 11.3065 49.4132L44.7465 52.4532C47.5109 52.7021 50.0887 50.9955 50.9331 48.3466L55.9554 32.5866C54.4798 32.4977 52.6754 32.3732 52.0976 32.2755Z" fill="#FFD5DA"/>
<path d="M47.893 14.6045L12.3641 17.3512C11.413 17.4223 10.7019 18.2578 10.773 19.209L13.0752 49.0045C13.1463 49.9556 13.9819 50.6667 14.933 50.5956L50.4619 47.849C51.413 47.7778 52.1241 46.9423 52.053 45.9912L49.7507 16.1956C49.6796 15.2445 48.8441 14.5334 47.893 14.6045Z" fill="white"/>
<path d="M47.2884 23.876L15.2884 26.6938C14.5595 26.756 14.0262 27.396 14.0884 28.1249L15.7773 47.3071C15.8395 48.036 16.4795 48.5694 17.2084 48.5071L49.2084 45.6894C49.9373 45.6271 50.4707 44.9871 50.4084 44.2583L48.7195 25.076C48.6573 24.3471 48.0173 23.8138 47.2884 23.876Z" fill="#FFF3CD"/>
<path d="M11.3862 19.12L47.4751 16.2044C47.8929 16.1689 48.2662 16.5511 48.3018 17.04L48.7373 22.4533L11.8929 25.4311L11.3862 19.1111V19.12Z" fill="#FF9BA7"/>
<path d="M20.7906 12.916L17.0928 13.1827L17.5906 20.0538L21.2883 19.7871L20.7906 12.916Z" fill="white"/>
<path d="M18.942 13.8405L20.9509 13.6538L21.502 19.716L19.0042 19.9471L18.4976 14.3649C18.4709 14.0983 18.6664 13.8583 18.9331 13.8405H18.942Z" fill="#FFF3CD"/>
<path d="M43.1021 11.4136L39.4043 11.6802L39.9021 18.5514L43.5999 18.2847L43.1021 11.4136Z" fill="white"/>
<path d="M40.942 11.9469L42.9509 11.7603L43.502 17.8225L41.0042 18.0536L40.4976 12.4714C40.4709 12.2047 40.6664 11.9647 40.9331 11.9469H40.942Z" fill="#FFF3CD"/>
<path d="M35.0752 36.7646C35.2085 36.5957 38.0529 33.2801 37.9552 33.2535C37.8574 33.2268 33.2529 32.2935 33.2529 32.2935L35.084 36.7735L35.0752 36.7646Z" fill="#FF9BA7"/>
<path d="M36.8794 39.5113L41.0216 34.7202L54.9327 46.6847L49.8927 51.8935L36.8794 39.5113Z" fill="#FF9BA7"/>
<path d="M53.3597 54.1335C55.5642 52.809 57.7597 49.5201 57.7597 49.5201L54.8442 46.249L49.8931 51.8935L53.3597 54.1335Z" fill="white"/>
<path d="M55.4494 60.4886C56.441 60.4886 57.2449 59.6847 57.2449 58.693C57.2449 57.7014 56.441 56.8975 55.4494 56.8975C54.4577 56.8975 53.6538 57.7014 53.6538 58.693C53.6538 59.6847 54.4577 60.4886 55.4494 60.4886Z" stroke="#FFDA6A" stroke-width="1.24444" stroke-linecap="round" stroke-linejoin="round"/>
<path d="M5.19155 31.262C6.18321 31.262 6.98711 30.4581 6.98711 29.4665C6.98711 28.4748 6.18321 27.6709 5.19155 27.6709C4.19989 27.6709 3.396 28.4748 3.396 29.4665C3.396 30.4581 4.19989 31.262 5.19155 31.262Z" stroke="#FFDA6A" stroke-width="1.24444" stroke-linecap="round" stroke-linejoin="round"/>
<path d="M34.4625 7.65312C35.4542 7.65312 36.2581 6.84923 36.2581 5.85757C36.2581 4.86591 35.4542 4.06201 34.4625 4.06201C33.4709 4.06201 32.667 4.86591 32.667 5.85757C32.667 6.84923 33.4709 7.65312 34.4625 7.65312Z" stroke="#FFDA6A" stroke-width="1.24444" stroke-linecap="round" stroke-linejoin="round"/>
<path d="M12.9691 6.14209L9.93799 9.1732" stroke="#F96073" stroke-width="1.24444" stroke-linecap="round" stroke-linejoin="round"/>
<path d="M9.93799 6.14209L12.9691 9.1732" stroke="#F96073" stroke-width="1.24444" stroke-linecap="round" stroke-linejoin="round"/>
<path d="M19.7336 55.3862L16.7114 58.4173" stroke="#F96073" stroke-width="1.24444" stroke-linecap="round" stroke-linejoin="round"/>
<path d="M16.7114 55.3862L19.7336 58.4173" stroke="#F96073" stroke-width="1.24444" stroke-linecap="round" stroke-linejoin="round"/>
<path d="M59.885 14.0088H55.6006" stroke="#F96073" stroke-width="1.24444" stroke-linecap="round" stroke-linejoin="round"/>
<path d="M57.7427 11.8667V16.1511" stroke="#F96073" stroke-width="1.24444" stroke-linecap="round" stroke-linejoin="round"/>
<path d="M50.4003 22.0264L15.6714 24.9153" stroke="#2A3539" stroke-width="1.24444" stroke-linecap="round" stroke-linejoin="round"/>
<path d="M37.8937 15.2529L23.0137 16.4974" stroke="#2A3539" stroke-width="1.24444" stroke-linecap="round" stroke-linejoin="round"/>
<path d="M51.8848 40.0266L49.9204 16.2133C49.8315 15.1377 48.8893 14.3466 47.8226 14.4355L45.2715 14.6489" stroke="#2A3539" stroke-width="1.24444" stroke-linecap="round" stroke-linejoin="round"/>
<path d="M15.547 17.1196L12.9159 17.3419C11.8404 17.4307 11.0493 18.373 11.1382 19.4396L13.6359 49.493C13.7248 50.5685 14.6671 51.3596 15.7337 51.2707L43.947 48.933" stroke="#2A3539" stroke-width="1.24444" stroke-linecap="round" stroke-linejoin="round"/>
<path d="M20.2762 12.5864L17.725 12.7998C17.3873 12.8264 17.1384 13.1198 17.165 13.4575L17.725 20.222C17.7517 20.5598 18.045 20.8087 18.3828 20.782L20.9339 20.5687C21.2717 20.542 21.5206 20.2487 21.4939 19.9109L20.9339 13.1464C20.9073 12.8087 20.6139 12.5598 20.2762 12.5864Z" stroke="#2A3539" stroke-width="1.24444" stroke-linecap="round" stroke-linejoin="round"/>
<path d="M42.4007 10.7466L39.8496 10.9599C39.5118 10.9866 39.2629 11.2799 39.2896 11.6177L39.8496 18.3821C39.8762 18.7199 40.1696 18.9688 40.5073 18.9421L43.0584 18.7288C43.3962 18.7021 43.6451 18.4088 43.6184 18.071L43.0584 11.3066C43.0318 10.9688 42.7384 10.7199 42.4007 10.7466Z" stroke="#2A3539" stroke-width="1.24444" stroke-linecap="round" stroke-linejoin="round"/>
<path d="M18.3027 35.0666L22.1783 34.7466" stroke="#2A3539" stroke-width="1.24444" stroke-linecap="round" stroke-linejoin="round"/>
<path d="M26.0537 34.4177L29.9293 34.0977" stroke="#2A3539" stroke-width="1.24444" stroke-linecap="round" stroke-linejoin="round"/>
<path d="M25.645 29.4665L29.5206 29.1465" stroke="#2A3539" stroke-width="1.24444" stroke-linecap="round" stroke-linejoin="round"/>
<path d="M33.396 28.8176L37.2716 28.4976" stroke="#2A3539" stroke-width="1.24444" stroke-linecap="round" stroke-linejoin="round"/>
<path d="M41.1558 28.1774L45.0313 27.8574" stroke="#2A3539" stroke-width="1.24444" stroke-linecap="round" stroke-linejoin="round"/>
<path d="M18.7114 40.0265L22.587 39.7065" stroke="#2A3539" stroke-width="1.24444" stroke-linecap="round" stroke-linejoin="round"/>
<path d="M26.4629 39.3776L30.3384 39.0576" stroke="#2A3539" stroke-width="1.24444" stroke-linecap="round" stroke-linejoin="round"/>
<path d="M19.1206 44.9777L22.9962 44.6577" stroke="#2A3539" stroke-width="1.24444" stroke-linecap="round" stroke-linejoin="round"/>
<path d="M26.8804 44.3376L30.7559 44.0176" stroke="#2A3539" stroke-width="1.24444" stroke-linecap="round" stroke-linejoin="round"/>
<path d="M34.5962 43.5998L36.8806 43.4131" stroke="#2A3539" stroke-width="1.24444" stroke-linecap="round" stroke-linejoin="round"/>
<path d="M43.3159 32.9066L45.1826 32.7466" stroke="#2A3539" stroke-width="1.24444" stroke-linecap="round" stroke-linejoin="round"/>
<path d="M55.0761 53.04L57.0139 50.8C57.725 49.9822 57.6361 48.7289 56.8094 48.0178L40.7472 34.1067L33.0405 32L36.2228 39.3244L52.285 53.2356C53.1028 53.9467 54.3561 53.8578 55.0672 53.04H55.0761Z" stroke="#2A3539" stroke-width="1.24444" stroke-linecap="round" stroke-linejoin="round"/>
<path d="M53.5651 48.1865L50.6406 51.5732" stroke="#2A3539" stroke-width="1.24444" stroke-linecap="round" stroke-linejoin="round"/>
<path d="M41.0226 34.7202L36.8804 39.5113" stroke="#2A3539" stroke-width="1.24444" stroke-linecap="round" stroke-linejoin="round"/>
<path d="M37.6715 33.4487L35.1382 36.3643" stroke="#2A3539" stroke-width="1.24444" stroke-linecap="round" stroke-linejoin="round"/>
<path d="M50.205 46.8624L38.9517 37.1113" stroke="#2A3539" stroke-width="1.24444" stroke-linecap="round" stroke-linejoin="round"/>
</svg>
