<svg width="64" height="64" viewBox="0 0 64 64" fill="none" xmlns="http://www.w3.org/2000/svg">
<path d="M52.0178 31.7778C51.0489 31.6001 54.4534 30.6045 54.4534 30.6045L51.1556 29.9112L53.9467 29.4756L56.5778 29.0578L56.7645 28.4623C54.3023 28.1956 50.5956 27.7956 50.56 27.7956C50.5245 27.7956 54.0623 27.1378 57.2978 26.7023L57.4045 26.3645C58.3912 23.1201 56.5334 19.6801 53.3512 18.8978L20.5778 10.8712C17.52 10.1245 14.4712 12.1423 13.8223 15.3601L12.1334 23.7423C14.9956 23.6445 17.6623 24.5956 18.3378 24.5601C18.4 24.5601 18.4445 24.5512 18.4712 24.5512C18.5245 24.5512 18.4712 24.5512 18.3378 24.5601C17.5556 24.6401 14.16 25.2089 11.7512 25.6089L11.6356 26.1867C12.8356 26.2578 13.5645 26.3556 13.7778 26.3467C20.6134 26.1867 12.3823 27.7778 11.2 28.3378L8.5156 41.3601C7.82226 44.7823 10.1512 48.0623 13.4845 48.3823L45.0578 50.6756C47.6712 50.9245 50.0978 50.2667 50.8978 47.6534L55.6445 32.1156C54.2489 32.0267 52.5511 31.9023 52 31.8045L52.0178 31.7778Z" fill="#FFD5DA"/>
<path d="M32.2848 29.8315C29.4314 29.8315 27.1114 27.5204 27.1114 24.6581L26.2314 20.9426L33.6181 17.3604L38.3114 19.9026L37.4581 24.6492C37.4581 27.5026 35.147 29.8226 32.2848 29.8226H32.2937L32.2848 29.8315Z" fill="white"/>
<path d="M46.3203 50.6937L18.2759 49.1381V43.0848C18.2759 37.0937 23.1381 32.2314 29.1292 32.2314H35.467C41.4581 32.2314 46.3203 37.0937 46.3203 43.0848V50.6937Z" fill="#FF9BA7"/>
<path d="M20.5425 46.1512C20.1602 46.1512 19.8491 45.8401 19.8491 45.4578V43.2978C19.8491 39.2267 22.4002 35.4934 26.2047 34.0178C26.5602 33.8756 26.9602 34.0534 27.1025 34.409C27.2447 34.7645 27.058 35.1645 26.7113 35.3067C23.4402 36.5778 21.2447 39.7867 21.2447 43.2978V45.4578C21.2447 45.8401 20.9336 46.1512 20.5513 46.1512H20.5425Z" fill="white"/>
<path d="M29.7961 29.449C29.7961 29.449 27.1028 30.3468 25.4228 30.1601C23.7428 29.9734 21.3872 29.0757 21.3872 29.0757C21.3872 29.0757 24.1072 27.6534 23.7161 23.8579C23.325 20.0623 21.6539 13.5646 25.4228 12.1157C29.1917 10.6668 31.1561 8.92455 34.4539 9.68011C37.7517 10.4357 40.8272 14.1868 40.8272 14.1868L42.0005 19.7423L41.0228 24.3912L41.1561 27.0401L43.1383 29.2801C43.1383 29.2801 37.9739 31.4046 34.7294 29.5023C34.7294 29.5023 36.9339 27.8934 37.1917 26.2846C37.4494 24.6757 38.3028 19.9201 38.3028 19.9201C38.3028 19.9201 33.565 18.9423 33.6094 17.3779C33.6628 15.8134 32.7561 20.2134 28.5072 20.329C24.2583 20.4534 26.2139 20.9512 26.2139 20.9512C26.2139 20.9512 27.1383 28.5601 29.7783 29.449H29.7961Z" fill="#FFF3CD"/>
<path d="M43.147 61.1377C49.7744 61.1377 55.147 55.7651 55.147 49.1377C55.147 42.5103 49.7744 37.1377 43.147 37.1377C36.5196 37.1377 31.147 42.5103 31.147 49.1377C31.147 55.7651 36.5196 61.1377 43.147 61.1377Z" fill="white"/>
<path d="M43.1108 58.8891C48.5109 58.8891 52.8886 54.5114 52.8886 49.1113C52.8886 43.7112 48.5109 39.3335 43.1108 39.3335C37.7107 39.3335 33.333 43.7112 33.333 49.1113C33.333 54.5114 37.7107 58.8891 43.1108 58.8891Z" fill="#FFE69C"/>
<path d="M18.2759 49.1376V42.8532C18.2759 36.9865 23.0314 32.231 28.8981 32.231H35.6981C38.827 32.231 41.6448 33.5821 43.5825 35.7332" stroke="#2A3539" stroke-width="1.24444" stroke-linecap="round" stroke-linejoin="round"/>
<path d="M38.2581 30.0885C40.8181 30.4885 43.147 29.0752 43.147 29.0752C40.8892 28.1419 40.5781 26.053 41.2803 23.1197C42.8448 16.5863 40.1426 9.81299 32.2759 9.81299C24.4092 9.81299 21.707 16.5952 23.2715 23.1197C23.9737 26.0619 23.6626 28.1508 21.4048 29.0752C21.4048 29.0752 23.7337 30.4885 26.2848 30.0885" stroke="#2A3539" stroke-width="1.24444" stroke-linecap="round" stroke-linejoin="round"/>
<path d="M34.169 15.6533C32.8446 19.0044 29.3424 21.2622 25.4224 20.96" stroke="#2A3539" stroke-width="1.24444" stroke-linecap="round" stroke-linejoin="round"/>
<path d="M39.1021 20.3197C36.7288 20.2753 34.6843 18.9775 33.6177 17.0664" stroke="#2A3539" stroke-width="1.24444" stroke-linecap="round" stroke-linejoin="round"/>
<path d="M37.8399 22.7197C37.4755 26.7375 35.1021 29.8308 32.2399 29.8308C29.5732 29.8308 27.3421 27.1553 26.7466 23.5464" stroke="#2A3539" stroke-width="1.24444" stroke-linecap="round" stroke-linejoin="round"/>
<path d="M24.3999 43.0664V50.2931" stroke="#2A3539" stroke-width="1.24444" stroke-linecap="round" stroke-linejoin="round"/>
<path d="M5.58252 18.542V22.5864" stroke="#F96073" stroke-width="1.24444" stroke-linecap="round" stroke-linejoin="round"/>
<path d="M7.60011 20.5601H3.55566" stroke="#F96073" stroke-width="1.24444" stroke-linecap="round" stroke-linejoin="round"/>
<path d="M57.209 40.9688L60.0712 43.831" stroke="#F96073" stroke-width="1.24444" stroke-linecap="round" stroke-linejoin="round"/>
<path d="M57.209 43.831L60.0712 40.9688" stroke="#F96073" stroke-width="1.24444" stroke-linecap="round" stroke-linejoin="round"/>
<path d="M52.9155 11.3154L55.7778 14.1777" stroke="#F96073" stroke-width="1.24444" stroke-linecap="round" stroke-linejoin="round"/>
<path d="M52.9155 14.1777L55.7778 11.3154" stroke="#F96073" stroke-width="1.24444" stroke-linecap="round" stroke-linejoin="round"/>
<path d="M9.36916 53.6885C10.3025 53.6885 11.0669 52.933 11.0669 51.9907C11.0669 51.0485 10.3114 50.293 9.36916 50.293C8.42694 50.293 7.67139 51.0485 7.67139 51.9907C7.67139 52.933 8.42694 53.6885 9.36916 53.6885Z" stroke="#FFDA6A" stroke-width="1.24444" stroke-linecap="round" stroke-linejoin="round"/>
<path d="M27.209 6.06206C28.1423 6.06206 28.9068 5.3065 28.9068 4.36428C28.9068 3.42206 28.1512 2.6665 27.209 2.6665C26.2668 2.6665 25.5112 3.42206 25.5112 4.36428C25.5112 5.3065 26.2668 6.06206 27.209 6.06206Z" stroke="#FFDA6A" stroke-width="1.24444" stroke-linecap="round" stroke-linejoin="round"/>
<path d="M43.147 61.1377C49.7744 61.1377 55.147 55.7651 55.147 49.1377C55.147 42.5103 49.7744 37.1377 43.147 37.1377C36.5196 37.1377 31.147 42.5103 31.147 49.1377C31.147 55.7651 36.5196 61.1377 43.147 61.1377Z" stroke="#2A3539" stroke-width="1.24444" stroke-linecap="round" stroke-linejoin="round"/>
<path d="M38.4833 53.7217H36.2344V55.9706" stroke="#2A3539" stroke-width="1.24444" stroke-linecap="round" stroke-linejoin="round"/>
<path d="M35.4078 51.3219C34.6522 48.673 35.3456 45.713 37.4344 43.6241C40.5011 40.5575 45.4967 40.5753 48.5633 43.6419L49.5767 44.6553" stroke="#2A3539" stroke-width="1.24444" stroke-linecap="round" stroke-linejoin="round"/>
<path d="M50.5634 47.1353C51.3101 49.7753 50.6167 52.7264 48.5368 54.8153C45.4701 57.8819 40.4745 57.8641 37.4079 54.7975L36.3945 53.7841" stroke="#2A3539" stroke-width="1.24444" stroke-linecap="round" stroke-linejoin="round"/>
<path d="M47.4883 44.7176H49.7372V42.4688" stroke="#2A3539" stroke-width="1.24444" stroke-linecap="round" stroke-linejoin="round"/>
</svg>
