<svg width="64" height="64" viewBox="0 0 64 64" fill="none" xmlns="http://www.w3.org/2000/svg">
<path d="M52.0967 33.0131C51.1342 32.8444 54.5128 31.8968 54.5128 31.8968L51.2434 31.237L54.0167 30.8202L56.6263 30.4283L56.8099 29.8577C54.369 29.6047 50.6927 29.2227 50.658 29.2227C50.6232 29.2227 54.1308 28.5976 57.3407 28.1808L57.4449 27.8584C58.4273 24.7725 56.5767 21.508 53.4263 20.7687L20.9104 13.1334C17.8741 12.419 14.8477 14.3439 14.2077 17.3951L12.5358 25.3579C15.3786 25.2636 18.018 26.1666 18.6927 26.1318C18.7522 26.1269 18.8018 26.1219 18.8266 26.1219C18.8812 26.1219 18.8266 26.1219 18.6927 26.1318C17.9187 26.2063 14.55 26.7421 12.1587 27.1291L12.0446 27.6748C13.2353 27.7492 13.9547 27.8286 14.168 27.8236C20.955 27.6698 12.7838 29.183 11.613 29.7139L8.9488 42.3849C8.26415 45.6345 10.5711 48.7551 13.8803 49.0577L45.2105 51.9055C47.8052 52.1436 50.2114 50.5412 51.0052 48.0605L55.7135 33.2959C54.3293 33.2115 52.6424 33.0974 52.1017 33.0032L52.0967 33.0131Z" fill="#FFD5DA"/>
<path d="M14.5406 40.6789V29.3027V31.9818C14.5406 28.6528 17.2395 23.2798 20.5636 23.2798H24.4482C27.7772 23.2798 30.4711 28.6528 30.4711 31.9818V40.6789C30.4711 40.6789 24.4333 41.2692 22.4091 41.2692C17.6711 41.2692 14.5356 40.6789 14.5356 40.6789H14.5406Z" fill="white"/>
<path d="M16.0787 40.6789V29.3027V31.9818C16.0787 28.6528 17.4133 23.2798 22.1016 23.2798C28.7844 23.2798 30.4712 28.6528 30.4712 31.9818V40.6789C30.4712 40.6789 25.9714 41.2692 23.9472 41.2692C19.2092 41.2692 16.0737 40.6789 16.0737 40.6789H16.0787Z" fill="#FF9BA7"/>
<path d="M8.80029 53.8212V50.0755C8.80029 45.0002 12.9181 42.6783 17.9935 42.6783C17.9935 42.6783 19.6753 44.3998 21.64 44.4445C23.6046 44.4891 26.8294 42.9958 26.9435 42.4848C27.0577 41.9738 38.1808 43.7003 36.0524 53.8212" fill="white"/>
<path d="M30.6098 46.6076L30.3022 40.798C30.3022 38.367 28.9329 38.2231 30.4709 36.5759C32.1478 34.7849 34.5342 33.6687 37.1785 33.6687C37.1785 33.6687 38.8604 35.3902 40.825 35.4349C42.7897 35.4795 46.0145 33.9862 46.1286 33.4752C46.2427 32.9642 55.4508 36.4866 53.3224 46.6076H30.6098Z" fill="white"/>
<path d="M29.4839 46.6078V42.8621C29.4839 38.4763 32.5499 34.81 36.6578 33.8922C37.3078 33.7483 40.3589 35.3905 42.3236 35.4351C44.2882 35.4798 44.9778 33.9864 45.0919 33.4754C45.2061 32.9644 55.203 34.3089 53.6799 46.6078" fill="#FF9BA7"/>
<path d="M10.373 54.5112V50.7655C10.373 45.6902 13.8509 44.0033 18.9262 44.0033C18.9262 44.0033 19.8242 45.1395 21.7889 45.1891C23.7535 45.2387 26.1944 44.0281 26.3036 43.5171C26.4127 43.0061 37.8881 42.7829 36.0475 54.5112H10.373Z" fill="#FF9BA7"/>
<path d="M32.7334 33.8523V20.0303V22.7093C32.7334 19.3803 35.3877 14.95 38.5529 13.9329C40.2745 13.3822 42.641 14.0073 42.641 14.0073C47.3393 15.3717 48.6639 19.3803 48.6639 22.7093V33.8523" fill="#FFE69C"/>
<path d="M41.6834 19.2266C41.6834 19.2266 39.307 22.4365 35.3926 23.389C34.4847 23.6123 34.827 25.8895 35.849 27.5515C36.6825 28.901 38.1709 29.7196 38.1709 29.7196C38.1709 29.7196 36.2955 33.6092 36.1864 33.51C36.0772 33.4107 38.8952 35.0132 39.2425 35.1025C39.5898 35.1918 42.2093 35.048 42.2093 35.048L45.1365 33.6142L43.5439 31.6892L43.2512 29.6055L44.7743 28.2759L46.094 25.6762V22.109L43.405 21.6427L41.6834 19.2365V19.2266Z" fill="white"/>
<path d="M41.8023 19.023C41.8023 19.023 41.1077 21.8063 37.1983 22.7588C36.2903 22.9821 36.6327 25.2593 37.6547 26.9213C38.4882 28.2708 39.8029 28.6131 39.8029 28.6131C39.8029 28.6131 37.9921 34.4674 37.8779 34.3681C37.7638 34.2689 40.8348 35.2165 41.1772 35.3009C41.5195 35.3852 44.0051 34.4078 44.0051 34.4078L45.1313 33.2072L43.246 29.5954L44.7691 28.2658L45.5579 26.9461L45.9648 25.3089L46.0888 22.094L43.9108 21.7368L41.7973 19.0181L41.8023 19.023Z" fill="#FFF3CD"/>
<path d="M19.7206 41.2842C19.7206 41.2842 18.634 43.4225 17.9692 43.5961C17.9692 43.5961 20.0877 45.9775 23.5705 45.1738C27.0533 44.3701 26.9689 43.1893 26.9689 43.1893C26.9689 43.1893 25.1482 41.6464 25.3913 41.3735L19.7206 41.2891V41.2842Z" fill="white"/>
<path d="M20.3601 41.6216C20.3601 41.6216 20.3601 43.4672 19.2885 43.8393C18.2168 44.2114 21.6897 45.5906 23.7784 45.0597C26.1846 44.4495 26.7154 43.7351 26.7154 43.7351L25.4354 41.696L20.3651 41.6265L20.3601 41.6216Z" fill="#FFF3CD"/>
<path d="M26.7103 43.7351L25.2913 41.691L20.3599 41.6216" fill="#FFF3CD"/>
<path d="M34.3215 19.2267H32.4659L33.2796 23.2602L28.0653 19.2267H19.7304C18.3512 19.2267 17.23 18.1054 17.23 16.7262V9.61179C17.23 8.23257 18.3512 7.11133 19.7304 7.11133H34.1528C35.3435 7.11133 36.3109 8.07877 36.3109 9.26947V16.3045C36.3109 17.5002 35.5171 19.2267 34.3264 19.2267H34.3215Z" fill="white"/>
<path d="M54.8108 52.4418C55.7396 52.4418 56.4926 51.6889 56.4926 50.76C56.4926 49.8311 55.7396 49.0781 54.8108 49.0781C53.8819 49.0781 53.1289 49.8311 53.1289 50.76C53.1289 51.6889 53.8819 52.4418 54.8108 52.4418Z" stroke="#FFDA6A" stroke-width="1.24031" stroke-linecap="round" stroke-linejoin="round"/>
<path d="M6.1262 34.4077C7.05506 34.4077 7.80806 33.6547 7.80806 32.7258C7.80806 31.7969 7.05506 31.0439 6.1262 31.0439C5.19733 31.0439 4.44434 31.7969 4.44434 32.7258C4.44434 33.6547 5.19733 34.4077 6.1262 34.4077Z" stroke="#FFDA6A" stroke-width="1.24031" stroke-linecap="round" stroke-linejoin="round"/>
<path d="M46.8181 10.4746C47.747 10.4746 48.5 9.72157 48.5 8.7927C48.5 7.86383 47.747 7.11084 46.8181 7.11084C45.8892 7.11084 45.1362 7.86383 45.1362 8.7927C45.1362 9.72157 45.8892 10.4746 46.8181 10.4746Z" stroke="#FFDA6A" stroke-width="1.24031" stroke-linecap="round" stroke-linejoin="round"/>
<path d="M13.2109 10.8218L10.373 13.6646" stroke="#F96073" stroke-width="1.24031" stroke-linecap="round" stroke-linejoin="round"/>
<path d="M10.373 10.8218L13.2109 13.6646" stroke="#F96073" stroke-width="1.24031" stroke-linecap="round" stroke-linejoin="round"/>
<path d="M43.4545 55.3887L40.6167 58.2265" stroke="#F96073" stroke-width="1.24031" stroke-linecap="round" stroke-linejoin="round"/>
<path d="M40.6167 55.3887L43.4545 58.2265" stroke="#F96073" stroke-width="1.24031" stroke-linecap="round" stroke-linejoin="round"/>
<path d="M58.8242 17.8672H54.8105" stroke="#F96073" stroke-width="1.24031" stroke-linecap="round" stroke-linejoin="round"/>
<path d="M56.8149 15.8574V19.8711" stroke="#F96073" stroke-width="1.24031" stroke-linecap="round" stroke-linejoin="round"/>
<path d="M8.69118 54.337V50.2241C8.69118 50.2241 8.33397 44.5038 17.8844 43.4619C17.8844 43.4619 19.7597 45.2876 22.4289 45.3373C25.098 45.2876 26.9734 43.4619 26.9734 43.4619C35.3579 44.5534 36.0524 50.3977 36.0524 50.3977V54.069" stroke="#2A3539" stroke-width="1.24031" stroke-linecap="round" stroke-linejoin="round"/>
<path d="M14.54 40.679V30.816C14.54 26.465 18.0675 22.9326 22.4234 22.9326C26.7745 22.9326 30.3069 26.4601 30.3069 30.816V40.679L28.9574 40.8824C24.6213 41.5373 20.2058 41.5373 15.8697 40.8824L14.54 40.679Z" stroke="#2A3539" stroke-width="1.24031" stroke-linecap="round" stroke-linejoin="round"/>
<path d="M31.7861 34.6609C32.9868 34.1053 34.4354 33.6885 36.1818 33.5C36.1818 33.5 38.0571 35.3257 40.7263 35.3753C43.3954 35.3257 45.2708 33.5 45.2708 33.5C53.6503 35.1273 53.6503 43.0157 53.6503 43.0157L53.685 46.5431" stroke="#2A3539" stroke-width="1.24031" stroke-linecap="round" stroke-linejoin="round"/>
<path d="M37.8779 14.1508C38.7313 13.8332 39.6541 13.6646 40.6165 13.6646C44.9675 13.6646 48.4999 17.192 48.4999 21.548V32.7752" stroke="#2A3539" stroke-width="1.24031" stroke-linecap="round" stroke-linejoin="round"/>
<path d="M32.7329 32.7707V25.0957" stroke="#2A3539" stroke-width="1.24031" stroke-linecap="round" stroke-linejoin="round"/>
<path d="M42.6212 16.939C41.4206 21.8159 36.7967 23.0314 35.1396 23.4531V24.3957C35.1396 27.685 37.5905 30.3492 40.6169 30.3492C43.6432 30.3492 46.0941 27.685 46.0941 24.3957V22.0987C46.0941 22.0987 43.5638 22.8081 42.5865 19.9504" stroke="#2A3539" stroke-width="1.24031" stroke-linecap="round" stroke-linejoin="round"/>
<path d="M36.0723 33.4054C36.0723 33.4054 37.5706 32.9092 37.9575 29.6001" stroke="#2A3539" stroke-width="1.24031" stroke-linecap="round" stroke-linejoin="round"/>
<path d="M45.1314 33.4054C45.1314 33.4054 43.6331 32.9092 43.2461 29.6001" stroke="#2A3539" stroke-width="1.24031" stroke-linecap="round" stroke-linejoin="round"/>
<path d="M19.4472 41.269C19.4472 41.269 19.4472 42.8616 18.1523 43.4024" stroke="#2A3539" stroke-width="1.24031" stroke-linecap="round" stroke-linejoin="round"/>
<path d="M25.4006 41.269C25.4006 41.269 25.2617 42.5441 26.7103 43.5016" stroke="#2A3539" stroke-width="1.24031" stroke-linecap="round" stroke-linejoin="round"/>
<path d="M17.6011 40.9566V37.2803" stroke="#2A3539" stroke-width="1.24031" stroke-linecap="round" stroke-linejoin="round"/>
<path d="M26.9688 40.9564V37.7515" stroke="#2A3539" stroke-width="1.24031" stroke-linecap="round" stroke-linejoin="round"/>
<path d="M20.5781 40.9568V38.1934" stroke="#2A3539" stroke-width="1.24031" stroke-linecap="round" stroke-linejoin="round"/>
<path d="M23.7783 40.9568V38.1934" stroke="#2A3539" stroke-width="1.24031" stroke-linecap="round" stroke-linejoin="round"/>
<path d="M33.9137 19.2263H32.3112L33.2786 23.2598L28.0644 19.2263H19.6203C18.3006 19.2263 17.229 18.1547 17.229 16.835V7.72454C17.229 6.40485 18.3006 5.33322 19.6203 5.33322L33.9186 5.29395C35.2383 5.29395 36.3099 6.36558 36.3099 8.44434V16.4443C36.3099 17.9029 35.2383 19.2263 33.9186 19.2263H33.9137Z" stroke="#2A3539" stroke-width="1.24031" stroke-linecap="round" stroke-linejoin="round"/>
<path d="M20.4443 8.88867H32.8888" stroke="#2A3539" stroke-width="1.24031" stroke-linecap="round" stroke-linejoin="round"/>
<path d="M20.4443 16.0313L27.6876 16.0312" stroke="#2A3539" stroke-width="1.24031" stroke-linecap="round" stroke-linejoin="round"/>
<path d="M20.4443 12.4443H32.8888" stroke="#2A3539" stroke-width="1.24031" stroke-linecap="round" stroke-linejoin="round"/>
</svg>
