<svg width="64" height="64" viewBox="0 0 64 64" fill="none" xmlns="http://www.w3.org/2000/svg">
<path d="M51.2661 32.6898C50.3037 32.5212 53.6823 31.5736 53.6823 31.5736L50.4128 30.9137L53.1861 30.497L55.7958 30.105L55.9793 29.5345C53.5384 29.2815 49.8621 28.8995 49.8274 28.8995C49.7927 28.8995 53.3003 28.2743 56.5102 27.8576L56.6144 27.5351C57.5967 24.4492 55.7461 21.1847 52.5958 20.4455L20.0798 12.8102C17.0435 12.0957 14.0172 14.0207 13.3772 17.0719L11.7052 25.0346C14.548 24.9404 17.1874 25.8433 17.8621 25.8086C17.9217 25.8036 17.9713 25.7987 17.9961 25.7987C18.0506 25.7987 17.9961 25.7987 17.8621 25.8086C17.0882 25.883 13.7195 26.4188 11.3282 26.8058L11.2141 27.3516C12.4047 27.426 13.1241 27.5053 13.3375 27.5004C20.1244 27.3466 11.9533 28.8598 10.7824 29.3906L8.11824 42.0616C7.43359 45.3112 9.74056 48.4319 13.0497 48.7345L44.3799 51.5822C46.9747 51.8204 49.3809 50.2179 50.1747 47.7373L54.8829 32.9726C53.4987 32.8883 51.8119 32.7742 51.2711 32.6799L51.2661 32.6898Z" fill="#FFD5DA"/>
<path d="M8.77783 12.9587L45.5307 11.6191L49.6088 12.666L49.6535 43.1974L33.46 44.7553L33.465 47.9205L37.687 47.5832L42.9112 51.6415L22.6594 53.7946L18.2191 49.3543L26.167 48.5804V45.3903L11.7744 46.4967L8.77783 43.9515V12.9587Z" fill="white"/>
<path d="M15.0635 18.6047V40.7417L46.3391 38.4645V16.7393L15.0635 18.6047Z" fill="#FF9BA7"/>
<path d="M35.9107 18.5005L24.8024 18.9668C23.7358 20.7132 22.813 23.8834 22.813 25.5256V36.6686L35.861 35.7904L38.7435 36.3262V25.5256C38.7435 23.3724 37.6124 20.356 35.9107 18.5005Z" fill="#FFE69C"/>
<path d="M58.5291 16.3224C58.6978 21.9435 53.8259 26.8352 47.6541 27.2569C41.4823 27.6786 36.3375 23.4616 36.1688 17.8455C36.0001 12.2244 40.8721 7.33261 47.0438 6.9109C53.2206 6.48919 58.3604 10.7062 58.5291 16.3224Z" fill="#FF9BA7"/>
<path d="M40.5645 13.4746L50.74 12.8247L50.7945 20.6139L40.9365 21.3382L40.5645 13.4746Z" fill="white"/>
<path d="M48.9194 15.5235C49.0385 15.5235 54.1039 12.5864 54.1039 12.5864L54.2925 20.0829L49.9018 18.7681L48.9194 15.5235Z" fill="white"/>
<path d="M31.7582 22.0376C31.7582 22.0376 29.3817 25.2475 25.4673 26.2001C24.5594 26.4233 24.9017 28.7005 25.9237 30.3626C26.7572 31.712 28.2456 32.5306 28.2456 32.5306C28.2456 32.5306 26.3702 36.4202 26.2611 36.321C26.152 36.2218 28.9699 37.8243 29.3172 37.9136C29.6645 38.0029 32.284 37.859 32.284 37.859L35.2112 36.4252L33.6186 34.5002L33.3259 32.4165L34.849 31.0869L36.1687 28.4872V24.9201L33.4797 24.4537L31.7582 22.0475V22.0376Z" fill="white"/>
<path d="M31.8824 21.8341C31.8824 21.8341 31.1878 24.6173 27.2783 25.5699C26.3704 25.7931 26.7128 28.0703 27.7348 29.7324C28.5683 31.0818 29.883 31.4241 29.883 31.4241C29.883 31.4241 28.0721 37.2784 27.958 37.1792C27.8439 37.08 30.9149 38.0276 31.2572 38.1119C31.5996 38.1962 34.0852 37.2189 34.0852 37.2189L35.2114 36.0182L33.3261 32.4065L34.8492 31.0769L35.638 29.7572L36.0448 28.12L36.1689 24.9051L33.9909 24.5479L31.8774 21.8291L31.8824 21.8341Z" fill="#FFF3CD"/>
<path d="M39.6809 60.2753C40.6097 60.2753 41.3627 59.5223 41.3627 58.5935C41.3627 57.6646 40.6097 56.9116 39.6809 56.9116C38.752 56.9116 37.999 57.6646 37.999 58.5935C37.999 59.5223 38.752 60.2753 39.6809 60.2753Z" stroke="#FFDA6A" stroke-width="1.24031" stroke-linecap="round" stroke-linejoin="round"/>
<path d="M26.7488 6.03022C27.6776 6.03022 28.4306 5.27723 28.4306 4.34836C28.4306 3.4195 27.6776 2.6665 26.7488 2.6665C25.8199 2.6665 25.0669 3.4195 25.0669 4.34836C25.0669 5.27723 25.8199 6.03022 26.7488 6.03022Z" stroke="#FFDA6A" stroke-width="1.24031" stroke-linecap="round" stroke-linejoin="round"/>
<path d="M10.56 6.22217L7.72217 9.06" stroke="#F96073" stroke-width="1.24031" stroke-linecap="round" stroke-linejoin="round"/>
<path d="M7.72217 6.22217L10.56 9.06" stroke="#F96073" stroke-width="1.24031" stroke-linecap="round" stroke-linejoin="round"/>
<path d="M57.2553 47.5732L54.4175 50.416" stroke="#F96073" stroke-width="1.24031" stroke-linecap="round" stroke-linejoin="round"/>
<path d="M54.4175 47.5732L57.2553 50.416" stroke="#F96073" stroke-width="1.24031" stroke-linecap="round" stroke-linejoin="round"/>
<path d="M10.2778 51.5552V55.5688" stroke="#F96073" stroke-width="1.24031" stroke-linecap="round" stroke-linejoin="round"/>
<path d="M8.27344 53.5596H12.2871" stroke="#F96073" stroke-width="1.24031" stroke-linecap="round" stroke-linejoin="round"/>
<path d="M49.635 28.3086L49.6549 43.1973L11.7758 46.4965L11.751 37.1346" stroke="#2A3539" stroke-width="1.24031" stroke-linecap="round" stroke-linejoin="round"/>
<path d="M11.7408 33.5379V24.3596L11.7358 19.7556V15.355L34.6468 14.1196" stroke="#2A3539" stroke-width="1.24031" stroke-linecap="round" stroke-linejoin="round"/>
<path d="M46.3405 29.0081V38.4642L15.2583 41.1185V26.7706V19.2692L33.9919 18.1777" stroke="#2A3539" stroke-width="1.24031" stroke-linecap="round" stroke-linejoin="round"/>
<path d="M26.1729 49.7709L26.168 45.3901" stroke="#2A3539" stroke-width="1.24031" stroke-linecap="round" stroke-linejoin="round"/>
<path d="M33.4609 44.7554L33.4659 48.9972" stroke="#2A3539" stroke-width="1.24031" stroke-linecap="round" stroke-linejoin="round"/>
<path d="M11.314 15.2458L8.77881 13.3159L35.7084 11.9912" stroke="#2A3539" stroke-width="1.24031" stroke-linecap="round" stroke-linejoin="round"/>
<path d="M8.77881 13.3159L8.95245 44.1699L11.7754 46.4967" stroke="#2A3539" stroke-width="1.24031" stroke-linecap="round" stroke-linejoin="round"/>
<path d="M26.0143 48.7641L18.2202 49.5182L22.4869 53.7203L43.3687 51.592L38.2091 47.7817L33.6695 48.1687" stroke="#2A3539" stroke-width="1.24031" stroke-linecap="round" stroke-linejoin="round"/>
<path d="M50.9792 20.9514L40.5903 21.5814L40.3423 13.2912L50.7311 12.6611L50.7956 14.7498L50.9792 20.9514Z" stroke="#2A3539" stroke-width="1.24031" stroke-linecap="round" stroke-linejoin="round"/>
<path d="M50.9199 18.7435L54.2936 20.083L54.0753 12.8247L50.7959 14.7497" stroke="#2A3539" stroke-width="1.24031" stroke-linecap="round" stroke-linejoin="round"/>
<path d="M58.2327 16.2281C58.4014 21.8492 53.5295 26.741 47.3577 27.1627C41.1809 27.5844 36.0411 23.3674 35.8724 17.7512C35.7037 12.1301 40.5757 7.23837 46.7475 6.81666C52.9242 6.39496 58.064 10.612 58.2327 16.2281Z" stroke="#2A3539" stroke-width="1.24031" stroke-linecap="round" stroke-linejoin="round"/>
<path d="M20.1802 40.3349C21.0186 38.1222 24.5113 36.4999 26.2577 36.3114C26.2577 36.3114 28.133 38.1371 30.8022 38.1867C33.4713 38.1371 34.7563 35.8698 34.7563 35.8698C35.9073 35.6367 40.1095 35.721 41.2406 38.6928" stroke="#2A3539" stroke-width="1.24031" stroke-linecap="round" stroke-linejoin="round"/>
<path d="M38.5762 24.3594V35.16" stroke="#2A3539" stroke-width="1.24031" stroke-linecap="round" stroke-linejoin="round"/>
<path d="M22.8145 35.5818V24.3546C22.8145 22.2163 23.6678 20.2715 25.052 18.8525" stroke="#2A3539" stroke-width="1.24031" stroke-linecap="round" stroke-linejoin="round"/>
<path d="M32.6969 19.7554C31.4963 24.6323 26.8724 25.8478 25.2153 26.2695V27.2121C25.2153 30.5014 27.6662 33.1656 30.6925 33.1656C33.7189 33.1656 36.1698 30.5014 36.1698 27.2121V24.9151C36.1698 24.9151 33.6395 25.6245 32.6622 22.7668" stroke="#2A3539" stroke-width="1.24031" stroke-linecap="round" stroke-linejoin="round"/>
<path d="M26.1533 36.2169C26.1533 36.2169 27.6516 35.7208 28.0386 32.4116" stroke="#2A3539" stroke-width="1.24031" stroke-linecap="round" stroke-linejoin="round"/>
<path d="M34.6766 35.8498C34.2053 35.3933 33.5653 34.4209 33.3271 32.4116" stroke="#2A3539" stroke-width="1.24031" stroke-linecap="round" stroke-linejoin="round"/>
</svg>
