<svg width="64" height="64" viewBox="0 0 64 64" fill="none" xmlns="http://www.w3.org/2000/svg">
<path opacity="0.5" d="M51.7573 33.0765C50.7876 32.9014 54.192 31.9067 54.192 31.9067L50.8969 31.2116L53.6916 30.7716L56.3218 30.3565L56.5067 29.7565C54.0462 29.4916 50.3413 29.0916 50.3067 29.0916C50.272 29.0916 53.8071 28.4311 57.0418 27.9965L57.1467 27.6569C58.1369 24.4116 56.272 20.9716 53.0969 20.192L20.3218 12.1609C17.2622 11.4107 14.2116 13.4356 13.5671 16.6463L11.8818 25.0258C14.7467 24.9263 17.4071 25.8756 18.0871 25.8409C18.1476 25.8356 18.1973 25.8311 18.2222 25.8311C18.2773 25.8311 18.2222 25.8311 18.0871 25.8409C17.3076 25.9209 13.912 26.4863 11.5022 26.8907L11.3876 27.4658C12.5876 27.5405 13.3129 27.6311 13.528 27.6258C20.368 27.4658 12.1333 29.056 10.9529 29.616L8.26757 42.6356C7.57779 46.0551 9.90224 49.3405 13.2373 49.656L44.8125 51.9458C47.4276 52.1956 49.8525 51.536 50.6525 48.9263L55.3973 33.3858C54.0027 33.296 52.3022 33.1769 51.7573 33.0765Z" fill="#E4C1FF"/>
<path d="M42.6854 50.9946H21.2134V46.4142C21.2134 44.0462 21.4436 41.3698 22.9805 39.568L29.9974 32.4506L25.4329 28.6924C22.7609 26.4924 21.2134 23.2133 21.2134 19.7529V15.8586H42.6854V19.6818C42.6854 22.7875 41.3654 25.7466 39.0552 27.8213L33.9014 32.4498L36.2898 35.0764C40.3289 37.4409 42.9085 40.6604 42.808 45.3395L42.6854 50.9946Z" fill="white"/>
<path d="M18.1216 11.3894H45.7376V14.3343C45.7376 15.4143 44.8602 16.2916 43.7802 16.2916H20.0789C18.9989 16.2916 18.1216 15.4143 18.1216 14.3343V11.3894Z" fill="#CD8EFF"/>
<path d="M45.9014 55.8889H18.2854V52.944C18.2854 51.864 19.1627 50.9867 20.2427 50.9867H43.944C45.024 50.9867 45.9014 51.864 45.9014 52.944V55.8889Z" fill="#CD8EFF"/>
<path d="M25.1445 51.1511V48.3031L31.6619 44.1138L38.6992 48.1662V51.1787L25.1445 51.1511Z" fill="#FFF3CD"/>
<path d="M29.997 32.4508L22.6245 24.041L41.8485 23.9592L33.5507 32.1743L29.997 32.4508Z" fill="#FFF3CD"/>
<path d="M54.2793 10.0579V14.201" stroke="#B85EFF" stroke-width="1.24444" stroke-linecap="round" stroke-linejoin="round"/>
<path d="M52.207 12.1299H56.3501" stroke="#B85EFF" stroke-width="1.24444" stroke-linecap="round" stroke-linejoin="round"/>
<path d="M55.7413 48.9912L52.8115 51.921" stroke="#B85EFF" stroke-width="1.24444" stroke-linecap="round" stroke-linejoin="round"/>
<path d="M52.8115 48.9912L55.7413 51.921" stroke="#B85EFF" stroke-width="1.24444" stroke-linecap="round" stroke-linejoin="round"/>
<path d="M5.36279 29.481L8.29257 32.4107" stroke="#B85EFF" stroke-width="1.24444" stroke-linecap="round" stroke-linejoin="round"/>
<path d="M5.36279 32.4107L8.29257 29.481" stroke="#B85EFF" stroke-width="1.24444" stroke-linecap="round" stroke-linejoin="round"/>
<path d="M10.8854 56.783C11.8442 56.783 12.6214 56.0058 12.6214 55.047C12.6214 54.0883 11.8442 53.311 10.8854 53.311C9.92665 53.311 9.14941 54.0883 9.14941 55.047C9.14941 56.0058 9.92665 56.783 10.8854 56.783Z" stroke="#FFDA6A" stroke-width="1.24444" stroke-linecap="round" stroke-linejoin="round"/>
<path d="M58.7541 36.847C59.7128 36.847 60.4901 36.0698 60.4901 35.111C60.4901 34.1522 59.7128 33.375 58.7541 33.375C57.7953 33.375 57.0181 34.1522 57.0181 35.111C57.0181 36.0698 57.7953 36.847 58.7541 36.847Z" stroke="#FFDA6A" stroke-width="1.24444" stroke-linecap="round" stroke-linejoin="round"/>
<path d="M10.1955 10.4276C11.1542 10.4276 11.9315 9.65033 11.9315 8.69157C11.9315 7.7328 11.1542 6.95557 10.1955 6.95557C9.23671 6.95557 8.45947 7.7328 8.45947 8.69157C8.45947 9.65033 9.23671 10.4276 10.1955 10.4276Z" stroke="#FFDA6A" stroke-width="1.24444" stroke-linecap="round" stroke-linejoin="round"/>
<path d="M42.6839 50.9946V44.8729C42.6839 42.5431 41.7586 40.3093 40.1115 38.6622L33.8999 32.4506L40.1115 26.2391C41.7586 24.592 42.6839 22.3573 42.6839 20.0284V15.8586" stroke="#2A3539" stroke-width="1.24444" stroke-linecap="round" stroke-linejoin="round"/>
<path d="M21.2119 15.8586V20.0284C21.2119 22.3582 22.1372 24.592 23.7844 26.2391L29.9959 32.4506L23.7844 38.6622C22.1372 40.3093 21.2119 42.544 21.2119 44.8729V50.9946" stroke="#2A3539" stroke-width="1.24444" stroke-linecap="round" stroke-linejoin="round"/>
<path d="M45.6117 10.9788H18.2837V13.9068C18.2837 14.985 19.1575 15.8588 20.2357 15.8588H43.6597C44.7379 15.8588 45.6117 14.985 45.6117 13.9068V10.9788Z" stroke="#2A3539" stroke-width="1.24444" stroke-linecap="round" stroke-linejoin="round"/>
<path d="M43.6597 50.9949H20.2357C19.1575 50.9949 18.2837 51.8687 18.2837 52.9469V55.8749H45.6117V52.9469C45.6117 51.8687 44.7379 50.9949 43.6597 50.9949Z" stroke="#2A3539" stroke-width="1.24444" stroke-linecap="round" stroke-linejoin="round"/>
<path d="M38.7797 49.0428C38.7797 47.0908 31.9477 44.1628 31.9477 44.1628C31.9477 44.1628 25.1157 47.0908 25.1157 49.0428" stroke="#2A3539" stroke-width="1.24444" stroke-linecap="round" stroke-linejoin="round"/>
<path d="M31.9478 35.3787V37.3307" stroke="#2A3539" stroke-width="1.24444" stroke-linecap="round" stroke-linejoin="round"/>
<path d="M31.9478 39.2827V41.2347" stroke="#2A3539" stroke-width="1.24444" stroke-linecap="round" stroke-linejoin="round"/>
<path d="M29.73 23.6853H41.4775" stroke="#2A3539" stroke-width="1.24444" stroke-linecap="round" stroke-linejoin="round"/>
<path d="M22.0898 23.6853H27.0596" stroke="#2A3539" stroke-width="1.24444" stroke-linecap="round" stroke-linejoin="round"/>
</svg>
