<svg width="64" height="64" viewBox="0 0 64 64" fill="none" xmlns="http://www.w3.org/2000/svg">
<path d="M52.1124 32.503C51.1426 32.3279 54.5471 31.3332 54.5471 31.3332L51.252 30.6381L54.0466 30.1981L56.6769 29.783L56.8618 29.183C54.4013 28.9181 50.6964 28.5181 50.6618 28.5181C50.6271 28.5181 54.1613 27.8577 57.3969 27.423L57.5018 27.0834C58.492 23.8381 56.6271 20.3981 53.452 19.6185L20.6777 11.5874C17.6182 10.8372 14.5675 12.8621 13.9231 16.0728L12.2377 24.4523C15.1026 24.3528 17.7631 25.3021 18.4431 25.2674C18.5035 25.2621 18.5533 25.2577 18.5782 25.2577C18.6333 25.2577 18.5782 25.2577 18.4431 25.2674C17.6635 25.3474 14.268 25.9128 11.8582 26.3172L11.7435 26.8923C12.9435 26.967 13.6689 27.0577 13.884 27.0523C20.724 26.8923 12.4893 28.4825 11.3089 29.0425L8.62353 42.0621C7.93375 45.4817 10.2582 48.767 13.5933 49.0825L45.1684 51.3723C47.7835 51.6221 50.2084 50.9625 51.0084 48.3528L55.7533 32.8123C54.3586 32.7225 52.6582 32.6025 52.1133 32.5021L52.1124 32.503Z" fill="#FFD5DA"/>
<path d="M51.0532 7.68911C53.9377 7.31222 54.7403 9.36733 55.1172 12.2518L57.1785 28.0136C57.3963 29.6767 56.2239 31.2011 54.5608 31.4189L49.8319 32.0376L50.8692 39.9727L42.6265 32.9798L28.0639 34.8838C26.4008 35.1016 24.8763 33.9291 24.6585 32.266L22.3083 14.2927C22.1999 13.466 22.4354 12.6731 22.9039 12.058C23.2319 11.6269 23.7412 11.37 24.2772 11.2891L51.0532 7.68911Z" fill="white"/>
<path d="M51.3043 9.35929L25.5612 12.9086C24.5487 13.0455 23.8376 13.9762 23.9718 14.9895L26.2029 32.2953C26.3274 33.2473 27.1994 33.9175 28.1514 33.7931L43.2829 31.8144L49.3665 36.9291L48.5158 30.7806L54.2234 30.034C55.1745 29.9095 55.8456 29.0375 55.7212 28.0855L53.3887 10.9522C53.2536 9.93618 52.3203 9.22151 51.3043 9.35929Z" fill="#FFF3CD"/>
<path d="M37.417 25.6857C40.3014 25.3088 41.1041 27.3639 41.481 30.2484L43.5423 46.0101C43.7601 47.6733 42.5876 49.1977 40.9245 49.4155L36.1956 50.0341L37.233 57.9692L28.9903 50.9764L14.4276 52.8804C12.7645 53.0981 11.2401 51.9257 11.0223 50.2626L8.67209 32.2893C8.56364 31.4626 8.7992 30.6697 9.26764 30.0546C9.59564 29.6235 10.105 29.3666 10.641 29.2857L37.417 25.6857Z" fill="white"/>
<path d="M37.7183 26.9311L11.7921 30.4324C10.7797 30.5693 10.0686 31.5 10.2028 32.5133L12.5663 50.292C12.6908 51.244 13.5628 51.9142 14.5148 51.7897L29.6463 49.8111L35.7299 54.9257L34.9699 49.1151L40.6775 48.3684C41.6286 48.244 42.2997 47.372 42.1752 46.42L39.8037 28.524C39.6686 27.508 38.7343 26.7933 37.7183 26.9311Z" fill="#FFF3CD"/>
<path d="M35.6528 2.79004V6.93315" stroke="#F96073" stroke-width="1.24444" stroke-linecap="round" stroke-linejoin="round"/>
<path d="M33.5811 4.86182H37.7242" stroke="#F96073" stroke-width="1.24444" stroke-linecap="round" stroke-linejoin="round"/>
<path d="M46.4548 55.8354L43.5259 58.7652" stroke="#F96073" stroke-width="1.24444" stroke-linecap="round" stroke-linejoin="round"/>
<path d="M43.5259 55.8354L46.4548 58.7652" stroke="#F96073" stroke-width="1.24444" stroke-linecap="round" stroke-linejoin="round"/>
<path d="M5.19775 23.8862L8.12753 26.816" stroke="#F96073" stroke-width="1.24444" stroke-linecap="round" stroke-linejoin="round"/>
<path d="M5.19775 26.816L8.12753 23.8862" stroke="#F96073" stroke-width="1.24444" stroke-linecap="round" stroke-linejoin="round"/>
<path d="M16.7487 59.4417C17.7075 59.4417 18.4847 58.6645 18.4847 57.7057C18.4847 56.747 17.7075 55.9697 16.7487 55.9697C15.7899 55.9697 15.0127 56.747 15.0127 57.7057C15.0127 58.6645 15.7899 59.4417 16.7487 59.4417Z" stroke="#FFDA6A" stroke-width="1.24444" stroke-linecap="round" stroke-linejoin="round"/>
<path d="M59.3371 47.0042C60.2958 47.0042 61.0731 46.227 61.0731 45.2682C61.0731 44.3095 60.2958 43.5322 59.3371 43.5322C58.3783 43.5322 57.6011 44.3095 57.6011 45.2682C57.6011 46.227 58.3783 47.0042 59.3371 47.0042Z" stroke="#FFDA6A" stroke-width="1.24444" stroke-linecap="round" stroke-linejoin="round"/>
<path d="M17.9054 9.16341C18.8642 9.16341 19.6414 8.38617 19.6414 7.42741C19.6414 6.46864 18.8642 5.69141 17.9054 5.69141C16.9467 5.69141 16.1694 6.46864 16.1694 7.42741C16.1694 8.38617 16.9467 9.16341 17.9054 9.16341Z" stroke="#FFDA6A" stroke-width="1.24444" stroke-linecap="round" stroke-linejoin="round"/>
<path d="M23.7953 24.768L22.4539 14.512C22.4521 14.5004 22.4513 14.4889 22.4495 14.4764C22.2726 12.9929 23.3979 11.664 24.8753 11.44L39.7046 9.19287L51.5677 7.64176C53.2308 7.42398 54.7553 8.59642 54.973 10.2595L57.3233 28.2329C57.541 29.896 56.3686 31.4204 54.7055 31.6382L49.9766 32.2569L51.0139 40.192L44.6699 34.8586" stroke="#2A3539" stroke-width="1.24444" stroke-linecap="round" stroke-linejoin="round"/>
<path d="M27.8794 18.3608L50.9878 14.9448" stroke="#2A3539" stroke-width="1.24444" stroke-linecap="round" stroke-linejoin="round"/>
<path d="M28.4644 22.8379L51.5728 19.4219" stroke="#2A3539" stroke-width="1.24444" stroke-linecap="round" stroke-linejoin="round"/>
<path d="M44.6299 25.2789L52.117 24.1909" stroke="#2A3539" stroke-width="1.24444" stroke-linecap="round" stroke-linejoin="round"/>
<path d="M26.0688 27.1899L37.9319 25.6388C39.595 25.4211 41.1194 26.5935 41.3372 28.2566L43.6874 46.2299C43.9052 47.893 42.7328 49.4175 41.0697 49.6353L36.3408 50.2539L37.3781 58.189L29.1354 51.1962L14.5728 53.1002C12.9097 53.3179 11.3852 52.1455 11.1674 50.4824L8.81721 32.5091C8.81543 32.4975 8.81454 32.4859 8.81276 32.4735C8.63587 30.9899 9.76121 29.6611 11.2385 29.4371L26.0688 27.1899Z" stroke="#2A3539" stroke-width="1.24444" stroke-linecap="round" stroke-linejoin="round"/>
<path d="M14.0332 35.8559L37.1159 32.5679" stroke="#2A3539" stroke-width="1.24444" stroke-linecap="round" stroke-linejoin="round"/>
<path d="M14.5347 40.6674L37.6173 37.3794" stroke="#2A3539" stroke-width="1.24444" stroke-linecap="round" stroke-linejoin="round"/>
<path d="M15.3291 46.1489L34.3967 43.4014" stroke="#2A3539" stroke-width="1.24444" stroke-linecap="round" stroke-linejoin="round"/>
</svg>
