<svg width="64" height="64" viewBox="0 0 64 64" fill="none" xmlns="http://www.w3.org/2000/svg">
<path d="M52.0981 32.2755C51.0758 32.0977 54.6758 31.0844 54.6758 31.0844L51.1825 30.3821L54.1425 29.9377L56.9247 29.5199L57.1203 28.9155C54.5158 28.6488 50.5958 28.2399 50.5514 28.2399C50.507 28.2399 54.2581 27.5732 57.6892 27.1288L57.7958 26.7821C58.8447 23.4932 56.8714 19.9999 53.5025 19.2088L18.8092 11.0666C15.5736 10.3021 12.3381 12.3644 11.6536 15.6177L9.86695 24.1155C12.8981 24.0177 15.7158 24.9777 16.4447 24.9421C16.507 24.9421 16.5603 24.9332 16.587 24.9332C16.6403 24.9332 16.587 24.9332 16.4447 24.9421C15.6181 25.0221 12.027 25.591 9.47584 26.0088L9.3514 26.5866C10.6225 26.6666 11.387 26.7555 11.6181 26.7466C18.8625 26.5866 10.1425 28.1955 8.88917 28.7644L6.04473 42.2933C5.31584 45.7599 7.77806 49.0932 11.307 49.4132L44.747 52.4532C47.5114 52.7021 50.0892 50.9955 50.9336 48.3466L55.9558 32.5866C54.4803 32.4977 52.6758 32.3732 52.0981 32.2755Z" fill="#FFD5DA"/>
<path d="M47.8925 14.6045L12.3636 17.3512C11.4125 17.4223 10.7014 18.2578 10.7725 19.209L13.0747 49.0045C13.1458 49.9556 13.9814 50.6667 14.9325 50.5956L50.4614 47.849C51.4125 47.7778 52.1236 46.9423 52.0525 45.9912L49.7503 16.1956C49.6791 15.2445 48.8436 14.5334 47.8925 14.6045Z" fill="white"/>
<path d="M47.2879 23.8755L15.2879 26.6933C14.5591 26.7555 14.0257 27.3955 14.0879 28.1244L15.7768 47.3067C15.8391 48.0355 16.4791 48.5689 17.2079 48.5066L49.2079 45.6889C49.9368 45.6267 50.4702 44.9867 50.4079 44.2578L48.7191 25.0755C48.6568 24.3466 48.0168 23.8133 47.2879 23.8755Z" fill="#FFF3CD"/>
<path d="M11.3857 19.12L47.4746 16.2044C47.8924 16.1689 48.2657 16.5511 48.3013 17.04L48.7369 22.4533L11.8924 25.4311L11.3857 19.1111V19.12Z" fill="#FF9BA7"/>
<path d="M20.7901 12.9155L17.0923 13.1822L17.5901 20.0533L21.2878 19.7866L20.7901 12.9155Z" fill="white"/>
<path d="M18.9415 13.84L20.9504 13.6533L21.5015 19.7155L19.0037 19.9467L18.4971 14.3644C18.4704 14.0978 18.666 13.8578 18.9326 13.84H18.9415Z" fill="#FFF3CD"/>
<path d="M43.1016 11.4133L39.4038 11.68L39.9016 18.5511L43.5994 18.2844L43.1016 11.4133Z" fill="white"/>
<path d="M40.9415 11.9467L42.9504 11.76L43.5015 17.8222L41.0037 18.0533L40.4971 12.4711C40.4704 12.2045 40.6659 11.9645 40.9326 11.9467H40.9415Z" fill="#FFF3CD"/>
<path d="M46.1812 28.7191L61.4966 50.5875L59.6123 50.672L35.1121 52.8888L46.1812 28.7191Z" fill="white"/>
<path d="M46.4897 31.9998L37.7787 50.6665L57.7788 48.8888L46.4897 31.9998Z" fill="#F96073"/>
<path d="M48.0578 48.1783C49.0456 48.0918 49.7764 47.2209 49.69 46.2331C49.6036 45.2452 48.7327 44.5144 47.7448 44.6008C46.7569 44.6873 46.0261 45.5582 46.1125 46.546C46.199 47.5339 47.0699 48.2647 48.0578 48.1783Z" fill="white"/>
<path d="M47.9147 43.5033L46.8833 43.5935C46.5844 43.6197 46.3086 43.3945 46.2734 43.0782L45.5679 37.0796C45.532 36.7556 45.7624 36.4628 46.0763 36.4353L47.4665 36.3137C47.7804 36.2862 48.0581 36.5346 48.0791 36.8599L48.4259 42.8899C48.4455 43.1998 48.2211 43.4765 47.9147 43.5033Z" fill="white"/>
<path d="M55.4494 60.4888C56.441 60.4888 57.2449 59.6849 57.2449 58.6933C57.2449 57.7016 56.441 56.8977 55.4494 56.8977C54.4577 56.8977 53.6538 57.7016 53.6538 58.6933C53.6538 59.6849 54.4577 60.4888 55.4494 60.4888Z" stroke="#FFDA6A" stroke-width="1.24444" stroke-linecap="round" stroke-linejoin="round"/>
<path d="M5.19155 31.2623C6.18321 31.2623 6.98711 30.4584 6.98711 29.4667C6.98711 28.475 6.18321 27.6711 5.19155 27.6711C4.19989 27.6711 3.396 28.475 3.396 29.4667C3.396 30.4584 4.19989 31.2623 5.19155 31.2623Z" stroke="#FFDA6A" stroke-width="1.24444" stroke-linecap="round" stroke-linejoin="round"/>
<path d="M34.4625 7.65337C35.4542 7.65337 36.2581 6.84947 36.2581 5.85781C36.2581 4.86615 35.4542 4.06226 34.4625 4.06226C33.4709 4.06226 32.667 4.86615 32.667 5.85781C32.667 6.84947 33.4709 7.65337 34.4625 7.65337Z" stroke="#FFDA6A" stroke-width="1.24444" stroke-linecap="round" stroke-linejoin="round"/>
<path d="M12.9691 6.14233L9.93799 9.17344" stroke="#F96073" stroke-width="1.24444" stroke-linecap="round" stroke-linejoin="round"/>
<path d="M9.93799 6.14233L12.9691 9.17344" stroke="#F96073" stroke-width="1.24444" stroke-linecap="round" stroke-linejoin="round"/>
<path d="M19.7336 55.3867L16.7114 58.4178" stroke="#F96073" stroke-width="1.24444" stroke-linecap="round" stroke-linejoin="round"/>
<path d="M16.7114 55.3867L19.7336 58.4178" stroke="#F96073" stroke-width="1.24444" stroke-linecap="round" stroke-linejoin="round"/>
<path d="M59.885 14.009H55.6006" stroke="#F96073" stroke-width="1.24444" stroke-linecap="round" stroke-linejoin="round"/>
<path d="M57.7427 11.8667V16.1511" stroke="#F96073" stroke-width="1.24444" stroke-linecap="round" stroke-linejoin="round"/>
<path d="M50.4003 22.0266L15.6714 24.9155" stroke="#2A3539" stroke-width="1.24444" stroke-linecap="round" stroke-linejoin="round"/>
<path d="M37.8937 15.2534L23.0137 16.4979" stroke="#2A3539" stroke-width="1.24444" stroke-linecap="round" stroke-linejoin="round"/>
<path d="M45.2715 14.6489L47.8226 14.4355C48.8893 14.3466 49.8315 15.1377 49.9204 16.2133L51.2002 31.7278" stroke="#2A3539" stroke-width="1.24444" stroke-linecap="round" stroke-linejoin="round"/>
<path d="M15.547 17.1201L12.9159 17.3423C11.8404 17.4312 11.0493 18.3735 11.1382 19.4401L13.6359 49.4934C13.7248 50.569 14.6671 51.3601 15.7337 51.2712L33.756 49.7779" stroke="#2A3539" stroke-width="1.24444" stroke-linecap="round" stroke-linejoin="round"/>
<path d="M20.2762 12.5867L17.725 12.8C17.3873 12.8267 17.1384 13.12 17.165 13.4578L17.725 20.2222C17.7517 20.56 18.045 20.8089 18.3828 20.7822L20.9339 20.5689C21.2717 20.5422 21.5206 20.2489 21.4939 19.9111L20.9339 13.1467C20.9073 12.8089 20.6139 12.56 20.2762 12.5867Z" stroke="#2A3539" stroke-width="1.24444" stroke-linecap="round" stroke-linejoin="round"/>
<path d="M42.4007 10.7466L39.8496 10.9599C39.5118 10.9866 39.2629 11.2799 39.2896 11.6177L39.8496 18.3821C39.8762 18.7199 40.1696 18.9688 40.5073 18.9421L43.0584 18.7288C43.3962 18.7021 43.6451 18.4088 43.6184 18.071L43.0584 11.3066C43.0318 10.9688 42.7384 10.7199 42.4007 10.7466Z" stroke="#2A3539" stroke-width="1.24444" stroke-linecap="round" stroke-linejoin="round"/>
<path d="M18.3027 35.0666L22.1783 34.7466" stroke="#2A3539" stroke-width="1.24444" stroke-linecap="round" stroke-linejoin="round"/>
<path d="M26.0542 34.4179L29.9298 34.0979" stroke="#2A3539" stroke-width="1.24444" stroke-linecap="round" stroke-linejoin="round"/>
<path d="M33.7778 33.6533L37.6534 33.3333" stroke="#2A3539" stroke-width="1.24444" stroke-linecap="round" stroke-linejoin="round"/>
<path d="M25.645 29.4667L29.5206 29.1467" stroke="#2A3539" stroke-width="1.24444" stroke-linecap="round" stroke-linejoin="round"/>
<path d="M33.396 28.8178L37.2716 28.4978" stroke="#2A3539" stroke-width="1.24444" stroke-linecap="round" stroke-linejoin="round"/>
<path d="M41.1558 28.1778L43.0935 28.0178" stroke="#2A3539" stroke-width="1.24444" stroke-linecap="round" stroke-linejoin="round"/>
<path d="M18.7114 40.0268L22.587 39.7068" stroke="#2A3539" stroke-width="1.24444" stroke-linecap="round" stroke-linejoin="round"/>
<path d="M26.4619 39.3779L30.3375 39.0579" stroke="#2A3539" stroke-width="1.24444" stroke-linecap="round" stroke-linejoin="round"/>
<path d="M34.2222 38.7199L38.0977 38.3999" stroke="#2A3539" stroke-width="1.24444" stroke-linecap="round" stroke-linejoin="round"/>
<path d="M19.1206 44.9777L22.9962 44.6577" stroke="#2A3539" stroke-width="1.24444" stroke-linecap="round" stroke-linejoin="round"/>
<path d="M26.8804 44.3378L30.7559 44.0178" stroke="#2A3539" stroke-width="1.24444" stroke-linecap="round" stroke-linejoin="round"/>
<path d="M34.5962 43.6L36.8806 43.4133" stroke="#2A3539" stroke-width="1.24444" stroke-linecap="round" stroke-linejoin="round"/>
<path d="M46.1871 28.642L34.7706 52.7711L61.3754 50.5988L46.1871 28.642Z" stroke="#2A3539" stroke-width="1.24444" stroke-linecap="round" stroke-linejoin="round"/>
</svg>
