<svg width="64" height="64" viewBox="0 0 64 64" fill="none" xmlns="http://www.w3.org/2000/svg">
<path d="M52.1042 30.7128C51.1342 30.5428 54.5392 29.5878 54.5392 29.5878L51.2442 28.9228L54.0392 28.5028L56.6692 28.1078L56.8542 27.5328C54.3942 27.2778 50.6892 26.8928 50.6542 26.8928C50.6192 26.8928 54.1542 26.2628 57.3892 25.8428L57.4942 25.5178C58.4842 22.4078 56.6192 19.1178 53.4442 18.3728L20.6742 10.6778C17.6142 9.95777 14.5642 11.8978 13.9192 14.9728L12.2342 22.9978C15.0992 22.9028 17.7592 23.8128 18.4392 23.7778C18.4992 23.7728 18.5492 23.7678 18.5742 23.7678C18.6292 23.7678 18.5742 23.7678 18.4392 23.7778C17.6592 23.8528 14.2642 24.3928 11.8542 24.7828L11.7392 25.3328C12.9392 25.4078 13.6642 25.4878 13.8792 25.4828C20.7192 25.3278 12.4842 26.8528 11.3042 27.3878L8.61918 40.1578C7.92918 43.4328 10.2542 46.5778 13.5892 46.8828L45.1642 49.7528C47.7792 49.9928 50.2042 48.3778 51.0042 45.8778L55.7492 30.9978C54.3542 30.9128 52.6542 30.7978 52.1092 30.7028L52.1042 30.7128Z" fill="#FFD5DA"/>
<path d="M44.1585 17.8379L34.9585 32.9679C34.2685 33.9579 33.0185 34.3979 31.8585 34.0679L15.2285 28.1129" fill="white"/>
<path d="M12.1755 25.7065L44.9868 14.0809C46.0378 13.7086 47.1931 14.2594 47.5655 15.3103L55.3036 37.15C55.676 38.201 55.1252 39.3562 54.0742 39.7286L21.2629 51.3542C20.2119 51.7265 19.0566 51.1758 18.6842 50.1248L10.9461 28.2851C10.5737 27.2341 11.1245 26.0789 12.1755 25.7065Z" fill="white"/>
<path d="M46.7292 13.9673L55.3042 37.1573L22.5792 48.0173C21.5292 48.3923 20.3692 47.8373 19.9992 46.7873L12.6392 25.5423L46.7242 13.9673H46.7292Z" fill="#FFF3CD"/>
<path d="M44.1949 6.49694L59.5103 28.3653L57.626 28.4499L33.1258 30.6667L44.1949 6.49694Z" fill="white"/>
<path d="M44.5034 9.77766L35.7923 28.4443L55.7925 26.6666L44.5034 9.77766Z" fill="#F96073"/>
<path d="M46.0714 25.9561C47.0593 25.8697 47.7901 24.9988 47.7037 24.0109C47.6172 23.023 46.7463 22.2922 45.7584 22.3787C44.7706 22.4651 44.0398 23.336 44.1262 24.3239C44.2126 25.3118 45.0836 26.0425 46.0714 25.9561Z" fill="white"/>
<path d="M45.9284 21.2811L44.897 21.3714C44.598 21.3975 44.3223 21.1724 44.2871 20.8561L43.5815 14.8574C43.5457 14.5334 43.7761 14.2406 44.09 14.2132L45.4801 14.0915C45.794 14.0641 46.0718 14.3124 46.0927 14.6377L46.4396 20.6678C46.4591 20.9776 46.2348 21.2543 45.9284 21.2811Z" fill="white"/>
<path d="M28.7853 10.5344L25.9253 13.3944" stroke="#F96073" stroke-width="1.25" stroke-linecap="round" stroke-linejoin="round"/>
<path d="M25.9253 10.5344L28.7853 13.3944" stroke="#F96073" stroke-width="1.25" stroke-linecap="round" stroke-linejoin="round"/>
<path d="M53.9297 47.4287V51.4737" stroke="#F96073" stroke-width="1.25" stroke-linecap="round" stroke-linejoin="round"/>
<path d="M51.9043 49.4495H55.9543" stroke="#F96073" stroke-width="1.25" stroke-linecap="round" stroke-linejoin="round"/>
<path d="M13.48 49.3037V53.3537" stroke="#F96073" stroke-width="1.25" stroke-linecap="round" stroke-linejoin="round"/>
<path d="M11.4546 51.3291H15.5046" stroke="#F96073" stroke-width="1.25" stroke-linecap="round" stroke-linejoin="round"/>
<path d="M9.13494 19.5345C10.0711 19.5345 10.8299 18.7757 10.8299 17.8395C10.8299 16.9034 10.0711 16.1445 9.13494 16.1445C8.19882 16.1445 7.43994 16.9034 7.43994 17.8395C7.43994 18.7757 8.19882 19.5345 9.13494 19.5345Z" stroke="#FFDA6A" stroke-width="1.25" stroke-linecap="round" stroke-linejoin="round"/>
<path d="M37.1393 57.1341C38.0755 57.1341 38.8343 56.3753 38.8343 55.4391C38.8343 54.503 38.0755 53.7441 37.1393 53.7441C36.2032 53.7441 35.4443 54.503 35.4443 55.4391C35.4443 56.3753 36.2032 57.1341 37.1393 57.1341Z" stroke="#FFDA6A" stroke-width="1.25" stroke-linecap="round" stroke-linejoin="round"/>
<path d="M34.96 32.9685C34.27 33.9585 33.02 34.3985 31.86 34.0685L15.23 28.1135" stroke="#2A3539" stroke-width="1.25" stroke-linecap="round" stroke-linejoin="round"/>
<path d="M37.3337 16.7938L12.177 25.7072C11.126 26.0796 10.5752 27.2349 10.9476 28.2859L18.6857 50.1255C19.0581 51.1765 20.2133 51.7273 21.2643 51.3549L54.0756 39.7294C55.1266 39.357 55.6774 38.2017 55.305 37.1507L53.0076 30.6666" stroke="#2A3539" stroke-width="1.25" stroke-linecap="round" stroke-linejoin="round"/>
<path d="M22.0708 47.4273L29.7808 33.3223" stroke="#2A3539" stroke-width="1.25" stroke-linecap="round" stroke-linejoin="round"/>
<path d="M51.0199 37.2026L39.1118 32.3164" stroke="#2A3539" stroke-width="1.25" stroke-linecap="round" stroke-linejoin="round"/>
<path d="M44.1422 6.41985L32.7257 30.5489L59.3305 28.3767L44.1422 6.41985Z" stroke="#2A3539" stroke-width="1.24444" stroke-linecap="round" stroke-linejoin="round"/>
</svg>
