<svg width="40" height="40" viewBox="0 0 40 40" fill="none" xmlns="http://www.w3.org/2000/svg">
<path opacity="0.6" fill-rule="evenodd" clip-rule="evenodd" d="M33.9435 20.9898C33.9435 20.9339 33.9212 20.8827 33.8842 20.8446H33.8819C33.8781 20.8407 33.8735 20.8361 33.8689 20.8322C33.8689 20.8314 33.8681 20.8314 33.8681 20.8299C33.8635 20.8268 33.8604 20.8252 33.8558 20.8213C33.8512 20.8182 33.8458 20.8143 33.8404 20.8112C33.4411 20.5581 32.9604 20.3577 32.3095 20.4199C32.1549 20.0456 32.0226 19.6488 31.8641 19.2791C31.8603 19.2675 31.8557 19.2566 31.8511 19.2465C31.8157 19.1828 31.7503 19.1401 31.6726 19.1401C31.6364 19.1401 31.6034 19.1502 31.5741 19.1658C31.5572 19.179 31.541 19.1929 31.5241 19.2061C31.1256 19.5307 30.8295 19.9563 30.6918 20.5449C30.2894 20.5604 29.904 20.5946 29.5017 20.6132C29.4856 20.614 29.4679 20.614 29.4509 20.6148C29.3548 20.6311 29.2825 20.7149 29.2825 20.8159C29.2825 20.8283 29.2832 20.8407 29.2855 20.8516C29.2909 20.871 29.2979 20.8897 29.304 20.9083C29.4902 21.4557 29.8917 21.8471 30.3064 22.1616C30.2056 22.5413 30.1079 22.9257 30.0079 23.3078C30.0048 23.3202 30.0025 23.3311 29.9994 23.3427C29.9971 23.3551 29.9964 23.366 29.9964 23.3784C29.9964 23.4825 30.0717 23.5671 30.171 23.5811C30.1948 23.5811 30.2187 23.5796 30.2425 23.5788C30.8595 23.5477 31.3318 23.2915 31.708 23.0003C32.0472 23.2138 32.3765 23.4367 32.7142 23.651C32.7234 23.6572 32.7311 23.6626 32.7403 23.6681C32.7688 23.6828 32.8011 23.6914 32.8342 23.6914C32.9219 23.6914 32.9957 23.6355 33.025 23.5578C33.028 23.5462 33.0311 23.5337 33.0334 23.5229C33.1665 23.015 33.1357 22.3402 32.9257 21.9279C33.2296 21.6693 33.5519 21.4255 33.8504 21.1622C33.8512 21.1622 33.8527 21.1614 33.8535 21.1607V21.1614V21.1607C33.8666 21.1482 33.8796 21.1374 33.8935 21.1257V21.1249L33.8919 21.1257C33.8935 21.1249 33.8935 21.1242 33.8942 21.1226C33.9258 21.0877 33.9435 21.0403 33.9435 20.9898" fill="#F96073"/>
<path opacity="0.6" fill-rule="evenodd" clip-rule="evenodd" d="M39.491 18.7689C39.5456 18.7161 39.5733 18.6454 39.5741 18.5748C39.5741 18.5748 39.5733 18.574 39.5733 18.5732C39.5733 18.5639 39.5733 18.5561 39.5725 18.5484C39.5725 18.5476 39.5718 18.5453 39.5725 18.5453C39.5718 18.5383 39.5718 18.5328 39.571 18.5259C39.5687 18.5173 39.5672 18.5095 39.5649 18.501C39.4341 17.8736 39.1756 17.2166 38.5056 16.6389C38.7194 16.1373 38.9764 15.6372 39.1825 15.1348C39.1879 15.12 39.1941 15.1068 39.2002 15.092C39.2287 14.9981 39.2071 14.8933 39.1356 14.8187C39.101 14.783 39.0602 14.7589 39.0179 14.7465C38.9894 14.7418 38.961 14.7387 38.9341 14.7348C38.2494 14.6494 37.5632 14.7605 36.8709 15.1767C36.4778 14.7993 36.0831 14.4545 35.69 14.0787C35.6731 14.0631 35.657 14.0468 35.64 14.0313C35.5339 13.9521 35.3854 13.9606 35.2885 14.0554C35.2762 14.0662 35.2669 14.0787 35.2577 14.0919C35.2446 14.1144 35.2323 14.1392 35.2208 14.1633C34.8715 14.8568 34.8715 15.617 34.96 16.3159C34.5015 16.5729 34.0415 16.8385 33.5815 17.0994C33.5676 17.1071 33.5545 17.1149 33.5392 17.1227C33.5261 17.132 33.5145 17.1421 33.503 17.153C33.4038 17.25 33.393 17.4045 33.473 17.514C33.4953 17.5373 33.5192 17.5591 33.5422 17.5816C34.15 18.1555 34.8385 18.376 35.47 18.4707C35.5823 19.0011 35.6777 19.5315 35.7893 20.0626C35.7924 20.0774 35.7939 20.0906 35.797 20.1045C35.8093 20.1449 35.8324 20.1845 35.8624 20.2171C35.9454 20.3033 36.0678 20.3227 36.1701 20.2785C36.1839 20.2707 36.1978 20.2622 36.2124 20.2544C36.8232 19.9073 37.4401 19.2449 37.6378 18.654C38.1709 18.7076 38.7056 18.7953 39.2387 18.8388C39.2402 18.8396 39.241 18.8403 39.2433 18.8396C39.2433 18.8411 39.2425 18.8411 39.2425 18.8411C39.2425 18.8411 39.2433 18.8411 39.2433 18.8396C39.2664 18.8419 39.2902 18.8442 39.3133 18.8466C39.3141 18.8466 39.3141 18.8466 39.3148 18.8458C39.3141 18.8466 39.3141 18.8466 39.3125 18.8458C39.3148 18.8458 39.3164 18.845 39.3179 18.845C39.3802 18.8419 39.4433 18.8163 39.491 18.7689" fill="#F96073"/>
<path fill-rule="evenodd" clip-rule="evenodd" d="M30.575 25.7591C30.522 25.7684 30.4666 25.7839 30.4135 25.7925C25.3517 26.5605 21.273 23.0537 21.3392 18.1483C21.3807 15.0601 22.9516 12.9176 25.0971 11.5416C25.1517 11.5067 25.2079 11.4748 25.2625 11.4407C25.3302 11.37 25.3725 11.2745 25.3725 11.1681C25.3725 11.0128 25.2817 10.8816 25.1525 10.8156C25.0848 10.8055 25.014 10.7868 24.9471 10.7767C18.9145 9.93188 14.3265 14.5429 14.065 19.8C13.7996 25.1355 18.0698 29.5486 22.8847 29.8964C26.4479 30.1543 29.1288 28.6983 30.8443 26.4417C30.8551 26.4261 30.8658 26.4129 30.8766 26.3974C30.9289 26.3306 30.9651 26.2491 30.9651 26.1567C30.9651 25.9377 30.7912 25.7614 30.575 25.7591" fill="#F96073"/>
<path fill-rule="evenodd" clip-rule="evenodd" d="M29.1791 16.911C29.2245 16.8753 29.2514 16.8248 29.2575 16.772C29.2575 16.772 29.2575 16.7713 29.2575 16.7705C29.2583 16.7643 29.2591 16.7581 29.2591 16.7519V16.7495C29.2591 16.7441 29.2591 16.7402 29.2591 16.734C29.2591 16.7278 29.2583 16.7216 29.2568 16.7146C29.2106 16.2316 29.0698 15.7136 28.6137 15.2221C28.816 14.8626 29.0514 14.5069 29.2483 14.1458C29.2545 14.135 29.2598 14.1256 29.2652 14.1148C29.2945 14.0464 29.2875 13.9657 29.2391 13.9035C29.216 13.8733 29.1875 13.8523 29.1568 13.8383C29.1352 13.8329 29.1145 13.8282 29.0945 13.8228C28.5852 13.7009 28.0582 13.7257 27.5021 13.9812C27.2374 13.6636 26.9682 13.3701 26.7036 13.054C26.692 13.0408 26.6813 13.0276 26.6697 13.0136C26.5966 12.9453 26.4843 12.9391 26.4028 13.0028C26.3928 13.0098 26.3851 13.0183 26.3766 13.0276C26.3651 13.0439 26.3543 13.061 26.3428 13.0781C26.022 13.5712 25.9589 14.1443 25.9681 14.6785C25.6004 14.8338 25.232 14.9946 24.8635 15.1522C24.8519 15.1569 24.8412 15.1615 24.8296 15.167C24.8189 15.1724 24.8096 15.1794 24.7996 15.1864C24.7173 15.2516 24.6958 15.3665 24.7473 15.4558C24.7619 15.4752 24.7781 15.4939 24.7935 15.5125C25.2043 15.9963 25.7051 16.2207 26.1728 16.3457C26.2135 16.7557 26.242 17.1634 26.2812 17.5734C26.2828 17.5843 26.2828 17.5944 26.2843 17.6045C26.2897 17.6363 26.3035 17.6682 26.3235 17.6953C26.3789 17.7676 26.4697 17.7924 26.5505 17.7683C26.5612 17.7629 26.5728 17.7582 26.5843 17.7528C27.0736 17.5431 27.5936 17.0966 27.7921 16.6672C28.189 16.7534 28.5852 16.8645 28.9837 16.9421C28.9845 16.9429 28.9852 16.9437 28.9868 16.9437C28.986 16.9437 28.9852 16.9444 28.9852 16.9444C28.9852 16.9444 28.986 16.9437 28.9868 16.9437C29.0037 16.9468 29.0214 16.9506 29.0383 16.9545C29.0391 16.9545 29.0391 16.9545 29.0398 16.9538C29.0391 16.9545 29.0391 16.9545 29.0383 16.9538H29.0421C29.0898 16.9569 29.1391 16.9421 29.1791 16.911" fill="#F96073"/>
<path fill-rule="evenodd" clip-rule="evenodd" d="M10.5617 27.8811C10.5347 27.7933 10.4747 27.725 10.3994 27.6854H10.3978C10.3886 27.68 10.3801 27.6761 10.3709 27.673C10.3701 27.6714 10.3678 27.6714 10.367 27.6714C10.3593 27.6683 10.3532 27.666 10.3447 27.6629C10.3355 27.6598 10.3255 27.6567 10.3147 27.6551C9.57546 27.4556 8.7308 27.3795 7.75075 27.7933C7.3315 27.2878 6.93764 26.7357 6.51377 26.2387C6.50146 26.2232 6.48915 26.21 6.47607 26.1945C6.39222 26.1137 6.26837 26.0795 6.1499 26.1176C6.09298 26.1339 6.04605 26.1657 6.00836 26.2053C5.98836 26.2341 5.96913 26.262 5.94989 26.2915C5.48756 26.9896 5.23063 27.7964 5.29909 28.7757C4.68137 28.9985 4.09903 29.24 3.48361 29.4629C3.45746 29.473 3.4313 29.4815 3.40515 29.4908C3.26437 29.5631 3.19052 29.73 3.23899 29.8876C3.24514 29.9055 3.25283 29.9241 3.26129 29.9389C3.27899 29.9668 3.29822 29.9932 3.31745 30.0196C3.86902 30.7775 4.67983 31.1914 5.47525 31.4749C5.4991 32.1147 5.53295 32.76 5.56064 33.4014C5.56141 33.4216 5.56141 33.441 5.56295 33.4612C5.56526 33.4799 5.5691 33.4977 5.57526 33.5171C5.62449 33.6779 5.78373 33.7734 5.94374 33.7462C5.98066 33.7338 6.01759 33.7206 6.05375 33.7074C6.99841 33.3579 7.6069 32.7297 8.05385 32.0945C8.6808 32.2615 9.30006 32.4463 9.92702 32.6148C9.94317 32.6187 9.95933 32.6234 9.97548 32.6272C10.0263 32.6366 10.0801 32.6342 10.1324 32.6179C10.2686 32.5752 10.357 32.4525 10.3647 32.3174C10.364 32.2972 10.3632 32.2778 10.3624 32.2584C10.324 31.4042 9.95394 30.373 9.43007 29.8348C9.77778 29.2843 10.1609 28.75 10.4994 28.1933C10.5001 28.1925 10.5017 28.1917 10.5032 28.1886C10.5024 28.1901 10.5024 28.1909 10.5024 28.1909C10.5024 28.1909 10.5032 28.1901 10.5032 28.1886C10.5178 28.1645 10.5317 28.142 10.5471 28.1179C10.5471 28.1164 10.5471 28.1164 10.5478 28.1148C10.5471 28.1164 10.5471 28.1164 10.5463 28.1179C10.5471 28.1156 10.5478 28.1133 10.5494 28.1117C10.5786 28.0411 10.5855 27.9603 10.5617 27.8811" fill="#F96073"/>
<path fill-rule="evenodd" clip-rule="evenodd" d="M21.991 0.735389C21.9441 0.655407 21.8702 0.603379 21.7879 0.582413C21.7879 0.582413 21.7871 0.582413 21.7864 0.582413C21.7764 0.579307 21.7671 0.577754 21.7579 0.576201C21.7564 0.576201 21.754 0.575424 21.7533 0.575424C21.7456 0.574648 21.7387 0.573871 21.7302 0.572318C21.7202 0.571542 21.7102 0.571542 21.6994 0.571542C20.934 0.550575 20.0947 0.673267 19.2362 1.30459C18.7124 0.910108 18.2023 0.465157 17.6761 0.0799989C17.6615 0.0683509 17.6461 0.0574795 17.6308 0.0466081C17.53 -0.0131846 17.4015 -0.0178438 17.2954 0.0466081C17.2438 0.0768927 17.2046 0.118825 17.1769 0.166194C17.1646 0.198031 17.1523 0.229869 17.14 0.26326C16.8492 1.04911 16.7846 1.89475 17.0753 2.83202C16.5253 3.19233 16.0138 3.56273 15.466 3.92304C15.443 3.93935 15.4199 3.9541 15.396 3.96886C15.2753 4.07213 15.2422 4.25151 15.3253 4.39284C15.3353 4.40992 15.3468 4.42546 15.3583 4.43943C15.3822 4.46118 15.4068 4.48292 15.4322 4.50388C16.1415 5.11268 17.0253 5.32623 17.8639 5.41708C18.0339 6.03365 18.2139 6.65409 18.3877 7.27143C18.3931 7.29085 18.3977 7.30948 18.4039 7.3289C18.41 7.34676 18.4177 7.36384 18.4277 7.38092C18.5131 7.52614 18.6893 7.58127 18.8393 7.51759C18.8724 7.4974 18.9054 7.47566 18.9378 7.45392C19.7763 6.89482 20.2255 6.14081 20.5148 5.41864C21.1625 5.43494 21.8079 5.47066 22.4564 5.48775C22.4733 5.48852 22.4895 5.4893 22.5064 5.4893C22.5572 5.48697 22.6102 5.47222 22.6572 5.44349C22.7787 5.37049 22.8372 5.23072 22.8133 5.09715C22.8079 5.07852 22.8033 5.0591 22.7979 5.03969C22.5656 4.21812 21.9694 3.30104 21.3363 2.89958C21.5494 2.28301 21.8002 1.67344 22.0018 1.05377C22.0025 1.05221 22.0041 1.05066 22.0048 1.04833C22.0041 1.04911 22.0048 1.05066 22.0048 1.05066V1.04833C22.0133 1.02115 22.0218 0.995527 22.031 0.968348C22.0302 0.966795 22.031 0.966795 22.031 0.965242C22.031 0.966795 22.0302 0.966795 22.0302 0.968348C22.0302 0.966018 22.0302 0.964465 22.0318 0.962136C22.0441 0.886813 22.0325 0.806054 21.991 0.735389" fill="#F96073"/>
<path fill-rule="evenodd" clip-rule="evenodd" d="M19.1015 36.786C19.1092 36.7169 19.0877 36.6501 19.0469 36.6004C19.0469 36.6004 19.0469 36.5996 19.0461 36.5988C19.0415 36.5926 19.0369 36.5864 19.0315 36.5817C19.0315 36.5817 19.03 36.5802 19.0292 36.5802C19.0246 36.5755 19.0215 36.5724 19.0169 36.567C19.0108 36.5623 19.0046 36.5577 18.9977 36.5522C18.543 36.188 17.9784 35.8767 17.1722 35.8658C17.0322 35.3851 16.923 34.8811 16.7776 34.4059C16.7737 34.3912 16.7691 34.3772 16.7645 34.364C16.7306 34.2809 16.6545 34.2195 16.5606 34.2102C16.5168 34.2048 16.4737 34.2126 16.4352 34.2281C16.4137 34.2421 16.3922 34.2553 16.3699 34.27C15.8383 34.614 15.4175 35.097 15.1721 35.7998C14.6751 35.7656 14.1974 35.7563 13.702 35.7237C13.6813 35.7221 13.6605 35.7206 13.6397 35.719C13.5197 35.726 13.4182 35.8192 13.4051 35.9434C13.4035 35.959 13.4035 35.9737 13.4043 35.9877C13.4089 36.0118 13.4143 36.0358 13.4197 36.0599C13.5766 36.7557 14.0159 37.2915 14.4851 37.7318C14.3097 38.1853 14.1397 38.6442 13.9667 39.0977C13.9605 39.1125 13.9551 39.1264 13.9505 39.1404C13.9466 39.1544 13.9428 39.1676 13.942 39.1839C13.9274 39.3105 14.0097 39.4254 14.1297 39.4565C14.159 39.458 14.189 39.4603 14.2174 39.4619C14.9798 39.5077 15.5921 39.2569 16.0929 38.9509C16.4791 39.2592 16.8553 39.576 17.2407 39.8851C17.2507 39.8929 17.2607 39.9014 17.2707 39.9092C17.303 39.9309 17.3414 39.9457 17.383 39.9503C17.4899 39.962 17.5884 39.9037 17.6338 39.8121C17.6391 39.7989 17.6453 39.7834 17.6507 39.7702C17.8799 39.1653 17.9322 38.3336 17.7284 37.7986C18.1361 37.5221 18.5623 37.2674 18.9646 36.984C18.9654 36.984 18.9669 36.9832 18.9684 36.9824L18.9677 36.984L18.9684 36.9824C18.9861 36.9692 19.0031 36.9584 19.0208 36.9459C19.0215 36.9444 19.0215 36.9444 19.0215 36.9444C19.0215 36.9444 19.0215 36.9444 19.0208 36.9452C19.0215 36.9444 19.0223 36.9428 19.0238 36.9421C19.0661 36.9017 19.0946 36.8473 19.1015 36.786" fill="#F96073"/>
<path fill-rule="evenodd" clip-rule="evenodd" d="M20.7792 32.9457C20.8007 32.9108 20.8061 32.8704 20.7969 32.8324V32.8324C20.7953 32.8277 20.7946 32.8238 20.7938 32.8192L20.793 32.8176C20.7915 32.8137 20.7907 32.8114 20.7892 32.8075C20.7869 32.8036 20.7853 32.799 20.783 32.7951C20.633 32.4837 20.4123 32.1731 19.9853 31.9572C20.033 31.666 20.103 31.3702 20.1453 31.0797C20.1469 31.0704 20.1484 31.0627 20.1499 31.0533C20.1522 31.0005 20.1276 30.9493 20.0799 30.919C20.0576 30.905 20.033 30.898 20.0092 30.8965C19.9938 30.898 19.9784 30.8996 19.963 30.9019C19.593 30.9477 19.2468 31.0961 18.9383 31.4067C18.6829 31.2599 18.4306 31.131 18.176 30.9866C18.1652 30.9803 18.1537 30.9734 18.1437 30.9671C18.0775 30.9407 18.0006 30.964 17.9614 31.0262C17.9575 31.0339 17.9537 31.0417 17.9506 31.0495C17.9467 31.0634 17.9437 31.0782 17.9406 31.0922C17.8475 31.503 17.9452 31.9013 18.0829 32.2562C17.8752 32.4519 17.6683 32.6522 17.4606 32.8495C17.4544 32.8564 17.4483 32.8619 17.4421 32.8681C17.4359 32.8743 17.4313 32.8813 17.4267 32.8891C17.3867 32.9527 17.4013 33.035 17.4575 33.0824C17.4721 33.0902 17.4875 33.0995 17.5021 33.1088C17.896 33.3286 18.286 33.3542 18.6299 33.3208C18.7576 33.5841 18.876 33.8504 19.0037 34.1144C19.0068 34.1214 19.0099 34.1276 19.0137 34.1338C19.0245 34.1548 19.0414 34.1719 19.0622 34.1859C19.1168 34.2193 19.1837 34.2138 19.2314 34.1765C19.2376 34.1703 19.2437 34.1641 19.2507 34.1579C19.5261 33.8962 19.7638 33.4668 19.7922 33.1298C20.0784 33.0886 20.3707 33.063 20.6553 33.0164H20.6584H20.6576H20.6584C20.6707 33.0133 20.683 33.0117 20.6961 33.0102L20.6969 33.0094C20.6961 33.0102 20.6961 33.0102 20.6953 33.0102C20.6969 33.0094 20.6977 33.0086 20.6977 33.0086C20.7307 32.9985 20.76 32.9768 20.7792 32.9457" fill="#F96073"/>
<path fill-rule="evenodd" clip-rule="evenodd" d="M36.7373 27.7214C36.7019 27.6958 36.6596 27.6872 36.6196 27.6942C36.6196 27.6942 36.6188 27.6942 36.6181 27.695C36.6135 27.6958 36.6088 27.6966 36.605 27.6973L36.6027 27.6981C36.5988 27.6989 36.5958 27.7004 36.5919 27.702C36.5881 27.7036 36.5827 27.7051 36.5781 27.7059C36.2404 27.8488 35.8973 28.0662 35.6434 28.5119C35.338 28.442 35.0295 28.3481 34.7249 28.2836C34.7157 28.2813 34.7072 28.2797 34.6988 28.2766C34.6426 28.2704 34.5857 28.2945 34.5518 28.3434C34.5349 28.3667 34.5264 28.3916 34.5234 28.4187C34.5234 28.4358 34.5249 28.4514 34.5257 28.4684C34.5503 28.8699 34.6857 29.252 34.9926 29.6053C34.8218 29.8701 34.6695 30.1325 34.4995 30.3981C34.4934 30.4098 34.4857 30.4206 34.4787 30.4315C34.4449 30.5014 34.4657 30.5853 34.5295 30.6311C34.5372 30.6365 34.5449 30.6412 34.5534 30.6443C34.5672 30.6489 34.5826 30.6544 34.5972 30.6575C35.0249 30.7848 35.4526 30.7048 35.8365 30.5798C36.0296 30.8159 36.2281 31.0512 36.4227 31.2872C36.4296 31.295 36.435 31.3012 36.4419 31.3082C36.4481 31.316 36.455 31.3214 36.4627 31.3268C36.5273 31.3734 36.615 31.3626 36.6689 31.3051C36.6789 31.2903 36.6896 31.274 36.6996 31.2585C36.9581 30.8485 37.0089 30.4307 36.9958 30.0588C37.2827 29.9384 37.5704 29.8266 37.8574 29.707C37.8658 29.7039 37.8728 29.7008 37.8805 29.6977C37.902 29.6868 37.922 29.6705 37.9366 29.648C37.9766 29.5921 37.9751 29.5199 37.9389 29.4655C37.9328 29.4585 37.9274 29.4523 37.9205 29.4445C37.6612 29.13 37.2227 28.8466 36.8689 28.7954C36.8427 28.484 36.835 28.1687 36.8027 27.8581C36.8042 27.8573 36.8042 27.8565 36.8035 27.855C36.8035 27.8558 36.8042 27.8565 36.8042 27.8565C36.8042 27.8565 36.8035 27.8558 36.8035 27.855C36.8019 27.8418 36.8012 27.8286 36.7996 27.8146C36.7996 27.8138 36.7996 27.8138 36.7989 27.8138C36.7996 27.8138 36.7996 27.8138 36.7996 27.8154C36.7989 27.8138 36.7989 27.813 36.7989 27.8123C36.7896 27.7758 36.7696 27.7439 36.7373 27.7214" fill="#F96073"/>
<path fill-rule="evenodd" clip-rule="evenodd" d="M37.6742 21.4637C37.6181 21.4466 37.5604 21.4528 37.5119 21.4792H37.5112C37.505 21.4831 37.4996 21.4862 37.4958 21.4893C37.4942 21.4893 37.4927 21.4908 37.4927 21.4908C37.4888 21.4939 37.4858 21.4963 37.4812 21.4994C37.4758 21.5048 37.4704 21.5095 37.4658 21.5134C37.0957 21.8348 36.7488 22.2565 36.6103 22.9274C36.1942 22.967 35.7634 22.9771 35.3495 23.0229C35.338 23.0229 35.3257 23.0253 35.3141 23.0268C35.241 23.0408 35.1787 23.0959 35.1556 23.1712C35.1441 23.2077 35.1426 23.245 35.1503 23.2792C35.158 23.3001 35.1656 23.3203 35.1741 23.3413C35.3703 23.8406 35.6995 24.2677 36.2349 24.5876C36.128 24.9961 36.0426 25.3937 35.9372 25.8013C35.9318 25.8184 35.928 25.8355 35.9234 25.8534C35.9088 25.9551 35.9695 26.0537 36.0695 26.0856C36.0818 26.0887 36.0934 26.091 36.1049 26.0933C36.1265 26.0925 36.1465 26.0925 36.168 26.091C36.7619 26.0716 37.2719 25.7905 37.7081 25.4705C38.0512 25.6888 38.4004 25.9046 38.7451 26.1221C38.7558 26.129 38.7651 26.1368 38.7766 26.1422C38.7874 26.1485 38.7989 26.1531 38.8104 26.1562C38.912 26.1888 39.0197 26.1391 39.0635 26.0421C39.0712 26.0196 39.0766 25.9939 39.082 25.9714C39.242 25.3416 39.1351 24.7903 38.9658 24.3244C39.2797 24.0495 39.599 23.7863 39.9144 23.5145C39.9228 23.5075 39.9313 23.5005 39.939 23.4927C39.9613 23.4702 39.9797 23.4399 39.9905 23.4073C40.0174 23.3203 39.9844 23.2272 39.9182 23.1743C39.9074 23.1681 39.8959 23.1611 39.8867 23.1549C39.4266 22.8668 38.7543 22.689 38.2835 22.7737C38.122 22.3885 37.9819 21.9917 37.8142 21.6089C37.8142 21.6089 37.8135 21.6081 37.8127 21.6073C37.8135 21.6065 37.8142 21.6081 37.8142 21.6081C37.8142 21.6081 37.8135 21.6065 37.8127 21.6073C37.8058 21.5895 37.7981 21.5731 37.7919 21.5561H37.7904V21.5576C37.7904 21.5561 37.7896 21.5561 37.7881 21.553C37.7627 21.5118 37.7235 21.4792 37.6742 21.4637" fill="#F96073"/>
<path fill-rule="evenodd" clip-rule="evenodd" d="M36.6832 8.96867C36.6986 8.91431 36.6901 8.85918 36.6647 8.81259C36.6647 8.81259 36.6639 8.81259 36.6632 8.81181C36.6601 8.80638 36.657 8.80172 36.6532 8.79628C36.6539 8.79628 36.6524 8.79473 36.6532 8.79395C36.6493 8.79007 36.647 8.78696 36.6439 8.7823C36.6401 8.77842 36.6355 8.77376 36.6316 8.7691C36.3147 8.41578 35.9054 8.09197 35.2623 7.97394C35.2139 7.57092 35.1931 7.15315 35.14 6.75401C35.1385 6.74159 35.1369 6.72994 35.1354 6.71907C35.1185 6.6484 35.0669 6.58939 34.9931 6.56764C34.9577 6.55755 34.9231 6.55832 34.89 6.56531C34.8708 6.57308 34.8515 6.5824 34.8323 6.59016C34.3615 6.79439 33.9623 7.12286 33.6715 7.65168C33.2807 7.55772 32.8991 7.4855 32.5083 7.39232C32.4922 7.38921 32.4753 7.38455 32.4583 7.38067C32.3614 7.3698 32.2691 7.43114 32.2422 7.52821C32.2383 7.54063 32.2368 7.55228 32.2352 7.56315C32.236 7.58334 32.2368 7.60353 32.2383 7.62372C32.2706 8.20068 32.5522 8.68834 32.8676 9.10301C32.6683 9.44158 32.4714 9.78558 32.2729 10.1257C32.2668 10.1358 32.2606 10.1467 32.2552 10.1568C32.2499 10.1676 32.246 10.1785 32.2422 10.1902C32.2145 10.2895 32.2652 10.3928 32.3568 10.4332C32.3799 10.4394 32.4029 10.4441 32.426 10.4503C33.0284 10.5885 33.5522 10.4705 33.9923 10.2942C34.2615 10.5924 34.5184 10.896 34.7869 11.195C34.7938 11.2035 34.8 11.2105 34.8069 11.2183C34.83 11.24 34.8585 11.2571 34.8908 11.2664C34.9754 11.2905 35.0615 11.2571 35.1108 11.1895C35.1162 11.1794 35.1223 11.1686 35.1285 11.1585C35.3923 10.7058 35.5431 10.048 35.4516 9.59378C35.8139 9.4276 36.1885 9.28161 36.547 9.10922C36.5485 9.10845 36.5493 9.10845 36.5509 9.10767L36.5501 9.10922L36.5509 9.10767C36.5662 9.10068 36.5824 9.09292 36.5978 9.08593L36.5985 9.08437L36.597 9.08515C36.5985 9.08437 36.5993 9.0836 36.6001 9.0836C36.6393 9.0572 36.6693 9.01682 36.6832 8.96867" fill="#F96073"/>
<path fill-rule="evenodd" clip-rule="evenodd" d="M10.0605 5.39812C10.0774 5.43539 10.109 5.46101 10.1451 5.47421C10.1505 5.47577 10.1544 5.47732 10.1582 5.47887H10.1598C10.1644 5.47965 10.1659 5.48043 10.1705 5.48043C10.1744 5.4812 10.179 5.4812 10.1844 5.48198C10.5252 5.52081 10.9036 5.49906 11.3113 5.25135C11.5298 5.44781 11.7406 5.66602 11.9606 5.8586C11.9675 5.86403 11.9737 5.86947 11.9798 5.8749C12.0229 5.90597 12.0798 5.91295 12.1299 5.88811C12.1537 5.87646 12.1722 5.85937 12.1868 5.83918C12.1937 5.82521 12.2006 5.81201 12.2068 5.79803C12.3668 5.45791 12.4276 5.08284 12.3345 4.65342C12.593 4.51443 12.836 4.36844 13.0937 4.22944C13.1053 4.22323 13.1161 4.21701 13.1268 4.21158C13.1853 4.16965 13.2061 4.09122 13.1745 4.02444C13.1714 4.01745 13.1661 4.00968 13.1614 4.00347C13.1522 3.9926 13.1414 3.98173 13.1314 3.97163C12.8376 3.67189 12.4514 3.54221 12.0806 3.46922C12.0291 3.18734 11.9722 2.9039 11.9183 2.62047C11.916 2.61271 11.9145 2.60339 11.9129 2.59562C11.9106 2.58708 11.9075 2.57931 11.9037 2.57077C11.8714 2.50244 11.7945 2.4706 11.7252 2.4939C11.7106 2.50166 11.6944 2.5102 11.6791 2.51797C11.2844 2.7354 11.0544 3.05377 10.8983 3.36516C10.609 3.33255 10.3228 3.29217 10.0336 3.25878C10.0267 3.25878 10.019 3.25722 10.0121 3.25645C9.98897 3.25567 9.96513 3.26033 9.94282 3.27043C9.88512 3.29916 9.85435 3.35895 9.85974 3.41952C9.86127 3.42806 9.86281 3.4366 9.86435 3.44514C9.93666 3.82098 10.1682 4.25351 10.4344 4.45852C10.3167 4.72486 10.1813 4.98655 10.0674 5.25523C10.0667 5.25601 10.0667 5.25679 10.0659 5.25756C10.0613 5.26921 10.0567 5.28086 10.0505 5.29328C10.0505 5.29328 10.0513 5.29328 10.0513 5.29406C10.0513 5.29328 10.0513 5.29328 10.0513 5.29251C10.0513 5.29406 10.0505 5.29484 10.0505 5.29484C10.0421 5.32823 10.0444 5.36472 10.0605 5.39812Z" fill="#F96073"/>
<path fill-rule="evenodd" clip-rule="evenodd" d="M6.15741 11.0853C6.21126 11.1288 6.27742 11.1466 6.34204 11.1389C6.34204 11.1389 6.34204 11.1389 6.34281 11.1381C6.3505 11.1373 6.35819 11.1365 6.36512 11.135C6.36589 11.135 6.36819 11.1342 6.36819 11.1334C6.37435 11.1326 6.37896 11.1319 6.38589 11.1303C6.39358 11.128 6.39973 11.1257 6.4082 11.1218C6.95592 10.9292 7.51902 10.6147 7.96058 9.93368C8.43753 10.0719 8.91756 10.2489 9.39297 10.3802C9.40758 10.3841 9.42143 10.3879 9.43528 10.3911C9.52297 10.4066 9.61452 10.3747 9.67375 10.3002C9.70144 10.2645 9.7176 10.2241 9.72529 10.1829C9.72529 10.1573 9.72529 10.1309 9.72606 10.1045C9.72221 9.46776 9.54297 8.85042 9.08756 8.26336C9.3822 7.85957 9.64606 7.45655 9.93838 7.05276C9.95069 7.0349 9.96299 7.01859 9.97607 7.00151C10.0345 6.89512 10.0107 6.75923 9.91376 6.6808C9.90222 6.67148 9.88991 6.66372 9.87761 6.6575C9.8553 6.64818 9.83145 6.63964 9.80837 6.6311C9.14218 6.39193 8.45907 6.47968 7.83904 6.64353C7.55364 6.25138 7.26132 5.86078 6.97361 5.46941C6.96515 5.45699 6.95669 5.44456 6.94746 5.43292C6.93822 5.42282 6.92745 5.41195 6.91592 5.40263C6.81668 5.32265 6.67744 5.33197 6.58821 5.41739C6.57051 5.44068 6.55205 5.46553 6.53513 5.48883C6.08818 6.11393 5.97048 6.7701 5.95817 7.36104C5.49353 7.52489 5.02659 7.67553 4.56195 7.8386C4.54964 7.84326 4.53733 7.84715 4.52502 7.8518C4.49041 7.86734 4.45733 7.89218 4.43117 7.9248C4.36425 8.01022 4.3604 8.12514 4.41194 8.21289C4.4204 8.22532 4.42963 8.23774 4.43887 8.25016C4.82196 8.76966 5.48969 9.25965 6.04587 9.37225C6.05895 9.86767 6.04279 10.3678 6.0651 10.8624C6.06433 10.8632 6.06433 10.8647 6.06433 10.8663L6.06356 10.8655C6.06356 10.8655 6.06356 10.8663 6.06433 10.8663C6.0651 10.8888 6.06587 10.9098 6.06664 10.9307C6.06741 10.9323 6.06741 10.9323 6.06818 10.9331C6.06741 10.9323 6.06741 10.9323 6.06741 10.9307C6.06818 10.9323 6.06818 10.9346 6.06818 10.9362C6.07895 10.9929 6.10895 11.0464 6.15741 11.0853" fill="#F96073"/>
<path opacity="0.6" fill-rule="evenodd" clip-rule="evenodd" d="M3.59131 19.691C3.67363 19.712 3.75825 19.6965 3.82594 19.6553C3.82594 19.6553 3.82671 19.6538 3.82748 19.653C3.83594 19.6475 3.84363 19.6429 3.85056 19.6367C3.85133 19.6367 3.85363 19.6359 3.85363 19.6359C3.85979 19.6305 3.8644 19.6258 3.87133 19.6211C3.87748 19.6149 3.88441 19.6087 3.89133 19.601C4.41059 19.0939 4.88138 18.4432 5.02831 17.4422C5.6368 17.3459 6.26991 17.2931 6.87379 17.1883C6.89148 17.186 6.90841 17.1836 6.92687 17.1805C7.03303 17.151 7.11996 17.0671 7.14842 16.9522C7.1615 16.8971 7.15919 16.8435 7.14688 16.793C7.13303 16.7627 7.11919 16.734 7.10534 16.7053C6.77225 15.9878 6.25145 15.3867 5.43448 14.9651C5.5568 14.3547 5.64603 13.7615 5.76758 13.1511C5.77143 13.1247 5.77758 13.0999 5.78219 13.0742C5.79373 12.9228 5.69527 12.783 5.5468 12.7465C5.52834 12.7419 5.51064 12.7395 5.49295 12.7388C5.46295 12.7395 5.43218 12.7427 5.40218 12.7458C4.52752 12.8257 3.80209 13.287 3.18899 13.7964C2.66434 13.5052 2.13278 13.2194 1.60583 12.929C1.58967 12.9205 1.57275 12.9119 1.55659 12.9034C1.53967 12.8956 1.52428 12.8902 1.50505 12.8855C1.35274 12.8475 1.19965 12.9306 1.14273 13.0742C1.13503 13.1107 1.12734 13.1472 1.12042 13.1837C0.941178 14.1218 1.14811 14.9255 1.43966 15.5972C0.999642 16.0297 0.551927 16.4428 0.111905 16.873C0.100365 16.8847 0.0895957 16.8948 0.0780566 16.9056C0.0457473 16.9429 0.0211306 16.9879 0.0088223 17.0384C-0.0227178 17.1712 0.0326697 17.3017 0.13729 17.3746C0.153445 17.3832 0.16883 17.3917 0.185754 17.4003C0.88656 17.7847 1.89276 17.9842 2.57818 17.8196C2.84897 18.3702 3.09052 18.9432 3.37053 19.4884C3.3713 19.4907 3.3713 19.4915 3.37284 19.4938H3.3713H3.37284C3.38438 19.5179 3.39669 19.5419 3.409 19.566H3.41054L3.40823 19.5645C3.41053 19.566 3.41207 19.5676 3.41284 19.5691C3.45438 19.6281 3.51593 19.6732 3.59131 19.691" fill="#F96073"/>
<path opacity="0.35" fill-rule="evenodd" clip-rule="evenodd" d="M12.4312 20.0611C12.4312 19.9912 12.4028 19.9283 12.3574 19.8825C12.3574 19.8825 12.3566 19.8817 12.3558 19.8817C12.3504 19.8755 12.3451 19.8709 12.3397 19.8662C12.3397 19.8662 12.3374 19.8647 12.3374 19.8639C12.332 19.86 12.3289 19.8569 12.3227 19.853C12.3166 19.8491 12.3104 19.8445 12.3035 19.8406C11.8112 19.5284 11.2173 19.2807 10.4134 19.3568C10.2226 18.8948 10.0603 18.4048 9.86416 17.9482C9.85878 17.9342 9.85262 17.9218 9.84801 17.9086C9.80416 17.8294 9.72262 17.7773 9.628 17.7773C9.58261 17.7773 9.54184 17.789 9.50491 17.8092C9.48414 17.8255 9.46491 17.841 9.44414 17.8581C8.95258 18.258 8.5864 18.7845 8.4164 19.5106C7.91945 19.5307 7.44327 19.5735 6.94709 19.5944C6.92632 19.596 6.90555 19.5968 6.88478 19.5975C6.76554 19.6177 6.67554 19.7218 6.67554 19.8468C6.67554 19.8615 6.67784 19.8763 6.68015 19.8903C6.68631 19.9136 6.69477 19.9369 6.70323 19.9609C6.93247 20.635 7.42865 21.1195 7.94099 21.5062C7.81483 21.9768 7.69559 22.4513 7.57174 22.9234C7.56866 22.9374 7.56481 22.9521 7.56097 22.9661C7.55789 22.9809 7.55789 22.9941 7.55789 23.0096C7.55789 23.1377 7.65097 23.2433 7.77329 23.2596C7.80252 23.2596 7.83252 23.2581 7.86175 23.2565C8.62333 23.2185 9.20644 22.9017 9.67184 22.5429C10.0896 22.8077 10.4957 23.0826 10.9134 23.3458C10.925 23.3536 10.935 23.3606 10.9458 23.3676C10.9804 23.3854 11.0196 23.3963 11.0611 23.3963C11.1696 23.3963 11.2612 23.328 11.2965 23.2309C11.3004 23.2169 11.3042 23.2022 11.3081 23.1874C11.4712 22.5608 11.4335 21.7275 11.1742 21.2181C11.5496 20.899 11.9473 20.5993 12.3158 20.2731C12.3181 20.2731 12.3189 20.2723 12.3197 20.2708V20.2723V20.2708C12.3358 20.2568 12.352 20.2428 12.3681 20.2288V20.2273C12.3681 20.2281 12.3681 20.2281 12.3681 20.2288C12.3681 20.2273 12.3697 20.2257 12.3704 20.2242C12.4089 20.1807 12.4312 20.1232 12.4312 20.0611" fill="#F96073"/>
<path opacity="0.35" fill-rule="evenodd" clip-rule="evenodd" d="M12.2531 36.5063C12.2746 36.4713 12.28 36.431 12.2708 36.3929V36.3929C12.2692 36.3883 12.2685 36.3836 12.2677 36.3797L12.2669 36.3782C12.2654 36.3743 12.2646 36.372 12.2631 36.3681C12.2608 36.3634 12.2592 36.3603 12.2569 36.3556C12.1069 36.0435 11.8854 35.7329 11.4592 35.5193C11.5069 35.2281 11.5769 34.9307 11.6192 34.6395C11.6207 34.6318 11.6223 34.6224 11.6238 34.6147C11.6261 34.5619 11.6015 34.5091 11.5538 34.4803C11.5315 34.4656 11.5069 34.4586 11.483 34.457C11.4676 34.4586 11.4523 34.4601 11.4369 34.4625C11.0669 34.5083 10.7207 34.6574 10.4114 34.9672C10.1568 34.8212 9.90449 34.6915 9.64986 34.5471C9.63909 34.5409 9.62755 34.5347 9.61755 34.5285C9.55139 34.5013 9.47447 34.5246 9.43523 34.5875C9.43139 34.5945 9.42754 34.603 9.42446 34.6108C9.42062 34.624 9.41677 34.6387 9.41446 34.6527C9.32061 35.0635 9.41908 35.4626 9.55678 35.8175C9.34908 36.0132 9.14214 36.2128 8.93444 36.4108C8.92828 36.417 8.92213 36.4232 8.91598 36.4286C8.90982 36.4349 8.90444 36.4418 8.90059 36.4496C8.86059 36.5141 8.87521 36.5956 8.93136 36.643C8.94598 36.6515 8.96136 36.6608 8.97598 36.6686C9.36985 36.8899 9.75987 36.914 10.1037 36.8806C10.2314 37.1446 10.3499 37.4102 10.4776 37.675C10.4807 37.682 10.4837 37.6874 10.4876 37.6952C10.4984 37.7153 10.5153 37.7332 10.5361 37.7456C10.5907 37.7806 10.6576 37.7744 10.7053 37.7379C10.7115 37.7317 10.7176 37.7254 10.7245 37.7192C10.9999 37.4568 11.2376 37.0273 11.2661 36.6903C11.5523 36.6492 11.8446 36.6235 12.1292 36.5762C12.1308 36.577 12.1315 36.577 12.1323 36.5762C12.1323 36.577 12.1315 36.5777 12.1315 36.5777C12.1315 36.5777 12.1323 36.577 12.1323 36.5762C12.1446 36.5746 12.1569 36.5731 12.17 36.5707V36.57H12.1692C12.1708 36.57 12.1715 36.57 12.1715 36.5692C12.2046 36.5591 12.2338 36.5374 12.2531 36.5063" fill="#F96073"/>
<path opacity="0.35" fill-rule="evenodd" clip-rule="evenodd" d="M34.4611 32.4885C34.4688 32.4186 34.4473 32.3526 34.4065 32.3021L34.4058 32.3014C34.4011 32.2952 34.3958 32.2889 34.3911 32.2843C34.3911 32.2835 34.3896 32.282 34.3888 32.282C34.3842 32.2781 34.3811 32.275 34.3765 32.2695C34.3704 32.2641 34.3642 32.2594 34.3573 32.2548C33.9027 31.8906 33.3372 31.5792 32.5318 31.5676C32.3918 31.0877 32.2826 30.5837 32.1372 30.1077C32.1333 30.0937 32.1287 30.0797 32.1241 30.0665C32.0903 29.9827 32.0141 29.9221 31.9202 29.912C31.8764 29.9073 31.8333 29.9151 31.7949 29.9299C31.7733 29.9446 31.751 29.9578 31.7295 29.9726C31.1979 30.3166 30.7771 30.7996 30.5317 31.5023C30.0348 31.4682 29.5571 31.4588 29.0616 31.4254C29.0409 31.4239 29.0201 31.4223 28.9993 31.4208C28.8793 31.4286 28.7778 31.5217 28.7647 31.646C28.7632 31.6607 28.7632 31.6755 28.7639 31.6895C28.7685 31.7135 28.7739 31.7376 28.7793 31.7617C28.9362 32.4582 29.3755 32.9933 29.844 33.4336C29.6694 33.887 29.4994 34.3468 29.3263 34.8002C29.3201 34.815 29.314 34.829 29.3101 34.8422C29.3063 34.8569 29.3024 34.8701 29.3009 34.8864C29.287 35.013 29.3693 35.1272 29.4894 35.1582C29.5186 35.1606 29.5486 35.1621 29.5771 35.1637C30.3394 35.2095 30.9517 34.9594 31.4525 34.6527C31.8387 34.961 32.2149 35.2786 32.6003 35.5869C32.6103 35.5954 32.6203 35.604 32.6303 35.6109C32.6626 35.6327 32.7011 35.6474 32.7426 35.6521C32.8495 35.6645 32.948 35.6055 32.9934 35.5139C32.9988 35.5007 33.0049 35.4859 33.0103 35.4719C33.2395 34.867 33.2911 34.0354 33.088 33.5011C33.4957 33.2239 33.9219 32.97 34.3242 32.6865C34.325 32.6858 34.3265 32.6858 34.3281 32.6842L34.3273 32.6858C34.3273 32.6858 34.3281 32.685 34.3281 32.6842C34.3458 32.6718 34.3627 32.6601 34.3804 32.6477C34.3804 32.6462 34.3811 32.6462 34.3811 32.6462C34.3811 32.6462 34.3804 32.6462 34.3804 32.6477C34.3811 32.6462 34.3819 32.6446 34.3835 32.6446C34.4258 32.6034 34.4542 32.5499 34.4611 32.4885" fill="#F96073"/>
<path opacity="0.35" fill-rule="evenodd" clip-rule="evenodd" d="M26.7531 20.0712C26.7231 20.058 26.69 20.0588 26.6616 20.0705V20.0705C26.6577 20.072 26.6546 20.0736 26.6523 20.0751C26.6516 20.0751 26.6508 20.0751 26.6508 20.0759C26.6477 20.0774 26.6462 20.0782 26.6431 20.0798C26.64 20.0821 26.6369 20.0844 26.6339 20.0868C26.4077 20.2436 26.1892 20.4579 26.0723 20.8245C25.8369 20.8214 25.5961 20.8004 25.3623 20.8012C25.3561 20.8004 25.3492 20.8012 25.3423 20.8012C25.3007 20.8043 25.263 20.8322 25.2453 20.8726C25.2369 20.8928 25.2338 20.913 25.2361 20.9324C25.2384 20.9448 25.2422 20.9565 25.2453 20.9681C25.3261 21.2585 25.4838 21.5179 25.7638 21.7283C25.6792 21.9504 25.6084 22.1671 25.5253 22.3884C25.5215 22.3977 25.5184 22.4078 25.5146 22.4171C25.5007 22.473 25.5284 22.5321 25.5823 22.5553C25.5892 22.5577 25.5953 22.56 25.6015 22.5616C25.6138 22.5623 25.6246 22.5639 25.6369 22.5647C25.97 22.5895 26.2715 22.4637 26.5339 22.3115C26.7123 22.4536 26.8946 22.5957 27.0739 22.7386C27.08 22.7425 27.0846 22.7471 27.0908 22.751C27.0962 22.7549 27.1023 22.758 27.1085 22.7611C27.1639 22.7852 27.227 22.7642 27.257 22.7122C27.2624 22.7006 27.267 22.6866 27.2716 22.6742C27.3985 22.3317 27.3716 22.018 27.3047 21.7462C27.4962 21.6126 27.6901 21.4853 27.8824 21.3517C27.8878 21.3494 27.8924 21.3463 27.8978 21.3424C27.9116 21.3308 27.9232 21.3152 27.9316 21.2974C27.9516 21.25 27.9393 21.1964 27.9047 21.1623C27.8993 21.1584 27.8932 21.1537 27.8878 21.1506C27.6485 20.9611 27.2831 20.8214 27.0154 20.8392C26.9485 20.6148 26.8939 20.3842 26.8231 20.1613C26.8223 20.1613 26.8223 20.1605 26.8223 20.1605H26.8231L26.8223 20.1598C26.8193 20.1497 26.8162 20.1403 26.8139 20.1302C26.8131 20.1302 26.8131 20.1302 26.8131 20.1302V20.131C26.8131 20.1302 26.8123 20.1295 26.8123 20.1287C26.8 20.1038 26.78 20.0829 26.7531 20.0712" fill="#F96073"/>
<path opacity="0.35" fill-rule="evenodd" clip-rule="evenodd" d="M13.4185 12.5027C13.4585 12.5283 13.5054 12.5353 13.5485 12.526C13.5485 12.526 13.5492 12.5252 13.55 12.5244C13.5554 12.5237 13.56 12.5221 13.5646 12.5213L13.5662 12.5205C13.5708 12.519 13.5739 12.5182 13.5785 12.5159C13.5831 12.5136 13.5877 12.512 13.5923 12.5089C13.9546 12.3357 14.3162 12.0779 14.5693 11.5771C14.9062 11.6361 15.2478 11.7215 15.584 11.7751C15.594 11.7766 15.604 11.7782 15.6132 11.7805C15.674 11.7836 15.7347 11.7549 15.7701 11.6998C15.7863 11.6734 15.7947 11.6446 15.7963 11.6159C15.7947 11.598 15.7932 11.5794 15.7901 11.5623C15.7417 11.1251 15.5732 10.7159 15.2178 10.3486C15.3893 10.0489 15.5409 9.75377 15.7117 9.45403C15.7186 9.44161 15.7255 9.42918 15.7332 9.41676C15.7647 9.33911 15.7386 9.24825 15.6663 9.20244C15.6578 9.19622 15.6486 9.19156 15.6401 9.18846C15.624 9.1838 15.607 9.17992 15.5909 9.17603C15.117 9.06188 14.6547 9.1737 14.2424 9.33212C14.0177 9.08518 13.7885 8.8398 13.5623 8.59208C13.5554 8.58587 13.5485 8.57811 13.5416 8.57034C13.5339 8.56335 13.5269 8.55714 13.5177 8.55248C13.4446 8.50434 13.3492 8.52142 13.2938 8.58665C13.2838 8.60373 13.2731 8.62237 13.2631 8.63945C13.0038 9.10071 12.9715 9.56042 13.0069 9.96576C12.6992 10.1133 12.3915 10.2515 12.0846 10.3991C12.0769 10.403 12.0699 10.4061 12.0607 10.4099C12.0376 10.4231 12.0169 10.4433 12.0015 10.4674C11.9615 10.5311 11.9684 10.6095 12.0099 10.6662C12.0169 10.674 12.0238 10.6809 12.0307 10.6895C12.3315 11.0164 12.8261 11.3014 13.2154 11.3379C13.2608 11.6757 13.2869 12.0197 13.3385 12.3567C13.3385 12.3582 13.3377 12.359 13.3385 12.3598L13.3377 12.359L13.3385 12.3598C13.3408 12.3746 13.3423 12.3893 13.3446 12.4048H13.3454V12.4033C13.3454 12.4048 13.3462 12.4056 13.3469 12.4072C13.3577 12.4452 13.3831 12.4802 13.4185 12.5027" fill="#F96073"/>
<path opacity="0.35" fill-rule="evenodd" clip-rule="evenodd" d="M29.1167 7.23137C29.0767 7.21428 29.0336 7.21506 28.9952 7.23059V7.23059C28.9898 7.23215 28.986 7.23447 28.9829 7.23603C28.9813 7.23603 28.9806 7.2368 28.9806 7.23758C28.9767 7.23913 28.9744 7.24069 28.9706 7.24224C28.9667 7.24612 28.9629 7.24845 28.9583 7.25156C28.6582 7.45967 28.3682 7.74465 28.2128 8.23154C27.9005 8.22688 27.5805 8.1997 27.2705 8.20048C27.2612 8.1997 27.2528 8.20048 27.2436 8.20048C27.1882 8.20514 27.1382 8.24086 27.1143 8.29599C27.1035 8.32162 27.0989 8.34879 27.102 8.3752C27.1059 8.3915 27.1105 8.40626 27.1143 8.42256C27.222 8.80772 27.4313 9.1525 27.8036 9.43128C27.6913 9.72636 27.5967 10.0137 27.4866 10.308C27.4813 10.3204 27.4766 10.3328 27.472 10.3452C27.4536 10.419 27.4913 10.4982 27.562 10.5301C27.5713 10.5324 27.5797 10.5355 27.5874 10.5378C27.6043 10.5394 27.6182 10.5409 27.6343 10.5417C28.0767 10.5751 28.4775 10.4081 28.8259 10.2055C29.0629 10.3949 29.3044 10.5829 29.5429 10.7723C29.5506 10.7778 29.5568 10.7848 29.5652 10.7894C29.5721 10.7941 29.5806 10.7987 29.5891 10.8026C29.6614 10.8352 29.7452 10.8065 29.7852 10.739C29.7929 10.7226 29.7991 10.704 29.8052 10.6869C29.9737 10.2334 29.9375 9.81566 29.8491 9.45612C30.1029 9.2783 30.3614 9.10902 30.616 8.93197C30.623 8.92808 30.6291 8.9242 30.636 8.91877C30.6545 8.90324 30.6707 8.88227 30.6814 8.85897C30.7083 8.79607 30.6914 8.72541 30.646 8.68037C30.6383 8.67494 30.6307 8.66872 30.6237 8.66329C30.3053 8.41247 29.8206 8.22688 29.4652 8.25173C29.376 7.95354 29.3037 7.64681 29.2098 7.35095C29.209 7.35095 29.209 7.3494 29.2083 7.34862C29.209 7.34862 29.2098 7.3494 29.2098 7.3494C29.2098 7.3494 29.209 7.34862 29.2083 7.34862C29.2044 7.33542 29.2006 7.323 29.1967 7.3098C29.196 7.3098 29.196 7.3098 29.196 7.3098V7.31135C29.196 7.3098 29.196 7.30902 29.1952 7.30747C29.179 7.27485 29.1521 7.2469 29.1167 7.23137" fill="#F96073"/>
<path opacity="0.8" fill-rule="evenodd" clip-rule="evenodd" d="M16.3965 29.8374C16.3965 29.79 16.3773 29.7466 16.3465 29.7147C16.3465 29.7147 16.3457 29.7147 16.345 29.7139C16.3411 29.7101 16.3373 29.707 16.3334 29.7031C16.3334 29.7023 16.3326 29.7023 16.3326 29.7015C16.3288 29.6992 16.3257 29.6969 16.3219 29.6945C16.318 29.6922 16.3134 29.6891 16.3088 29.686C15.9696 29.4701 15.5603 29.3001 15.0064 29.3521C14.8749 29.0337 14.7626 28.6967 14.6279 28.3814C14.6241 28.3721 14.6203 28.3636 14.6164 28.3542C14.5864 28.3007 14.5302 28.2642 14.4649 28.2642C14.4341 28.2642 14.4056 28.2719 14.3802 28.2859C14.3664 28.2968 14.3525 28.3084 14.3387 28.3193C13.9995 28.595 13.7479 28.9576 13.6302 29.4585C13.2879 29.4717 12.9602 29.5012 12.6178 29.5159C12.604 29.5175 12.5894 29.5175 12.5748 29.5183C12.4932 29.5322 12.4309 29.6037 12.4309 29.6906C12.4309 29.7 12.4324 29.7101 12.434 29.7202C12.4386 29.7357 12.444 29.7528 12.4501 29.7683C12.6078 30.2334 12.9502 30.5666 13.3025 30.8337C13.2163 31.1567 13.134 31.4844 13.0486 31.809C13.0463 31.8199 13.044 31.8284 13.0409 31.8393C13.0394 31.8494 13.0386 31.8595 13.0386 31.8696C13.0386 31.9573 13.1033 32.0303 13.1879 32.042C13.2079 32.0412 13.2279 32.0404 13.2479 32.0396C13.7733 32.014 14.1748 31.795 14.4949 31.5481C14.7833 31.7306 15.0634 31.9193 15.3511 32.1018C15.3588 32.1064 15.3657 32.1111 15.3726 32.1157C15.3972 32.1282 15.4241 32.1352 15.4526 32.1352C15.528 32.1352 15.5903 32.0878 15.6149 32.0218C15.618 32.0125 15.6203 32.0016 15.6226 31.9923C15.7357 31.5605 15.7088 30.9859 15.5311 30.6349C15.7888 30.4151 16.0634 30.2094 16.3173 29.9842C16.318 29.9826 16.3188 29.9826 16.3196 29.9826C16.3311 29.9725 16.3426 29.9632 16.3534 29.9523H16.3526C16.3534 29.9523 16.3542 29.9508 16.355 29.9508C16.3811 29.9205 16.3965 29.8801 16.3965 29.8374Z" fill="#F96073"/>
<path opacity="0.8" fill-rule="evenodd" clip-rule="evenodd" d="M27.6752 34.3631C27.6483 34.2815 27.5906 34.2179 27.519 34.1829H27.5167C27.5075 34.1782 27.499 34.1744 27.4906 34.1705L27.4883 34.1689C27.4806 34.1666 27.4744 34.1643 27.4667 34.1612C27.4575 34.1596 27.4483 34.1565 27.439 34.155C26.7359 33.9849 25.9397 33.9313 25.0243 34.3436C24.6173 33.8762 24.2335 33.3652 23.8235 32.9055C23.8119 32.8915 23.7996 32.8783 23.7881 32.8644C23.7065 32.7906 23.5896 32.7611 23.478 32.7984C23.425 32.817 23.3819 32.8481 23.3465 32.8853C23.3288 32.9125 23.3111 32.9405 23.2942 32.9676C22.8726 33.6355 22.6495 34.4019 22.7342 35.3236C22.158 35.5465 21.6141 35.788 21.0387 36.0116C21.0148 36.0225 20.9902 36.0303 20.9656 36.0404C20.8333 36.1118 20.7694 36.2694 20.8179 36.417C20.8241 36.4348 20.8325 36.4511 20.8402 36.4667C20.8571 36.4923 20.8764 36.5156 20.8948 36.5405C21.4303 37.2432 22.2049 37.6144 22.9596 37.8637C22.9973 38.467 23.0426 39.0735 23.0826 39.6776C23.0834 39.6963 23.0857 39.7157 23.0873 39.7335C23.0896 39.7514 23.0934 39.7685 23.0996 39.7863C23.1496 39.937 23.3011 40.0232 23.4519 39.9945C23.4865 39.982 23.5211 39.9688 23.555 39.9548C24.4366 39.6054 24.9981 38.9989 25.4035 38.3901C25.9997 38.5338 26.5859 38.6938 27.1813 38.839C27.1975 38.8421 27.2121 38.846 27.2275 38.8498C27.2752 38.8568 27.3259 38.8537 27.3744 38.8374C27.5029 38.7932 27.5821 38.6767 27.5875 38.5486C27.586 38.5299 27.5844 38.5121 27.5829 38.4926C27.529 37.6889 27.1567 36.7245 26.6521 36.2283C26.9675 35.7041 27.3175 35.1908 27.6236 34.6597C27.6252 34.6581 27.626 34.6574 27.6275 34.655V34.6566V34.655C27.6406 34.6317 27.6544 34.6084 27.6683 34.5859L27.6675 34.5844L27.6667 34.5859C27.6675 34.5844 27.6675 34.582 27.669 34.5797C27.696 34.5129 27.6998 34.4368 27.6752 34.3631" fill="#F96073"/>
<path opacity="0.8" fill-rule="evenodd" clip-rule="evenodd" d="M4.86428 22.4757C4.86428 22.4183 4.84121 22.3662 4.80351 22.329C4.80351 22.329 4.80274 22.3274 4.80197 22.3274C4.79736 22.3227 4.79274 22.3189 4.78813 22.315L4.78659 22.3134C4.78197 22.3103 4.77966 22.3072 4.77505 22.3041C4.76966 22.3002 4.76428 22.2971 4.75813 22.294C4.35118 22.0354 3.85962 21.8304 3.19497 21.8933C3.03727 21.5113 2.90265 21.1059 2.74033 20.7285C2.73571 20.7161 2.7311 20.706 2.72725 20.6951C2.6911 20.6299 2.6234 20.5864 2.54493 20.5864C2.50724 20.5864 2.47416 20.5965 2.44416 20.6136C2.42647 20.6268 2.40954 20.64 2.39339 20.6532C1.98644 20.9848 1.68335 21.4204 1.54335 22.0207C1.13179 22.0378 0.737919 22.0719 0.327129 22.0906C0.310205 22.0921 0.293281 22.0921 0.275588 22.0929C0.177121 22.1092 0.103271 22.1954 0.103271 22.2987C0.103271 22.3111 0.10481 22.3235 0.106349 22.3344C0.111733 22.3546 0.118657 22.374 0.12558 22.3926C0.31559 22.951 0.725611 23.3524 1.14948 23.6724C1.04563 24.0606 0.946391 24.4535 0.844079 24.8434C0.841001 24.855 0.838694 24.8674 0.835617 24.8799C0.833309 24.8915 0.83254 24.9032 0.83254 24.9164C0.83254 25.0212 0.909467 25.1089 1.01101 25.1221C1.03486 25.1221 1.06024 25.1206 1.08409 25.1198C1.71412 25.0887 2.19646 24.8263 2.58109 24.5296C2.92649 24.7478 3.26343 24.9754 3.60884 25.1943C3.61807 25.1998 3.62653 25.206 3.63499 25.2114C3.66345 25.227 3.69653 25.2355 3.73038 25.2355C3.82038 25.2355 3.89577 25.178 3.92577 25.0988C3.92885 25.0872 3.93193 25.0755 3.93501 25.0631C4.0704 24.5444 4.03886 23.8548 3.82423 23.434C4.13502 23.1692 4.46349 22.9214 4.76889 22.652C4.77043 22.652 4.7712 22.6512 4.77197 22.6504V22.6512V22.6504C4.78505 22.638 4.7989 22.6264 4.81274 22.6155V22.6139L4.81197 22.6155C4.81274 22.6139 4.81351 22.6124 4.81351 22.6116C4.84505 22.5751 4.86428 22.527 4.86428 22.4757" fill="#F96073"/>
<path opacity="0.8" fill-rule="evenodd" clip-rule="evenodd" d="M32.4833 11.9008C32.4533 11.8876 32.4202 11.8884 32.3918 11.9V11.9C32.3879 11.9016 32.3849 11.9031 32.3825 11.9047C32.3818 11.9047 32.381 11.9047 32.381 11.9055C32.3779 11.907 32.3764 11.9078 32.3733 11.9094C32.3702 11.9117 32.3672 11.914 32.3641 11.9164C32.1379 12.0732 31.9194 12.2875 31.8025 12.6541C31.5679 12.6509 31.3263 12.63 31.0925 12.6308C31.0863 12.63 31.0794 12.6308 31.0725 12.6308C31.0309 12.6346 30.9932 12.661 30.9755 12.7022C30.9671 12.7224 30.964 12.7426 30.9663 12.762C30.9686 12.7744 30.9725 12.7861 30.9755 12.7985C31.0563 13.0881 31.214 13.3475 31.494 13.5579C31.4094 13.78 31.3386 13.9967 31.2556 14.218C31.2517 14.2273 31.2486 14.2366 31.2448 14.2467C31.2309 14.3018 31.2586 14.3616 31.3125 14.3849C31.3194 14.3873 31.3256 14.3896 31.3317 14.3911C31.344 14.3919 31.3548 14.3935 31.3671 14.3943C31.7002 14.4191 32.0018 14.2933 32.2641 14.1411C32.4425 14.2832 32.6249 14.4253 32.8041 14.5674C32.8103 14.5721 32.8149 14.5767 32.821 14.5806C32.8264 14.5845 32.8326 14.5876 32.8387 14.5907C32.8941 14.6148 32.9572 14.593 32.9872 14.5426C32.9926 14.5301 32.9972 14.5162 33.0018 14.5037C33.1287 14.1621 33.1018 13.8476 33.0349 13.5766C33.2264 13.4422 33.4203 13.3149 33.6126 13.1821C33.618 13.179 33.6226 13.1759 33.628 13.172C33.6418 13.1604 33.6534 13.1448 33.6618 13.127C33.6818 13.0796 33.6695 13.026 33.6349 12.9926C33.6295 12.988 33.6234 12.9833 33.6188 12.9794C33.3787 12.7907 33.0133 12.6509 32.7456 12.6696C32.6787 12.4444 32.6241 12.2138 32.5533 11.9909C32.5533 11.9909 32.5526 11.9901 32.5526 11.9893L32.5533 11.9901L32.5526 11.9893C32.5495 11.9792 32.5464 11.9699 32.5441 11.9598C32.5433 11.9598 32.5433 11.9598 32.5433 11.9598V11.9606C32.5433 11.9598 32.5426 11.9591 32.5426 11.9583C32.5302 11.9334 32.5102 11.9125 32.4833 11.9008" fill="#F96073"/>
<path opacity="0.8" fill-rule="evenodd" clip-rule="evenodd" d="M8.47092 14.5729C8.48784 14.6102 8.51861 14.6358 8.55554 14.649V14.649C8.56092 14.6498 8.56477 14.6521 8.56938 14.6529L8.57015 14.6537C8.574 14.6537 8.57708 14.6545 8.58169 14.6545C8.58554 14.656 8.59015 14.656 8.59477 14.6568C8.93556 14.6956 9.31481 14.6739 9.72175 14.4254C9.94022 14.6218 10.1518 14.84 10.371 15.0326C10.3779 15.0388 10.3833 15.0443 10.3902 15.0497C10.4333 15.08 10.4903 15.0878 10.541 15.0629C10.5641 15.0513 10.5833 15.0342 10.5979 15.014C10.6041 15 10.611 14.986 10.6179 14.9721C10.778 14.6319 10.8387 14.2576 10.7449 13.8282C11.0034 13.6885 11.2464 13.5432 11.5049 13.4035C11.5157 13.3973 11.5272 13.3918 11.5372 13.3856C11.5957 13.3437 11.6165 13.2652 11.5849 13.1992C11.5818 13.1915 11.5772 13.1845 11.5726 13.1783C11.5626 13.1666 11.5526 13.1558 11.5418 13.1457C11.2488 12.8467 10.8618 12.717 10.491 12.644C10.4395 12.3614 10.3826 12.0787 10.3287 11.7953C10.3264 11.7875 10.3256 11.779 10.3233 11.7696C10.3218 11.7611 10.3179 11.7533 10.3141 11.7456C10.2818 11.6772 10.2049 11.6454 10.1364 11.6687C10.121 11.6765 10.1048 11.6842 10.0902 11.6928C9.69406 11.9094 9.46481 12.2294 9.30865 12.54C9.01941 12.5074 8.73324 12.467 8.44476 12.4336C8.43707 12.4328 8.43014 12.432 8.42245 12.4313C8.39937 12.4297 8.37553 12.4344 8.35399 12.4452C8.29552 12.4732 8.26475 12.5338 8.27014 12.5943C8.27167 12.6029 8.27321 12.6114 8.27552 12.6199C8.34706 12.995 8.57861 13.4283 8.84555 13.6325C8.72708 13.8989 8.59169 14.1614 8.47784 14.43C8.47707 14.43 8.47707 14.4316 8.47707 14.4324C8.4763 14.4316 8.4763 14.4316 8.4763 14.4316C8.4763 14.4316 8.4763 14.4316 8.47707 14.4324C8.47169 14.4432 8.46707 14.4557 8.46092 14.4673C8.46168 14.4681 8.46168 14.4681 8.46168 14.4681C8.46168 14.4681 8.46168 14.4681 8.46168 14.4673C8.46168 14.4681 8.46168 14.4689 8.46168 14.4696C8.45245 14.5023 8.45476 14.5403 8.47092 14.5729" fill="#F96073"/>
<path opacity="0.8" fill-rule="evenodd" clip-rule="evenodd" d="M24.683 5.35168C24.636 5.34158 24.5883 5.3509 24.5506 5.37498C24.5506 5.37498 24.5506 5.37575 24.5499 5.37653C24.5453 5.37963 24.5414 5.38274 24.5376 5.38585H24.5353C24.5322 5.38895 24.5299 5.39128 24.526 5.39439C24.5222 5.39827 24.5183 5.40215 24.5145 5.40604C24.2283 5.69723 23.9706 6.06764 23.8998 6.63218C23.5591 6.69352 23.2029 6.73002 22.8644 6.79525C22.8544 6.7968 22.8452 6.79913 22.8352 6.80068C22.7752 6.81854 22.7275 6.86669 22.7129 6.93192C22.7059 6.96298 22.7075 6.99326 22.7159 7.02122C22.7236 7.03752 22.7313 7.05383 22.7398 7.07014C22.9344 7.47005 23.2344 7.80241 23.6983 8.02915C23.6367 8.37471 23.5921 8.70939 23.5306 9.05339C23.5283 9.06815 23.526 9.0829 23.5237 9.09688C23.5191 9.1823 23.5752 9.25995 23.6598 9.27859C23.6698 9.28092 23.6798 9.28169 23.6898 9.28247C23.7068 9.28169 23.7237 9.27936 23.7406 9.27703C24.2314 9.2219 24.6345 8.95555 24.9737 8.66202C25.2714 8.81966 25.5738 8.97419 25.873 9.13182C25.883 9.13648 25.8915 9.14036 25.9007 9.1458C25.9107 9.14968 25.9199 9.15279 25.9299 9.15512C26.0161 9.17376 26.1015 9.12561 26.1323 9.04408C26.1361 9.02466 26.14 9.0037 26.143 8.98351C26.2338 8.45314 26.1092 8.00353 25.9376 7.62924C26.18 7.3823 26.4269 7.14391 26.67 6.89697C26.6761 6.89076 26.6823 6.88532 26.6884 6.87834C26.7061 6.85737 26.7192 6.83174 26.7254 6.80379C26.7423 6.72847 26.71 6.65547 26.65 6.61587C26.6407 6.61121 26.6323 6.60655 26.6223 6.60189C26.2238 6.39378 25.6561 6.29283 25.273 6.393C25.1145 6.08628 24.9722 5.76712 24.8083 5.4635C24.8083 5.46195 24.8083 5.46195 24.8076 5.46039H24.8083H24.8076C24.8007 5.44719 24.7937 5.43399 24.786 5.42079L24.7853 5.42001L24.786 5.42079C24.7853 5.42001 24.7853 5.41924 24.7837 5.41846C24.7599 5.38585 24.7253 5.361 24.683 5.35168" fill="#F96073"/>
<path opacity="0.8" fill-rule="evenodd" clip-rule="evenodd" d="M30.5099 3.47719C30.5099 3.43836 30.4945 3.40264 30.4691 3.37701C30.4691 3.37701 30.4684 3.37701 30.4676 3.37701C30.4645 3.37391 30.4614 3.3708 30.4584 3.3677L30.4576 3.36692C30.4545 3.36459 30.4522 3.36304 30.4491 3.36071C30.4461 3.35915 30.4422 3.35605 30.4384 3.35372C30.1622 3.179 29.8299 3.04 29.3791 3.08349C29.2729 2.82412 29.1814 2.55001 29.0714 2.29376C29.0683 2.28599 29.0652 2.27822 29.0629 2.27124C29.0383 2.22775 28.9929 2.19824 28.9391 2.19824C28.9144 2.19824 28.8914 2.20445 28.8706 2.21533C28.859 2.22464 28.8475 2.23396 28.8367 2.24328C28.5613 2.4677 28.3559 2.762 28.2606 3.1689C27.9821 3.18055 27.7159 3.20385 27.4374 3.21627C27.4259 3.21705 27.4136 3.21705 27.402 3.21782C27.3359 3.22947 27.2859 3.28694 27.2859 3.3576C27.2859 3.36537 27.2867 3.37391 27.2874 3.38167C27.292 3.39487 27.2959 3.40807 27.3013 3.42128C27.4297 3.79945 27.7074 4.07123 27.9936 4.28788C27.9244 4.55035 27.8567 4.8167 27.7875 5.08072C27.7851 5.08926 27.7836 5.09625 27.7813 5.10557C27.7798 5.11333 27.7798 5.1211 27.7798 5.12964C27.7798 5.20108 27.8321 5.2601 27.9005 5.27019C27.9167 5.26941 27.9336 5.26864 27.9498 5.26786C28.3767 5.24612 28.7037 5.06907 28.9637 4.86795C29.1983 5.01549 29.426 5.17002 29.6599 5.31834C29.666 5.32222 29.6714 5.3261 29.6775 5.32998C29.6968 5.34008 29.7199 5.34629 29.7422 5.34629C29.8029 5.34629 29.8537 5.30746 29.8745 5.25311C29.8768 5.24534 29.8783 5.23758 29.8806 5.22904C29.9722 4.87804 29.9506 4.41135 29.806 4.12559C30.016 3.94699 30.2391 3.77926 30.4461 3.59599C30.4461 3.59599 30.4468 3.59599 30.4476 3.59522V3.59599V3.59522C30.4568 3.58745 30.4661 3.57891 30.4745 3.57115V3.57037V3.57115C30.4745 3.57037 30.4753 3.56959 30.4761 3.56959C30.4976 3.54474 30.5099 3.51213 30.5099 3.47719" fill="#F96073"/>
</svg>
