<svg width="56" height="56" viewBox="0 0 56 56" fill="none" xmlns="http://www.w3.org/2000/svg">
<path d="M45.4824 28.5513C44.6337 28.3982 47.6131 27.5276 47.6131 27.5276L44.7299 26.9194L47.1756 26.5344L49.4768 26.1713L49.6387 25.6463C47.4862 25.4144 44.2443 25.0644 44.2137 25.0644C44.1831 25.0644 47.2762 24.4869 50.1068 24.1063L50.1987 23.8088C51.0649 20.9694 49.4331 17.9594 46.6549 17.2769L17.9768 10.2507C15.2993 9.59444 12.6306 11.3663 12.0662 14.1751L10.5918 21.5076C13.0987 21.4201 15.4262 22.2513 16.0212 22.2207C16.0737 22.2163 16.1174 22.2119 16.1393 22.2119C16.1874 22.2119 16.1393 22.2119 16.0212 22.2207C15.3387 22.2907 12.3681 22.7851 10.2593 23.1394L10.1587 23.6426C11.2087 23.7082 11.8431 23.7869 12.0312 23.7826C18.0162 23.6426 10.8106 25.0338 9.77806 25.5238L7.42869 36.9163C6.82494 39.9088 8.85931 42.7832 11.7774 43.0588L39.4056 45.0626C41.6937 45.2813 43.8156 44.7038 44.5156 42.4201L48.6674 28.8226C47.4468 28.7438 45.9593 28.6388 45.4824 28.5513Z" fill="#FFD5DA"/>
<path d="M13.2783 23.2444C16.359 23.2444 18.8564 20.747 18.8564 17.6663C18.8564 14.5855 16.359 12.0881 13.2783 12.0881C10.1976 12.0881 7.7002 14.5855 7.7002 17.6663C7.7002 20.747 10.1976 23.2444 13.2783 23.2444Z" fill="white"/>
<path d="M13.9302 22.1156C16.7717 22.1156 19.0752 19.8709 19.0752 17.1019C19.0752 14.3329 16.7717 12.0881 13.9302 12.0881C11.0887 12.0881 8.78516 14.3329 8.78516 17.1019C8.78516 19.8709 11.0887 22.1156 13.9302 22.1156Z" fill="#FFF3CD"/>
<path d="M40.2459 46.2743C40.2459 46.2743 44.2359 29.2381 34.9347 23.3537C34.5584 23.1131 35.9497 20.1162 35.9497 20.1162C35.9934 20.2475 48.4884 28.3193 46.4934 46.2743H40.2459Z" fill="#FFF3CD"/>
<path d="M43.1663 46.2778C42.6478 46.2778 41.1333 46.586 40.4441 46.6667V46.2778C40.5737 43.8148 40.8331 38.7333 40.8331 35C40.8331 31.2667 38.3702 26.8333 36.9443 25.2778C35.7776 24.2407 36.9444 24.5 36.9444 24.5C45.1107 29.9444 43.1664 42.3889 43.1663 46.2778Z" fill="white"/>
<path d="M35.3062 19.8538C35.3062 19.8538 31.9287 28.7045 32.5893 32.362C33.2499 36.0195 28.2493 28.0657 28.8093 25.0426C29.3693 22.0195 30.0649 21.687 30.0649 21.687C30.0649 21.687 25.9568 22.5751 22.9774 26.7226C22.4918 27.4007 22.7062 22.3126 24.7449 20.5451C26.7837 18.7776 30.4368 17.6226 30.4368 17.6226C30.4368 17.6226 29.2905 14.722 26.9674 14.0657C24.6443 13.4095 22.903 13.3832 22.903 13.3832C22.903 13.3832 27.0899 10.7538 29.2249 11.502C31.3599 12.2501 32.7512 13.287 33.3068 14.0657C34.0462 15.0938 34.2868 15.5051 34.2868 15.5051C34.2868 15.5051 36.7105 12.0095 38.2549 11.1913C39.7993 10.3732 42.8924 9.30571 44.2487 9.73009C45.6049 10.1545 46.4668 10.4651 46.4668 10.4651C46.4668 10.4651 40.8274 13.5276 39.0162 15.667C37.2049 17.8063 37.8043 17.557 37.8043 17.557C37.8043 17.557 38.7318 15.6057 42.188 16.192C45.6443 16.7782 48.0637 20.1163 48.0637 20.1163V21.4026C48.0637 21.4026 43.9555 20.5276 42.1049 20.7332C40.2543 20.9388 38.2637 22.0063 38.2637 22.0063L35.3018 19.8582L35.3062 19.8538Z" fill="#FF9BA7"/>
<path d="M35.3065 23.59C36.2271 23.59 36.9734 22.7536 36.9734 21.7219C36.9734 20.6901 36.2271 19.8538 35.3065 19.8538C34.3859 19.8538 33.6396 20.6901 33.6396 21.7219C33.6396 22.7536 34.3859 23.59 35.3065 23.59Z" fill="#FFF3CD"/>
<path d="M50.1729 9.29688V12.8406" stroke="#F96073" stroke-width="1.40625" stroke-linecap="round" stroke-linejoin="round"/>
<path d="M48.4004 11.0688H51.9441" stroke="#F96073" stroke-width="1.40625" stroke-linecap="round" stroke-linejoin="round"/>
<path d="M34.873 48.3088L37.3755 50.8157" stroke="#F96073" stroke-width="1.40625" stroke-linecap="round" stroke-linejoin="round"/>
<path d="M34.873 50.8157L37.3755 48.3088" stroke="#F96073" stroke-width="1.40625" stroke-linecap="round" stroke-linejoin="round"/>
<path d="M4.82129 23.8132L7.32379 26.3201" stroke="#F96073" stroke-width="1.40625" stroke-linecap="round" stroke-linejoin="round"/>
<path d="M4.82129 26.3201L7.32379 23.8132" stroke="#F96073" stroke-width="1.40625" stroke-linecap="round" stroke-linejoin="round"/>
<path d="M16.8347 51.0695C17.6538 51.0695 18.3178 50.4055 18.3178 49.5864C18.3178 48.7673 17.6538 48.1033 16.8347 48.1033C16.0156 48.1033 15.3516 48.7673 15.3516 49.5864C15.3516 50.4055 16.0156 51.0695 16.8347 51.0695Z" stroke="#FFDA6A" stroke-width="1.40625" stroke-linecap="round" stroke-linejoin="round"/>
<path d="M26.0222 7.29755C26.8413 7.29755 27.5053 6.63353 27.5053 5.81442C27.5053 4.99532 26.8413 4.3313 26.0222 4.3313C25.2031 4.3313 24.5391 4.99532 24.5391 5.81442C24.5391 6.63353 25.2031 7.29755 26.0222 7.29755Z" stroke="#FFDA6A" stroke-width="1.40625" stroke-linecap="round" stroke-linejoin="round"/>
<path d="M6.68457 35.5382C7.39332 35.5119 8.1152 35.7438 8.68832 36.2469L9.21332 36.7063C10.3114 37.6644 11.9521 37.6513 13.0327 36.6757L13.5839 36.1813C14.6689 35.2057 16.3052 35.1969 17.4033 36.1507L18.0639 36.7282C19.1489 37.6732 20.7677 37.6732 21.8527 36.7282L22.4083 36.2425C23.4933 35.2975 25.1121 35.2975 26.1971 36.2425L26.7527 36.7282C27.8377 37.6732 29.4564 37.6732 30.5414 36.7282L31.1277 36.2163C32.1996 35.28 33.7964 35.2669 34.8814 36.19L35.4458 36.6669C36.0977 37.2182 36.9289 37.4325 37.7164 37.3188" stroke="#2A3539" stroke-width="1.40625" stroke-linecap="round" stroke-linejoin="round"/>
<path d="M6.64551 40.9632C7.36738 40.9238 8.10238 41.1601 8.68863 41.6676L9.21363 42.1269C10.3118 43.0851 11.9524 43.0719 13.033 42.0963L13.5843 41.6019C14.6693 40.6263 16.3055 40.6176 17.4036 41.5713L18.0643 42.1488C19.1493 43.0938 20.768 43.0938 21.853 42.1488L22.4086 41.6632C23.4936 40.7182 25.1124 40.7182 26.1974 41.6632L26.753 42.1488C27.838 43.0938 29.4568 43.0938 30.5418 42.1488L31.128 41.6369C32.1999 40.7007 33.7968 40.6876 34.8818 41.6107L35.4461 42.0876C36.098 42.6388 36.9336 42.8532 37.7255 42.7394" stroke="#2A3539" stroke-width="1.40625" stroke-linecap="round" stroke-linejoin="round"/>
<path d="M13.2783 23.3538C16.4798 23.3538 19.0752 20.7584 19.0752 17.5569C19.0752 14.3554 16.4798 11.76 13.2783 11.76C10.0768 11.76 7.48145 14.3554 7.48145 17.5569C7.48145 20.7584 10.0768 23.3538 13.2783 23.3538Z" stroke="#2A3539" stroke-width="1.40625" stroke-linecap="round" stroke-linejoin="round"/>
<path d="M36.291 24.6182C36.291 24.6182 43.1641 29.3038 40.246 46.2744" stroke="#2A3539" stroke-width="1.40625" stroke-linecap="round" stroke-linejoin="round"/>
<path d="M34.9385 19.4119C49.516 29.0412 46.4972 46.2744 46.4972 46.2744" stroke="#2A3539" stroke-width="1.40625" stroke-linecap="round" stroke-linejoin="round"/>
<path d="M34.4706 22.5752C34.4706 22.5752 32.6375 25.3096 32.5194 33.2721C32.5194 33.2721 28.3019 30.1089 28.8487 24.7977" stroke="#2A3539" stroke-width="1.40625" stroke-linecap="round" stroke-linejoin="round"/>
<path d="M32.4848 21.1881C32.4848 21.1881 25.7167 21.6562 22.7504 27.1206C22.7504 27.1206 22.1248 18.0862 31.1854 17.5525" stroke="#2A3539" stroke-width="1.40625" stroke-linecap="round" stroke-linejoin="round"/>
<path d="M29.0983 15.877C29.0983 15.877 27.4927 13.042 22.9033 13.3789C22.9033 13.3789 30.9708 7.53385 34.2914 16.192" stroke="#2A3539" stroke-width="1.40625" stroke-linecap="round" stroke-linejoin="round"/>
<path d="M34.9385 14.4462C34.9385 14.4462 39.3441 7.49434 46.4754 10.465C46.4754 10.465 39.016 13.4443 37.091 19.1712" stroke="#2A3539" stroke-width="1.40625" stroke-linecap="round" stroke-linejoin="round"/>
<path d="M40.8454 16.1919C40.8454 16.1919 47.5961 16.1919 48.4929 21.5294C48.4929 21.5294 43.3392 19.8494 40.0186 20.825" stroke="#2A3539" stroke-width="1.40625" stroke-linecap="round" stroke-linejoin="round"/>
</svg>
