<svg width="40" height="40" viewBox="0 0 40 40" fill="none" xmlns="http://www.w3.org/2000/svg">
<path d="M32.5612 20.1723C31.9223 20.0612 34.1723 19.4278 34.1723 19.4278L31.989 18.989L33.839 18.7112L35.5779 18.4501L35.7001 18.0723C34.0723 17.9056 31.6223 17.6501 31.5946 17.6501C31.5668 17.6501 33.9112 17.2334 36.0557 16.9556L36.1223 16.739C36.7779 14.6834 35.5446 12.5001 33.439 12.0056L11.7557 6.91673C9.73345 6.43896 7.71123 7.72785 7.28345 9.76118L6.16678 15.0723C8.06123 15.0112 9.82234 15.6112 10.2779 15.589C10.3168 15.589 10.3501 15.5834 10.3668 15.5834C10.4001 15.5834 10.3668 15.5834 10.2779 15.589C9.76123 15.639 7.51678 15.9945 5.92234 16.2556L5.84456 16.6167C6.63901 16.6667 7.11678 16.7223 7.26123 16.7167C11.789 16.6167 6.33901 17.6223 5.55567 17.9778L3.77789 26.4334C3.32234 28.6001 4.86123 30.6834 7.06678 30.8834L27.9668 32.7834C29.6946 32.939 31.3057 31.8723 31.8334 30.2167L34.9723 20.3667C34.0501 20.3112 32.9223 20.2334 32.5612 20.1723Z" fill="#FFD5DA"/>
<path d="M29.9326 9.12782L7.727 10.8445C7.13255 10.8889 6.68811 11.4112 6.73256 12.0056L8.17144 30.6278C8.21589 31.2223 8.73811 31.6667 9.33255 31.6223L31.5381 29.9056C32.1326 29.8612 32.577 29.3389 32.5326 28.7445L31.0937 10.1223C31.0492 9.52782 30.527 9.08337 29.9326 9.12782Z" fill="white"/>
<path d="M29.5548 14.9223L9.55484 16.6834C9.09929 16.7223 8.76595 17.1223 8.80484 17.5778L9.8604 29.5667C9.89929 30.0223 10.2993 30.3556 10.7548 30.3167L30.7548 28.5556C31.2104 28.5167 31.5437 28.1167 31.5048 27.6612L30.4493 15.6723C30.4104 15.2167 30.0104 14.8834 29.5548 14.9223Z" fill="#FFF3CD"/>
<path d="M7.11572 11.9499L29.6713 10.1277C29.9324 10.1054 30.1657 10.3443 30.1879 10.6499L30.4602 14.0332L7.43239 15.8943L7.11572 11.9443V11.9499Z" fill="#FF9BA7"/>
<path d="M12.9937 8.07227L10.6826 8.23893L10.9937 12.5334L13.3048 12.3667L12.9937 8.07227Z" fill="white"/>
<path d="M11.8379 8.64987L13.0934 8.5332L13.4379 12.3221L11.8768 12.4665L11.5601 8.97765C11.5434 8.81098 11.6657 8.66098 11.8323 8.64987H11.8379Z" fill="#FFF3CD"/>
<path d="M26.9381 7.1333L24.627 7.29997L24.9381 11.5944L27.2492 11.4277L26.9381 7.1333Z" fill="white"/>
<path d="M25.5879 7.46652L26.8434 7.34985L27.1879 11.1387L25.6268 11.2832L25.3101 7.7943C25.2934 7.62763 25.4157 7.47763 25.5823 7.46652H25.5879Z" fill="#FFF3CD"/>
<path d="M28.8628 17.9494L38.4349 31.6171L37.2572 31.67L21.9446 33.0555L28.8628 17.9494Z" fill="white"/>
<path d="M29.0556 20L23.6112 31.6666L36.1113 30.5555L29.0556 20Z" fill="#F96073"/>
<path d="M30.0357 30.1112C30.6532 30.0572 31.1099 29.5129 31.0559 28.8955C31.0019 28.2781 30.4575 27.8213 29.8401 27.8753C29.2227 27.9294 28.766 28.4737 28.82 29.0911C28.874 29.7085 29.4183 30.1653 30.0357 30.1112Z" fill="white"/>
<path d="M29.9462 27.1893L29.3016 27.2457C29.1147 27.2621 28.9424 27.1213 28.9204 26.9237L28.4794 23.1745C28.457 22.972 28.601 22.789 28.7972 22.7718L29.666 22.6958C29.8622 22.6787 30.0358 22.8339 30.0489 23.0372L30.2657 26.806C30.2779 26.9996 30.1377 27.1726 29.9462 27.1893Z" fill="white"/>
<path d="M34.6559 37.8055C35.2757 37.8055 35.7781 37.303 35.7781 36.6833C35.7781 36.0635 35.2757 35.561 34.6559 35.561C34.0361 35.561 33.5337 36.0635 33.5337 36.6833C33.5337 37.303 34.0361 37.8055 34.6559 37.8055Z" stroke="#FFDA6A" stroke-linecap="round" stroke-linejoin="round"/>
<path d="M3.24478 19.5389C3.86457 19.5389 4.367 19.0364 4.367 18.4167C4.367 17.7969 3.86457 17.2944 3.24478 17.2944C2.62499 17.2944 2.12256 17.7969 2.12256 18.4167C2.12256 19.0364 2.62499 19.5389 3.24478 19.5389Z" stroke="#FFDA6A" stroke-linecap="round" stroke-linejoin="round"/>
<path d="M21.5392 4.78326C22.159 4.78326 22.6614 4.28083 22.6614 3.66104C22.6614 3.04125 22.159 2.53882 21.5392 2.53882C20.9194 2.53882 20.417 3.04125 20.417 3.66104C20.417 4.28083 20.9194 4.78326 21.5392 4.78326Z" stroke="#FFDA6A" stroke-linecap="round" stroke-linejoin="round"/>
<path d="M8.10587 3.83887L6.21143 5.73331" stroke="#F96073" stroke-linecap="round" stroke-linejoin="round"/>
<path d="M6.21143 3.83887L8.10587 5.73331" stroke="#F96073" stroke-linecap="round" stroke-linejoin="round"/>
<path d="M12.3337 34.6167L10.4448 36.5111" stroke="#F96073" stroke-linecap="round" stroke-linejoin="round"/>
<path d="M10.4448 34.6167L12.3337 36.5111" stroke="#F96073" stroke-linecap="round" stroke-linejoin="round"/>
<path d="M37.4283 8.75537H34.7505" stroke="#F96073" stroke-linecap="round" stroke-linejoin="round"/>
<path d="M36.0894 7.4165V10.0943" stroke="#F96073" stroke-linecap="round" stroke-linejoin="round"/>
<path d="M31.5005 13.7666L9.79492 15.5722" stroke="#2A3539" stroke-linecap="round" stroke-linejoin="round"/>
<path d="M23.6838 9.5332L14.3838 10.311" stroke="#2A3539" stroke-linecap="round" stroke-linejoin="round"/>
<path d="M28.2949 9.15541L29.8894 9.02208C30.556 8.96652 31.1449 9.46097 31.2005 10.1332L32.0004 19.8298" stroke="#2A3539" stroke-linecap="round" stroke-linejoin="round"/>
<path d="M9.71684 10.7L8.0724 10.8388C7.40018 10.8944 6.90573 11.4833 6.96129 12.15L8.5224 30.9333C8.57796 31.6055 9.16685 32.0999 9.83351 32.0444L21.0975 31.1111" stroke="#2A3539" stroke-linecap="round" stroke-linejoin="round"/>
<path d="M12.6727 7.8667L11.0783 8.00003C10.8672 8.0167 10.7116 8.20004 10.7283 8.41115L11.0783 12.6389C11.0949 12.85 11.2783 13.0056 11.4894 12.9889L13.0838 12.8556C13.2949 12.8389 13.4505 12.6556 13.4338 12.4445L13.0838 8.2167C13.0672 8.00559 12.8838 7.85004 12.6727 7.8667Z" stroke="#2A3539" stroke-linecap="round" stroke-linejoin="round"/>
<path d="M26.5004 6.71656L24.9059 6.84989C24.6948 6.86656 24.5392 7.04989 24.5559 7.261L24.9059 11.4888C24.9226 11.6999 25.1059 11.8554 25.317 11.8388L26.9115 11.7054C27.1226 11.6888 27.2781 11.5054 27.2615 11.2943L26.9115 7.06656C26.8948 6.85544 26.7115 6.69989 26.5004 6.71656Z" stroke="#2A3539" stroke-linecap="round" stroke-linejoin="round"/>
<path d="M11.4395 21.9166L13.8617 21.7166" stroke="#2A3539" stroke-linecap="round" stroke-linejoin="round"/>
<path d="M16.2837 21.511L18.7059 21.311" stroke="#2A3539" stroke-linecap="round" stroke-linejoin="round"/>
<path d="M21.1113 21.0333L23.5335 20.8333" stroke="#2A3539" stroke-linecap="round" stroke-linejoin="round"/>
<path d="M16.0283 18.4166L18.4505 18.2166" stroke="#2A3539" stroke-linecap="round" stroke-linejoin="round"/>
<path d="M20.8726 18.011L23.2948 17.811" stroke="#2A3539" stroke-linecap="round" stroke-linejoin="round"/>
<path d="M25.7227 17.611L26.9338 17.511" stroke="#2A3539" stroke-linecap="round" stroke-linejoin="round"/>
<path d="M11.6948 25.0167L14.117 24.8167" stroke="#2A3539" stroke-linecap="round" stroke-linejoin="round"/>
<path d="M16.5386 24.6111L18.9608 24.4111" stroke="#2A3539" stroke-linecap="round" stroke-linejoin="round"/>
<path d="M21.3892 24.2L23.8114 24" stroke="#2A3539" stroke-linecap="round" stroke-linejoin="round"/>
<path d="M11.9502 28.1111L14.3724 27.9111" stroke="#2A3539" stroke-linecap="round" stroke-linejoin="round"/>
<path d="M16.8003 27.711L19.2225 27.511" stroke="#2A3539" stroke-linecap="round" stroke-linejoin="round"/>
<path d="M21.6226 27.25L23.0503 27.1333" stroke="#2A3539" stroke-linecap="round" stroke-linejoin="round"/>
<path d="M28.8669 17.9012L21.7316 32.9819L38.3596 31.6242L28.8669 17.9012Z" stroke="#2A3539" stroke-linecap="round" stroke-linejoin="round"/>
</svg>
