<svg width="16" height="16" viewBox="0 0 16 16" fill="none" xmlns="http://www.w3.org/2000/svg">
<g clip-path="url(#clip0_817_4148)">
<path d="M1.45039 8.0502L0.900391 5.2502L1.17539 2.3502L1.75039 1.7752L8.02539 0.200195L14.2254 1.7502L14.8004 2.3252L15.1754 3.2002L14.7004 7.3502L13.5504 11.1252L12.3004 12.7752C11.7504 13.3252 10.6254 14.4252 10.4504 14.4252C10.2754 14.4252 8.52539 15.7752 8.42539 15.8752C8.32539 15.9752 7.55039 15.7752 7.45039 15.7752C7.35039 15.7752 6.12539 14.8752 5.52539 14.4252L2.82539 11.5252L1.47539 8.0502H1.45039Z" fill="white"/>
<path d="M8.02464 16.0002C7.64964 16.0002 7.27464 15.9002 6.94964 15.6752C5.04964 14.4502 2.44964 12.4252 1.64964 9.2002C1.54964 8.8002 1.47464 8.4252 1.37464 8.0502C1.34964 7.9252 1.42464 7.7752 1.54964 7.7502C1.67464 7.7252 1.82464 7.8002 1.84964 7.9252C1.92464 8.3002 2.02464 8.6752 2.09964 9.0752C2.84964 12.1502 5.34964 14.0752 7.17464 15.2502C7.67464 15.5752 8.32464 15.5752 8.82464 15.2502C10.6496 14.0752 13.1746 12.1252 13.8996 9.0752C14.5246 6.5002 14.7496 4.6002 14.8496 3.4252C14.8996 2.7002 14.4246 2.0502 13.7246 1.8502C13.2246 1.7252 12.5746 1.5502 11.7496 1.3252C9.97464 0.875195 8.84964 0.600195 8.32464 0.500195C8.09964 0.450195 7.89964 0.450195 7.67464 0.500195C7.17464 0.600195 6.02464 0.875195 4.24964 1.3252C3.42464 1.5502 2.77464 1.7252 2.27464 1.8502C1.57464 2.0252 1.09964 2.7002 1.14964 3.4252C1.19964 4.0252 1.27464 4.6752 1.34964 5.3252C1.34964 5.4502 1.27464 5.5752 1.14964 5.6002C1.02464 5.6002 0.899644 5.5252 0.874644 5.4002C0.774644 4.7252 0.699644 4.0502 0.649644 3.4502C0.574644 2.5002 1.19964 1.6252 2.12464 1.3752C2.62464 1.2502 3.27464 1.0752 4.09964 0.850195C5.92464 0.425195 7.04964 0.150195 7.57464 0.0501953C7.84964 0.000195313 8.14964 0.000195313 8.42464 0.0501953C8.94964 0.175195 10.0746 0.425195 11.8746 0.875195C12.6996 1.1002 13.3496 1.2752 13.8496 1.4002C14.7746 1.6502 15.3996 2.5252 15.3246 3.4752C15.2496 4.6502 14.9996 6.6002 14.3746 9.2002C13.5996 12.4252 10.9746 14.4502 9.07464 15.6752C8.74964 15.9002 8.37464 16.0002 7.99964 16.0002H8.02464Z" fill="#2A3539"/>
<path opacity="0.8" d="M12.9253 2.4751C12.5003 2.3751 11.9503 2.2251 11.2503 2.0251C9.75027 1.6251 8.80027 1.4251 8.35027 1.3251C8.15027 1.2751 7.92527 1.2751 7.70027 1.3251C7.25027 1.4251 6.30027 1.6501 4.80027 2.0251C4.10027 2.2001 3.55027 2.3501 3.12527 2.4751C2.42527 2.6501 1.97527 3.3001 2.02527 4.0251C2.10027 5.0501 2.30027 6.6751 2.82527 8.8501C3.47527 11.5251 5.62527 13.1751 7.22527 14.2251C7.72527 14.5501 8.35027 14.5501 8.85027 14.2251C10.4503 13.1751 12.6003 11.5251 13.2503 8.8501C13.7753 6.6751 13.9753 5.0501 14.0503 4.0251C14.1003 3.3001 13.6503 2.6751 12.9503 2.4751H12.9253Z" fill="#FD8B25"/>
<path d="M13.2002 3.24987C12.8252 3.14987 9.95018 2.34987 8.55018 1.97487C8.22518 1.89987 7.90018 2.12487 7.92518 2.47487C8.97518 3.59987 9.65018 4.97487 9.92518 6.39987L10.0502 7.32487C10.1752 8.89987 9.85018 10.5249 9.02518 11.9499L8.05018 13.6749C8.05018 13.6749 8.32518 13.7499 8.45018 13.6749C10.1002 12.5999 12.0752 11.0499 12.6752 8.62487C13.2252 6.34987 13.4252 4.64987 13.5002 3.62487C13.5002 3.44987 13.4002 3.29987 13.2252 3.24987H13.2002Z" fill="#FD8B25"/>
<path d="M9.15502 5.72684L8.24263 3.90206C8.14125 3.69931 7.83712 3.69931 7.73575 3.90206L6.82336 5.76063L4.79583 6.06476C4.55929 6.09855 4.45791 6.40268 4.62687 6.57164L6.11372 7.99091L5.7758 10.0184C5.74201 10.255 5.97856 10.4239 6.18131 10.3226C6.85715 9.95086 8.00608 9.37639 8.00608 9.37639L9.83086 10.3226C10.0336 10.4239 10.3039 10.255 10.2364 10.0184L9.89844 7.99091L11.3515 6.53785C11.5205 6.36889 11.4191 6.06476 11.1825 6.03097L9.15502 5.72684Z" fill="white"/>
<path opacity="0.4" d="M8.52399 12.3684C8.20236 12.5439 7.82224 12.5439 7.5006 12.3684L4.54739 10.848C4.02107 10.5848 3.67019 10.117 3.55323 9.53216L2.76376 5.93567C2.6468 5.38012 2.90996 4.79532 3.43627 4.53216L7.41288 2.63158C7.793 2.45614 8.2316 2.45614 8.61171 2.63158L12.5883 4.53216C13.1146 4.79532 13.407 5.35088 13.2608 5.93567L12.4714 9.5614C12.3544 10.117 11.9743 10.614 11.448 10.8772L8.49475 12.3684H8.52399ZM4.95674 9.91228L7.67604 11.2865C7.88072 11.4035 8.14388 11.4035 8.34855 11.2865L11.0679 9.91228C11.2725 9.82456 11.4187 9.61988 11.448 9.4152L12.1497 6.14035C12.2082 5.81871 12.062 5.46784 11.7404 5.32164L8.31932 3.68421C8.11464 3.59649 7.88072 3.59649 7.67604 3.68421L4.25499 5.32164C3.93335 5.46784 3.78715 5.81871 3.84563 6.14035L4.54739 9.4152C4.60587 9.61988 4.75206 9.82456 4.9275 9.91228H4.95674Z" fill="#FEE7D1"/>
</g>
<defs>
<clipPath id="clip0_817_4148">
<rect width="16" height="16" fill="white"/>
</clipPath>
</defs>
</svg>
