<svg width="24" height="24" viewBox="0 0 24 24" fill="none" xmlns="http://www.w3.org/2000/svg">
<path d="M5.24205 7.5C5.28111 7.5 5.32017 7.46094 5.32017 7.42188C6.14049 6.64062 6.99986 6.05469 7.85924 5.70312C8.17174 5.54688 8.5233 5.70312 8.67955 6.01562C8.79674 6.32812 8.64049 6.71875 8.32799 6.83594C7.66392 7.14844 6.92174 7.61719 6.21861 8.32031C6.10142 8.4375 5.94517 8.59375 5.82799 8.75L5.78892 8.78906C3.79674 11.1328 4.1483 13.5938 4.96861 14.8828L10.2811 9.57031C10.3983 9.45312 10.5545 9.375 10.7499 9.375H17.6249V8.125C17.6249 7.8125 17.8983 7.5 18.2499 7.5C18.5624 7.5 18.8749 7.8125 18.8749 8.125V9.375H21.9217C21.5311 7.8125 19.8905 5.625 16.3749 5.625C15.1249 5.625 14.1092 5.89844 13.328 6.32812C13.0545 6.44531 12.703 6.36719 12.5467 6.09375C11.7264 4.88281 10.1639 3.75 7.62486 3.75C4.10924 3.75 2.42955 5.9375 2.03892 7.5H5.24205ZM21.9999 10.625H18.2499H14.0702C14.3827 11.5625 14.6561 12.5781 14.8905 13.5938C15.4374 16.0938 15.7108 18.8672 15.4764 21.4062C15.3983 22.0312 14.8514 22.5 14.2264 22.5H10.3202C9.49986 22.5 8.91392 21.6797 9.1483 20.8984C10.203 17.2266 10.4764 14.4141 10.3202 12.4609C10.3202 12.0703 10.2811 11.7188 10.203 11.4062L5.78892 15.8203C5.32017 16.2891 4.42174 16.3672 3.99205 15.7031C2.93736 14.1406 2.46861 11.4062 4.22642 8.75H1.99986C1.3358 8.75 0.671736 8.20312 0.788924 7.42188C1.21861 5.27344 3.36705 2.5 7.62486 2.5C10.2811 2.5 12.1561 3.63281 13.2499 4.96094C14.1483 4.60938 15.1639 4.375 16.3749 4.375C20.5936 4.375 22.742 7.14844 23.1717 9.29688C23.328 10.0781 22.6249 10.625 21.9999 10.625ZM11.3358 10.625C11.453 11.1328 11.5311 11.7188 11.5702 12.3828C11.7264 14.4922 11.4139 17.4609 10.3202 21.25H14.2264C14.4608 18.9062 14.1874 16.2891 13.6405 13.8672C13.4061 12.6953 13.0936 11.6406 12.742 10.625H11.3358Z" fill="#F96073"/>
</svg>
