<svg width="18" height="18" viewBox="0 0 18 18" fill="none" xmlns="http://www.w3.org/2000/svg">
<path d="M7.64062 2.125H10.3594C10.6641 2.125 10.9453 2.3125 11.0625 2.61719L11.4375 3.625H13.6875C13.9922 3.625 14.25 3.88281 14.25 4.1875C14.25 4.49219 13.9922 4.75 13.6875 4.75H4.3125C4.00781 4.75 3.75 4.49219 3.75 4.1875C3.75 3.88281 4.00781 3.625 4.3125 3.625H6.5625L6.9375 2.61719C7.05469 2.3125 7.33594 2.125 7.64062 2.125ZM4.5 5.875H5.625V13C5.625 13.2109 5.78906 13.375 6 13.375H12C12.2109 13.375 12.375 13.2109 12.375 13V5.875H13.5V13C13.5 13.8203 12.8203 14.5 12 14.5H6C5.17969 14.5 4.5 13.8203 4.5 13V5.875ZM8.25 7.5625V11.6875C8.25 11.9922 7.99219 12.25 7.6875 12.25C7.38281 12.25 7.125 11.9922 7.125 11.6875V7.5625C7.125 7.25781 7.38281 7 7.6875 7C7.99219 7 8.25 7.25781 8.25 7.5625ZM10.875 7.5625V11.6875C10.875 11.9922 10.6172 12.25 10.3125 12.25C10.0078 12.25 9.75 11.9922 9.75 11.6875V7.5625C9.75 7.25781 10.0078 7 10.3125 7C10.6172 7 10.875 7.25781 10.875 7.5625Z" fill="#F96073"/>
</svg>
