<svg width="25" height="24" viewBox="0 0 25 24" fill="none" xmlns="http://www.w3.org/2000/svg">
<path d="M2.58598 3.46098L6.52348 6.51958C8.10551 5.32426 10.0743 4.37504 12.5 4.37504C15.3125 4.37504 17.5977 5.67583 19.25 7.2227C20.9024 8.73442 21.9922 10.5625 22.5196 11.8282C22.625 12.1094 22.625 12.4258 22.5196 12.7071C22.0625 13.8321 21.1133 15.4493 19.7071 16.8555L23.3985 19.7735C23.7852 20.0547 23.8555 20.5821 23.5391 20.9336C23.2579 21.3204 22.7305 21.3907 22.379 21.0743L1.56645 4.76176C1.17973 4.48051 1.10942 3.95317 1.42583 3.60161C1.70708 3.21489 2.23442 3.14458 2.58598 3.46098ZM7.89458 7.60942L9.51176 8.87504C10.3204 8.17192 11.3399 7.75004 12.5 7.75004C14.961 7.75004 17 9.78911 17 12.25C17 13.0235 16.8243 13.7266 16.4727 14.3243L18.3711 15.8008C19.6016 14.6055 20.4454 13.2344 20.8672 12.25C20.4102 11.1954 19.461 9.71879 18.0899 8.45317C16.6485 7.11723 14.7852 6.06254 12.5 6.06254C10.7071 6.06254 9.19536 6.69536 7.89458 7.60942ZM15.1016 13.2696C15.2422 12.9532 15.3125 12.6016 15.3125 12.25C15.3125 10.7032 14.0469 9.43754 12.5 9.43754C12.4649 9.43754 12.4297 9.43754 12.4297 9.43754C12.4649 9.64848 12.5 9.82426 12.5 10C12.5 10.3868 12.3946 10.7032 12.254 11.0196L15.1016 13.2696ZM15.4532 17.8399L16.9297 19C15.629 19.7032 14.1524 20.125 12.5 20.125C9.65239 20.125 7.36723 18.8594 5.71489 17.3125C4.06254 15.7657 2.9727 13.9375 2.44536 12.7071C2.33989 12.4258 2.33989 12.1094 2.44536 11.8282C2.79692 11.0196 3.35942 10 4.16801 8.94536L5.46879 10C4.83598 10.8086 4.37895 11.6172 4.0977 12.25C4.58989 13.3047 5.50395 14.8165 6.87504 16.0821C8.31645 17.418 10.1797 18.4375 12.5 18.4375C13.5547 18.4375 14.5391 18.2266 15.4532 17.8399ZM8.00004 12.25H7.96489C7.96489 12.1797 8.00004 12.0743 8.00004 11.9688L9.96879 13.5157C10.3204 14.254 11.0235 14.8165 11.8672 14.9922L13.836 16.5743C13.4141 16.6797 12.9571 16.75 12.5 16.75C10.004 16.75 8.00004 14.7461 8.00004 12.25Z" fill="#94A3B7"/>
</svg>
