<svg width="24" height="24" viewBox="0 0 24 24" fill="none" xmlns="http://www.w3.org/2000/svg">
<path d="M5.8125 7.75C5.8125 8.76953 6.33984 9.68359 7.21875 10.2109C8.0625 10.7031 9.15234 10.7031 10.0312 10.2109C10.875 9.68359 11.4375 8.76953 11.4375 7.75C11.4375 6.76562 10.875 5.85156 10.0312 5.32422C9.15234 4.83203 8.0625 4.83203 7.21875 5.32422C6.33984 5.85156 5.8125 6.76562 5.8125 7.75ZM13.125 7.75C13.125 9.36719 12.2461 10.8438 10.875 11.6523C9.46875 12.4609 7.74609 12.4609 6.375 11.6523C4.96875 10.8438 4.125 9.36719 4.125 7.75C4.125 6.16797 4.96875 4.69141 6.375 3.88281C7.74609 3.07422 9.46875 3.07422 10.875 3.88281C12.2461 4.69141 13.125 6.16797 13.125 7.75ZM10.207 15.625H7.00781C4.6875 15.625 2.78906 17.3477 2.47266 19.5625H14.7422C14.4258 17.3477 12.5273 15.625 10.207 15.625ZM7.00781 13.9375H8.625H10.207C13.6875 13.9375 16.5 16.75 16.5 20.2305C16.5 20.793 16.0078 21.25 15.4453 21.25H1.76953C1.20703 21.25 0.75 20.793 0.75 20.2305C0.75 16.75 3.52734 13.9375 7.00781 13.9375ZM22.7227 9.47266L18.2227 13.9727C17.8711 14.3242 17.3438 14.3242 17.0273 13.9727L14.7773 11.7227C14.4258 11.4062 14.4258 10.8789 14.7773 10.5625C15.0938 10.2109 15.6211 10.2109 15.9727 10.5625L17.625 12.2148L21.5273 8.3125C21.8438 7.96094 22.3711 7.96094 22.7227 8.3125C23.0391 8.62891 23.0391 9.15625 22.7227 9.47266Z" fill="#7E5EFF"/>
</svg>
