<svg width="24" height="24" viewBox="0 0 24 24" fill="none" xmlns="http://www.w3.org/2000/svg">
<path d="M18.319 21.4738H18.1766C17.0111 21.4738 16.0671 20.5298 16.0671 19.3643C16.0671 19.3643 18.2451 15.9732 17.3961 10.2407C17.1324 8.46342 17.9988 8 17.9988 8L20.9988 7.5C21.6342 6.79378 22.0357 5.18314 21.9988 4.23387H18.7514C18.7514 4.23387 18.9887 2.48826 16.6472 2.09272C10.825 1.10653 8.99881 8.42138 11.3629 9.20174C11.8903 9.60782 14.986 9.25448 15.4079 4.89836" stroke="#4A5A61" stroke-linecap="round" stroke-linejoin="round"/>
<path d="M16.9943 4.37122V4.4556" stroke="#4A5A61" stroke-linecap="round" stroke-linejoin="round"/>
<path d="M11.0717 9.19116C9.98 11.7384 7.99707 13.3205 7.13217 14.4966C5.08068 17.2811 6.28837 21.4737 6.28837 21.4737C3.48801 21.4737 1.80568 19.5277 1.51562 17.4446V13.0002" stroke="#4A5A61" stroke-linecap="round" stroke-linejoin="round"/>
<path d="M10.377 14.6919C10.377 14.6919 14.9704 15.4777 12.112 21.3632" stroke="#4A5A61" stroke-linecap="round" stroke-linejoin="round"/>
<path d="M14.3729 21.474H8.97253" stroke="#4A5A61" stroke-linecap="round" stroke-linejoin="round"/>
</svg>
