<svg width="72" height="72" viewBox="0 0 72 72" fill="none" xmlns="http://www.w3.org/2000/svg">
<path d="M58.2843 34.3594C57.2016 34.1697 61.0025 33.1036 61.0025 33.1036L57.3243 32.3613L60.4443 31.8925L63.3802 31.4515L63.5867 30.8097C60.8406 30.525 56.7048 30.0953 56.6657 30.0953C56.6267 30.0953 60.5727 29.392 64.1839 28.9232L64.3011 28.5604C65.4062 25.0887 63.3243 21.4162 59.7802 20.5846L23.1997 11.9948C19.7839 11.1911 16.3792 13.3567 15.6592 16.7892L13.7783 25.7474C16.9764 25.6413 19.9457 26.6571 20.7048 26.6181C20.7718 26.6125 20.8276 26.6069 20.8555 26.6069C20.9169 26.6069 20.8555 26.6069 20.7048 26.6181C19.8341 26.7018 16.0443 27.3046 13.3541 27.7399L13.2257 28.3539C14.5653 28.4376 15.3746 28.5269 15.6146 28.5213C23.2499 28.3483 14.0574 30.0506 12.7402 30.6478L9.74294 44.9027C8.97271 48.5585 11.5681 52.0692 15.2909 52.4097L50.5374 55.6134C53.4564 55.8813 56.1634 54.0785 57.0564 51.2878L62.3532 34.6776C60.796 34.5827 58.8983 34.4543 58.2899 34.3483L58.2843 34.3594Z" fill="#FFD5DA"/>
<path d="M28.6343 33.0584L25.5477 32.623L21.825 56.5003L33.9756 58.4705L35.2147 60.4296L43.1515 61.4007L44.8594 60.2565L57.2501 62.0203L60.9729 38.143L28.6343 33.0584Z" fill="#FF9BA7"/>
<path d="M28.7452 32.3332L25.8038 53.8272L36.7155 55.8588L37.4076 57.2932L41.6159 57.9965L43.3796 56.9528C43.3796 56.9528 54.682 58.4653 54.6987 58.4653C54.7155 58.4653 58.0755 36.8988 58.0755 36.8988L44.2615 35.4141L43.0559 35.9221L40.7006 34.2532L28.7396 32.3276L28.7452 32.3332Z" fill="#FFF3CD"/>
<path d="M24.9067 33.8567L12.6722 27.0697C12.6722 27.0697 13.1913 24.7981 13.5988 24.5134C14.0062 24.2287 33.7253 13.5962 33.7253 13.5962L51.2508 23.425L34.4341 33.4604L28.9532 32.7348L25.755 33.025L24.9067 33.8511V33.8567Z" fill="#FF9BA7"/>
<path d="M32.9159 18.2739C32.9159 18.2739 41.6061 23.5093 41.3996 23.7381C41.1931 23.9669 37.4647 25.9204 37.4647 25.9204L29.048 20.8358L32.9159 18.2739Z" fill="#FFF3CD"/>
<path d="M13.0342 27.3708L25.3858 33.6499L23.0528 48.6192C23.0528 48.6192 12.4816 43.3336 12.4593 43.0936C12.437 42.8536 12.9895 27.689 12.9895 27.689L13.0342 27.3708Z" fill="#FFF3CD"/>
<path d="M51.25 33.4432C51.2444 33.2702 51.25 23.4302 51.25 23.4302L34.4332 33.4655L40.7067 34.2581L43.4751 35.9269L46.0537 35.419L48.3421 35.0897L51.25 33.4432Z" fill="#FFF3CD"/>
<path d="M5.74109 37.7532C6.78607 37.7532 7.63318 36.9061 7.63318 35.8611C7.63318 34.8161 6.78607 33.969 5.74109 33.969C4.69612 33.969 3.849 34.8161 3.849 35.8611C3.849 36.9061 4.69612 37.7532 5.74109 37.7532Z" stroke="#FFDA6A" stroke-width="1.39535" stroke-linecap="round" stroke-linejoin="round"/>
<path d="M37.1299 8.74073C38.1749 8.74073 39.022 7.89361 39.022 6.84864C39.022 5.80366 38.1749 4.95654 37.1299 4.95654C36.0849 4.95654 35.2378 5.80366 35.2378 6.84864C35.2378 7.89361 36.0849 8.74073 37.1299 8.74073Z" stroke="#FFDA6A" stroke-width="1.39535" stroke-linecap="round" stroke-linejoin="round"/>
<path d="M65.183 55.4795C66.228 55.4795 67.0751 54.6324 67.0751 53.5874C67.0751 52.5424 66.228 51.6953 65.183 51.6953C64.138 51.6953 63.2909 52.5424 63.2909 53.5874C63.2909 54.6324 64.138 55.4795 65.183 55.4795Z" stroke="#FFDA6A" stroke-width="1.39535" stroke-linecap="round" stroke-linejoin="round"/>
<path d="M12.8017 9.83472L9.60913 13.0273" stroke="#F96073" stroke-width="1.39535" stroke-linecap="round" stroke-linejoin="round"/>
<path d="M9.60913 9.83472L12.8017 13.0273" stroke="#F96073" stroke-width="1.39535" stroke-linecap="round" stroke-linejoin="round"/>
<path d="M20.1635 60.7488L16.9653 63.9469" stroke="#F96073" stroke-width="1.39535" stroke-linecap="round" stroke-linejoin="round"/>
<path d="M16.9653 60.7488L20.1635 63.9469" stroke="#F96073" stroke-width="1.39535" stroke-linecap="round" stroke-linejoin="round"/>
<path d="M60.9681 13.0278H56.4471" stroke="#F96073" stroke-width="1.39535" stroke-linecap="round" stroke-linejoin="round"/>
<path d="M58.708 10.7668V15.2878" stroke="#F96073" stroke-width="1.39535" stroke-linecap="round" stroke-linejoin="round"/>
<path d="M51.0375 31.9475V33.4433L50.6189 33.6889" stroke="#2A3539" stroke-width="1.39535" stroke-linecap="round" stroke-linejoin="round"/>
<path d="M20.5736 47.7712L13.5801 43.7526C12.888 43.3563 12.4583 42.6196 12.4583 41.8214V35.9275" stroke="#2A3539" stroke-width="1.39535" stroke-linecap="round" stroke-linejoin="round"/>
<path d="M15.5281 41.5537L21.2099 44.6402" stroke="#2A3539" stroke-width="1.39535" stroke-linecap="round" stroke-linejoin="round"/>
<path d="M21.4834 41.977L15.5281 38.7957" stroke="#2A3539" stroke-width="1.39535" stroke-linecap="round" stroke-linejoin="round"/>
<path d="M22.2025 38.6426L13.5793 33.6863C12.8872 33.29 12.463 32.5533 12.463 31.7552V26.0789C12.463 25.1412 12.9765 24.2761 13.797 23.8296L33.2426 13.197L51.0416 23.3831L45.7784 26.4249" stroke="#2A3539" stroke-width="1.39535" stroke-linecap="round" stroke-linejoin="round"/>
<path d="M51.0364 23.3777V29.4447L44.1266 33.4409" stroke="#2A3539" stroke-width="1.39535" stroke-linecap="round" stroke-linejoin="round"/>
<path d="M15.5262 31.4814L22.3579 35.4163" stroke="#2A3539" stroke-width="1.39535" stroke-linecap="round" stroke-linejoin="round"/>
<path d="M23.05 33.0556L15.5262 28.73" stroke="#2A3539" stroke-width="1.39535" stroke-linecap="round" stroke-linejoin="round"/>
<path d="M45.7722 26.4189L37.4615 31.2301" stroke="#2A3539" stroke-width="1.39535" stroke-linecap="round" stroke-linejoin="round"/>
<path d="M41.0615 32.0636L51.0355 26.2925" stroke="#2A3539" stroke-width="1.39535" stroke-linecap="round" stroke-linejoin="round"/>
<path d="M41.1847 23.3902L33.2033 18.78C33.0693 18.7019 32.8907 18.6628 32.701 18.6572C32.5112 18.6572 32.3326 18.7019 32.2098 18.7744L29.2293 20.5047C29.1065 20.5772 29.0228 20.6833 29.0228 20.7893C29.034 20.9009 29.1065 21.0014 29.2405 21.0796L37.2219 25.6842C37.3503 25.7568 37.5289 25.7958 37.7131 25.8014C37.8917 25.8014 38.0814 25.7568 38.2042 25.6842L41.1847 23.954C41.3075 23.8814 41.38 23.7754 41.3912 23.6693C41.38 23.5633 41.3075 23.4572 41.1847 23.3847V23.3902Z" stroke="#2A3539" stroke-width="1.39535" stroke-linecap="round" stroke-linejoin="round"/>
<path d="M29.5483 32.461L39.9911 34.0907C41.4199 34.314 43.2562 35.3744 43.0385 36.7586L43.005 36.9651L39.7734 57.7279L37.4013 57.3596C37.619 55.9754 36.4804 55.6405 35.0516 55.4172L25.3734 53.9103L25.4906 53.14L28.7278 32.3438L29.5316 32.4665L29.5483 32.461Z" stroke="#2A3539" stroke-width="1.39535" stroke-linecap="round" stroke-linejoin="round"/>
<path d="M39.7783 57.7163L42.156 58.0846C42.3513 56.8232 43.356 56.7339 44.623 56.9014L50.8016 57.8614L54.7253 58.4753L54.8425 57.7051L58.0797 36.9088L57.2704 36.7804L46.7718 35.1451C45.3374 34.9218 43.2555 35.3739 43.0379 36.7525" stroke="#2A3539" stroke-width="1.39535" stroke-linecap="round" stroke-linejoin="round"/>
<path d="M60.0054 37.9919L60.9654 38.1426L57.2482 62.0142L45.5663 60.1947C45.1589 60.1333 44.7403 60.2338 44.4054 60.4738L43.144 61.3947L39.2929 60.7975L35.4417 60.2003L34.5208 58.9389C34.2752 58.604 33.9124 58.3807 33.4994 58.3193L21.8175 56.4998L25.5347 32.6282L26.3831 32.7621" stroke="#2A3539" stroke-width="1.39535" stroke-linecap="round" stroke-linejoin="round"/>
</svg>
