<svg width="42" height="42" viewBox="0 0 42 42" fill="none" xmlns="http://www.w3.org/2000/svg">
<path d="M33.2507 21.8921C32.6191 21.7814 34.8363 21.1596 34.8363 21.1596L32.6907 20.7266L34.5107 20.4531L36.2233 20.1959L36.3437 19.8214C34.7419 19.6554 32.3293 19.4047 32.3065 19.4047C32.2837 19.4047 34.5856 18.9945 36.6921 18.721L36.7605 18.5093C37.4051 16.4842 36.1907 14.3419 34.1233 13.8568L12.7847 8.84609C10.7921 8.37725 8.80607 9.6405 8.38607 11.6428L7.28886 16.8684C9.15444 16.8066 10.8865 17.3991 11.3293 17.3763C11.3684 17.3731 11.401 17.3698 11.4172 17.3698C11.453 17.3698 11.4172 17.3698 11.3293 17.3763C10.8214 17.4252 8.61072 17.7768 7.04142 18.0307L6.96654 18.3889C7.74793 18.4377 8.22003 18.4898 8.36003 18.4866C12.814 18.3856 7.45165 19.3786 6.68328 19.727L4.93491 28.0424C4.48561 30.1749 5.99956 32.2228 8.17119 32.4214L28.7317 34.2903C30.4344 34.4466 32.0135 33.3949 32.5344 31.767L35.6242 22.0777C34.7158 22.0224 33.6089 21.9475 33.254 21.8856L33.2507 21.8921Z" fill="#FFD5DA"/>
<path d="M31.4885 9.99842L8.17482 11.8005C7.55093 11.8487 7.08426 12.3936 7.13248 13.0175L8.644 32.5722C8.69223 33.1961 9.23708 33.6627 9.86097 33.6145L33.1747 31.8124C33.7986 31.7642 34.2652 31.2193 34.217 30.5954L32.7055 11.0408C32.6573 10.4169 32.1124 9.9502 31.4885 9.99842Z" fill="white"/>
<path d="M31.0965 16.0796L10.0966 17.9316C9.62013 17.9736 9.26795 18.3939 9.30997 18.8704L10.42 31.4573C10.4621 31.9338 10.8824 32.286 11.3588 32.244L32.3587 30.3919C32.8352 30.3499 33.1873 29.9296 33.1453 29.4532L32.0353 16.8662C31.9932 16.3897 31.5729 16.0376 31.0965 16.0796Z" fill="#FFF3CD"/>
<path d="M7.53566 12.9619L31.2161 11.0483C31.492 11.026 31.7308 11.2321 31.7528 11.5047L31.9941 14.4903L7.81705 16.444L7.5354 12.9586L7.53566 12.9619Z" fill="#FF9BA7"/>
<path d="M13.708 8.88706L11.2791 9.06372L11.6069 13.5709L14.0358 13.3942L13.708 8.88706Z" fill="white"/>
<path d="M12.4901 9.4938L13.8097 9.37324L14.1732 13.3516L12.5358 13.5011L12.2014 9.84057C12.1854 9.66549 12.315 9.50979 12.4901 9.4938Z" fill="#FFF3CD"/>
<path d="M28.3464 7.89951L25.9175 8.07617L26.2453 12.5833L28.6742 12.4067L28.3464 7.89951Z" fill="white"/>
<path d="M26.9264 8.25063L28.246 8.13007L28.6095 12.1084L26.9721 12.258L26.6377 8.59741C26.6217 8.42232 26.7513 8.26663 26.9264 8.25063Z" fill="#FFF3CD"/>
<path d="M7.62231 4.21985V6.8538" stroke="#F96073" stroke-linecap="round" stroke-linejoin="round"/>
<path d="M6.30347 5.53491H8.94068" stroke="#F96073" stroke-linecap="round" stroke-linejoin="round"/>
<path d="M37.6048 8.52747L35.7393 10.3898" stroke="#F96073" stroke-linecap="round" stroke-linejoin="round"/>
<path d="M35.7393 8.52747L37.6048 10.3898" stroke="#F96073" stroke-linecap="round" stroke-linejoin="round"/>
<path d="M18.8517 35.6156L16.9861 37.4779" stroke="#F96073" stroke-linecap="round" stroke-linejoin="round"/>
<path d="M16.9861 35.6156L18.8517 37.4779" stroke="#F96073" stroke-linecap="round" stroke-linejoin="round"/>
<path d="M20.8081 6.05278C21.4176 6.05278 21.9118 5.55863 21.9118 4.94906C21.9118 4.33949 21.4176 3.84534 20.8081 3.84534C20.1985 3.84534 19.7043 4.33949 19.7043 4.94906C19.7043 5.55863 20.1985 6.05278 20.8081 6.05278Z" stroke="#FFDA6A" stroke-linecap="round" stroke-linejoin="round"/>
<path d="M33.9941 36.5042C34.6037 36.5042 35.0978 36.01 35.0978 35.4005C35.0978 34.7909 34.6037 34.2968 33.9941 34.2968C33.3845 34.2968 32.8904 34.7909 32.8904 35.4005C32.8904 36.01 33.3845 36.5042 33.9941 36.5042Z" stroke="#FFDA6A" stroke-linecap="round" stroke-linejoin="round"/>
<path d="M33.1215 14.7487L10.3308 16.6435" stroke="#2A3539" stroke-linecap="round" stroke-linejoin="round"/>
<path d="M24.9099 10.3043L15.1489 11.1183" stroke="#2A3539" stroke-linecap="round" stroke-linejoin="round"/>
<path d="M10.246 11.5253L8.52042 11.6685C7.81716 11.7272 7.29623 12.3425 7.35484 13.0458L8.99577 32.7662C9.05437 33.4695 9.66972 33.9904 10.373 33.9318L33.2776 32.0272C33.9809 31.9685 34.5018 31.3532 34.4432 30.6499L32.8023 10.9295C32.7437 10.2262 32.1283 9.70529 31.4251 9.7639L29.7516 9.9039" stroke="#2A3539" stroke-linecap="round" stroke-linejoin="round"/>
<path d="M13.3497 8.55282L11.6755 8.69223C11.455 8.71059 11.2912 8.90414 11.3096 9.12455L11.6795 13.5664C11.6978 13.7868 11.8914 13.9506 12.1118 13.9322L13.786 13.7928C14.0064 13.7745 14.1702 13.5809 14.1518 13.3605L13.782 8.91868C13.7636 8.69827 13.5701 8.53447 13.3497 8.55282Z" stroke="#2A3539" stroke-linecap="round" stroke-linejoin="round"/>
<path d="M27.8667 7.34591L26.1925 7.48532C25.9721 7.50368 25.8083 7.69723 25.8267 7.91764L26.1966 12.3595C26.2149 12.5799 26.4085 12.7437 26.6289 12.7253L28.3031 12.5859C28.5235 12.5676 28.6873 12.374 28.6689 12.1536L28.2991 7.71177C28.2807 7.49136 28.0872 7.32756 27.8667 7.34591Z" stroke="#2A3539" stroke-linecap="round" stroke-linejoin="round"/>
<path d="M12.0532 23.305L14.596 23.0934" stroke="#2A3539" stroke-linecap="round" stroke-linejoin="round"/>
<path d="M17.1418 22.8822L19.6879 22.6705" stroke="#2A3539" stroke-linecap="round" stroke-linejoin="round"/>
<path d="M22.231 22.4587L24.777 22.2471" stroke="#2A3539" stroke-linecap="round" stroke-linejoin="round"/>
<path d="M27.3201 22.0358L29.8661 21.8242" stroke="#2A3539" stroke-linecap="round" stroke-linejoin="round"/>
<path d="M16.8721 19.6296L19.4149 19.418" stroke="#2A3539" stroke-linecap="round" stroke-linejoin="round"/>
<path d="M21.9607 19.206L24.5067 18.9944" stroke="#2A3539" stroke-linecap="round" stroke-linejoin="round"/>
<path d="M27.0498 18.7832L29.5959 18.5715" stroke="#2A3539" stroke-linecap="round" stroke-linejoin="round"/>
<path d="M12.3235 26.5577L14.8663 26.3461" stroke="#2A3539" stroke-linecap="round" stroke-linejoin="round"/>
<path d="M17.4121 26.1348L19.9582 25.9232" stroke="#2A3539" stroke-linecap="round" stroke-linejoin="round"/>
<path d="M22.5012 25.7113L25.0473 25.4996" stroke="#2A3539" stroke-linecap="round" stroke-linejoin="round"/>
<path d="M27.5903 25.2884L30.1364 25.0768" stroke="#2A3539" stroke-linecap="round" stroke-linejoin="round"/>
<path d="M12.5938 29.8104L15.1398 29.5988" stroke="#2A3539" stroke-linecap="round" stroke-linejoin="round"/>
<path d="M17.6824 29.3874L20.2284 29.1758" stroke="#2A3539" stroke-linecap="round" stroke-linejoin="round"/>
<path d="M22.7715 28.9639L25.3175 28.7523" stroke="#2A3539" stroke-linecap="round" stroke-linejoin="round"/>
</svg>
