<svg width="24" height="24" viewBox="0 0 24 24" fill="none" xmlns="http://www.w3.org/2000/svg">
<path d="M19.875 12.25C19.875 9.4375 18.3633 6.87109 15.9375 5.46484C13.4766 4.02344 10.4883 4.02344 8.0625 5.46484C5.60156 6.87109 4.125 9.4375 4.125 12.25C4.125 15.0977 5.60156 17.6641 8.0625 19.0703C10.4883 20.5117 13.4766 20.5117 15.9375 19.0703C18.3633 17.6641 19.875 15.0977 19.875 12.25ZM3 12.25C3 9.05078 4.6875 6.09766 7.5 4.48047C10.2773 2.86328 13.6875 2.86328 16.5 4.48047C19.2773 6.09766 21 9.05078 21 12.25C21 15.4844 19.2773 18.4375 16.5 20.0547C13.6875 21.6719 10.2773 21.6719 7.5 20.0547C4.6875 18.4375 3 15.4844 3 12.25ZM8.76562 14.7109C9.39844 15.4492 10.4531 16.1875 12 16.1875C13.5117 16.1875 14.6016 15.4492 15.1992 14.7109C15.4102 14.4648 15.7617 14.4648 16.0078 14.6406C16.2539 14.8516 16.2539 15.2031 16.0781 15.4492C15.2695 16.3633 13.9336 17.3125 12 17.3125C10.0312 17.3125 8.69531 16.3633 7.88672 15.4492C7.71094 15.2031 7.71094 14.8516 7.95703 14.6406C8.20312 14.4648 8.55469 14.4648 8.76562 14.7109ZM8.48438 10.1055C8.27344 10.3516 8.09766 10.7031 8.02734 10.9844C7.95703 11.3008 7.64062 11.4766 7.35938 11.4062C7.04297 11.3359 6.86719 11.0195 6.9375 10.7383C7.04297 10.2812 7.28906 9.75391 7.64062 9.36719C7.99219 8.94531 8.51953 8.59375 9.1875 8.59375C9.82031 8.59375 10.3477 8.94531 10.6992 9.36719C11.0508 9.75391 11.2969 10.2812 11.4023 10.7383C11.4727 11.0195 11.2969 11.3359 11.0156 11.4062C10.6992 11.4766 10.3828 11.3008 10.3125 10.9844C10.2422 10.7031 10.0664 10.3516 9.85547 10.1055C9.64453 9.85938 9.39844 9.71875 9.1875 9.71875C8.94141 9.71875 8.69531 9.85938 8.48438 10.1055ZM13.6523 10.9844C13.582 11.3008 13.2656 11.4766 12.9844 11.4062C12.668 11.3359 12.4922 11.0195 12.5625 10.7383C12.668 10.2812 12.9141 9.75391 13.2656 9.36719C13.6172 8.94531 14.1445 8.59375 14.8125 8.59375C15.4453 8.59375 15.9727 8.94531 16.3242 9.36719C16.6758 9.75391 16.9219 10.2812 17.0273 10.7383C17.0977 11.0195 16.9219 11.3359 16.6406 11.4062C16.3242 11.4766 16.0078 11.3008 15.9375 10.9844C15.8672 10.7031 15.6914 10.3516 15.4805 10.1055C15.2695 9.85938 15.0234 9.71875 14.8125 9.71875C14.5664 9.71875 14.3203 9.85938 14.1094 10.1055C13.8984 10.3516 13.7227 10.7031 13.6523 10.9844Z" fill="#4A5A61"/>
</svg>
