<svg width="42" height="42" viewBox="0 0 42 42" fill="none" xmlns="http://www.w3.org/2000/svg">
<path d="M33.4348 20.1595C32.8032 20.0488 35.0204 19.4269 35.0204 19.4269L32.8748 18.9939L34.6948 18.7204L36.4074 18.4632L36.5278 18.0888C34.926 17.9227 32.5134 17.672 32.4906 17.672C32.4678 17.672 34.7697 17.2618 36.8762 16.9883L36.9446 16.7767C37.5892 14.7516 36.3748 12.6092 34.3074 12.1241L12.9688 7.11342C10.9762 6.64458 8.99015 7.90784 8.57015 9.91016L7.47294 15.1357C9.33853 15.0739 11.0706 15.6664 11.5134 15.6437C11.5525 15.6404 11.585 15.6371 11.6013 15.6371C11.6371 15.6371 11.6013 15.6371 11.5134 15.6437C11.0055 15.6925 8.79481 16.0441 7.2255 16.2981L7.15062 16.6562C7.93201 16.705 8.40411 16.7571 8.54411 16.7539C12.9981 16.653 7.63574 17.646 6.86736 17.9943L5.11899 26.3097C4.66969 28.4423 6.18364 30.4902 8.35527 30.6888L28.9157 32.5576C30.6185 32.7139 32.1976 31.6623 32.7185 30.0344L35.8083 20.345C34.8999 20.2897 33.7929 20.2148 33.4381 20.153L33.4348 20.1595Z" fill="#FFD5DA"/>
<path d="M19.731 25.2381L14.3752 28.1293L20.3105 29.3242H28.6943L31.0156 28.1065C31.0156 28.1065 28.1668 26.0847 26.6268 25.6028C25.0868 25.1209 19.731 25.2381 19.731 25.2381Z" fill="white"/>
<path d="M12.3631 29.3282L14.3784 28.1333L20.6687 29.3282H28.3915L31.3347 28.1952L35.9645 29.4193L37.3482 30.9528L37.5891 34.3649H34.6003L34.0956 32.8217L32.624 32.1477L31.644 32.4245L30.4361 33.0952C30.4361 33.0952 30.1789 34.3942 30.0356 34.3779C29.8924 34.3617 20.3431 34.3649 20.3431 34.3649L19.8743 32.9161C19.8743 32.9161 18.8324 32.2714 18.7087 32.2714C18.5849 32.2714 17.6343 31.9654 17.6343 32.1477C17.6343 32.33 17.084 32.5221 17.0222 32.5807C16.9603 32.6393 16.2245 33.4956 16.2245 33.4956L15.7817 34.4789L12.1938 34.3617L12.3598 29.3249L12.3631 29.3282Z" fill="#FF9BA7"/>
<path d="M32.5006 36.1323C33.3565 36.1323 34.0504 35.4384 34.0504 34.5825C34.0504 33.7266 33.3565 33.0327 32.5006 33.0327C31.6447 33.0327 30.9509 33.7266 30.9509 34.5825C30.9509 35.4384 31.6447 36.1323 32.5006 36.1323Z" fill="#FFF3CD"/>
<path d="M18.3405 36.1323C19.1965 36.1323 19.8903 35.4384 19.8903 34.5825C19.8903 33.7266 19.1965 33.0327 18.3405 33.0327C17.4846 33.0327 16.7908 33.7266 16.7908 34.5825C16.7908 35.4384 17.4846 36.1323 18.3405 36.1323Z" fill="#FFF3CD"/>
<path d="M12.0566 29.8001H8.30914V16.7606L16.5919 9.57178L25.324 17.3076V25.0922L19.7305 25.2388L13.7105 28.7778L12.0566 29.8001Z" fill="#FFF3CD"/>
<path d="M19.2262 25.6193L14.5997 27.7421V21.2793H19.2262V25.6193Z" fill="white"/>
<path d="M23.433 14.7937L21.0758 13.2765V10.8184H23.433V14.7937Z" fill="#FFF3CD"/>
<path d="M23.4947 10.8872H22.5049V14.5793H23.4947V10.8872Z" fill="white"/>
<path d="M30.1067 33.0293H20.4174V34.5791H30.1067V33.0293Z" fill="white"/>
<path d="M15.8631 33.0293H12.1938V34.4781H15.8631V33.0293Z" fill="white"/>
<path d="M37.4423 33.0293H34.4404V34.5791H37.4423V33.0293Z" fill="white"/>
<path d="M9.43565 29.7999H8.30914V16.9851L9.43565 15.9497V29.7999Z" fill="white"/>
<path d="M8.5631 18.3813L17.357 10.5055L16.6505 9.86084L8.30914 16.9846L8.5631 18.3813Z" fill="white"/>
<path d="M24.5874 8.12297C25.1969 8.12297 25.6911 7.62882 25.6911 7.01925C25.6911 6.40968 25.1969 5.91553 24.5874 5.91553C23.9778 5.91553 23.4836 6.40968 23.4836 7.01925C23.4836 7.62882 23.9778 8.12297 24.5874 8.12297Z" stroke="#FFDA6A" stroke-width="0.583333" stroke-linecap="round" stroke-linejoin="round"/>
<path d="M37.5817 26.3427C38.1913 26.3427 38.6855 25.8485 38.6855 25.239C38.6855 24.6294 38.1913 24.1353 37.5817 24.1353C36.9722 24.1353 36.478 24.6294 36.478 25.239C36.478 25.8485 36.9722 26.3427 37.5817 26.3427Z" stroke="#FFDA6A" stroke-width="0.583333" stroke-linecap="round" stroke-linejoin="round"/>
<path d="M3.93276 18.0888C4.54233 18.0888 5.03648 17.5946 5.03648 16.9851C5.03648 16.3755 4.54233 15.8813 3.93276 15.8813C3.32319 15.8813 2.82904 16.3755 2.82904 16.9851C2.82904 17.5946 3.32319 18.0888 3.93276 18.0888Z" stroke="#FFDA6A" stroke-width="0.583333" stroke-linecap="round" stroke-linejoin="round"/>
<path d="M8.30896 22.3799V29.9431H10.7997" stroke="#2A3539" stroke-width="0.583333" stroke-linecap="round" stroke-linejoin="round"/>
<path d="M8.30896 16.9854V20.6481" stroke="#2A3539" stroke-width="0.583333" stroke-linecap="round" stroke-linejoin="round"/>
<path d="M25.3293 16.9854V23.8909" stroke="#2A3539" stroke-width="0.583333" stroke-linecap="round" stroke-linejoin="round"/>
<path d="M6.5766 18.3825L16.7803 9.57227L27.0003 18.3695" stroke="#2A3539" stroke-width="0.583333" stroke-linecap="round" stroke-linejoin="round"/>
<path d="M23.4475 15.2438V10.7671H20.9633V13.0364" stroke="#2A3539" stroke-width="0.583333" stroke-linecap="round" stroke-linejoin="round"/>
<path d="M14.267 26.4561V21.0059H19.3298V24.0207" stroke="#2A3539" stroke-width="0.583333" stroke-linecap="round" stroke-linejoin="round"/>
<path d="M21.6382 34.3623H28.5015" stroke="#2A3539" stroke-width="0.583333" stroke-linecap="round" stroke-linejoin="round"/>
<path d="M35.6119 34.3625H37.4417V31.5397C37.4417 30.2081 35.8984 28.5574 31.171 28.1049C28.257 25.9658 25.9161 25.2397 23.7575 25.2397H20.9054C19.8896 25.2397 18.1477 25.9918 16.4873 26.8546C15.9891 27.1118 15.5008 27.3788 15.0384 27.6393C13.4333 28.5444 12.1766 29.3616 12.1766 29.3616L12.1896 34.3625H14.2603" stroke="#2A3539" stroke-width="0.583333" stroke-linecap="round" stroke-linejoin="round"/>
<path d="M29.5136 28.7788L28.374 29.2314H20.3387" stroke="#2A3539" stroke-width="0.583333" stroke-linecap="round" stroke-linejoin="round"/>
<path d="M32.2974 36.642C33.5489 36.642 34.5634 35.6274 34.5634 34.3759C34.5634 33.1244 33.5489 32.1099 32.2974 32.1099C31.0459 32.1099 30.0313 33.1244 30.0313 34.3759C30.0313 35.6274 31.0459 36.642 32.2974 36.642Z" stroke="#2A3539" stroke-width="0.583333" stroke-linecap="round" stroke-linejoin="round"/>
<path d="M18.0434 36.642C19.2949 36.642 20.3094 35.6274 20.3094 34.3759C20.3094 33.1244 19.2949 32.1099 18.0434 32.1099C16.7919 32.1099 15.7773 33.1244 15.7773 34.3759C15.7773 35.6274 16.7919 36.642 18.0434 36.642Z" stroke="#2A3539" stroke-width="0.583333" stroke-linecap="round" stroke-linejoin="round"/>
<path d="M30.1033 13.2637V15.8976" stroke="#F96073" stroke-width="0.583333" stroke-linecap="round" stroke-linejoin="round"/>
<path d="M28.7876 14.5796H31.4216" stroke="#F96073" stroke-width="0.583333" stroke-linecap="round" stroke-linejoin="round"/>
<path d="M8.28233 4.0835L6.41675 5.94582" stroke="#F96073" stroke-width="0.583333" stroke-linecap="round" stroke-linejoin="round"/>
<path d="M6.41675 4.0835L8.28233 5.94582" stroke="#F96073" stroke-width="0.583333" stroke-linecap="round" stroke-linejoin="round"/>
<path d="M6.59924 33.0591V35.693" stroke="#F96073" stroke-width="0.583333" stroke-linecap="round" stroke-linejoin="round"/>
<path d="M5.28027 34.375H7.91423" stroke="#F96073" stroke-width="0.583333" stroke-linecap="round" stroke-linejoin="round"/>
</svg>
