<svg width="24" height="24" viewBox="0 0 24 24" fill="none" xmlns="http://www.w3.org/2000/svg">
<path d="M8.00001 5.5C8.00001 4.90234 7.47267 4.375 6.87501 4.375C6.2422 4.375 5.75001 4.90234 5.75001 5.5C5.75001 6.13281 6.2422 6.625 6.87501 6.625C7.47267 6.625 8.00001 6.13281 8.00001 5.5ZM4.62501 5.5C4.62501 4.72656 5.04688 3.98828 5.75001 3.56641C6.41798 3.17969 7.29688 3.17969 8.00001 3.56641C8.66798 3.98828 9.12501 4.72656 9.12501 5.5C9.12501 6.30859 8.66798 7.04688 8.00001 7.46875C7.29688 7.85547 6.41798 7.85547 5.75001 7.46875C5.04688 7.04688 4.62501 6.30859 4.62501 5.5ZM19.25 5.5C19.25 4.90234 18.7227 4.375 18.125 4.375C17.4922 4.375 17 4.90234 17 5.5C17 6.13281 17.4922 6.625 18.125 6.625C18.7227 6.625 19.25 6.13281 19.25 5.5ZM15.875 5.5C15.875 4.72656 16.2969 3.98828 17 3.56641C17.668 3.17969 18.5469 3.17969 19.25 3.56641C19.918 3.98828 20.375 4.72656 20.375 5.5C20.375 6.30859 19.918 7.04688 19.25 7.46875C18.5469 7.85547 17.668 7.85547 17 7.46875C16.2969 7.04688 15.875 6.30859 15.875 5.5ZM18.125 10C17.7031 10 17.3164 10.1406 17 10.3516V15.625H19.25V10.3516C18.8984 10.1406 18.5117 10 18.125 10ZM17 20.6875C17 21.0039 16.7188 21.25 16.4375 21.25C16.1211 21.25 15.875 21.0039 15.875 20.6875V11.8281L14.3633 14.2539C14.2227 14.5 13.8711 14.6055 13.5899 14.4297C13.3438 14.2891 13.2383 13.9375 13.4141 13.6562L15.418 10.3867C15.9805 9.47266 17 8.875 18.125 8.875C19.2149 8.875 20.2344 9.47266 20.7969 10.3867L22.8008 13.6562C22.9766 13.9375 22.8711 14.2539 22.625 14.4297C22.3438 14.6055 21.9922 14.5 21.8516 14.2539L20.375 11.8281V20.6875C20.375 21.0039 20.0938 21.25 19.8125 21.25C19.4961 21.25 19.25 21.0039 19.25 20.6875V16.75H17V20.6875ZM4.62501 17.3125H3.78126C3.60548 17.3125 3.4297 17.2422 3.32423 17.1016C3.21876 16.9609 3.1836 16.7852 3.21876 16.6094L4.5547 11.6523L2.83204 14.2539C2.65626 14.5352 2.3047 14.6055 2.0586 14.4297C1.77735 14.2539 1.70704 13.9023 1.88282 13.6562L4.02735 10.3867C4.62501 9.50781 5.60938 8.94531 6.66407 8.91016C6.69923 8.875 6.76954 8.875 6.8047 8.875H6.87501H6.91017C6.94532 8.875 7.01563 8.875 7.05079 8.91016C8.10548 8.94531 9.08985 9.50781 9.68751 10.3867L11.832 13.6562C12.0078 13.9023 11.9375 14.2539 11.6563 14.4297C11.4102 14.6055 11.0586 14.5352 10.8828 14.2539L9.16017 11.6523L10.4961 16.6094C10.5313 16.7852 10.4961 16.9609 10.3906 17.1016C10.2852 17.2422 10.1094 17.3125 9.9336 17.3125H9.12501V20.6875C9.12501 21.0039 8.84376 21.25 8.56251 21.25C8.2461 21.25 8.00001 21.0039 8.00001 20.6875V17.3125H5.75001V20.6875C5.75001 21.0039 5.46876 21.25 5.18751 21.25C4.8711 21.25 4.62501 21.0039 4.62501 20.6875V17.3125ZM6.73438 10.0352C6.38282 10.0352 6.10157 10.2812 5.9961 10.6328L4.48438 16.1875H9.23048L7.71876 10.6328C7.61329 10.2812 7.33204 10.0352 6.98048 10.0352C6.94532 10 6.91017 10 6.83985 10C6.8047 10 6.76954 10 6.73438 10.0352Z" fill="#4A5A61"/>
</svg>
