<svg width="72" height="72" viewBox="0 0 72 72" fill="none" xmlns="http://www.w3.org/2000/svg">
<path d="M58.1747 36.276C57.0919 36.0862 60.8929 35.0201 60.8929 35.0201L57.2147 34.2778L60.3347 33.809L63.2705 33.368L63.477 32.7262C60.731 32.4415 56.5952 32.0118 56.5561 32.0118C56.517 32.0118 60.4631 31.3085 64.0743 30.8397L64.1915 30.4769C65.2966 27.0053 63.2147 23.3327 59.6705 22.5011L23.0901 13.9113C19.6743 13.1076 16.2696 15.2732 15.5496 18.7057L13.6687 27.6639C16.8668 27.5578 19.8361 28.5736 20.5952 28.5346C20.6622 28.529 20.718 28.5234 20.7459 28.5234C20.8073 28.5234 20.7459 28.5234 20.5952 28.5346C19.7245 28.6183 15.9347 29.2211 13.2445 29.6564L13.1161 30.2704C14.4556 30.3541 15.265 30.4434 15.505 30.4378C23.1403 30.2648 13.9477 31.9671 12.6305 32.5643L9.63332 46.8192C8.86309 50.475 11.4584 53.9857 15.1812 54.3262L50.4277 57.5299C53.3468 57.7978 56.0538 55.995 56.9468 53.2043L62.2436 36.5941C60.6863 36.4992 58.7887 36.3708 58.1803 36.2648L58.1747 36.276Z" fill="#FFD5DA"/>
<path d="M58.4705 66.9622C59.5154 66.9622 60.3626 66.115 60.3626 65.0701C60.3626 64.0251 59.5154 63.178 58.4705 63.178C57.4255 63.178 56.5784 64.0251 56.5784 65.0701C56.5784 66.115 57.4255 66.9622 58.4705 66.9622Z" stroke="#FFDA6A" stroke-width="1.39535" stroke-linecap="round" stroke-linejoin="round"/>
<path d="M5.53662 43.2581C6.5816 43.2581 7.42872 42.4109 7.42872 41.366C7.42872 40.321 6.5816 39.4739 5.53662 39.4739C4.49165 39.4739 3.64453 40.321 3.64453 41.366C3.64453 42.4109 4.49165 43.2581 5.53662 43.2581Z" stroke="#FFDA6A" stroke-width="1.39535" stroke-linecap="round" stroke-linejoin="round"/>
<path d="M48.0054 12.8506C49.0503 12.8506 49.8975 12.0035 49.8975 10.9585C49.8975 9.91353 49.0503 9.06641 48.0054 9.06641C46.9604 9.06641 46.1133 9.91353 46.1133 10.9585C46.1133 12.0035 46.9604 12.8506 48.0054 12.8506Z" stroke="#FFDA6A" stroke-width="1.39535" stroke-linecap="round" stroke-linejoin="round"/>
<path d="M15.516 8.32422L12.3235 11.5224" stroke="#F96073" stroke-width="1.39535" stroke-linecap="round" stroke-linejoin="round"/>
<path d="M12.3235 8.32422L15.516 11.5224" stroke="#F96073" stroke-width="1.39535" stroke-linecap="round" stroke-linejoin="round"/>
<path d="M23.8714 58.406L20.6732 61.5986" stroke="#F96073" stroke-width="1.39535" stroke-linecap="round" stroke-linejoin="round"/>
<path d="M20.6732 58.406L23.8714 61.5986" stroke="#F96073" stroke-width="1.39535" stroke-linecap="round" stroke-linejoin="round"/>
<path d="M61.4007 15.9316H56.8798" stroke="#F96073" stroke-width="1.39535" stroke-linecap="round" stroke-linejoin="round"/>
<path d="M59.1404 13.6711V18.1921" stroke="#F96073" stroke-width="1.39535" stroke-linecap="round" stroke-linejoin="round"/>
<path d="M61.1776 47.0199C60.999 46.992 60.8204 46.9808 60.6474 46.9864C60.9264 39.859 55.5348 33.3901 47.8827 32.0952C40.2418 30.8004 33.0306 35.1203 30.9376 41.9185C30.8371 41.8906 30.7367 41.8627 30.6306 41.8459C28.9841 41.5669 27.3934 42.8785 27.0697 44.7706C26.746 46.6627 27.8232 48.4264 29.4641 48.7055C29.8548 48.7724 30.2399 48.7445 30.6027 48.6497C31.786 54.4041 36.6418 59.1873 43.105 60.2813C49.6018 61.3808 55.7971 58.4227 58.7887 53.3269C59.1404 53.6059 59.5534 53.8069 60.0167 53.885C61.6632 54.1641 63.2539 52.8524 63.5776 50.9604C63.9013 49.0683 62.8241 47.3045 61.1832 47.0255L61.1776 47.0199Z" fill="white"/>
<path d="M61.3172 47.1261C61.1386 47.0982 61.2111 46.5121 61.0381 46.5177C61.2502 39.7809 54.0948 32.994 49.8809 32.6647C30.7311 31.1856 24.0781 55.6712 45.3767 59.2768C51.8734 60.3763 55.8474 58.1158 58.7888 53.327C59.146 53.5949 59.453 53.9019 59.9106 53.98C61.5572 54.2591 63.0641 53.433 63.3655 51.647C63.6669 49.8609 62.9581 47.4051 61.3172 47.1261Z" fill="#FFF3CD"/>
<path d="M39.7951 32.7484C39.7951 32.7484 38.8854 31.9558 39.0695 31.2805C39.4267 29.9465 40.9393 29.5949 40.9393 29.5949C40.9393 29.5949 40.5654 28.2665 40.7272 27.8312C40.9895 27.1168 43.0993 26.0675 44.4444 26.9103C45.7895 27.7531 46.543 28.7354 46.543 28.7354C46.543 28.7354 47.877 27.7084 48.7477 28.3168C49.6184 28.9251 50.1319 29.2154 50.1319 29.2154C50.1319 29.2154 53.023 28.1661 53.877 28.5679C54.7309 28.9698 55.8919 28.7577 55.9588 29.5838C56.0258 30.4098 55.423 31.8498 55.423 31.8498C55.423 31.8498 57.1533 33.3121 56.7123 33.9093C56.2435 34.5456 55.2333 35.3996 55.2333 35.3996C55.2333 35.3996 51.9179 32.8935 48.2621 32.1177C44.6063 31.3475 39.8063 32.7372 39.8063 32.7372L39.7951 32.7484Z" fill="white"/>
<path d="M41.012 32.4245C41.012 32.4245 40.6827 32.1733 40.4538 31.5091C40.2752 30.9957 41.0231 30.644 41.6706 30.4375C42.1338 30.2924 42.3961 29.8124 42.2734 29.3436C42.145 28.8468 41.8324 28.4896 42.1115 28.0598C42.7031 27.1389 43.8975 28.177 45.2371 29.0198C46.5766 29.8626 46.3645 29.7622 46.3645 29.7622C46.3645 29.7622 47.3245 27.4012 49.2557 28.2719C50.2213 28.7073 50.411 29.0924 50.411 29.0924C50.411 29.0924 52.811 27.8143 53.665 28.2105C54.5189 28.6068 55.9255 29.3491 55.9924 30.1808C56.0594 31.0124 55.4064 31.9054 55.4064 31.9054C55.4064 31.9054 56.7236 33.3064 56.4501 33.9984C56.1152 34.8468 55.3729 35.5557 55.3729 35.5557C55.3729 35.5557 52.4873 33.0384 48.8259 32.2682C45.1645 31.498 41.0175 32.4245 41.0175 32.4245H41.012Z" fill="#FF9BA7"/>
<path d="M41.1907 25.8999C41.4586 28.272 41.146 30.5771 40.3758 32.6701C39.6502 34.6347 36.4297 34.0654 34.9786 35.5557C33.2372 37.3417 30.6363 41.7901 30.6363 41.7901C29.8214 42.0301 28.973 42.2031 28.1023 42.298C19.959 43.2134 12.6195 37.3529 11.7042 29.2152C10.7888 21.072 16.6493 13.7324 24.787 12.8171C32.9302 11.9017 40.2697 17.7622 41.1851 25.8999H41.1907Z" fill="white"/>
<path d="M39.7451 25.9614C40.0298 28.4898 39.5665 30.9289 38.534 33.0666C38.534 33.0666 37.1944 33.2619 34.6381 35.7959C31.8698 38.5363 31.546 39.5354 31.546 39.5354C30.5191 39.9373 29.4195 40.2107 28.2698 40.3391C21.1312 41.1428 14.6958 36.0024 13.8921 28.8638C13.0884 21.7252 18.2288 15.2898 25.3674 14.4861C32.506 13.6824 38.9414 18.8228 39.7451 25.9614Z" fill="#FFF3CD"/>
<path d="M12.5636 32.832C14.632 32.832 16.3087 31.1553 16.3087 29.0869C16.3087 27.0185 14.632 25.3418 12.5636 25.3418C10.4952 25.3418 8.81848 27.0185 8.81848 29.0869C8.81848 31.1553 10.4952 32.832 12.5636 32.832Z" fill="white"/>
<path d="M13.6241 32.0171C15.4829 32.0171 16.9897 30.5102 16.9897 28.6515C16.9897 26.7927 15.4829 25.2859 13.6241 25.2859C11.7654 25.2859 10.2585 26.7927 10.2585 28.6515C10.2585 30.5102 11.7654 32.0171 13.6241 32.0171Z" fill="#FFF3CD"/>
<path d="M45.2649 26.3073C45.304 26.6533 45.2929 26.9882 45.2426 27.3175C45.0808 28.3278 45.2649 26.3073 41.9049 26.7203C39.8789 26.9715 41.4752 29.1259 40.8277 29.1985C40.1803 29.271 40.6994 30.4264 40.1356 30.1975C38.9077 29.6952 37.9812 28.5566 37.8194 27.1445C37.5905 25.0906 39.0696 23.2375 41.1236 23.0031C43.1775 22.7687 45.0305 24.2533 45.2649 26.3073Z" fill="white"/>
<path d="M20.9079 12.7055C20.6456 10.3502 22.3647 8.2181 24.7479 7.9502Z" fill="white"/>
<path d="M43.4288 25.5706C43.4623 25.8608 43.4623 26.1511 43.4288 26.4301C43.4288 26.4301 40.1358 26.0785 40.9451 29.5892C41.0009 29.8404 39.2707 30.4878 39.0195 30.4655C37.2614 30.3148 36.1228 28.2329 35.9163 26.4134C35.6819 24.3371 37.1777 22.4674 39.2484 22.2329C41.3247 21.9985 43.1944 23.4943 43.4288 25.565V25.5706Z" fill="#FFF3CD"/>
<path d="M26.104 20.6088C28.8536 20.6088 31.0826 18.3798 31.0826 15.6302C31.0826 12.8806 28.8536 10.6516 26.104 10.6516C23.3544 10.6516 21.1254 12.8806 21.1254 15.6302C21.1254 18.3798 23.3544 20.6088 26.104 20.6088Z" fill="#FF9BA7"/>
<path d="M46.878 31.7661C46.3255 31.3084 46.0241 30.5717 46.1524 29.8126C46.3422 28.674 47.4194 27.9093 48.558 28.1047C49.6966 28.3 50.4613 29.3717 50.2659 30.5103C50.2045 30.8786 50.0482 31.2024 49.8306 31.4703" stroke="#2A3539" stroke-width="1.39535" stroke-linecap="round" stroke-linejoin="round"/>
<path d="M30.078 43.4255C32.1766 35.7064 39.8343 30.6943 47.8882 32.0562C55.9422 33.418 61.4622 40.5957 60.971 48.5213" stroke="#2A3539" stroke-width="1.39535" stroke-linecap="round" stroke-linejoin="round"/>
<path d="M61.105 47.0423C62.7962 47.3269 63.9069 49.1018 63.5831 50.9995C63.2594 52.8971 61.6296 54.2088 59.9385 53.9241L58.9617 53.4944C55.4343 58.3502 49.3506 61.0683 43.0269 59.9967C36.798 58.9418 31.9924 54.4878 30.1952 48.8562L29.4696 48.7669C27.7785 48.4823 26.6678 46.7074 26.9915 44.8097C27.3152 42.912 28.7887 41.7288 30.385 41.8572" stroke="#2A3539" stroke-width="1.39535" stroke-linecap="round" stroke-linejoin="round"/>
<path d="M50.4224 35.3549C51.3824 37.2303 49.9368 41.0982 46.7442 40.7856C42.7982 40.4005 42.7145 37.5651 43.3563 36.3261C44.5284 34.0656 48.3628 34.367 48.0112 37.4814" stroke="#2A3539" stroke-width="1.39535" stroke-linecap="round" stroke-linejoin="round"/>
<path d="M40.4807 45.724C40.6196 44.9034 40.2321 44.1535 39.6152 44.049C38.9982 43.9446 38.3854 44.5251 38.2464 45.3457C38.1075 46.1663 38.495 46.9162 39.112 47.0207C39.729 47.1252 40.3418 46.5446 40.4807 45.724Z" stroke="#2A3539" stroke-width="1.39535" stroke-linecap="round" stroke-linejoin="round"/>
<path d="M52.6385 47.7843C52.7775 46.9637 52.39 46.2138 51.773 46.1093C51.156 46.0049 50.5432 46.5854 50.4043 47.406C50.2653 48.2266 50.6529 48.9765 51.2698 49.081C51.8868 49.1855 52.4996 48.6049 52.6385 47.7843Z" stroke="#2A3539" stroke-width="1.39535" stroke-linecap="round" stroke-linejoin="round"/>
<path d="M40.7107 52.1157C41.6149 53.7455 44.5674 55.8887 47.8884 53.5278" stroke="#2A3539" stroke-width="1.39535" stroke-linecap="round" stroke-linejoin="round"/>
<path d="M46.4482 28.6293C46.4482 28.6293 44.6677 26.4247 42.5412 26.5642C41.397 26.6424 40.0296 27.887 41.0008 29.5503C41.0008 29.5503 37.691 30.1977 39.7952 32.7428" stroke="#2A3539" stroke-width="1.39535" stroke-linecap="round" stroke-linejoin="round"/>
<path d="M50.3999 29.2989C50.3999 29.2989 52.8111 27.8031 54.7701 28.6347C55.825 29.0868 56.7069 30.711 55.239 31.9612C55.239 31.9612 58.1525 33.658 55.3283 35.3715" stroke="#2A3539" stroke-width="1.39535" stroke-linecap="round" stroke-linejoin="round"/>
<path d="M23.4977 34.5513C24.9991 36.7894 29.6037 37.9336 31.5516 33.9875" stroke="#2A3539" stroke-width="1.39535" stroke-linecap="round" stroke-linejoin="round"/>
<path d="M20.238 29.1372L20.3832 30.8563" stroke="#2A3539" stroke-width="1.39535" stroke-linecap="round" stroke-linejoin="round"/>
<path d="M34.0577 27.9651L34.2029 29.6897" stroke="#2A3539" stroke-width="1.39535" stroke-linecap="round" stroke-linejoin="round"/>
<path d="M21.7675 14.3464C16.9507 16.0878 13.3675 20.2404 12.3461 25.2469C12.3405 25.2804 12.3349 25.3139 12.3237 25.3474" stroke="#2A3539" stroke-width="1.39535" stroke-linecap="round" stroke-linejoin="round"/>
<path d="M40.5432 22.9809C38.8799 18.5772 35.1795 15.2339 30.6753 13.9949" stroke="#2A3539" stroke-width="1.39535" stroke-linecap="round" stroke-linejoin="round"/>
<path d="M30.558 42.4266C29.7375 42.6443 28.8892 42.795 28.0129 42.8675C21.2985 43.4368 15.2594 39.4071 12.9934 33.3959H12.971C10.7608 33.5857 8.81847 31.9448 8.6287 29.7345C8.43894 27.5243 10.0799 25.582 12.2901 25.3922C13.5682 25.2862 14.7571 25.7885 15.5664 26.6592" stroke="#2A3539" stroke-width="1.39535" stroke-linecap="round" stroke-linejoin="round"/>
<path d="M37.9423 24.8841C38.5841 23.8181 39.7116 23.0702 41.0455 22.953C41.3078 22.9307 41.5646 22.9362 41.8157 22.9641C41.8157 22.9641 44.1432 23.1483 44.8074 24.8841" stroke="#2A3539" stroke-width="1.39535" stroke-linecap="round" stroke-linejoin="round"/>
<path d="M25.1442 13.4089C28.627 11.941 28.7163 18.7782 24.0503 17.5559C20.8856 16.7242 20.9414 10.6293 25.7135 10.6517C33.9294 10.6963 31.027 22.2275 25.0549 21.3456" stroke="#2A3539" stroke-width="1.39535" stroke-linecap="round" stroke-linejoin="round"/>
</svg>
