<svg width="72" height="72" viewBox="0 0 72 72" fill="none" xmlns="http://www.w3.org/2000/svg">
<path d="M57.0014 37.5296C55.9186 37.3398 59.7195 36.2738 59.7195 36.2738L56.0414 35.5315L59.1614 35.0626L62.0972 34.6217L62.3037 33.9798C59.5577 33.6952 55.4218 33.2654 55.3828 33.2654C55.3437 33.2654 59.2898 32.5622 62.9009 32.0933L63.0181 31.7305C64.1232 28.2589 62.0414 24.5864 58.4972 23.7547L21.9167 15.165C18.5009 14.3612 15.0963 16.5268 14.3763 19.9594L12.4953 28.9175C15.6935 28.8115 18.6628 29.8273 19.4218 29.7882C19.4888 29.7826 19.5446 29.7771 19.5725 29.7771C19.6339 29.7771 19.5725 29.7771 19.4218 29.7882C18.5511 29.8719 14.7614 30.4747 12.0711 30.9101L11.9428 31.524C13.2823 31.6078 14.0916 31.6971 14.3316 31.6915C21.967 31.5185 12.7744 33.2208 11.4572 33.818L8.45998 48.0729C7.68975 51.7287 10.2851 55.2394 14.0079 55.5799L49.2544 58.7836C52.1735 59.0515 54.8805 57.2487 55.7735 54.458L61.0702 37.8478C59.513 37.7529 57.6153 37.6245 57.007 37.5185L57.0014 37.5296Z" fill="#FFD5DA"/>
<path d="M48.6894 45.3995C50.4332 43.6557 47.2085 37.6039 41.4868 31.8822C35.7652 26.1606 29.7133 22.9359 27.9696 24.6796C26.2258 26.4233 29.4506 32.4752 35.1722 38.1969C40.8938 43.9185 46.9457 47.1432 48.6894 45.3995Z" fill="white"/>
<path d="M45.4429 44.0259C46.7964 42.6723 44.2909 37.9721 39.8465 33.5278C35.4022 29.0835 30.702 26.5779 29.3484 27.9315C27.9949 29.285 30.5004 33.9852 34.9448 38.4295C39.3891 42.8739 44.0893 45.3794 45.4429 44.0259Z" fill="#FFF3CD"/>
<path d="M17.2959 49.4287L13.7741 57.9292C13.7741 57.9292 13.3945 59.0678 14.0029 59.3078C14.6113 59.5478 15.482 59.6203 15.6103 59.5589C15.7387 59.4975 17.6531 58.4427 17.6978 58.4259C17.7424 58.4092 17.2903 49.4287 17.2903 49.4287H17.2959Z" fill="#FF9BA7"/>
<path d="M22.5192 37.9094L17.6578 48.2573L17.6969 58.4211C17.6969 58.4211 23.0383 56.0434 23.0383 55.9262C23.0383 55.809 22.5137 37.9094 22.5137 37.9094H22.5192Z" fill="#FF9BA7"/>
<path d="M27.2801 26.9309L22.8206 36.5923V56.3895C22.8206 56.3895 28.5694 53.9002 28.4633 53.85C28.3573 53.7997 28.0782 28.1923 28.0782 28.1923L27.2801 26.9309Z" fill="#FF9BA7"/>
<path d="M28.0957 29.532L29.4855 31.0222L33.2194 36.5924C33.2194 36.5924 33.7831 51.5227 33.6715 51.6399C33.5599 51.7571 28.4697 53.8501 28.4697 53.8501L28.1013 29.532H28.0957Z" fill="#FF9BA7"/>
<path d="M33.6877 36.9099L38.5993 41.3025L38.8784 49.429C38.8784 49.429 33.0123 52.2643 33.3416 51.9518C33.6709 51.6392 33.6877 36.9099 33.6877 36.9099Z" fill="#FF9BA7"/>
<path d="M38.9898 42.1677C38.9898 42.1677 42.6401 44.4002 43.9796 45.0812C45.3191 45.7621 46.3684 46.3928 46.3684 46.3928C46.3684 46.3928 38.5768 49.9258 38.7275 49.6747C38.8782 49.4235 38.9898 42.1621 38.9898 42.1621V42.1677Z" fill="#FF9BA7"/>
<path d="M54.5572 18.5862L57.1637 20.8522L60.5628 19.5071L59.4521 23.2355C59.4521 23.2355 62.2484 26.3499 62.1758 26.2494C62.1033 26.149 57.8781 25.4792 57.8781 25.4792C57.8781 25.4792 55.6344 29.5369 55.5953 29.1853C55.5563 28.8336 54.7302 25.0494 54.7302 25.0494C54.7302 25.0494 50.1591 24.2904 50.5944 24.2736C51.0298 24.2569 54.4456 22.3815 54.4958 22.2922C54.546 22.2029 54.5684 18.5973 54.5684 18.5973L54.5572 18.5862Z" fill="#FFF3CD"/>
<path d="M40.8208 16.6776C42.6487 16.6776 44.1305 15.1958 44.1305 13.3679C44.1305 11.5399 42.6487 10.0581 40.8208 10.0581C38.9928 10.0581 37.511 11.5399 37.511 13.3679C37.511 15.1958 38.9928 16.6776 40.8208 16.6776Z" fill="#FF9BA7"/>
<path d="M7.04859 34.8064C8.09356 34.8064 8.94068 33.9593 8.94068 32.9143C8.94068 31.8693 8.09356 31.0222 7.04859 31.0222C6.00361 31.0222 5.15649 31.8693 5.15649 32.9143C5.15649 33.9593 6.00361 34.8064 7.04859 34.8064Z" stroke="#FFDA6A" stroke-width="1.39535" stroke-linecap="round" stroke-linejoin="round"/>
<path d="M60.0609 56.1716C61.1059 56.1716 61.953 55.3245 61.953 54.2795C61.953 53.2346 61.1059 52.3875 60.0609 52.3875C59.0159 52.3875 58.1688 53.2346 58.1688 54.2795C58.1688 55.3245 59.0159 56.1716 60.0609 56.1716Z" stroke="#FFDA6A" stroke-width="1.39535" stroke-linecap="round" stroke-linejoin="round"/>
<path d="M11.2012 14.4175V18.9328" stroke="#F96073" stroke-width="1.39535" stroke-linecap="round" stroke-linejoin="round"/>
<path d="M8.94031 16.6731H13.4557" stroke="#F96073" stroke-width="1.39535" stroke-linecap="round" stroke-linejoin="round"/>
<path d="M55.7521 9.43896L58.9446 12.6315" stroke="#F96073" stroke-width="1.39535" stroke-linecap="round" stroke-linejoin="round"/>
<path d="M55.7521 12.6315L58.9446 9.43896" stroke="#F96073" stroke-width="1.39535" stroke-linecap="round" stroke-linejoin="round"/>
<path d="M38.187 60.1458L41.3796 63.3439" stroke="#F96073" stroke-width="1.39535" stroke-linecap="round" stroke-linejoin="round"/>
<path d="M38.187 63.3439L41.3796 60.1458" stroke="#F96073" stroke-width="1.39535" stroke-linecap="round" stroke-linejoin="round"/>
<path d="M45.5941 36.9831C48.4517 40.8621 49.7187 44.2165 48.5131 45.4221C46.8052 47.13 40.7829 43.8817 35.0675 38.1663C29.3522 32.451 26.1038 26.4286 27.8117 24.7207C28.6657 23.8668 30.5968 24.2519 33.0303 25.5635" stroke="#2A3539" stroke-width="1.39535" stroke-linecap="round" stroke-linejoin="round"/>
<path d="M36.5464 27.863C38.0757 29.0128 39.6775 30.4026 41.2571 31.9821C41.8766 32.6016 42.4627 33.2212 43.0208 33.8351" stroke="#2A3539" stroke-width="1.39535" stroke-linecap="round" stroke-linejoin="round"/>
<path d="M27.4657 25.262L13.5681 57.7289C13.1048 58.8117 14.1988 59.9113 15.2816 59.448L47.2574 45.8629" stroke="#2A3539" stroke-width="1.39535" stroke-linecap="round" stroke-linejoin="round"/>
<path d="M17.5698 48.4092V58.3664" stroke="#2A3539" stroke-width="1.39535" stroke-linecap="round" stroke-linejoin="round"/>
<path d="M22.8275 36.1028V56.246" stroke="#2A3539" stroke-width="1.39535" stroke-linecap="round" stroke-linejoin="round"/>
<path d="M28.0851 29.0977V53.8511" stroke="#2A3539" stroke-width="1.39535" stroke-linecap="round" stroke-linejoin="round"/>
<path d="M33.3428 36.6882V51.6408" stroke="#2A3539" stroke-width="1.39535" stroke-linecap="round" stroke-linejoin="round"/>
<path d="M38.6003 41.6111V49.4306" stroke="#2A3539" stroke-width="1.39535" stroke-linecap="round" stroke-linejoin="round"/>
<path d="M32.9686 30.4249C33.4319 30.0063 38.5947 19.943 34.3584 16.3709C28.0291 11.0351 24.5686 20.8695 29.9044 21.2435" stroke="#2A3539" stroke-width="1.39535" stroke-linecap="round" stroke-linejoin="round"/>
<path d="M40.5765 39.2549C40.5765 39.2549 44.3272 33.7684 51.2147 32.574C62.6565 30.5926 62.037 46.3656 52.6993 38.6354" stroke="#2A3539" stroke-width="1.39535" stroke-linecap="round" stroke-linejoin="round"/>
<path d="M47.8035 11.0349C47.8035 11.0349 49.9468 21.4721 43.3607 24.86" stroke="#2A3539" stroke-width="1.39535" stroke-linecap="round" stroke-linejoin="round"/>
<path d="M40.822 16.6776C42.6499 16.6776 44.1317 15.1958 44.1317 13.3679C44.1317 11.5399 42.6499 10.0581 40.822 10.0581C38.994 10.0581 37.5122 11.5399 37.5122 13.3679C37.5122 15.1958 38.994 16.6776 40.822 16.6776Z" stroke="#2A3539" stroke-width="1.39535" stroke-linecap="round" stroke-linejoin="round"/>
<path d="M60.8254 18.9891L58.844 22.8738L61.9249 25.9603L57.6161 25.2794L55.6347 29.1696L54.9537 24.8552L50.6449 24.1743L54.5295 22.1929L53.8486 17.884L56.9351 20.9705L60.8254 18.9891Z" stroke="#2A3539" stroke-width="1.39535" stroke-linecap="round" stroke-linejoin="round"/>
</svg>
