<svg width="24" height="24" viewBox="0 0 24 24" fill="none" xmlns="http://www.w3.org/2000/svg">
<path d="M6.375 5.5C5.74219 5.5 5.25 6.02734 5.25 6.625V17.875C5.25 18.5078 5.74219 19 6.375 19H17.625C18.2227 19 18.75 18.5078 18.75 17.875V6.625C18.75 6.02734 18.2227 5.5 17.625 5.5H6.375ZM4.125 6.625C4.125 5.39453 5.10938 4.375 6.375 4.375H17.625C18.8555 4.375 19.875 5.39453 19.875 6.625V17.875C19.875 19.1406 18.8555 20.125 17.625 20.125H6.375C5.10938 20.125 4.125 19.1406 4.125 17.875V6.625ZM7.21875 6.625C7.67578 6.625 8.0625 7.01172 8.0625 7.46875C8.0625 7.96094 7.67578 8.3125 7.21875 8.3125C6.72656 8.3125 6.375 7.96094 6.375 7.46875C6.375 7.01172 6.72656 6.625 7.21875 6.625ZM15.9375 7.46875C15.9375 7.01172 16.2891 6.625 16.7812 6.625C17.2383 6.625 17.625 7.01172 17.625 7.46875C17.625 7.96094 17.2383 8.3125 16.7812 8.3125C16.2891 8.3125 15.9375 7.96094 15.9375 7.46875ZM7.21875 16.1875C7.67578 16.1875 8.0625 16.5742 8.0625 17.0312C8.0625 17.5234 7.67578 17.875 7.21875 17.875C6.72656 17.875 6.375 17.5234 6.375 17.0312C6.375 16.5742 6.72656 16.1875 7.21875 16.1875ZM15.9375 17.0312C15.9375 16.5742 16.2891 16.1875 16.7812 16.1875C17.2383 16.1875 17.625 16.5742 17.625 17.0312C17.625 17.5234 17.2383 17.875 16.7812 17.875C16.2891 17.875 15.9375 17.5234 15.9375 17.0312ZM8.90625 9.50781C9.15234 8.66406 9.92578 8.03125 10.8047 8.03125H12.8438C14.0742 8.03125 15.0938 9.05078 15.0938 10.3164C15.0938 11.1602 14.6016 11.9336 13.8633 12.3203L12.5625 12.9883V13.6562C12.5625 13.9727 12.2812 14.2188 12 14.2188C11.6836 14.2188 11.4375 13.9727 11.4375 13.6562V12.6367C11.4375 12.4258 11.543 12.2148 11.7188 12.1445L13.3359 11.3008C13.7227 11.125 13.9688 10.7383 13.9688 10.3164C13.9688 9.68359 13.4414 9.15625 12.8438 9.15625H10.8047C10.4531 9.15625 10.1016 9.4375 9.99609 9.78906V9.82422C9.92578 10.1055 9.60938 10.3164 9.32812 10.2109C9.01172 10.1406 8.83594 9.82422 8.90625 9.54297V9.50781ZM11.1562 15.9062C11.1562 15.4492 11.5078 15.0625 12 15.0625C12.457 15.0625 12.8438 15.4492 12.8438 15.9062C12.8438 16.3984 12.457 16.75 12 16.75C11.5078 16.75 11.1562 16.3984 11.1562 15.9062Z" fill="#4A5A61"/>
</svg>
