<svg width="72" height="72" viewBox="0 0 72 72" fill="none" xmlns="http://www.w3.org/2000/svg">
<path d="M58.2843 34.3594C57.2016 34.1697 61.0025 33.1036 61.0025 33.1036L57.3243 32.3613L60.4443 31.8925L63.3802 31.4515L63.5867 30.8097C60.8406 30.525 56.7048 30.0953 56.6657 30.0953C56.6267 30.0953 60.5727 29.392 64.1839 28.9232L64.3011 28.5604C65.4062 25.0887 63.3243 21.4162 59.7802 20.5846L23.1997 11.9948C19.7839 11.1911 16.3792 13.3567 15.6592 16.7892L13.7783 25.7474C16.9764 25.6413 19.9457 26.6571 20.7048 26.6181C20.7718 26.6125 20.8276 26.6069 20.8555 26.6069C20.9169 26.6069 20.8555 26.6069 20.7048 26.6181C19.8341 26.7018 16.0443 27.3046 13.3541 27.7399L13.2257 28.3539C14.5653 28.4376 15.3746 28.5269 15.6146 28.5213C23.2499 28.3483 14.0574 30.0506 12.7402 30.6478L9.74294 44.9027C8.97271 48.5585 11.5681 52.0692 15.2909 52.4097L50.5374 55.6134C53.4564 55.8813 56.1634 54.0785 57.0564 51.2878L62.3532 34.6776C60.796 34.5827 58.8983 34.4543 58.2899 34.3483L58.2843 34.3594Z" fill="#FFD5DA"/>
<path d="M12.8416 23.6267H17.6472C17.6472 23.6267 17.4184 20.2556 21.1579 19.6974C24.8975 19.1393 27.4593 20.4007 27.4593 20.4007C27.4593 20.4007 30.8863 23.0016 31.0426 24.3802C31.1988 25.7588 31.8686 28.9514 31.2379 29.5821C30.6072 30.2128 29.9765 30.6816 29.2286 30.7988C28.4807 30.916 29.9598 31.8258 29.9598 31.8258C29.9598 31.8258 31.21 37.396 32.5495 38.4956C33.8891 39.5951 37.1207 43.4574 37.9077 47.2416C38.6947 51.0258 39.197 58.0416 39.197 58.0416H21.1523C21.063 58.0416 21.1523 49.8426 21.1523 49.8426C21.1523 49.8426 18.9142 46.0584 19.2323 43.3012C19.5505 40.544 20.7226 32.4788 20.41 30.877C20.0975 29.2751 17.8035 29.5207 16.704 29.024C15.6044 28.5272 13.6119 28.2091 12.8361 23.6212L12.8416 23.6267Z" fill="#FFF3CD"/>
<path d="M33.487 21.7346V19.2341L35.6917 19.2788C35.6917 19.2788 35.7977 16.6723 38.1754 16.3709C40.5531 16.0695 40.7763 16.1141 40.9326 16.0974C41.0889 16.0806 41.368 12.8323 41.368 12.8323C41.368 12.8323 45.1522 13.6137 46.2126 16.5718C47.2731 19.53 47.5801 24.1234 47.6582 26.1718C47.7364 28.2202 47.8926 30.2686 50.4936 31.6081C53.0945 32.9476 55.7401 33.8072 55.9801 36.9104C56.2201 40.0137 56.3261 48.7318 56.3261 48.7318H38.1922L37.1038 44.5402L38.7391 43.6918C38.7391 43.6918 35.9764 37.6639 37.5894 33.7458C39.2024 29.8276 39.7326 26.2555 39.2024 25.5188C38.6722 24.782 35.6694 24.9104 34.5419 23.9504C33.4145 22.9904 33.4815 21.7346 33.4815 21.7346H33.487Z" fill="#FFF3CD"/>
<path d="M59.7721 57.5442C60.8171 57.5442 61.6642 56.6971 61.6642 55.6521C61.6642 54.6071 60.8171 53.76 59.7721 53.76C58.7271 53.76 57.88 54.6071 57.88 55.6521C57.88 56.6971 58.7271 57.5442 59.7721 57.5442Z" stroke="#FFDA6A" stroke-width="1.39535" stroke-linecap="round" stroke-linejoin="round"/>
<path d="M7.1565 40.6387C8.20147 40.6387 9.04859 39.7916 9.04859 38.7466C9.04859 37.7016 8.20147 36.8545 7.1565 36.8545C6.11152 36.8545 5.2644 37.7016 5.2644 38.7466C5.2644 39.7916 6.11152 40.6387 7.1565 40.6387Z" stroke="#FFDA6A" stroke-width="1.39535" stroke-linecap="round" stroke-linejoin="round"/>
<path d="M37.1346 8.74073C38.1796 8.74073 39.0267 7.89361 39.0267 6.84864C39.0267 5.80366 38.1796 4.95654 37.1346 4.95654C36.0897 4.95654 35.2426 5.80366 35.2426 6.84864C35.2426 7.89361 36.0897 8.74073 37.1346 8.74073Z" stroke="#FFDA6A" stroke-width="1.39535" stroke-linecap="round" stroke-linejoin="round"/>
<path d="M16.0302 8.19971L12.832 11.3923" stroke="#F96073" stroke-width="1.39535" stroke-linecap="round" stroke-linejoin="round"/>
<path d="M12.832 8.19971L16.0302 11.3923" stroke="#F96073" stroke-width="1.39535" stroke-linecap="round" stroke-linejoin="round"/>
<path d="M41.9335 63.0532L38.7354 66.2458" stroke="#F96073" stroke-width="1.39535" stroke-linecap="round" stroke-linejoin="round"/>
<path d="M38.7354 63.0532L41.9335 66.2458" stroke="#F96073" stroke-width="1.39535" stroke-linecap="round" stroke-linejoin="round"/>
<path d="M63.2281 19.8257H58.7128" stroke="#F96073" stroke-width="1.39535" stroke-linecap="round" stroke-linejoin="round"/>
<path d="M60.9716 17.5703V22.0857" stroke="#F96073" stroke-width="1.39535" stroke-linecap="round" stroke-linejoin="round"/>
<path d="M16.8896 58.0528H21.0645V49.837C21.0645 49.837 18.4301 46.3821 19.4794 39.7179C20.244 34.8509 21.444 32.0937 19.831 29.61C19.3119 28.8119 16.1305 29.2919 15.2431 28.7449C14.3556 28.1979 12.7036 26.9867 12.8375 23.6323L17.911 23.543C17.911 23.543 17.4589 20.2723 21.8124 19.5691C30.6031 18.1514 33.0645 29.0184 30.8543 30.7319C29.8775 31.4853 24.8989 32.8528 24.1231 24.7765" stroke="#2A3539" stroke-width="1.39535" stroke-linecap="round" stroke-linejoin="round"/>
<path d="M21.1605 22.8508V23.9504" stroke="#2A3539" stroke-width="1.39535" stroke-linecap="round" stroke-linejoin="round"/>
<path d="M38.7354 18.7312V19.8252" stroke="#2A3539" stroke-width="1.39535" stroke-linecap="round" stroke-linejoin="round"/>
<path d="M29.962 32.2324C30.3472 34.0966 31.3462 37.345 33.8132 39.985C39.3165 45.8734 39.1992 58.0464 39.1992 58.0464C49.5862 58.0464 51.6848 43.5906 41.3927 41.6259" stroke="#2A3539" stroke-width="1.39535" stroke-linecap="round" stroke-linejoin="round"/>
<path d="M20.417 34.6715C20.417 34.6715 23.5705 36.6863 30.5305 34.3198" stroke="#2A3539" stroke-width="1.39535" stroke-linecap="round" stroke-linejoin="round"/>
<path d="M31.6259 45.4663C31.6259 45.4663 23.1087 46.9286 28.4054 57.8403" stroke="#2A3539" stroke-width="1.39535" stroke-linecap="round" stroke-linejoin="round"/>
<path d="M24.2085 58.0527H35.3936" stroke="#2A3539" stroke-width="1.39535" stroke-linecap="round" stroke-linejoin="round"/>
<path d="M63.228 31.825C56.0391 33.6724 62.2456 40.6436 62.0614 44.9524C61.8773 49.2613 56.2624 48.759 56.2624 48.759C56.2624 48.759 56.6028 42.9822 56.1228 37.6464C55.8884 35.051 52.9638 32.9748 49.6261 31.3729C48.8391 30.9934 48.3535 30.3906 48.0633 29.8101C47.734 29.1627 47.6056 28.4371 47.628 27.7115C48.1303 12.2287 41.081 12.8315 41.081 12.8315V16.0743H39.0549C37.3135 16.0743 35.9014 17.4864 35.9014 19.2278H33.1945C33.1945 19.2278 32.2345 23.2017 35.0754 24.1952C37.9163 25.1887 38.9433 24.2399 39.2503 26.1487C39.5238 27.8287 36.6382 32.4501 37.6875 38.3273C38.0949 40.6101 38.3293 42.4185 38.4577 43.8473" stroke="#2A3539" stroke-width="1.39535" stroke-linecap="round" stroke-linejoin="round"/>
<path d="M38.9817 27.9403C38.9817 27.9403 42.1575 29.6984 47.6329 27.717" stroke="#2A3539" stroke-width="1.39535" stroke-linecap="round" stroke-linejoin="round"/>
<path d="M50.005 48.7759H53.1418" stroke="#2A3539" stroke-width="1.39535" stroke-linecap="round" stroke-linejoin="round"/>
<path d="M42.0907 48.7759H46.3772" stroke="#2A3539" stroke-width="1.39535" stroke-linecap="round" stroke-linejoin="round"/>
<path d="M44.1881 44.9136C44.3946 46.0187 44.83 47.2968 45.5611 48.7759" stroke="#2A3539" stroke-width="1.39535" stroke-linecap="round" stroke-linejoin="round"/>
<path d="M49.8539 37.915C49.8539 37.915 46.879 38.0825 45.1823 40.0695" stroke="#2A3539" stroke-width="1.39535" stroke-linecap="round" stroke-linejoin="round"/>
</svg>
