<svg width="24" height="24" viewBox="0 0 24 24" fill="none" xmlns="http://www.w3.org/2000/svg">
<path d="M2 8.39978C2 9.73318 3.06672 10.9332 4.53347 10.9332M4.53347 10.9332H11.4672L16.8008 13.0667V18.5336C16.8008 19.467 16.0007 20.2671 15.0673 20.2671C14.134 20.2671 13.3339 19.467 13.3339 18.5336V16.8002C13.3339 16.8002 12.6672 17.6003 10.6671 17.6003C8.66701 17.6003 8.00031 16.8002 8.00031 16.8002V18.5336C8.00031 19.467 7.20027 20.2671 6.26689 20.2671C5.33351 20.2671 4.53347 19.467 4.53347 18.5336V10.9332Z" stroke="#4A5A61" stroke-linecap="round" stroke-linejoin="round"/>
<path d="M11.3328 10.7999L14.3996 3.73291L15.733 5.33299H17.4664C17.8664 5.33299 18.3998 5.46633 18.6665 5.86635L19.4665 6.6664H20.7999C21.4666 6.6664 22 7.19976 22 7.86646V8.39982C22 9.9999 20.6666 11.3333 19.0665 11.3333H16.9331L16.8007 13" stroke="#4A5A61" stroke-linecap="round" stroke-linejoin="round"/>
<path d="M16.6693 7.73328V7.99996" stroke="#4A5A61" stroke-linecap="round" stroke-linejoin="round"/>
</svg>
