<svg width="24" height="24" viewBox="0 0 24 24" fill="none" xmlns="http://www.w3.org/2000/svg">
<path d="M17.707 4.68359V4.9568" stroke="#4A5A61" stroke-linecap="round" stroke-linejoin="round"/>
<path d="M2 6.06311V6.80078C2 8.16683 3.09285 9.25968 4.4589 9.25968" stroke="#4A5A61" stroke-linecap="round" stroke-linejoin="round"/>
<path d="M13.7597 8.15268L4.32031 9.25919L5.49512 21.0073C5.49512 21.6083 5.9869 22.1001 6.58796 22.1001C7.18903 22.1001 7.6808 21.6083 7.6808 21.0073L7.6125 14.2043C7.6125 14.2043 9.08784 14.983 14.8253 14.8463V20.9936C14.8253 21.5947 15.3171 22.0864 15.9181 22.0864C16.5192 22.0864 17.011 21.5947 17.011 20.9936L18.5546 7.30573H20.4261C21.3413 7.30573 22.12 6.6227 22.2566 5.72111L22.3522 5.07906C22.4069 4.69657 22.1063 4.35505 21.7238 4.35505H19.6474C19.6474 4.35505 19.4972 3.15293 18.7185 2.94802C18.1038 2.78409 16.7514 2.83873 16.7514 2.83873L15.8362 1.5L13.7597 8.15268Z" stroke="#4A5A61" stroke-linecap="round" stroke-linejoin="round"/>
<path d="M13.7617 8.15283L18.1468 9.9287" stroke="#4A5A61" stroke-linecap="round" stroke-linejoin="round"/>
</svg>
