<svg width="24" height="24" viewBox="0 0 24 24" fill="none" xmlns="http://www.w3.org/2000/svg">
<path d="M3 7.43359C3 8.70033 4.01339 9.84039 5.40679 9.84039H13.3872L16.9341 11.8672V18.7075C16.9341 19.5942 16.174 20.3543 15.2873 20.3543C14.4006 20.3543 13.6406 19.5942 13.6406 18.7075V15.9207C13.6406 15.5407 13.2605 15.414 13.0072 15.5407C12.7538 15.6674 11.9938 15.9207 11.1071 15.9207C10.2204 15.9207 9.58701 15.794 9.20699 15.5407C8.82697 15.2873 8.57362 15.5407 8.57362 15.9207V18.7075C8.57362 19.5942 7.81358 20.3543 6.92687 20.3543C6.04016 20.3543 5.28012 19.5942 5.28012 18.7075V9.84039" stroke="#4A5A61" stroke-linecap="round" stroke-linejoin="round"/>
<path d="M13.3867 9.71368L14.7801 3L16.0469 4.52008H17.6936C18.0736 4.52008 18.5803 4.64675 18.8337 5.02677L19.5937 5.78681H20.8604C21.4938 5.78681 22.0005 6.2935 22.0005 6.92687V7.43356C22.0005 8.95364 20.7338 10.2204 19.2137 10.2204H17.1869L16.9336 11.8671" stroke="#4A5A61" stroke-linecap="round" stroke-linejoin="round"/>
<path d="M17.4375 6.67334V7.05336" stroke="#4A5A61" stroke-linecap="round" stroke-linejoin="round"/>
</svg>
