<svg width="24" height="24" viewBox="0 0 24 24" fill="none" xmlns="http://www.w3.org/2000/svg">
<path d="M18.043 5.61035V5.89089" stroke="#4A5A61" stroke-linecap="round" stroke-linejoin="round"/>
<path d="M16.9786 20.7167C16.9786 21.2778 16.4175 21.8389 15.8564 21.8389C15.2953 21.8389 14.7343 21.2778 14.7343 20.7167V15.9476C8.84299 16.0879 6.99145 14.6852 6.99145 14.6852L6.17789 20.7167C6.17789 21.2778 5.61682 21.8389 5.05574 21.8389C4.49467 21.8389 3.93359 21.2778 3.93359 20.7167V10.1966H4.07386L13.4718 9.49526L15.5 2.5L16.698 3.60399H17.9604C18.802 3.60399 19.2229 4.02479 19.7839 4.58587L20.4292 5.42748C20.4292 5.42748 21.8459 5.42748 22.1825 5.77815C22.3929 5.98855 22.3088 6.64781 22.3088 6.64781C22.3088 7.13875 22.1404 7.60164 21.8459 7.99439C21.5233 8.4152 21.0043 8.66768 20.4712 8.66768H17.9604L16.9786 20.7308V20.7167Z" stroke="#4A5A61" stroke-linecap="round" stroke-linejoin="round"/>
<path d="M1.55078 7.67188C1.55078 9.07456 2.67293 10.1967 4.07561 10.1967" stroke="#4A5A61" stroke-linecap="round" stroke-linejoin="round"/>
</svg>
