<svg width="42" height="42" viewBox="0 0 42 42" fill="none" xmlns="http://www.w3.org/2000/svg">
<path opacity="0.5" d="M34.7377 21.2796C34.106 21.1689 36.3232 20.547 36.3232 20.547L34.1777 20.114L35.9977 19.8405L37.7102 19.5833L37.8307 19.2089C36.2288 19.0428 33.8163 18.7921 33.7935 18.7921C33.7707 18.7921 36.0725 18.3819 38.1791 18.1084L38.2474 17.8968C38.8921 15.8717 37.6777 13.7294 35.6102 13.2442L14.2716 8.23354C12.2791 7.7647 10.293 9.02796 9.87301 11.0303L8.7758 16.2559C10.6414 16.194 12.3735 16.7866 12.8163 16.7638C12.8553 16.7605 12.8879 16.7573 12.9042 16.7573C12.94 16.7573 12.9042 16.7573 12.8163 16.7638C12.3084 16.8126 10.0977 17.1642 8.52836 17.4182L8.45348 17.7763C9.23487 17.8252 9.70696 17.8773 9.84696 17.874C14.3009 17.7731 8.93859 18.7661 8.17022 19.1145L6.42185 27.4298C5.97255 29.5624 7.4865 31.6103 9.65813 31.8089L30.2186 33.6777C31.9214 33.834 33.5005 32.7824 34.0214 31.1545L37.1111 21.4652C36.2028 21.4098 35.0958 21.3349 34.7409 21.2731L34.7377 21.2796Z" fill="#FFD5DA"/>
<path d="M11.7257 10.2032H15.0466C15.0466 10.2032 14.8903 7.8753 17.4722 7.48786C20.054 7.10042 21.8252 7.97298 21.8252 7.97298C21.8252 7.97298 24.1954 9.77019 24.3029 10.7241C24.4103 11.6781 24.8759 13.8823 24.4396 14.3186C24.0033 14.7548 23.5671 15.0772 23.0494 15.1618C22.5317 15.2465 23.554 15.8716 23.554 15.8716C23.554 15.8716 24.4201 19.72 25.3447 20.4818C26.2694 21.2437 28.5029 23.9134 29.0466 26.5279C29.5903 29.1423 29.9387 33.9934 29.9387 33.9934H17.4689C17.4071 33.9934 17.4689 28.3251 17.4689 28.3251C17.4689 28.3251 15.9224 25.7107 16.1406 23.806C16.3587 21.9014 17.1726 16.3274 16.9545 15.2204C16.7364 14.1134 15.1508 14.2827 14.3954 13.9376C13.6401 13.5925 12.2564 13.3744 11.7224 10.2032H11.7257Z" fill="#FFF3CD"/>
<path d="M3.13753 19.4784C3.7471 19.4784 4.24126 18.9843 4.24126 18.3747C4.24126 17.7651 3.7471 17.271 3.13753 17.271C2.52797 17.271 2.03381 17.7651 2.03381 18.3747C2.03381 18.9843 2.52797 19.4784 3.13753 19.4784Z" stroke="#FFDA6A" stroke-linecap="round" stroke-linejoin="round"/>
<path d="M26.5959 7.35368C27.2055 7.35368 27.6996 6.85953 27.6996 6.24996C27.6996 5.64039 27.2055 5.14624 26.5959 5.14624C25.9863 5.14624 25.4922 5.64039 25.4922 6.24996C25.4922 6.85953 25.9863 7.35368 26.5959 7.35368Z" stroke="#FFDA6A" stroke-linecap="round" stroke-linejoin="round"/>
<path d="M33.4204 38.2319C34.0299 38.2319 34.5241 37.7377 34.5241 37.1281C34.5241 36.5186 34.0299 36.0244 33.4204 36.0244C32.8108 36.0244 32.3167 36.5186 32.3167 37.1281C32.3167 37.7377 32.8108 38.2319 33.4204 38.2319Z" stroke="#FFDA6A" stroke-linecap="round" stroke-linejoin="round"/>
<path d="M16.1055 2.88696L14.2432 4.75254" stroke="#F96073" stroke-linecap="round" stroke-linejoin="round"/>
<path d="M14.2432 2.88696L16.1055 4.75254" stroke="#F96073" stroke-linecap="round" stroke-linejoin="round"/>
<path d="M14.2436 36.3696L12.3812 38.232" stroke="#F96073" stroke-linecap="round" stroke-linejoin="round"/>
<path d="M12.3812 36.3696L14.2436 38.232" stroke="#F96073" stroke-linecap="round" stroke-linejoin="round"/>
<path d="M37.0664 10.9253H34.4292" stroke="#F96073" stroke-linecap="round" stroke-linejoin="round"/>
<path d="M35.748 9.60718V12.2444" stroke="#F96073" stroke-linecap="round" stroke-linejoin="round"/>
<path d="M14.5292 34.0287H17.4138V28.3505C17.4138 28.3505 15.5938 25.964 16.3166 21.3603C16.8473 17.997 17.6743 16.0924 16.5608 14.3798C16.2026 13.8296 14.005 14.1584 13.3896 13.7807C12.7743 13.4031 11.6347 12.5663 11.7292 10.2482L15.2357 10.1863C15.2357 10.1863 14.9264 7.92679 17.9315 7.44168C24.0036 6.46493 25.7064 13.9696 24.1761 15.1514C23.5022 15.6724 20.0608 16.6166 19.5236 11.0361" stroke="#2A3539" stroke-linecap="round" stroke-linejoin="round"/>
<path d="M17.4761 9.71143V10.47" stroke="#2A3539" stroke-linecap="round" stroke-linejoin="round"/>
<path d="M23.5616 16.1931C23.8286 17.4824 24.5156 19.7224 26.2216 21.5522C30.0212 25.622 29.943 34.0285 29.943 34.0285C37.1189 34.0285 38.5677 24.0429 31.457 22.6852" stroke="#2A3539" stroke-linecap="round" stroke-linejoin="round"/>
<path d="M16.9647 17.8765C16.9647 17.8765 19.1429 19.2667 23.9517 17.6323" stroke="#2A3539" stroke-linecap="round" stroke-linejoin="round"/>
<path d="M24.7068 25.3354C24.7068 25.3354 18.8235 26.3448 22.4831 33.882" stroke="#2A3539" stroke-linecap="round" stroke-linejoin="round"/>
<path d="M19.5822 34.0291H27.3082" stroke="#2A3539" stroke-linecap="round" stroke-linejoin="round"/>
<path d="M8.50342 6.95996V34.4228" stroke="#2A3539" stroke-linecap="round" stroke-linejoin="round"/>
<path d="M7.06763 33.7034L8.50344 35.1424L9.94251 33.7034" stroke="#2A3539" stroke-linecap="round" stroke-linejoin="round"/>
<path d="M9.94251 7.67654L8.50344 6.24072L7.06763 7.67654" stroke="#2A3539" stroke-linecap="round" stroke-linejoin="round"/>
<path d="M6.82983 31.356H8.50332" stroke="#2A3539" stroke-linecap="round" stroke-linejoin="round"/>
<path d="M6.82983 27.7651H8.50332" stroke="#2A3539" stroke-linecap="round" stroke-linejoin="round"/>
<path d="M6.82983 24.1741H8.50332" stroke="#2A3539" stroke-linecap="round" stroke-linejoin="round"/>
<path d="M6.82983 20.5793H8.50332" stroke="#2A3539" stroke-linecap="round" stroke-linejoin="round"/>
<path d="M6.82983 16.9885H8.50332" stroke="#2A3539" stroke-linecap="round" stroke-linejoin="round"/>
<path d="M6.82983 13.3936H8.50332" stroke="#2A3539" stroke-linecap="round" stroke-linejoin="round"/>
<path d="M6.82983 9.80273H8.50332" stroke="#2A3539" stroke-linecap="round" stroke-linejoin="round"/>
</svg>
