<svg width="42" height="42" viewBox="0 0 42 42" fill="none" xmlns="http://www.w3.org/2000/svg">
<path d="M33.9993 20.043C33.3676 19.9323 35.5848 19.3105 35.5848 19.3105L33.4393 18.8774L35.2593 18.6039L36.9718 18.3467L37.0923 17.9723C35.4904 17.8063 33.0779 17.5556 33.0551 17.5556C33.0323 17.5556 35.3341 17.1453 37.4407 16.8718L37.509 16.6602C38.1537 14.6351 36.9393 12.4928 34.8718 12.0077L13.5332 6.99696C11.5407 6.52813 9.55461 7.79138 9.13461 9.79371L8.0374 15.0193C9.90298 14.9574 11.6351 15.55 12.0779 15.5272C12.1169 15.5239 12.1495 15.5207 12.1658 15.5207C12.2016 15.5207 12.1658 15.5207 12.0779 15.5272C11.57 15.576 9.35926 15.9277 7.78996 16.1816L7.71507 16.5398C8.49647 16.5886 8.96856 16.6407 9.10856 16.6374C13.5625 16.5365 8.20019 17.5295 7.43182 17.8779L5.68344 26.1932C5.23414 28.3258 6.7481 30.3737 8.91972 30.5723L29.4802 32.4412C31.183 32.5974 32.7621 31.5458 33.283 29.9179L36.3727 20.2286C35.4644 20.1732 34.3574 20.0984 34.0025 20.0365L33.9993 20.043Z" fill="#FFD5DA"/>
<path d="M4.9303 15.2184C4.9303 15.2184 6.48332 17.504 7.93541 18.2691C9.38751 19.0343 9.78146 19.0147 9.78146 19.0147C9.78146 19.0147 10.4294 21.844 10.1591 22.3682C9.8889 22.8924 8.44007 23.537 8.44007 23.537C8.44007 23.537 8.46611 27.1543 9.61541 27.4375C12.2624 28.0919 12.6498 27.4375 12.6498 27.4375L10.5824 25.0087L11.1456 24.1361C11.1456 24.1361 12.0703 24.6831 13.0731 22.9836C14.0759 21.284 13.747 20.2291 13.747 20.2291C13.747 20.2291 16.5536 20.5384 17.7745 19.005C18.9954 17.4715 20.0959 16.8073 20.0959 16.8073L22.1829 16.5045C22.1829 16.5045 23.8401 17.2012 24.1266 17.338C24.4131 17.4747 24.7777 16.257 23.9996 15.2087C23.2215 14.1603 21.1475 13.9259 21.1475 13.9259L21.6652 11.038L24.9438 9.67705L24.7908 8.36821L24.0777 7.60961L20.7731 7.45007L18.6763 5.71472C18.6763 5.71472 18.3117 9.24077 18.0805 9.931C17.8494 10.6212 17.514 12.0929 13.7503 13.4245C9.98658 14.7561 9.98658 16.804 9.98658 16.804C9.98658 16.804 7.25169 16.6966 5.8289 15.3324C5.28518 14.8115 5.25588 15.6873 4.9303 15.2152V15.2184Z" fill="white"/>
<path d="M5.60779 16.1494C5.60779 16.1494 6.90686 17.9824 9.05244 18.6563C10.6185 19.148 9.63849 20.0335 9.63849 20.0335C9.63849 20.0335 10.4329 21.8438 10.1627 22.368C9.89244 22.8921 8.54453 23.5824 8.54453 23.5824C8.54453 23.5824 7.54826 27.1247 10.2148 27.6847C12.8813 28.2447 12.4906 26.9359 12.4906 26.9359L11.2599 25.9396L10.8366 25.1061C10.8366 25.1061 10.5241 25.7931 11.5269 24.0935C11.9241 23.4196 12.3115 23.654 12.8162 23.1754C13.5845 22.4428 13.7245 20.6228 13.7245 20.6228C13.7245 20.6228 17.4915 19.76 18.7092 18.2266C19.9269 16.6931 20.6822 16.7191 20.6822 16.7191L22.499 16.6182C22.499 16.6182 23.8371 17.201 24.1269 17.3345C24.4166 17.468 24.778 16.2535 23.9999 15.2052C23.2217 14.1568 21.1478 13.9224 21.1478 13.9224L21.5059 11.1973L24.9408 9.23726L24.4655 7.4661L21.8445 7.81121L20.6724 7.74284L19.3441 6.64563C19.3441 6.64563 18.9794 10.1717 18.7483 10.8619C18.5171 11.5521 18.1817 13.0238 14.418 14.3554C10.6543 15.687 10.6543 17.7349 10.6543 17.7349C10.6543 17.7349 7.42453 17.8814 5.81942 15.3321C5.41895 14.694 5.92035 16.6182 5.59802 16.1461L5.60779 16.1494Z" fill="#FFF3CD"/>
<path d="M36.0071 21.8018H20.9652V25.7804H36.0071V21.8018Z" fill="white"/>
<path d="M36.0071 22.72H20.9652V26.6986H36.0071V22.72Z" fill="#FF9BA7"/>
<path d="M31.3086 35.5951C31.9181 35.5951 32.4123 35.101 32.4123 34.4914C32.4123 33.8818 31.9181 33.3877 31.3086 33.3877C30.699 33.3877 30.2048 33.8818 30.2048 34.4914C30.2048 35.101 30.699 35.5951 31.3086 35.5951Z" stroke="#FFDA6A" stroke-linecap="round" stroke-linejoin="round"/>
<path d="M4.17464 23.7051C4.78421 23.7051 5.27836 23.211 5.27836 22.6014C5.27836 21.9918 4.78421 21.4977 4.17464 21.4977C3.56508 21.4977 3.07092 21.9918 3.07092 22.6014C3.07092 23.211 3.56508 23.7051 4.17464 23.7051Z" stroke="#FFDA6A" stroke-linecap="round" stroke-linejoin="round"/>
<path d="M28.4864 7.35417C29.096 7.35417 29.5901 6.86002 29.5901 6.25045C29.5901 5.64088 29.096 5.14673 28.4864 5.14673C27.8768 5.14673 27.3827 5.64088 27.3827 6.25045C27.3827 6.86002 27.8768 7.35417 28.4864 7.35417Z" stroke="#FFDA6A" stroke-linecap="round" stroke-linejoin="round"/>
<path d="M9.35093 4.78235L7.48535 6.64467" stroke="#F96073" stroke-linecap="round" stroke-linejoin="round"/>
<path d="M7.48535 4.78235L9.35093 6.64467" stroke="#F96073" stroke-linecap="round" stroke-linejoin="round"/>
<path d="M17.2201 34.6639L15.3578 36.5263" stroke="#F96073" stroke-linecap="round" stroke-linejoin="round"/>
<path d="M15.3578 34.6639L17.2201 36.5263" stroke="#F96073" stroke-linecap="round" stroke-linejoin="round"/>
<path d="M35.0499 14.2013H32.4127" stroke="#F96073" stroke-linecap="round" stroke-linejoin="round"/>
<path d="M33.7316 12.8831V15.517" stroke="#F96073" stroke-linecap="round" stroke-linejoin="round"/>
<path d="M18.256 14.5724L19.8807 16.7929L22.4267 16.4673C22.4267 16.4673 23.9439 17.2813 24.1067 17.3334C24.1458 17.3464 24.2076 17.2682 24.276 17.1445C24.6244 16.5096 24.4909 15.7185 23.9797 15.2041L23.1853 14.4064L21.1276 13.918L21.3458 11.1571C21.3458 11.1571 24.4323 9.91011 24.7025 9.3143C24.8621 8.96267 24.696 8.41569 24.53 8.02825C24.4128 7.74825 24.136 7.56918 23.8332 7.57243L20.5318 7.63104C20.5318 7.63104 18.5295 4.99057 18.4904 6.30918C18.3635 10.8706 17.39 12.6157 14.3035 13.2636C11.2169 13.9148 9.94066 16.6724 9.94066 16.6724C7.58345 17.2422 4.02485 13.3287 5.43136 16.145C6.5481 18.3785 9.81043 18.8082 9.81043 18.8082C9.81043 18.8082 9.1788 20.9473 10.3151 22.6534L8.54717 23.5748L8.77508 26.1403C8.84996 26.9966 9.5695 27.6543 10.429 27.6543H12.0016C12.2946 27.6543 12.4997 27.358 12.3858 27.0845C12.2197 26.6841 11.7672 26.085 10.5853 25.3329L11.3439 24.1217C13.0955 23.4185 13.6393 23.2882 13.7076 17.9748" stroke="#2A3539" stroke-linecap="round" stroke-linejoin="round"/>
<path d="M13.7235 20.5179C13.7235 20.5179 16.6375 20.4853 19.063 17.8253" stroke="#2A3539" stroke-linecap="round" stroke-linejoin="round"/>
<path d="M15.9568 26.935C16.1749 26.7625 16.3963 26.5997 16.621 26.4564" stroke="#2A3539" stroke-linecap="round" stroke-linejoin="round"/>
<path d="M11.1252 32.9259C11.1252 32.9259 12.5611 30.3733 14.5048 28.2928" stroke="#2A3539" stroke-linecap="round" stroke-linejoin="round"/>
<path d="M10.559 29.6729C10.559 29.6729 9.06463 31.0142 7.90881 33.1077" stroke="#2A3539" stroke-linecap="round" stroke-linejoin="round"/>
<path d="M20.7465 19.8405V36.3572" stroke="#2A3539" stroke-linecap="round" stroke-linejoin="round"/>
<path d="M36.3451 19.8405V36.3572" stroke="#2A3539" stroke-linecap="round" stroke-linejoin="round"/>
<path d="M20.9652 21.6083H36.3457" stroke="#2A3539" stroke-linecap="round" stroke-linejoin="round"/>
<path d="M20.9652 25.7792H29.3587" stroke="#2A3539" stroke-linecap="round" stroke-linejoin="round"/>
<path d="M31.3087 25.7792H36.3455" stroke="#2A3539" stroke-linecap="round" stroke-linejoin="round"/>
<path d="M21.1992 8.92052L21.642 8.77075" stroke="#2A3539" stroke-linecap="round" stroke-linejoin="round"/>
</svg>
