<svg width="35" height="33" viewBox="0 0 35 33" fill="none" xmlns="http://www.w3.org/2000/svg">
<path d="M28.7376 31.3128C29.3472 31.3128 29.8414 30.8186 29.8414 30.2091C29.8414 29.5995 29.3472 29.1053 28.7376 29.1053C28.1281 29.1053 27.6339 29.5995 27.6339 30.2091C27.6339 30.8186 28.1281 31.3128 28.7376 31.3128Z" stroke="#FFDA6A" stroke-linecap="round" stroke-linejoin="round"/>
<path d="M1.60372 19.4228C2.21329 19.4228 2.70744 18.9286 2.70744 18.3191C2.70744 17.7095 2.21329 17.2153 1.60372 17.2153C0.994152 17.2153 0.5 17.7095 0.5 18.3191C0.5 18.9286 0.994152 19.4228 1.60372 19.4228Z" stroke="#FFDA6A" stroke-linecap="round" stroke-linejoin="round"/>
<path d="M25.9155 3.07182C26.5251 3.07182 27.0192 2.57767 27.0192 1.9681C27.0192 1.35853 26.5251 0.86438 25.9155 0.86438C25.3059 0.86438 24.8118 1.35853 24.8118 1.9681C24.8118 2.57767 25.3059 3.07182 25.9155 3.07182Z" stroke="#FFDA6A" stroke-linecap="round" stroke-linejoin="round"/>
<path d="M6.78001 0.5L4.91443 2.36233" stroke="#F96073" stroke-linecap="round" stroke-linejoin="round"/>
<path d="M4.91443 0.5L6.78001 2.36233" stroke="#F96073" stroke-linecap="round" stroke-linejoin="round"/>
<path d="M14.6492 30.3816L12.7869 32.2439" stroke="#F96073" stroke-linecap="round" stroke-linejoin="round"/>
<path d="M12.7869 30.3816L14.6492 32.2439" stroke="#F96073" stroke-linecap="round" stroke-linejoin="round"/>
<path d="M32.4789 9.91895H29.8417" stroke="#F96073" stroke-linecap="round" stroke-linejoin="round"/>
<path d="M31.1606 8.60071V11.2347" stroke="#F96073" stroke-linecap="round" stroke-linejoin="round"/>
<path d="M15.6851 10.2901L17.3097 12.5106L19.8558 12.185C19.8558 12.185 21.373 12.9989 21.5358 13.051C21.5749 13.064 21.6367 12.9859 21.7051 12.8622C22.0535 12.2273 21.92 11.4361 21.4088 10.9217L20.6144 10.124L18.5567 9.63567L18.7749 6.87474C18.7749 6.87474 21.8614 5.62776 22.1316 5.03195C22.2911 4.68032 22.1251 4.13334 21.959 3.7459C21.8418 3.4659 21.5651 3.28683 21.2623 3.29009L17.9609 3.34869C17.9609 3.34869 15.9586 0.708225 15.9195 2.02683C15.7925 6.58823 14.819 8.33334 11.7325 8.98125C8.64602 9.63241 7.36974 12.3901 7.36974 12.3901C5.01253 12.9599 1.45392 9.04637 2.86044 11.8626C3.97718 14.0961 7.2395 14.5259 7.2395 14.5259C7.2395 14.5259 6.60788 16.665 7.74416 18.371L5.97625 19.2924L6.20416 21.858C6.27904 22.7143 6.99857 23.3719 7.85811 23.3719H9.43067C9.72369 23.3719 9.92881 23.0757 9.81485 22.8022C9.64881 22.4017 9.19625 21.8026 8.01439 21.0506L8.77299 19.8394C10.5246 19.1361 11.0683 19.0059 11.1367 13.6924" stroke="#2A3539" stroke-linecap="round" stroke-linejoin="round"/>
<path d="M11.1526 16.2355C11.1526 16.2355 14.0665 16.203 16.4921 13.543" stroke="#2A3539" stroke-linecap="round" stroke-linejoin="round"/>
<path d="M13.3859 22.6527C13.6041 22.4801 13.8255 22.3173 14.0501 22.1741" stroke="#2A3539" stroke-linecap="round" stroke-linejoin="round"/>
<path d="M8.55432 28.6435C8.55432 28.6435 9.99014 26.091 11.9339 24.0105" stroke="#2A3539" stroke-linecap="round" stroke-linejoin="round"/>
<path d="M7.98818 25.3905C7.98818 25.3905 6.49377 26.7319 5.33795 28.8254" stroke="#2A3539" stroke-linecap="round" stroke-linejoin="round"/>
<path d="M18.1755 15.5581V32.0748" stroke="#2A3539" stroke-linecap="round" stroke-linejoin="round"/>
<path d="M33.7742 15.5581V32.0748" stroke="#2A3539" stroke-linecap="round" stroke-linejoin="round"/>
<path d="M18.3943 17.3259H33.7748" stroke="#2A3539" stroke-linecap="round" stroke-linejoin="round"/>
<path d="M18.3943 21.4968H26.7878" stroke="#2A3539" stroke-linecap="round" stroke-linejoin="round"/>
<path d="M28.7379 21.4968H33.7746" stroke="#2A3539" stroke-linecap="round" stroke-linejoin="round"/>
<path d="M18.6283 4.63817L19.0711 4.4884" stroke="#2A3539" stroke-linecap="round" stroke-linejoin="round"/>
</svg>
