<svg width="72" height="72" viewBox="0 0 72 72" fill="none" xmlns="http://www.w3.org/2000/svg">
<path d="M59.2611 36.8095C58.1784 36.6198 61.9793 35.5537 61.9793 35.5537L58.3011 34.8114L61.4212 34.3425L64.357 33.9016L64.5635 33.2598C61.8174 32.9751 57.6816 32.5453 57.6425 32.5453C57.6035 32.5453 61.5495 31.8421 65.1607 31.3732L65.2779 31.0105C66.383 27.5388 64.3011 23.8663 60.757 23.0346L24.1765 14.4449C20.7607 13.6411 17.356 15.8067 16.636 19.2393L14.7551 28.1974C17.9532 28.0914 20.9225 29.1072 21.6816 29.0681C21.7486 29.0625 21.8044 29.057 21.8323 29.057C21.8937 29.057 21.8323 29.057 21.6816 29.0681C20.8109 29.1518 17.0211 29.7546 14.3309 30.19L14.2025 30.8039C15.5421 30.8877 16.3514 30.977 16.5914 30.9714C24.2267 30.7984 15.0342 32.5007 13.717 33.0979L10.7197 47.3528C9.94952 51.0086 12.5449 54.5193 16.2677 54.8598L51.5142 58.0635C54.4332 58.3314 57.1402 56.5286 58.0332 53.7379L63.33 37.1277C61.7728 37.0328 59.8751 36.9044 59.2667 36.7984L59.2611 36.8095Z" fill="#FFD5DA"/>
<path d="M49.5183 42.6368C55.97 42.6368 61.2001 37.4066 61.2001 30.9549C61.2001 24.5032 55.97 19.2731 49.5183 19.2731C43.0666 19.2731 37.8364 24.5032 37.8364 30.9549C37.8364 37.4066 43.0666 42.6368 49.5183 42.6368Z" fill="white"/>
<path d="M49.5802 40.5998C54.9068 40.5998 59.2248 36.2818 59.2248 30.9552C59.2248 25.6286 54.9068 21.3105 49.5802 21.3105C44.2536 21.3105 39.9355 25.6286 39.9355 30.9552C39.9355 36.2818 44.2536 40.5998 49.5802 40.5998Z" fill="#FFF3CD"/>
<path d="M32.3009 22.3596C34.8224 22.3596 36.8665 20.3155 36.8665 17.794C36.8665 15.2725 34.8224 13.2284 32.3009 13.2284C29.7794 13.2284 27.7354 15.2725 27.7354 17.794C27.7354 20.3155 29.7794 22.3596 32.3009 22.3596Z" fill="white"/>
<path d="M32.947 21.8176C34.9537 21.8176 36.5805 20.1909 36.5805 18.1841C36.5805 16.1774 34.9537 14.5507 32.947 14.5507C30.9402 14.5507 29.3135 16.1774 29.3135 18.1841C29.3135 20.1909 30.9402 21.8176 32.947 21.8176Z" fill="#FFF3CD"/>
<path d="M40.7673 40.9848C37.971 38.5458 36.2017 34.9569 36.2017 30.9551C36.2017 28.7783 36.7264 26.7188 37.6585 24.9048H28.0082C26.4119 24.8881 25.1059 26.1718 25.1003 27.7681L25.0557 39.3495C25.0557 40.0806 25.558 40.7169 26.2724 40.8788L28.6501 41.4202V53.6992C28.6501 53.6992 35.7552 53.5932 35.8612 53.6992C35.9673 53.8053 35.8612 41.4927 35.8612 41.4927H40.5831L40.7673 40.9848Z" fill="#FF9BA7"/>
<path d="M7.47266 34.3866C8.51763 34.3866 9.36475 33.5395 9.36475 32.4945C9.36475 31.4495 8.51763 30.6024 7.47266 30.6024C6.42769 30.6024 5.58057 31.4495 5.58057 32.4945C5.58057 33.5395 6.42769 34.3866 7.47266 34.3866Z" stroke="#FFDA6A" stroke-width="1.39535" stroke-linecap="round" stroke-linejoin="round"/>
<path d="M39.9341 9.70533C40.9791 9.70533 41.8262 8.85821 41.8262 7.81324C41.8262 6.76826 40.9791 5.92114 39.9341 5.92114C38.8891 5.92114 38.042 6.76826 38.042 7.81324C38.042 8.85821 38.8891 9.70533 39.9341 9.70533Z" stroke="#FFDA6A" stroke-width="1.39535" stroke-linecap="round" stroke-linejoin="round"/>
<path d="M57.001 65.8713C58.046 65.8713 58.8931 65.0242 58.8931 63.9793C58.8931 62.9343 58.046 62.0872 57.001 62.0872C55.956 62.0872 55.1089 62.9343 55.1089 63.9793C55.1089 65.0242 55.956 65.8713 57.001 65.8713Z" stroke="#FFDA6A" stroke-width="1.39535" stroke-linecap="round" stroke-linejoin="round"/>
<path d="M15.4885 7.96948L12.2959 11.162" stroke="#F96073" stroke-width="1.39535" stroke-linecap="round" stroke-linejoin="round"/>
<path d="M12.2959 7.96948L15.4885 11.162" stroke="#F96073" stroke-width="1.39535" stroke-linecap="round" stroke-linejoin="round"/>
<path d="M15.4885 62.3772L12.2959 65.5753" stroke="#F96073" stroke-width="1.39535" stroke-linecap="round" stroke-linejoin="round"/>
<path d="M12.2959 62.3772L15.4885 65.5753" stroke="#F96073" stroke-width="1.39535" stroke-linecap="round" stroke-linejoin="round"/>
<path d="M64.5144 16.6097H59.999" stroke="#F96073" stroke-width="1.39535" stroke-linecap="round" stroke-linejoin="round"/>
<path d="M62.2603 14.3542V18.8696" stroke="#F96073" stroke-width="1.39535" stroke-linecap="round" stroke-linejoin="round"/>
<path d="M15.5177 57.533C14.4852 56.4279 13.8936 55.0884 13.8936 53.4977C13.8936 49.0102 18.9224 46.56 24.7996 45.5051" stroke="#2A3539" stroke-width="1.39535" stroke-linecap="round" stroke-linejoin="round"/>
<path d="M39.6066 45.5334C45.3889 46.5995 50.708 49.0497 50.708 53.5037C50.708 59.8665 41.2028 62.1325 32.3005 62.1325C27.0373 62.1325 21.5619 61.34 17.9619 59.3753" stroke="#2A3539" stroke-width="1.39535" stroke-linecap="round" stroke-linejoin="round"/>
<path d="M39.6189 49.8645C42.8449 50.6292 44.9491 51.885 44.9491 53.3082C44.9491 55.6357 39.284 57.5278 32.2961 57.5278C25.3082 57.5278 19.6431 55.6412 19.6431 53.3082C19.6431 51.9296 21.6356 50.7017 24.7166 49.9315" stroke="#2A3539" stroke-width="1.39535" stroke-linecap="round" stroke-linejoin="round"/>
<path d="M37.2813 25.0443H27.9213C26.3418 25.0443 25.0469 26.3392 25.0469 27.9187V41.4871H28.0441V53.1466" stroke="#2A3539" stroke-width="1.39535" stroke-linecap="round" stroke-linejoin="round"/>
<path d="M36.5063 53.1526V41.493H40.1789" stroke="#2A3539" stroke-width="1.39535" stroke-linecap="round" stroke-linejoin="round"/>
<path d="M36.8226 17.7941C36.8226 20.289 34.8022 22.3151 32.3017 22.3151C29.8012 22.3151 27.7808 20.2946 27.7808 17.7941C27.7808 15.2937 29.8012 13.2732 32.3017 13.2732C34.8022 13.2732 36.8226 15.2992 36.8226 17.7941Z" stroke="#2A3539" stroke-width="1.39535" stroke-linecap="round" stroke-linejoin="round"/>
<path d="M29.0942 29.4077V36.4961" stroke="#2A3539" stroke-width="1.39535" stroke-linecap="round" stroke-linejoin="round"/>
<path d="M35.4019 29.4077V36.4961" stroke="#2A3539" stroke-width="1.39535" stroke-linecap="round" stroke-linejoin="round"/>
<path d="M49.5783 42.568C55.993 42.568 61.1931 37.3679 61.1931 30.9531C61.1931 24.5384 55.993 19.3383 49.5783 19.3383C43.1635 19.3383 37.9634 24.5384 37.9634 30.9531C37.9634 37.3679 43.1635 42.568 49.5783 42.568Z" stroke="#2A3539" stroke-width="1.39535" stroke-miterlimit="10"/>
<path d="M47.8203 28.8441H49.5171V36.1446H51.638" stroke="#2A3539" stroke-width="1.39535" stroke-linecap="round" stroke-linejoin="round"/>
<path d="M49.5166 26.3377V25.093" stroke="#2A3539" stroke-width="1.39535" stroke-linecap="round" stroke-linejoin="round"/>
<path d="M32.2993 41.8318V53.4857" stroke="#2A3539" stroke-width="1.39535" stroke-linecap="round" stroke-linejoin="round"/>
</svg>
