<svg width="42" height="42" viewBox="0 0 42 42" fill="none" xmlns="http://www.w3.org/2000/svg">
<path d="M33.2508 21.8923C32.6192 21.7816 34.8364 21.1597 34.8364 21.1597L32.6908 20.7267L34.5108 20.4532L36.2234 20.196L36.3439 19.8216C34.742 19.6555 32.3295 19.4048 32.3067 19.4048C32.2839 19.4048 34.5857 18.9946 36.6922 18.7211L36.7606 18.5095C37.4053 16.4843 36.1908 14.342 34.1234 13.8569L12.7848 8.84621C10.7922 8.37737 8.80619 9.64063 8.38619 11.643L7.28898 16.8685C9.15457 16.8067 10.8867 17.3992 11.3294 17.3764C11.3685 17.3732 11.4011 17.3699 11.4174 17.3699C11.4532 17.3699 11.4174 17.3699 11.3294 17.3764C10.8215 17.4253 8.61084 17.7769 7.04154 18.0309L6.96666 18.389C7.74805 18.4378 8.22015 18.4899 8.36015 18.4867C12.8141 18.3857 7.45178 19.3788 6.6834 19.7271L4.93503 28.0425C4.48573 30.175 5.99968 32.223 8.17131 32.4216L28.7318 34.2904C30.4346 34.4467 32.0136 33.395 32.5346 31.7671L35.6243 22.0778C34.716 22.0225 33.609 21.9476 33.2541 21.8857L33.2508 21.8923Z" fill="#FFD5DA"/>
<path d="M31.5673 33.3852L11.3226 35.101C10.6226 35.1596 10.004 34.6419 9.94544 33.9386L8.00171 11.0079C7.94311 10.3079 8.46078 9.68934 9.16404 9.63074L13.3771 9.2726L14.1878 8.39353L16.5743 8.16237L17.2612 6.11772L19.1366 5.24841L21.0054 6.02655L22.4119 7.59585L24.3557 7.52423L25.2282 8.26655L29.4087 7.91167C30.1087 7.85306 30.7273 8.37074 30.7859 9.07399L32.7296 32.0047C32.7882 32.7047 32.2706 33.3233 31.5673 33.3819V33.3852Z" fill="white"/>
<path d="M32.7332 33.2516L11.4792 35.0618L9.39551 10.5846L30.8936 8.75159L32.7332 33.2516Z" fill="#FF9BA7"/>
<path d="M28.1728 10.2702L10.7004 11.8357L12.5263 32.2136L29.9986 30.6481L28.1728 10.2702Z" fill="#FFF3CD"/>
<path d="M13.3772 12.1896C13.3609 12.0822 13.0972 9.64357 13.0972 9.64357L14.0804 8.45519L16.5744 8.16868L17.18 6.34543L18.6288 5.53147L20.0548 5.42078L21.5297 6.72961L21.9041 7.67706L24.3558 7.52729L25.2283 8.26961L25.7037 9.82915L25.7525 11.2487L13.3772 12.1864V12.1896Z" fill="white"/>
<path d="M14.4686 12.4049C14.4589 12.343 14.2961 11.3174 14.2896 10.7867C14.2798 10.2267 14.8268 9.57555 14.8268 9.57555C15.0742 9.27602 15.4291 9.08393 15.8165 9.03835L17.7082 8.82021L17.7765 7.32904C17.9296 6.71695 18.4603 6.22207 19.0691 6.05602C19.3751 5.97462 20.3356 6.03323 20.3356 6.03323L20.9477 6.0723L21.6086 7.46579L23.2593 7.40393L24.6593 7.56997L25.4049 8.40997L25.711 9.64718L25.763 11.1449L14.4719 12.4016L14.4686 12.4049Z" fill="#FF9BA7"/>
<path d="M29.0148 37.7056C33.9093 37.7056 37.8771 33.7378 37.8771 28.8433C37.8771 23.9488 33.9093 19.981 29.0148 19.981C24.1203 19.981 20.1525 23.9488 20.1525 28.8433C20.1525 33.7378 24.1203 37.7056 29.0148 37.7056Z" fill="white"/>
<path d="M29.0895 36.6055C33.4212 36.6055 36.9327 33.0939 36.9327 28.7622C36.9327 24.4305 33.4212 20.9189 29.0895 20.9189C24.7578 20.9189 21.2462 24.4305 21.2462 28.7622C21.2462 33.0939 24.7578 36.6055 29.0895 36.6055Z" fill="#FF9BA7"/>
<rect x="24.2084" y="30.0319" width="2.7048" height="9.52636" transform="rotate(-90 24.2084 30.0319)" fill="white"/>
<rect x="27.6208" y="23.9166" width="2.7048" height="9.52636" fill="white"/>
<path d="M37.7083 13.2839C38.3179 13.2839 38.8121 12.7897 38.8121 12.1801C38.8121 11.5706 38.3179 11.0764 37.7083 11.0764C37.0988 11.0764 36.6046 11.5706 36.6046 12.1801C36.6046 12.7897 37.0988 13.2839 37.7083 13.2839Z" stroke="#FFDA6A" stroke-linecap="round" stroke-linejoin="round"/>
<path d="M4.18356 19.8343C4.79312 19.8343 5.28728 19.3401 5.28728 18.7306C5.28728 18.121 4.79312 17.6268 4.18356 17.6268C3.57399 17.6268 3.07983 18.121 3.07983 18.7306C3.07983 19.3401 3.57399 19.8343 4.18356 19.8343Z" stroke="#FFDA6A" stroke-linecap="round" stroke-linejoin="round"/>
<path d="M14.0944 34.8796L11.5386 35.0847C10.8451 35.1401 10.2363 34.6224 10.181 33.9289L8.30887 10.6987C8.25352 10.0052 8.77119 9.39637 9.46468 9.34102L11.9749 9.13916" stroke="#2A3539" stroke-linecap="round" stroke-linejoin="round"/>
<path d="M20.3689 34.3749L16.6898 34.6712" stroke="#2A3539" stroke-linecap="round" stroke-linejoin="round"/>
<path d="M27.0422 7.92833L29.5525 7.72647C30.246 7.67112 30.8548 8.18879 30.9101 8.88228L31.7241 19.0014" stroke="#2A3539" stroke-linecap="round" stroke-linejoin="round"/>
<path d="M19.2225 31.9398L12.5904 32.4738L10.9235 11.7538L12.177 11.6528" stroke="#2A3539" stroke-linecap="round" stroke-linejoin="round"/>
<path d="M27.2483 10.4388L28.5018 10.3379L29.1464 18.3146" stroke="#2A3539" stroke-linecap="round" stroke-linejoin="round"/>
<path d="M23.8551 7.55382L21.97 7.70684C21.8593 6.31986 20.6449 5.28451 19.2547 5.39847C17.8644 5.51242 16.8323 6.72358 16.9463 8.11382L15.0612 8.26684C14.0193 8.35149 13.2444 9.26312 13.3291 10.3017L13.4821 12.1868L26.0398 11.1743L25.8868 9.28916C25.8021 8.2473 24.8905 7.47242 23.8519 7.55707L23.8551 7.55382Z" stroke="#2A3539" stroke-linecap="round" stroke-linejoin="round"/>
<path d="M19.4076 7.2804L19.5085 8.53388" stroke="#2A3539" stroke-linecap="round" stroke-linejoin="round"/>
<path d="M14.4922 17.5753L15.8466 18.7311L18.1582 16.0157" stroke="#2A3539" stroke-linecap="round" stroke-linejoin="round"/>
<path d="M14.8431 21.9707L16.2008 23.1265L18.5092 20.4111" stroke="#2A3539" stroke-linecap="round" stroke-linejoin="round"/>
<path d="M15.198 26.3661L16.5557 27.5219L18.864 24.8065" stroke="#2A3539" stroke-linecap="round" stroke-linejoin="round"/>
<path d="M20.1403 17.1196L25.7924 16.667" stroke="#2A3539" stroke-linecap="round" stroke-linejoin="round"/>
<path d="M20.495 21.515L22.4778 21.3555" stroke="#2A3539" stroke-linecap="round" stroke-linejoin="round"/>
<path d="M28.563 2.61768V5.25488" stroke="#F96073" stroke-linecap="round" stroke-linejoin="round"/>
<path d="M27.2479 3.93652H29.8819" stroke="#F96073" stroke-linecap="round" stroke-linejoin="round"/>
<path d="M8.30566 35.8657V38.5029" stroke="#F96073" stroke-linecap="round" stroke-linejoin="round"/>
<path d="M6.98682 37.1846H9.62403" stroke="#F96073" stroke-linecap="round" stroke-linejoin="round"/>
<path d="M6.22166 6.69067L4.35608 8.553" stroke="#F96073" stroke-linecap="round" stroke-linejoin="round"/>
<path d="M4.35608 6.69067L6.22166 8.553" stroke="#F96073" stroke-linecap="round" stroke-linejoin="round"/>
<path d="M29.0152 37.8524C33.9906 37.8524 38.024 33.819 38.024 28.8436C38.024 23.8681 33.9906 19.8347 29.0152 19.8347C24.0397 19.8347 20.0063 23.8681 20.0063 28.8436C20.0063 33.819 24.0397 37.8524 29.0152 37.8524Z" stroke="#2A3539" stroke-linecap="round" stroke-linejoin="round"/>
<path d="M27.6448 30.1038L27.6448 33.5411L30.3946 33.5411L30.3946 30.1038M27.6448 27.354L27.6448 23.9166L30.3946 23.9166L30.3946 27.354" stroke="#2A3539" stroke-linejoin="round"/>
<path d="M30.3958 30.1044L33.8331 30.1044L33.8331 27.3545L30.3958 27.3545M27.6459 30.1044L24.2086 30.1044L24.2086 27.3545L27.6459 27.3545" stroke="#2A3539" stroke-linecap="round" stroke-linejoin="round"/>
</svg>
