<svg width="42" height="42" viewBox="0 0 42 42" fill="none" xmlns="http://www.w3.org/2000/svg">
<path d="M33.8212 21.1072C33.1896 20.9965 35.4068 20.3747 35.4068 20.3747L33.2612 19.9416L35.0812 19.6681L36.7937 19.4109L36.9142 19.0365C35.3123 18.8705 32.8998 18.6198 32.877 18.6198C32.8542 18.6198 35.1561 18.2095 37.2626 17.9361L37.331 17.7244C37.9756 15.6993 36.7612 13.557 34.6937 13.0719L13.3551 8.06117C11.3626 7.59234 9.37653 8.85559 8.95653 10.8579L7.85932 16.0835C9.72491 16.0216 11.457 16.6142 11.8998 16.5914C11.9389 16.5881 11.9714 16.5849 11.9877 16.5849C12.0235 16.5849 11.9877 16.5849 11.8998 16.5914C11.3919 16.6402 9.18118 16.9919 7.61188 17.2458L7.537 17.604C8.31839 17.6528 8.79049 17.7049 8.93049 17.7016C13.3844 17.6007 8.02211 18.5937 7.25374 18.9421L5.50537 27.2575C5.05607 29.39 6.57002 31.4379 8.74165 31.6365L29.3021 33.5054C31.0049 33.6616 32.584 32.61 33.1049 30.9821L36.1947 21.2928C35.2863 21.2375 34.1793 21.1626 33.8244 21.1007L33.8212 21.1072Z" fill="#FFD5DA"/>
<path d="M34.5832 36.5592C35.8074 35.8234 37.0251 33.9969 37.0251 33.9969L35.4037 32.1802L32.6558 35.3155L34.5832 36.5625V36.5592Z" fill="white"/>
<path d="M33.2255 9.29199L34.9967 27.925L11.3627 30.1097L9.56875 11.4734L33.2255 9.29199Z" fill="white"/>
<path d="M23.9105 31.9459L9.51657 35.397L5.32634 17.1547L9.98866 15.8296L11.3626 30.1096L25.0045 28.8496L26.1798 28.7421L23.9105 31.9459Z" fill="white"/>
<path d="M11.4081 12.7561L12.8862 27.9705L33.3327 26.7236L31.7917 10.7915L11.4081 12.7561Z" fill="#FFE69C"/>
<path d="M12.8862 28.5209L19.5672 20.6223L21.7225 22.413L25.6262 17.7148L29.4746 20.746L27.5276 23.2139L24.9848 27.4953L12.8862 28.5209Z" fill="#FF9BA7"/>
<path d="M28.8561 23.5913L32.2975 25.9127L24.6756 36.5592C24.6756 36.5592 23.8649 37.969 23.23 38.0699C22.5951 38.1708 22.2077 38.109 21.9407 37.7281C21.9407 37.7248 21.9342 37.7215 21.9342 37.715C21.5924 37.2234 21.5891 36.5722 21.8821 36.0513L28.8593 23.5913H28.8561Z" fill="#FF9BA7"/>
<path d="M35.0811 19.6713L32.2941 25.9127L28.8559 23.5913L32.4764 19.0625L35.0811 19.6713Z" fill="white"/>
<path d="M37.0412 12.0073C37.0412 12.0073 38.7798 15.7352 38.4836 17.2427C37.8552 20.4562 35.5436 20.8534 34.6645 20.5994C32.3366 19.9287 32.3301 18.9715 32.2943 18.4994C32.2584 18.0273 31.6789 15.7417 33.3491 15.0678C35.0194 14.3938 36.7059 13.098 37.0412 12.0073Z" fill="#FF9BA7"/>
<path d="M15.8785 17.848C16.9215 17.848 17.7669 17.0026 17.7669 15.9597C17.7669 14.9167 16.9215 14.0713 15.8785 14.0713C14.8356 14.0713 13.9902 14.9167 13.9902 15.9597C13.9902 17.0026 14.8356 17.848 15.8785 17.848Z" fill="white"/>
<path d="M30.0313 24.3859L21.9406 37.7282C21.9406 37.7282 21.5565 36.9891 21.7127 36.478C21.869 35.9668 29.276 23.7119 29.276 23.7119L30.0313 24.3826V24.3859Z" fill="white"/>
<path d="M36.8687 12.0073C36.8687 12.0073 36.9631 13.0883 36.6343 13.8729C36.1101 15.1264 34.1533 15.2436 33.3329 16.9692C32.7729 18.1413 33.7529 19.9417 33.7529 19.9417C33.7529 19.9417 31.4803 19.4697 31.8222 17.4445C32.164 15.4194 33.7366 14.5501 34.1045 14.472C34.4724 14.3938 36.7775 13.1436 36.8654 12.0073H36.8687Z" fill="white"/>
<path d="M10.1254 17.7148L7.38729 18.3139L10.6431 33.079L24.9296 30.1097L25.851 28.6772L11.3626 30.1097L10.1254 17.7148Z" fill="#FFE69C"/>
<path d="M35.2475 35.9472C35.857 35.9472 36.3512 35.453 36.3512 34.8435C36.3512 34.2339 35.857 33.7397 35.2475 33.7397C34.6379 33.7397 34.1438 34.2339 34.1438 34.8435C34.1438 35.453 34.6379 35.9472 35.2475 35.9472Z" stroke="#FFDA6A" stroke-linecap="round" stroke-linejoin="round"/>
<path d="M19.3299 5.22551C19.9395 5.22551 20.4336 4.73136 20.4336 4.12179C20.4336 3.51222 19.9395 3.01807 19.3299 3.01807C18.7203 3.01807 18.2262 3.51222 18.2262 4.12179C18.2262 4.73136 18.7203 5.22551 19.3299 5.22551Z" stroke="#FFDA6A" stroke-linecap="round" stroke-linejoin="round"/>
<path d="M2.94656 23.0248C3.55613 23.0248 4.05028 22.5307 4.05028 21.9211C4.05028 21.3115 3.55613 20.8174 2.94656 20.8174C2.33699 20.8174 1.84284 21.3115 1.84284 21.9211C1.84284 22.5307 2.33699 23.0248 2.94656 23.0248Z" stroke="#FFDA6A" stroke-linecap="round" stroke-linejoin="round"/>
<path d="M7.19221 5.38184L5.32663 7.24416" stroke="#F96073" stroke-linecap="round" stroke-linejoin="round"/>
<path d="M5.32663 5.38184L7.19221 7.24416" stroke="#F96073" stroke-linecap="round" stroke-linejoin="round"/>
<path d="M33.7953 3.6792V6.31315" stroke="#F96073" stroke-linecap="round" stroke-linejoin="round"/>
<path d="M32.4767 4.99756H35.114" stroke="#F96073" stroke-linecap="round" stroke-linejoin="round"/>
<path d="M16.9073 35.7583V38.3955" stroke="#F96073" stroke-linecap="round" stroke-linejoin="round"/>
<path d="M15.5923 37.0771H18.2262" stroke="#F96073" stroke-linecap="round" stroke-linejoin="round"/>
<path d="M24.0702 28.9343L11.2846 30.1097L9.56876 11.4701L33.2255 9.29199L33.525 12.4371" stroke="#2A3539" stroke-linecap="round" stroke-linejoin="round"/>
<path d="M34.5895 23.6304L34.9965 27.9248L32.0825 28.195" stroke="#2A3539" stroke-linecap="round" stroke-linejoin="round"/>
<path d="M22.3184 32.4571L9.51658 35.3971L5.32635 17.1548L8.61472 16.3994" stroke="#2A3539" stroke-linecap="round" stroke-linejoin="round"/>
<path d="M14.166 26.7237L19.3721 20.4595L24.0702 24.3664" stroke="#2A3539" stroke-linecap="round" stroke-linejoin="round"/>
<path d="M21.7227 22.413L25.6265 17.7148L28.9637 20.4595" stroke="#2A3539" stroke-linecap="round" stroke-linejoin="round"/>
<path d="M15.7644 18.1185C16.9565 18.1185 17.923 17.152 17.923 15.9599C17.923 14.7677 16.9565 13.8013 15.7644 13.8013C14.5722 13.8013 13.6058 14.7677 13.6058 15.9599C13.6058 17.152 14.5722 18.1185 15.7644 18.1185Z" stroke="#2A3539" stroke-linecap="round" stroke-linejoin="round"/>
<path d="M32.2945 25.825L28.8532 23.6338L21.7164 36.1263C21.3648 36.745 21.5601 37.5263 22.1592 37.9105C22.7583 38.2915 23.5527 38.1384 23.9629 37.5589L32.2913 25.8282L32.2945 25.825Z" stroke="#2A3539" stroke-linecap="round" stroke-linejoin="round"/>
<path d="M28.8562 23.6307L32.5255 19.1475" stroke="#2A3539" stroke-linecap="round" stroke-linejoin="round"/>
<path d="M32.2946 25.8249L34.8113 20.6025" stroke="#2A3539" stroke-linecap="round" stroke-linejoin="round"/>
<path d="M37.7251 19.2059C36.8168 20.632 34.9251 21.0487 33.4991 20.1403C32.073 19.232 31.6563 17.3403 32.5647 15.9143C33.9354 13.7655 35.6544 14.8594 36.8688 12.0073C38.6433 14.5273 38.8191 17.4836 37.7251 19.2059Z" stroke="#2A3539" stroke-linecap="round" stroke-linejoin="round"/>
</svg>
