<svg width="42" height="42" viewBox="0 0 42 42" fill="none" xmlns="http://www.w3.org/2000/svg">
<path d="M34.2239 20.6936C33.5922 20.5829 35.8094 19.9611 35.8094 19.9611L33.6639 19.5281L35.4839 19.2546L37.1964 18.9974L37.3169 18.6229C35.715 18.4569 33.3025 18.2062 33.2797 18.2062C33.2569 18.2062 35.5588 17.796 37.6653 17.5225L37.7336 17.3109C38.3783 15.2857 37.1639 13.1434 35.0964 12.6583L13.7578 7.6476C11.7653 7.17876 9.77922 8.44202 9.35922 10.4443L8.26201 15.6699C10.1276 15.6081 11.8597 16.2006 12.3025 16.1778C12.3415 16.1746 12.3741 16.1713 12.3904 16.1713C12.4262 16.1713 12.3904 16.1713 12.3025 16.1778C11.7946 16.2267 9.58387 16.5783 8.01457 16.8323L7.93968 17.1904C8.72108 17.2392 9.19317 17.2913 9.33317 17.2881C13.7871 17.1871 8.4248 18.1802 7.65643 18.5285L5.90805 26.8439C5.45875 28.9764 6.9727 31.0243 9.14433 31.2229L29.7048 33.0918C31.4076 33.2481 32.9867 32.1964 33.5076 30.5685L36.5974 20.8792C35.689 20.8239 34.582 20.749 34.2271 20.6871L34.2239 20.6936Z" fill="#FFD5DA"/>
<path d="M24.511 24.9728V30.397C24.511 30.397 25.0547 32.3667 27.6919 33.1123C30.3291 33.8579 32.7645 33.3826 33.2691 33.0244C33.7738 32.6663 35.2584 31.5495 35.3333 30.7584C35.4082 29.9672 35.3333 24.7058 35.3333 24.7058L24.5142 24.9728H24.511Z" fill="#FFF3CD"/>
<path d="M30.0035 27.4376C33.037 27.4376 35.4961 25.9931 35.4961 24.2111C35.4961 22.4292 33.037 20.9846 30.0035 20.9846C26.9701 20.9846 24.511 22.4292 24.511 24.2111C24.511 25.9931 26.9701 27.4376 30.0035 27.4376Z" fill="#FFF3CD"/>
<path d="M6.96927 19.1611L6.79346 27.0663L15.3432 33.0277L21.4446 29.163V29.8109L24.5116 27.916L24.5637 23.7714C24.5637 23.7714 26.0353 20.7142 28.3665 20.7467C30.6976 20.7793 31.033 20.7467 31.033 20.7467L32.0228 19.757V14.17L23.1083 8.62207L16.8865 12.4932L16.3558 12.07L12.5465 14.476L12.9828 14.9221L6.96927 19.1579V19.1611Z" fill="white"/>
<path d="M15.3427 24.566L21.4441 20.5939L19.7446 19.6432L16.6287 21.3916C16.6287 21.3916 14.9878 21.1181 14.8511 21.4209C14.7143 21.7237 11.5106 19.4902 11.5106 19.4902C11.5106 19.4902 11.8785 18.3865 11.6929 18.2953C11.5073 18.2041 14.685 16.2246 14.685 16.2246L12.865 14.9939L6.78967 18.7739L15.3394 24.566H15.3427Z" fill="#FF9BA7"/>
<path d="M16.8827 12.4933L18.8492 13.6654L21.8673 11.6859C21.8673 11.6859 22.7725 11.9496 23.3455 11.6859C23.9185 11.4222 26.9073 13.6654 26.9073 13.6654C26.9073 13.6654 26.9855 14.8635 27.1059 14.9905C27.2264 15.1175 24.0487 16.9245 24.0487 16.9245L25.8427 18.051L31.7552 14.1668L23.1046 8.6189L16.8827 12.4901V12.4933Z" fill="#FF9BA7"/>
<path d="M6.79346 19.4673V27.0664L15.3432 33.0245L21.4446 29.1631V20.5905L15.3432 24.5659L6.79346 19.4673Z" fill="#FF9BA7"/>
<path d="M25.8425 18.0509L31.9797 14.4792L32.0221 19.7537L31.029 20.7467L25.8425 21.8016V18.0509Z" fill="#FF9BA7"/>
<path d="M12.5433 14.4759L16.3526 12.0698L25.8433 18.0508V21.8015C25.8433 21.8015 24.4824 22.7294 24.5084 24.2108C24.5345 25.6921 24.5084 27.9159 24.5084 27.9159L21.4415 29.8108V20.5935L12.5433 14.4791V14.4759Z" fill="white"/>
<path d="M34.7833 37.1261C35.3929 37.1261 35.887 36.632 35.887 36.0224C35.887 35.4129 35.3929 34.9187 34.7833 34.9187C34.1737 34.9187 33.6796 35.4129 33.6796 36.0224C33.6796 36.632 34.1737 37.1261 34.7833 37.1261Z" stroke="#FFDA6A" stroke-linecap="round" stroke-linejoin="round"/>
<path d="M3.12691 23.7182C3.73648 23.7182 4.23064 23.224 4.23064 22.6145C4.23064 22.0049 3.73648 21.5107 3.12691 21.5107C2.51735 21.5107 2.02319 22.0049 2.02319 22.6145C2.02319 23.224 2.51735 23.7182 3.12691 23.7182Z" stroke="#FFDA6A" stroke-linecap="round" stroke-linejoin="round"/>
<path d="M21.8835 5.74626C22.4931 5.74626 22.9872 5.25211 22.9872 4.64254C22.9872 4.03297 22.4931 3.53882 21.8835 3.53882C21.2739 3.53882 20.7798 4.03297 20.7798 4.64254C20.7798 5.25211 21.2739 5.74626 21.8835 5.74626Z" stroke="#FFDA6A" stroke-linecap="round" stroke-linejoin="round"/>
<path d="M8.11806 6.36475L6.25574 8.22707" stroke="#F96073" stroke-linecap="round" stroke-linejoin="round"/>
<path d="M6.25574 6.36475L8.11806 8.22707" stroke="#F96073" stroke-linecap="round" stroke-linejoin="round"/>
<path d="M17.345 35.0911L15.4827 36.9534" stroke="#F96073" stroke-linecap="round" stroke-linejoin="round"/>
<path d="M15.4827 35.0911L17.345 36.9534" stroke="#F96073" stroke-linecap="round" stroke-linejoin="round"/>
<path d="M37.5149 9.65308H34.8777" stroke="#F96073" stroke-linecap="round" stroke-linejoin="round"/>
<path d="M36.1965 8.33472V10.9719" stroke="#F96073" stroke-linecap="round" stroke-linejoin="round"/>
<path d="M21.4427 26.3874L15.3413 30.2521L6.46594 24.333" stroke="#2A3539" stroke-linecap="round" stroke-linejoin="round"/>
<path d="M23.1062 13.6118V14.722" stroke="#2A3539" stroke-linecap="round" stroke-linejoin="round"/>
<path d="M15.3418 18.603V19.7133" stroke="#2A3539" stroke-linecap="round" stroke-linejoin="round"/>
<path d="M23.6531 28.3805L21.4424 29.8065V20.7879L12.3098 14.6149L16.4187 12.1372L18.8345 13.6512L25.8768 18.0726V20.1367" stroke="#2A3539" stroke-linecap="round" stroke-linejoin="round"/>
<path d="M24.0471 16.9261L27.2215 14.9205C26.7397 14.6145 26.6387 14.1847 27.2215 13.8168L23.7313 11.6094C23.1485 11.9773 22.468 11.9154 21.9862 11.6094L18.7922 13.628" stroke="#2A3539" stroke-linecap="round" stroke-linejoin="round"/>
<path d="M14.6868 16.2229L11.2161 18.4173C11.7989 18.7852 11.7044 19.2117 11.2226 19.5178L14.7128 21.7252C15.1947 21.4224 15.8719 21.3606 16.4514 21.7285L19.7398 19.648" stroke="#2A3539" stroke-linecap="round" stroke-linejoin="round"/>
<path d="M21.4427 20.8399L15.3413 24.7045L6.46594 18.9743L13.0264 15.0999" stroke="#2A3539" stroke-linecap="round" stroke-linejoin="round"/>
<path d="M17.0371 12.5211L23.1059 8.62061L31.978 14.1653L25.8473 18.0494" stroke="#2A3539" stroke-linecap="round" stroke-linejoin="round"/>
<path d="M21.4427 23.6232L15.3413 27.4781L6.46594 21.6501" stroke="#2A3539" stroke-linecap="round" stroke-linejoin="round"/>
<path d="M31.9781 16.9395C31.9781 16.9395 29.979 18.2125 28.7874 18.9743" stroke="#2A3539" stroke-linecap="round" stroke-linejoin="round"/>
<path d="M31.9789 19.7134C31.9789 19.7134 31.8129 19.8208 31.5459 19.9869" stroke="#2A3539" stroke-linecap="round" stroke-linejoin="round"/>
<path d="M21.4427 29.1618L15.3413 33.0232L6.46594 26.925" stroke="#2A3539" stroke-linecap="round" stroke-linejoin="round"/>
<path d="M35.4014 28.2112C35.4014 30.1256 32.9628 31.6786 29.9544 31.6786C26.9461 31.6786 24.5074 30.1256 24.5074 28.2112" stroke="#2A3539" stroke-linecap="round" stroke-linejoin="round"/>
<path d="M35.4014 26.1929V30.191C35.4014 32.1054 32.9628 33.6585 29.9544 33.6585C26.9461 33.6585 24.5074 32.1054 24.5074 30.191V28.2115V26.4273" stroke="#2A3539" stroke-linecap="round" stroke-linejoin="round"/>
<path d="M29.9582 27.6773C26.9498 27.6773 24.5112 26.1243 24.5112 24.2099C24.5112 22.2955 26.9498 20.7424 29.9582 20.7424C32.9666 20.7424 35.4052 22.2955 35.4052 24.2099C35.4052 26.1243 32.9666 27.6773 29.9582 27.6773Z" stroke="#2A3539" stroke-linecap="round" stroke-linejoin="round"/>
<path d="M24.5112 24.21V26.1895C24.5112 28.1039 26.9498 29.6569 29.9582 29.6569C32.9666 29.6569 35.4052 28.1039 35.4052 26.1895V24.21" stroke="#2A3539" stroke-linecap="round" stroke-linejoin="round"/>
</svg>
