<svg width="42" height="42" viewBox="0 0 42 42" fill="none" xmlns="http://www.w3.org/2000/svg">
<path d="M33.2517 21.6004C32.62 21.4897 34.8373 20.8678 34.8373 20.8678L32.6917 20.4348L34.5117 20.1613L36.2242 19.9041L36.3447 19.5297C34.7428 19.3636 32.3303 19.1129 32.3075 19.1129C32.2847 19.1129 34.5866 18.7027 36.6931 18.4292L36.7614 18.2176C37.4061 16.1925 36.1917 14.0502 34.1242 13.565L12.7856 8.55434C10.7931 8.0855 8.80702 9.34876 8.38702 11.3511L7.28981 16.5767C9.15539 16.5148 10.8875 17.1074 11.3303 17.0846C11.3693 17.0813 11.4019 17.0781 11.4182 17.0781C11.454 17.0781 11.4182 17.0781 11.3303 17.0846C10.8224 17.1334 8.61167 17.485 7.04237 17.739L6.96748 18.0971C7.74888 18.146 8.22097 18.1981 8.36097 18.1948C12.8149 18.0939 7.4526 19.0869 6.68423 19.4353L4.93586 27.7506C4.48655 29.8832 6.00051 31.9311 8.17213 32.1297L28.7326 33.9985C30.4354 34.1548 32.0145 33.1032 32.5354 31.4753L35.6252 21.786C34.7168 21.7306 33.6098 21.6557 33.2549 21.5939L33.2517 21.6004Z" fill="#FFD5DA"/>
<path d="M21.9345 4.83301L24.5359 5.37347L21.5047 20.0149L21.8368 22.9321C21.8368 22.9321 18.7861 21.5874 17.8419 21.8056C16.8978 22.0237 18.9196 19.393 18.9196 19.393L21.9345 4.83301Z" fill="#FF9BA7"/>
<path d="M9.37676 35.454L23.5005 37.9577L24.8679 29.8507C25.4507 26.3865 23.2107 23.0786 19.7758 22.3363L18.9261 22.154C15.3642 21.3856 11.8577 23.6582 11.1056 27.2265L9.3735 35.4572L9.37676 35.454Z" fill="#FFF3CD"/>
<path d="M12.8475 24.1301L24.5456 26.432L24.9624 29.4013L11.2586 26.7641L12.8475 24.1301Z" fill="#FF9BA7"/>
<path d="M10.5587 35.6623L12.4405 26.966C12.4405 26.966 13.4726 23.1372 18.1089 22.9288C18.7894 22.8995 18.4117 21.8023 18.4117 21.8023L17.9233 21.7111C14.4233 21.0469 11.034 23.2967 10.2885 26.7804L8.46194 35.3107L10.5587 35.6623Z" fill="white"/>
<path d="M23.035 4.93719L19.9062 19.9204L18.9262 22.1507L17.435 21.8967L18.962 19.5981L21.9345 4.83301L23.035 4.93719Z" fill="white"/>
<path d="M3.75066 19.5168C4.36023 19.5168 4.85438 19.0226 4.85438 18.413C4.85438 17.8035 4.36023 17.3093 3.75066 17.3093C3.14109 17.3093 2.64694 17.8035 2.64694 18.413C2.64694 19.0226 3.14109 19.5168 3.75066 19.5168Z" stroke="#FFDA6A" stroke-linecap="round" stroke-linejoin="round"/>
<path d="M30.8814 8.42082C31.4909 8.42082 31.9851 7.92667 31.9851 7.3171C31.9851 6.70753 31.4909 6.21338 30.8814 6.21338C30.2718 6.21338 29.7776 6.70753 29.7776 7.3171C29.7776 7.92667 30.2718 8.42082 30.8814 8.42082Z" stroke="#FFDA6A" stroke-linecap="round" stroke-linejoin="round"/>
<path d="M13.3976 4.43896L11.5352 6.30129" stroke="#F96073" stroke-linecap="round" stroke-linejoin="round"/>
<path d="M11.5352 4.43896L13.3976 6.30129" stroke="#F96073" stroke-linecap="round" stroke-linejoin="round"/>
<path d="M6.71999 34.0571L4.85767 35.9195" stroke="#F96073" stroke-linecap="round" stroke-linejoin="round"/>
<path d="M4.85767 34.0571L6.71999 35.9195" stroke="#F96073" stroke-linecap="round" stroke-linejoin="round"/>
<path d="M38.8777 29.9807H36.2405" stroke="#F96073" stroke-linecap="round" stroke-linejoin="round"/>
<path d="M37.559 28.6624V31.2963" stroke="#F96073" stroke-linecap="round" stroke-linejoin="round"/>
<path d="M12.9516 31.1366L12.0171 35.9226L9.37668 35.4538L11.0762 27.4087C11.3725 26.1324 12.0009 25.0157 12.8474 24.1301C14.4492 22.4566 16.8357 21.6068 19.2678 22.0659C22.9892 22.7659 25.4962 26.2692 24.959 30.0166L23.5004 37.9575L21.0097 37.5147L21.6739 33.5394" stroke="#2A3539" stroke-linecap="round" stroke-linejoin="round"/>
<path d="M14.6512 33.2627L13.9316 36.2613L18.7698 37.1176L19.5186 32.8557" stroke="#2A3539" stroke-linecap="round" stroke-linejoin="round"/>
<path d="M24.5456 26.432L12.8474 24.1301" stroke="#2A3539" stroke-linecap="round" stroke-linejoin="round"/>
<path d="M19.3917 28.1609L11.2586 26.7642" stroke="#2A3539" stroke-linecap="round" stroke-linejoin="round"/>
<path d="M25.0307 29.1278L21 28.4343" stroke="#2A3539" stroke-linecap="round" stroke-linejoin="round"/>
<path d="M17.4414 31.0098L16.2791 36.6781" stroke="#2A3539" stroke-linecap="round" stroke-linejoin="round"/>
<path d="M24.539 5.37012L21.4623 20.2329L21.8367 22.9287" stroke="#2A3539" stroke-linecap="round" stroke-linejoin="round"/>
<path d="M17.5715 21.8056L18.8576 19.7023L21.9343 4.83301" stroke="#2A3539" stroke-linecap="round" stroke-linejoin="round"/>
<path d="M19.2386 19.7837L21.4591 20.2428" stroke="#2A3539" stroke-linecap="round" stroke-linejoin="round"/>
<path d="M26.8962 32.5725H33.18" stroke="#2A3539" stroke-linecap="round" stroke-linejoin="round"/>
<path d="M30.7902 30.4758H32.4311" stroke="#2A3539" stroke-linecap="round" stroke-linejoin="round"/>
<path d="M26.6651 30.4758H28.7391" stroke="#2A3539" stroke-linecap="round" stroke-linejoin="round"/>
<path d="M25.913 34.7051H31.8906" stroke="#2A3539" stroke-linecap="round" stroke-linejoin="round"/>
</svg>
