<svg width="42" height="42" viewBox="0 0 42 42" fill="none" xmlns="http://www.w3.org/2000/svg">
<path d="M35.0429 21.4392C34.4063 21.3276 36.6408 20.7009 36.6408 20.7009L34.4785 20.2645L36.3127 19.9888L38.0387 19.7296L38.1601 19.3523C36.5457 19.1849 34.1143 18.9323 34.0913 18.9323C34.0683 18.9323 36.3882 18.5188 38.5112 18.2432L38.5801 18.0299C39.2297 15.989 38.0058 13.8299 35.9222 13.341L14.4169 8.29119C12.4088 7.81869 10.4072 9.09181 9.98397 11.1098L8.87818 16.3762C10.7583 16.3138 12.504 16.911 12.9502 16.8881C12.9896 16.8848 13.0224 16.8815 13.0388 16.8815C13.0749 16.8815 13.0388 16.8815 12.9502 16.8881C12.4383 16.9373 10.2104 17.2917 8.62881 17.5476L8.55334 17.9085C9.34084 17.9577 9.81662 18.0102 9.95772 18.007C14.4465 17.9052 9.04225 18.906 8.26787 19.2571L6.50584 27.6374C6.05303 29.7867 7.57881 31.8506 9.7674 32.0507L30.4885 33.9342C32.2046 34.0917 33.796 33.0318 34.321 31.3912L37.4349 21.6262C36.5194 21.5704 35.4038 21.4949 35.0462 21.4326L35.0429 21.4392Z" fill="#FFD5DA"/>
<path d="M18.2032 29.7015C24.419 29.7015 29.4579 24.6626 29.4579 18.4468C29.4579 12.231 24.419 7.19214 18.2032 7.19214C11.9874 7.19214 6.94849 12.231 6.94849 18.4468C6.94849 24.6626 11.9874 29.7015 18.2032 29.7015Z" fill="white"/>
<path d="M19.0073 29.8194C25.0455 29.8194 29.9405 24.9244 29.9405 18.8862C29.9405 12.8481 25.0455 7.95312 19.0073 7.95312C12.9691 7.95312 8.07422 12.8481 8.07422 18.8862C8.07422 24.9244 12.9691 29.8194 19.0073 29.8194Z" fill="#FF9BA7"/>
<path d="M25.1375 9.07237C25.1375 9.07237 23.7463 10.6638 23.6872 10.6769C23.6282 10.69 20.8621 10.7064 20.8621 10.7064L19.6414 11.7728H18.7456C17.4824 11.7728 16.4586 12.7966 16.4586 14.0599V15.0442H20.2156C20.2156 15.0442 23.0736 17.9153 23.195 17.9153C23.3164 17.9153 24.4616 18.0696 24.5863 17.9153C24.711 17.7611 25.236 17.1278 25.236 17.1278L26.1613 17.3608L27.8281 20.058C27.8281 20.058 29.4885 20.2155 29.4622 20.14C29.436 20.0646 29.938 18.1778 29.4622 16.4027C28.9864 14.6275 27.8117 10.1125 25.1408 9.06909L25.1375 9.07237Z" fill="#FFF3CD"/>
<path d="M8.33717 12.344H9.39045C10.2337 12.344 10.9195 13.0298 10.9195 13.8731V15.0707H9.88592L8.78998 16.1667V17.7745H6.64404C6.64404 17.7745 6.69982 14.6802 8.34045 12.344H8.33717Z" fill="#FFF3CD"/>
<path d="M6.9058 20.8031C6.87299 20.6882 8.38564 19.3954 8.38564 19.3954L10.7646 19.3167L12.1558 20.5668V21.6463L11.027 22.8046V25.3837L9.99674 26.437C9.99674 26.437 8.13299 25.3115 6.90908 20.7998L6.9058 20.8031Z" fill="#FFF3CD"/>
<path d="M20.0416 23.6409L18.0925 21.6656C18.0925 21.6656 16.4749 21.636 16.5077 21.5868C16.5405 21.5376 16.5077 19.431 16.5077 19.431L18.0203 17.879L20.2024 17.7937L22.2827 19.8084H23.6379L24.6878 20.8584V23.7918L20.0416 23.6343V23.6409Z" fill="#FFF3CD"/>
<path d="M24.4511 23.6638H17.2389C16.5334 23.6638 15.9592 24.2315 15.9559 24.9337C15.933 27.6866 15.91 33.9505 16.1659 33.9505C16.4973 33.9505 19.0731 34.3607 19.0731 34.3607V37.4516C19.0731 37.806 19.503 37.9865 19.7556 37.7338L23.0533 34.4362H26.912C27.4797 34.4362 27.9423 33.9735 27.9423 33.4059V30.8924H31.0497L34.3998 34.2426C34.6919 34.5346 35.1939 34.3279 35.1939 33.9145V31.0401H36.3719C37.1036 31.0401 37.6975 30.4462 37.6975 29.7145V21.321C37.6975 20.6845 37.1791 20.166 36.5425 20.166H26.2591C25.1631 20.166 24.2969 21.088 24.3592 22.1807L24.4478 23.6638H24.4511Z" fill="white"/>
<path d="M24.3267 25.1409H17.3081V32.947H20.1989V35.1946L22.5876 32.901H26.8204V30.9946L26.0854 30.9815C25.1208 30.9618 24.3464 30.1776 24.3431 29.2129L24.3267 25.1441V25.1409Z" fill="#FFD5DA"/>
<path d="M25.7573 22.2461V29.3073C25.7573 29.5239 25.9345 29.7011 26.1511 29.7011H31.5192L34.2098 32.3917V29.8225H36.0801C36.2967 29.8225 36.4739 29.6453 36.4739 29.4287V22.2461C36.4739 21.79 36.1031 21.4192 35.647 21.4192H26.5842C26.1281 21.4192 25.7573 21.79 25.7573 22.2461Z" fill="#FFD5DA"/>
<path d="M7.95207 6.25342L6.0752 8.13029" stroke="#F96073" stroke-linecap="round" stroke-linejoin="round"/>
<path d="M6.0752 6.25342L7.95207 8.13029" stroke="#F96073" stroke-linecap="round" stroke-linejoin="round"/>
<path d="M33.9863 11.3794V14.0339" stroke="#F96073" stroke-linecap="round" stroke-linejoin="round"/>
<path d="M32.6577 12.708H35.3155" stroke="#F96073" stroke-linecap="round" stroke-linejoin="round"/>
<path d="M10.0332 31.3916V34.0461" stroke="#F96073" stroke-linecap="round" stroke-linejoin="round"/>
<path d="M8.70459 32.7205H11.3624" stroke="#F96073" stroke-linecap="round" stroke-linejoin="round"/>
<path d="M28.5881 7.72688C29.2024 7.72688 29.7004 7.22887 29.7004 6.61454C29.7004 6.00021 29.2024 5.5022 28.5881 5.5022C27.9737 5.5022 27.4757 6.00021 27.4757 6.61454C27.4757 7.22887 27.9737 7.72688 28.5881 7.72688Z" stroke="#FFDA6A" stroke-linecap="round" stroke-linejoin="round"/>
<path d="M4.35966 23.8773C4.97399 23.8773 5.472 23.3793 5.472 22.7649C5.472 22.1506 4.97399 21.6526 4.35966 21.6526C3.74533 21.6526 3.24731 22.1506 3.24731 22.7649C3.24731 23.3793 3.74533 23.8773 4.35966 23.8773Z" stroke="#FFDA6A" stroke-linecap="round" stroke-linejoin="round"/>
<path d="M8.33644 12.343H9.36675C10.2691 12.343 11.0041 13.0747 11.0041 13.9804V15.0697H9.91472L8.82534 16.1591V17.7965H6.64331" stroke="#2A3539" stroke-linecap="round" stroke-linejoin="round"/>
<path d="M9.99317 26.4399L11.0038 25.4326V22.7058L12.0932 21.6132V20.5238L10.9185 19.4312H8.27708L6.90552 20.8027" stroke="#2A3539" stroke-linecap="round" stroke-linejoin="round"/>
<path d="M27.3615 18.8858L26.2721 17.2485H25.1827L24.638 17.7932H23.0007L20.274 15.0665H16.4579V13.9771C16.4579 12.7729 17.4357 11.795 18.6399 11.795H19.7293L20.8187 10.7057H23.5454L25.0252 9.22583" stroke="#2A3539" stroke-linecap="round" stroke-linejoin="round"/>
<path d="M18.8072 22.3285L18.0919 21.6132H16.4546V19.4345L18.0919 17.7971H20.274L22.0327 19.5559" stroke="#2A3539" stroke-linecap="round" stroke-linejoin="round"/>
<path d="M14.5708 29.242C9.9672 27.7556 6.64001 23.4375 6.64001 18.3417C6.64001 12.0154 11.7686 6.89014 18.0916 6.89014C24.4145 6.89014 29.5431 12.0187 29.5431 18.3417C29.5431 18.5254 29.5399 18.7059 29.53 18.8864" stroke="#2A3539" stroke-linecap="round" stroke-linejoin="round"/>
<path d="M25.8163 30.8947H31.1385L34.3738 34.13C34.6527 34.4089 35.1318 34.2121 35.1318 33.815V30.8947H36.464C37.199 30.8947 37.7962 30.2975 37.7962 29.5625V21.5793C37.7962 20.8443 37.199 20.2471 36.464 20.2471H25.8196C25.0846 20.2471 24.4874 20.8443 24.4874 21.5793V29.5625C24.4874 30.2975 25.0846 30.8947 25.8196 30.8947H25.8163Z" stroke="#2A3539" stroke-linecap="round" stroke-linejoin="round"/>
<path d="M23.142 23.7971H17.2981C16.5631 23.7971 15.9659 24.3943 15.9659 25.1293V33.1126C15.9659 33.8476 16.5631 34.4448 17.2981 34.4448H19.0733V37.3651C19.0733 37.7588 19.5523 37.959 19.8313 37.6801L23.0666 34.4448H26.6136C27.3486 34.4448 27.9458 33.8476 27.9458 33.1126V32.1249" stroke="#2A3539" stroke-linecap="round" stroke-linejoin="round"/>
<path d="M19.2434 31.3913L21.35 26.6663L23.637 31.3913" stroke="#2A3539" stroke-linecap="round" stroke-linejoin="round"/>
<path d="M20.2019 29.7014H22.781" stroke="#2A3539" stroke-linecap="round" stroke-linejoin="round"/>
<path d="M28.9296 23.4412H33.986" stroke="#2A3539" stroke-linecap="round" stroke-linejoin="round"/>
<path d="M31.4596 22.7849V23.2377" stroke="#2A3539" stroke-linecap="round" stroke-linejoin="round"/>
<path d="M32.8902 28.4313C31.3546 27.5388 30.5277 25.9999 30.1438 25.0483" stroke="#2A3539" stroke-linecap="round" stroke-linejoin="round"/>
<path d="M29.7628 28.4311C31.4264 27.4664 32.2533 25.7405 32.5945 24.825C32.6536 24.6609 32.7028 24.4969 32.7455 24.3262L32.9522 23.4961" stroke="#2A3539" stroke-linecap="round" stroke-linejoin="round"/>
</svg>
