<svg width="42" height="42" viewBox="0 0 42 42" fill="none" xmlns="http://www.w3.org/2000/svg">
<path d="M34.1986 21.3301C33.5622 21.2152 35.7963 20.5624 35.7963 20.5624L33.6339 20.1063L35.4679 19.8175L37.194 19.5451L37.3153 19.1514C35.7007 18.9775 33.2693 18.715 33.2466 18.715C33.2238 18.715 35.5432 18.2816 37.6665 17.9964L37.7353 17.7735C38.3852 15.6438 37.1613 13.3863 35.0777 12.8747L13.5696 7.60427C11.5618 7.11194 9.55976 8.44077 9.13684 10.5478L8.03084 16.0469C9.91092 15.9815 11.6568 16.6045 12.1031 16.5818C12.1428 16.5783 12.1754 16.5754 12.1918 16.5754C12.2279 16.5754 12.1918 16.5754 12.1031 16.5818C11.5915 16.6343 9.36317 17.0053 7.78176 17.2707L7.70651 17.6481C8.49401 17.6971 8.97001 17.7566 9.11117 17.7531C13.5999 17.6481 8.19592 18.6917 7.42126 19.0592L5.65901 27.6033C5.20634 29.8474 6.73176 32.0034 8.92042 32.2104L29.6416 33.7131C31.3578 33.877 32.9491 33.4442 33.4741 31.7315L36.5879 21.5331C35.6727 21.4742 34.5568 21.3954 34.1992 21.3295L34.1986 21.3301Z" fill="#FFD5DA"/>
<path d="M33.6312 15.3755L36.4347 30.3543C36.6622 31.5688 35.8619 32.7378 34.6474 32.9648L11.674 37.2645C10.4595 37.492 9.2905 36.6917 9.06358 35.4772L6.26241 20.5112C6.144 19.88 6.30325 19.2284 6.69816 18.7221L16.3902 6.31518C17.0891 5.42034 18.3479 5.19109 19.318 5.78201L32.597 13.8763C33.1389 14.2065 33.5146 14.7513 33.6318 15.3749L33.6312 15.3755Z" fill="white"/>
<path d="M33.4481 14.3978L36.4977 30.6908C36.5199 30.8093 36.4417 30.923 36.3233 30.9452L11.3427 35.6206C11.002 35.6842 10.6742 35.4602 10.6106 35.1195L7.83742 20.3028C7.77908 19.9902 7.85783 19.667 8.05383 19.4162L18.9178 5.53809L33.4481 14.3978Z" fill="#FF9BA7"/>
<path d="M29.9493 6.4126L6.58618 10.7666L8.48668 20.965L18.0108 26.9016L21.0161 22.9034L24.8906 25.3149L31.8276 16.4891L29.9498 6.41318L29.9493 6.4126Z" fill="white"/>
<path d="M28.9214 7.6936L8.33386 11.5302L10.2845 21.9993L17.9869 26.7791L21.0149 22.9029L24.8894 25.3144L30.7904 17.7252L28.9209 7.6936H28.9214Z" fill="#FFF3CD"/>
<path d="M25.5777 21.0753L27.8574 17.0579L38.6502 23.3619L36.1623 27.4628L25.5771 21.0747L25.5777 21.0753Z" fill="#F96073"/>
<path d="M38.6176 28.4193C39.8186 27.353 40.7864 25.0821 40.7864 25.0821L38.6187 23.4097L36.23 27.4434L38.6181 28.4228L38.6176 28.4193Z" fill="white"/>
<path d="M22.2095 16.4133L27.246 16.6776L28.0125 17.0929C28.0125 17.0929 25.4202 21.213 25.4062 21.1377C25.4021 21.1162 24.9092 20.8507 24.9092 20.8507L22.2054 16.4145H22.2089L22.2095 16.4133Z" fill="white"/>
<path d="M23.9742 19.5505C24.0512 19.4058 25.7417 16.4781 25.6618 16.467C25.5813 16.4559 21.9436 16.4028 21.9436 16.4028L23.9742 19.5505Z" fill="#FF9BA7"/>
<path d="M24.1869 37.3035V40.0224" stroke="#F96073" stroke-linecap="round" stroke-linejoin="round"/>
<path d="M22.8276 38.6628H25.5466" stroke="#F96073" stroke-linecap="round" stroke-linejoin="round"/>
<path d="M35.4872 8.70923L37.4098 10.6319" stroke="#F96073" stroke-linecap="round" stroke-linejoin="round"/>
<path d="M35.4872 10.6319L37.4098 8.70923" stroke="#F96073" stroke-linecap="round" stroke-linejoin="round"/>
<path d="M2.44836 13.8232L4.37045 15.7459" stroke="#F96073" stroke-linecap="round" stroke-linejoin="round"/>
<path d="M2.44836 15.7459L4.37045 13.8232" stroke="#F96073" stroke-linecap="round" stroke-linejoin="round"/>
<path d="M23.3188 4.10199C23.948 4.10199 24.4581 3.59193 24.4581 2.96274C24.4581 2.33355 23.948 1.82349 23.3188 1.82349C22.6896 1.82349 22.1796 2.33355 22.1796 2.96274C22.1796 3.59193 22.6896 4.10199 23.3188 4.10199Z" stroke="#FFDA6A" stroke-linecap="round" stroke-linejoin="round"/>
<path d="M37.9757 36.0244C38.6049 36.0244 39.1149 35.5143 39.1149 34.8851C39.1149 34.2559 38.6049 33.7458 37.9757 33.7458C37.3465 33.7458 36.8364 34.2559 36.8364 34.8851C36.8364 35.5143 37.3465 36.0244 37.9757 36.0244Z" stroke="#FFDA6A" stroke-linecap="round" stroke-linejoin="round"/>
<path d="M4.72104 35.3471C5.35023 35.3471 5.86029 34.837 5.86029 34.2079C5.86029 33.5787 5.35023 33.0686 4.72104 33.0686C4.09185 33.0686 3.58179 33.5787 3.58179 34.2079C3.58179 34.837 4.09185 35.3471 4.72104 35.3471Z" stroke="#FFDA6A" stroke-linecap="round" stroke-linejoin="round"/>
<path d="M39.3699 27.6604L40.3819 25.925C40.7547 25.2891 40.5371 24.4655 39.9013 24.0933L27.4524 16.8215L22.0513 16.3799L25.0893 20.8692L37.5382 28.141C38.174 28.5138 38.9977 28.2962 39.3699 27.6604Z" stroke="#2A3539" stroke-linecap="round" stroke-linejoin="round"/>
<path d="M38.5083 23.7166L36.4438 27.2504" stroke="#2A3539" stroke-linecap="round" stroke-linejoin="round"/>
<path d="M25.5466 20.906L27.7131 17.1965" stroke="#2A3539" stroke-linecap="round" stroke-linejoin="round"/>
<path d="M25.3151 16.7668L23.9927 19.0331" stroke="#2A3539" stroke-linecap="round" stroke-linejoin="round"/>
<path d="M35.349 24.1483L26.6299 19.0535" stroke="#2A3539" stroke-linecap="round" stroke-linejoin="round"/>
<path d="M8.47653 20.9206L7.65987 16.538L6.52295 10.4381L29.8872 6.08472L31.8204 16.4529" stroke="#2A3539" stroke-linecap="round" stroke-linejoin="round"/>
<path d="M11.8785 34.5998L21.0153 22.9028L33.3977 30.4512" stroke="#2A3539" stroke-linecap="round" stroke-linejoin="round"/>
<path d="M14.6914 8.49043L16.3907 6.31518C17.0895 5.42034 18.3483 5.19109 19.3184 5.78201L21.5386 7.13534" stroke="#2A3539" stroke-linecap="round" stroke-linejoin="round"/>
<path d="M36.1038 28.5834L36.4351 30.3544C36.6626 31.5689 35.8623 32.7379 34.6478 32.9648L11.6744 37.2645C10.4599 37.492 9.29086 36.6917 9.06395 35.4772L6.26278 20.5112C6.14436 19.88 6.30361 19.2285 6.69853 18.7221L7.17686 18.1096" stroke="#2A3539" stroke-linecap="round" stroke-linejoin="round"/>
<path d="M32.1581 13.6091L32.5967 13.8769C33.1387 14.207 33.5143 14.7519 33.6316 15.3755L34.4517 19.7563" stroke="#2A3539" stroke-linecap="round" stroke-linejoin="round"/>
<path d="M26.7267 23.0002L24.9359 25.2927" stroke="#2A3539" stroke-linecap="round" stroke-linejoin="round"/>
<path d="M31.7357 16.5876L30.9377 17.6091" stroke="#2A3539" stroke-linecap="round" stroke-linejoin="round"/>
<path d="M17.9878 26.779L8.48645 20.9644" stroke="#2A3539" stroke-linecap="round" stroke-linejoin="round"/>
<path d="M11.5116 13.4348L26.4088 10.6465" stroke="#2A3539" stroke-linecap="round" stroke-linejoin="round"/>
<path d="M12.1567 16.88L27.0539 14.0923" stroke="#2A3539" stroke-linecap="round" stroke-linejoin="round"/>
<path d="M12.8014 20.3256L21.286 18.7378" stroke="#2A3539" stroke-linecap="round" stroke-linejoin="round"/>
<path d="M15.7869 23.3328L19.176 22.6987" stroke="#2A3539" stroke-linecap="round" stroke-linejoin="round"/>
</svg>
