<svg width="42" height="42" viewBox="0 0 42 42" fill="none" xmlns="http://www.w3.org/2000/svg">
<path d="M34.3299 20.1568C33.6983 20.0461 35.9155 19.4242 35.9155 19.4242L33.7699 18.9912L35.5899 18.7177L37.3024 18.4605L37.4229 18.0861C35.8211 17.92 33.4085 17.6693 33.3857 17.6693C33.3629 17.6693 35.6648 17.2591 37.7713 16.9856L37.8397 16.774C38.4843 14.7489 37.2699 12.6065 35.2024 12.1214L13.8638 7.11073C11.8713 6.6419 9.88523 7.90515 9.46523 9.90748L8.36803 15.1331C10.2336 15.0712 11.9657 15.6638 12.4085 15.641C12.4476 15.6377 12.4801 15.6345 12.4964 15.6345C12.5322 15.6345 12.4964 15.6345 12.4085 15.641C11.9006 15.6898 9.68989 16.0414 8.12058 16.2954L8.0457 16.6535C8.82709 16.7024 9.29919 16.7545 9.43919 16.7512C13.8931 16.6503 8.53082 17.6433 7.76244 17.9917L6.01407 26.307C5.56477 28.4396 7.07872 30.4875 9.25035 30.6861L29.8108 32.5549C31.5136 32.7112 33.0927 31.6596 33.6136 30.0317L36.7034 20.3424C35.795 20.287 34.688 20.2121 34.3331 20.1503L34.3299 20.1568Z" fill="#FFD5DA"/>
<path d="M8.77779 18.5874C8.77779 18.5874 13.909 18.0632 15.9048 16.0088C15.9048 16.0088 19.4894 18.3009 22.8592 18.5874C22.8592 18.5874 23.6797 22.82 22.3643 27.0232C20.5508 32.8218 15.6801 33.4502 15.6801 33.4502C7.05547 31.3209 8.65733 20.0493 8.78105 18.5874H8.77779Z" fill="white"/>
<path d="M10.0339 19.4016C10.0339 19.4016 14.8395 18.6788 16.6269 16.8392C16.6269 16.8392 19.8404 18.3304 22.8618 18.5876C22.8618 18.5876 23.5455 23.2564 22.3669 27.0234C20.7423 32.2197 15.9074 32.3662 15.9074 32.3662C9.03762 30.0937 9.72459 23.3541 10.0372 19.4048L10.0339 19.4016Z" fill="#FF9BA7"/>
<path d="M25.8573 8.93395C25.8573 8.93395 24.4052 10.1712 24.7048 11.047C25.0043 11.9228 25.6717 11.747 25.6717 11.747H27.075L29.4648 9.57535C29.4648 9.57535 29.5103 8.32837 27.6708 8.32837C25.8313 8.32837 25.8573 8.93069 25.8573 8.93069V8.93395Z" fill="white"/>
<path d="M29.732 9.44503L27.9316 10.7181L27.0753 11.7469L24.3665 11.7599C24.3665 11.7599 26.1409 13.9771 27.5018 13.9218C28.8627 13.8664 28.8302 13.6776 29.4651 12.9157C30.0999 12.1539 29.732 9.44177 29.732 9.44177V9.44503Z" fill="#FFF3CD"/>
<path d="M25.4897 13.495C25.4897 13.495 23.4093 13.6024 22.693 14.3122C21.9767 15.022 21.0455 17.0699 21.1986 17.9294C21.3516 18.7889 22.859 18.5903 22.859 18.5903L23.1097 24.9424L22.2274 28.3024L22.1362 33.8959H28.306L28.2051 21.7908L32.5972 22.5852C32.5972 22.5852 33.473 23.1648 33.6976 22.4094C33.9223 21.6541 34.7037 20.5015 33.9874 20.1662C33.2711 19.8308 30.2953 19.3392 30.2953 19.3392L26.5967 13.9248L25.4865 13.495H25.4897Z" fill="#FFF3CD"/>
<path d="M20.479 23.3508H11.913V26.1541H20.479V23.3508Z" fill="white"/>
<path d="M17.5483 29.0388V20.4728H14.7451V29.0388H17.5483Z" fill="white"/>
<path d="M21.1142 18.2326C21.1305 18.1414 20.6616 14.3321 23.2988 13.7526C25.9361 13.173 26.7923 13.9251 26.7923 13.9251L30.2988 19.3395C30.2988 19.3395 33.9258 19.9581 33.9909 20.5181C34.0561 21.0781 34.0561 22.5791 33.0142 22.5205C31.9723 22.4619 28.6384 22.7354 28.4495 21.8074L28.2086 24.7572H23.0872L23.1849 18.5744L21.1175 18.2358L21.1142 18.2326Z" fill="#FF9BA7"/>
<path d="M6.37698 34.5699C6.98654 34.5699 7.4807 34.0757 7.4807 33.4661C7.4807 32.8566 6.98654 32.3624 6.37698 32.3624C5.76741 32.3624 5.27325 32.8566 5.27325 33.4661C5.27325 34.0757 5.76741 34.5699 6.37698 34.5699Z" stroke="#FFDA6A" stroke-linecap="round" stroke-linejoin="round"/>
<path d="M19.4422 6.08159C20.0518 6.08159 20.5459 5.58743 20.5459 4.97787C20.5459 4.3683 20.0518 3.87415 19.4422 3.87415C18.8327 3.87415 18.3385 4.3683 18.3385 4.97787C18.3385 5.58743 18.8327 6.08159 19.4422 6.08159Z" stroke="#FFDA6A" stroke-linecap="round" stroke-linejoin="round"/>
<path d="M37.5476 29.2303C38.1571 29.2303 38.6513 28.7361 38.6513 28.1265C38.6513 27.517 38.1571 27.0228 37.5476 27.0228C36.938 27.0228 36.4438 27.517 36.4438 28.1265C36.4438 28.7361 36.938 29.2303 37.5476 29.2303Z" stroke="#FFDA6A" stroke-linecap="round" stroke-linejoin="round"/>
<path d="M6.62775 7.8269V10.4609" stroke="#F96073" stroke-linecap="round" stroke-linejoin="round"/>
<path d="M5.30884 9.14502H7.94279" stroke="#F96073" stroke-linecap="round" stroke-linejoin="round"/>
<path d="M37.0954 3.8512L35.2331 5.71352" stroke="#F96073" stroke-linecap="round" stroke-linejoin="round"/>
<path d="M35.2331 3.8512L37.0954 5.71352" stroke="#F96073" stroke-linecap="round" stroke-linejoin="round"/>
<path d="M31.7399 35.9044L29.8776 37.77" stroke="#F96073" stroke-linecap="round" stroke-linejoin="round"/>
<path d="M29.8776 35.9044L31.7399 37.77" stroke="#F96073" stroke-linecap="round" stroke-linejoin="round"/>
<path d="M27.5006 13.9214C29.0452 13.9214 30.2973 12.6692 30.2973 11.1246C30.2973 9.58003 29.0452 8.32788 27.5006 8.32788C25.956 8.32788 24.7039 9.58003 24.7039 11.1246C24.7039 12.6692 25.956 13.9214 27.5006 13.9214Z" stroke="#2A3539" stroke-linecap="round" stroke-linejoin="round"/>
<path d="M27.7678 15.4156L30.2976 19.3096L32.9674 19.9477C33.7227 20.1268 34.1622 20.9115 33.9278 21.6505C33.726 22.2854 33.0878 22.6729 32.4334 22.5622L28.7055 21.9305L25.8599 17.9226" stroke="#2A3539" stroke-linecap="round" stroke-linejoin="round"/>
<path d="M22.1348 28.1267V33.6714" stroke="#2A3539" stroke-linecap="round" stroke-linejoin="round"/>
<path d="M28.2039 23.1807V33.6709" stroke="#2A3539" stroke-linecap="round" stroke-linejoin="round"/>
<path d="M33.6968 22.5817V33.671" stroke="#2A3539" stroke-linecap="round" stroke-linejoin="round"/>
<path d="M15.9033 16.0083C18.2019 18.2125 23.0303 18.5869 23.0303 18.5869V24.0404C23.0303 28.3478 20.2433 32.1767 16.1312 33.4497C15.975 33.4985 15.8317 33.4985 15.6787 33.4497C11.5666 32.1767 8.7796 28.3446 8.7796 24.0404V18.5869C8.7796 18.5869 13.5819 18.2125 15.8903 16.0246L15.9066 16.0083H15.9033Z" stroke="#2A3539" stroke-linecap="round" stroke-linejoin="round"/>
<path d="M11.912 26.082H14.8097V28.9796H17.4795V26.082H20.3772V25.6099" stroke="#2A3539" stroke-linecap="round" stroke-linejoin="round"/>
<path d="M20.3772 23.4121H19.8725H17.4795V20.5144H14.8097V23.4121H11.912V24.3009" stroke="#2A3539" stroke-linecap="round" stroke-linejoin="round"/>
<path d="M24.8934 11.7465H26.899L27.9278 10.7177" stroke="#2A3539" stroke-linecap="round" stroke-linejoin="round"/>
<path d="M21.3501 17.1216V16.2783C21.3501 14.7416 22.5971 13.4946 24.1338 13.4946H24.365" stroke="#2A3539" stroke-linecap="round" stroke-linejoin="round"/>
<path d="M25.0917 28.1267V33.6714" stroke="#2A3539" stroke-linecap="round" stroke-linejoin="round"/>
</svg>
