<svg width="42" height="42" viewBox="0 0 42 42" fill="none" xmlns="http://www.w3.org/2000/svg">
<path d="M33.251 21.8924C32.6193 21.7817 34.8365 21.1598 34.8365 21.1598L32.691 20.7268L34.511 20.4533L36.2235 20.1961L36.344 19.8217C34.7421 19.6556 32.3296 19.4049 32.3068 19.4049C32.284 19.4049 34.5859 18.9947 36.6924 18.7212L36.7607 18.5096C37.4054 16.4845 36.191 14.3421 34.1235 13.857L12.7849 8.84633C10.7924 8.37749 8.80632 9.64075 8.38632 11.6431L7.28911 16.8687C9.15469 16.8068 10.8868 17.3994 11.3296 17.3766C11.3686 17.3733 11.4012 17.3701 11.4175 17.3701C11.4533 17.3701 11.4175 17.3701 11.3296 17.3766C10.8217 17.4254 8.61097 17.777 7.04166 18.031L6.96678 18.3891C7.74818 18.438 8.22027 18.4901 8.36027 18.4868C12.8142 18.3859 7.4519 19.3789 6.68353 19.7273L4.93515 28.0426C4.48585 30.1752 5.9998 32.2231 8.17143 32.4217L28.7319 34.2905C30.4347 34.4468 32.0138 33.3952 32.5347 31.7673L35.6245 22.078C34.7161 22.0226 33.6091 21.9477 33.2542 21.8859L33.251 21.8924Z" fill="#FFD5DA"/>
<path d="M7.14339 13.4786L10.0313 34.3093L34.668 30.9428C34.668 30.9428 31.7573 9.75394 31.6173 9.62045C31.4773 9.48696 7.85642 12.5507 7.85642 12.5507L7.14014 13.4786H7.14339Z" fill="white"/>
<path d="M31.3183 15.0288L8.83038 18.0732L10.837 32.8952L33.3249 29.8508L31.3183 15.0288Z" fill="#FFF3CD"/>
<path d="M10.1671 19.0755L15.4382 18.2485L16.1122 23.4871C16.1122 23.4871 10.9322 24.5062 10.841 24.4671C10.7498 24.4281 10.1671 19.0755 10.1671 19.0755Z" fill="#FF9BA7"/>
<path d="M11.2417 26.5083L11.9905 31.8869L17.1836 31.3041L16.3273 25.8799L11.2417 26.5083Z" fill="#FF9BA7"/>
<path d="M7.81023 12.6971L30.7474 9.7311C31.2358 9.66924 31.6884 9.99808 31.7763 10.4832L32.2126 12.8567C32.307 13.3776 31.9488 13.8725 31.4246 13.9441L8.46465 17.0534C7.96651 17.1218 7.50744 16.7799 7.42604 16.2851L7.01255 13.7716C6.9279 13.2539 7.2893 12.7688 7.80697 12.7037L7.81023 12.6971Z" fill="#FF9BA7"/>
<path d="M23.878 26.3455C23.9691 26.2315 25.9259 23.9492 25.8575 23.9264C25.7891 23.9036 22.618 23.2622 22.618 23.2622L23.878 26.3455Z" fill="#FF9BA7"/>
<path d="M25.0433 27.6612L27.7489 24.8774L35.9242 32.2258L33.1242 35.117L25.0433 27.6612Z" fill="#FF9BA7"/>
<path d="M35.0518 36.3639C36.276 35.6281 37.4936 33.8016 37.4936 33.8016L35.8722 31.9849L33.1243 35.1202L35.0518 36.3672V36.3639Z" fill="white"/>
<path d="M38.7143 25.9809C39.3239 25.9809 39.818 25.4867 39.818 24.8772C39.818 24.2676 39.3239 23.7734 38.7143 23.7734C38.1048 23.7734 37.6106 24.2676 37.6106 24.8772C37.6106 25.4867 38.1048 25.9809 38.7143 25.9809Z" stroke="#FFDA6A" stroke-linecap="round" stroke-linejoin="round"/>
<path d="M3.41799 21.5917C4.02756 21.5917 4.52171 21.0976 4.52171 20.488C4.52171 19.8784 4.02756 19.3843 3.41799 19.3843C2.80842 19.3843 2.31427 19.8784 2.31427 20.488C2.31427 21.0976 2.80842 21.5917 3.41799 21.5917Z" stroke="#FFDA6A" stroke-linecap="round" stroke-linejoin="round"/>
<path d="M22.1326 7.31828C22.7422 7.31828 23.2363 6.82413 23.2363 6.21456C23.2363 5.60499 22.7422 5.11084 22.1326 5.11084C21.523 5.11084 21.0289 5.60499 21.0289 6.21456C21.0289 6.82413 21.523 7.31828 22.1326 7.31828Z" stroke="#FFDA6A" stroke-linecap="round" stroke-linejoin="round"/>
<path d="M11.9773 4.78223L10.1117 6.64455" stroke="#F96073" stroke-linecap="round" stroke-linejoin="round"/>
<path d="M10.1117 4.78223L11.9773 6.64455" stroke="#F96073" stroke-linecap="round" stroke-linejoin="round"/>
<path d="M18.7267 36.3345L16.8611 38.2001" stroke="#F96073" stroke-linecap="round" stroke-linejoin="round"/>
<path d="M16.8611 36.3345L18.7267 38.2001" stroke="#F96073" stroke-linecap="round" stroke-linejoin="round"/>
<path d="M36.4553 10.6919H33.8181" stroke="#F96073" stroke-linecap="round" stroke-linejoin="round"/>
<path d="M35.1357 9.37256V12.0098" stroke="#F96073" stroke-linecap="round" stroke-linejoin="round"/>
<path d="M26.8374 32.1439L10.9001 34.3025C10.3532 34.3774 9.85178 33.9932 9.77689 33.4462L7.1234 13.843C7.04852 13.296 7.43271 12.7946 7.97968 12.7197L30.8192 9.62993C31.3662 9.55505 31.8676 9.93924 31.9425 10.4862L34.3355 28.1653" stroke="#2A3539" stroke-linecap="round" stroke-linejoin="round"/>
<path d="M32.391 13.8105L7.5719 17.1705" stroke="#2A3539" stroke-linecap="round" stroke-linejoin="round"/>
<path d="M27.0552 12.3354L26.1631 12.4559" stroke="#2A3539" stroke-linecap="round" stroke-linejoin="round"/>
<path d="M29.754 11.9712L28.8619 12.0917" stroke="#2A3539" stroke-linecap="round" stroke-linejoin="round"/>
<path d="M24.359 12.7007L23.4669 12.8211" stroke="#2A3539" stroke-linecap="round" stroke-linejoin="round"/>
<path d="M18.6098 13.479L8.90094 14.7944" stroke="#2A3539" stroke-linecap="round" stroke-linejoin="round"/>
<path d="M14.7548 26.085L11.0464 26.5896L11.7757 31.9845L17.1706 31.2519L16.7409 28.084" stroke="#2A3539" stroke-linecap="round" stroke-linejoin="round"/>
<path d="M12.9542 28.5272L14.1816 29.4616L16.4411 25.8574" stroke="#2A3539" stroke-linecap="round" stroke-linejoin="round"/>
<path d="M15.4172 18.3029L10.0226 19.0332L10.753 24.4277L16.1475 23.6974L15.4172 18.3029Z" stroke="#2A3539" stroke-linecap="round" stroke-linejoin="round"/>
<path d="M17.4729 19.7169L29.4608 18.0923" stroke="#2A3539" stroke-linecap="round" stroke-linejoin="round"/>
<path d="M17.7667 21.872L27.6025 20.4883" stroke="#2A3539" stroke-linecap="round" stroke-linejoin="round"/>
<path d="M18.4369 27.0323L22.0443 26.5439" stroke="#2A3539" stroke-linecap="round" stroke-linejoin="round"/>
<path d="M18.7307 29.1913L22.9307 28.6216" stroke="#2A3539" stroke-linecap="round" stroke-linejoin="round"/>
<path d="M35.9079 35.9537L37.0767 34.6025C37.5065 34.1076 37.4511 33.3523 36.9562 32.9225L27.2637 24.529L22.6144 23.2593L24.5353 27.6807L34.2279 36.0742C34.7228 36.5039 35.4781 36.4486 35.9079 35.9537Z" stroke="#2A3539" stroke-linecap="round" stroke-linejoin="round"/>
<path d="M35.185 33.0757L33.4171 35.1171" stroke="#2A3539" stroke-linecap="round" stroke-linejoin="round"/>
<path d="M27.4295 24.9038L24.9291 27.7917" stroke="#2A3539" stroke-linecap="round" stroke-linejoin="round"/>
<path d="M25.4042 24.1348L23.8773 25.8962" stroke="#2A3539" stroke-linecap="round" stroke-linejoin="round"/>
<path d="M32.9676 32.2257L26.1793 26.3457" stroke="#2A3539" stroke-linecap="round" stroke-linejoin="round"/>
</svg>
