<svg width="42" height="42" viewBox="0 0 42 42" fill="none" xmlns="http://www.w3.org/2000/svg">
<path d="M34.0005 20.043C33.3689 19.9323 35.5861 19.3105 35.5861 19.3105L33.4405 18.8774L35.2605 18.6039L36.973 18.3467L37.0935 17.9723C35.4916 17.8063 33.0791 17.5556 33.0563 17.5556C33.0335 17.5556 35.3354 17.1453 37.4419 16.8718L37.5102 16.6602C38.1549 14.6351 36.9405 12.4928 34.873 12.0077L13.5344 6.99696C11.5419 6.52813 9.55583 7.79138 9.13583 9.79371L8.03862 15.0193C9.9042 14.9574 11.6363 15.55 12.0791 15.5272C12.1182 15.5239 12.1507 15.5207 12.167 15.5207C12.2028 15.5207 12.167 15.5207 12.0791 15.5272C11.5712 15.576 9.36048 15.9277 7.79118 16.1816L7.71629 16.5398C8.49769 16.5886 8.96978 16.6407 9.10978 16.6374C13.5637 16.5365 8.20141 17.5295 7.43304 17.8779L5.68466 26.1932C5.23536 28.3258 6.74932 30.3737 8.92094 30.5723L29.4814 32.4412C31.1842 32.5974 32.7633 31.5458 33.2842 29.9179L36.374 20.2286C35.4656 20.1732 34.3586 20.0984 34.0037 20.0365L34.0005 20.043Z" fill="#FFD5DA"/>
<path d="M14.5636 34.2419C18.1185 34.2419 21.0003 30.7173 21.0003 26.3694C21.0003 22.0215 18.1185 18.4968 14.5636 18.4968C11.0087 18.4968 8.12683 22.0215 8.12683 26.3694C8.12683 30.7173 11.0087 34.2419 14.5636 34.2419Z" fill="white"/>
<path d="M14.5634 32.6363C17.2606 32.6363 19.4471 29.8579 19.4471 26.4307C19.4471 23.0034 17.2606 20.2251 14.5634 20.2251C11.8662 20.2251 9.67969 23.0034 9.67969 26.4307C9.67969 29.8579 11.8662 32.6363 14.5634 32.6363Z" fill="#FF9BA7"/>
<path d="M24.0118 34.2453C25.1249 34.2453 26.0272 33.343 26.0272 32.2299C26.0272 31.1169 25.1249 30.2146 24.0118 30.2146C22.8988 30.2146 21.9965 31.1169 21.9965 32.2299C21.9965 33.343 22.8988 34.2453 24.0118 34.2453Z" fill="white"/>
<path d="M34.7751 34.2453C35.8882 34.2453 36.7905 33.343 36.7905 32.2299C36.7905 31.1169 35.8882 30.2146 34.7751 30.2146C33.6621 30.2146 32.7598 31.1169 32.7598 32.2299C32.7598 33.343 33.6621 34.2453 34.7751 34.2453Z" fill="white"/>
<path d="M24.0736 33.3525C24.6939 33.3525 25.1968 32.8496 25.1968 32.2292C25.1968 31.6089 24.6939 31.106 24.0736 31.106C23.4532 31.106 22.9503 31.6089 22.9503 32.2292C22.9503 32.8496 23.4532 33.3525 24.0736 33.3525Z" fill="#FFF3CD"/>
<path d="M34.7751 33.3525C35.3955 33.3525 35.8984 32.8496 35.8984 32.2292C35.8984 31.6089 35.3955 31.106 34.7751 31.106C34.1548 31.106 33.6519 31.6089 33.6519 32.2292C33.6519 32.8496 34.1548 33.3525 34.7751 33.3525Z" fill="#FFF3CD"/>
<path d="M25.0635 10.52H13.3394V14.8503H25.0635V10.52Z" fill="white"/>
<path d="M25.1839 11.7893H14.4528V14.8498H25.1839V11.7893Z" fill="#FF9BA7"/>
<path d="M34.7426 24.321H20.9966L19.0529 20.4336H31.897C33.4696 20.4336 34.7426 21.7066 34.7426 23.2792V24.321Z" fill="white"/>
<path d="M33.8053 24.3994H20.9253L19.4471 21.3748H31.6402C32.8351 21.3748 33.8053 22.3678 33.8053 23.5887V24.3994Z" fill="#FF9BA7"/>
<path d="M17.7242 5.39812C18.3338 5.39812 18.8279 4.90396 18.8279 4.29439C18.8279 3.68483 18.3338 3.19067 17.7242 3.19067C17.1146 3.19067 16.6205 3.68483 16.6205 4.29439C16.6205 4.90396 17.1146 5.39812 17.7242 5.39812Z" stroke="#FFDA6A" stroke-linecap="round" stroke-linejoin="round"/>
<path d="M4.58077 22.4816C5.19034 22.4816 5.68449 21.9875 5.68449 21.3779C5.68449 20.7683 5.19034 20.2742 4.58077 20.2742C3.9712 20.2742 3.47705 20.7683 3.47705 21.3779C3.47705 21.9875 3.9712 22.4816 4.58077 22.4816Z" stroke="#FFDA6A" stroke-linecap="round" stroke-linejoin="round"/>
<path d="M38.2721 26.4274C38.8816 26.4274 39.3758 25.9333 39.3758 25.3237C39.3758 24.7141 38.8816 24.22 38.2721 24.22C37.6625 24.22 37.1683 24.7141 37.1683 25.3237C37.1683 25.9333 37.6625 26.4274 38.2721 26.4274Z" stroke="#FFDA6A" stroke-linecap="round" stroke-linejoin="round"/>
<path d="M35.7062 7.2019L33.8439 9.06749" stroke="#F96073" stroke-linecap="round" stroke-linejoin="round"/>
<path d="M33.8439 7.2019L35.7062 9.06749" stroke="#F96073" stroke-linecap="round" stroke-linejoin="round"/>
<path d="M6.29985 10.7898H3.66589" stroke="#F96073" stroke-linecap="round" stroke-linejoin="round"/>
<path d="M4.98096 9.47095V12.1049" stroke="#F96073" stroke-linecap="round" stroke-linejoin="round"/>
<path d="M29.7548 37.1292L27.8925 35.2668" stroke="#F96073" stroke-linecap="round" stroke-linejoin="round"/>
<path d="M29.7548 35.2668L27.8925 37.1292" stroke="#F96073" stroke-linecap="round" stroke-linejoin="round"/>
<path d="M8.44214 7.15625H11.597C12.4598 7.15625 13.1598 7.85625 13.1598 8.71904V17.5325" stroke="#2A3539" stroke-linecap="round" stroke-linejoin="round"/>
<path d="M20.5148 7.15625H23.6697C24.5324 7.15625 25.2324 7.85625 25.2324 8.71904V20.2935" stroke="#2A3539" stroke-linecap="round" stroke-linejoin="round"/>
<path d="M13.1631 10.4673C13.2282 10.578 25.2356 10.4673 25.2356 10.4673" stroke="#2A3539" stroke-linecap="round" stroke-linejoin="round"/>
<path d="M13.3386 14.8499H22.8749" stroke="#2A3539" stroke-linecap="round" stroke-linejoin="round"/>
<path d="M20.7361 20.4336V14.8499" stroke="#2A3539" stroke-linecap="round" stroke-linejoin="round"/>
<path d="M25.2325 14.8499H33.766" stroke="#2A3539" stroke-linecap="round" stroke-linejoin="round"/>
<path d="M31.6271 20.1015V14.8499" stroke="#2A3539" stroke-linecap="round" stroke-linejoin="round"/>
<path d="M8.93371 22.5727C10.0439 20.2122 12.1407 18.6201 14.5435 18.6201C18.1053 18.6201 20.9965 22.1169 20.9965 26.4308C20.9965 30.7448 18.1086 34.2415 14.5435 34.2415C10.9784 34.2415 8.09045 30.7448 8.09045 26.4308C8.09045 25.8285 8.1458 25.2424 8.25324 24.6792" stroke="#2A3539" stroke-linecap="round" stroke-linejoin="round"/>
<path d="M18.8347 20.4338H31.6463C33.3752 20.4338 34.7752 21.8338 34.7752 23.5627V30.2143" stroke="#2A3539" stroke-linecap="round" stroke-linejoin="round"/>
<path d="M22.8752 24.2429H34.7752" stroke="#2A3539" stroke-linecap="round" stroke-linejoin="round"/>
<path d="M24.0116 24.2429V30.2141" stroke="#2A3539" stroke-linecap="round" stroke-linejoin="round"/>
<path d="M24.0117 34.2446C25.1247 34.2446 26.027 33.3423 26.027 32.2292C26.027 31.1162 25.1247 30.2139 24.0117 30.2139C22.8986 30.2139 21.9963 31.1162 21.9963 32.2292C21.9963 33.3423 22.8986 34.2446 24.0117 34.2446Z" stroke="#2A3539" stroke-linecap="round" stroke-linejoin="round"/>
<path d="M34.775 34.2446C35.888 34.2446 36.7903 33.3423 36.7903 32.2292C36.7903 31.1162 35.888 30.2139 34.775 30.2139C33.6619 30.2139 32.7596 31.1162 32.7596 32.2292C32.7596 33.3423 33.6619 34.2446 34.775 34.2446Z" stroke="#2A3539" stroke-linecap="round" stroke-linejoin="round"/>
</svg>
