<svg width="42" height="42" viewBox="0 0 42 42" fill="none" xmlns="http://www.w3.org/2000/svg">
<path d="M33.9353 21.1609C33.3037 21.0502 35.5209 20.4284 35.5209 20.4284L33.3753 19.9954L35.1953 19.7219L36.9079 19.4647L37.0283 19.0902C35.4265 18.9242 33.0139 18.6735 32.9911 18.6735C32.9683 18.6735 35.2702 18.2633 37.3767 17.9898L37.4451 17.7781C38.0897 15.753 36.8753 13.6107 34.8079 13.1256L13.4692 8.11488C11.4767 7.64605 9.49064 8.9093 9.07064 10.9116L7.97343 16.1372C9.83901 16.0753 11.5711 16.6679 12.0139 16.6451C12.053 16.6419 12.0855 16.6386 12.1018 16.6386C12.1376 16.6386 12.1018 16.6386 12.0139 16.6451C11.506 16.694 9.29529 17.0456 7.72599 17.2995L7.65111 17.6577C8.4325 17.7065 8.9046 17.7586 9.0446 17.7553C13.4985 17.6544 8.13622 18.6474 7.36785 18.9958L5.61948 27.3112C5.17018 29.4437 6.68413 31.4916 8.85576 31.6902L29.4162 33.5591C31.119 33.7154 32.6981 32.6637 33.219 31.0358L36.3088 21.3465C35.4004 21.2912 34.2934 21.2163 33.9385 21.1544L33.9353 21.1609Z" fill="#FFD5DA"/>
<path d="M34.1077 39.0614C34.7173 39.0614 35.2115 38.5673 35.2115 37.9577C35.2115 37.3482 34.7173 36.854 34.1077 36.854C33.4982 36.854 33.004 37.3482 33.004 37.9577C33.004 38.5673 33.4982 39.0614 34.1077 39.0614Z" stroke="#FFDA6A" stroke-linecap="round" stroke-linejoin="round"/>
<path d="M3.2297 25.2338C3.83927 25.2338 4.33342 24.7397 4.33342 24.1301C4.33342 23.5205 3.83927 23.0264 3.2297 23.0264C2.62013 23.0264 2.12598 23.5205 2.12598 24.1301C2.12598 24.7397 2.62013 25.2338 3.2297 25.2338Z" stroke="#FFDA6A" stroke-linecap="round" stroke-linejoin="round"/>
<path d="M28.0031 7.4965C28.6127 7.4965 29.1069 7.00235 29.1069 6.39278C29.1069 5.78322 28.6127 5.28906 28.0031 5.28906C27.3936 5.28906 26.8994 5.78322 26.8994 6.39278C26.8994 7.00235 27.3936 7.4965 28.0031 7.4965Z" stroke="#FFDA6A" stroke-linecap="round" stroke-linejoin="round"/>
<path d="M9.05105 4.85596L7.18872 6.72154" stroke="#F96073" stroke-linecap="round" stroke-linejoin="round"/>
<path d="M7.18872 4.85596L9.05105 6.72154" stroke="#F96073" stroke-linecap="round" stroke-linejoin="round"/>
<path d="M13.925 34.0703L12.0594 35.9326" stroke="#F96073" stroke-linecap="round" stroke-linejoin="round"/>
<path d="M12.0594 34.0703L13.925 35.9326" stroke="#F96073" stroke-linecap="round" stroke-linejoin="round"/>
<path d="M35.8171 9.29346H33.1799" stroke="#F96073" stroke-linecap="round" stroke-linejoin="round"/>
<path d="M34.4985 7.9751V10.6123" stroke="#F96073" stroke-linecap="round" stroke-linejoin="round"/>
<path d="M35.687 27.4285C35.5828 27.4122 35.4786 27.4057 35.3777 27.409C35.5405 23.2513 32.3954 19.4778 27.9317 18.7225C23.4744 17.9671 19.2679 20.4871 18.047 24.4527C17.9884 24.4364 17.9298 24.4201 17.8679 24.4104C16.9075 24.2476 15.9796 25.0127 15.7907 26.1164C15.6019 27.2201 16.2303 28.249 17.1875 28.4118C17.4154 28.4508 17.64 28.4346 17.8517 28.3792C18.5419 31.736 21.3744 34.5262 25.1447 35.1643C28.9344 35.8057 32.5484 34.0801 34.2935 31.1076C34.4986 31.2704 34.7396 31.3876 35.0098 31.4332C35.9703 31.596 36.8982 30.8308 37.087 29.7271C37.2758 28.6234 36.6475 27.5946 35.6903 27.4318L35.687 27.4285Z" fill="white"/>
<path d="M35.7683 27.4904C35.6641 27.4741 35.7065 27.1323 35.6055 27.1355C35.7293 23.2058 31.5553 19.2467 29.0972 19.0546C17.9265 18.1918 14.0455 32.4751 26.4697 34.5783C30.2595 35.2197 32.5776 33.9011 34.2934 31.1076C34.5018 31.2639 34.6809 31.443 34.9479 31.4886C35.9083 31.6514 36.7874 31.1695 36.9632 30.1276C37.139 29.0858 36.7255 27.6532 35.7683 27.4904Z" fill="#FFF3CD"/>
<path d="M23.2139 19.1032C23.2139 19.1032 22.6832 18.6409 22.7906 18.2469C22.999 17.4688 23.8813 17.2637 23.8813 17.2637C23.8813 17.2637 23.6632 16.4888 23.7576 16.2348C23.9106 15.8181 25.1413 15.206 25.926 15.6976C26.7106 16.1893 27.1501 16.7623 27.1501 16.7623C27.1501 16.7623 27.9283 16.1632 28.4362 16.5181C28.9441 16.873 29.2436 17.0423 29.2436 17.0423C29.2436 17.0423 30.9301 16.4302 31.4283 16.6646C31.9264 16.899 32.6036 16.7753 32.6427 17.2572C32.6818 17.739 32.3301 18.579 32.3301 18.579C32.3301 18.579 33.3394 19.4321 33.0822 19.7804C32.8087 20.1516 32.2194 20.6497 32.2194 20.6497C32.2194 20.6497 30.2855 19.1879 28.1529 18.7353C26.0204 18.286 23.2204 19.0967 23.2204 19.0967L23.2139 19.1032Z" fill="white"/>
<path d="M23.9236 18.9143C23.9236 18.9143 23.7315 18.7678 23.598 18.3804C23.4939 18.0808 23.9301 17.8757 24.3078 17.7553C24.578 17.6706 24.7311 17.3906 24.6594 17.1171C24.5846 16.8274 24.4022 16.619 24.565 16.3683C24.9101 15.8311 25.6069 16.4367 26.3883 16.9283C27.1697 17.4199 27.046 17.3613 27.046 17.3613C27.046 17.3613 27.606 15.9841 28.7325 16.492C29.2957 16.746 29.4064 16.9706 29.4064 16.9706C29.4064 16.9706 30.8064 16.225 31.3046 16.4562C31.8027 16.6873 32.6232 17.1204 32.6622 17.6055C32.7013 18.0906 32.3204 18.6115 32.3204 18.6115C32.3204 18.6115 33.0887 19.4287 32.9292 19.8325C32.7339 20.3274 32.3008 20.7408 32.3008 20.7408C32.3008 20.7408 30.6176 19.2725 28.4818 18.8232C26.346 18.3739 23.9269 18.9143 23.9269 18.9143H23.9236Z" fill="#FF9BA7"/>
<path d="M24.0279 15.1084C24.1841 16.4922 24.0018 17.8368 23.5525 19.0577C23.1293 20.2038 21.2507 19.8717 20.4041 20.741C19.3883 21.7829 17.8711 24.3777 17.8711 24.3777C17.3958 24.5177 16.9009 24.6187 16.393 24.674C11.6427 25.208 7.36135 21.7894 6.8274 17.0424C6.29344 12.2922 9.71205 8.01076 14.459 7.47681C19.2093 6.94286 23.4907 10.3615 24.0246 15.1084H24.0279Z" fill="white"/>
<path d="M23.1846 15.1441C23.3507 16.619 23.0804 18.0418 22.4781 19.2887C22.4781 19.2887 21.6967 19.4027 20.2056 20.8808C18.5907 22.4794 18.4018 23.0622 18.4018 23.0622C17.8028 23.2966 17.1614 23.4562 16.4907 23.5311C12.3265 23.9999 8.57254 21.0013 8.1037 16.8371C7.63486 12.6729 10.6335 8.91897 14.7977 8.45014C18.9618 7.9813 22.7158 10.9799 23.1846 15.1441Z" fill="#FFF3CD"/>
<path d="M7.32882 19.152C8.53537 19.152 9.51347 18.1739 9.51347 16.9674C9.51347 15.7608 8.53537 14.7827 7.32882 14.7827C6.12227 14.7827 5.14417 15.7608 5.14417 16.9674C5.14417 18.1739 6.12227 19.152 7.32882 19.152Z" fill="white"/>
<path d="M7.94739 18.6765C9.03166 18.6765 9.91064 17.7975 9.91064 16.7133C9.91064 15.629 9.03166 14.75 7.94739 14.75C6.86311 14.75 5.98413 15.629 5.98413 16.7133C5.98413 17.7975 6.86311 18.6765 7.94739 18.6765Z" fill="#FFF3CD"/>
<path d="M26.4045 15.3459C26.4273 15.5478 26.4208 15.7432 26.3915 15.9352C26.297 16.5245 26.4045 15.3459 24.4445 15.5869C23.2626 15.7334 24.1938 16.9901 23.8161 17.0325C23.4384 17.0748 23.7412 17.7487 23.4124 17.6152C22.6961 17.3222 22.1556 16.658 22.0612 15.8343C21.9277 14.6362 22.7905 13.5552 23.9887 13.4185C25.1868 13.2818 26.2677 14.1478 26.4045 15.3459Z" fill="white"/>
<path d="M12.1962 7.41165C12.0432 6.0377 13.046 4.79397 14.4362 4.6377Z" fill="white"/>
<path d="M25.3334 14.9162C25.353 15.0855 25.353 15.2548 25.3334 15.4176C25.3334 15.4176 23.4125 15.2124 23.8846 17.2604C23.9172 17.4069 22.9079 17.7845 22.7614 17.7715C21.7358 17.6836 21.0716 16.4692 20.9511 15.4078C20.8144 14.1966 21.6869 13.1059 22.8948 12.9692C24.106 12.8324 25.1967 13.705 25.3334 14.9129V14.9162Z" fill="#FFF3CD"/>
<path d="M15.2273 12.0218C16.8312 12.0218 18.1315 10.7215 18.1315 9.11756C18.1315 7.51363 16.8312 6.21338 15.2273 6.21338C13.6234 6.21338 12.3231 7.51363 12.3231 9.11756C12.3231 10.7215 13.6234 12.0218 15.2273 12.0218Z" fill="#FF9BA7"/>
<path d="M27.3455 18.53C27.0232 18.2631 26.8474 17.8333 26.9223 17.3905C27.033 16.7263 27.6614 16.2803 28.3255 16.3942C28.9897 16.5082 29.4358 17.1333 29.3218 17.7975C29.286 18.0124 29.1948 18.2012 29.0679 18.3575" stroke="#2A3539" stroke-linecap="round" stroke-linejoin="round"/>
<path d="M17.5454 25.3315C18.7696 20.8287 23.2366 17.905 27.9347 18.6994C32.6329 19.4938 35.8529 23.6808 35.5663 28.304" stroke="#2A3539" stroke-linecap="round" stroke-linejoin="round"/>
<path d="M35.6445 27.4413C36.631 27.6074 37.2789 28.6427 37.0901 29.7497C36.9013 30.8567 35.9506 31.6218 34.9641 31.4557L34.3943 31.205C32.3366 34.0376 28.7878 35.6232 25.0989 34.9981C21.4655 34.3827 18.6622 31.7846 17.6138 28.4995L17.1906 28.4474C16.2041 28.2813 15.5562 27.246 15.745 26.139C15.9338 25.032 16.7934 24.3418 17.7245 24.4167" stroke="#2A3539" stroke-linecap="round" stroke-linejoin="round"/>
<path d="M29.413 20.6235C29.973 21.7174 29.1298 23.9737 27.2674 23.7914C24.9656 23.5667 24.9167 21.9128 25.2912 21.19C25.9749 19.8714 28.2116 20.0472 28.0065 21.864" stroke="#2A3539" stroke-linecap="round" stroke-linejoin="round"/>
<path d="M23.6138 26.6723C23.6948 26.1936 23.4688 25.7562 23.1089 25.6952C22.749 25.6343 22.3915 25.9729 22.3104 26.4516C22.2294 26.9303 22.4555 27.3678 22.8154 27.4287C23.1753 27.4896 23.5327 27.151 23.6138 26.6723Z" stroke="#2A3539" stroke-linecap="round" stroke-linejoin="round"/>
<path d="M30.7058 27.8744C30.7868 27.3958 30.5608 26.9583 30.2009 26.8974C29.841 26.8364 29.4835 27.1751 29.4025 27.6538C29.3214 28.1325 29.5475 28.5699 29.9074 28.6308C30.2673 28.6918 30.6248 28.3531 30.7058 27.8744Z" stroke="#2A3539" stroke-linecap="round" stroke-linejoin="round"/>
<path d="M23.7479 30.4009C24.2754 31.3516 25.9977 32.6018 27.9349 31.2246" stroke="#2A3539" stroke-linecap="round" stroke-linejoin="round"/>
<path d="M27.0947 16.7005C27.0947 16.7005 26.0561 15.4145 24.8157 15.4959C24.1482 15.5415 23.3506 16.2675 23.9171 17.2378C23.9171 17.2378 21.9864 17.6154 23.2138 19.1001" stroke="#2A3539" stroke-linecap="round" stroke-linejoin="round"/>
<path d="M29.3999 17.0914C29.3999 17.0914 30.8064 16.2188 31.9492 16.7039C32.5646 16.9677 33.079 17.9151 32.2227 18.6444C32.2227 18.6444 33.9222 19.6342 32.2748 20.6337" stroke="#2A3539" stroke-linecap="round" stroke-linejoin="round"/>
<path d="M13.707 20.155C14.5828 21.4606 17.2689 22.128 18.4052 19.8262" stroke="#2A3539" stroke-linecap="round" stroke-linejoin="round"/>
<path d="M11.8055 16.9966L11.8902 17.9994" stroke="#2A3539" stroke-linecap="round" stroke-linejoin="round"/>
<path d="M19.8671 16.313L19.9517 17.319" stroke="#2A3539" stroke-linecap="round" stroke-linejoin="round"/>
<path d="M12.6978 8.36865C9.88803 9.38447 7.7978 11.8068 7.20199 14.7273C7.19873 14.7468 7.19548 14.7663 7.18896 14.7859" stroke="#2A3539" stroke-linecap="round" stroke-linejoin="round"/>
<path d="M23.6503 13.4054C22.6801 10.8366 20.5215 8.88636 17.894 8.16357" stroke="#2A3539" stroke-linecap="round" stroke-linejoin="round"/>
<path d="M17.8256 24.7486C17.347 24.8756 16.8521 24.9635 16.3409 25.0058C12.4242 25.3379 8.9014 22.9872 7.57954 19.4807H7.56651C6.27721 19.5914 5.14419 18.6342 5.03349 17.3449C4.92279 16.0556 5.88 14.9226 7.16931 14.8119C7.91489 14.75 8.60838 15.0431 9.08047 15.551" stroke="#2A3539" stroke-linecap="round" stroke-linejoin="round"/>
<path d="M22.1331 14.5159C22.5075 13.894 23.1651 13.4578 23.9433 13.3894C24.0963 13.3764 24.2461 13.3796 24.3926 13.3959C24.3926 13.3959 25.7503 13.5033 26.1377 14.5159" stroke="#2A3539" stroke-linecap="round" stroke-linejoin="round"/>
<path d="M14.6675 7.82179C16.6991 6.96551 16.7512 10.9539 14.0294 10.2409C12.1833 9.75574 12.2159 6.20039 14.9996 6.21341C19.7922 6.23946 18.0991 12.966 14.6154 12.4516" stroke="#2A3539" stroke-linecap="round" stroke-linejoin="round"/>
</svg>
