<svg width="42" height="42" viewBox="0 0 42 42" fill="none" xmlns="http://www.w3.org/2000/svg">
<path d="M34.194 18.9887C33.5574 18.8772 35.792 18.2504 35.792 18.2504L33.6296 17.814L35.4638 17.5384L37.1898 17.2792L37.3112 16.9018C35.6968 16.7345 33.2654 16.4818 33.2424 16.4818C33.2195 16.4818 35.5393 16.0684 37.6623 15.7928L37.7312 15.5795C38.3809 13.5386 37.157 11.3795 35.0734 10.8906L13.5681 5.84075C11.5599 5.36825 9.55837 6.64137 9.13509 8.65934L8.02931 13.9257C9.90946 13.8634 11.6551 14.4606 12.1013 14.4376C12.1407 14.4343 12.1735 14.4311 12.1899 14.4311C12.226 14.4311 12.1899 14.4311 12.1013 14.4376C11.5895 14.4868 9.36149 14.8412 7.77993 15.0972L7.70446 15.4581C8.49196 15.5073 8.96774 15.5598 9.10884 15.5565C13.5976 15.4548 8.19337 16.4556 7.41899 16.8067L5.65696 25.187C5.20415 27.3362 6.72993 29.4001 8.91853 29.6003L29.6396 31.4837C31.3557 31.6412 32.9471 30.5814 33.4721 28.9407L36.586 19.1757C35.6706 19.12 34.5549 19.0445 34.1973 18.9822L34.194 18.9887Z" fill="#FFD5DA"/>
<path d="M4.36084 14.536L21.594 8.44604L38.5252 14.5951L21.443 20.7015L4.36084 14.536Z" fill="white"/>
<path d="M6.34937 15.2545L20.4883 10.2571C21.1905 10.0077 21.9616 10.011 22.6605 10.267L36.5336 15.307L21.4431 20.7046L6.34937 15.2577V15.2545Z" fill="#FF9BA7"/>
<path d="M9.66016 16.4491V31.8644C9.66016 31.8644 11.9308 34.1547 17.0102 34.578C22.0895 35.0013 27.4577 34.4271 28.5864 34.0661C29.7152 33.7052 33.7675 31.5035 33.7675 31.5035C33.7675 31.5035 33.0784 16.8658 33.2392 16.4852C33.4 16.1046 9.66016 16.4491 9.66016 16.4491Z" fill="#FF9BA7"/>
<path d="M9.66016 24.5798C9.75531 24.6028 14.7133 28.058 21.4398 27.907C28.1664 27.7561 33.5411 24.7439 33.5411 24.7439L33.5181 28.4255C33.5181 28.4255 27.9137 31.7362 21.1511 31.3917C14.3884 31.0472 9.66016 27.907 9.66016 27.907V24.5798Z" fill="#FFF3CD"/>
<path d="M38.1575 24.7312C38.1444 24.7575 36.3167 29.4103 36.3496 29.4103C36.366 29.4103 38.3117 31.2609 38.3117 31.2609C38.3117 31.2609 40.2805 29.4299 40.2739 29.4103C40.2608 29.3742 38.1542 24.7312 38.1542 24.7312H38.1575Z" fill="#FFF3CD"/>
<path d="M12.0719 25.8795L9.66016 24.7212V16.4492L12.0719 17.322V25.8795Z" fill="white"/>
<path d="M12.0719 33.111L9.66016 31.9527V28.281L12.0719 29.4951V33.111Z" fill="white"/>
<path d="M9.27273 6.74609L7.39258 8.62625" stroke="#F96073" stroke-width="1.4" stroke-linecap="round" stroke-linejoin="round"/>
<path d="M7.39258 6.74609L9.27273 8.62625" stroke="#F96073" stroke-width="1.4" stroke-linecap="round" stroke-linejoin="round"/>
<path d="M6.34937 31.0171V33.6716" stroke="#F96073" stroke-width="1.4" stroke-linecap="round" stroke-linejoin="round"/>
<path d="M5.02393 32.3462H7.67846" stroke="#F96073" stroke-width="1.4" stroke-linecap="round" stroke-linejoin="round"/>
<path d="M35.0969 33.3992V36.057" stroke="#F96073" stroke-width="1.4" stroke-linecap="round" stroke-linejoin="round"/>
<path d="M33.7676 34.7285H36.4254" stroke="#F96073" stroke-width="1.4" stroke-linecap="round" stroke-linejoin="round"/>
<path d="M31.8186 7.9698C32.433 7.9698 32.931 7.47179 32.931 6.85746C32.931 6.24313 32.433 5.74512 31.8186 5.74512C31.2043 5.74512 30.7063 6.24313 30.7063 6.85746C30.7063 7.47179 31.2043 7.9698 31.8186 7.9698Z" stroke="#FFDA6A" stroke-width="1.4" stroke-linecap="round" stroke-linejoin="round"/>
<path d="M4.88285 21.4261C5.49718 21.4261 5.9952 20.9281 5.9952 20.3138C5.9952 19.6994 5.49718 19.2014 4.88285 19.2014C4.26852 19.2014 3.77051 19.6994 3.77051 20.3138C3.77051 20.9281 4.26852 21.4261 4.88285 21.4261Z" stroke="#FFDA6A" stroke-width="1.4" stroke-linecap="round" stroke-linejoin="round"/>
<path d="M38.6924 14.5942L22.844 20.0772C21.9351 20.3922 20.9507 20.3922 20.0418 20.0772L4.19336 14.5942L20.0418 9.11125C20.9507 8.79625 21.9351 8.79625 22.844 9.11125L38.6924 14.5942Z" stroke="#2A3539" stroke-width="1.4" stroke-linecap="round" stroke-linejoin="round"/>
<path d="M9.66016 16.6616V31.8637C15.9208 35.7683 26.5619 36.3262 33.528 31.8637V16.8454" stroke="#2A3539" stroke-width="1.4" stroke-linecap="round" stroke-linejoin="round"/>
<path d="M9.66016 24.7668C15.9208 28.6715 26.5619 29.2293 33.528 24.7668" stroke="#2A3539" stroke-width="1.4" stroke-linecap="round" stroke-linejoin="round"/>
<path d="M9.66016 28.1199C15.9208 32.0246 26.5619 32.5824 33.528 28.1199" stroke="#2A3539" stroke-width="1.4" stroke-linecap="round" stroke-linejoin="round"/>
<path d="M38.2993 15.021V24.4054" stroke="#2A3539" stroke-width="1.4" stroke-linecap="round" stroke-linejoin="round"/>
<path d="M38.2991 24.4053L36.2024 29.1828L38.2991 31.414L40.3958 29.1828L38.2991 24.4053Z" stroke="#2A3539" stroke-width="1.4" stroke-linecap="round" stroke-linejoin="round"/>
</svg>
