<svg width="44" height="46" viewBox="0 0 44 46" fill="none" xmlns="http://www.w3.org/2000/svg">
<g filter="url(#filter0_d_2432_9897)">
<path d="M34.3298 20.1568C33.6982 20.0461 35.9154 19.4242 35.9154 19.4242L33.7698 18.9912L35.5898 18.7177L37.3024 18.4605L37.4228 18.0861C35.821 17.92 33.4084 17.6693 33.3856 17.6693C33.3628 17.6693 35.6647 17.2591 37.7712 16.9856L37.8396 16.774C38.4842 14.7489 37.2698 12.6065 35.2024 12.1214L13.8638 7.11073C11.8712 6.6419 9.88517 7.90515 9.46517 9.90748L8.36796 15.1331C10.2335 15.0712 11.9656 15.6638 12.4084 15.641C12.4475 15.6377 12.4801 15.6345 12.4963 15.6345C12.5322 15.6345 12.4963 15.6345 12.4084 15.641C11.9005 15.6898 9.68983 16.0414 8.12052 16.2954L8.04564 16.6535C8.82703 16.7024 9.29913 16.7545 9.43913 16.7512C13.8931 16.6503 8.53076 17.6433 7.76238 17.9917L6.01401 26.307C5.56471 28.4396 7.07866 30.4875 9.25029 30.6861L29.8108 32.5549C31.5135 32.7112 33.0926 31.6596 33.6135 30.0317L36.7033 20.3424C35.7949 20.287 34.688 20.2121 34.3331 20.1503L34.3298 20.1568Z" fill="#FFD5DA"/>
<path d="M12.5066 33.3304C12.5066 33.3304 12.9852 28.4108 13.2034 27.548C13.4215 26.6852 14.6685 22.5764 16.1076 21.3945C17.5466 20.2127 18.6829 16.208 18.6829 16.208C18.6829 16.208 18.3215 16.1364 17.9536 15.4006C17.5857 14.6648 17.602 13.0922 17.602 13.0922C17.602 13.0922 18.3606 9.05175 20.4573 8.36477C22.5541 7.6778 24.3415 7.21547 25.0643 7.79175C25.7871 8.36803 26.7345 10.3899 26.7345 10.3899L30.1304 10.4517C30.1304 10.4517 30.8662 13.3299 28.7499 13.7206C26.6336 14.1113 25.6048 13.5806 25.0643 14.8699C24.5238 16.1592 25.5787 21.0006 25.5787 21.0006L24.5662 21.388L23.8499 23.0224L24.8657 23.9504L24.8722 26.1611L23.8499 26.7504L24.8885 29.2834L24.628 33.669L12.5001 33.3304H12.5066Z" fill="white"/>
<path d="M13.6626 33.3306C13.6626 33.3306 14.0598 24.3609 17.5761 21.5576C19.0347 20.3953 19.8389 16.2083 19.8389 16.2083C19.8389 16.2083 19.4775 16.1367 19.1096 15.4009C18.7417 14.6651 18.8524 6.92924 26.077 8.97389C26.9691 9.22785 26.7412 10.3934 26.7412 10.3934L30.137 10.4553C30.137 10.4553 30.1826 13.7013 28.0696 14.092C25.9566 14.4827 25.6114 13.5874 25.071 14.8734C24.5305 16.1595 25.6179 20.2813 25.6179 20.2813L25.7286 21.3916L25.0124 23.026L26.0282 23.9539L26.0347 26.1646L25.0124 26.7539L26.051 29.2869L25.7905 33.6725L13.6626 33.3339V33.3306Z" fill="#FFF3CD"/>
<path d="M34.236 24.9371C34.236 24.5659 34.1904 24.2078 34.109 23.8594L35.47 23.0748L34.1123 20.7241L32.7644 21.5022C32.2337 20.9943 31.5858 20.6069 30.863 20.3887V18.8455H28.1509V20.3822C27.4216 20.5971 26.7672 20.9813 26.23 21.4924L24.8983 20.7241L23.5406 23.0748L24.8723 23.8431C24.7909 24.1948 24.742 24.5594 24.742 24.9338C24.742 25.3083 24.7941 25.6924 24.8788 26.0538L23.5406 26.8287L24.8983 29.1794L26.2495 28.398C26.7834 28.8962 27.4281 29.2771 28.1509 29.4887V31.0548H30.863V29.4789C31.576 29.2641 32.2174 28.8831 32.7448 28.385L34.1155 29.1762L35.4732 26.8255L34.1058 26.0376C34.1904 25.6827 34.2393 25.3148 34.2393 24.9338L34.236 24.9371ZM29.5053 26.9882C28.382 26.9882 27.4704 26.0766 27.4704 24.9534C27.4704 23.8301 28.382 22.9185 29.5053 22.9185C30.6286 22.9185 31.5402 23.8301 31.5402 24.9534C31.5402 26.0766 30.6286 26.9882 29.5053 26.9882Z" fill="#FF9BA7"/>
<path d="M6.37777 36.507C6.98734 36.507 7.48149 36.0128 7.48149 35.4033C7.48149 34.7937 6.98734 34.2996 6.37777 34.2996C5.7682 34.2996 5.27405 34.7937 5.27405 35.4033C5.27405 36.0128 5.7682 36.507 6.37777 36.507Z" stroke="#FFDA6A" stroke-linecap="round" stroke-linejoin="round"/>
<path d="M38.3739 30.2948C38.9834 30.2948 39.4776 29.8007 39.4776 29.1911C39.4776 28.5816 38.9834 28.0874 38.3739 28.0874C37.7643 28.0874 37.2701 28.5816 37.2701 29.1911C37.2701 29.8007 37.7643 30.2948 38.3739 30.2948Z" stroke="#FFDA6A" stroke-linecap="round" stroke-linejoin="round"/>
<path d="M17.6307 5.22832C18.2403 5.22832 18.7344 4.73416 18.7344 4.1246C18.7344 3.51503 18.2403 3.02087 17.6307 3.02087C17.0211 3.02087 16.527 3.51503 16.527 4.1246C16.527 4.73416 17.0211 5.22832 17.6307 5.22832Z" stroke="#FFDA6A" stroke-linecap="round" stroke-linejoin="round"/>
<path d="M6.37805 10.6918V13.329" stroke="#F96073" stroke-linecap="round" stroke-linejoin="round"/>
<path d="M5.06299 12.01H7.69694" stroke="#F96073" stroke-linecap="round" stroke-linejoin="round"/>
<path d="M36.1653 7.64771L34.303 9.51003" stroke="#F96073" stroke-linecap="round" stroke-linejoin="round"/>
<path d="M34.303 7.64771L36.1653 9.51003" stroke="#F96073" stroke-linecap="round" stroke-linejoin="round"/>
<path d="M30.4358 35.5758L28.5735 37.4414" stroke="#F96073" stroke-linecap="round" stroke-linejoin="round"/>
<path d="M28.5735 35.5758L30.4358 37.4414" stroke="#F96073" stroke-linecap="round" stroke-linejoin="round"/>
<path d="M25.3694 19.4009C24.9364 17.2162 24.6011 15.7739 25.4606 14.4488C25.8057 13.9148 27.935 14.2339 28.5276 13.8692C29.1201 13.5046 30.2271 12.6939 30.1359 10.4506L26.7401 10.3888C26.7401 10.3888 27.0397 8.20087 24.129 7.73203C18.2522 6.78459 16.6048 14.0516 18.0829 15.1976C18.7373 15.7023 22.068 16.6171 22.5857 11.2125" stroke="#2A3539" stroke-linecap="round" stroke-linejoin="round"/>
<path d="M27.4269 33.4694H24.6334V30.8517" stroke="#2A3539" stroke-linecap="round" stroke-linejoin="round"/>
<path d="M24.575 9.92993V10.6625" stroke="#2A3539" stroke-linecap="round" stroke-linejoin="round"/>
<path d="M18.6848 16.2037C18.4243 17.4507 17.7601 19.6223 16.1094 21.3902C12.4303 25.3298 12.5052 33.4693 12.5052 33.4693C5.56057 33.4693 4.15406 23.8028 11.0401 22.4907" stroke="#2A3539" stroke-linecap="round" stroke-linejoin="round"/>
<path d="M25.0698 17.8346C25.0698 17.8346 22.9633 19.1825 18.3075 17.6002" stroke="#2A3539" stroke-linecap="round" stroke-linejoin="round"/>
<path d="M17.575 25.053C17.575 25.053 23.2694 26.0297 19.727 33.326" stroke="#2A3539" stroke-linecap="round" stroke-linejoin="round"/>
<path d="M22.5374 33.4691H15.0555" stroke="#2A3539" stroke-linecap="round" stroke-linejoin="round"/>
<path d="M24.7405 25.0398C24.7405 24.6621 24.7894 24.2975 24.8708 23.9491L23.5391 23.1807L24.8968 20.83L26.2284 21.5984C26.7657 21.0905 27.4201 20.703 28.1494 20.4882V18.9514H30.8615V20.4947C31.5843 20.7128 32.2322 21.1003 32.7629 21.6082L34.1108 20.83L35.4684 23.1807L34.1075 23.9654C34.1889 24.3105 34.2345 24.6719 34.2345 25.043C34.2345 25.4142 34.1857 25.7919 34.101 26.1468L35.4684 26.9347L34.1108 29.2854L32.7401 28.4942C32.2126 28.9923 31.5712 29.3733 30.8582 29.5882V31.164H28.1461V29.5979C27.4266 29.3863 26.7787 29.0086 26.2447 28.5072L24.8936 29.2886L23.5359 26.9379L24.874 26.163C24.7861 25.8049 24.7373 25.4305 24.7373 25.043L24.7405 25.0398Z" stroke="#2A3539" stroke-linecap="round" stroke-linejoin="round"/>
<path d="M29.5045 27.0878C30.6283 27.0878 31.5394 26.1768 31.5394 25.053C31.5394 23.9291 30.6283 23.0181 29.5045 23.0181C28.3807 23.0181 27.4696 23.9291 27.4696 25.053C27.4696 26.1768 28.3807 27.0878 29.5045 27.0878Z" stroke="#2A3539" stroke-linecap="round" stroke-linejoin="round"/>
</g>
<defs>
<filter id="filter0_d_2432_9897" x="-4" y="0" width="50" height="50" filterUnits="userSpaceOnUse" color-interpolation-filters="sRGB">
<feFlood flood-opacity="0" result="BackgroundImageFix"/>
<feColorMatrix in="SourceAlpha" type="matrix" values="0 0 0 0 0 0 0 0 0 0 0 0 0 0 0 0 0 0 127 0" result="hardAlpha"/>
<feOffset dy="4"/>
<feGaussianBlur stdDeviation="2"/>
<feComposite in2="hardAlpha" operator="out"/>
<feColorMatrix type="matrix" values="0 0 0 0 0 0 0 0 0 0 0 0 0 0 0 0 0 0 0.25 0"/>
<feBlend mode="normal" in2="BackgroundImageFix" result="effect1_dropShadow_2432_9897"/>
<feBlend mode="normal" in="SourceGraphic" in2="effect1_dropShadow_2432_9897" result="shape"/>
</filter>
</defs>
</svg>
