<svg width="72" height="72" viewBox="0 0 72 72" fill="none" xmlns="http://www.w3.org/2000/svg">
<path d="M58.6171 32.5521C57.5259 32.3608 61.3565 31.2865 61.3565 31.2865L57.6496 30.5383L60.794 30.0658L63.7528 29.6215L63.9609 28.9746C61.1934 28.6877 57.0253 28.2546 56.9859 28.2546C56.9465 28.2546 60.9234 27.5458 64.5628 27.0733L64.6809 26.7077C65.7946 23.209 63.6965 19.5077 60.1246 18.6696L23.2584 10.0127C19.8159 9.20271 16.3846 11.3852 15.659 14.8446L13.7634 23.8727C16.9865 23.7658 19.979 24.7896 20.744 24.7502C20.8115 24.7446 20.8678 24.739 20.8959 24.739C20.9578 24.739 20.8959 24.739 20.744 24.7502C19.8665 24.8346 16.0471 25.4421 13.3359 25.8808L13.2065 26.4996C14.5565 26.584 15.3721 26.674 15.614 26.6683C23.309 26.494 14.0446 28.2096 12.7171 28.8115L9.69652 43.1777C8.92027 46.8621 11.5359 50.4002 15.2878 50.7433L50.8096 53.9721C53.7515 54.2421 56.4796 52.4252 57.3796 49.6127L62.7178 32.8727C61.1484 32.7771 59.2359 32.6477 58.6228 32.5408L58.6171 32.5521Z" fill="#FFD5DA"/>
<path d="M49.6778 18.0679L39.3278 35.0891C38.5516 36.2029 37.1453 36.6979 35.8403 36.3266L17.1316 29.6272" fill="white"/>
<path d="M13.6972 26.92L50.6099 13.8413C51.7923 13.4223 53.092 14.042 53.5109 15.2243L62.2163 39.794C62.6352 40.9763 62.0156 42.276 60.8332 42.6949L23.9205 55.7737C22.7381 56.1926 21.4384 55.5729 21.0195 54.3906L12.3141 29.821C11.8952 28.6386 12.5148 27.3389 13.6972 26.92Z" fill="white"/>
<path d="M52.5699 13.7136L62.2168 39.8024L25.4011 52.0199C24.2199 52.4418 22.9149 51.8174 22.4986 50.6361L14.2186 26.7355L52.5643 13.7136H52.5699Z" fill="#FFF3CD"/>
<path d="M32.3833 9.85132L29.1658 13.0688" stroke="#F96073" stroke-width="1.40625" stroke-linecap="round" stroke-linejoin="round"/>
<path d="M29.1658 9.85132L32.3833 13.0688" stroke="#F96073" stroke-width="1.40625" stroke-linecap="round" stroke-linejoin="round"/>
<path d="M60.6708 51.3574V55.908" stroke="#F96073" stroke-width="1.40625" stroke-linecap="round" stroke-linejoin="round"/>
<path d="M58.3923 53.6309H62.9486" stroke="#F96073" stroke-width="1.40625" stroke-linecap="round" stroke-linejoin="round"/>
<path d="M15.1652 53.4668V58.023" stroke="#F96073" stroke-width="1.40625" stroke-linecap="round" stroke-linejoin="round"/>
<path d="M12.8867 55.7454H17.443" stroke="#F96073" stroke-width="1.40625" stroke-linecap="round" stroke-linejoin="round"/>
<path d="M59.3048 13.6651C60.358 13.6651 61.2117 12.8113 61.2117 11.7582C61.2117 10.7051 60.358 9.85132 59.3048 9.85132C58.2517 9.85132 57.3979 10.7051 57.3979 11.7582C57.3979 12.8113 58.2517 13.6651 59.3048 13.6651Z" stroke="#FFDA6A" stroke-width="1.40625" stroke-linecap="round" stroke-linejoin="round"/>
<path d="M10.2769 19.9763C11.33 19.9763 12.1837 19.1226 12.1837 18.0695C12.1837 17.0163 11.33 16.1626 10.2769 16.1626C9.22373 16.1626 8.37 17.0163 8.37 18.0695C8.37 19.1226 9.22373 19.9763 10.2769 19.9763Z" stroke="#FFDA6A" stroke-width="1.40625" stroke-linecap="round" stroke-linejoin="round"/>
<path d="M41.7819 62.2762C42.835 62.2762 43.6887 61.4224 43.6887 60.3693C43.6887 59.3161 42.835 58.4624 41.7819 58.4624C40.7287 58.4624 39.875 59.3161 39.875 60.3693C39.875 61.4224 40.7287 62.2762 41.7819 62.2762Z" stroke="#FFDA6A" stroke-width="1.40625" stroke-linecap="round" stroke-linejoin="round"/>
<path d="M49.6796 18.0686L39.3296 35.0899C38.5533 36.2036 37.1471 36.6986 35.8421 36.3274L17.1333 29.628" stroke="#2A3539" stroke-width="1.40625" stroke-linecap="round" stroke-linejoin="round"/>
<path d="M13.6989 26.9207L50.6116 13.842C51.794 13.4231 53.0937 14.0427 53.5126 15.2251L62.218 39.7947C62.6369 40.977 62.0173 42.2767 60.8349 42.6957L23.9222 55.7744C22.7398 56.1933 21.4401 55.5737 21.0212 54.3913L12.3158 29.8217C11.8969 28.6394 12.5166 27.3397 13.6989 26.9207Z" stroke="#2A3539" stroke-width="1.40625" stroke-linecap="round" stroke-linejoin="round"/>
<path d="M24.8292 51.3559L33.503 35.4878" stroke="#2A3539" stroke-width="1.40625" stroke-linecap="round" stroke-linejoin="round"/>
<path d="M57.3971 39.8533L40.6177 32.9683" stroke="#2A3539" stroke-width="1.40625" stroke-linecap="round" stroke-linejoin="round"/>
</svg>
