<svg width="42" height="42" viewBox="0 0 42 42" fill="none" xmlns="http://www.w3.org/2000/svg">
<path d="M34.2013 21.706C33.5654 21.5893 35.7996 20.936 35.7996 20.936L33.6354 20.481L35.4671 20.1951L37.1938 19.921L37.3163 19.5301C35.7004 19.3551 33.2679 19.0926 33.2446 19.0926C33.2213 19.0926 35.5429 18.661 37.6663 18.3751L37.7363 18.1535C38.3838 16.0243 37.1646 13.7668 35.0763 13.2535L13.5688 7.98012C11.5621 7.49012 9.56125 8.81429 9.13542 10.926L8.02709 16.4268C9.90542 16.3626 11.6554 16.9868 12.0988 16.9635C12.1396 16.9635 12.1688 16.9576 12.1863 16.9576C12.2213 16.9576 12.1863 16.9576 12.0988 16.9635C11.5854 17.016 9.35709 17.3893 7.77625 17.6518L7.70042 18.031C8.48792 18.0776 8.96625 18.1418 9.10625 18.136C13.5921 18.031 8.19042 19.0751 7.41459 19.4426L5.65292 27.9885C5.19792 30.2343 6.72625 32.3868 8.91375 32.5968L29.6338 34.1018C31.3488 34.2651 32.9413 33.8335 33.4663 32.1185L36.5813 21.9218C35.6654 21.8635 34.5513 21.7818 34.1896 21.7176L34.2013 21.706Z" fill="#FFD5DA"/>
<path d="M33.3551 31.3133H22.0034C21.4026 31.3133 15.4351 22.8958 15.4351 22.8958V8.30079C15.4351 7.69996 15.9251 7.20996 16.5259 7.20996H33.3551C33.9559 7.20996 34.4459 7.69996 34.4459 8.30079V30.2225C34.4459 30.8233 33.9559 31.3133 33.3551 31.3133Z" fill="white"/>
<path d="M33.1451 31.3017H22.5518L16.4851 23.5258V9.35084C16.4851 8.75001 16.9751 8.26001 17.5759 8.26001H33.1451C33.7459 8.26001 34.2359 8.75001 34.2359 9.35084V30.205C34.2359 30.8058 33.7459 31.2958 33.1451 31.2958V31.3017Z" fill="#FFF3CD"/>
<path d="M24.9377 27.7958C28.6909 27.7958 31.7335 24.7532 31.7335 20.9999C31.7335 17.2467 28.6909 14.2041 24.9377 14.2041C21.1844 14.2041 18.1418 17.2467 18.1418 20.9999C18.1418 24.7532 21.1844 27.7958 24.9377 27.7958Z" fill="#FF9BA7"/>
<path d="M27.6968 20.8191C27.6968 19.9616 27.9593 19.1624 28.4026 18.4974C27.6559 17.3891 26.3901 16.6599 24.9551 16.6599C22.6626 16.6599 20.8018 18.5207 20.8018 20.8132C20.8018 23.1057 22.6626 24.9666 24.9551 24.9666C26.3901 24.9666 27.6559 24.2374 28.4026 23.1291C27.9534 22.4641 27.6968 21.6707 27.6968 20.8074V20.8191Z" fill="white"/>
<path d="M26.4485 36.6799H7.79348C7.39681 36.6799 7.11098 36.3007 7.21598 35.9215L7.78765 33.874H26.6176L27.2651 35.4549C27.5043 36.0382 27.0726 36.6799 26.4426 36.6799H26.4485Z" fill="#FFF3CD"/>
<path d="M18.3227 23.1292C12.8335 19.5883 5.57683 22.3592 5.57683 22.3592L3.61683 29.8492C3.61683 29.8492 3.50017 30.9458 4.276 31.1383C7.45517 31.9317 7.7935 33.8683 7.7935 33.8683L26.5827 33.7867C26.5827 33.7867 23.8177 26.67 18.3285 23.1233L18.3227 23.1292ZM7.006 28.7992L7.89267 24.6283C7.89267 24.6283 10.2435 23.6833 12.7227 24.08C15.4702 24.5175 17.891 26.6408 18.0485 28.7817L7.006 28.805V28.7992Z" fill="white"/>
<path d="M17.3893 24.0332C13.1951 21.4024 5.30261 23.3799 5.30261 23.3799L3.63428 30.0766C3.63428 30.0766 3.81511 31.1966 4.52094 31.3716C7.43178 32.1007 7.74094 33.8682 7.74094 33.8682L24.9434 33.7924C24.9434 33.7924 22.4526 27.2066 17.3834 24.0332H17.3893ZM7.00594 28.7991L7.80511 24.8557C7.80511 24.8557 10.4418 23.7999 12.7226 24.0799C16.3159 24.5232 17.9026 26.8216 18.0484 28.7816L7.00594 28.8049V28.7991Z" fill="#FF9BA7"/>
<path d="M4.53825 34.9358C4.53825 34.3291 4.04242 33.8333 3.43575 33.8333C2.82325 33.8333 2.33325 34.3291 2.33325 34.9358C2.33325 35.5424 2.82909 36.0383 3.43575 36.0383C4.04242 36.0383 4.53825 35.5424 4.53825 34.9358Z" stroke="#FFDA6A" stroke-linecap="round" stroke-linejoin="round"/>
<path d="M38.6864 31.3134C38.6864 30.7068 38.1906 30.2109 37.5839 30.2109C36.9773 30.2109 36.4814 30.7068 36.4814 31.3134C36.4814 31.9259 36.9773 32.4159 37.5839 32.4159C38.1906 32.4159 38.6864 31.9201 38.6864 31.3134Z" stroke="#FFDA6A" stroke-linecap="round" stroke-linejoin="round"/>
<path d="M17.3073 3.45333C17.3073 2.84666 16.8115 2.35083 16.2048 2.35083C15.5981 2.35083 15.1023 2.84666 15.1023 3.45333C15.1023 4.06 15.5981 4.55583 16.2048 4.55583C16.8115 4.55583 17.3073 4.06 17.3073 3.45333Z" stroke="#FFDA6A" stroke-linecap="round" stroke-linejoin="round"/>
<path d="M38.0156 7.02905L36.1489 5.16821" stroke="#F96073" stroke-linecap="round" stroke-linejoin="round"/>
<path d="M36.1548 7.02905L38.0215 5.16821" stroke="#F96073" stroke-linecap="round" stroke-linejoin="round"/>
<path d="M32.6838 38.9199L30.8171 37.0591" stroke="#F96073" stroke-linecap="round" stroke-linejoin="round"/>
<path d="M30.8171 38.9199L32.6838 37.0591" stroke="#F96073" stroke-linecap="round" stroke-linejoin="round"/>
<path d="M6.4455 12.1157H3.80884" stroke="#F96073" stroke-linecap="round" stroke-linejoin="round"/>
<path d="M5.1272 13.4343V10.7976" stroke="#F96073" stroke-linecap="round" stroke-linejoin="round"/>
<path d="M15.5046 19.8041V8.2541C15.5046 7.6766 15.9713 7.2041 16.5546 7.2041H33.3255C33.903 7.2041 34.3755 7.67077 34.3755 8.2541V30.2633C34.3755 30.8408 33.9088 31.3133 33.3255 31.3133H27.3871" stroke="#2A3539" stroke-linecap="round" stroke-linejoin="round"/>
<path d="M18.1472 20.2476C18.4389 16.7534 21.3672 14.0117 24.9372 14.0117C28.6997 14.0117 31.7505 17.0626 31.7505 20.8251C31.7505 24.5876 28.9214 27.4109 25.3455 27.6267" stroke="#2A3539" stroke-linecap="round" stroke-linejoin="round"/>
<path d="M15.5046 11.3982H31.7505" stroke="#2A3539" stroke-linecap="round" stroke-linejoin="round"/>
<path d="M18.1238 9.3042H20.7429" stroke="#2A3539" stroke-linecap="round" stroke-linejoin="round"/>
<path d="M27.5563 20.825C27.5563 19.9559 27.9121 19.1684 28.4838 18.5967C27.7429 17.4184 26.4304 16.6309 24.9371 16.6309C22.6213 16.6309 20.7429 18.5092 20.7429 20.825C20.7429 23.1409 22.6213 25.0192 24.9371 25.0192C26.4304 25.0192 27.7429 24.2317 28.4838 23.0534C27.9121 22.4817 27.5563 21.6942 27.5563 20.825Z" stroke="#2A3539" stroke-linecap="round" stroke-linejoin="round"/>
<path d="M30.9863 9.3042H31.7505" stroke="#2A3539" stroke-linecap="round" stroke-linejoin="round"/>
<path d="M29.1838 9.3042H29.948" stroke="#2A3539" stroke-linecap="round" stroke-linejoin="round"/>
<path d="M27.3872 9.3042H28.1514" stroke="#2A3539" stroke-linecap="round" stroke-linejoin="round"/>
<path d="M26.6231 33.8741C19.9148 20.6966 14.3848 20.3058 6.03143 22.1316C5.63476 22.2191 5.31976 22.5341 5.23226 22.9308L3.63976 30.0766C3.50559 30.6658 3.87309 31.2491 4.43309 31.3541C6.01976 31.6458 7.38476 32.6083 7.79309 33.9091L26.6231 33.8741Z" stroke="#2A3539" stroke-linecap="round" stroke-linejoin="round"/>
<path d="M18.0481 28.7758C17.2723 23.2575 9.66559 23.345 7.79892 24.85L6.99976 28.7933" stroke="#2A3539" stroke-linecap="round" stroke-linejoin="round"/>
<path d="M7.78734 33.909L7.19817 35.9682C7.09317 36.324 7.36734 36.6799 7.73484 36.6799L26.8448 36.4932C27.2357 36.4932 27.504 36.0907 27.3582 35.729L26.6173 33.874" stroke="#2A3539" stroke-linecap="round" stroke-linejoin="round"/>
<path d="M7.00562 28.7992L18.0481 28.7759" stroke="#2A3539" stroke-linecap="round" stroke-linejoin="round"/>
<path d="M10.1672 26.425L13.3231 26.4192" stroke="#2A3539" stroke-linecap="round" stroke-linejoin="round"/>
</svg>
