<svg width="30" height="20" viewBox="0 0 30 20" fill="none" xmlns="http://www.w3.org/2000/svg">
<mask id="mask0_6_8410" style="mask-type:luminance" maskUnits="userSpaceOnUse" x="0" y="0" width="30" height="20">
<path d="M26.087 20H3.47826C1.55739 20 0 18.4426 0 16.5217V3.47826C0 1.55739 1.55739 0 3.47826 0H26.087C28.0078 0 29.5652 1.55739 29.5652 3.47826V16.5217C29.5652 18.4426 28.0078 20 26.087 20Z" fill="white"/>
</mask>
<g mask="url(#mask0_6_8410)">
<path d="M29.5652 10H0V20H29.5652V10Z" fill="#FDC30E"/>
<g opacity="0.1">
<path d="M29.1304 -3.18587e-05V9.99997H0.434783V-3.18587e-05H29.1304ZM29.5652 -0.434814H0V10.4348H29.5652V-0.434814Z" fill="white"/>
</g>
<path d="M29.5652 0H0V10H29.5652V0Z" fill="#4893CF"/>
<g opacity="0.15">
<path d="M30.4348 -0.869661V9.56512H-0.869539V-0.869661H30.4348ZM30.8696 -1.30444H-1.30432V9.9999H30.8696V-1.30444Z" fill="black"/>
</g>
<g opacity="0.1">
<path d="M29.1304 3.47826V16.5217C29.1304 18.2022 27.7678 19.5652 26.087 19.5652H3.47826C1.79739 19.5652 0.434783 18.2022 0.434783 16.5217V3.47826C0.434783 1.79696 1.79739 0.434783 3.47826 0.434783H26.087C27.7683 0.434783 29.1304 1.79696 29.1304 3.47826ZM3.47826 0C1.55739 0 0 1.55739 0 3.47826V16.5217C0 18.4426 1.55739 20 3.47826 20H26.087C28.0078 20 29.5652 18.4426 29.5652 16.5217V3.47826C29.5652 1.55739 28.0078 0 26.087 0H3.47826Z" fill="black"/>
</g>
</g>
</svg>
