<svg width="30" height="20" viewBox="0 0 30 20" fill="none" xmlns="http://www.w3.org/2000/svg">
<mask id="mask0_6_8404" style="mask-type:luminance" maskUnits="userSpaceOnUse" x="0" y="0" width="30" height="20">
<path d="M26.087 20H3.47826C1.55739 20 0 18.4426 0 16.5217V3.47826C0 1.55739 1.55739 0 3.47826 0H26.087C28.0078 0 29.5652 1.55739 29.5652 3.47826V16.5217C29.5652 18.4426 28.0078 20 26.087 20Z" fill="white"/>
</mask>
<g mask="url(#mask0_6_8404)">
<path d="M29.5652 0H0V6.52174H29.5652V0Z" fill="white"/>
<path d="M29.5652 13.4783H0V20H29.5652V13.4783Z" fill="#EE4423"/>
<path d="M29.5652 6.52173H0V13.4783H29.5652V6.52173Z" fill="#3876BB"/>
<path d="M9.93782 15.8605C9.81043 15.8222 6.80869 14.9061 5.47999 13.1761C3.98521 11.2291 4.57825 6.97046 5.44956 4.70481L5.50304 4.56567H14.4978L14.5513 4.70481C15.4226 6.97046 16.0152 11.2296 14.5209 13.1761C13.1922 14.9061 10.1904 15.8222 10.063 15.8605L10.0004 15.8796L9.93782 15.8605Z" fill="#EE4423"/>
<path d="M14.3478 4.78268C15.1839 6.9566 15.7861 11.1705 14.3478 13.0436C13.047 14.7375 10 15.6522 10 15.6522C10 15.6522 6.95306 14.7375 5.65219 13.0436C4.21393 11.1705 4.81611 6.9566 5.65219 4.78268H10H14.3478ZM14.6465 4.3479H14.3478H10H5.65219H5.35349L5.24611 4.62661C4.35698 6.93791 3.76176 11.2962 5.30741 13.3088C6.69741 15.1192 9.86828 16.0875 10 16.0875H10.0639L10.1248 16.0692C10.2548 16.0301 13.3222 15.0936 14.6926 13.3088C16.2383 11.2962 15.6431 6.93834 14.7539 4.62661L14.6465 4.3479Z" fill="white"/>
<path d="M14.0526 13.3832C12.6439 14.861 10.0004 15.6528 10.0004 15.6528C10.0004 15.6528 7.35694 14.8615 5.94824 13.3832C6.25694 12.9137 6.78781 12.6093 7.39172 12.6093C7.75259 12.6093 8.08737 12.718 8.36563 12.9093C8.60041 12.2306 9.23955 11.7397 10.0004 11.7397C10.7613 11.7397 11.4004 12.2311 11.6352 12.9093C11.9139 12.718 12.2482 12.6093 12.6091 12.6093C13.213 12.6089 13.7439 12.9137 14.0526 13.3832Z" fill="#3876BB"/>
<path d="M12.2588 9.00053C11.914 9.08662 11.5601 9.13052 11.204 9.13052H10.4348V7.8327C10.7561 7.84009 11.077 7.87792 11.3888 7.95618L12.6088 8.26096V6.52183L11.3888 6.82662C11.1057 6.89749 10.8157 6.93184 10.524 6.94488L10.8696 5.21704H9.1305L9.47615 6.94488C9.18441 6.93184 8.89441 6.89749 8.61137 6.82662L7.39137 6.52183V8.26096L8.61137 7.95618C8.92354 7.87792 9.24397 7.83966 9.56528 7.8327V9.13052H8.79616C8.4405 9.13052 8.08614 9.08662 7.74136 9.00053L6.52136 8.69574V10.4349L7.74136 10.1301C8.08614 10.044 8.44007 10.0001 8.79616 10.0001H9.56528V11.7392H10.4348V10.0001H11.204C11.5596 10.0001 11.914 10.044 12.2588 10.1301L13.4788 10.4349V8.69574L12.2588 9.00053Z" fill="white"/>
<g opacity="0.1">
<path d="M29.1304 3.47826V16.5217C29.1304 18.2026 27.7678 19.5652 26.087 19.5652H3.47826C1.79739 19.5652 0.434783 18.2026 0.434783 16.5217V3.47826C0.434783 1.79739 1.79739 0.434783 3.47826 0.434783H26.087C27.7683 0.434783 29.1304 1.79739 29.1304 3.47826ZM3.47826 0C1.55739 0 0 1.55739 0 3.47826V16.5217C0 18.4426 1.55739 20 3.47826 20H26.087C28.0078 20 29.5652 18.4426 29.5652 16.5217V3.47826C29.5652 1.55739 28.0078 0 26.087 0H3.47826Z" fill="black"/>
</g>
</g>
</svg>
