<svg width="30" height="20" viewBox="0 0 30 20" fill="none" xmlns="http://www.w3.org/2000/svg">
<mask id="mask0_6_8403" style="mask-type:luminance" maskUnits="userSpaceOnUse" x="0" y="0" width="30" height="20">
<path d="M26.087 20H3.47826C1.55739 20 0 18.4426 0 16.5217V3.47826C0 1.55739 1.55783 0 3.47826 0H26.087C28.0078 0 29.5652 1.55739 29.5652 3.47826V16.5217C29.5652 18.443 28.0078 20 26.087 20Z" fill="white"/>
</mask>
<g mask="url(#mask0_6_8403)">
<path d="M29.5649 10H-0.000366211V20H29.5649V10Z" fill="#EF4D29"/>
<g opacity="0.1">
<path d="M29.1304 -3.17693e-05V9.99997H0.434783V-3.17693e-05H29.1304ZM29.5652 -0.434814H0V10.4348H29.5652V-0.434814Z" fill="white"/>
</g>
<path d="M29.5649 0H-0.000366211V10H29.5649V0Z" fill="white"/>
<g opacity="0.15">
<path d="M30.4348 -0.869661V9.56512H-0.869538V-0.869661H30.4348ZM30.8696 -1.30444H-1.30432V9.99991H30.8696V-1.30444Z" fill="black"/>
</g>
<path d="M14.7827 10L-0.000366211 20V0L14.7827 10Z" fill="#3876BB"/>
<g opacity="0.1">
<path d="M29.1304 3.47826V16.5217C29.1304 18.2026 27.7674 19.5652 26.087 19.5652H3.47826C1.79696 19.5652 0.434783 18.2026 0.434783 16.5217V3.47826C0.434783 1.79739 1.79696 0.434783 3.47826 0.434783H26.087C27.7674 0.434783 29.1304 1.79739 29.1304 3.47826ZM3.47826 0C1.55739 0 0 1.55739 0 3.47826V16.5217C0 18.4426 1.55783 20 3.47826 20H26.087C28.0078 20 29.5652 18.4426 29.5652 16.5217V3.47826C29.5652 1.55739 28.0078 0 26.087 0H3.47826Z" fill="black"/>
</g>
</g>
</svg>
