<svg width="30" height="20" viewBox="0 0 30 20" fill="none" xmlns="http://www.w3.org/2000/svg">
<mask id="mask0_6_8405" style="mask-type:luminance" maskUnits="userSpaceOnUse" x="0" y="0" width="30" height="20">
<path d="M26.087 20H3.47826C1.55739 20 0 18.4426 0 16.5217V3.47826C0 1.55739 1.55739 0 3.47826 0H26.087C28.0078 0 29.5652 1.55739 29.5652 3.47826V16.5217C29.5652 18.4426 28.0078 20 26.087 20Z" fill="white"/>
</mask>
<g mask="url(#mask0_6_8405)">
<path d="M29.5992 0H0.0339355V20H29.5992V0Z" fill="#3485C6"/>
<path d="M16.9139 10.1917L31.7383 0.989258L29.6745 -2.33526L14.8501 6.86717L16.9139 10.1917Z" fill="white"/>
<path d="M12.7212 10.1612L14.7849 6.83667L-0.0394953 -2.36577L-2.10323 0.958753L12.7212 10.1612Z" fill="white"/>
<path d="M29.6775 22.334L31.7412 19.0095L16.9168 9.80708L14.8531 13.1316L29.6775 22.334Z" fill="white"/>
<path d="M-0.0437678 22.3655L14.7806 13.1631L12.7169 9.83856L-2.10751 19.041L-0.0437678 22.3655Z" fill="white"/>
<path d="M29.5992 7.82609H16.9905V0H12.6426V7.82609H0.0339355V12.1739H12.6426V20H16.9905V12.1739H29.5992V7.82609Z" fill="#F05A37"/>
<path d="M29.9588 0.554219L29.2709 -0.553955L16.6628 7.27266L17.3507 8.38083L29.9588 0.554219Z" fill="#F05A37"/>
<path d="M12.3009 8.36525L12.9888 7.25708L0.380709 -0.569533L-0.307204 0.538641L12.3009 8.36525Z" fill="#F05A37"/>
<path d="M17.3328 11.635L16.6449 12.7432L29.253 20.5698L29.9409 19.4616L17.3328 11.635Z" fill="#F05A37"/>
<path d="M-0.32512 19.4438L0.362793 20.552L12.9709 12.7254L12.283 11.6172L-0.32512 19.4438Z" fill="#F05A37"/>
<path d="M18.2948 6.52174V0H16.9905V6.52174V7.82609H18.2948H29.5992V6.52174H18.2948Z" fill="white"/>
<path d="M11.3383 0V6.52174H0.0339355V7.82609H11.3383H12.6426V6.52174V0H11.3383Z" fill="white"/>
<path d="M29.5992 12.1738H18.2948H16.9905V13.4782V19.9999H18.2948V13.4782H29.5992V12.1738Z" fill="white"/>
<path d="M11.3383 12.1738H0.0339355V13.4782H11.3383V19.9999H12.6426V13.4782V12.1738H11.3383Z" fill="white"/>
<g opacity="0.1">
<path d="M29.1304 3.47826V16.5217C29.1304 18.2022 27.7678 19.5652 26.087 19.5652H3.47826C1.79739 19.5652 0.434783 18.2022 0.434783 16.5217V3.47826C0.434783 1.79696 1.79739 0.434783 3.47826 0.434783H26.087C27.7683 0.434783 29.1304 1.79696 29.1304 3.47826ZM3.47826 0C1.55739 0 0 1.55739 0 3.47826V16.5217C0 18.4426 1.55739 20 3.47826 20H26.087C28.0078 20 29.5652 18.4426 29.5652 16.5217V3.47826C29.5652 1.55739 28.0078 0 26.087 0H3.47826Z" fill="black"/>
</g>
</g>
</svg>
