<svg width="30" height="20" viewBox="0 0 30 20" fill="none" xmlns="http://www.w3.org/2000/svg">
<mask id="mask0_6_8406" style="mask-type:luminance" maskUnits="userSpaceOnUse" x="0" y="0" width="30" height="20">
<path d="M26.087 20H3.47826C1.55739 20 0 18.4426 0 16.5217V3.47826C0 1.55739 1.55739 0 3.47826 0H26.087C28.0078 0 29.5652 1.55739 29.5652 3.47826V16.5217C29.5652 18.443 28.0078 20 26.087 20Z" fill="white"/>
</mask>
<g mask="url(#mask0_6_8406)">
<path d="M9.56522 0H0V20H9.56522V0Z" fill="#4893CF"/>
<path d="M29.5652 0H20V20H29.5652V0Z" fill="#F05A37"/>
<g opacity="0.1">
<path d="M20.0001 0.434783V19.5652H9.56528V0.434783H20.0001ZM20.4348 0H9.13049V20H20.4348V0Z" fill="black"/>
</g>
<path d="M20 0H9.56519V20H20V0Z" fill="white"/>
<g opacity="0.1">
<path d="M29.1304 3.47826V16.5217C29.1304 18.2026 27.7678 19.5652 26.087 19.5652H3.47826C1.79739 19.5652 0.434783 18.2026 0.434783 16.5217V3.47826C0.434783 1.79739 1.79739 0.434783 3.47826 0.434783H26.087C27.7683 0.434783 29.1304 1.79739 29.1304 3.47826ZM3.47826 0C1.55739 0 0 1.55739 0 3.47826V16.5217C0 18.4426 1.55739 20 3.47826 20H26.087C28.0078 20 29.5652 18.4426 29.5652 16.5217V3.47826C29.5652 1.55739 28.0078 0 26.087 0H3.47826Z" fill="black"/>
</g>
</g>
</svg>
