<svg width="42" height="42" viewBox="0 0 42 42" fill="none" xmlns="http://www.w3.org/2000/svg">
<path d="M33.251 21.8924C32.6193 21.7817 34.8365 21.1598 34.8365 21.1598L32.691 20.7268L34.511 20.4533L36.2235 20.1961L36.344 19.8217C34.7421 19.6556 32.3296 19.4049 32.3068 19.4049C32.284 19.4049 34.5859 18.9947 36.6924 18.7212L36.7607 18.5096C37.4054 16.4845 36.191 14.3421 34.1235 13.857L12.7849 8.84633C10.7924 8.37749 8.80632 9.64075 8.38632 11.6431L7.28911 16.8687C9.15469 16.8068 10.8868 17.3994 11.3296 17.3766C11.3686 17.3733 11.4012 17.3701 11.4175 17.3701C11.4533 17.3701 11.4175 17.3701 11.3296 17.3766C10.8217 17.4254 8.61097 17.777 7.04166 18.031L6.96678 18.3891C7.74818 18.438 8.22027 18.4901 8.36027 18.4868C12.8142 18.3859 7.4519 19.3789 6.68353 19.7273L4.93515 28.0426C4.48585 30.1752 5.9998 32.2231 8.17143 32.4217L28.7319 34.2905C30.4347 34.4468 32.0138 33.3952 32.5347 31.7673L35.6245 22.078C34.7161 22.0226 33.6091 21.9477 33.2542 21.8859L33.251 21.8924Z" fill="#FFD5DA"/>
<path d="M10.233 29.1171C10.233 29.1171 12.6097 28.4496 12.9776 28.7264C13.3455 29.0031 13.6451 29.4427 13.6548 30.1427C13.6646 30.7938 13.6548 31.6078 12.7367 31.852C11.8185 32.0961 11.4311 31.8129 11.0925 31.6924C10.7539 31.572 10.3241 31.5524 10.233 31.165C10.1418 30.7775 10.233 29.1203 10.233 29.1203V29.1171Z" fill="#FFF3CD"/>
<path d="M30.9225 29.1171C30.9225 29.1171 28.5458 28.4496 28.1779 28.7264C27.81 29.0031 27.5104 29.4427 27.5007 30.1427C27.4909 30.7938 27.5007 31.6078 28.4188 31.852C29.3369 32.0961 29.7244 31.8129 30.063 31.6924C30.4016 31.572 30.8314 31.5524 30.9225 31.165C31.0137 30.7775 30.9225 29.1203 30.9225 29.1203V29.1171Z" fill="#FFF3CD"/>
<path d="M11.4335 24.7769L11.4595 27.9936L12.3484 28.7295L13.5921 29.0355V30.875L13.1688 31.6011L11.3065 31.9495V35.3029C11.3065 35.3029 14.4256 35.2476 15.4772 35.4136C16.5288 35.5797 20.4781 36.8527 20.4781 36.8527C20.4781 36.8527 23.7242 35.7164 24.5251 35.5829C25.3261 35.4495 28.7707 35.2508 28.7707 35.2508L29.6335 35.3029V31.7574C29.6335 31.7574 28.4679 32.0895 28.1 31.7574C27.7321 31.4253 27.3512 30.5006 27.4358 30.1392C27.5205 29.7778 28.1456 28.7067 28.7121 28.7295C29.2786 28.7522 29.7833 27.2904 29.7833 27.2904L29.6302 24.562C29.6302 24.562 21.2465 26.3657 20.8265 26.4895C20.4065 26.6132 14.5005 24.4383 11.4302 24.7769H11.4335Z" fill="#FF9BA7"/>
<path d="M12.7787 24.758V22.2152C12.7787 22.2152 16.4838 21.7203 20.5992 23.8431C20.788 23.9408 23.2396 22.2152 28.4489 22.1338C28.6215 22.1338 28.501 24.6636 28.501 24.6636C28.501 24.6636 21.3122 26.3989 20.8922 26.4933C20.4722 26.5877 12.7755 24.7612 12.7755 24.7612L12.7787 24.758Z" fill="white"/>
<path d="M15.022 22.2136C15.022 22.2136 15.0643 20.4554 17.2392 20.2894C17.6657 20.2568 19.108 20.2666 19.108 20.2666L19.1178 18.5117L22.1066 18.6289V20.2536C22.1066 20.2536 24.695 20.3024 25.1345 20.5368C25.9876 20.9959 26.1796 22.3178 26.1796 22.3178C26.1796 22.3178 20.8141 23.835 20.5503 23.7015C18.7824 22.7931 15.0252 22.2136 15.0252 22.2136H15.022Z" fill="#FF9BA7"/>
<path d="M15.943 13.6153C15.943 13.6153 15.5458 10.2227 16.49 9.46411C17.4342 8.70551 17.4244 8.00876 18.8212 7.97295C20.2179 7.93713 22.5849 7.97295 22.5849 7.97295C22.5849 7.97295 24.7109 9.05388 24.8607 9.67248C25.0105 10.2911 25.2514 13.612 25.2514 13.612C25.2514 13.612 24.3756 13.612 24.3105 13.612C24.2454 13.612 23.3923 11.626 23.3923 11.626L21.3477 12.2934L18.8212 12.1567L15.9496 13.6153H15.943Z" fill="#FF9BA7"/>
<path d="M16.103 13.752C16.103 13.752 15.2011 13.1269 15.1295 13.5274C15.0579 13.9278 15.1197 15.5916 15.4909 15.7543C15.8621 15.9171 16.829 16.2688 16.829 16.2688C16.829 16.2688 17.3272 17.4376 17.9555 17.8576C18.5839 18.2776 19.5411 18.6423 20.0621 18.6748C20.583 18.7074 21.856 18.906 22.2532 18.6748C22.6504 18.4437 24.5388 16.6269 24.4737 16.3762C24.4086 16.1255 25.076 16.6464 25.5318 16.0083C25.9876 15.3702 26.4207 14.7678 26.3295 14.3674C26.2383 13.9669 25.8737 13.5827 25.8541 13.612C25.8346 13.6413 24.3044 13.612 24.3044 13.612L23.3862 11.626L21.3025 12.1469L18.7434 12.3455L16.0997 13.7488L16.103 13.752Z" fill="#FFF3CD"/>
<path d="M36.9337 31.2421C37.5432 31.2421 38.0374 30.748 38.0374 30.1384C38.0374 29.5288 37.5432 29.0347 36.9337 29.0347C36.3241 29.0347 35.83 29.5288 35.83 30.1384C35.83 30.748 36.3241 31.2421 36.9337 31.2421Z" stroke="#FFDA6A" stroke-linecap="round" stroke-linejoin="round"/>
<path d="M3.66842 20.7851C4.27799 20.7851 4.77214 20.2909 4.77214 19.6814C4.77214 19.0718 4.27799 18.5776 3.66842 18.5776C3.05885 18.5776 2.5647 19.0718 2.5647 19.6814C2.5647 20.2909 3.05885 20.7851 3.66842 20.7851Z" stroke="#FFDA6A" stroke-linecap="round" stroke-linejoin="round"/>
<path d="M25.7393 6.81731C26.3488 6.81731 26.843 6.32315 26.843 5.71358C26.843 5.10402 26.3488 4.60986 25.7393 4.60986C25.1297 4.60986 24.6356 5.10402 24.6356 5.71358C24.6356 6.32315 25.1297 6.81731 25.7393 6.81731Z" stroke="#FFDA6A" stroke-linecap="round" stroke-linejoin="round"/>
<path d="M12.4292 4.78223L10.5669 6.64455" stroke="#F96073" stroke-linecap="round" stroke-linejoin="round"/>
<path d="M10.5669 4.78223L12.4292 6.64455" stroke="#F96073" stroke-linecap="round" stroke-linejoin="round"/>
<path d="M7.86471 33.6357L6.00238 35.4981" stroke="#F96073" stroke-linecap="round" stroke-linejoin="round"/>
<path d="M6.00238 33.6357L7.86471 35.4981" stroke="#F96073" stroke-linecap="round" stroke-linejoin="round"/>
<path d="M37.7695 11.5024H35.1356" stroke="#F96073" stroke-linecap="round" stroke-linejoin="round"/>
<path d="M36.4544 10.1875V12.8215" stroke="#F96073" stroke-linecap="round" stroke-linejoin="round"/>
<path d="M20.5989 26.6291C24.9161 24.5193 29.6989 24.7863 29.6989 24.7863V27.6677C29.6989 28.2505 29.2268 28.7226 28.644 28.7226C28.0612 28.7226 27.5891 29.1947 27.5891 29.7774V30.6988C27.5891 31.2816 28.0612 31.7537 28.644 31.7537H29.9105C30.4933 31.7537 30.9654 31.2816 30.9654 30.6988V29.237" stroke="#2A3539" stroke-linecap="round" stroke-linejoin="round"/>
<path d="M20.5989 23.8421C24.3886 21.9895 28.5854 22.2239 28.5854 22.2239V23.6337" stroke="#2A3539" stroke-linecap="round" stroke-linejoin="round"/>
<path d="M20.5989 36.8749C24.9161 34.7651 29.6989 35.3023 29.6989 35.3023V33.0103" stroke="#2A3539" stroke-linecap="round" stroke-linejoin="round"/>
<path d="M14.4682 24.9195C12.7134 24.7177 11.4989 24.7861 11.4989 24.7861V27.6675C11.4989 28.2502 11.971 28.7223 12.5538 28.7223C13.1366 28.7223 13.6087 29.1944 13.6087 29.7772V30.6986C13.6087 31.2814 13.1366 31.7535 12.5538 31.7535H11.2873C10.7045 31.7535 10.2324 31.2814 10.2324 30.6986V29.2368" stroke="#2A3539" stroke-linecap="round" stroke-linejoin="round"/>
<path d="M20.5988 26.6292C19.2737 25.9812 17.903 25.558 16.6397 25.2812" stroke="#2A3539" stroke-linecap="round" stroke-linejoin="round"/>
<path d="M20.5984 23.8421C16.8087 21.9895 12.6119 22.2239 12.6119 22.2239V23.6337" stroke="#2A3539" stroke-linecap="round" stroke-linejoin="round"/>
<path d="M20.5991 36.8749C16.2819 34.7651 11.4991 35.3023 11.4991 35.3023V33.0103" stroke="#2A3539" stroke-linecap="round" stroke-linejoin="round"/>
<path d="M20.5989 28.1299V34.5666" stroke="#2A3539" stroke-linecap="round" stroke-linejoin="round"/>
<path d="M15.3603 22.1329V22.0808C15.3603 21.1432 16.1189 20.3846 17.0566 20.3846H19.1142V19.7139" stroke="#2A3539" stroke-linecap="round" stroke-linejoin="round"/>
<path d="M25.8573 22.1329V22.0808C25.8573 21.1432 25.0987 20.3846 24.1611 20.3846H22.1034V19.7139" stroke="#2A3539" stroke-linecap="round" stroke-linejoin="round"/>
<path d="M24.5546 15.5103C24.3006 17.3205 22.7444 18.7172 20.8658 18.7172H20.3318C18.4499 18.7172 16.8937 17.3205 16.6397 15.5103" stroke="#2A3539" stroke-linecap="round" stroke-linejoin="round"/>
<path d="M16.6043 16.2135C15.7285 16.2135 15.022 15.5038 15.022 14.6312V14.1233C15.022 13.8433 15.2499 13.6187 15.5266 13.6187H15.7448" stroke="#2A3539" stroke-linecap="round" stroke-linejoin="round"/>
<path d="M24.5898 16.2135C25.4656 16.2135 26.1721 15.5038 26.1721 14.6312V14.1233C26.1721 13.8433 25.9442 13.6187 25.6675 13.6187H24.5898" stroke="#2A3539" stroke-linecap="round" stroke-linejoin="round"/>
<path d="M15.9428 13.8435V11.3073C15.9428 9.4482 17.4503 7.9375 19.3126 7.9375H21.7805C23.6396 7.9375 25.1503 9.44494 25.1503 11.3073V13.6156H24.2451L23.5256 11.4375L21.5135 12.1863H18.8535L15.9461 13.8468L15.9428 13.8435Z" stroke="#2A3539" stroke-linecap="round" stroke-linejoin="round"/>
</svg>
