<svg width="24" height="24" viewBox="0 0 24 24" fill="none" xmlns="http://www.w3.org/2000/svg">
<path d="M4.6875 16.75H7.00781C7.04297 17.207 7.21875 17.5938 7.5 17.875H4.6875C3.10547 17.875 1.875 16.6445 1.875 15.0625V9.4375C1.875 7.89062 3.10547 6.625 4.6875 6.625H11.5781L10.3828 7.75H4.6875C3.73828 7.75 3 8.52344 3 9.4375V15.0625C3 16.0117 3.73828 16.75 4.6875 16.75ZM10.1719 17.875L11.332 16.75H17.0625C17.9766 16.75 18.75 16.0117 18.75 15.0625V9.4375C18.75 8.52344 17.9766 7.75 17.0625 7.75H14.707C14.6719 7.32812 14.4961 6.94141 14.2148 6.625H17.0625C18.6094 6.625 19.875 7.89062 19.875 9.4375V15.0625C19.875 16.6445 18.6094 17.875 17.0625 17.875H10.1719ZM21.5625 10C21.8438 10 22.125 10.2812 22.125 10.5625V13.9375C22.125 14.2539 21.8438 14.5 21.5625 14.5C21.2461 14.5 21 14.2539 21 13.9375V10.5625C21 10.2812 21.2461 10 21.5625 10ZM8.58984 12.5312H10.3125C10.4883 12.5312 10.6641 12.6367 10.7695 12.8125C10.875 12.9531 10.875 13.1641 10.8047 13.3398L10.1367 14.8164L13.125 11.9688H11.4375C11.2266 11.9688 11.0508 11.8984 10.9453 11.7227C10.8398 11.5469 10.8398 11.3711 10.9102 11.1953L11.5781 9.71875L8.58984 12.5312ZM12.8789 7.1875C13.4062 7.1875 13.7578 7.75 13.5117 8.20703L12.3164 10.8438H14.0391C14.4609 10.8438 14.8125 11.1953 14.8125 11.6172C14.8125 11.8281 14.707 12.0391 14.5664 12.1797L9.32812 17.1367C9.1875 17.2422 9.01172 17.3125 8.83594 17.3125C8.30859 17.3125 7.99219 16.7852 8.20312 16.3281L9.43359 13.6562H7.67578C7.25391 13.6562 6.9375 13.3398 6.9375 12.918C6.9375 12.707 7.00781 12.4961 7.14844 12.3555L12.3867 7.39844C12.5273 7.25781 12.7031 7.1875 12.8789 7.1875Z" fill="#4A5A61"/>
</svg>
