<svg width="24" height="24" viewBox="0 0 24 24" fill="none" xmlns="http://www.w3.org/2000/svg">
<path d="M18.9336 6.76562C18.9688 6.87109 18.9688 6.94141 18.9688 7.04688C19.0742 8.66406 18.8281 10.2812 18.3008 11.793L21.3242 12.918C21.4648 10.5977 20.5859 8.34766 18.9336 6.76562ZM16.5078 5.18359C16.4023 5.11328 16.2969 5.07812 16.1562 5.04297C16.1211 5.00781 16.0859 5.00781 16.0508 5.00781C15.207 4.72656 14.2578 4.9375 13.6602 5.60547C12.6406 6.66016 11.8672 7.89062 11.3398 9.26172L17.2461 11.4062C17.7383 10.0352 17.9492 8.59375 17.8438 7.11719C17.8086 6.27344 17.2812 5.53516 16.5078 5.18359ZM16.4023 3.91797C16.4375 3.95312 16.4727 3.95312 16.5078 3.95312L16.7188 4.02344C16.7891 4.05859 16.8945 4.09375 16.9648 4.12891C20.6211 5.67578 22.7656 9.36719 22.4492 13.1641C22.3789 13.832 21.6758 14.2188 21.043 14.0078L17.9141 12.8477L16.8594 12.4609L10.9883 10.3164L9.89844 9.92969L6.66406 8.76953C6.03125 8.52344 5.75 7.78516 6.13672 7.22266C8.38672 4.05859 12.5352 2.58203 16.4023 3.91797ZM13.0977 4.55078C10.7773 4.69141 8.5625 5.81641 7.15625 7.75L10.2852 8.875C10.8828 7.36328 11.7266 5.99219 12.8516 4.83203C12.9219 4.72656 13.0273 4.65625 13.0977 4.55078ZM2.9375 20.125H10.0742L12.957 12.25L14.0117 12.6367L11.2695 20.125H22.0625C22.3438 20.125 22.625 20.4062 22.625 20.6875C22.625 21.0039 22.3438 21.25 22.0625 21.25H2.9375C2.62109 21.25 2.375 21.0039 2.375 20.6875C2.375 20.4062 2.62109 20.125 2.9375 20.125Z" fill="#4A5A61"/>
</svg>
