<svg width="72" height="72" viewBox="0 0 72 72" fill="none" xmlns="http://www.w3.org/2000/svg">
<path d="M57.3168 34.5592C56.234 34.3694 60.035 33.3033 60.035 33.3033L56.3568 32.561L59.4768 32.0922L62.4126 31.6512L62.6191 31.0094C59.8731 30.7247 55.7373 30.295 55.6982 30.295C55.6591 30.295 59.6052 29.5917 63.2163 29.1229L63.3336 28.7601C64.4387 25.2885 62.3568 21.6159 58.8126 20.7843L22.2322 12.1945C18.8163 11.3908 15.4117 13.5564 14.6917 16.9889L12.8108 25.9471C16.0089 25.841 18.9782 26.8568 19.7373 26.8178C19.8043 26.8122 19.8601 26.8066 19.888 26.8066C19.9494 26.8066 19.888 26.8066 19.7373 26.8178C18.8666 26.9015 15.0768 27.5043 12.3866 27.9396L12.2582 28.5536C13.5977 28.6373 14.407 28.7266 14.647 28.721C22.2824 28.548 13.0898 30.2503 11.7726 30.8475L8.77541 45.1024C8.00518 48.7582 10.6005 52.2689 14.3233 52.6094L49.5698 55.8131C52.4889 56.081 55.1959 54.2782 56.0889 51.4875L61.3857 34.8773C59.8284 34.7824 57.9308 34.654 57.3224 34.548L57.3168 34.5592Z" fill="#FFD5DA"/>
<path d="M33.8246 43.2652L24.6432 48.2215L34.8181 50.2698H49.1902L53.1697 48.1824C53.1697 48.1824 48.286 44.7163 45.646 43.8903C43.006 43.0642 33.8246 43.2652 33.8246 43.2652Z" fill="white"/>
<path d="M21.1939 50.2769L24.6488 48.2285L35.4321 50.2769H48.6711L53.7167 48.3346L61.6534 50.4332L64.0255 53.062L64.4386 58.9113H59.3148L58.4497 56.2657L55.9269 55.1104L54.2469 55.5848L52.1762 56.7346C52.1762 56.7346 51.7353 58.9615 51.4897 58.9336C51.2441 58.9057 34.8739 58.9113 34.8739 58.9113L34.0702 56.4276C34.0702 56.4276 32.2842 55.3225 32.0721 55.3225C31.86 55.3225 30.2302 54.7978 30.2302 55.1104C30.2302 55.4229 29.2869 55.7522 29.1809 55.8527C29.0748 55.9532 27.8135 57.4211 27.8135 57.4211L27.0544 59.1067L20.9037 58.9057L21.1883 50.2713L21.1939 50.2769Z" fill="#FF9BA7"/>
<path d="M55.7153 61.9407C57.1826 61.9407 58.3721 60.7512 58.3721 59.2839C58.3721 57.8167 57.1826 56.6272 55.7153 56.6272C54.2481 56.6272 53.0586 57.8167 53.0586 59.2839C53.0586 60.7512 54.2481 61.9407 55.7153 61.9407Z" fill="#FFF3CD"/>
<path d="M31.4409 61.9407C32.9082 61.9407 34.0977 60.7512 34.0977 59.2839C34.0977 57.8167 32.9082 56.6272 31.4409 56.6272C29.9736 56.6272 28.7842 57.8167 28.7842 59.2839C28.7842 60.7512 29.9736 61.9407 31.4409 61.9407Z" fill="#FFF3CD"/>
<path d="M20.6684 51.0857H14.2443V28.7322L28.4433 16.4084L43.4126 29.6698V43.015L33.8238 43.2661L23.5038 49.3331L20.6684 51.0857Z" fill="#FFF3CD"/>
<path d="M32.9591 43.919L25.028 47.5581V36.479H32.9591V43.919Z" fill="white"/>
<path d="M40.1709 25.3605L36.13 22.7596V18.5457H40.1709V25.3605Z" fill="#FFF3CD"/>
<path d="M40.2766 18.6641H38.5798V24.9934H40.2766V18.6641Z" fill="white"/>
<path d="M51.6116 56.6216H35.0013V59.2783H51.6116V56.6216Z" fill="white"/>
<path d="M27.1939 56.6216H20.9037V59.1053H27.1939V56.6216Z" fill="white"/>
<path d="M64.1868 56.6216H59.0408V59.2783H64.1868V56.6216Z" fill="white"/>
<path d="M16.1754 51.0853H14.2443V29.1169L16.1754 27.342V51.0853Z" fill="white"/>
<path d="M14.6796 31.5108L29.755 18.0094L28.5438 16.9043L14.2443 29.1164L14.6796 31.5108Z" fill="white"/>
<path d="M42.1498 13.9248C43.1948 13.9248 44.0419 13.0777 44.0419 12.0327C44.0419 10.9877 43.1948 10.1406 42.1498 10.1406C41.1048 10.1406 40.2577 10.9877 40.2577 12.0327C40.2577 13.0777 41.1048 13.9248 42.1498 13.9248Z" stroke="#FFDA6A" stroke-width="1.39535" stroke-linecap="round" stroke-linejoin="round"/>
<path d="M64.4259 45.1585C65.4709 45.1585 66.318 44.3113 66.318 43.2664C66.318 42.2214 65.4709 41.3743 64.4259 41.3743C63.3809 41.3743 62.5338 42.2214 62.5338 43.2664C62.5338 44.3113 63.3809 45.1585 64.4259 45.1585Z" stroke="#FFDA6A" stroke-width="1.39535" stroke-linecap="round" stroke-linejoin="round"/>
<path d="M6.74195 31.0088C7.78692 31.0088 8.63404 30.1617 8.63404 29.1167C8.63404 28.0717 7.78692 27.2246 6.74195 27.2246C5.69697 27.2246 4.84985 28.0717 4.84985 29.1167C4.84985 30.1617 5.69697 31.0088 6.74195 31.0088Z" stroke="#FFDA6A" stroke-width="1.39535" stroke-linecap="round" stroke-linejoin="round"/>
<path d="M14.244 38.3655V51.3311H18.5138" stroke="#2A3539" stroke-width="1.39535" stroke-linecap="round" stroke-linejoin="round"/>
<path d="M14.244 29.1177V35.3967" stroke="#2A3539" stroke-width="1.39535" stroke-linecap="round" stroke-linejoin="round"/>
<path d="M43.4218 29.1177V40.9558" stroke="#2A3539" stroke-width="1.39535" stroke-linecap="round" stroke-linejoin="round"/>
<path d="M11.2742 31.5127L28.7663 16.4094L46.2863 31.4904" stroke="#2A3539" stroke-width="1.39535" stroke-linecap="round" stroke-linejoin="round"/>
<path d="M40.1959 26.1322V18.4578H35.9373V22.348" stroke="#2A3539" stroke-width="1.39535" stroke-linecap="round" stroke-linejoin="round"/>
<path d="M24.4578 45.3533V36.01H33.1368V41.1784" stroke="#2A3539" stroke-width="1.39535" stroke-linecap="round" stroke-linejoin="round"/>
<path d="M37.0942 58.9065H48.8598" stroke="#2A3539" stroke-width="1.39535" stroke-linecap="round" stroke-linejoin="round"/>
<path d="M61.0491 58.9067H64.1859V54.0676C64.1859 51.7848 61.5403 48.955 53.4361 48.1792C48.4408 44.5122 44.4278 43.2676 40.7273 43.2676H35.838C34.0966 43.2676 31.1105 44.5569 28.264 46.036C27.4101 46.4769 26.5729 46.9346 25.7803 47.3811C23.0287 48.9327 20.8743 50.3336 20.8743 50.3336L20.8966 58.9067H24.4464" stroke="#2A3539" stroke-width="1.39535" stroke-linecap="round" stroke-linejoin="round"/>
<path d="M50.5948 49.3347L48.6413 50.1105H34.8665" stroke="#2A3539" stroke-width="1.39535" stroke-linecap="round" stroke-linejoin="round"/>
<path d="M55.3671 62.8142C57.5125 62.8142 59.2517 61.075 59.2517 58.9296C59.2517 56.7841 57.5125 55.0449 55.3671 55.0449C53.2216 55.0449 51.4824 56.7841 51.4824 58.9296C51.4824 61.075 53.2216 62.8142 55.3671 62.8142Z" stroke="#2A3539" stroke-width="1.39535" stroke-linecap="round" stroke-linejoin="round"/>
<path d="M30.9316 62.8142C33.0771 62.8142 34.8163 61.075 34.8163 58.9296C34.8163 56.7841 33.0771 55.0449 30.9316 55.0449C28.7862 55.0449 27.047 56.7841 27.047 58.9296C27.047 61.075 28.7862 62.8142 30.9316 62.8142Z" stroke="#2A3539" stroke-width="1.39535" stroke-linecap="round" stroke-linejoin="round"/>
<path d="M51.6058 22.7375V27.2529" stroke="#F96073" stroke-width="1.39535" stroke-linecap="round" stroke-linejoin="round"/>
<path d="M49.3502 24.9932H53.8656" stroke="#F96073" stroke-width="1.39535" stroke-linecap="round" stroke-linejoin="round"/>
<path d="M14.1984 7L11.0002 10.1926" stroke="#F96073" stroke-width="1.39535" stroke-linecap="round" stroke-linejoin="round"/>
<path d="M11.0002 7L14.1984 10.1926" stroke="#F96073" stroke-width="1.39535" stroke-linecap="round" stroke-linejoin="round"/>
<path d="M11.3131 56.6726V61.188" stroke="#F96073" stroke-width="1.39535" stroke-linecap="round" stroke-linejoin="round"/>
<path d="M9.052 58.9282H13.5674" stroke="#F96073" stroke-width="1.39535" stroke-linecap="round" stroke-linejoin="round"/>
</svg>
