<svg width="14" height="20" viewBox="0 0 14 20" fill="none" xmlns="http://www.w3.org/2000/svg">
<path d="M10.2539 10.2969L13.3164 11.6094C13.8086 11.8008 14.082 12.3203 13.9727 12.8399L13.3164 15.9024C13.207 16.3945 12.7695 16.7774 12.25 16.7774C12.0586 16.7774 11.8945 16.75 11.7305 16.75C11.6211 16.75 11.4844 16.75 11.375 16.7227C5.00391 16.2852 0 10.9805 0 4.50001C0 4.00783 0.355469 3.54298 0.847656 3.43361L3.91016 2.77736C4.42969 2.66798 4.94922 2.94142 5.14062 3.43361L6.45312 6.49611C6.64453 6.93361 6.53516 7.45314 6.15234 7.75392L5.03125 8.68361C5.76953 9.94142 6.80859 10.9805 8.06641 11.7188L8.99609 10.5977C9.29688 10.2149 9.81641 10.1055 10.2539 10.2969ZM12.2227 15.875C12.332 15.875 12.4141 15.8203 12.4414 15.711L13.0977 12.6485C13.125 12.5391 13.0703 12.457 12.9883 12.4024L9.92578 11.0899C9.81641 11.0625 9.73438 11.0899 9.65234 11.1445L8.75 12.2656C8.47656 12.5938 8.01172 12.6758 7.62891 12.457C6.23438 11.6641 5.08594 10.5156 4.29297 9.12111C4.07422 8.73829 4.15625 8.27345 4.48438 8.00001L5.60547 7.09767C5.66016 7.01564 5.6875 6.93361 5.66016 6.82423L4.34766 3.76173C4.29297 3.6797 4.21094 3.62501 4.10156 3.65236L1.03906 4.30861C0.929688 4.30861 0.875 4.41798 0.875 4.50001C0.875 10.7891 5.96094 15.875 12.2227 15.875Z" fill="#8B91A3"/>
</svg>
