<svg width="24" height="24" viewBox="0 0 24 24" fill="none" xmlns="http://www.w3.org/2000/svg">
<path d="M22.4492 4.23438L15.1367 11.5469L16.7188 13.1289C16.8945 13.3047 17 13.5156 17 13.7617C17 14.1836 16.6836 14.5703 16.2266 14.6406L14.3281 14.957L14.3633 15.3086C14.6094 16.9258 14.0469 18.5781 12.8867 19.7383C11.9023 20.7227 10.5664 21.25 9.19531 21.25H3.14844C2.72656 21.25 2.375 20.8984 2.375 20.4766C2.375 20.2656 2.44531 20.0547 2.58594 19.9141L4.69531 17.8047L5.22266 17.2773L5.75 16.75H5.22266C4.94141 16.75 4.69531 16.5742 4.625 16.293C4.625 16.2578 4.625 16.1875 4.625 16.1523C4.625 15.0977 5.01172 14.1133 5.78516 13.3398L6.13672 12.9883C7.29688 11.8281 8.94922 11.2656 10.5664 11.5117L10.918 11.5469L11.2344 9.64844C11.3047 9.19141 11.6914 8.875 12.1133 8.875C12.3594 8.875 12.5703 8.98047 12.7461 9.15625L14.3281 10.7383L21.6406 3.42578C21.8516 3.21484 22.2383 3.21484 22.4492 3.42578C22.6602 3.63672 22.6602 4.02344 22.4492 4.23438ZM12.0078 11.793L14.082 13.8672L15.5938 13.6211L12.2539 10.2812L12.0078 11.793ZM10.4258 12.6367C9.125 12.4258 7.85938 12.8828 6.94531 13.7969L6.55859 14.1484C6.17188 14.5703 5.89062 15.0625 5.78516 15.625C6.20703 15.6602 6.59375 15.9414 6.76953 16.3281C6.94531 16.75 6.83984 17.2422 6.52344 17.5586L3.95703 20.125H9.19531C10.2852 20.125 11.3398 19.7031 12.0781 18.9297C12.9922 18.0156 13.4492 16.75 13.2383 15.4492L13.1328 14.6055L11.2695 12.7422L10.4258 12.6367Z" fill="#4A5A61"/>
</svg>
