<svg width="24" height="24" viewBox="0 0 24 24" fill="none" xmlns="http://www.w3.org/2000/svg">
<path d="M12.4219 3.46094L14.3203 5.60547L16.7109 3.91797C16.8867 3.8125 17.1328 3.77734 17.3086 3.88281C17.4844 3.98828 17.625 4.16406 17.625 4.375V8.875C17.625 11.3711 15.5859 13.375 13.125 13.375H12.5625V17.207C13.9336 14.9219 16.4297 13.375 19.3125 13.375H20.0156C20.543 13.375 21 13.832 21 14.3594C21 18.1914 17.9062 21.25 14.1094 21.25H12.5625H12H11.4375H9.89062C6.05859 21.25 3 18.1914 3 14.3594C3 13.832 3.42188 13.375 3.98438 13.375H4.6875C7.53516 13.375 10.0312 14.9219 11.4375 17.207V13.375H10.875C8.37891 13.375 6.375 11.3711 6.375 8.875V4.375C6.375 4.16406 6.48047 3.98828 6.65625 3.88281C6.83203 3.8125 7.07812 3.8125 7.25391 3.91797L9.64453 5.60547L11.5781 3.46094C11.6836 3.32031 11.8242 3.25 12 3.25C12.1406 3.25 12.2812 3.32031 12.4219 3.46094ZM12 12.25H13.125C14.9883 12.25 16.5 10.7383 16.5 8.875V5.46484L14.5664 6.83594C14.3203 6.97656 14.0039 6.94141 13.793 6.73047L11.9648 4.69141L10.1367 6.73047C9.96094 6.94141 9.64453 6.97656 9.39844 6.83594L7.5 5.46484V8.875C7.5 10.7383 9.01172 12.25 10.875 12.25H12ZM9.89062 20.125H11.332C10.8047 16.9609 8.02734 14.5 4.6875 14.5H4.125C4.19531 17.6289 6.72656 20.125 9.89062 20.125ZM14.1094 20.125C17.2383 20.125 19.7695 17.6289 19.875 14.5H19.3125C15.9375 14.5 13.1602 16.9609 12.6328 20.125H14.1094Z" fill="#4A5A61"/>
</svg>
