<svg width="24" height="24" viewBox="0 0 24 24" fill="none" xmlns="http://www.w3.org/2000/svg">
<path d="M15.375 7.75C15.375 7.57422 15.3398 7.39844 15.3047 7.1875H14.25C13.7227 7.1875 13.2305 7.01172 12.8789 6.625L12.6328 6.41406C11.9648 7.25781 10.9453 7.75 9.82031 7.75H8.625V8.3125C8.625 10.1758 10.1367 11.6875 12 11.6875C13.8633 11.6875 15.375 10.1758 15.375 8.3125V7.75ZM12 3.25C14.4609 3.25 16.5 5.28906 16.5 7.75C16.5 9.01562 17.0625 10.1758 18.0469 10.9141L18.2227 11.0195C18.5391 11.2656 18.75 11.6523 18.75 12.0742C18.75 12.8125 18.1523 13.375 17.4141 13.375H15.375C15.0586 13.375 14.8125 13.1289 14.8125 12.8125C14.8125 12.5312 15.0586 12.25 15.375 12.25H17.4141C17.5195 12.25 17.625 12.1797 17.625 12.0742C17.625 12.0039 17.5898 11.9688 17.5195 11.9336L17.3789 11.8281C16.8164 11.4062 16.3594 10.8789 16.043 10.2812C15.3047 11.793 13.7578 12.8125 12 12.8125C10.207 12.8125 8.66016 11.793 7.92188 10.2812C7.60547 10.8789 7.14844 11.4062 6.58594 11.8281L6.44531 11.9336C6.375 11.9688 6.375 12.0039 6.375 12.0742C6.375 12.1797 6.44531 12.25 6.55078 12.25H8.625C8.90625 12.25 9.1875 12.5312 9.1875 12.8125C9.1875 13.1289 8.90625 13.375 8.625 13.375H6.55078C5.8125 13.375 5.25 12.8125 5.25 12.0742C5.25 11.6523 5.42578 11.2656 5.74219 11.0195L5.91797 10.9141C6.90234 10.1758 7.5 9.01562 7.5 7.75C7.5 5.28906 9.50391 3.25 12 3.25ZM12.1406 5.11328C12.3516 4.90234 12.7383 4.90234 12.9492 5.11328L13.6523 5.81641C13.8281 5.99219 14.0391 6.0625 14.25 6.0625H14.918C14.3203 5.07812 13.2305 4.375 12 4.375C10.5234 4.375 9.25781 5.32422 8.80078 6.625H9.82031C10.7695 6.625 11.6133 6.09766 12.0352 5.28906C12.0703 5.21875 12.1055 5.14844 12.1406 5.11328ZM5.25 20.125H18.75C18.6797 17.6289 16.6406 15.625 14.1094 15.625H9.85547C7.35938 15.625 5.28516 17.6289 5.25 20.125ZM4.125 20.2656C4.125 17.1016 6.69141 14.5 9.85547 14.5H14.1094C17.2734 14.5 19.875 17.1016 19.875 20.2656C19.875 20.8281 19.418 21.25 18.8555 21.25H5.10938C4.54688 21.25 4.125 20.8281 4.125 20.2656Z" fill="#4A5A61"/>
</svg>
