<svg width="24" height="24" viewBox="0 0 24 24" fill="none" xmlns="http://www.w3.org/2000/svg">
<path d="M9.92582 8.31257C10.0313 7.92585 10.0664 7.43366 9.89067 6.87116C9.71489 6.34382 9.39848 5.9571 9.04692 5.711C8.73051 5.50007 8.48442 5.50007 8.34379 5.53522C8.16801 5.60553 7.99223 5.74616 7.8516 6.09772C7.74614 6.48444 7.71098 6.97663 7.88676 7.53913C8.0977 8.06647 8.4141 8.45319 8.73051 8.69928C9.04692 8.91022 9.29301 8.91022 9.46879 8.87507C9.60942 8.80475 9.7852 8.66413 9.92582 8.31257ZM9.7852 9.92975C8.6602 10.3165 7.32426 9.36725 6.83207 7.89069C6.33988 6.37897 6.83207 4.8321 7.99223 4.48053C9.11723 4.09382 10.4532 5.00788 10.9454 6.5196C11.4375 8.03132 10.9454 9.57819 9.7852 9.92975ZM5.77738 11.8282C5.81254 11.5821 5.77738 11.1954 5.53129 10.8087C5.32035 10.4219 5.0391 10.211 4.75785 10.0704C4.51176 9.96491 4.37113 10.0352 4.30082 10.0704C4.26567 10.0704 4.1602 10.1758 4.12504 10.4571C4.08988 10.7032 4.1602 11.0899 4.37113 11.4766C4.58207 11.8633 4.89848 12.0743 5.14457 12.2149C5.39067 12.3204 5.53129 12.2501 5.6016 12.2149C5.63676 12.2149 5.74223 12.1094 5.77738 11.8282ZM6.1641 13.1993C5.2852 13.6915 4.05473 13.1641 3.38676 12.0391C2.71879 10.879 2.89457 9.57819 3.73832 9.086C4.61723 8.59382 5.8477 9.12116 6.51567 10.2462C7.18363 11.3712 7.00785 12.7071 6.1641 13.1993ZM12 12.2501C11.086 12.2501 8.16801 13.1641 6.48051 17.7696C6.4102 17.9454 6.37504 18.1915 6.37504 18.4376V18.6133C6.37504 18.8243 6.55082 19.0001 6.76176 19.0001C7.11332 19.0001 7.50004 18.9649 7.81645 18.8594L10.6289 17.9805C11.5079 17.6993 12.4571 17.6993 13.336 17.9805L16.1485 18.8594C16.5 18.9649 16.8516 19.0001 17.2032 19.0001C17.4141 19.0001 17.625 18.8243 17.625 18.6133V18.4376C17.625 18.1915 17.5547 17.9454 17.4844 17.7696C15.7969 13.1641 12.8789 12.2501 12 12.2501ZM12 11.1251C13.4414 11.1251 16.711 12.3907 18.5391 17.3829C18.6797 17.6993 18.75 18.086 18.75 18.4376V18.6133C18.75 19.4571 18.0469 20.1251 17.2032 20.1251C16.711 20.1251 16.2539 20.0548 15.7969 19.9141L12.9844 19.0352C12.3516 18.8594 11.6485 18.8594 10.9805 19.0352L8.16801 19.9141C7.71098 20.0548 7.25395 20.1251 6.76176 20.1251C5.91801 20.1251 5.25004 19.4571 5.25004 18.6133V18.4376C5.25004 18.086 5.2852 17.6993 5.42582 17.3829C7.25395 12.3907 10.5235 11.1251 12 11.1251ZM18.4336 10.8087C18.2227 11.1954 18.1524 11.5469 18.1875 11.8282C18.2227 12.1094 18.3282 12.2149 18.3633 12.2149C18.4336 12.2501 18.5743 12.3204 18.8204 12.2149C19.1016 12.0743 19.3829 11.8633 19.5938 11.4766C19.8399 11.0899 19.875 10.7383 19.8399 10.4571C19.8047 10.1758 19.6993 10.0704 19.6641 10.0704C19.5938 10.0352 19.4532 9.96491 19.2071 10.0704C18.961 10.211 18.6446 10.4219 18.4336 10.8087ZM17.4493 10.2462C18.1172 9.12116 19.3477 8.59382 20.2266 9.086C21.0704 9.57819 21.2461 10.879 20.5782 12.0391C19.9102 13.1641 18.6797 13.6915 17.8008 13.1993C16.9571 12.7071 16.7813 11.3712 17.4493 10.2462ZM13.793 6.87116C13.6172 7.43366 13.6524 7.92585 13.7579 8.31257C13.8985 8.66413 14.0743 8.80475 14.25 8.87507C14.3907 8.91022 14.6368 8.91022 14.9532 8.69928C15.3047 8.45319 15.6211 8.06647 15.7969 7.53913C15.9727 6.97663 15.9375 6.48444 15.8321 6.09772C15.6914 5.74616 15.5157 5.60553 15.375 5.53522C15.1993 5.50007 14.9532 5.50007 14.6368 5.711C14.3204 5.9571 14.0039 6.34382 13.793 6.87116ZM12.7383 6.5196C13.2305 5.00788 14.5664 4.09382 15.6914 4.48053C16.8516 4.8321 17.3438 6.37897 16.8516 7.89069C16.3594 9.40241 15.0235 10.3165 13.8985 9.92975C12.7383 9.57819 12.2461 8.03132 12.7383 6.5196Z" fill="#4A5A61"/>
</svg>
