<svg width="24" height="24" viewBox="0 0 24 24" fill="none" xmlns="http://www.w3.org/2000/svg">
<path d="M9.46874 4.375C8.97655 4.375 8.62499 4.76172 8.62499 5.21875C8.62499 5.71094 8.97655 6.0625 9.46874 6.0625C9.92577 6.0625 10.3125 5.71094 10.3125 5.21875C10.3125 4.76172 9.92577 4.375 9.46874 4.375ZM9.46874 7.1875C8.73046 7.1875 8.09765 6.83594 7.74609 6.20312C7.39452 5.60547 7.39452 4.86719 7.74609 4.23438C8.09765 3.63672 8.73046 3.25 9.46874 3.25C10.1719 3.25 10.8047 3.63672 11.1562 4.23438C11.5078 4.86719 11.5078 5.60547 11.1562 6.20312C10.8047 6.83594 10.1719 7.1875 9.46874 7.1875ZM8.3789 8.3125H10.207C11.1562 8.3125 12.0351 8.80469 12.5625 9.57812L15.2695 13.6562C15.4453 13.9023 15.375 14.2539 15.0937 14.4297C14.8476 14.6055 14.4961 14.5352 14.3203 14.2539L11.6133 10.2109C11.5781 10.1055 11.5078 10.0352 11.4375 9.96484V15.4492L12.5625 16.1172C12.9141 16.3281 13.125 16.6797 13.125 17.1016V20.6875C13.125 21.0039 12.8437 21.25 12.5625 21.25C12.2461 21.25 12 21.0039 12 20.6875V17.1016L8.02734 14.7812C7.53515 14.4648 7.21874 13.9023 7.21874 13.3047V9.92969C7.04296 10.0703 6.93749 10.2461 6.83202 10.457L5.17968 14.1836C5.07421 14.4648 4.72265 14.6055 4.4414 14.4648C4.16015 14.3242 4.01952 14.0078 4.16015 13.7266L5.81249 10C6.26952 8.98047 7.28905 8.3125 8.3789 8.3125ZM8.34374 13.3047C8.34374 13.5156 8.44921 13.6914 8.62499 13.7969L10.3125 14.7812V9.47266C10.2773 9.4375 10.2422 9.4375 10.207 9.4375H8.3789H8.34374V13.3047ZM6.37499 20.5469L7.67577 15.8359L8.66015 16.4336L7.46484 20.8633C7.39452 21.1445 7.07812 21.3203 6.76171 21.25C6.48046 21.1797 6.30468 20.8633 6.37499 20.5469ZM18.8203 21.0391L15.0937 15.625C15.3047 15.5898 15.5156 15.4844 15.7266 15.3438C15.8672 15.2734 15.9726 15.168 16.0781 15.0625L19.7695 20.3711C19.9453 20.6523 19.875 20.9688 19.6289 21.1797C19.3476 21.3555 18.9961 21.2852 18.8203 21.0391Z" fill="#4A5A61"/>
</svg>
