<svg width="24" height="24" viewBox="0 0 24 24" fill="none" xmlns="http://www.w3.org/2000/svg">
<path d="M14.25 5.5H9.75C7.88672 5.5 6.375 7.01172 6.375 8.875V10.2109C6.02344 10.0703 5.63672 10 5.25 10V8.875C5.25 6.41406 7.25391 4.375 9.75 4.375H14.25C16.7109 4.375 18.75 6.41406 18.75 8.875V10C18.3281 10 17.9766 10.0703 17.625 10.2109V8.875C17.625 7.01172 16.1133 5.5 14.25 5.5ZM6.375 14.5V13.375C6.375 12.7773 5.84766 12.25 5.25 12.25C4.61719 12.25 4.125 12.7773 4.125 13.375V18.4375C4.125 18.7539 4.37109 19 4.6875 19H5.8125C6.09375 19 6.375 18.7539 6.375 18.4375V17.875V14.5ZM5.8125 20.125H4.6875C3.73828 20.125 3 19.3867 3 18.4375V13.375C3 12.1445 3.98438 11.125 5.25 11.125C6.48047 11.125 7.5 12.1445 7.5 13.375H16.5C16.5 12.1445 17.4844 11.125 18.75 11.125C19.9805 11.125 21 12.1445 21 13.375V18.4375C21 19.3867 20.2266 20.125 19.3125 20.125H18.1875C17.4492 20.125 16.8164 19.668 16.5703 19H7.39453C7.14844 19.668 6.51562 20.125 5.8125 20.125ZM7.5 17.875H16.5V14.5H7.5V17.875ZM17.625 18.4375C17.625 18.7539 17.8711 19 18.1875 19H19.3125C19.5938 19 19.875 18.7539 19.875 18.4375V13.375C19.875 12.7773 19.3477 12.25 18.75 12.25C18.1172 12.25 17.625 12.7773 17.625 13.375V14.5V17.875V18.4375Z" fill="#4A5A61"/>
</svg>
