<svg width="24" height="24" viewBox="0 0 24 24" fill="none" xmlns="http://www.w3.org/2000/svg">
<path d="M8.70312 6.27344C8.98438 4.55078 10.4961 3.25 12.2539 3.25C14.2578 3.25 15.875 4.86719 15.875 6.87109V7.15234C15.875 8.41797 15.2422 9.61328 14.1875 10.3516L13.4844 10.8438L22.7656 17.207C23.3633 17.6289 23.75 18.2969 23.75 19.0352C23.75 20.2656 22.7305 21.25 21.5 21.25H3.46484C2.23438 21.25 1.25 20.2656 1.25 19.0352C1.25 18.332 1.60156 17.6289 2.19922 17.207L12.1484 10.3867L13.5547 9.4375C14.293 8.91016 14.75 8.06641 14.75 7.15234V6.87109C14.75 5.5 13.625 4.375 12.2539 4.375C11.0234 4.375 10.0039 5.25391 9.79297 6.44922L9.65234 7.29297C9.61719 7.60938 9.33594 7.82031 9.01953 7.75C8.70312 7.71484 8.49219 7.39844 8.5625 7.11719L8.70312 6.27344ZM12.5 11.5469L2.83203 18.1562C2.55078 18.332 2.375 18.6836 2.375 19.0352C2.375 19.668 2.83203 20.125 3.46484 20.125H21.5C22.1328 20.125 22.625 19.668 22.625 19.0352C22.625 18.6836 22.4141 18.332 22.1328 18.1562L12.5 11.5469Z" fill="#4A5A61"/>
</svg>
