<svg width="24" height="24" viewBox="0 0 24 24" fill="none" xmlns="http://www.w3.org/2000/svg">
<path d="M16.3242 4.55078C16.7812 5.11328 17.0625 5.85156 17.0625 6.625V6.66016C17.5547 6.69531 18.0117 6.80078 18.4688 7.01172C18.6445 6.73047 18.75 6.41406 18.75 6.0625C18.75 5.14844 17.9766 4.375 17.0625 4.375C16.7812 4.375 16.5352 4.44531 16.3242 4.55078ZM19.418 7.57422C20.3672 8.34766 21 9.54297 21 10.8438V11.125C21 12.0742 20.2266 12.8125 19.3125 12.8125H16.2891L15.5508 14.7461L16.0078 14.8867C16.6055 15.0977 17.0625 15.6953 17.0625 16.3633C17.0625 17.207 16.3594 17.875 15.5156 17.875H15.0938H9.1875H5.25C4.61719 17.875 4.125 18.4023 4.125 19C4.125 19.6328 4.61719 20.125 5.25 20.125H19.3125C19.5938 20.125 19.875 20.4062 19.875 20.6875C19.875 21.0039 19.5938 21.25 19.3125 21.25H5.25C3.98438 21.25 3 20.2656 3 19C3 17.7695 3.98438 16.75 5.25 16.75H6.9375C6.58594 16.293 6.375 15.6953 6.375 15.0625C6.375 12.1094 8.44922 9.61328 11.2617 9.01562C10.6641 8.41797 10.3125 7.53906 10.3125 6.66016C10.3125 4.79688 11.7891 3.25 13.6875 3.25C14.3203 3.25 14.918 3.46094 15.4453 3.77734C15.9023 3.46094 16.4648 3.25 17.0625 3.25C18.6094 3.25 19.875 4.51562 19.875 6.0625C19.875 6.625 19.6992 7.15234 19.418 7.57422ZM9.1875 16.75H15.0938H15.5156C15.7266 16.75 15.9023 16.5742 15.9023 16.3633C15.9023 16.1523 15.7969 16.0117 15.6211 15.9414L12.9141 15.0625C12.6328 14.957 12.4922 14.6406 12.5625 14.3242C12.668 14.043 12.9844 13.9023 13.3008 13.9727L14.4609 14.3945L15.4102 12.0742C15.4805 11.8281 15.6914 11.6875 15.9375 11.6875H19.3125C19.5938 11.6875 19.875 11.4414 19.875 11.125V10.8438C19.875 9.15625 18.4688 7.75 16.7812 7.75H16.5C16.1836 7.75 15.9375 7.50391 15.9375 7.1875V6.625C15.9375 5.39453 14.918 4.375 13.6875 4.375C12.4219 4.375 11.4375 5.39453 11.4375 6.66016C11.4375 7.60938 12 8.45312 12.8789 8.76953L13.3008 8.94531C13.5469 9.01562 13.7227 9.29688 13.6523 9.54297C13.6172 9.82422 13.3711 10 13.125 10H12.5625C9.75 10 7.5 12.2852 7.5 15.0625C7.5 16.0117 8.23828 16.75 9.1875 16.75ZM14.8125 6.0625V7.1875C14.8125 7.50391 14.5312 7.75 14.25 7.75H13.125C12.8086 7.75 12.5625 7.50391 12.5625 7.1875C12.5625 6.90625 12.8086 6.625 13.125 6.625H13.6875V6.0625C13.6875 5.78125 13.9336 5.5 14.25 5.5C14.5312 5.5 14.8125 5.78125 14.8125 6.0625ZM18.1875 9.85938C18.1875 10.2812 17.8711 10.5625 17.4844 10.5625C17.0625 10.5625 16.7812 10.2812 16.7812 9.85938C16.7812 9.47266 17.0625 9.15625 17.4844 9.15625C17.8711 9.15625 18.1875 9.47266 18.1875 9.85938Z" fill="#4A5A61"/>
</svg>
