<svg width="24" height="24" viewBox="0 0 24 24" fill="none" xmlns="http://www.w3.org/2000/svg">
<path d="M7.5 4.375C6.86719 4.375 6.375 4.90234 6.375 5.5V19C6.375 19.6328 6.86719 20.125 7.5 20.125H9.75V17.875C9.75 16.6445 10.7344 15.625 12 15.625C13.2305 15.625 14.25 16.6445 14.25 17.875V20.125H16.5C17.0977 20.125 17.625 19.6328 17.625 19V5.5C17.625 4.90234 17.0977 4.375 16.5 4.375H7.5ZM13.125 17.875C13.125 17.2773 12.5977 16.75 12 16.75C11.3672 16.75 10.875 17.2773 10.875 17.875V20.125H13.125V17.875ZM9.75 21.25H7.5C6.23438 21.25 5.25 20.2656 5.25 19V5.5C5.25 4.26953 6.23438 3.25 7.5 3.25H16.5C17.7305 3.25 18.75 4.26953 18.75 5.5V19C18.75 20.2656 17.7305 21.25 16.5 21.25H14.25H13.125H10.875H9.75ZM7.5 7.46875C7.5 7.01172 7.85156 6.625 8.34375 6.625H10.0312C10.4883 6.625 10.875 7.01172 10.875 7.46875V9.15625C10.875 9.64844 10.4883 10 10.0312 10H8.34375C7.85156 10 7.5 9.64844 7.5 9.15625V7.46875ZM8.625 7.75V8.875H9.75V7.75H8.625ZM13.9688 6.625H15.6562C16.1133 6.625 16.5 7.01172 16.5 7.46875V9.15625C16.5 9.64844 16.1133 10 15.6562 10H13.9688C13.4766 10 13.125 9.64844 13.125 9.15625V7.46875C13.125 7.01172 13.4766 6.625 13.9688 6.625ZM14.25 8.875H15.375V7.75H14.25V8.875ZM7.5 11.9688C7.5 11.5117 7.85156 11.125 8.34375 11.125H10.0312C10.4883 11.125 10.875 11.5117 10.875 11.9688V13.6562C10.875 14.1484 10.4883 14.5 10.0312 14.5H8.34375C7.85156 14.5 7.5 14.1484 7.5 13.6562V11.9688ZM8.625 12.25V13.375H9.75V12.25H8.625ZM13.9688 11.125H15.6562C16.1133 11.125 16.5 11.5117 16.5 11.9688V13.6562C16.5 14.1484 16.1133 14.5 15.6562 14.5H13.9688C13.4766 14.5 13.125 14.1484 13.125 13.6562V11.9688C13.125 11.5117 13.4766 11.125 13.9688 11.125ZM14.25 13.375H15.375V12.25H14.25V13.375Z" fill="#4A5A61"/>
</svg>
