<svg width="24" height="24" viewBox="0 0 24 24" fill="none" xmlns="http://www.w3.org/2000/svg">
<path d="M9.125 11.125C10.3203 11.125 11.4102 10.4922 12.043 9.4375C12.6406 8.41797 12.6406 7.11719 12.043 6.0625C11.4102 5.04297 10.3203 4.375 9.125 4.375C7.89453 4.375 6.80469 5.04297 6.17188 6.0625C5.57422 7.11719 5.57422 8.41797 6.17188 9.4375C6.80469 10.4922 7.89453 11.125 9.125 11.125ZM2.375 20.125H11.4102C11.4805 20.582 11.6914 20.9336 11.9727 21.25H2.26953C1.70703 21.25 1.25 20.793 1.25 20.2305C1.25 16.75 4.02734 13.9375 7.50781 13.9375H10.707C12.2539 13.9375 13.6602 14.5 14.75 15.4141V16.8203C14.6797 16.8203 14.6445 16.8203 14.5742 16.8203C13.625 15.7656 12.2539 15.0625 10.707 15.0625H7.50781C4.69531 15.0625 2.41016 17.3477 2.375 20.125ZM4.625 7.75C4.625 6.16797 5.46875 4.69141 6.875 3.88281C8.24609 3.07422 9.96875 3.07422 11.375 3.88281C12.7461 4.69141 13.625 6.16797 13.625 7.75C13.625 9.36719 12.7461 10.8438 11.375 11.6523C9.96875 12.4609 8.24609 12.4609 6.875 11.6523C5.46875 10.8438 4.625 9.36719 4.625 7.75ZM22.2383 9.15625C22.9766 8.91016 23.75 9.47266 23.75 10.2461V11.9688V17.0312C23.75 17.1016 23.7148 17.1367 23.7148 17.1719C23.7148 17.207 23.75 17.2773 23.75 17.3125C23.75 18.2617 22.7305 19 21.5 19C20.2344 19 19.25 18.2617 19.25 17.3125C19.25 16.3984 20.2344 15.625 21.5 15.625C21.8867 15.625 22.2734 15.7305 22.625 15.8711V12.7773L17 14.6406V19.5625C17 20.5117 15.9805 21.25 14.75 21.25C13.4844 21.25 12.5 20.5117 12.5 19.5625C12.5 18.6484 13.4844 17.875 14.75 17.875C15.1367 17.875 15.5234 17.9805 15.875 18.1211V14.2188V12.1094C15.875 11.6172 16.1562 11.1953 16.6133 11.0547L22.2383 9.15625ZM17 13.4453L22.625 11.582V10.2461L17 12.1094V13.4453ZM22.625 17.3125C22.625 17.3125 22.5898 17.1719 22.4141 17.0312C22.2031 16.8906 21.8867 16.75 21.5 16.75C21.0781 16.75 20.7617 16.8906 20.5508 17.0312C20.375 17.1719 20.375 17.3125 20.375 17.3125C20.375 17.3477 20.375 17.4883 20.5508 17.6289C20.7617 17.7695 21.0781 17.875 21.5 17.875C21.8867 17.875 22.2031 17.7695 22.4141 17.6289C22.5898 17.4883 22.625 17.3477 22.625 17.3125ZM15.875 19.5625C15.875 19.5625 15.8398 19.4219 15.6641 19.2812C15.4531 19.1406 15.1367 19 14.75 19C14.3281 19 14.0117 19.1406 13.8008 19.2812C13.625 19.4219 13.625 19.5625 13.625 19.5625C13.625 19.5977 13.625 19.7383 13.8008 19.8789C14.0117 20.0195 14.3281 20.125 14.75 20.125C15.1367 20.125 15.4531 20.0195 15.6641 19.8789C15.8398 19.7383 15.875 19.5977 15.875 19.5625Z" fill="#4A5A61"/>
</svg>
