<svg width="24" height="24" viewBox="0 0 24 24" fill="none" xmlns="http://www.w3.org/2000/svg">
<path d="M13.125 5.5C13.125 4.90234 12.5977 4.375 12 4.375C11.3672 4.375 10.875 4.90234 10.875 5.5C10.875 6.13281 11.3672 6.625 12 6.625C12.5977 6.625 13.125 6.13281 13.125 5.5ZM9.75 5.5C9.75 4.72656 10.1719 3.98828 10.875 3.56641C11.543 3.17969 12.4219 3.17969 13.125 3.56641C13.793 3.98828 14.25 4.72656 14.25 5.5C14.25 6.30859 13.793 7.04688 13.125 7.46875C12.4219 7.85547 11.543 7.85547 10.875 7.46875C10.1719 7.04688 9.75 6.30859 9.75 5.5ZM9.1875 9.85938C8.20312 9.36719 7.35938 8.55859 6.79688 7.57422L6.44531 6.90625C6.26953 6.66016 6.375 6.30859 6.65625 6.16797C6.90234 5.99219 7.25391 6.09766 7.39453 6.37891L7.78125 7.01172C8.625 8.52344 10.2422 9.4375 11.9648 9.4375C13.6875 9.4375 15.2695 8.52344 16.1484 7.04688L16.5703 6.34375C16.7109 6.09766 17.0625 5.99219 17.3438 6.16797C17.5898 6.30859 17.6953 6.66016 17.5195 6.90625L17.1328 7.60938C16.5703 8.59375 15.7617 9.36719 14.8125 9.85938V20.6875C14.8125 21.0039 14.5312 21.25 14.25 21.25C13.9336 21.25 13.6875 21.0039 13.6875 20.6875V16.75H10.3125V20.6875C10.3125 21.0039 10.0312 21.25 9.75 21.25C9.43359 21.25 9.1875 21.0039 9.1875 20.6875V9.85938ZM10.3125 10.3516V15.625H13.6875V10.3164C13.125 10.4922 12.5625 10.5625 11.9648 10.5625C11.4023 10.5625 10.8398 10.4922 10.3125 10.3516Z" fill="#4A5A61"/>
</svg>
