<svg width="24" height="24" viewBox="0 0 24 24" fill="none" xmlns="http://www.w3.org/2000/svg">
<path d="M12 19H19C19.552 19 20 18.552 20 18C20 17.448 19.552 17 19 17H12C11.448 17 11 17.448 11 18C11 18.552 11.448 19 12 19Z" fill="#2A3539"/>
<path d="M5 7H19C19.552 7 20 6.552 20 6C20 5.448 19.552 5 19 5H5C4.448 5 4 5.448 4 6C4 6.552 4.448 7 5 7Z" fill="#2A3539"/>
<path d="M5 13H19C19.552 13 20 12.552 20 12C20 11.448 19.552 11 19 11H5C4.448 11 4 11.448 4 12C4 12.552 4.448 13 5 13Z" fill="#2A3539"/>
</svg>
