<svg width="24" height="24" viewBox="0 0 24 24" fill="none" xmlns="http://www.w3.org/2000/svg">
<path d="M11.4375 13.375H5.25V20.125H11.4375V13.375ZM12.5625 20.125H18.75V13.375H12.5625V20.125ZM19.875 20.125H20.4375C20.7188 20.125 21 20.4062 21 20.6875C21 21.0039 20.7188 21.25 20.4375 21.25H19.875H18.75H5.25H4.125H3.5625C3.24609 21.25 3 21.0039 3 20.6875C3 20.4062 3.24609 20.125 3.5625 20.125H4.125V5.5C4.125 4.26953 5.10938 3.25 6.375 3.25H17.625C18.8555 3.25 19.875 4.26953 19.875 5.5V20.125ZM18.75 12.25V5.5C18.75 4.90234 18.2227 4.375 17.625 4.375H12.5625V12.25H18.75ZM6.375 4.375C5.74219 4.375 5.25 4.90234 5.25 5.5V12.25H11.4375V4.375H6.375Z" fill="#4A5A61"/>
</svg>
