<svg width="24" height="24" viewBox="0 0 24 24" fill="none" xmlns="http://www.w3.org/2000/svg">
<path d="M9.15234 18.6836C9.71484 18.4727 10.3125 18.2266 10.9453 17.875C10.1016 17.2773 9.25781 16.5742 8.44922 15.8008C7.67578 14.9922 6.97266 14.1484 6.375 13.3398C6.02344 13.9375 5.77734 14.5352 5.60156 15.0977C5.00391 16.8906 5.25 18.0156 5.74219 18.5078C6.23438 19.0352 7.35938 19.2461 9.15234 18.6836ZM4.93359 5.21875C6.30469 3.84766 9.08203 4.23438 12 5.95703C14.8828 4.23438 17.6602 3.84766 19.0312 5.21875C20.4023 6.58984 20.0156 9.36719 18.293 12.25C20.0156 15.168 20.4023 17.9453 19.0312 19.3164C17.6602 20.6875 14.8828 20.3008 12 18.5781C9.08203 20.3008 6.30469 20.6875 4.93359 19.3164C3.5625 17.9453 3.94922 15.168 5.67188 12.25C3.94922 9.36719 3.5625 6.58984 4.93359 5.21875ZM9.25781 14.9922C10.1367 15.8711 11.0859 16.6445 12 17.2422C12.8789 16.6445 13.8281 15.8711 14.707 14.9922C15.5859 14.1133 16.3594 13.1641 16.957 12.25C16.3594 11.3711 15.5859 10.4219 14.707 9.54297C13.8281 8.66406 12.8789 7.89062 12 7.29297C11.0859 7.89062 10.1367 8.66406 9.25781 9.54297C8.37891 10.4219 7.60547 11.3711 7.00781 12.25C7.60547 13.1641 8.37891 14.1133 9.25781 14.9922ZM8.44922 8.73438C9.25781 7.96094 10.1016 7.25781 10.9102 6.66016C10.3125 6.30859 9.71484 6.0625 9.15234 5.85156C7.35938 5.25391 6.23438 5.5 5.74219 6.02734C5.21484 6.51953 5.00391 7.64453 5.56641 9.40234C5.77734 10 6.02344 10.5977 6.375 11.1953C6.97266 10.3867 7.67578 9.54297 8.44922 8.73438ZM15.5156 8.73438C16.2891 9.54297 16.9922 10.3867 17.5898 11.1953C17.9414 10.5977 18.1875 10 18.3984 9.40234C18.9609 7.64453 18.75 6.51953 18.2227 6.02734C17.7305 5.5 16.6055 5.25391 14.8125 5.85156C14.25 6.0625 13.6523 6.30859 13.0547 6.66016C13.8633 7.25781 14.707 7.96094 15.5156 8.73438ZM15.5156 15.8008C14.707 16.5742 13.8633 17.2773 13.0547 17.875C13.6523 18.2266 14.25 18.4727 14.8125 18.6484C16.6055 19.2461 17.7305 19 18.2227 18.5078C18.75 18.0156 18.9609 16.8906 18.3984 15.0977C18.1875 14.5352 17.9414 13.9375 17.5898 13.3047C16.9922 14.1484 16.2891 14.9922 15.5156 15.8008ZM12 13.0938C11.5078 13.0938 11.1562 12.7422 11.1562 12.25C11.1562 11.793 11.5078 11.4062 12 11.4062C12.457 11.4062 12.8438 11.793 12.8438 12.25C12.8438 12.7422 12.457 13.0938 12 13.0938Z" fill="#4A5A61"/>
</svg>
