<svg width="24" height="24" viewBox="0 0 24 24" fill="none" xmlns="http://www.w3.org/2000/svg">
<path d="M6.375 4.375C5.74219 4.375 5.25 4.90234 5.25 5.5V19C5.25 19.6328 5.74219 20.125 6.375 20.125H17.625C18.2227 20.125 18.75 19.6328 18.75 19V5.5C18.75 4.90234 18.2227 4.375 17.625 4.375H6.375ZM4.125 5.5C4.125 4.26953 5.10938 3.25 6.375 3.25H17.625C18.8555 3.25 19.875 4.26953 19.875 5.5V19C19.875 20.2656 18.8555 21.25 17.625 21.25H6.375C5.10938 21.25 4.125 20.2656 4.125 19V5.5ZM7.78125 5.78125C8.23828 5.78125 8.625 6.16797 8.625 6.625C8.625 7.11719 8.23828 7.46875 7.78125 7.46875C7.28906 7.46875 6.9375 7.11719 6.9375 6.625C6.9375 6.16797 7.28906 5.78125 7.78125 5.78125ZM9.75 6.625C9.75 6.16797 10.1016 5.78125 10.5938 5.78125C11.0508 5.78125 11.4375 6.16797 11.4375 6.625C11.4375 7.11719 11.0508 7.46875 10.5938 7.46875C10.1016 7.46875 9.75 7.11719 9.75 6.625ZM15.5508 15.5898C15.3047 15.625 15.0586 15.625 14.8125 15.625C13.3359 15.625 12.2461 14.9219 11.4375 14.3594L11.3672 14.3242C10.4883 13.7266 9.89062 13.375 9.1875 13.375C8.83594 13.375 8.44922 13.4453 8.0625 13.5156C8.0625 13.6562 8.0625 13.7969 8.0625 13.9375C8.0625 16.1172 9.82031 17.875 12 17.875C13.582 17.875 14.9531 16.9609 15.5508 15.5898ZM15.9023 14.4297C15.9023 14.2891 15.9375 14.1133 15.9375 13.9727C15.9375 11.793 14.1445 10.0352 12 10.0352C10.3828 10.0352 9.01172 10.9844 8.41406 12.3203C8.66016 12.2852 8.90625 12.2852 9.1875 12.2852C10.3125 12.2852 11.1562 12.8477 12 13.4102C12.8438 13.9727 13.6875 14.5352 14.8125 14.5352C15.1641 14.5352 15.5508 14.5 15.9023 14.4297ZM6.9375 13.9375C6.9375 12.1445 7.88672 10.4922 9.46875 9.57812C11.0156 8.66406 12.9492 8.66406 14.5312 9.57812C16.0781 10.4922 17.0625 12.1445 17.0625 13.9375C17.0625 15.7656 16.0781 17.418 14.5312 18.332C12.9492 19.2461 11.0156 19.2461 9.46875 18.332C7.88672 17.418 6.9375 15.7656 6.9375 13.9375Z" fill="#4A5A61"/>
</svg>
