<svg width="24" height="24" viewBox="0 0 24 24" fill="none" xmlns="http://www.w3.org/2000/svg">
<path d="M3.5625 3.25H20.4375C20.7188 3.25 21 3.53125 21 3.8125C21 4.12891 20.7188 4.375 20.4375 4.375H19.875V20.125H20.4375C20.7188 20.125 21 20.4062 21 20.6875C21 21.0039 20.7188 21.25 20.4375 21.25H12.5625H11.4375H3.5625C3.24609 21.25 3 21.0039 3 20.6875C3 20.4062 3.24609 20.125 3.5625 20.125H4.125V4.375H3.5625C3.24609 4.375 3 4.12891 3 3.8125C3 3.53125 3.24609 3.25 3.5625 3.25ZM12.5625 18.4375C12.5625 18.1562 12.2812 17.875 12 17.875C11.6836 17.875 11.4375 18.1562 11.4375 18.4375V20.125H12.5625V18.4375ZM13.6875 18.4375V20.125H18.75V4.375H5.25V20.125H10.3125V18.4375C10.3125 17.5234 11.0508 16.75 12 16.75C12.9141 16.75 13.6875 17.5234 13.6875 18.4375ZM14.25 6.625C14.25 6.02734 14.7422 5.5 15.375 5.5H16.5C17.0977 5.5 17.625 6.02734 17.625 6.625V7.75C17.625 8.38281 17.0977 8.875 16.5 8.875H15.375C14.7422 8.875 14.25 8.38281 14.25 7.75V6.625ZM16.5 6.625H15.375V7.75H16.5V6.625ZM11.4375 5.5H12.5625C13.1602 5.5 13.6875 6.02734 13.6875 6.625V7.75C13.6875 8.38281 13.1602 8.875 12.5625 8.875H11.4375C10.8047 8.875 10.3125 8.38281 10.3125 7.75V6.625C10.3125 6.02734 10.8047 5.5 11.4375 5.5ZM11.4375 6.625V7.75H12.5625V6.625H11.4375ZM10.3125 11.125C10.3125 10.5273 10.8047 10 11.4375 10H12.5625C13.1602 10 13.6875 10.5273 13.6875 11.125V12.25C13.6875 12.8828 13.1602 13.375 12.5625 13.375H11.4375C10.8047 13.375 10.3125 12.8828 10.3125 12.25V11.125ZM12.5625 11.125H11.4375V12.25H12.5625V11.125ZM15.375 10H16.5C17.0977 10 17.625 10.5273 17.625 11.125V12.25C17.625 12.8828 17.0977 13.375 16.5 13.375H15.375C14.7422 13.375 14.25 12.8828 14.25 12.25V11.125C14.25 10.5273 14.7422 10 15.375 10ZM15.375 11.125V12.25H16.5V11.125H15.375ZM6.375 6.625C6.375 6.02734 6.86719 5.5 7.5 5.5H8.625C9.22266 5.5 9.75 6.02734 9.75 6.625V7.75C9.75 8.38281 9.22266 8.875 8.625 8.875H7.5C6.86719 8.875 6.375 8.38281 6.375 7.75V6.625ZM8.625 6.625H7.5V7.75H8.625V6.625ZM7.5 10H8.625C9.22266 10 9.75 10.5273 9.75 11.125V12.25C9.75 12.8828 9.22266 13.375 8.625 13.375H7.5C6.86719 13.375 6.375 12.8828 6.375 12.25V11.125C6.375 10.5273 6.86719 10 7.5 10ZM7.5 11.125V12.25H8.625V11.125H7.5ZM9.89062 16.5742C9.67969 16.8203 9.32812 16.8203 9.08203 16.6094C8.87109 16.3984 8.83594 16.0469 9.04688 15.8359C9.78516 15.0273 10.8047 14.5 12 14.5C13.1602 14.5 14.2148 15.0273 14.918 15.8359C15.1289 16.0469 15.0938 16.4336 14.8828 16.6094C14.6367 16.8203 14.2852 16.8203 14.0742 16.5742C13.582 16.0117 12.8086 15.625 12 15.625C11.1562 15.625 10.418 16.0117 9.89062 16.5742Z" fill="#4A5A61"/>
</svg>
