<svg width="24" height="24" viewBox="0 0 24 24" fill="none" xmlns="http://www.w3.org/2000/svg">
<path d="M6.97266 6.73047L5.98828 10.0352C6.09375 10.0352 6.23438 10 6.375 10H17.625C17.7305 10 17.8711 10.0352 17.9766 10.0352L16.9922 6.73047C16.7812 5.99219 16.1133 5.5 15.375 5.5H8.58984C7.85156 5.5 7.18359 5.99219 6.97266 6.73047ZM5.60156 11.2656C4.72266 11.582 4.125 12.4258 4.125 13.375V16.75H19.875V13.375C19.875 12.4258 19.2422 11.582 18.3633 11.2656C18.1172 11.1953 17.8711 11.125 17.5898 11.125H6.375C6.09375 11.125 5.84766 11.1953 5.60156 11.2656ZM4.6875 10.457V10.4219L5.91797 6.37891C6.26953 5.21875 7.35938 4.375 8.58984 4.375H15.375C16.6055 4.375 17.6953 5.21875 18.082 6.37891L19.2773 10.4219V10.457C20.2969 11.0547 21 12.1445 21 13.375V16.75V17.3125V17.875V19.5625C21 19.8789 20.7188 20.125 20.4375 20.125C20.1211 20.125 19.875 19.8789 19.875 19.5625V17.875H4.125V19.5625C4.125 19.8789 3.84375 20.125 3.5625 20.125C3.24609 20.125 3 19.8789 3 19.5625V17.875V17.3125V16.75V13.375C3 12.1445 3.66797 11.0547 4.6875 10.457ZM6.65625 12.8125C7.11328 12.8125 7.5 13.1992 7.5 13.6562C7.5 14.1484 7.11328 14.5 6.65625 14.5C6.16406 14.5 5.8125 14.1484 5.8125 13.6562C5.8125 13.1992 6.16406 12.8125 6.65625 12.8125ZM16.5 13.6562C16.5 13.1992 16.8516 12.8125 17.3438 12.8125C17.8008 12.8125 18.1875 13.1992 18.1875 13.6562C18.1875 14.1484 17.8008 14.5 17.3438 14.5C16.8516 14.5 16.5 14.1484 16.5 13.6562Z" fill="#4A5A61"/>
</svg>
