<svg width="72" height="72" viewBox="0 0 72 72" fill="none" xmlns="http://www.w3.org/2000/svg">
<path d="M57.3168 34.5592C56.234 34.3694 60.035 33.3034 60.035 33.3034L56.3568 32.5611L59.4768 32.0922L62.4126 31.6513L62.6191 31.0094C59.8731 30.7248 55.7373 30.295 55.6982 30.295C55.6591 30.295 59.6052 29.5918 63.2163 29.1229L63.3336 28.7601C64.4387 25.2885 62.3568 21.616 58.8126 20.7843L22.2322 12.1946C18.8163 11.3908 15.4117 13.5564 14.6917 16.989L12.8108 25.9471C16.0089 25.8411 18.9782 26.8569 19.7373 26.8178C19.8043 26.8122 19.8601 26.8067 19.888 26.8067C19.9494 26.8067 19.888 26.8067 19.7373 26.8178C18.8666 26.9015 15.0768 27.5043 12.3866 27.9397L12.2582 28.5536C13.5977 28.6374 14.407 28.7267 14.647 28.7211C22.2824 28.5481 13.0898 30.2504 11.7726 30.8476L8.77541 45.1025C8.00518 48.7583 10.6005 52.269 14.3233 52.6095L49.5698 55.8132C52.4889 56.0811 55.1959 54.2783 56.0889 51.4876L61.3857 34.8774C59.8284 34.7825 57.9308 34.6541 57.3224 34.5481L57.3168 34.5592Z" fill="#FFD5DA"/>
<path d="M33.8245 43.2654L24.6431 48.2216L34.818 50.27H49.19L53.1696 48.1826C53.1696 48.1826 48.2859 44.7165 45.6459 43.8905C43.0059 43.0644 33.8245 43.2654 33.8245 43.2654Z" fill="white"/>
<path d="M21.1938 50.2769L24.6487 48.2286L35.4319 50.2769H48.671L53.7166 48.3346L61.6533 50.4332L64.0254 53.0621L64.4384 58.9114H59.3147L58.4496 56.2658L55.9268 55.1104L54.2468 55.5849L52.1761 56.7346C52.1761 56.7346 51.7352 58.9616 51.4896 58.9337C51.244 58.9058 34.8738 58.9114 34.8738 58.9114L34.0701 56.4276C34.0701 56.4276 32.284 55.3225 32.0719 55.3225C31.8598 55.3225 30.2301 54.7979 30.2301 55.1104C30.2301 55.423 29.2868 55.7523 29.1808 55.8528C29.0747 55.9532 27.8133 57.4211 27.8133 57.4211L27.0543 59.1067L20.9036 58.9058L21.1882 50.2714L21.1938 50.2769Z" fill="#FF9BA7"/>
<path d="M55.7153 61.9407C57.1826 61.9407 58.3721 60.7513 58.3721 59.284C58.3721 57.8167 57.1826 56.6273 55.7153 56.6273C54.2481 56.6273 53.0586 57.8167 53.0586 59.284C53.0586 60.7513 54.2481 61.9407 55.7153 61.9407Z" fill="#FFF3CD"/>
<path d="M31.4409 61.9407C32.9082 61.9407 34.0977 60.7513 34.0977 59.284C34.0977 57.8167 32.9082 56.6273 31.4409 56.6273C29.9736 56.6273 28.7842 57.8167 28.7842 59.284C28.7842 60.7513 29.9736 61.9407 31.4409 61.9407Z" fill="#FFF3CD"/>
<path d="M20.6686 51.0857H14.2444V28.7322L28.4435 16.4085L43.4128 29.6699V43.015L33.8239 43.2662L23.5039 49.3332L20.6686 51.0857Z" fill="#FFF3CD"/>
<path d="M32.9592 43.919L25.0281 47.5581V36.479H32.9592V43.919Z" fill="white"/>
<path d="M40.1708 25.3605L36.1299 22.7596V18.5457H40.1708V25.3605Z" fill="#FFF3CD"/>
<path d="M40.2766 18.6641H38.5798V24.9934H40.2766V18.6641Z" fill="white"/>
<path d="M51.6115 56.6217H35.0012V59.2784H51.6115V56.6217Z" fill="white"/>
<path d="M27.1938 56.6217H20.9036V59.1054H27.1938V56.6217Z" fill="white"/>
<path d="M64.1868 56.6217H59.0408V59.2784H64.1868V56.6217Z" fill="white"/>
<path d="M16.1755 51.0854H14.2444V29.117L16.1755 27.3421V51.0854Z" fill="white"/>
<path d="M14.6797 31.5109L29.7551 18.0095L28.5439 16.9044L14.2444 29.1164L14.6797 31.5109Z" fill="white"/>
<path d="M42.1499 13.9249C43.1949 13.9249 44.042 13.0778 44.042 12.0328C44.042 10.9879 43.1949 10.1407 42.1499 10.1407C41.1049 10.1407 40.2578 10.9879 40.2578 12.0328C40.2578 13.0778 41.1049 13.9249 42.1499 13.9249Z" stroke="#FFDA6A" stroke-width="1.39535" stroke-linecap="round" stroke-linejoin="round"/>
<path d="M64.426 45.1585C65.471 45.1585 66.3181 44.3113 66.3181 43.2664C66.3181 42.2214 65.471 41.3743 64.426 41.3743C63.3811 41.3743 62.5339 42.2214 62.5339 43.2664C62.5339 44.3113 63.3811 45.1585 64.426 45.1585Z" stroke="#FFDA6A" stroke-width="1.39535" stroke-linecap="round" stroke-linejoin="round"/>
<path d="M6.74195 31.009C7.78692 31.009 8.63404 30.1619 8.63404 29.1169C8.63404 28.072 7.78692 27.2249 6.74195 27.2249C5.69697 27.2249 4.84985 28.072 4.84985 29.1169C4.84985 30.1619 5.69697 31.009 6.74195 31.009Z" stroke="#FFDA6A" stroke-width="1.39535" stroke-linecap="round" stroke-linejoin="round"/>
<path d="M14.2439 38.3657V51.3312H18.5137" stroke="#2A3539" stroke-width="1.39535" stroke-linecap="round" stroke-linejoin="round"/>
<path d="M14.2439 29.1177V35.3968" stroke="#2A3539" stroke-width="1.39535" stroke-linecap="round" stroke-linejoin="round"/>
<path d="M43.4219 29.1177V40.9559" stroke="#2A3539" stroke-width="1.39535" stroke-linecap="round" stroke-linejoin="round"/>
<path d="M11.2742 31.5129L28.7663 16.4097L46.2863 31.4906" stroke="#2A3539" stroke-width="1.39535" stroke-linecap="round" stroke-linejoin="round"/>
<path d="M40.1959 26.1324V18.4579H35.9373V22.3482" stroke="#2A3539" stroke-width="1.39535" stroke-linecap="round" stroke-linejoin="round"/>
<path d="M24.4578 45.3535V36.0102H33.1368V41.1786" stroke="#2A3539" stroke-width="1.39535" stroke-linecap="round" stroke-linejoin="round"/>
<path d="M37.0942 58.9067H48.8598" stroke="#2A3539" stroke-width="1.39535" stroke-linecap="round" stroke-linejoin="round"/>
<path d="M61.0491 58.9068H64.1859V54.0677C64.1859 51.7849 61.5403 48.9551 53.4361 48.1793C48.4408 44.5124 44.4278 43.2677 40.7273 43.2677H35.838C34.0966 43.2677 31.1105 44.557 28.264 46.0361C27.4101 46.477 26.5729 46.9347 25.7803 47.3812C23.0287 48.9328 20.8743 50.3337 20.8743 50.3337L20.8966 58.9068H24.4464" stroke="#2A3539" stroke-width="1.39535" stroke-linecap="round" stroke-linejoin="round"/>
<path d="M50.5948 49.3349L48.6413 50.1107H34.8665" stroke="#2A3539" stroke-width="1.39535" stroke-linecap="round" stroke-linejoin="round"/>
<path d="M55.3671 62.8143C57.5125 62.8143 59.2517 61.0751 59.2517 58.9297C59.2517 56.7843 57.5125 55.045 55.3671 55.045C53.2216 55.045 51.4824 56.7843 51.4824 58.9297C51.4824 61.0751 53.2216 62.8143 55.3671 62.8143Z" stroke="#2A3539" stroke-width="1.39535" stroke-linecap="round" stroke-linejoin="round"/>
<path d="M30.9315 62.8143C33.077 62.8143 34.8162 61.0751 34.8162 58.9297C34.8162 56.7843 33.077 55.045 30.9315 55.045C28.7861 55.045 27.0469 56.7843 27.0469 58.9297C27.0469 61.0751 28.7861 62.8143 30.9315 62.8143Z" stroke="#2A3539" stroke-width="1.39535" stroke-linecap="round" stroke-linejoin="round"/>
<path d="M51.6057 22.7378V27.2531" stroke="#F96073" stroke-width="1.39535" stroke-linecap="round" stroke-linejoin="round"/>
<path d="M49.3503 24.9933H53.8657" stroke="#F96073" stroke-width="1.39535" stroke-linecap="round" stroke-linejoin="round"/>
<path d="M14.1984 7.00012L11.0002 10.1927" stroke="#F96073" stroke-width="1.39535" stroke-linecap="round" stroke-linejoin="round"/>
<path d="M11.0002 7.00012L14.1984 10.1927" stroke="#F96073" stroke-width="1.39535" stroke-linecap="round" stroke-linejoin="round"/>
<path d="M11.313 56.6729V61.1882" stroke="#F96073" stroke-width="1.39535" stroke-linecap="round" stroke-linejoin="round"/>
<path d="M9.052 58.9283H13.5674" stroke="#F96073" stroke-width="1.39535" stroke-linecap="round" stroke-linejoin="round"/>
</svg>
