<svg width="15" height="16" viewBox="0 0 15 16" fill="none" xmlns="http://www.w3.org/2000/svg">
<path d="M7.50842 16C7.1202 16 6.73619 15.8927 6.3986 15.678C4.46168 14.4476 1.7905 12.4369 0.984507 9.20405C0.88745 8.80356 0.794613 8.41959 0.714435 8.05213C0.684896 7.92001 0.769294 7.78788 0.904329 7.76311C1.03937 7.73421 1.1744 7.81679 1.19972 7.94891C1.2799 8.31224 1.36851 8.69208 1.46557 9.08845C2.22515 12.152 4.79927 14.0843 6.66445 15.2692C7.17505 15.5913 7.83335 15.5913 8.33974 15.2692C10.2049 14.0843 12.779 12.1561 13.5386 9.08845C14.1758 6.52448 14.4121 4.60461 14.5007 3.44855C14.5556 2.72602 14.0745 2.06542 13.3572 1.87549C12.8508 1.74337 12.184 1.56996 11.3316 1.35527C9.50864 0.896974 8.35662 0.636862 7.83335 0.525385C7.61392 0.479969 7.39027 0.479969 7.17083 0.525385C6.64757 0.636862 5.49555 0.896974 3.67256 1.35527C2.82015 1.56996 2.15341 1.74337 1.64703 1.87549C0.929649 2.06129 0.448584 2.72189 0.503442 3.44855C0.545641 4.04309 0.621598 4.68718 0.718655 5.36017C0.739754 5.49229 0.642697 5.61615 0.507662 5.6368C0.368406 5.65744 0.24603 5.56248 0.22493 5.43036C0.123654 4.74498 0.051916 4.08851 0.00549745 3.48158C-0.0662403 2.52371 0.57096 1.64841 1.51621 1.40068C2.02259 1.26856 2.68933 1.09515 3.54597 0.880459C5.37739 0.418037 6.53363 0.157925 7.06112 0.0464486C7.35229 -0.0154829 7.64768 -0.0154829 7.93885 0.0464486C8.46633 0.162054 9.62258 0.418037 11.454 0.880459C12.3064 1.09515 12.9732 1.26856 13.4838 1.40068C14.4332 1.64841 15.0662 2.52371 14.9945 3.48158C14.9059 4.65828 14.6653 6.60293 14.0197 9.19992C13.2179 12.4327 10.5467 14.4435 8.60559 15.6738C8.268 15.8885 7.87977 15.9959 7.49576 15.9959L7.50842 16Z" fill="white"/>
<path opacity="0.3" d="M12.5301 2.47825C12.0997 2.36677 11.5342 2.22226 10.8126 2.03647C9.27659 1.64836 8.30602 1.42954 7.83761 1.33045C7.6224 1.28503 7.40296 1.28503 7.18353 1.33045C6.71935 1.42954 5.74456 1.64836 4.20853 2.03647C3.48271 2.21813 2.92147 2.36264 2.49104 2.47825C1.7821 2.66404 1.3137 3.31226 1.36433 4.02653C1.44029 5.04634 1.64285 6.67307 2.18299 8.84067C2.84551 11.5037 5.03562 13.1594 6.68137 14.2039C7.18353 14.5219 7.82917 14.5219 8.33134 14.2039C9.97708 13.1594 12.1672 11.5037 12.8297 8.84067C13.3699 6.67307 13.5724 5.04221 13.6484 4.02653C13.7032 3.31226 13.2306 2.66404 12.5217 2.47825H12.5301ZM11.011 5.90512L7.08647 9.74487C7.01474 9.81506 6.9219 9.85222 6.82062 9.85222C6.71935 9.85222 6.62651 9.81506 6.55477 9.74487L4.63051 7.86216C4.48282 7.71765 4.48282 7.48644 4.63051 7.34193C4.77821 7.19743 5.01452 7.19743 5.16222 7.34193L6.82062 8.96454L10.4792 5.3849C10.6269 5.24039 10.8633 5.24039 11.011 5.3849C11.0827 5.45509 11.1207 5.54592 11.1207 5.64501C11.1207 5.7441 11.0827 5.83493 11.011 5.90512Z" fill="white"/>
<path opacity="0.2" d="M12.8086 3.24216C12.4246 3.14307 9.48757 2.34622 8.05703 1.96637C7.72789 1.87967 7.40296 2.12327 7.40718 2.46183C8.47902 3.58485 9.17108 4.95147 9.46225 6.39241L10.4877 5.38912C10.6354 5.24461 10.8717 5.24461 11.0194 5.38912C11.0911 5.45931 11.1291 5.55014 11.1291 5.64923C11.1291 5.74832 11.0911 5.83916 11.0194 5.90935L9.58885 7.309C9.71544 8.88619 9.37785 10.5005 8.53388 11.9415L7.52533 13.6632C7.52533 13.6632 7.80384 13.7416 7.922 13.6632C9.61417 12.5897 11.6355 11.0455 12.2347 8.61782C12.8002 6.33461 13.0112 4.64181 13.0871 3.62201C13.0998 3.44447 12.9858 3.29171 12.8128 3.24629L12.8086 3.24216Z" fill="white"/>
<path d="M11.0112 5.90546L7.08669 9.74521C7.01496 9.8154 6.92212 9.85256 6.82084 9.85256C6.71956 9.85256 6.62673 9.8154 6.55499 9.74521L4.63073 7.86249C4.48303 7.71799 4.48303 7.48678 4.63073 7.34227C4.77843 7.19776 5.01474 7.19776 5.16243 7.34227L6.82084 8.96487L10.4795 5.38524C10.6272 5.24073 10.8635 5.24073 11.0112 5.38524C11.0829 5.45542 11.1209 5.54626 11.1209 5.64535C11.1209 5.74444 11.0829 5.83527 11.0112 5.90546Z" fill="white"/>
</svg>
