<svg width="24" height="24" viewBox="0 0 24 24" fill="none" xmlns="http://www.w3.org/2000/svg">
<path d="M19.875 4.375H18.75C16.1484 4.375 13.8984 5.85156 12.7734 7.96094C12.5273 7.64453 12.2812 7.32812 12 7.04688C13.4062 4.76172 15.9023 3.25 18.75 3.25H19.875C20.4727 3.25 21 3.77734 21 4.375C21 8.27734 18.1523 11.5117 14.4258 12.1445C14.3906 11.793 14.3203 11.4062 14.2148 11.0547C17.4141 10.5273 19.875 7.75 19.875 4.375ZM5.25 6.625H4.125C4.125 10.3516 7.14844 13.375 10.875 13.375H12C12 9.64844 8.97656 6.625 5.25 6.625ZM4.125 5.5H5.25C9.57422 5.5 13.125 9.05078 13.125 13.375V13.9375V14.5V20.6875C13.125 21.0039 12.8438 21.25 12.5625 21.25C12.2461 21.25 12 21.0039 12 20.6875V14.5H10.875C6.51562 14.5 3 10.9844 3 6.625C3 6.02734 3.49219 5.5 4.125 5.5Z" fill="#4A5A61"/>
</svg>
