<svg width="24" height="24" viewBox="0 0 24 24" fill="none" xmlns="http://www.w3.org/2000/svg">
<path d="M12 4.375C9.57422 4.375 7.35938 5.67578 6.12891 7.75C4.93359 9.85938 4.93359 12.4258 6.12891 14.5C7.35938 16.6094 9.57422 17.875 12 17.875C14.3906 17.875 16.6055 16.6094 17.8359 14.5C19.0312 12.4258 19.0312 9.85938 17.8359 7.75C16.6055 5.67578 14.3906 4.375 12 4.375ZM16.6758 17.4531L18.5742 19.9141C18.75 20.1602 18.7852 20.5117 18.6445 20.793C18.5039 21.0742 18.2227 21.25 17.9062 21.25H6.09375C5.74219 21.25 5.46094 21.0742 5.32031 20.793C5.17969 20.5117 5.21484 20.1602 5.42578 19.9141L7.28906 17.4531C5.35547 16.0117 4.125 13.7266 4.125 11.125C4.125 6.80078 7.64062 3.25 12 3.25C16.3242 3.25 19.875 6.80078 19.875 11.125C19.875 13.7266 18.6094 16.0117 16.6758 17.4531ZM15.7266 18.0859C14.6016 18.6836 13.3359 19 12 19C10.6289 19 9.36328 18.6836 8.23828 18.0859L6.65625 20.125H17.3086L15.7266 18.0859ZM12 7.1875C10.5586 7.1875 9.29297 7.96094 8.58984 9.15625C7.85156 10.3867 7.85156 11.8984 8.58984 13.0938C9.29297 14.3242 10.5586 15.0625 12 15.0625C13.4062 15.0625 14.6719 14.3242 15.375 13.0938C16.1133 11.8984 16.1133 10.3867 15.375 9.15625C14.6719 7.96094 13.4062 7.1875 12 7.1875ZM12 16.1875C10.1719 16.1875 8.51953 15.2383 7.60547 13.6562C6.69141 12.1094 6.69141 10.1758 7.60547 8.59375C8.51953 7.04688 10.1719 6.0625 12 6.0625C13.793 6.0625 15.4453 7.04688 16.3594 8.59375C17.2734 10.1758 17.2734 12.1094 16.3594 13.6562C15.4453 15.2383 13.793 16.1875 12 16.1875Z" fill="#4A5A61"/>
</svg>
