<svg width="24" height="24" viewBox="0 0 24 24" fill="none" xmlns="http://www.w3.org/2000/svg">
<path d="M12.1133 3.39062C12.3242 3.21484 12.6406 3.21484 12.8516 3.39062L22.4141 11.8281C22.6602 12.0391 22.6602 12.3906 22.4844 12.6367C22.2734 12.8828 21.9219 12.8828 21.6758 12.6719L20.375 11.5117V18.4375C20.375 20.0195 19.1094 21.25 17.5625 21.25H7.43751C5.85548 21.25 4.62501 20.0195 4.62501 18.4375V11.5117L3.28907 12.6719C3.07813 12.8828 2.69142 12.8828 2.51563 12.6367C2.3047 12.3906 2.3047 12.0391 2.55079 11.8281L12.1133 3.39062ZM5.75001 10.5273V18.4375C5.75001 19.3867 6.48829 20.125 7.43751 20.125H17.5625C18.4766 20.125 19.25 19.3867 19.25 18.4375V10.5273L12.5 4.58594L5.75001 10.5273ZM12.5 12.25C13.0977 12.25 13.625 11.7578 13.625 11.125C13.625 10.5273 13.0977 10 12.5 10C11.8672 10 11.375 10.5273 11.375 11.125C11.375 11.7578 11.8672 12.25 12.5 12.25ZM12.5 8.875C13.2734 8.875 14.0117 9.33203 14.4336 10C14.8203 10.7031 14.8203 11.582 14.4336 12.25C14.0117 12.9531 13.2734 13.375 12.5 13.375C11.6914 13.375 10.9531 12.9531 10.5313 12.25C10.1445 11.582 10.1445 10.7031 10.5313 10C10.9531 9.33203 11.6914 8.875 12.5 8.875ZM9.68751 17.0312V17.3125C9.68751 17.6289 9.40626 17.875 9.12501 17.875C8.8086 17.875 8.56251 17.6289 8.56251 17.3125V17.0312C8.56251 15.6602 9.68751 14.5 11.0938 14.5H13.9063C15.2774 14.5 16.4375 15.6602 16.4375 17.0312V17.3125C16.4375 17.6289 16.1563 17.875 15.875 17.875C15.5586 17.875 15.3125 17.6289 15.3125 17.3125V17.0312C15.3125 16.2578 14.6797 15.625 13.9063 15.625H11.0938C10.2852 15.625 9.68751 16.2578 9.68751 17.0312Z" fill="#4A5A61"/>
</svg>
