<svg width="24" height="24" viewBox="0 0 24 24" fill="none" xmlns="http://www.w3.org/2000/svg">
<path d="M14.7499 4.41016V8.3125C14.7499 9.89453 15.9804 11.125 17.5624 11.125C19.1093 11.125 20.3749 9.89453 20.3749 8.3125V4.41016L20.3398 4.375C20.3046 4.375 20.3046 4.41016 20.3046 4.41016L18.9687 5.74609C18.7577 5.95703 18.4413 6.0625 18.1601 6.0625H16.9296C16.6484 6.0625 16.3671 5.95703 16.1562 5.74609L14.7851 4.41016V4.375C14.7499 4.375 14.7499 4.41016 14.7499 4.41016ZM14.7851 3.25C15.0663 3.25 15.3827 3.39062 15.5937 3.60156L16.9296 4.9375H18.1601L19.496 3.60156C19.7069 3.39062 20.0234 3.25 20.3398 3.25C20.9726 3.25 21.4999 3.77734 21.4999 4.41016V8.3125C21.4999 10.4922 19.7069 12.25 17.5624 12.25C15.3827 12.25 13.6249 10.4922 13.6249 8.3125V4.41016C13.6249 3.77734 14.1171 3.25 14.7851 3.25ZM6.87491 13.7969C8.03507 11.6172 10.1093 9.96484 12.5702 9.33203C12.6757 9.71875 12.7812 10.0703 12.9218 10.4219C9.40616 11.3008 6.87491 14.4648 6.87491 18.1562V18.4375C6.87491 19.3867 7.61319 20.125 8.56241 20.125H13.0624H14.539C14.6444 20.125 14.7148 20.0547 14.7148 19.9492C14.7148 19.4219 14.328 19 13.8007 19H12.4999C12.1835 19 11.9374 18.7539 11.9374 18.4375V17.0312C11.9374 16.2578 11.3046 15.625 10.5312 15.625H10.2499C9.93351 15.625 9.68741 15.3789 9.68741 15.0625C9.68741 14.7812 9.93351 14.5 10.2499 14.5H10.5312C11.9023 14.5 13.0624 15.6602 13.0624 17.0312V17.207L17.1757 13.5156C17.2812 13.4453 17.4218 13.375 17.5273 13.375H17.5624C17.6327 13.375 17.703 13.4102 17.7734 13.4453C17.9843 13.5156 18.0898 13.7266 18.0898 13.9375V19.5625C18.0898 19.8789 18.371 20.125 18.6523 20.125C18.9687 20.125 19.2148 19.8789 19.2148 19.5625V13.0938C19.6366 12.9531 20.0234 12.7773 20.3398 12.5312V19.5625C20.3398 20.5117 19.6015 21.25 18.6523 21.25C17.7382 21.25 16.9648 20.5117 16.9648 19.5625V15.2031L13.9413 17.9102C15.0312 17.9805 15.8398 18.8594 15.8398 19.9492C15.8398 20.6875 15.2773 21.25 14.539 21.25H13.0624H8.56241H8.52726C6.98038 21.25 5.74991 20.0195 5.74991 18.4375V18.1562V9.47266C5.74991 8.62891 5.1171 7.89062 4.27335 7.78516L3.9921 7.75C3.67569 7.71484 3.46476 7.43359 3.49991 7.11719C3.53507 6.83594 3.81632 6.58984 4.13273 6.66016L4.41398 6.69531C5.82023 6.87109 6.87491 8.06641 6.87491 9.47266V13.7969ZM15.8749 7.75C15.8749 7.46875 16.121 7.1875 16.4374 7.1875C16.7187 7.1875 16.9999 7.46875 16.9999 7.75C16.9999 8.06641 16.7187 8.3125 16.4374 8.3125C16.121 8.3125 15.8749 8.06641 15.8749 7.75ZM18.6874 7.1875C18.9687 7.1875 19.2499 7.46875 19.2499 7.75C19.2499 8.06641 18.9687 8.3125 18.6874 8.3125C18.371 8.3125 18.1249 8.06641 18.1249 7.75C18.1249 7.46875 18.371 7.1875 18.6874 7.1875Z" fill="#4A5A61"/>
</svg>
