<svg width="24" height="24" viewBox="0 0 24 24" fill="none" xmlns="http://www.w3.org/2000/svg">
<path d="M12.1406 3.28516L19.4531 5.53516C19.6992 5.60547 19.875 5.81641 19.875 6.0625C19.875 6.30859 19.6992 6.55469 19.4531 6.625L12.1406 8.875C12.0352 8.91016 11.9297 8.91016 11.8242 8.875L6.375 7.1875V9.36719L7.46484 12.6367C7.5 12.8125 7.5 13.0234 7.39453 13.1641C7.28906 13.3047 7.11328 13.375 6.9375 13.375H4.6875C4.47656 13.375 4.33594 13.3047 4.23047 13.1641C4.125 13.0234 4.08984 12.8125 4.125 12.6367L5.25 9.36719V6.83594L4.51172 6.625C4.26562 6.55469 4.125 6.30859 4.125 6.0625C4.125 5.81641 4.26562 5.60547 4.51172 5.53516L11.8242 3.28516C11.9297 3.25 12.0352 3.25 12.1406 3.28516ZM12 7.75L17.3789 6.0625L12 4.41016L6.58594 6.0625L12 7.75ZM10.7344 18.7188L8.23828 15.9062C6.48047 16.5391 5.25 18.1914 5.25 20.125H18.75C18.7148 18.1914 17.4844 16.5391 15.7617 15.9062L13.2305 18.7188C12.5625 19.4922 11.4023 19.4922 10.7344 18.7188ZM7.95703 14.8164C8.34375 14.6758 8.76562 14.8164 9.04688 15.1328L11.5781 17.9805C11.7891 18.2266 12.1758 18.2266 12.4219 17.9805L14.9531 15.1328C15.1992 14.8164 15.6211 14.6758 16.0078 14.8164C18.2578 15.5547 19.875 17.6992 19.875 20.1953C19.875 20.793 19.3828 21.25 18.7852 21.25H5.17969C4.58203 21.25 4.125 20.793 4.125 20.1953C4.125 17.6992 5.70703 15.5547 7.95703 14.8164ZM5.8125 11.2305L5.46094 12.25H6.12891L5.8125 11.2305ZM7.5 8.69922L8.625 9.05078V9.4375C8.625 11.3008 10.1367 12.8125 12 12.8125C13.8633 12.8125 15.375 11.3008 15.375 9.4375V9.05078L16.5 8.69922V9.4375C16.5 11.9336 14.4609 13.9375 12 13.9375C9.50391 13.9375 7.5 11.9336 7.5 9.4375V8.69922Z" fill="#4A5A61"/>
</svg>
