<svg preserveAspectRatio="none" width="100%" height="100%" overflow="visible" style="display: block;" viewBox="0 0 16.4962 16.0138" fill="none" xmlns="http://www.w3.org/2000/svg">
<g id="Font Awesome Icon Container">
<path id="&#239;&#131;&#160;" d="M9.12941 0.5625L11.1607 4.71875L15.6294 5.375C16.0044 5.4375 16.3169 5.6875 16.4419 6.0625C16.5669 6.40625 16.4732 6.8125 16.1919 7.0625L12.9419 10.2812L13.7232 14.8438C13.7857 15.2188 13.6294 15.5938 13.3169 15.8125C13.0044 16.0625 12.5982 16.0625 12.2544 15.9062L8.25441 13.75L4.22316 15.9062C3.91066 16.0625 3.50441 16.0625 3.19191 15.8125C2.87941 15.5938 2.72316 15.2188 2.78566 14.8438L3.53566 10.2812L0.28566 7.0625C0.0356604 6.8125 -0.0580895 6.40625 0.0356605 6.0625C0.16066 5.6875 0.47316 5.4375 0.84816 5.375L5.34816 4.71875L7.34816 0.5625C7.50441 0.21875 7.84816 0 8.25441 0C8.62941 0 8.97316 0.21875 9.12941 0.5625Z" fill="var(--fill-0, #FFDA6A)"/>
</g>
</svg>
