<svg width="24" height="24" viewBox="0 0 24 24" fill="none" xmlns="http://www.w3.org/2000/svg">
<path d="M11.1914 20.125C11.2617 20.1602 11.3672 20.2305 11.4375 20.2656V12.5664L4.72266 8.73438C4.72266 8.83984 4.6875 8.94531 4.6875 9.05078V15.4492C4.6875 16.0469 5.03906 16.6094 5.56641 16.9258L11.1914 20.125ZM12.8438 20.125L18.4688 16.9258C18.9961 16.6094 19.3477 16.0469 19.3477 15.4492V9.05078C19.3477 8.94531 19.3125 8.83984 19.3125 8.73438L12.5625 12.5664V20.2656C12.668 20.2305 12.7734 20.1953 12.8438 20.125ZM15.9727 9.36719L18.75 7.78516C18.6445 7.71484 18.5742 7.64453 18.4688 7.60938L12.8438 4.375C12.3516 4.09375 11.6836 4.09375 11.1914 4.375L9.22266 5.5L15.9375 9.36719H15.9727ZM14.8125 10L8.09766 6.13281L5.56641 7.57422C5.46094 7.64453 5.39062 7.71484 5.32031 7.75L12.0352 11.6172L14.8125 10ZM13.4062 21.1094C12.5625 21.6016 11.4727 21.6016 10.6289 21.1094L5.00391 17.875C4.125 17.3828 3.5625 16.4688 3.5625 15.4492V9.05078C3.5625 8.06641 4.125 7.11719 5.00391 6.625L10.6289 3.39062C11.4727 2.89844 12.5625 2.89844 13.4062 3.39062L19.0312 6.625C19.9102 7.11719 20.4375 8.06641 20.4375 9.05078V15.4492C20.4375 16.4688 19.9102 17.3828 19.0312 17.875L13.4062 21.1094Z" fill="#4A5A61"/>
</svg>
