<svg width="24" height="24" viewBox="0 0 24 24" fill="none" xmlns="http://www.w3.org/2000/svg">
<path d="M4.0625 6.0625C4.0625 4.51562 5.29297 3.25 6.875 3.25H8.5625C8.84375 3.25 9.125 3.53125 9.125 3.8125C9.125 4.12891 8.84375 4.375 8.5625 4.375H6.875C5.92578 4.375 5.1875 5.14844 5.1875 6.0625V10H7.4375C7.71875 10 8 10.2812 8 10.5625C8 10.8789 7.71875 11.125 7.4375 11.125H5.1875V17.2773C5.1875 18.7188 4.0625 19.9141 2.65625 20.0547L1.84766 20.125C1.53125 20.1602 1.28516 19.9492 1.25 19.6328C1.21484 19.3164 1.42578 19.0352 1.74219 19.0352L2.51562 18.9297C3.39453 18.8594 4.0625 18.1211 4.0625 17.2773V11.125H1.8125C1.49609 11.125 1.25 10.8789 1.25 10.5625C1.25 10.2812 1.49609 10 1.8125 10H4.0625V6.0625ZM11.832 8.91016C10.8125 10.5273 10.25 12.4258 10.25 14.5C10.25 16.6094 10.8125 18.5078 11.832 20.125C12.0078 20.3711 11.9375 20.7227 11.6562 20.8984C11.4102 21.0742 11.0586 21.0039 10.8828 20.7227C9.75781 18.9297 9.125 16.8203 9.125 14.5C9.125 12.2148 9.75781 10.1055 10.8828 8.3125C11.0586 8.03125 11.4102 7.96094 11.6562 8.13672C11.9375 8.3125 12.0078 8.66406 11.832 8.91016ZM21.0078 8.91016C20.832 8.62891 20.9023 8.3125 21.1836 8.13672C21.4297 7.96094 21.7812 8.03125 21.957 8.3125C23.082 10.1055 23.75 12.2148 23.75 14.5C23.75 16.8203 23.082 18.9297 21.957 20.7227C21.7812 20.9688 21.4297 21.0742 21.1836 20.8984C20.9023 20.7227 20.832 20.3711 21.0078 20.125C22.0273 18.5078 22.625 16.6094 22.625 14.5C22.625 12.4258 22.0273 10.5273 21.0078 8.91016ZM14.5742 11.8633L16.4375 13.7266L18.2656 11.8633C18.4766 11.6523 18.8633 11.6523 19.0742 11.8633C19.2852 12.0742 19.2852 12.4609 19.0742 12.6719L17.2109 14.5L19.0742 16.3633C19.2852 16.5742 19.2852 16.9609 19.0742 17.1719C18.8633 17.3828 18.4766 17.3828 18.2656 17.1719L16.4375 15.3086L14.5742 17.1719C14.3633 17.3828 13.9766 17.3828 13.7656 17.1719C13.5547 16.9609 13.5547 16.5742 13.7656 16.3633L15.6289 14.5L13.7656 12.6719C13.5547 12.4609 13.5547 12.0742 13.7656 11.8633C13.9766 11.6523 14.3633 11.6523 14.5742 11.8633Z" fill="#4A5A61"/>
</svg>
