<svg width="24" height="24" viewBox="0 0 24 24" fill="none" xmlns="http://www.w3.org/2000/svg">
<path d="M19.875 8.875C19.875 8.52344 19.8047 8.13672 19.7344 7.78516L18.0117 9.50781C17.6953 9.82422 17.2734 10 16.8164 10H15.9375C14.9883 10 14.25 9.26172 14.25 8.3125V7.43359C14.25 6.97656 14.4258 6.55469 14.7422 6.23828L16.4648 4.51562C16.1133 4.44531 15.7266 4.375 15.375 4.375C12.8789 4.375 10.875 6.41406 10.875 8.875C10.875 9.22656 10.9102 9.54297 10.9453 9.82422C11.0859 10.3516 10.9453 10.9844 10.4883 11.4062L4.58203 17.3125C4.30078 17.6289 4.125 18.0508 4.125 18.4727C4.125 19.3867 4.86328 20.125 5.77734 20.125C6.19922 20.125 6.62109 19.9492 6.9375 19.668L12.8438 13.7617C13.2656 13.3047 13.8984 13.1641 14.4258 13.3047C14.7422 13.3398 15.0234 13.375 15.375 13.375C17.8359 13.375 19.875 11.3711 19.875 8.875ZM21 8.875C21 12.0039 18.4688 14.5 15.375 14.5C14.9531 14.5 14.5664 14.4648 14.1797 14.3945C14.0039 14.3594 13.793 14.3945 13.6523 14.5352L7.74609 20.4414C7.21875 20.9688 6.51562 21.25 5.77734 21.25C4.23047 21.25 3 20.0195 3 18.4727C3 17.7344 3.28125 17.0312 3.80859 16.5039L9.71484 10.5977C9.85547 10.457 9.89062 10.2461 9.85547 10.0703C9.78516 9.68359 9.75 9.29688 9.75 8.875C9.75 5.78125 12.2461 3.25 15.375 3.25C16.2188 3.25 17.0625 3.46094 17.8008 3.8125C18.1172 3.98828 18.1523 4.41016 17.9062 4.65625L15.5156 7.04688C15.4102 7.15234 15.375 7.29297 15.375 7.43359V8.3125C15.375 8.62891 15.6211 8.875 15.9375 8.875H16.8164C16.957 8.875 17.0977 8.83984 17.2031 8.73438L19.5938 6.34375C19.8398 6.09766 20.2617 6.13281 20.4375 6.44922C20.7891 7.1875 21 8.03125 21 8.875ZM6.09375 17.5938C6.375 17.5938 6.65625 17.875 6.65625 18.1562C6.65625 18.4727 6.375 18.7188 6.09375 18.7188C5.77734 18.7188 5.53125 18.4727 5.53125 18.1562C5.53125 17.875 5.77734 17.5938 6.09375 17.5938Z" fill="#4A5A61"/>
</svg>
