<svg width="24" height="24" viewBox="0 0 24 24" fill="none" xmlns="http://www.w3.org/2000/svg">
<path d="M13.6953 15.5547C14.0117 15.7656 14.1875 16.1172 14.1875 16.4688V19.2812C14.1875 19.7734 14.5391 20.125 15.0313 20.125H15.5938C16.0508 20.125 16.4375 19.7734 16.4375 19.2812V12.4609H16.4024L13.168 10.5625H13.1328H8.00001H7.15626H5.75001V19.2812C5.75001 19.7734 6.10157 20.125 6.59376 20.125H7.15626C7.61329 20.125 8.00001 19.7734 8.00001 19.2812V16.4688C8.00001 16.1172 8.14063 15.7656 8.45704 15.5547C8.73829 15.3438 9.12501 15.2734 9.44141 15.3789C9.96876 15.5547 10.4961 15.6602 11.0938 15.6602C11.6563 15.6602 12.1836 15.5547 12.7109 15.3789C13.0625 15.2734 13.4141 15.3438 13.6953 15.5547ZM16.6133 10.9492C16.7188 10.4219 17.1758 10.0352 17.7383 10.0352H19.25C20.4805 10.0352 21.5 9.01562 21.5 7.78516V7.1875C21.5 6.90625 21.2188 6.625 20.9375 6.625H19.8125C19.4961 6.625 19.2149 6.51953 19.0039 6.30859L18.3711 5.67578C18.2656 5.57031 18.125 5.5 17.9844 5.5H16.4375C16.0508 5.5 15.7344 5.35938 15.5234 5.07812L15.1016 4.51562L14.2578 9.64844C14.2227 9.71875 14.2227 9.78906 14.1875 9.85938L16.5781 11.2656L16.6133 10.9492ZM3.95704 8.875C4.27345 9.22656 4.73048 9.4375 5.25782 9.4375H5.75001H7.15626H8.00001H13.1328L14.0117 4.12891C14.1172 3.63672 14.5391 3.25 15.0664 3.25C15.3828 3.25 15.6992 3.42578 15.9102 3.67188L16.4375 4.375H17.9844C18.4063 4.375 18.8633 4.58594 19.1797 4.90234L19.8125 5.5H20.9375C21.8516 5.5 22.625 6.27344 22.625 7.1875V7.75C22.625 9.61328 21.1133 11.125 19.25 11.125H17.7383L17.5625 12.25V19.2812C17.5625 20.3711 16.6484 21.25 15.5938 21.25H15.0313C13.9414 21.25 13.0625 20.3711 13.0625 19.2812V17.6289V16.4688C12.6758 16.5742 12.3242 16.6445 11.9375 16.7148C11.6563 16.75 11.375 16.75 11.0938 16.75C10.7774 16.75 10.4961 16.75 10.25 16.7148C9.86329 16.6445 9.47657 16.5742 9.12501 16.4688V17.6289V19.2812C9.12501 20.3711 8.21095 21.25 7.15626 21.25H6.59376C5.50391 21.25 4.62501 20.3711 4.62501 19.2812V10.5625C4.62501 10.5625 4.62501 10.5273 4.62501 10.4922C4.58985 10.4922 4.5547 10.4922 4.5547 10.4922C3.57032 10.2461 2.76173 9.47266 2.51563 8.45312L2.37501 7.89062C2.3047 7.60938 2.48048 7.29297 2.79688 7.22266C3.07813 7.15234 3.39454 7.32812 3.46485 7.64453L3.60548 8.17188C3.60548 8.20703 3.64063 8.27734 3.64063 8.3125C3.71095 8.52344 3.81641 8.69922 3.95704 8.875ZM17.5625 6.625C17.8438 6.625 18.125 6.90625 18.125 7.1875C18.125 7.50391 17.8438 7.75 17.5625 7.75C17.2461 7.75 17 7.50391 17 7.1875C17 6.90625 17.2461 6.625 17.5625 6.625Z" fill="#4A5A61"/>
</svg>
