<svg width="24" height="24" viewBox="0 0 24 24" fill="none" xmlns="http://www.w3.org/2000/svg">
<path d="M12.8513 3.39062L22.4138 11.8281C22.6599 12.0391 22.6599 12.3906 22.4841 12.6367C22.2732 12.8828 21.9216 12.8828 21.6755 12.6719L20.3748 11.5117V18.4375C20.3748 20.0195 19.1091 21.25 17.5623 21.25H7.43727C5.85523 21.25 4.62477 20.0195 4.62477 18.4375V11.5117L3.28883 12.6719C3.07789 12.8828 2.69117 12.8828 2.51539 12.6367C2.30445 12.3906 2.30445 12.0391 2.55055 11.8281L12.113 3.39062C12.324 3.21484 12.6404 3.21484 12.8513 3.39062ZM5.74977 18.4375C5.74977 19.3867 6.48805 20.125 7.43727 20.125H9.68727V14.5C9.68727 13.9023 10.1795 13.375 10.8123 13.375H14.1873C14.7849 13.375 15.3123 13.9023 15.3123 14.5V20.125H17.5623C18.4763 20.125 19.2498 19.3867 19.2498 18.4375V10.5273L12.4998 4.58594L5.74977 10.5273V18.4375ZM10.8123 20.125H14.1873V14.5H10.8123V20.125Z" fill="#4A5A61"/>
</svg>
