<svg width="24" height="24" viewBox="0 0 24 24" fill="none" xmlns="http://www.w3.org/2000/svg">
<path d="M18.6445 4.41016L17.2734 5.78125L16.957 7.29297L18.4687 6.97656L19.8398 5.60547C19.8398 5.57031 19.875 5.53516 19.875 5.5C19.875 5.5 19.8398 5.46484 19.8398 5.42969L18.8203 4.41016C18.7851 4.41016 18.75 4.375 18.75 4.375C18.7148 4.375 18.6797 4.41016 18.6445 4.41016ZM16.2187 5.39453C16.2539 5.28906 16.289 5.18359 16.3593 5.11328L17.8711 3.63672C18.082 3.39062 18.3984 3.25 18.75 3.25C19.0664 3.25 19.3828 3.39062 19.6289 3.63672L20.6132 4.62109C20.8593 4.86719 21 5.18359 21 5.5C21 5.85156 20.8593 6.16797 20.6132 6.37891L19.1367 7.89062C19.0664 7.96094 18.9609 7.99609 18.8554 8.03125L16.5 8.55859L15.2343 9.82422C16.7461 11.6172 16.9218 14.043 15.5859 15.3789C15.164 15.8008 14.6367 16.082 14.039 16.1875C13.4062 16.3281 12.8789 16.9258 12.8437 17.5938C12.8086 18.5781 12.4218 19.457 11.7539 20.1602C10.0312 21.8828 6.90231 21.5664 4.79294 19.457C2.68356 17.3125 2.36715 14.2188 4.08981 12.4961C4.79294 11.8281 5.67184 11.4414 6.65622 11.4062C7.32419 11.3711 7.92184 10.8438 8.06247 10.2109C8.16794 9.61328 8.44919 9.08594 8.87106 8.66406C10.207 7.32812 12.6328 7.50391 14.4257 9.01562L15.6914 7.75L16.2187 5.39453ZM13.6523 9.82422C12.1406 8.59375 10.4531 8.69922 9.67965 9.47266C9.3984 9.71875 9.22262 10.0703 9.15231 10.457C8.90622 11.5117 7.92184 12.4609 6.72653 12.5312C5.98825 12.5664 5.35544 12.8477 4.8984 13.3047C3.73825 14.4297 3.7734 16.8203 5.60153 18.6484C7.42965 20.4766 9.82028 20.5117 10.9453 19.3516C11.4023 18.8945 11.6836 18.2617 11.7187 17.5234C11.789 16.3281 12.7382 15.3438 13.7929 15.0977C14.1797 15.0273 14.5312 14.8516 14.7773 14.5703C15.5507 13.7969 15.6562 12.1094 14.4257 10.5977L11.8242 13.2344C11.9297 13.4453 12 13.6914 12 13.9375C12 14.8867 11.2265 15.625 10.3125 15.625C9.36325 15.625 8.62497 14.8867 8.62497 13.9375C8.62497 13.0234 9.36325 12.25 10.3125 12.25C10.5586 12.25 10.8047 12.3203 11.0156 12.4258L13.6523 9.82422ZM10.3125 13.375C9.99606 13.375 9.74997 13.6562 9.74997 13.9375C9.74997 14.2539 9.99606 14.5 10.3125 14.5C10.5937 14.5 10.875 14.2539 10.875 13.9375C10.875 13.6562 10.5937 13.375 10.3125 13.375Z" fill="#4A5A61"/>
</svg>
