<svg width="24" height="24" viewBox="0 0 24 24" fill="none" xmlns="http://www.w3.org/2000/svg">
<path d="M14.25 10.1758V4.375H9.75V10.1758C9.75 10.8086 9.57422 11.4062 9.22266 11.9688L7.64062 14.5H16.3242L14.7422 11.9688C14.3906 11.4062 14.25 10.8086 14.25 10.1758ZM8.625 4.375H8.0625C7.74609 4.375 7.5 4.12891 7.5 3.8125C7.5 3.53125 7.74609 3.25 8.0625 3.25H9.75H14.25H15.9375C16.2188 3.25 16.5 3.53125 16.5 3.8125C16.5 4.12891 16.2188 4.375 15.9375 4.375H15.375V10.1758C15.375 10.5977 15.4805 11.0195 15.6914 11.3711L19.4883 17.5586C19.7344 17.9453 19.875 18.3672 19.875 18.8242C19.875 20.1602 18.75 21.25 17.4141 21.25H6.55078C5.21484 21.25 4.125 20.1602 4.125 18.8242C4.125 18.3672 4.23047 17.9453 4.47656 17.5586L8.27344 11.3711C8.48438 11.0195 8.625 10.5977 8.625 10.1758V4.375ZM5.42578 18.1211C5.28516 18.332 5.25 18.5781 5.25 18.8242C5.25 19.5625 5.8125 20.125 6.55078 20.125H17.4141C18.1523 20.125 18.75 19.5625 18.75 18.8242C18.75 18.5781 18.6797 18.332 18.5391 18.1211L16.9922 15.625H6.97266L5.42578 18.1211Z" fill="#4A5A61"/>
</svg>
