<svg width="14" height="20" viewBox="0 0 14 20" fill="none" xmlns="http://www.w3.org/2000/svg">
<path d="M11.375 8C11.375 5.59375 9.40625 3.625 7 3.625C4.56641 3.625 2.625 5.59375 2.625 8C2.625 8.4375 2.76172 9.01172 3.0625 9.75C3.36328 10.4609 3.77344 11.2266 4.26562 11.9922C5.19531 13.4961 6.28906 14.9453 7 15.8203C7.68359 14.9453 8.77734 13.4961 9.73438 11.9922C10.1992 11.2266 10.6094 10.4609 10.9102 9.75C11.2109 9.01172 11.375 8.4375 11.375 8ZM12.25 8C12.25 10.4062 9.05078 14.6445 7.62891 16.4219C7.30078 16.832 6.67188 16.832 6.34375 16.4219C4.94922 14.6445 1.75 10.4062 1.75 8C1.75 5.10156 4.10156 2.75 7 2.75C9.89844 2.75 12.25 5.10156 12.25 8ZM5.6875 8C5.6875 8.49219 5.93359 8.90234 6.34375 9.14844C6.72656 9.39453 7.24609 9.39453 7.65625 9.14844C8.03906 8.90234 8.3125 8.49219 8.3125 8C8.3125 7.53516 8.03906 7.125 7.65625 6.87891C7.24609 6.63281 6.72656 6.63281 6.34375 6.87891C5.93359 7.125 5.6875 7.53516 5.6875 8ZM7 10.1875C6.20703 10.1875 5.49609 9.77734 5.08594 9.09375C4.70312 8.4375 4.70312 7.58984 5.08594 6.90625C5.49609 6.25 6.20703 5.8125 7 5.8125C7.76562 5.8125 8.47656 6.25 8.88672 6.90625C9.26953 7.58984 9.26953 8.4375 8.88672 9.09375C8.47656 9.77734 7.76562 10.1875 7 10.1875Z" fill="#8B91A3"/>
</svg>
