<svg width="24" height="24" viewBox="0 0 24 24" fill="none" xmlns="http://www.w3.org/2000/svg">
<path d="M18.1875 16.75V17.875C18.1875 18.1914 17.9062 18.4375 17.625 18.4375C17.3086 18.4375 17.0625 18.1914 17.0625 17.875V16.75H15.9375V17.875C15.9375 18.1914 15.6562 18.4375 15.375 18.4375C15.0586 18.4375 14.8125 18.1914 14.8125 17.875V16.75H11.4375V17.875C11.4375 18.1914 11.1562 18.4375 10.875 18.4375C10.5586 18.4375 10.3125 18.1914 10.3125 17.875V16.75H9.1875V17.875C9.1875 18.1914 8.90625 18.4375 8.625 18.4375C8.30859 18.4375 8.0625 18.1914 8.0625 17.875V16.75H6.9375V17.875C6.9375 18.1914 6.65625 18.4375 6.375 18.4375C6.05859 18.4375 5.8125 18.1914 5.8125 17.875V16.75H4.125V19C4.125 19.6328 4.61719 20.125 5.25 20.125H18.75C19.3477 20.125 19.875 19.6328 19.875 19V16.75H18.1875ZM17.625 15.625H19.875V14.7812C19.875 14.3594 19.6289 13.9727 19.2422 13.7617L17.168 12.7422C16.0781 12.1797 15.375 11.0547 15.375 9.78906C15.375 6.80078 12.9492 4.375 9.96094 4.375H9.75C6.62109 4.375 4.125 6.90625 4.125 10V15.625H6.375H8.625H10.875H15.375H17.625ZM21 14.7812V15.625V16.1875V16.75V19C21 20.2656 19.9805 21.25 18.75 21.25H5.25C3.98438 21.25 3 20.2656 3 19V16.75V16.1875V15.625V10C3 6.27344 6.02344 3.25 9.75 3.25H9.96094C13.5469 3.25 16.5 6.20312 16.5 9.78906C16.5 10.6328 16.957 11.3711 17.6953 11.7578L19.7344 12.7773C20.5078 13.1641 21 13.9375 21 14.7812Z" fill="#4A5A61"/>
</svg>
