<svg width="72" height="72" viewBox="0 0 72 72" fill="none" xmlns="http://www.w3.org/2000/svg">
<path d="M59.2614 36.8095C58.1786 36.6198 61.9795 35.5537 61.9795 35.5537L58.3014 34.8114L61.4214 34.3425L64.3572 33.9016L64.5637 33.2598C61.8177 32.9751 57.6819 32.5453 57.6428 32.5453C57.6037 32.5453 61.5498 31.8421 65.1609 31.3732L65.2781 31.0105C66.3833 27.5388 64.3014 23.8663 60.7572 23.0346L24.1767 14.4449C20.7609 13.6411 17.3563 15.8067 16.6363 19.2393L14.7553 28.1974C17.9535 28.0914 20.9228 29.1072 21.6819 29.0681C21.7488 29.0625 21.8046 29.057 21.8326 29.057C21.8939 29.057 21.8326 29.057 21.6819 29.0681C20.8112 29.1518 17.0214 29.7546 14.3312 30.19L14.2028 30.8039C15.5423 30.8877 16.3516 30.977 16.5916 30.9714C24.227 30.7984 15.0344 32.5007 13.7172 33.0979L10.72 47.3528C9.94976 51.0086 12.5451 54.5193 16.2679 54.8598L51.5144 58.0635C54.4335 58.3314 57.1405 56.5286 58.0335 53.7379L63.3302 37.1277C61.773 37.0328 59.8753 36.9044 59.267 36.7984L59.2614 36.8095Z" fill="#FFD5DA"/>
<path d="M49.518 42.6368C55.9698 42.6368 61.1999 37.4066 61.1999 30.9549C61.1999 24.5032 55.9698 19.2731 49.518 19.2731C43.0663 19.2731 37.8362 24.5032 37.8362 30.9549C37.8362 37.4066 43.0663 42.6368 49.518 42.6368Z" fill="white"/>
<path d="M49.5804 40.5998C54.907 40.5998 59.2251 36.2818 59.2251 30.9552C59.2251 25.6286 54.907 21.3105 49.5804 21.3105C44.2538 21.3105 39.9358 25.6286 39.9358 30.9552C39.9358 36.2818 44.2538 40.5998 49.5804 40.5998Z" fill="#FFF3CD"/>
<path d="M32.3007 22.3596C34.8222 22.3596 36.8663 20.3155 36.8663 17.794C36.8663 15.2725 34.8222 13.2284 32.3007 13.2284C29.7792 13.2284 27.7351 15.2725 27.7351 17.794C27.7351 20.3155 29.7792 22.3596 32.3007 22.3596Z" fill="white"/>
<path d="M32.9472 21.8176C34.9539 21.8176 36.5807 20.1909 36.5807 18.1841C36.5807 16.1774 34.9539 14.5507 32.9472 14.5507C30.9405 14.5507 29.3137 16.1774 29.3137 18.1841C29.3137 20.1909 30.9405 21.8176 32.9472 21.8176Z" fill="#FFF3CD"/>
<path d="M40.7673 40.9848C37.971 38.5458 36.2017 34.9569 36.2017 30.9551C36.2017 28.7783 36.7264 26.7188 37.6585 24.9048H28.0082C26.4119 24.8881 25.1059 26.1718 25.1003 27.7681L25.0557 39.3495C25.0557 40.0806 25.558 40.7169 26.2724 40.8788L28.6501 41.4202V53.6992C28.6501 53.6992 35.7552 53.5932 35.8612 53.6992C35.9673 53.8053 35.8612 41.4927 35.8612 41.4927H40.5831L40.7673 40.9848Z" fill="#FF9BA7"/>
<path d="M7.4729 34.3866C8.51788 34.3866 9.365 33.5395 9.365 32.4945C9.365 31.4495 8.51788 30.6024 7.4729 30.6024C6.42793 30.6024 5.58081 31.4495 5.58081 32.4945C5.58081 33.5395 6.42793 34.3866 7.4729 34.3866Z" stroke="#FFDA6A" stroke-width="1.39535" stroke-linecap="round" stroke-linejoin="round"/>
<path d="M39.9343 9.70533C40.9793 9.70533 41.8264 8.85821 41.8264 7.81324C41.8264 6.76826 40.9793 5.92114 39.9343 5.92114C38.8894 5.92114 38.0422 6.76826 38.0422 7.81324C38.0422 8.85821 38.8894 9.70533 39.9343 9.70533Z" stroke="#FFDA6A" stroke-width="1.39535" stroke-linecap="round" stroke-linejoin="round"/>
<path d="M57.0012 65.8713C58.0462 65.8713 58.8933 65.0242 58.8933 63.9793C58.8933 62.9343 58.0462 62.0872 57.0012 62.0872C55.9562 62.0872 55.1091 62.9343 55.1091 63.9793C55.1091 65.0242 55.9562 65.8713 57.0012 65.8713Z" stroke="#FFDA6A" stroke-width="1.39535" stroke-linecap="round" stroke-linejoin="round"/>
<path d="M15.4885 7.96948L12.2959 11.162" stroke="#F96073" stroke-width="1.39535" stroke-linecap="round" stroke-linejoin="round"/>
<path d="M12.2959 7.96948L15.4885 11.162" stroke="#F96073" stroke-width="1.39535" stroke-linecap="round" stroke-linejoin="round"/>
<path d="M15.4885 62.3772L12.2959 65.5753" stroke="#F96073" stroke-width="1.39535" stroke-linecap="round" stroke-linejoin="round"/>
<path d="M12.2959 62.3772L15.4885 65.5753" stroke="#F96073" stroke-width="1.39535" stroke-linecap="round" stroke-linejoin="round"/>
<path d="M64.5149 16.6097H59.9995" stroke="#F96073" stroke-width="1.39535" stroke-linecap="round" stroke-linejoin="round"/>
<path d="M62.2603 14.3542V18.8696" stroke="#F96073" stroke-width="1.39535" stroke-linecap="round" stroke-linejoin="round"/>
<path d="M15.5177 57.533C14.4852 56.4279 13.8936 55.0884 13.8936 53.4977C13.8936 49.0102 18.9224 46.56 24.7996 45.5051" stroke="#2A3539" stroke-width="1.39535" stroke-linecap="round" stroke-linejoin="round"/>
<path d="M39.6066 45.5334C45.3889 46.5995 50.708 49.0497 50.708 53.5037C50.708 59.8665 41.2028 62.1325 32.3005 62.1325C27.0373 62.1325 21.5619 61.34 17.9619 59.3753" stroke="#2A3539" stroke-width="1.39535" stroke-linecap="round" stroke-linejoin="round"/>
<path d="M39.6186 49.8645C42.8447 50.6292 44.9489 51.885 44.9489 53.3082C44.9489 55.6357 39.2838 57.5278 32.2958 57.5278C25.3079 57.5278 19.6428 55.6412 19.6428 53.3082C19.6428 51.9296 21.6354 50.7017 24.7163 49.9315" stroke="#2A3539" stroke-width="1.39535" stroke-linecap="round" stroke-linejoin="round"/>
<path d="M37.2813 25.0443H27.9213C26.3418 25.0443 25.0469 26.3392 25.0469 27.9187V41.4871H28.0441V53.1466" stroke="#2A3539" stroke-width="1.39535" stroke-linecap="round" stroke-linejoin="round"/>
<path d="M36.5061 53.1526V41.493H40.1787" stroke="#2A3539" stroke-width="1.39535" stroke-linecap="round" stroke-linejoin="round"/>
<path d="M36.8229 17.7941C36.8229 20.289 34.8024 22.3151 32.3019 22.3151C29.8015 22.3151 27.781 20.2946 27.781 17.7941C27.781 15.2937 29.8015 13.2732 32.3019 13.2732C34.8024 13.2732 36.8229 15.2992 36.8229 17.7941Z" stroke="#2A3539" stroke-width="1.39535" stroke-linecap="round" stroke-linejoin="round"/>
<path d="M29.0947 29.4077V36.4961" stroke="#2A3539" stroke-width="1.39535" stroke-linecap="round" stroke-linejoin="round"/>
<path d="M35.4021 29.4077V36.4961" stroke="#2A3539" stroke-width="1.39535" stroke-linecap="round" stroke-linejoin="round"/>
<path d="M49.5788 42.568C55.9935 42.568 61.1936 37.3679 61.1936 30.9531C61.1936 24.5384 55.9935 19.3383 49.5788 19.3383C43.164 19.3383 37.9639 24.5384 37.9639 30.9531C37.9639 37.3679 43.164 42.568 49.5788 42.568Z" stroke="#2A3539" stroke-width="1.39535" stroke-miterlimit="10"/>
<path d="M47.8206 28.8441H49.5173V36.1446H51.6382" stroke="#2A3539" stroke-width="1.39535" stroke-linecap="round" stroke-linejoin="round"/>
<path d="M49.5168 26.3377V25.093" stroke="#2A3539" stroke-width="1.39535" stroke-linecap="round" stroke-linejoin="round"/>
<path d="M32.2996 41.8318V53.4857" stroke="#2A3539" stroke-width="1.39535" stroke-linecap="round" stroke-linejoin="round"/>
</svg>
