<svg width="24" height="24" viewBox="0 0 24 24" fill="none" xmlns="http://www.w3.org/2000/svg">
<path d="M2.68359 3.32031L4.93359 4.44531C5.21484 4.58594 5.32031 4.9375 5.17969 5.21875C5.03906 5.5 4.6875 5.60547 4.40625 5.46484L2.15625 4.33984C1.91016 4.19922 1.76953 3.84766 1.91016 3.56641C2.05078 3.28516 2.40234 3.17969 2.68359 3.32031ZM21.8086 4.33984L19.5586 5.46484C19.2773 5.60547 18.9258 5.46484 18.7852 5.21875C18.6445 4.9375 18.7852 4.58594 19.0312 4.44531L21.2812 3.32031C21.5625 3.17969 21.9141 3.28516 22.0547 3.56641C22.1953 3.84766 22.0898 4.19922 21.8086 4.33984ZM1.3125 8.875H3.5625C3.84375 8.875 4.125 9.15625 4.125 9.4375C4.125 9.75391 3.84375 10 3.5625 10H1.3125C0.996094 10 0.75 9.75391 0.75 9.4375C0.75 9.15625 0.996094 8.875 1.3125 8.875ZM20.4375 8.875H22.6875C22.9688 8.875 23.25 9.15625 23.25 9.4375C23.25 9.75391 22.9688 10 22.6875 10H20.4375C20.1211 10 19.875 9.75391 19.875 9.4375C19.875 9.15625 20.1211 8.875 20.4375 8.875ZM4.93359 14.4648L2.68359 15.5898C2.40234 15.7305 2.05078 15.5898 1.91016 15.3438C1.76953 15.0625 1.91016 14.7109 2.15625 14.5703L4.40625 13.4453C4.6875 13.3047 5.03906 13.4102 5.17969 13.6914C5.32031 13.9727 5.21484 14.3242 4.93359 14.4648ZM19.5586 13.4453L21.8086 14.5703C22.0898 14.7109 22.1953 15.0625 22.0547 15.3438C21.9141 15.625 21.5625 15.7305 21.2812 15.5898L19.0312 14.4648C18.7852 14.3242 18.6445 13.9727 18.7852 13.6914C18.9258 13.4102 19.2773 13.3047 19.5586 13.4453ZM17.0625 9.4375C17.0625 6.66016 14.7773 4.375 12 4.375C9.1875 4.375 6.9375 6.66016 6.9375 9.4375C6.9375 10.5273 7.25391 11.5117 7.81641 12.3203C7.95703 12.5312 8.13281 12.7773 8.30859 12.9883C8.76562 13.6211 9.25781 14.3242 9.64453 15.0273C9.96094 15.5898 10.1367 16.1875 10.207 16.75H9.08203C8.97656 16.3281 8.87109 15.9414 8.66016 15.5547C8.30859 14.9219 7.88672 14.3242 7.42969 13.7266C7.25391 13.4805 7.07812 13.2344 6.90234 12.9883C6.19922 11.9688 5.8125 10.7734 5.8125 9.4375C5.8125 6.02734 8.55469 3.25 12 3.25C15.4102 3.25 18.1875 6.02734 18.1875 9.47266C18.1875 10.7734 17.7656 11.9688 17.0625 12.9883C16.8867 13.2344 16.7109 13.4805 16.5352 13.7266C16.1133 14.3242 15.6562 14.9219 15.3047 15.5547C15.0938 15.9414 14.9883 16.3633 14.918 16.7852H13.7578C13.8633 16.1875 14.0039 15.5898 14.3203 15.0273C14.707 14.3242 15.2344 13.6211 15.6562 13.0234C15.832 12.7773 16.0078 12.5312 16.1484 12.3555C16.7109 11.5117 17.0625 10.5273 17.0625 9.4375ZM9.1875 9.4375C9.1875 9.75391 8.90625 10 8.625 10C8.30859 10 8.0625 9.75391 8.0625 9.4375C8.0625 7.29297 9.82031 5.5 12 5.5C12.2812 5.5 12.5625 5.78125 12.5625 6.0625C12.5625 6.37891 12.2812 6.625 12 6.625C10.418 6.625 9.1875 7.89062 9.1875 9.4375ZM12 20.125H11.9648C12.7031 20.125 13.3359 19.668 13.582 19H10.3828C10.6289 19.668 11.2617 20.125 12 20.125ZM9.1875 18.2617C9.1875 18.0508 9.32812 17.875 9.53906 17.875H14.4258C14.6367 17.875 14.8125 18.0508 14.8125 18.2617V18.4375C14.8125 20.0195 13.5469 21.25 12 21.25C10.418 21.25 9.1875 20.0195 9.1875 18.4375V18.2617Z" fill="#4A5A61"/>
</svg>
