<svg width="72" height="72" viewBox="0 0 72 72" fill="none" xmlns="http://www.w3.org/2000/svg">
<path d="M58.6306 37.2101C57.5406 37.0101 61.3706 35.8901 61.3706 35.8901L57.6606 35.1101L60.8006 34.6201L63.7606 34.1501L63.9706 33.4801C61.2006 33.1801 57.0306 32.7301 56.9906 32.7301C56.9506 32.7301 60.9306 31.9901 64.5706 31.5001L64.6906 31.1201C65.8006 27.4701 63.7106 23.6001 60.1306 22.7201L23.2606 13.6801C19.8206 12.8401 16.3906 15.1101 15.6606 18.7301L13.7606 28.1601C16.9806 28.0501 19.9806 29.1201 20.7406 29.0801C20.8106 29.0801 20.8606 29.0701 20.8906 29.0701C20.9506 29.0701 20.8906 29.0701 20.7406 29.0801C19.8606 29.1701 16.0406 29.8101 13.3306 30.2601L13.2006 30.9101C14.5506 30.9901 15.3706 31.1001 15.6106 31.0901C23.3006 30.9101 14.0406 32.7001 12.7106 33.3301L9.69058 47.9801C8.91058 51.8301 11.5306 55.5201 15.2806 55.8801L50.8006 58.4601C53.7406 58.7401 56.4706 58.0001 57.3706 55.0601L62.7106 37.5801C61.1406 37.4801 59.2306 37.3401 58.6106 37.2301L58.6306 37.2101Z" fill="#FFD5DA"/>
<path d="M57.1802 53.6799H37.7202C36.6902 53.6799 26.4602 39.2499 26.4602 39.2499V14.2299C26.4602 13.1999 27.3002 12.3599 28.3302 12.3599H57.1802C58.2102 12.3599 59.0502 13.1999 59.0502 14.2299V51.8099C59.0502 52.8399 58.2102 53.6799 57.1802 53.6799Z" fill="white"/>
<path d="M56.8201 53.6599H38.6601L28.2601 40.3299V16.0299C28.2601 14.9999 29.1001 14.1599 30.1301 14.1599H56.8201C57.8501 14.1599 58.6901 14.9999 58.6901 16.0299V51.7799C58.6901 52.8099 57.8501 53.6499 56.8201 53.6499V53.6599Z" fill="#FFF3CD"/>
<path d="M42.7501 47.6499C49.1842 47.6499 54.4001 42.434 54.4001 35.9999C54.4001 29.5657 49.1842 24.3499 42.7501 24.3499C36.316 24.3499 31.1001 29.5657 31.1001 35.9999C31.1001 42.434 36.316 47.6499 42.7501 47.6499Z" fill="#FF9BA7"/>
<path d="M47.4802 35.6898C47.4802 34.2198 47.9302 32.8498 48.6902 31.7098C47.4102 29.8098 45.2402 28.5598 42.7802 28.5598C38.8502 28.5598 35.6602 31.7498 35.6602 35.6798C35.6602 39.6098 38.8502 42.7998 42.7802 42.7998C45.2402 42.7998 47.4102 41.5498 48.6902 39.6498C47.9202 38.5098 47.4802 37.1498 47.4802 35.6698V35.6898Z" fill="white"/>
<path d="M45.3402 62.8798H13.3602C12.6802 62.8798 12.1902 62.2298 12.3702 61.5798L13.3502 58.0698H45.6302L46.7402 60.7798C47.1502 61.7798 46.4102 62.8798 45.3302 62.8798H45.3402Z" fill="#FFF3CD"/>
<path d="M31.4101 39.6499C22.0001 33.5799 9.56015 38.3299 9.56015 38.3299L6.20015 51.1699C6.20015 51.1699 6.00015 53.0499 7.33015 53.3799C12.7801 54.7399 13.3601 58.0599 13.3601 58.0599L45.5701 57.9199C45.5701 57.9199 40.8301 45.7199 31.4201 39.6399L31.4101 39.6499ZM12.0101 49.3699L13.5301 42.2199C13.5301 42.2199 17.5601 40.5999 21.8101 41.2799C26.5201 42.0299 30.6701 45.6699 30.9401 49.3399L12.0101 49.3799V49.3699Z" fill="white"/>
<path d="M29.8101 41.2C22.6201 36.69 9.0901 40.08 9.0901 40.08L6.2301 51.56C6.2301 51.56 6.5401 53.48 7.7501 53.78C12.7401 55.03 13.2701 58.06 13.2701 58.06L42.7601 57.93C42.7601 57.93 38.4901 46.64 29.8001 41.2H29.8101ZM12.0101 49.37L13.3801 42.61C13.3801 42.61 17.9001 40.8 21.8101 41.28C27.9701 42.04 30.6901 45.98 30.9401 49.34L12.0101 49.38V49.37Z" fill="#FF9BA7"/>
<path d="M7.78 59.89C7.78 58.85 6.93 58 5.89 58C4.84 58 4 58.85 4 59.89C4 60.93 4.85 61.78 5.89 61.78C6.93 61.78 7.78 60.93 7.78 59.89Z" stroke="#FFDA6A" stroke-width="1.4" stroke-linecap="round" stroke-linejoin="round"/>
<path d="M66.3197 53.68C66.3197 52.64 65.4697 51.79 64.4297 51.79C63.3897 51.79 62.5397 52.64 62.5397 53.68C62.5397 54.73 63.3897 55.57 64.4297 55.57C65.4697 55.57 66.3197 54.72 66.3197 53.68Z" stroke="#FFDA6A" stroke-width="1.4" stroke-linecap="round" stroke-linejoin="round"/>
<path d="M29.6696 5.92003C29.6696 4.88003 28.8196 4.03003 27.7796 4.03003C26.7396 4.03003 25.8896 4.88003 25.8896 5.92003C25.8896 6.96003 26.7396 7.81003 27.7796 7.81003C28.8196 7.81003 29.6696 6.96003 29.6696 5.92003Z" stroke="#FFDA6A" stroke-width="1.4" stroke-linecap="round" stroke-linejoin="round"/>
<path d="M65.1697 12.0501L61.9697 8.86011" stroke="#F96073" stroke-width="1.4" stroke-linecap="round" stroke-linejoin="round"/>
<path d="M61.9797 12.0501L65.1797 8.86011" stroke="#F96073" stroke-width="1.4" stroke-linecap="round" stroke-linejoin="round"/>
<path d="M56.0297 66.72L52.8297 63.53" stroke="#F96073" stroke-width="1.4" stroke-linecap="round" stroke-linejoin="round"/>
<path d="M52.8297 66.72L56.0297 63.53" stroke="#F96073" stroke-width="1.4" stroke-linecap="round" stroke-linejoin="round"/>
<path d="M11.0497 20.77H6.52966" stroke="#F96073" stroke-width="1.4" stroke-linecap="round" stroke-linejoin="round"/>
<path d="M8.78967 23.03V18.51" stroke="#F96073" stroke-width="1.4" stroke-linecap="round" stroke-linejoin="round"/>
<path d="M26.5797 33.9501V14.1501C26.5797 13.1601 27.3797 12.3501 28.3797 12.3501H57.1297C58.1197 12.3501 58.9297 13.1501 58.9297 14.1501V51.8801C58.9297 52.8701 58.1297 53.6801 57.1297 53.6801H46.9497" stroke="#2A3539" stroke-width="1.4" stroke-linecap="round" stroke-linejoin="round"/>
<path d="M31.1097 34.71C31.6097 28.72 36.6297 24.02 42.7497 24.02C49.1997 24.02 54.4297 29.25 54.4297 35.7C54.4297 42.15 49.5797 46.99 43.4497 47.36" stroke="#2A3539" stroke-width="1.4" stroke-linecap="round" stroke-linejoin="round"/>
<path d="M26.5797 19.54H54.4297" stroke="#2A3539" stroke-width="1.4" stroke-linecap="round" stroke-linejoin="round"/>
<path d="M31.0697 15.9502H35.5597" stroke="#2A3539" stroke-width="1.4" stroke-linecap="round" stroke-linejoin="round"/>
<path d="M47.2397 35.7C47.2397 34.21 47.8497 32.86 48.8297 31.88C47.5597 29.86 45.3097 28.51 42.7497 28.51C38.7797 28.51 35.5597 31.73 35.5597 35.7C35.5597 39.67 38.7797 42.89 42.7497 42.89C45.3097 42.89 47.5597 41.54 48.8297 39.52C47.8497 38.54 47.2397 37.19 47.2397 35.7Z" stroke="#2A3539" stroke-width="1.4" stroke-linecap="round" stroke-linejoin="round"/>
<path d="M53.1198 15.9502H54.4298" stroke="#2A3539" stroke-width="1.4" stroke-linecap="round" stroke-linejoin="round"/>
<path d="M50.0297 15.9502H51.3397" stroke="#2A3539" stroke-width="1.4" stroke-linecap="round" stroke-linejoin="round"/>
<path d="M46.9497 15.9502H48.2597" stroke="#2A3539" stroke-width="1.4" stroke-linecap="round" stroke-linejoin="round"/>
<path d="M45.6397 58.0701C34.1397 35.4801 24.6597 34.8101 10.3397 37.9401C9.65975 38.0901 9.11975 38.6301 8.96975 39.3101L6.23975 51.5601C6.00975 52.5701 6.63975 53.5701 7.59975 53.7501C10.3197 54.2501 12.6597 55.9001 13.3597 58.1301L45.6397 58.0701Z" stroke="#2A3539" stroke-width="1.4" stroke-linecap="round" stroke-linejoin="round"/>
<path d="M30.9398 49.3302C29.6098 39.8702 16.5698 40.0202 13.3698 42.6002L11.9998 49.3602" stroke="#2A3539" stroke-width="1.4" stroke-linecap="round" stroke-linejoin="round"/>
<path d="M13.3497 58.1301L12.3397 61.6601C12.1597 62.2701 12.6297 62.8801 13.2597 62.8801L46.0197 62.5601C46.6897 62.5601 47.1497 61.8701 46.8997 61.2501L45.6297 58.0701" stroke="#2A3539" stroke-width="1.4" stroke-linecap="round" stroke-linejoin="round"/>
<path d="M12.0098 49.3701L30.9398 49.3301" stroke="#2A3539" stroke-width="1.4" stroke-linecap="round" stroke-linejoin="round"/>
<path d="M17.4297 45.3L22.8397 45.29" stroke="#2A3539" stroke-width="1.4" stroke-linecap="round" stroke-linejoin="round"/>
</svg>
