<svg width="72" height="72" viewBox="0 0 72 72" fill="none" xmlns="http://www.w3.org/2000/svg">
<path d="M60.0074 35.9101C58.8712 35.702 62.8593 34.5376 62.8593 34.5376L58.9949 33.7276L62.2687 33.2157L65.3512 32.732L65.5649 32.0289C62.6793 31.7139 58.3424 31.247 58.3031 31.247C58.2637 31.247 62.4037 30.4764 66.1949 29.9645L66.3187 29.5707C67.4774 25.7682 65.2893 21.7351 61.5712 20.8239L23.1693 11.3964C19.5862 10.5189 16.0087 12.8926 15.2549 16.6557L13.2749 26.477C16.6331 26.3589 19.7493 27.4726 20.5481 27.4332C20.6156 27.4276 20.6774 27.422 20.7056 27.422C20.7674 27.422 20.7056 27.422 20.5481 27.4332C19.6312 27.5232 15.6599 28.187 12.8306 28.6651L12.6956 29.3345C14.1018 29.4245 14.9512 29.5257 15.2043 29.5201C23.2199 29.3289 13.5674 31.1964 12.1893 31.8489L9.04494 47.1038C8.23494 51.1145 10.9631 54.962 14.8668 55.3332L51.8681 58.022C54.9281 58.3145 57.7743 57.5439 58.7081 54.4839L64.2656 36.2757C62.6287 36.1745 60.6374 36.0282 60.0018 35.9157L60.0074 35.9101Z" fill="#FFD5DA"/>
<path d="M35.7469 12.887C24.75 12.887 15.8344 21.8026 15.8344 32.7995C15.8344 43.7963 24.75 52.712 35.7469 52.712C46.7437 52.712 55.6593 43.7963 55.6593 32.7995C55.6593 21.8026 46.7437 12.887 35.7469 12.887ZM42.3 46.1757C34.9143 49.7926 25.9931 46.7438 22.3762 39.3582C18.7594 31.9726 21.8081 23.0513 29.1937 19.4345C36.5794 15.8176 45.5006 18.8663 49.1175 26.252C52.7343 33.6376 49.6856 42.5588 42.3 46.1757Z" fill="#FF9BA7"/>
<path d="M57.4875 48.9658L63.1688 54.6471C64.3725 55.8508 64.3725 57.8027 63.1688 59.0008C61.965 60.2045 60.0131 60.2045 58.815 59.0008L53.1338 53.3195C51.93 52.1158 51.93 50.1639 53.1338 48.9658C54.3375 47.7621 56.2894 47.7621 57.4875 48.9658Z" fill="#FF9BA7"/>
<path d="M35.7468 45.8326C42.8579 45.8326 48.6225 40.0679 48.6225 32.9569C48.6225 25.8459 42.8579 20.0813 35.7468 20.0813C28.6358 20.0813 22.8712 25.8459 22.8712 32.9569C22.8712 40.0679 28.6358 45.8326 35.7468 45.8326Z" fill="white"/>
<path d="M35.8425 34.1326C33.4462 34.1326 31.8544 32.102 31.8544 29.5989V28.0858C31.8544 25.5826 33.4462 23.552 35.8425 23.552C38.2387 23.552 39.8306 25.5826 39.8306 28.0858V29.5989C39.8306 32.102 38.2387 34.1326 35.8425 34.1326Z" fill="#FFF3CD"/>
<path d="M35.8481 34.1943C32.8613 34.1943 29.205 36.6581 29.205 38.1712L29.0363 42.435C30.9544 43.5712 33.1931 44.2237 35.5781 44.2237C37.9631 44.2237 40.3594 43.5262 42.3169 42.3168L42.4856 38.1712C42.4856 36.6581 38.8294 34.1943 35.8481 34.1943Z" fill="#FF9BA7"/>
<path d="M57.24 11.9531V16.5094" stroke="#F96073" stroke-width="1.40625" stroke-linecap="round" stroke-linejoin="round"/>
<path d="M54.9675 14.2314H59.5182" stroke="#F96073" stroke-width="1.40625" stroke-linecap="round" stroke-linejoin="round"/>
<path d="M47.0138 60.5027L50.2313 63.7258" stroke="#F96073" stroke-width="1.40625" stroke-linecap="round" stroke-linejoin="round"/>
<path d="M47.0138 63.7258L50.2313 60.5027" stroke="#F96073" stroke-width="1.40625" stroke-linecap="round" stroke-linejoin="round"/>
<path d="M7.29565 41.8276L10.5132 45.0508" stroke="#F96073" stroke-width="1.40625" stroke-linecap="round" stroke-linejoin="round"/>
<path d="M7.29565 45.0508L10.5132 41.8276" stroke="#F96073" stroke-width="1.40625" stroke-linecap="round" stroke-linejoin="round"/>
<path d="M23.2313 63.72C24.2845 63.72 25.1382 62.8663 25.1382 61.8131C25.1382 60.76 24.2845 59.9062 23.2313 59.9062C22.1782 59.9062 21.3245 60.76 21.3245 61.8131C21.3245 62.8663 22.1782 63.72 23.2313 63.72Z" stroke="#FFDA6A" stroke-width="1.40625" stroke-linecap="round" stroke-linejoin="round"/>
<path d="M26.1957 9.3826C27.2488 9.3826 28.1026 8.52886 28.1026 7.47572C28.1026 6.42258 27.2488 5.56885 26.1957 5.56885C25.1426 5.56885 24.2888 6.42258 24.2888 7.47572C24.2888 8.52886 25.1426 9.3826 26.1957 9.3826Z" stroke="#FFDA6A" stroke-width="1.40625" stroke-linecap="round" stroke-linejoin="round"/>
<path d="M35.7469 47.9309C43.9732 47.9309 50.6419 41.2621 50.6419 33.0359C50.6419 24.8096 43.9732 18.1409 35.7469 18.1409C27.5206 18.1409 20.8519 24.8096 20.8519 33.0359C20.8519 41.2621 27.5206 47.9309 35.7469 47.9309Z" stroke="#2A3539" stroke-width="1.40625" stroke-linecap="round" stroke-linejoin="round"/>
<path d="M35.747 52.9483C46.7443 52.9483 55.6595 44.0332 55.6595 33.0358C55.6595 22.0384 46.7443 13.1233 35.747 13.1233C24.7496 13.1233 15.8345 22.0384 15.8345 33.0358C15.8345 44.0332 24.7496 52.9483 35.747 52.9483Z" stroke="#2A3539" stroke-width="1.40625" stroke-linecap="round" stroke-linejoin="round"/>
<path d="M25.4758 35.8088C24.7895 33.272 25.082 30.6226 26.1958 28.3501" stroke="#2A3539" stroke-width="1.40625" stroke-linecap="round" stroke-linejoin="round"/>
<path d="M57.4876 48.9658L63.1689 54.6471C64.3726 55.8508 64.3726 57.8027 63.1689 59.0008C61.9651 60.2045 60.0133 60.2045 58.8151 59.0008L53.1339 53.3195C51.9301 52.1158 51.9301 50.1639 53.1339 48.9658C54.3376 47.7621 56.2895 47.7621 57.4876 48.9658Z" stroke="#2A3539" stroke-width="1.40625" stroke-linecap="round" stroke-linejoin="round"/>
<path d="M50.8276 46.6653L53.1339 48.9659" stroke="#2A3539" stroke-width="1.40625" stroke-linecap="round" stroke-linejoin="round"/>
<path d="M42.4857 41.8277V38.1715C42.4857 36.6583 38.8295 34.1946 35.8482 34.1946C32.867 34.1946 29.2051 36.6583 29.2051 38.1715V41.8277" stroke="#2A3539" stroke-width="1.40625" stroke-linecap="round" stroke-linejoin="round"/>
<path d="M35.8425 34.1326C33.4462 34.1326 31.8544 32.102 31.8544 29.5989V28.0858C31.8544 25.5826 33.4462 23.552 35.8425 23.552C38.2387 23.552 39.8306 25.5826 39.8306 28.0858V29.5989C39.8306 32.102 38.2387 34.1326 35.8425 34.1326Z" stroke="#2A3539" stroke-width="1.40625" stroke-linecap="round" stroke-linejoin="round"/>
</svg>
