<svg width="72" height="72" viewBox="0 0 72 72" fill="none" xmlns="http://www.w3.org/2000/svg">
<path d="M58.6175 32.5521C57.5263 32.3608 61.3569 31.2865 61.3569 31.2865L57.65 30.5383L60.7944 30.0658L63.7531 29.6215L63.9613 28.9746C61.1938 28.6877 57.0256 28.2546 56.9863 28.2546C56.9469 28.2546 60.9238 27.5458 64.5631 27.0733L64.6813 26.7077C65.795 23.209 63.6969 19.5077 60.125 18.6696L23.2588 10.0127C19.8163 9.20271 16.385 11.3852 15.6594 14.8446L13.7638 23.8727C16.9869 23.7658 19.9794 24.7896 20.7444 24.7502C20.8119 24.7446 20.8681 24.739 20.8963 24.739C20.9581 24.739 20.8963 24.739 20.7444 24.7502C19.8669 24.8346 16.0475 25.4421 13.3363 25.8808L13.2069 26.4996C14.5569 26.584 15.3725 26.674 15.6144 26.6683C23.3094 26.494 14.045 28.2096 12.7175 28.8115L9.69688 43.1777C8.92063 46.8621 11.5363 50.4002 15.2881 50.7433L50.81 53.9721C53.7519 54.2421 56.48 52.4252 57.38 49.6127L62.7181 32.8727C61.1488 32.7771 59.2363 32.6477 58.6231 32.5408L58.6175 32.5521Z" fill="#FFD5DA"/>
<path d="M49.7857 20.5318L52.6151 19.8793C53.9707 19.5643 55.3432 20.4193 55.6526 21.7805L61.8007 48.4655C62.1157 49.8212 61.2607 51.1937 59.8995 51.503L21.5257 60.3399C20.1701 60.6549 18.7976 59.7999 18.4882 58.4387L12.3401 31.7537C12.0251 30.398 12.8801 29.0255 14.2414 28.7162L29.5976 25.178L49.7914 20.5262L49.7857 20.5318Z" fill="white"/>
<path d="M50.2701 21.2231L52.9588 20.6043C54.2526 20.3062 55.5463 21.0937 55.8388 22.3593L61.5482 47.1431C61.8407 48.4031 61.0195 49.68 59.7257 49.9781L23.2195 58.3875C21.9257 58.6856 20.632 57.8981 20.3395 56.6325L14.6301 31.8487C14.3376 30.5887 15.1588 29.3118 16.4526 29.0137L31.0607 25.65L50.2701 21.2231Z" fill="#FFF3CD"/>
<path d="M43.0981 16.9256C43.07 19.1362 41.2531 20.9025 39.0425 20.8743C36.8318 20.8462 35.0656 19.0293 35.0937 16.8187C35.1218 14.6081 36.9387 12.8418 39.1437 12.87C41.3487 12.8981 43.1206 14.715 43.0925 16.9256H43.0981Z" fill="white"/>
<path d="M39.2229 7.50392C34.0479 7.43642 29.801 11.5764 29.7335 16.7458C29.666 21.9152 38.8235 37.817 38.8235 37.817C38.8235 37.817 48.3973 22.1627 48.4648 16.9877C48.5323 11.8127 44.3923 7.56579 39.2173 7.49829L39.2229 7.50392ZM39.0485 20.8745C36.8379 20.8464 35.0717 19.0295 35.0998 16.8189C35.1279 14.6083 36.9448 12.842 39.1498 12.8702C41.3604 12.8983 43.1267 14.7152 43.0985 16.9258C43.0704 19.1364 41.2535 20.9027 39.0429 20.8745H39.0485Z" fill="#FF9BA7"/>
<path d="M10.8218 55.3721V59.9283" stroke="#F96073" stroke-width="1.40625" stroke-linecap="round" stroke-linejoin="round"/>
<path d="M8.54321 57.6506H13.0938" stroke="#F96073" stroke-width="1.40625" stroke-linecap="round" stroke-linejoin="round"/>
<path d="M55.9503 9.16357V13.7142" stroke="#F96073" stroke-width="1.40625" stroke-linecap="round" stroke-linejoin="round"/>
<path d="M53.6783 11.4409H58.229" stroke="#F96073" stroke-width="1.40625" stroke-linecap="round" stroke-linejoin="round"/>
<path d="M56.6205 57.8076L59.838 61.0251" stroke="#F96073" stroke-width="1.40625" stroke-linecap="round" stroke-linejoin="round"/>
<path d="M56.6205 61.0251L59.838 57.8076" stroke="#F96073" stroke-width="1.40625" stroke-linecap="round" stroke-linejoin="round"/>
<path d="M8.03125 13.168L11.2488 16.3855" stroke="#F96073" stroke-width="1.40625" stroke-linecap="round" stroke-linejoin="round"/>
<path d="M8.03125 16.3855L11.2488 13.168" stroke="#F96073" stroke-width="1.40625" stroke-linecap="round" stroke-linejoin="round"/>
<path d="M49.983 21.15L52.8124 20.4975C54.168 20.1825 55.5405 21.0375 55.8499 22.3987L61.998 49.0837C62.313 50.4393 61.458 51.8118 60.0967 52.1212L21.723 60.9581C20.3674 61.2731 18.9949 60.4181 18.6855 59.0568L12.5374 32.3718C12.2224 31.0162 13.0774 29.6437 14.4386 29.3343L29.7949 25.7962" stroke="#2A3539" stroke-width="1.40625" stroke-linecap="round" stroke-linejoin="round"/>
<path d="M39.0984 56.9197L35.2115 40.0335L36.3928 38.5991" stroke="#2A3539" stroke-width="1.40625" stroke-linecap="round" stroke-linejoin="round"/>
<path d="M37.0679 48.4373L27.0498 50.7435" stroke="#2A3539" stroke-width="1.40625" stroke-miterlimit="10" stroke-linecap="round"/>
<path d="M51.3438 39.167L43.0975 41.0514" stroke="#2A3539" stroke-width="1.40625" stroke-miterlimit="10" stroke-linecap="round"/>
<path d="M29.9809 33.6936L13.764 37.423" stroke="#2A3539" stroke-width="1.40625" stroke-miterlimit="10" stroke-linecap="round"/>
<path d="M28.9123 59.3095L21.6335 27.7139" stroke="#2A3539" stroke-width="1.40625" stroke-miterlimit="10" stroke-linecap="round"/>
<path d="M54.6124 53.2065L49.6849 31.8147L57.5656 29.9978" stroke="#2A3539" stroke-width="1.40625" stroke-linecap="round" stroke-linejoin="round"/>
<path d="M48.4643 16.5936C48.3968 21.7686 38.823 37.423 38.823 37.423C38.823 37.423 29.6655 21.5211 29.733 16.3517C29.8005 11.1823 34.0474 7.03671 39.2224 7.10984C44.3974 7.17734 48.5374 11.4242 48.4699 16.5992L48.4643 16.5936Z" stroke="#2A3539" stroke-width="1.40625" stroke-linecap="round" stroke-linejoin="round"/>
<path d="M43.0976 16.5262C43.0695 18.7368 41.2526 20.503 39.042 20.4749C36.8314 20.4468 35.0651 18.6299 35.0932 16.4193C35.1214 14.2087 36.9382 12.4424 39.1432 12.4705C41.3482 12.4987 43.1201 14.3155 43.092 16.5262H43.0976Z" stroke="#2A3539" stroke-width="1.40625" stroke-linecap="round" stroke-linejoin="round"/>
<path d="M7.35634 38.6775C8.40948 38.6775 9.26321 37.8238 9.26321 36.7706C9.26321 35.7175 8.40948 34.8638 7.35634 34.8638C6.3032 34.8638 5.44946 35.7175 5.44946 36.7706C5.44946 37.8238 6.3032 38.6775 7.35634 38.6775Z" stroke="#FFDA6A" stroke-width="1.40625" stroke-linecap="round" stroke-linejoin="round"/>
<path d="M65.8278 39.729C66.8809 39.729 67.7346 38.8753 67.7346 37.8222C67.7346 36.769 66.8809 35.9153 65.8278 35.9153C64.7746 35.9153 63.9209 36.769 63.9209 37.8222C63.9209 38.8753 64.7746 39.729 65.8278 39.729Z" stroke="#FFDA6A" stroke-width="1.40625" stroke-linecap="round" stroke-linejoin="round"/>
<path d="M41.5952 64.8394C42.6484 64.8394 43.5021 63.9856 43.5021 62.9325C43.5021 61.8794 42.6484 61.0256 41.5952 61.0256C40.5421 61.0256 39.6884 61.8794 39.6884 62.9325C39.6884 63.9856 40.5421 64.8394 41.5952 64.8394Z" stroke="#FFDA6A" stroke-width="1.40625" stroke-linecap="round" stroke-linejoin="round"/>
</svg>
