<svg width="24" height="24" viewBox="0 0 24 24" fill="none" xmlns="http://www.w3.org/2000/svg">
<path d="M18.5117 4.79688L14.0469 9.26172C14.6445 9.22656 15.2422 9.29688 15.8047 9.47266L17.7031 7.57422C17.9141 7.36328 18.2656 7.36328 18.5117 7.57422C18.7227 7.78516 18.7227 8.13672 18.5117 8.38281L16.8594 10C16.9297 10.0703 17.0352 10.1406 17.1055 10.2109C16.6836 10.3164 16.2266 10.4922 15.8047 10.7031C14.5742 10.1055 12.9922 10.3164 11.9375 11.3359L13.1328 12.5312C13.2383 12.6719 13.3438 12.7422 13.4844 12.8477C13.2383 13.1992 13.0273 13.5859 12.8867 14.0078C11.5859 13.2344 9.86328 13.4102 8.77344 14.5352L9.96875 15.7305C10.6367 16.3984 11.6562 16.5742 12.5 16.1875C12.5 16.5742 12.5352 16.9609 12.6055 17.3477C12.3242 17.418 12.0078 17.4883 11.7266 17.4883L11.9375 17.6992C12.1484 17.9453 12.1484 18.2969 11.9375 18.5078L10.7422 19.7031C9.44141 21.0039 7.29688 21.0039 5.96094 19.7031L4.80078 18.5078L2.19922 21.1094C1.98828 21.3203 1.63672 21.3203 1.39062 21.1094C1.17969 20.8633 1.17969 20.5117 1.39062 20.3008L3.99219 17.6992L2.79688 16.5391C1.49609 15.2031 1.49609 13.0586 2.79688 11.7578L3.99219 10.5625C4.20312 10.3516 4.55469 10.3516 4.76562 10.5625L4.97656 10.7734C5.04688 9.96484 5.36328 9.19141 5.96094 8.55859L7.15625 7.36328C7.40234 7.15234 7.75391 7.15234 7.96484 7.36328L8.17578 7.57422C8.21094 6.80078 8.5625 5.99219 9.16016 5.39453L10.3555 4.19922C10.5664 3.98828 10.918 3.98828 11.1289 4.19922L11.9375 4.97266C12.1484 5.18359 12.3242 5.39453 12.4648 5.64062L14.1172 3.98828C14.3633 3.77734 14.7148 3.77734 14.9258 3.98828C15.1367 4.19922 15.1367 4.58594 14.9258 4.79688L13.0273 6.69531C13.2031 7.25781 13.2734 7.85547 13.2383 8.45312L17.7031 3.98828C17.9141 3.77734 18.3008 3.77734 18.5117 3.98828C18.7227 4.19922 18.7227 4.58594 18.5117 4.79688ZM7.96484 13.7266C9.30078 12.3906 9.26562 10.2812 7.96484 8.98047L7.57812 8.55859L6.76953 9.36719C5.89062 10.2461 5.89062 11.6523 6.76953 12.5312L7.96484 13.7266ZM9.96875 6.16797C9.08984 7.04688 9.08984 8.48828 9.96875 9.36719L11.1289 10.5625C12.4648 9.22656 12.4648 7.11719 11.1289 5.78125L10.7422 5.39453L9.96875 6.16797ZM4.37891 11.7578L3.60547 12.5312C2.72656 13.4102 2.72656 14.8516 3.60547 15.7305L4.80078 16.9258C6.10156 15.5898 6.10156 13.4805 4.80078 12.1445L4.37891 11.7578ZM10.7422 18.1211L10.3555 17.6992C9.01953 16.3984 6.91016 16.3984 5.57422 17.6992L6.76953 18.8945C7.64844 19.7734 9.08984 19.7734 9.96875 18.8945L10.7422 18.1211ZM14.75 16.1875C14.75 17.6289 15.4883 18.8945 16.7188 19.5977C17.9141 20.3359 19.4258 20.3359 20.6562 19.5977C21.8516 18.8945 22.625 17.6289 22.625 16.1875C22.625 14.7812 21.8516 13.5156 20.6562 12.8125C19.4258 12.0742 17.9141 12.0742 16.7188 12.8125C15.4883 13.5156 14.75 14.7812 14.75 16.1875ZM23.75 16.1875C23.75 18.0156 22.7656 19.668 21.2188 20.582C19.6367 21.4961 17.7031 21.4961 16.1562 20.582C14.5742 19.668 13.625 18.0156 13.625 16.1875C13.625 14.3945 14.5742 12.7422 16.1562 11.8281C17.7031 10.9141 19.6367 10.9141 21.2188 11.8281C22.7656 12.7422 23.75 14.3945 23.75 16.1875ZM18.6875 19C18.1953 19 17.8438 18.6484 17.8438 18.1562C17.8438 17.6992 18.1953 17.3125 18.6875 17.3125C19.1445 17.3125 19.5312 17.6992 19.5312 18.1562C19.5312 18.6484 19.1445 19 18.6875 19ZM18.6875 13.375C18.9688 13.375 19.25 13.6562 19.25 13.9375V16.1875C19.25 16.5039 18.9688 16.75 18.6875 16.75C18.3711 16.75 18.125 16.5039 18.125 16.1875V13.9375C18.125 13.6562 18.3711 13.375 18.6875 13.375Z" fill="#4A5A61"/>
</svg>
