<svg width="24" height="24" viewBox="0 0 24 24" fill="none" xmlns="http://www.w3.org/2000/svg">
<path d="M6.375 4.33984C6.375 3.74219 6.83203 3.25 7.42969 3.25H13.1953C13.7578 3.25 14.25 3.74219 14.25 4.30469C14.25 4.41016 14.2148 4.55078 14.1797 4.65625L12.7734 8.875H17.7305C18.293 8.875 18.75 9.33203 18.75 9.89453C18.75 10.0703 18.6797 10.2812 18.5742 10.457L11.4023 20.8984C11.2617 21.1094 10.9805 21.25 10.6992 21.25C10.1367 21.25 9.71484 20.7227 9.85547 20.1602L11.543 13.375H6.30469C5.70703 13.375 5.25 12.918 5.25 12.3203C5.25 12.25 5.25 12.2148 5.25 12.1445L6.375 4.33984ZM7.5 4.375C7.5 4.44531 7.46484 4.48047 7.46484 4.51562L6.375 12.25H12.2812C12.4219 12.25 12.5977 12.3555 12.7031 12.4961C12.8086 12.6367 12.8438 12.8125 12.8086 12.9531L11.2617 19.1055L17.4844 10H12C11.7891 10 11.6484 9.92969 11.543 9.78906C11.4375 9.64844 11.4023 9.4375 11.4375 9.26172L13.0898 4.375H7.5Z" fill="#4A5A61"/>
</svg>
