<svg width="24" height="24" viewBox="0 0 24 24" fill="none" xmlns="http://www.w3.org/2000/svg">
<path d="M19.0742 3.42578C19.2852 3.63672 19.2852 4.02344 19.0742 4.23438L17.1406 6.13281C16.8242 6.44922 16.4023 6.625 15.9453 6.625H11.9375C10.6719 6.625 9.6875 7.64453 9.6875 8.875V12.25C9.6875 12.8828 10.1797 13.375 10.8125 13.375C11.4102 13.375 11.9375 12.8828 11.9375 12.25V9.15625C11.9375 8.875 12.1836 8.59375 12.5 8.59375C12.7812 8.59375 13.0625 8.875 13.0625 9.15625V10H17C18.2305 10 19.25 11.0195 19.25 12.25C19.25 13.1289 18.7578 13.8672 18.0547 14.2539C18.0898 14.4297 18.125 14.6055 18.125 14.7812C18.125 15.8359 17.3867 16.7148 16.4023 16.9961C16.2969 18.1211 15.3477 19 14.1875 19H9.58203C9.44141 19 9.30078 19.0703 9.19531 19.1758L7.26172 21.1094C7.05078 21.3203 6.69922 21.3203 6.45312 21.1094C6.24219 20.8984 6.24219 20.5117 6.45312 20.3008L8.38672 18.4023C8.70312 18.0859 9.125 17.875 9.58203 17.875H14.1875C14.7852 17.875 15.3125 17.3828 15.3125 16.75C15.3125 16.7148 15.2773 16.6445 15.2773 16.5742C15.2422 16.3984 15.3125 16.2578 15.418 16.1172C15.5234 15.9766 15.6641 15.9062 15.8398 15.9062H15.875C16.4727 15.9062 17 15.4141 17 14.7812C17 14.5703 16.9297 14.3945 16.8242 14.2188C16.7188 14.043 16.7188 13.8672 16.7891 13.6914C16.8594 13.5156 17.0352 13.4102 17.2109 13.375C17.7031 13.2695 18.125 12.8125 18.125 12.25C18.125 11.6523 17.5977 11.125 17 11.125H13.0625V12.25C13.0625 13.5156 12.043 14.5 10.8125 14.5C9.54688 14.5 8.5625 13.5156 8.5625 12.25V8.875C8.5625 7.01172 10.0742 5.5 11.9375 5.5H15.9453C16.0859 5.5 16.2617 5.46484 16.3672 5.35938L18.2656 3.42578C18.4766 3.21484 18.8633 3.21484 19.0742 3.42578ZM5.64453 9.96484C5.96094 9.08594 6.62891 8.41797 7.4375 8.06641V9.36719C7.08594 9.61328 6.83984 9.96484 6.69922 10.3516L5.78516 12.8125C5.71484 13.0234 5.57422 13.2344 5.39844 13.4102L2.19922 16.6094C1.98828 16.8203 1.60156 16.8203 1.39062 16.6094C1.17969 16.3984 1.17969 16.0117 1.39062 15.8008L4.58984 12.6016C4.66016 12.5312 4.69531 12.4609 4.73047 12.3906L5.64453 9.96484ZM23.5742 7.92578C23.7852 8.13672 23.7852 8.52344 23.5742 8.73438L20.3398 11.9336C20.3047 11.5117 20.1641 11.0898 19.9883 10.7031L22.7656 7.92578C22.9766 7.71484 23.3633 7.71484 23.5742 7.92578Z" fill="#4A5A61"/>
</svg>
