<svg width="24" height="24" viewBox="0 0 24 24" fill="none" xmlns="http://www.w3.org/2000/svg">
<path d="M10.8749 5.5C10.8749 6.13281 11.3671 6.625 11.9999 6.625C12.5975 6.625 13.1249 6.13281 13.1249 5.5C13.1249 4.90234 12.5975 4.375 11.9999 4.375C11.3671 4.375 10.8749 4.90234 10.8749 5.5ZM14.2499 5.5C14.2499 6.30859 13.7929 7.04688 13.1249 7.46875C12.4218 7.85547 11.5429 7.85547 10.8749 7.46875C10.1718 7.04688 9.74989 6.30859 9.74989 5.5C9.74989 4.72656 10.1718 3.98828 10.8749 3.56641C11.5429 3.17969 12.4218 3.17969 13.1249 3.56641C13.7929 3.98828 14.2499 4.72656 14.2499 5.5ZM8.94129 11.7227H8.97645L7.39442 14.2539C7.25379 14.5 6.90223 14.6055 6.62098 14.4297C6.37489 14.2539 6.26942 13.9375 6.4452 13.6562L7.99207 11.125C8.83582 9.71875 10.3475 8.875 11.9999 8.875C13.6171 8.875 15.1288 9.71875 15.9725 11.125L17.5194 13.6562C17.6952 13.9375 17.5897 14.2891 17.3436 14.4297C17.0624 14.6055 16.746 14.5 16.5702 14.2539L15.0233 11.7227C14.953 11.6172 14.8827 11.5117 14.8124 11.4062V20.6875C14.8124 21.0039 14.5311 21.25 14.2499 21.25C13.9335 21.25 13.6874 21.0039 13.6874 20.6875V16.75H10.3124V20.6875C10.3124 21.0039 10.0311 21.25 9.74989 21.25C9.43348 21.25 9.18739 21.0039 9.18739 20.6875V11.4062C9.08192 11.5117 9.0116 11.6172 8.94129 11.7227ZM13.6874 15.625V10.457C13.16 10.1758 12.5975 10 11.9999 10C11.4022 10 10.8046 10.1758 10.3124 10.457V15.625H13.6874Z" fill="#4A5A61"/>
</svg>
