<svg width="24" height="24" viewBox="0 0 24 24" fill="none" xmlns="http://www.w3.org/2000/svg">
<path d="M4.125 12.25C4.125 16.6094 7.64062 20.1602 12 20.1602C16.3242 20.1602 19.875 16.6094 19.875 12.2852C19.875 11.0898 19.5938 10 19.1719 9.01562C19.0312 8.73438 19.1367 8.38281 19.418 8.27734C19.7344 8.13672 20.0508 8.27734 20.1914 8.55859C20.6836 9.68359 21 10.9492 21 12.25C21 17.2422 16.957 21.25 12 21.25C7.00781 21.25 3 17.2422 3 12.25C3 7.29297 7.00781 3.25 12 3.25C13.3008 3.25 14.5664 3.56641 15.7266 4.05859C16.0078 4.19922 16.1133 4.55078 15.9727 4.83203C15.8672 5.11328 15.5156 5.21875 15.2344 5.07812C14.25 4.65625 13.1602 4.375 12 4.375C7.64062 4.375 4.125 7.92578 4.125 12.25ZM11.1562 16.75C11.1562 17.2422 11.5078 17.5938 12 17.5938C12.457 17.5938 12.8438 17.2422 12.8438 16.75C12.8438 16.293 12.457 15.9062 12 15.9062C11.5078 15.9062 11.1562 16.293 11.1562 16.75ZM13.9688 16.75C13.9688 17.4883 13.582 18.1211 12.9844 18.4727C12.3516 18.8242 11.6133 18.8242 11.0156 18.4727C10.3828 18.1211 10.0312 17.4883 10.0312 16.75C10.0312 16.0469 10.3828 15.4141 11.0156 15.0625C11.6133 14.7109 12.3516 14.7109 12.9844 15.0625C13.582 15.4141 13.9688 16.0469 13.9688 16.75ZM14.25 7.75C13.9336 7.75 13.6875 7.50391 13.6875 7.1875C13.6875 6.90625 13.9336 6.625 14.25 6.625H16.5C16.7109 6.625 16.9219 6.76562 16.9922 6.97656C17.0977 7.1875 17.0273 7.43359 16.8867 7.60938L15.5859 8.875H16.5C16.7812 8.875 17.0625 9.15625 17.0625 9.4375C17.0625 9.75391 16.7812 10 16.5 10H14.25C14.0039 10 13.793 9.85938 13.7227 9.68359C13.6172 9.47266 13.6875 9.22656 13.8281 9.05078L15.1289 7.75H14.25ZM17.625 3.8125C17.625 3.53125 17.8711 3.25 18.1875 3.25H20.4375C20.6484 3.25 20.8594 3.39062 20.9297 3.60156C21.0352 3.8125 20.9648 4.05859 20.8242 4.23438L19.5234 5.5H20.4375C20.7188 5.5 21 5.78125 21 6.0625C21 6.37891 20.7188 6.625 20.4375 6.625H18.1875C17.9414 6.625 17.7305 6.48438 17.6602 6.30859C17.5547 6.09766 17.625 5.85156 17.7656 5.67578L19.0664 4.375H18.1875C17.8711 4.375 17.625 4.12891 17.625 3.8125ZM16.6055 11.6523C16.7812 11.4062 17.1328 11.3359 17.3789 11.5469C17.625 11.7227 17.6953 12.0742 17.4844 12.3203C16.4297 13.7617 14.2852 13.7617 13.2305 12.3203C13.0195 12.0742 13.0898 11.7227 13.3359 11.5469C13.582 11.3359 13.9336 11.4062 14.1094 11.6523C14.7422 12.4609 15.9727 12.4609 16.6055 11.6523ZM7.35938 11.6523C7.99219 12.4609 9.22266 12.4609 9.85547 11.6523C10.0312 11.4062 10.3828 11.3359 10.6289 11.5469C10.875 11.7227 10.9453 12.0742 10.7344 12.3203C9.67969 13.7617 7.53516 13.7617 6.48047 12.3203C6.26953 12.0742 6.33984 11.7227 6.58594 11.5469C6.83203 11.3359 7.18359 11.4062 7.35938 11.6523Z" fill="#4A5A61"/>
</svg>
