<svg width="24" height="24" viewBox="0 0 24 24" fill="none" xmlns="http://www.w3.org/2000/svg">
<path d="M12.5 3.25C12.7812 3.25 13.0625 3.53125 13.0625 3.8125V9.61328C13.0625 10.3516 13.4492 11.0898 14.082 11.5117L14.75 11.8984V9.08594C14.75 7.71484 15.8398 6.625 17.1758 6.625C17.9492 6.625 18.6875 7.01172 19.1445 7.64453C19.6719 8.41797 20.6914 9.96484 21.6406 11.7578C22.5547 13.5508 23.4688 15.7305 23.7148 17.7344C23.7148 17.8047 23.7148 17.8398 23.7148 17.875V18.1211C23.7148 19.8789 22.3438 21.25 20.5859 21.25C20.3398 21.25 20.0938 21.25 19.8477 21.1797L17.2812 20.5469C15.8047 20.1602 14.75 18.8242 14.75 17.2422V14.5703L15.875 15.2734V17.2422C15.875 18.2969 16.5781 19.1758 17.5625 19.457L20.1289 20.0898C20.2695 20.125 20.4453 20.125 20.6211 20.125C21.7109 20.125 22.625 19.2461 22.625 18.1211V17.875C22.3789 16.0469 21.5352 14.043 20.6211 12.2852C19.707 10.5273 18.7227 9.05078 18.1953 8.3125C17.9844 7.96094 17.5977 7.78516 17.1758 7.78516C16.4375 7.78516 15.875 8.34766 15.875 9.08594V12.6367L18.9688 14.6055C19.25 14.7812 19.3203 15.1328 19.1445 15.3789C18.9688 15.6602 18.6172 15.7305 18.3711 15.5547L15.875 13.9727L14.75 13.2344L13.4844 12.4609C13.0977 12.1797 12.7461 11.8633 12.5 11.4766C12.2188 11.8633 11.9023 12.1797 11.4805 12.4609L10.25 13.2344L9.125 13.9727L6.59375 15.5547C6.34766 15.7305 5.99609 15.625 5.82031 15.3789C5.64453 15.1328 5.75 14.7812 5.99609 14.6055L9.125 12.6367V9.08594C9.125 8.34766 8.52734 7.75 7.78906 7.75C7.36719 7.75 6.98047 7.96094 6.76953 8.3125C6.24219 9.05078 5.25781 10.5273 4.34375 12.2852C3.42969 14.043 2.58594 16.0469 2.375 17.875V18.1211C2.375 19.2461 3.25391 20.125 4.37891 20.125C4.51953 20.125 4.69531 20.125 4.83594 20.0898L7.40234 19.457C8.42188 19.1758 9.125 18.2969 9.125 17.2422V15.2734L10.25 14.5703V17.2422C10.25 18.8242 9.19531 20.1602 7.68359 20.5469L5.11719 21.1797C4.87109 21.25 4.625 21.25 4.37891 21.25C2.62109 21.25 1.25 19.8789 1.25 18.1211V17.875C1.25 17.8398 1.25 17.8047 1.25 17.7344C1.49609 15.7305 2.41016 13.5508 3.32422 11.7578C4.27344 9.96484 5.29297 8.41797 5.82031 7.64453C6.27734 7.01172 7.01562 6.625 7.78906 6.625C9.16016 6.625 10.25 7.71484 10.25 9.08594V11.8984L10.8828 11.4766C11.5156 11.0898 11.9375 10.3516 11.9375 9.57812V3.8125C11.9375 3.53125 12.1836 3.25 12.5 3.25Z" fill="#4A5A61"/>
</svg>
