<svg width="24" height="24" viewBox="0 0 24 24" fill="none" xmlns="http://www.w3.org/2000/svg">
<path d="M20.8242 4.23438L18.5742 6.48438C18.3633 6.69531 17.9766 6.69531 17.7656 6.48438C17.5547 6.27344 17.5547 5.88672 17.7656 5.67578L20.0156 3.42578C20.2266 3.21484 20.6133 3.21484 20.8242 3.42578C21.0352 3.63672 21.0352 4.02344 20.8242 4.23438ZM9.57422 15.4844L3.94922 21.1094C3.73828 21.3203 3.35156 21.3203 3.14062 21.1094C2.92969 20.8984 2.92969 20.5117 3.14062 20.3008L8.76562 14.6758C8.97656 14.4648 9.36328 14.4648 9.57422 14.6758C9.78516 14.8867 9.78516 15.2734 9.57422 15.4844ZM11.4375 6.625C8.625 6.625 6.375 8.91016 6.375 11.6875C6.375 12.0039 6.09375 12.25 5.8125 12.25C5.49609 12.25 5.25 12.0039 5.25 11.6875C5.25 8.27734 7.99219 5.5 11.4375 5.5C14.8477 5.5 17.625 8.27734 17.625 11.6875C17.625 13.5156 16.8516 15.1328 15.6211 16.2578C15.4453 16.3984 15.375 16.6094 15.375 16.75C15.375 19.2461 13.3359 21.25 10.875 21.25H10.3125C9.99609 21.25 9.75 21.0039 9.75 20.6875C9.75 20.4062 9.99609 20.125 10.3125 20.125H10.875C12.7383 20.125 14.25 18.6133 14.25 16.75C14.25 16.2227 14.4961 15.7656 14.8477 15.4141C15.8672 14.5 16.5 13.1641 16.5 11.6875C16.5 8.91016 14.2148 6.625 11.4375 6.625ZM11.4375 8.875C9.85547 8.875 8.625 10.1406 8.625 11.6875C8.625 12.0039 8.34375 12.25 8.0625 12.25C7.74609 12.25 7.5 12.0039 7.5 11.6875C7.5 9.54297 9.25781 7.75 11.4375 7.75C13.582 7.75 15.375 9.54297 15.375 11.6875C15.375 12.0039 15.0938 12.25 14.8125 12.25C14.4961 12.25 14.25 12.0039 14.25 11.6875C14.25 10.1406 12.9844 8.875 11.4375 8.875Z" fill="#4A5A61"/>
</svg>
