<svg width="24" height="24" viewBox="0 0 24 24" fill="none" xmlns="http://www.w3.org/2000/svg">
<path d="M1.25 11.4766C1.25 8.80469 3.39453 6.625 6.06641 6.625C7.4375 6.625 8.77344 7.22266 9.6875 8.27734L12.5 11.4062L15.2773 8.27734C16.1914 7.22266 17.5273 6.625 18.8984 6.625C21.5703 6.625 23.75 8.80469 23.75 11.4766V13.0586C23.75 15.7305 21.5703 17.875 18.8984 17.875C17.5273 17.875 16.1914 17.3125 15.2773 16.2578L12.5 13.1289L9.6875 16.2578C8.77344 17.3125 7.4375 17.875 6.06641 17.875C3.39453 17.875 1.25 15.7305 1.25 13.0586V11.4766ZM11.7266 12.25L8.84375 9.01562C8.14062 8.20703 7.12109 7.75 6.06641 7.75C4.02734 7.75 2.375 9.4375 2.375 11.4766V13.0586C2.375 15.0977 4.02734 16.75 6.06641 16.75C7.12109 16.75 8.14062 16.3281 8.84375 15.5195L11.7266 12.25ZM13.2383 12.25L16.1211 15.5195C16.8242 16.3281 17.8438 16.75 18.8984 16.75C20.9375 16.75 22.625 15.0977 22.625 13.0586V11.4766C22.625 9.4375 20.9375 7.75 18.8984 7.75C17.8438 7.75 16.8242 8.20703 16.1211 9.01562L13.2383 12.25Z" fill="#4A5A61"/>
</svg>
