<svg width="24" height="24" viewBox="0 0 24 24" fill="none" xmlns="http://www.w3.org/2000/svg">
<path d="M6.45312 5.5C5.96094 5.5 5.50391 5.85156 5.39844 6.34375L3.99219 11.7578C4.83594 11.0195 5.92578 10.5625 7.15625 10.5625C9.08984 10.5625 10.7422 11.7227 11.5156 13.375H13.4844C14.2227 11.7227 15.875 10.5625 17.8438 10.5625C19.0391 10.5625 20.1289 11.0195 20.9727 11.7578L19.5664 6.34375C19.4609 5.85156 19.0039 5.5 18.5117 5.5C18.3359 5.5 18.1602 5.57031 18.0195 5.64062L17.2461 6.02734C16.9648 6.16797 16.6133 6.02734 16.4727 5.78125C16.332 5.5 16.4375 5.14844 16.7188 5.00781L17.4922 4.62109C17.8086 4.48047 18.1602 4.375 18.5117 4.375C19.5312 4.375 20.4102 5.07812 20.6562 6.0625L22.3789 12.707C22.5195 13.3047 22.625 13.9023 22.625 14.5352V15.3438C22.625 18.0156 20.4805 20.125 17.8438 20.125C15.1719 20.125 13.0625 18.0156 13.0625 15.3438C13.0625 15.0625 13.0625 14.7812 13.1328 14.5H11.832C11.9023 14.7812 11.9375 15.0625 11.9375 15.3438C11.9375 18.0156 9.79297 20.125 7.15625 20.125C4.48438 20.125 2.375 18.0156 2.375 15.3438V14.5352C2.375 13.9023 2.44531 13.3047 2.58594 12.707L4.30859 6.0625C4.55469 5.07812 5.43359 4.375 6.45312 4.375C6.80469 4.375 7.15625 4.48047 7.47266 4.62109L8.24609 5.00781C8.52734 5.14844 8.63281 5.5 8.49219 5.78125C8.35156 6.0625 8 6.16797 7.71875 6.02734L6.94531 5.64062C6.80469 5.57031 6.62891 5.53516 6.45312 5.53516V5.5ZM21.5 15.3438C21.5 14.043 20.7969 12.8477 19.6719 12.1797C18.5117 11.5469 17.1406 11.5469 16.0156 12.1797C14.8555 12.8477 14.1875 14.043 14.1875 15.3438C14.1875 16.6797 14.8555 17.875 16.0156 18.543C17.1406 19.1758 18.5117 19.1758 19.6719 18.543C20.7969 17.875 21.5 16.6797 21.5 15.3438ZM7.15625 19C8.45703 19 9.65234 18.332 10.3203 17.1719C10.9531 16.0469 10.9531 14.6758 10.3203 13.5156C9.65234 12.3906 8.45703 11.6875 7.15625 11.6875C5.82031 11.6875 4.625 12.3906 3.95703 13.5156C3.32422 14.6758 3.32422 16.0469 3.95703 17.1719C4.625 18.332 5.82031 19 7.15625 19Z" fill="#4A5A61"/>
</svg>
