<svg width="24" height="24" viewBox="0 0 24 24" fill="none" xmlns="http://www.w3.org/2000/svg">
<path d="M5.71484 3.28516C5.71484 3.32031 5.75 3.32031 5.78516 3.32031C5.92578 3.35547 6.10156 3.35547 6.24219 3.42578C6.34766 3.46094 6.48828 3.49609 6.59375 3.53125C6.83984 3.63672 6.80469 3.98828 6.55859 4.09375C6.48828 4.12891 6.41797 4.16406 6.34766 4.23438C6.20703 4.30469 6.10156 4.375 5.99609 4.48047C5.99609 4.48047 5.99609 4.48047 5.96094 4.51562C5.46875 4.97266 5.1875 5.64062 5.1875 6.34375C5.1875 7.67969 6.17188 8.73438 7.4375 8.875H7.47266C7.54297 8.875 7.61328 8.875 7.68359 8.875C7.75391 8.875 7.82422 8.875 7.89453 8.875C7.96484 8.875 8.07031 8.875 8.14062 8.83984C8.42188 8.80469 8.66797 9.05078 8.52734 9.26172C8.45703 9.40234 8.38672 9.50781 8.28125 9.61328C8.21094 9.71875 8.10547 9.82422 8 9.92969C7.96484 9.96484 7.96484 10 7.92969 10C7.22656 10.7031 6.24219 11.125 5.1875 11.125C3.00781 11.125 1.25 9.36719 1.25 7.1875C1.25 5.04297 3.00781 3.25 5.1875 3.25C5.36328 3.25 5.53906 3.28516 5.71484 3.28516ZM4.0625 6.34375C4.0625 5.67578 4.23828 5.00781 4.58984 4.44531C3.32422 4.72656 2.375 5.85156 2.375 7.1875C2.375 8.76953 3.60547 10 5.1875 10C5.60938 10 5.99609 9.92969 6.34766 9.75391C5.01172 9.22656 4.0625 7.89062 4.0625 6.34375ZM15.6641 6.76562L23.5391 13.5156C23.7852 13.7266 23.8203 14.0781 23.6094 14.3242C23.3984 14.5703 23.0469 14.5703 22.8008 14.3945L21.5 13.2344V19C21.5 20.2656 20.4805 21.25 19.25 21.25H11.375C10.1094 21.25 9.125 20.2656 9.125 19V13.2344L7.78906 14.3945C7.54297 14.5703 7.19141 14.5703 6.98047 14.3242C6.80469 14.0781 6.80469 13.7266 7.05078 13.5156L14.9258 6.76562C15.1367 6.58984 15.4531 6.58984 15.6641 6.76562ZM20.375 12.2852L15.3125 7.96094L10.25 12.2852V19C10.25 19.6328 10.7422 20.125 11.375 20.125H19.25C19.8477 20.125 20.375 19.6328 20.375 19V12.2852ZM13.0625 13.9375C13.0625 13.3398 13.5547 12.8125 14.1875 12.8125H16.4375C17.0352 12.8125 17.5625 13.3398 17.5625 13.9375V16.1875C17.5625 16.8203 17.0352 17.3125 16.4375 17.3125H14.1875C13.5547 17.3125 13.0625 16.8203 13.0625 16.1875V13.9375ZM16.4375 13.9375H14.1875V16.1875H16.4375V13.9375ZM10.25 3.25C10.5312 3.25 10.8125 3.53125 10.8125 3.8125V4.9375H11.9375C12.2188 4.9375 12.5 5.21875 12.5 5.5C12.5 5.81641 12.2188 6.0625 11.9375 6.0625H10.8125V7.1875C10.8125 7.50391 10.5312 7.75 10.25 7.75C9.93359 7.75 9.6875 7.50391 9.6875 7.1875V6.0625H8.5625C8.24609 6.0625 8 5.81641 8 5.5C8 5.21875 8.24609 4.9375 8.5625 4.9375H9.6875V3.8125C9.6875 3.53125 9.93359 3.25 10.25 3.25ZM4.625 14.5C4.90625 14.5 5.1875 14.7812 5.1875 15.0625V16.1875H6.3125C6.59375 16.1875 6.875 16.4688 6.875 16.75C6.875 17.0664 6.59375 17.3125 6.3125 17.3125H5.1875V18.4375C5.1875 18.7539 4.90625 19 4.625 19C4.30859 19 4.0625 18.7539 4.0625 18.4375V17.3125H2.9375C2.62109 17.3125 2.375 17.0664 2.375 16.75C2.375 16.4688 2.62109 16.1875 2.9375 16.1875H4.0625V15.0625C4.0625 14.7812 4.30859 14.5 4.625 14.5Z" fill="#4A5A61"/>
</svg>
