<svg width="24" height="24" viewBox="0 0 24 24" fill="none" xmlns="http://www.w3.org/2000/svg">
<path d="M7.74609 3.21483C7.99219 3.03905 8.34375 3.10936 8.51953 3.35546C8.69531 3.63671 8.625 3.95311 8.37891 4.1289C5.8125 5.92186 4.125 8.87499 4.125 12.25C4.125 16.6094 7.64062 20.125 12 20.125C16.3594 20.125 19.875 16.6094 19.875 12.25C19.875 8.98046 17.2383 6.34374 13.9688 6.34374C10.6992 6.34374 8.0625 8.98046 8.0625 12.25C8.0625 14.4297 9.82031 16.1875 12 16.1875C14.1797 16.1875 15.9375 14.4297 15.9375 12.25C15.9375 11.1601 15.0586 10.2812 13.9688 10.2812C12.8789 10.2812 12 11.1601 12 12.25C12 12.5664 11.7539 12.8125 11.4375 12.8125C11.1211 12.8125 10.875 12.5664 10.875 12.25C10.875 10.5273 12.2461 9.15624 13.9688 9.15624C15.6914 9.15624 17.0625 10.5273 17.0625 12.25C17.0625 15.0625 14.8125 17.3125 12 17.3125C9.22266 17.3125 6.9375 15.0625 6.9375 12.25C6.9375 8.3828 10.1016 5.21874 13.9688 5.21874C17.8711 5.21874 21 8.3828 21 12.25C21 17.207 16.957 21.25 12 21.25C7.04297 21.25 3 17.207 3 12.25C3 8.48827 4.86328 5.18358 7.74609 3.21483Z" fill="#4A5A61"/>
</svg>
