<svg width="24" height="24" viewBox="0 0 24 24" fill="none" xmlns="http://www.w3.org/2000/svg">
<path d="M17.4492 9.4375C17.6602 9.78906 17.6602 10.2109 17.4492 10.5625C17.2734 10.9141 16.8867 11.125 16.5 11.125H9.75C9.32812 11.125 8.94141 10.9141 8.76562 10.5625C8.55469 10.2109 8.55469 9.78906 8.76562 9.4375L12.1406 3.8125C12.3516 3.46094 12.7031 3.25 13.125 3.25C13.5117 3.25 13.8633 3.46094 14.0742 3.8125L17.4492 9.4375ZM13.125 4.375L9.75 10H16.5L13.125 4.375ZM19.5938 13.9375H14.5312C14.3555 13.9375 14.25 14.0781 14.25 14.2188V19.2812C14.25 19.457 14.3555 19.5625 14.5312 19.5625H19.5938C19.7344 19.5625 19.875 19.457 19.875 19.2812V14.2188C19.875 14.0781 19.7344 13.9375 19.5938 13.9375ZM14.5312 12.8125H19.5938C20.3672 12.8125 21 13.4453 21 14.2188V19.2812C21 20.0898 20.3672 20.6875 19.5938 20.6875H14.5312C13.7227 20.6875 13.125 20.0898 13.125 19.2812V14.2188C13.125 13.4453 13.7227 12.8125 14.5312 12.8125ZM10.875 16.75C10.875 15.5547 10.207 14.4648 9.1875 13.832C8.13281 13.2344 6.83203 13.2344 5.8125 13.832C4.75781 14.4648 4.125 15.5547 4.125 16.75C4.125 17.9805 4.75781 19.0703 5.8125 19.7031C6.83203 20.3008 8.13281 20.3008 9.1875 19.7031C10.207 19.0703 10.875 17.9805 10.875 16.75ZM3 16.75C3 15.168 3.84375 13.6914 5.25 12.8828C6.62109 12.0742 8.34375 12.0742 9.75 12.8828C11.1211 13.6914 12 15.168 12 16.75C12 18.3672 11.1211 19.8438 9.75 20.6523C8.34375 21.4609 6.62109 21.4609 5.25 20.6523C3.84375 19.8438 3 18.3672 3 16.75Z" fill="#4A5A61"/>
</svg>
