<svg width="24" height="24" viewBox="0 0 24 24" fill="none" xmlns="http://www.w3.org/2000/svg">
<path d="M10.3125 6.0625C10.3125 6.69531 10.6289 7.22266 11.1562 7.53906C11.6484 7.85547 12.3164 7.85547 12.8437 7.53906C13.3359 7.22266 13.6875 6.69531 13.6875 6.0625C13.6875 5.46484 13.3359 4.9375 12.8437 4.62109C12.3164 4.30469 11.6484 4.30469 11.1562 4.62109C10.6289 4.9375 10.3125 5.46484 10.3125 6.0625ZM14.8125 6.0625C14.8125 7.08203 14.25 7.99609 13.4062 8.52344C12.5273 9.01562 11.4375 9.01562 10.5937 8.52344C9.71483 7.99609 9.18749 7.08203 9.18749 6.0625C9.18749 5.07812 9.71483 4.16406 10.5937 3.63672C11.4375 3.14453 12.5273 3.14453 13.4062 3.63672C14.25 4.16406 14.8125 5.07812 14.8125 6.0625ZM7.74608 12.8828L5.84764 15.7305C5.39061 16.4336 5.63671 17.418 6.4453 17.7695L11.6484 20.1953C11.9297 20.3359 12.0703 20.6523 11.9297 20.9336C11.7891 21.2148 11.4726 21.3555 11.1914 21.2148L5.95311 18.7891C4.54686 18.1562 4.05468 16.3984 4.93358 15.0977L6.79686 12.2852C7.74608 10.8789 9.32811 10 11.0156 10H13.4062C14.8125 10 16.1484 10.5977 17.0976 11.6172L19.0664 13.6914C19.9805 14.6758 19.9805 16.2227 19.0312 17.1719L16.3242 19.9844C16.1133 20.1953 15.7617 20.1953 15.5156 19.9844C15.3047 19.7734 15.3047 19.4219 15.5156 19.1758L18.2226 16.3984C18.75 15.8711 18.75 14.9922 18.2226 14.4648L16.2891 12.3906C15.5508 11.582 14.4961 11.125 13.4062 11.125H11.0156C9.71483 11.125 8.48436 11.793 7.74608 12.8828ZM10.875 14.5V16.0469C11.5781 17.207 12.8437 17.875 14.1797 17.875H14.25C14.5312 17.875 14.8125 18.1562 14.8125 18.4375C14.8125 18.7539 14.5312 19 14.25 19H14.1797C12.457 19 10.8398 18.1211 9.89061 16.6445C9.78514 16.4688 9.74999 16.2578 9.74999 16.0469V14.5C9.74999 14.2188 9.99608 13.9375 10.3125 13.9375C10.5937 13.9375 10.875 14.2188 10.875 14.5ZM13.6875 14.5C13.3711 14.5 13.125 14.7812 13.125 15.0625C13.125 15.3789 13.3711 15.625 13.6875 15.625C13.9687 15.625 14.25 15.3789 14.25 15.0625C14.25 14.7812 13.9687 14.5 13.6875 14.5ZM13.6875 16.75C13.0547 16.75 12.5273 16.4336 12.2109 15.9062C11.8945 15.4141 11.8945 14.7461 12.2109 14.2188C12.5273 13.7266 13.0547 13.375 13.6875 13.375C14.2851 13.375 14.8125 13.7266 15.1289 14.2188C15.4453 14.7461 15.4453 15.4141 15.1289 15.9062C14.8125 16.4336 14.2851 16.75 13.6875 16.75Z" fill="#4A5A61"/>
</svg>
