<svg width="24" height="24" viewBox="0 0 24 24" fill="none" xmlns="http://www.w3.org/2000/svg">
<path d="M12.3867 3.42578L17.3438 8.38281C17.5195 8.55859 17.625 8.80469 17.625 9.05078C17.625 9.57812 17.168 10 16.6406 10H16.0078L18.5039 12.918C18.6445 13.0938 18.75 13.3047 18.75 13.5508C18.75 14.0781 18.293 14.5 17.7656 14.5H17.1328L19.6289 17.418C19.7695 17.5938 19.875 17.8047 19.875 18.0508C19.875 18.5781 19.418 19 18.8906 19H14.25H12.5625V20.6875C12.5625 21.0039 12.2812 21.25 12 21.25C11.6836 21.25 11.4375 21.0039 11.4375 20.6875V19H9.75H5.07422C4.54688 19 4.125 18.5781 4.125 18.0508C4.125 17.8047 4.19531 17.5938 4.33594 17.418L6.83203 14.5H6.19922C5.67188 14.5 5.25 14.0781 5.25 13.5508C5.25 13.3047 5.32031 13.0938 5.46094 12.918L7.95703 10H7.32422C6.79688 10 6.375 9.57812 6.375 9.05078C6.375 8.80469 6.44531 8.55859 6.65625 8.38281L11.5781 3.42578C11.7891 3.21484 12.1758 3.21484 12.3867 3.42578ZM12.5625 17.875H14.25H18.5391L15.4805 14.3242C15.3398 14.1484 15.3047 13.9023 15.4102 13.7266C15.5156 13.5156 15.6914 13.375 15.9375 13.375H17.4141L14.3555 9.82422C14.2148 9.64844 14.1797 9.40234 14.2852 9.22656C14.3906 9.01562 14.5664 8.875 14.8125 8.875H16.2539L12 4.62109L7.71094 8.875H9.1875C9.39844 8.875 9.60938 9.01562 9.67969 9.22656C9.78516 9.40234 9.75 9.64844 9.60938 9.82422L6.55078 13.375H8.0625C8.27344 13.375 8.48438 13.5156 8.55469 13.7266C8.66016 13.9023 8.625 14.1484 8.48438 14.3242L5.42578 17.875H9.75H11.4375V10.5625C11.4375 10.2812 11.6836 10 12 10C12.2812 10 12.5625 10.2812 12.5625 10.5625V17.875Z" fill="#4A5A61"/>
</svg>
