<svg width="42" height="42" viewBox="0 0 42 42" fill="none" xmlns="http://www.w3.org/2000/svg">
<path d="M33.9676 21.7057C33.3318 21.589 35.5659 20.9357 35.5659 20.9357L33.4018 20.4807L35.2334 20.1949L36.9601 19.9207L37.0826 19.5299C35.4668 19.3549 33.0343 19.0924 33.0109 19.0924C32.9876 19.0924 35.3093 18.6607 37.4326 18.3749L37.5026 18.1532C38.1501 16.024 36.9309 13.7665 34.8426 13.2532L13.3351 7.97988C11.3284 7.48988 9.32761 8.81404 8.90178 10.9257L7.79344 16.4265C9.67178 16.3624 11.4218 16.9865 11.8651 16.9632C11.9059 16.9632 11.9351 16.9574 11.9526 16.9574C11.9876 16.9574 11.9526 16.9574 11.8651 16.9632C11.3518 17.0157 9.12344 17.389 7.54261 17.6515L7.46678 18.0307C8.25428 18.0774 8.73261 18.1415 8.87261 18.1357C13.3584 18.0307 7.95678 19.0749 7.18094 19.4424L5.41928 27.9882C4.96428 30.234 6.49261 32.3865 8.68011 32.5965L29.4001 34.1015C31.1151 34.2649 32.7076 33.8332 33.2326 32.1182L36.3476 21.9215C35.4318 21.8632 34.3176 21.7815 33.9559 21.7174L33.9676 21.7057Z" fill="#FFD5DA"/>
<path d="M9.41479 14.7407L10.4765 34.2065L31.5698 33.1682L30.1756 7.39648L14.9098 8.11982L9.41479 14.7407Z" fill="white"/>
<path d="M10.459 14.2215L11.5148 33.0165L30.2865 32.1473L29.0148 8.59229L15.1781 9.33895L15.2773 13.9648L10.4531 14.2215H10.459Z" fill="#FFF3CD"/>
<path d="M21.8981 6.21819L22.0614 6.12486L26.8914 5.87402L27.4748 7.00569L27.9239 15.289L25.8706 13.854L23.8348 15.5224L23.3739 7.71736L21.4198 7.87486L21.3731 7.22152C21.3439 6.81319 21.5481 6.42819 21.9039 6.22402L21.8981 6.21819Z" fill="#FF9BA7"/>
<path d="M12.7048 16.7181C12.8506 16.7181 20.8365 16.3506 20.8365 16.3506L21.3731 24.6864C21.3731 24.6864 13.049 25.2581 13.0315 25.1881C13.014 25.1181 12.7048 16.7181 12.7048 16.7181Z" fill="white"/>
<path d="M15.0206 25.013V22.7147C15.0206 22.7147 15.4348 21.9214 16.2631 21.8514C17.0915 21.7814 18.159 21.5072 18.5031 21.8514C18.8473 22.1955 19.2206 23.0239 19.2206 23.0239L19.4248 24.838L15.0265 25.013H15.0206Z" fill="#FF9BA7"/>
<path d="M15.6156 20.0432V19.349C15.6156 19.1273 15.674 18.9115 15.7965 18.7248C15.9248 18.5265 16.1231 18.3107 16.3915 18.2815C16.9048 18.2173 17.5756 17.9607 17.7915 18.2815C17.9373 18.5032 18.0948 18.9348 18.1765 19.1798C18.2173 19.2965 18.2348 19.4248 18.2348 19.5473V20.0315C18.2348 20.6615 17.7331 21.1748 17.109 21.1865H16.7765C16.1406 21.204 15.6156 20.679 15.6156 20.0373V20.0432Z" fill="#FFF3CD"/>
<path d="M11.894 13.6205L14.2915 10.7446L14.414 13.428L11.8881 13.6205H11.894Z" fill="#FFF3CD"/>
<path d="M29.2773 40.2323C33.939 40.2323 37.7181 36.4532 37.7181 31.7914C37.7181 27.1297 33.939 23.3506 29.2773 23.3506C24.6155 23.3506 20.8365 27.1297 20.8365 31.7914C20.8365 36.4532 24.6155 40.2323 29.2773 40.2323Z" fill="white"/>
<path d="M29.2773 38.1788C32.805 38.1788 35.6648 35.319 35.6648 31.7913C35.6648 28.2636 32.805 25.4038 29.2773 25.4038C25.7496 25.4038 22.8898 28.2636 22.8898 31.7913C22.8898 35.319 25.7496 38.1788 29.2773 38.1788Z" fill="#FF9BA7"/>
<path d="M28.7231 31.628L32.229 28.2622L33.8973 29.738L28.3323 35.3205L25.2056 31.908L26.9381 30.2397L28.484 31.8555L28.7231 31.628Z" fill="white"/>
<path d="M34.9361 5.43652V8.15486" stroke="#F96073" stroke-linecap="round" stroke-linejoin="round"/>
<path d="M33.5769 6.7959H36.2953" stroke="#F96073" stroke-linecap="round" stroke-linejoin="round"/>
<path d="M39.6028 23.7417L37.6778 25.6609" stroke="#F96073" stroke-linecap="round" stroke-linejoin="round"/>
<path d="M37.6778 23.7417L39.6028 25.6609" stroke="#F96073" stroke-linecap="round" stroke-linejoin="round"/>
<path d="M2.32193 20.0376L4.24693 21.9626" stroke="#F96073" stroke-linecap="round" stroke-linejoin="round"/>
<path d="M2.32193 21.9626L4.24693 20.0376" stroke="#F96073" stroke-linecap="round" stroke-linejoin="round"/>
<path d="M6.48693 37.4146C7.11515 37.4146 7.62443 36.9054 7.62443 36.2771C7.62443 35.6489 7.11515 35.1396 6.48693 35.1396C5.8587 35.1396 5.34943 35.6489 5.34943 36.2771C5.34943 36.9054 5.8587 37.4146 6.48693 37.4146Z" stroke="#FFDA6A" stroke-linecap="round" stroke-linejoin="round"/>
<path d="M12.5653 5.08652C13.1935 5.08652 13.7028 4.57725 13.7028 3.94902C13.7028 3.3208 13.1935 2.81152 12.5653 2.81152C11.937 2.81152 11.4278 3.3208 11.4278 3.94902C11.4278 4.57725 11.937 5.08652 12.5653 5.08652Z" stroke="#FFDA6A" stroke-linecap="round" stroke-linejoin="round"/>
<path d="M30.9811 22.295L30.2344 8.51081C30.1994 7.89831 29.6744 7.42581 29.0678 7.46081L28.7061 7.47831" stroke="#2A3539" stroke-linecap="round" stroke-linejoin="round"/>
<path d="M22.2136 7.82812L16.0244 8.13146C15.4703 8.16062 14.9511 8.41146 14.5894 8.82562L10.1211 13.9356C9.67194 14.449 9.43861 15.1198 9.47944 15.8081L10.4244 33.104C10.4594 33.7165 10.9786 34.1831 11.5911 34.154L20.0844 33.734" stroke="#2A3539" stroke-linecap="round" stroke-linejoin="round"/>
<path d="M9.78278 14.7173L15.5403 14.2506L15.1844 8.59229" stroke="#2A3539" stroke-linecap="round" stroke-linejoin="round"/>
<path d="M22.9778 18.2407L27.7436 18.0132" stroke="#2A3539" stroke-linecap="round" stroke-linejoin="round"/>
<path d="M23.1411 21.1982L27.9069 20.9707" stroke="#2A3539" stroke-linecap="round" stroke-linejoin="round"/>
<path d="M23.1528 24.1672L24.2144 24.1147" stroke="#2A3539" stroke-linecap="round" stroke-linejoin="round"/>
<path d="M13.1253 27.5975L20.8369 27.23" stroke="#2A3539" stroke-linecap="round" stroke-linejoin="round"/>
<path d="M13.2886 30.5548L19.6936 30.2515" stroke="#2A3539" stroke-linecap="round" stroke-linejoin="round"/>
<path d="M19.4194 24.599L19.3144 22.6566C19.2853 22.1549 18.0311 21.4024 17.0453 21.4607C16.0594 21.5191 14.8869 22.3941 14.9161 22.8957L15.0211 24.8382" stroke="#2A3539" stroke-linecap="round" stroke-linejoin="round"/>
<path d="M17.0394 21.4374C16.2461 21.4782 15.6803 20.8366 15.6394 20.0082L15.6103 19.5066C15.5636 18.6782 16.0536 17.9782 16.8528 17.9374C17.6461 17.8966 18.2119 18.5382 18.2528 19.3666L18.2819 19.8682C18.3286 20.6966 17.8328 21.3966 17.0394 21.4374Z" stroke="#2A3539" stroke-linecap="round" stroke-linejoin="round"/>
<path d="M21.2919 24.663L12.9619 25.1239L12.5011 16.578L20.8253 16.1172L21.2919 24.663Z" stroke="#2A3539" stroke-linecap="round" stroke-linejoin="round"/>
<path d="M22.2719 6.08426L26.2211 5.86842C26.8803 5.83342 27.4403 6.33509 27.4753 6.99426L27.9244 15.2834L25.7428 13.8659L23.7303 15.5109L23.2694 6.97676C23.2403 6.45759 22.7911 6.05509 22.2719 6.07842V6.08426ZM22.2719 6.08426C21.7528 6.11342 21.3503 6.56259 21.3736 7.08176L21.4144 7.86342" stroke="#2A3539" stroke-linecap="round" stroke-linejoin="round"/>
<path d="M36.7094 31.5465C36.7736 33.5298 36.0503 35.5365 34.5336 37.0532C31.6286 39.9582 26.9211 39.9582 24.0161 37.0532C21.1111 34.1482 21.1111 29.4407 24.0161 26.5357C26.9211 23.6307 31.6286 23.6307 34.5336 26.5357C35.3444 27.3465 35.9278 28.2973 36.2894 29.3123" stroke="#2A3539" stroke-linecap="round" stroke-linejoin="round"/>
<path d="M30.4561 33.0575C29.2894 34.2417 28.1869 35.245 28.1869 35.245L25.1244 31.9025L26.8219 30.2692L28.3386 31.8442L29.7503 30.4908L30.9928 29.3008L32.0078 28.3267L33.6353 29.7733C33.6353 29.7733 32.7486 30.695 31.6928 31.7858" stroke="#2A3539" stroke-linecap="round" stroke-linejoin="round"/>
</svg>
