<svg width="24" height="24" viewBox="0 0 24 24" fill="none" xmlns="http://www.w3.org/2000/svg">
<path d="M13.0625 4.9375C13.0625 4.65625 12.7812 4.375 12.5 4.375C12.1836 4.375 11.9375 4.65625 11.9375 4.9375C11.9375 5.25391 12.1836 5.5 12.5 5.5C12.7812 5.5 13.0625 5.25391 13.0625 4.9375ZM10.8125 4.9375C10.8125 4.33984 11.1289 3.8125 11.6562 3.49609C12.1484 3.17969 12.8164 3.17969 13.3438 3.49609C13.8359 3.8125 14.1875 4.33984 14.1875 4.9375C14.1875 5.57031 13.8359 6.09766 13.3438 6.41406C12.8164 6.73047 12.1484 6.73047 11.6562 6.41406C11.1289 6.09766 10.8125 5.57031 10.8125 4.9375ZM12.5 8.3125C12.3945 8.3125 12.2891 8.34766 12.1836 8.34766L12.043 10.5625H12.9219L12.7812 8.34766C12.6758 8.34766 12.5703 8.3125 12.5 8.3125ZM11.9375 12.8477C11.9023 13.1641 11.6211 13.4102 11.3398 13.375C11.0234 13.375 10.7773 13.0938 10.8125 12.7773L11.0234 8.98047L10.0742 9.92969C9.86328 10.1758 9.47656 10.1758 9.26562 9.92969C9.05469 9.71875 9.05469 9.36719 9.26562 9.15625L10.3203 8.10156C10.8828 7.53906 11.6562 7.1875 12.5 7.1875C13.3086 7.1875 14.082 7.53906 14.6445 8.10156L15.6992 9.15625C15.9102 9.36719 15.9102 9.71875 15.6992 9.92969C15.4883 10.1758 15.1016 10.1758 14.8906 9.92969L13.9414 8.98047L14.1875 12.8125C14.1875 13.0938 13.9414 13.375 13.6602 13.375C13.3438 13.4102 13.0625 13.1641 13.0625 12.8477L12.9922 11.6875H11.9727L11.9375 12.8477ZM3.5 5.5C4.73047 5.5 5.75 6.51953 5.75 7.75V12.1445C5.75 12.2852 5.75 12.4609 5.78516 12.6016C5.85547 12.4961 5.92578 12.3906 6.03125 12.2852C6.80469 11.5117 8.03516 11.5117 8.80859 12.2852L12.0078 15.4844C12.1836 15.6953 12.3594 15.8711 12.5 16.082C12.6055 15.8711 12.7812 15.6953 12.957 15.4844L16.1562 12.2852C16.9297 11.5117 18.1602 11.5117 18.9336 12.2852C19.0391 12.3906 19.1094 12.4961 19.1797 12.6016C19.2148 12.4609 19.25 12.2852 19.25 12.1445V7.75C19.25 6.51953 20.2344 5.5 21.5 5.5C22.7305 5.5 23.75 6.51953 23.75 7.75V15.3789C23.75 16.3984 23.3281 17.418 22.5898 18.1562L19.6367 21.1094C19.4258 21.3203 19.0391 21.3203 18.8281 21.1094C18.6172 20.8984 18.6172 20.5117 18.8281 20.3008L21.7812 17.3477C22.3086 16.8203 22.625 16.1172 22.625 15.3789V7.75C22.625 7.15234 22.0977 6.625 21.5 6.625C20.8672 6.625 20.375 7.15234 20.375 7.75V12.1445C20.375 13.0938 19.9883 14.0078 19.3203 14.6758L18.9336 15.0625L17.3867 16.6094L16.8242 17.1719C16.6133 17.3828 16.2266 17.3828 16.0156 17.1719C15.8047 16.9609 15.8047 16.5742 16.0156 16.3633L16.5781 15.8008L18.125 14.2539C18.4414 13.9375 18.4414 13.4102 18.125 13.0938C17.8086 12.7773 17.2812 12.7773 16.9648 13.0938L13.7656 16.293C13.3086 16.75 13.0625 17.3477 13.0625 17.9805V20.6875C13.0625 21.0039 12.7812 21.25 12.5 21.25C12.1836 21.25 11.9375 21.0039 11.9375 20.6875V17.9805C11.9375 17.3477 11.6562 16.75 11.2344 16.293L8 13.0938C7.68359 12.7773 7.15625 12.7773 6.83984 13.0938C6.52344 13.4102 6.52344 13.9375 6.83984 14.2539L8.38672 15.8008L8.94922 16.3633C9.16016 16.5742 9.16016 16.9609 8.94922 17.1719C8.73828 17.3828 8.35156 17.3828 8.14062 17.1719L7.57812 16.6094L6.03125 15.0625L5.67969 14.6758C4.97656 14.0078 4.625 13.0938 4.625 12.1445V7.75C4.625 7.15234 4.09766 6.625 3.5 6.625C2.86719 6.625 2.375 7.15234 2.375 7.75V15.3789C2.375 16.1172 2.65625 16.8203 3.18359 17.3477L6.13672 20.3008C6.34766 20.5117 6.34766 20.8984 6.13672 21.1094C5.92578 21.3203 5.53906 21.3203 5.32812 21.1094L2.375 18.1562C1.63672 17.418 1.25 16.3984 1.25 15.3789V7.75C1.25 6.51953 2.23438 5.5 3.5 5.5Z" fill="#4A5A61"/>
</svg>
