<svg width="42" height="42" viewBox="0 0 42 42" fill="none" xmlns="http://www.w3.org/2000/svg">
<path d="M33.2508 21.8924C32.6192 21.7817 34.8364 21.1598 34.8364 21.1598L32.6908 20.7268L34.5108 20.4533L36.2234 20.1961L36.3439 19.8217C34.742 19.6556 32.3295 19.4049 32.3067 19.4049C32.2839 19.4049 34.5857 18.9947 36.6922 18.7212L36.7606 18.5096C37.4053 16.4845 36.1908 14.3421 34.1234 13.857L12.7848 8.84633C10.7922 8.37749 8.80619 9.64075 8.38619 11.6431L7.28898 16.8687C9.15457 16.8068 10.8867 17.3994 11.3294 17.3766C11.3685 17.3733 11.4011 17.3701 11.4174 17.3701C11.4532 17.3701 11.4174 17.3701 11.3294 17.3766C10.8215 17.4254 8.61084 17.777 7.04154 18.031L6.96666 18.3891C7.74805 18.438 8.22015 18.4901 8.36015 18.4868C12.8141 18.3859 7.45178 19.3789 6.6834 19.7273L4.93503 28.0426C4.48573 30.1752 5.99968 32.2231 8.17131 32.4217L28.7318 34.2905C30.4346 34.4468 32.0136 33.3952 32.5346 31.7673L35.6243 22.078C34.716 22.0226 33.609 21.9477 33.2541 21.8859L33.2508 21.8924Z" fill="#FFD5DA"/>
<path d="M28.4022 26.4831C29.4194 25.4659 27.5383 21.9357 24.2007 18.598C20.8631 15.2604 17.3328 13.3793 16.3156 14.3965C15.2984 15.4137 17.1795 18.944 20.5171 22.2816C23.8548 25.6192 27.385 27.5003 28.4022 26.4831Z" fill="white"/>
<path d="M26.5084 25.6819C27.298 24.8923 25.8364 22.1505 23.2439 19.558C20.6513 16.9655 17.9096 15.5039 17.12 16.2935C16.3304 17.0831 17.792 19.8248 20.3845 22.4173C22.977 25.0099 25.7188 26.4715 26.5084 25.6819Z" fill="#FFF3CD"/>
<path d="M10.0893 28.8335L8.0349 33.7921C8.0349 33.7921 7.8135 34.4563 8.16838 34.5963C8.52327 34.7363 9.03117 34.7786 9.10606 34.7428C9.18094 34.707 10.2977 34.0916 10.3237 34.0819C10.3498 34.0721 10.0861 28.8335 10.0861 28.8335H10.0893Z" fill="#FF9BA7"/>
<path d="M13.1362 22.1138L10.3004 28.15L10.3232 34.0789C10.3232 34.0789 13.439 32.6919 13.439 32.6235C13.439 32.5552 13.133 22.1138 13.133 22.1138H13.1362Z" fill="#FF9BA7"/>
<path d="M15.9134 15.7095L13.312 21.3453V32.8937C13.312 32.8937 16.6655 31.4416 16.6037 31.4123C16.5418 31.383 16.379 16.4453 16.379 16.4453L15.9134 15.7095Z" fill="#FF9BA7"/>
<path d="M16.3892 17.2271L17.1999 18.0964L19.378 21.3457C19.378 21.3457 19.7068 30.055 19.6417 30.1233C19.5766 30.1917 16.6073 31.4126 16.6073 31.4126L16.3924 17.2271H16.3892Z" fill="#FF9BA7"/>
<path d="M19.6512 21.5308L22.5163 24.0931L22.6791 28.8336C22.6791 28.8336 19.2572 30.4875 19.4493 30.3052C19.6414 30.1229 19.6512 21.5308 19.6512 21.5308Z" fill="#FF9BA7"/>
<path d="M22.7441 24.5975C22.7441 24.5975 24.8734 25.8998 25.6548 26.297C26.4362 26.6942 27.0483 27.0621 27.0483 27.0621C27.0483 27.0621 22.5032 29.1231 22.5911 28.9766C22.679 28.8301 22.7441 24.5942 22.7441 24.5942V24.5975Z" fill="#FF9BA7"/>
<path d="M31.825 10.8418L33.3455 12.1637L35.3283 11.379L34.6804 13.5539C34.6804 13.5539 36.3116 15.3706 36.2692 15.312C36.2269 15.2534 33.7623 14.8627 33.7623 14.8627C33.7623 14.8627 32.4534 17.2297 32.4306 17.0246C32.4078 16.8195 31.926 14.612 31.926 14.612C31.926 14.612 29.2595 14.1692 29.5134 14.1595C29.7674 14.1497 31.7599 13.0558 31.7892 13.0037C31.8185 12.9516 31.8316 10.8483 31.8316 10.8483L31.825 10.8418Z" fill="#FFF3CD"/>
<path d="M23.8121 9.72858C24.8784 9.72858 25.7428 8.86418 25.7428 7.79789C25.7428 6.73159 24.8784 5.86719 23.8121 5.86719C22.7458 5.86719 21.8814 6.73159 21.8814 7.79789C21.8814 8.86418 22.7458 9.72858 23.8121 9.72858Z" fill="#FF9BA7"/>
<path d="M4.11166 20.3036C4.72122 20.3036 5.21538 19.8095 5.21538 19.1999C5.21538 18.5903 4.72122 18.0962 4.11166 18.0962C3.50209 18.0962 3.00793 18.5903 3.00793 19.1999C3.00793 19.8095 3.50209 20.3036 4.11166 20.3036Z" stroke="#FFDA6A" stroke-linecap="round" stroke-linejoin="round"/>
<path d="M35.0355 32.7665C35.6451 32.7665 36.1392 32.2724 36.1392 31.6628C36.1392 31.0532 35.6451 30.5591 35.0355 30.5591C34.4259 30.5591 33.9318 31.0532 33.9318 31.6628C33.9318 32.2724 34.4259 32.7665 35.0355 32.7665Z" stroke="#FFDA6A" stroke-linecap="round" stroke-linejoin="round"/>
<path d="M6.534 8.41016V11.0441" stroke="#F96073" stroke-linecap="round" stroke-linejoin="round"/>
<path d="M5.21515 9.72559H7.8491" stroke="#F96073" stroke-linecap="round" stroke-linejoin="round"/>
<path d="M32.522 5.50586L34.3843 7.36818" stroke="#F96073" stroke-linecap="round" stroke-linejoin="round"/>
<path d="M32.522 7.36818L34.3843 5.50586" stroke="#F96073" stroke-linecap="round" stroke-linejoin="round"/>
<path d="M22.2757 35.085L24.1381 36.9505" stroke="#F96073" stroke-linecap="round" stroke-linejoin="round"/>
<path d="M22.2757 36.9505L24.1381 35.085" stroke="#F96073" stroke-linecap="round" stroke-linejoin="round"/>
<path d="M26.5965 21.5733C28.2635 23.8361 29.0026 25.7928 28.2993 26.4961C27.303 27.4924 23.79 25.5975 20.4561 22.2635C17.1221 18.9296 15.2272 15.4165 16.2235 14.4203C16.7216 13.9221 17.8482 14.1468 19.2677 14.9119" stroke="#2A3539" stroke-linecap="round" stroke-linejoin="round"/>
<path d="M21.3187 16.2534C22.2108 16.9241 23.1452 17.7348 24.0666 18.6562C24.428 19.0176 24.7699 19.379 25.0954 19.7371" stroke="#2A3539" stroke-linecap="round" stroke-linejoin="round"/>
<path d="M16.0216 14.7358L7.91466 33.6749C7.64442 34.3065 8.28256 34.9479 8.91419 34.6777L27.5668 26.753" stroke="#2A3539" stroke-linecap="round" stroke-linejoin="round"/>
<path d="M10.2491 28.2388V34.0471" stroke="#2A3539" stroke-linecap="round" stroke-linejoin="round"/>
<path d="M13.316 21.0601V32.8103" stroke="#2A3539" stroke-linecap="round" stroke-linejoin="round"/>
<path d="M16.383 16.9736V31.4132" stroke="#2A3539" stroke-linecap="round" stroke-linejoin="round"/>
<path d="M19.4499 21.4014V30.1237" stroke="#2A3539" stroke-linecap="round" stroke-linejoin="round"/>
<path d="M22.5168 24.2729V28.8343" stroke="#2A3539" stroke-linecap="round" stroke-linejoin="round"/>
<path d="M19.2317 17.7479C19.5019 17.5037 22.5135 11.6335 20.0424 9.54979C16.3503 6.43723 14.3317 12.174 17.4442 12.3921" stroke="#2A3539" stroke-linecap="round" stroke-linejoin="round"/>
<path d="M23.6696 22.8985C23.6696 22.8985 25.8575 19.698 29.8752 19.0013C36.5496 17.8455 36.1882 27.0464 30.7412 22.5371" stroke="#2A3539" stroke-linecap="round" stroke-linejoin="round"/>
<path d="M27.8854 6.43701C27.8854 6.43701 29.1356 12.5254 25.2937 14.5017" stroke="#2A3539" stroke-linecap="round" stroke-linejoin="round"/>
<path d="M23.8128 9.72858C24.8791 9.72858 25.7435 8.86418 25.7435 7.79789C25.7435 6.73159 24.8791 5.86719 23.8128 5.86719C22.7465 5.86719 21.8821 6.73159 21.8821 7.79789C21.8821 8.86418 22.7465 9.72858 23.8128 9.72858Z" stroke="#2A3539" stroke-linecap="round" stroke-linejoin="round"/>
<path d="M35.4814 11.0768L34.3256 13.3428L36.1228 15.1433L33.6093 14.7461L32.4535 17.0154L32.0563 14.4986L29.5428 14.1014L31.8089 12.9456L31.4117 10.4321L33.2121 12.2326L35.4814 11.0768Z" stroke="#2A3539" stroke-linecap="round" stroke-linejoin="round"/>
</svg>
