<svg width="24" height="24" viewBox="0 0 24 24" fill="none" xmlns="http://www.w3.org/2000/svg">
<path d="M4.40624 4.375C4.40624 3.91797 4.7578 3.53125 5.24999 3.53125C5.70702 3.53125 6.09374 3.91797 6.09374 4.375C6.09374 4.86719 5.70702 5.21875 5.24999 5.21875C4.7578 5.21875 4.40624 4.86719 4.40624 4.375ZM19.0312 8.875C19.0312 8.41797 19.3828 8.03125 19.875 8.03125C20.332 8.03125 20.7187 8.41797 20.7187 8.875C20.7187 9.36719 20.332 9.71875 19.875 9.71875C19.3828 9.71875 19.0312 9.36719 19.0312 8.875ZM19.875 18.1562C20.332 18.1562 20.7187 18.543 20.7187 19C20.7187 19.4922 20.332 19.8438 19.875 19.8438C19.3828 19.8438 19.0312 19.4922 19.0312 19C19.0312 18.543 19.3828 18.1562 19.875 18.1562ZM9.04686 8.45312C8.83592 8.24219 8.83592 7.85547 9.04686 7.64453L9.36327 7.36328C9.99608 6.73047 10.3828 5.88672 10.4883 5.00781L10.5937 4.05859C10.6289 3.74219 10.9101 3.53125 11.1914 3.56641C11.5078 3.60156 11.7187 3.84766 11.6836 4.16406L11.5781 5.14844C11.4726 6.27344 10.9453 7.32812 10.1367 8.17188L9.85545 8.45312C9.64452 8.66406 9.2578 8.66406 9.04686 8.45312ZM15.7969 14.3945L16.1133 14.1133C16.9219 13.3047 17.9765 12.7773 19.1015 12.6719L20.0859 12.5664C20.4023 12.5312 20.6836 12.7422 20.7187 13.0586C20.7539 13.3398 20.5078 13.6211 20.1914 13.6562L19.2422 13.7617C18.3633 13.8672 17.5195 14.2539 16.8867 14.8867L16.6055 15.2031C16.3945 15.4141 16.043 15.4141 15.7969 15.2031C15.5859 14.957 15.5859 14.6055 15.7969 14.3945ZM20.5781 3.74219C20.7539 3.98828 20.7539 4.33984 20.5078 4.55078L20.1562 4.83203C19.6992 5.21875 19.1015 5.42969 18.4687 5.42969C17.7305 5.39453 17.1328 5.95703 17.0625 6.69531L17.0273 7.75C16.9219 9.12109 15.7969 10.1406 14.4609 10.1055C14.1445 10.1055 13.793 10.2109 13.5469 10.4219L13.1953 10.7383C12.9492 10.9141 12.5976 10.9141 12.3867 10.668C12.2109 10.4219 12.2461 10.0703 12.457 9.85938L12.8086 9.57812C13.3008 9.19141 13.8984 8.98047 14.4961 8.98047C15.2344 9.01562 15.8672 8.41797 15.9023 7.71484L15.9726 6.66016C16.043 5.28906 17.168 4.26953 18.5039 4.30469C18.8555 4.30469 19.1719 4.19922 19.418 3.98828L19.7695 3.67188C20.0156 3.49609 20.3672 3.49609 20.5781 3.74219ZM4.12499 20.125L6.79686 19.1406L5.10936 17.4531L4.12499 20.125ZM10.0664 17.9102L6.33983 14.1836L5.56639 16.293C5.56639 16.3281 5.60155 16.3281 5.6367 16.3633L7.8867 18.6133C7.92186 18.6484 7.92186 18.6836 7.95702 18.6836L10.0664 17.9102ZM11.2265 17.4531L13.125 16.75L7.49999 11.125H7.46483L6.7617 13.0234L11.2265 17.4531ZM6.4453 10.7383C6.72655 10 7.71092 9.75391 8.27342 10.3516L13.8984 15.9766C14.4961 16.5391 14.25 17.5234 13.5117 17.8047L4.5117 21.1797C3.6328 21.5312 2.71874 20.6172 3.0703 19.7383L6.4453 10.7383Z" fill="#4A5A61"/>
</svg>
