<svg width="72" height="72" viewBox="0 0 72 72" fill="none" xmlns="http://www.w3.org/2000/svg">
<path d="M59.2613 36.8094C58.1785 36.6196 61.9794 35.5536 61.9794 35.5536L58.3013 34.8113L61.4213 34.3424L64.3571 33.9015L64.5636 33.2596C61.8176 32.975 57.6817 32.5452 57.6427 32.5452C57.6036 32.5452 61.5496 31.842 65.1608 31.3731L65.278 31.0103C66.3831 27.5387 64.3013 23.8661 60.7571 23.0345L24.1766 14.4447C20.7608 13.641 17.3562 15.8066 16.6362 19.2392L14.7552 28.1973C17.9534 28.0913 20.9227 29.1071 21.6817 29.068C21.7487 29.0624 21.8045 29.0568 21.8324 29.0568C21.8938 29.0568 21.8324 29.0568 21.6817 29.068C20.811 29.1517 17.0213 29.7545 14.331 30.1899L14.2027 30.8038C15.5422 30.8875 16.3515 30.9768 16.5915 30.9713C24.2268 30.7982 15.0343 32.5006 13.7171 33.0978L10.7199 47.3527C9.94964 51.0085 12.545 54.5192 16.2678 54.8596L51.5143 58.0634C54.4334 58.3313 57.1403 56.5285 58.0334 53.7378L63.3301 37.1275C61.7729 37.0327 59.8752 36.9043 59.2669 36.7982L59.2613 36.8094Z" fill="#FFD5DA"/>
<path d="M49.5182 42.6367C55.9699 42.6367 61.2 37.4065 61.2 30.9548C61.2 24.5031 55.9699 19.2729 49.5182 19.2729C43.0665 19.2729 37.8363 24.5031 37.8363 30.9548C37.8363 37.4065 43.0665 42.6367 49.5182 42.6367Z" fill="white"/>
<path d="M49.5806 40.5996C54.9072 40.5996 59.2252 36.2815 59.2252 30.955C59.2252 25.6284 54.9072 21.3103 49.5806 21.3103C44.254 21.3103 39.9359 25.6284 39.9359 30.955C39.9359 36.2815 44.254 40.5996 49.5806 40.5996Z" fill="#FFF3CD"/>
<path d="M32.3009 22.3594C34.8224 22.3594 36.8665 20.3154 36.8665 17.7939C36.8665 15.2724 34.8224 13.2283 32.3009 13.2283C29.7794 13.2283 27.7354 15.2724 27.7354 17.7939C27.7354 20.3154 29.7794 22.3594 32.3009 22.3594Z" fill="white"/>
<path d="M32.9472 21.8175C34.9539 21.8175 36.5807 20.1907 36.5807 18.184C36.5807 16.1773 34.9539 14.5505 32.9472 14.5505C30.9405 14.5505 29.3137 16.1773 29.3137 18.184C29.3137 20.1907 30.9405 21.8175 32.9472 21.8175Z" fill="#FFF3CD"/>
<path d="M40.7674 40.9847C37.9711 38.5456 36.2018 34.9568 36.2018 30.9549C36.2018 28.7782 36.7265 26.7187 37.6586 24.9047H28.0083C26.4121 24.888 25.106 26.1717 25.1004 27.768L25.0558 39.3494C25.0558 40.0805 25.5581 40.7168 26.2725 40.8787L28.6502 41.4201V53.6991C28.6502 53.6991 35.7553 53.5931 35.8614 53.6991C35.9674 53.8052 35.8614 41.4926 35.8614 41.4926H40.5832L40.7674 40.9847Z" fill="#FF9BA7"/>
<path d="M7.4729 34.3867C8.51788 34.3867 9.365 33.5396 9.365 32.4946C9.365 31.4497 8.51788 30.6025 7.4729 30.6025C6.42793 30.6025 5.58081 31.4497 5.58081 32.4946C5.58081 33.5396 6.42793 34.3867 7.4729 34.3867Z" stroke="#FFDA6A" stroke-width="1.39535" stroke-linecap="round" stroke-linejoin="round"/>
<path d="M39.9343 9.70533C40.9793 9.70533 41.8264 8.85821 41.8264 7.81324C41.8264 6.76826 40.9793 5.92114 39.9343 5.92114C38.8894 5.92114 38.0422 6.76826 38.0422 7.81324C38.0422 8.85821 38.8894 9.70533 39.9343 9.70533Z" stroke="#FFDA6A" stroke-width="1.39535" stroke-linecap="round" stroke-linejoin="round"/>
<path d="M57.0012 65.8713C58.0462 65.8713 58.8933 65.0242 58.8933 63.9793C58.8933 62.9343 58.0462 62.0872 57.0012 62.0872C55.9562 62.0872 55.1091 62.9343 55.1091 63.9793C55.1091 65.0242 55.9562 65.8713 57.0012 65.8713Z" stroke="#FFDA6A" stroke-width="1.39535" stroke-linecap="round" stroke-linejoin="round"/>
<path d="M15.4885 7.96948L12.2959 11.162" stroke="#F96073" stroke-width="1.39535" stroke-linecap="round" stroke-linejoin="round"/>
<path d="M12.2959 7.96948L15.4885 11.162" stroke="#F96073" stroke-width="1.39535" stroke-linecap="round" stroke-linejoin="round"/>
<path d="M15.4885 62.3772L12.2959 65.5753" stroke="#F96073" stroke-width="1.39535" stroke-linecap="round" stroke-linejoin="round"/>
<path d="M12.2959 62.3772L15.4885 65.5753" stroke="#F96073" stroke-width="1.39535" stroke-linecap="round" stroke-linejoin="round"/>
<path d="M64.5147 16.6096H59.9994" stroke="#F96073" stroke-width="1.39535" stroke-linecap="round" stroke-linejoin="round"/>
<path d="M62.2604 14.3542V18.8696" stroke="#F96073" stroke-width="1.39535" stroke-linecap="round" stroke-linejoin="round"/>
<path d="M15.5179 57.533C14.4853 56.4279 13.8937 55.0884 13.8937 53.4977C13.8937 49.0102 18.9225 46.56 24.7997 45.5051" stroke="#2A3539" stroke-width="1.39535" stroke-linecap="round" stroke-linejoin="round"/>
<path d="M39.6067 45.5334C45.389 46.5995 50.7081 49.0497 50.7081 53.5037C50.7081 59.8665 41.203 62.1325 32.3006 62.1325C27.0374 62.1325 21.562 61.34 17.962 59.3753" stroke="#2A3539" stroke-width="1.39535" stroke-linecap="round" stroke-linejoin="round"/>
<path d="M39.6188 49.8645C42.8448 50.6292 44.949 51.885 44.949 53.3082C44.949 55.6357 39.2839 57.5278 32.296 57.5278C25.3081 57.5278 19.6429 55.6412 19.6429 53.3082C19.6429 51.9296 21.6355 50.7017 24.7164 49.9315" stroke="#2A3539" stroke-width="1.39535" stroke-linecap="round" stroke-linejoin="round"/>
<path d="M37.2813 25.0442H27.9213C26.3418 25.0442 25.0469 26.3391 25.0469 27.9186V41.487H28.0441V53.1465" stroke="#2A3539" stroke-width="1.39535" stroke-linecap="round" stroke-linejoin="round"/>
<path d="M36.5062 53.1525V41.4929H40.1788" stroke="#2A3539" stroke-width="1.39535" stroke-linecap="round" stroke-linejoin="round"/>
<path d="M36.8227 17.7941C36.8227 20.289 34.8023 22.3151 32.3018 22.3151C29.8013 22.3151 27.7809 20.2946 27.7809 17.7941C27.7809 15.2937 29.8013 13.2732 32.3018 13.2732C34.8023 13.2732 36.8227 15.2992 36.8227 17.7941Z" stroke="#2A3539" stroke-width="1.39535" stroke-linecap="round" stroke-linejoin="round"/>
<path d="M29.0946 29.4077V36.4961" stroke="#2A3539" stroke-width="1.39535" stroke-linecap="round" stroke-linejoin="round"/>
<path d="M35.402 29.4077V36.4961" stroke="#2A3539" stroke-width="1.39535" stroke-linecap="round" stroke-linejoin="round"/>
<path d="M49.5788 42.5681C55.9935 42.5681 61.1936 37.368 61.1936 30.9533C61.1936 24.5385 55.9935 19.3384 49.5788 19.3384C43.164 19.3384 37.9639 24.5385 37.9639 30.9533C37.9639 37.368 43.164 42.5681 49.5788 42.5681Z" stroke="#2A3539" stroke-width="1.39535" stroke-miterlimit="10"/>
<path d="M47.8207 28.844H49.5174V36.1445H51.6384" stroke="#2A3539" stroke-width="1.39535" stroke-linecap="round" stroke-linejoin="round"/>
<path d="M49.5168 26.3377V25.093" stroke="#2A3539" stroke-width="1.39535" stroke-linecap="round" stroke-linejoin="round"/>
<path d="M32.2996 41.8318V53.4857" stroke="#2A3539" stroke-width="1.39535" stroke-linecap="round" stroke-linejoin="round"/>
</svg>
