<svg width="35" height="37" viewBox="0 0 35 37" fill="none" xmlns="http://www.w3.org/2000/svg">
<path d="M32.2961 31.1762C32.9057 31.1762 33.3998 30.682 33.3998 30.0725C33.3998 29.4629 32.9057 28.9688 32.2961 28.9688C31.6865 28.9688 31.1924 29.4629 31.1924 30.0725C31.1924 30.682 31.6865 31.1762 32.2961 31.1762Z" stroke="#FFDA6A" stroke-linecap="round" stroke-linejoin="round"/>
<path d="M1.60372 21.3146C2.21329 21.3146 2.70744 20.8205 2.70744 20.2109C2.70744 19.6013 2.21329 19.1072 1.60372 19.1072C0.994152 19.1072 0.5 19.6013 0.5 20.2109C0.5 20.8205 0.994152 21.3146 1.60372 21.3146Z" stroke="#FFDA6A" stroke-linecap="round" stroke-linejoin="round"/>
<path d="M19.091 2.70744C19.7006 2.70744 20.1947 2.21329 20.1947 1.60372C20.1947 0.994153 19.7006 0.5 19.091 0.5C18.4815 0.5 17.9873 0.994153 17.9873 1.60372C17.9873 2.21329 18.4815 2.70744 19.091 2.70744Z" stroke="#FFDA6A" stroke-linecap="round" stroke-linejoin="round"/>
<path d="M6.78001 2.39185L4.91443 4.25417" stroke="#F96073" stroke-linecap="round" stroke-linejoin="round"/>
<path d="M4.91443 2.39185L6.78001 4.25417" stroke="#F96073" stroke-linecap="round" stroke-linejoin="round"/>
<path d="M21.8902 34.3896L20.0247 36.252" stroke="#F96073" stroke-linecap="round" stroke-linejoin="round"/>
<path d="M20.0247 34.3896L21.8902 36.252" stroke="#F96073" stroke-linecap="round" stroke-linejoin="round"/>
<path d="M34.3122 9.17358H31.6782" stroke="#F96073" stroke-linecap="round" stroke-linejoin="round"/>
<path d="M32.9958 7.85791V10.4919" stroke="#F96073" stroke-linecap="round" stroke-linejoin="round"/>
<path d="M7.28141 31.473H9.71676V26.6804C9.71676 26.6804 8.18001 24.6651 8.7921 20.7776C9.23815 17.9386 9.93815 16.3302 8.99722 14.8813C8.69443 14.4158 6.83862 14.6958 6.32094 14.3767C5.80327 14.0576 4.83955 13.3511 4.91769 11.3944L7.87722 11.3423C7.87722 11.3423 7.6135 9.43436 10.153 9.02413C15.2809 8.19716 16.7168 14.5362 15.4275 15.5358C14.8577 15.9753 11.9535 16.773 11.5009 12.0618" stroke="#2A3539" stroke-linecap="round" stroke-linejoin="round"/>
<path d="M9.77271 10.9382V11.5796" stroke="#2A3539" stroke-linecap="round" stroke-linejoin="round"/>
<path d="M20.0247 8.53516V9.1733" stroke="#2A3539" stroke-linecap="round" stroke-linejoin="round"/>
<path d="M14.907 16.4109C15.1316 17.4983 15.7144 19.3932 17.1535 20.9332C20.3637 24.3681 20.2954 31.469 20.2954 31.469C26.3544 31.469 27.5786 23.0365 21.5749 21.8904" stroke="#2A3539" stroke-linecap="round" stroke-linejoin="round"/>
<path d="M9.33899 17.8338C9.33899 17.8338 11.1785 19.0091 15.2385 17.6287" stroke="#2A3539" stroke-linecap="round" stroke-linejoin="round"/>
<path d="M15.8776 24.1306C15.8776 24.1306 10.9092 24.9836 13.999 31.3488" stroke="#2A3539" stroke-linecap="round" stroke-linejoin="round"/>
<path d="M11.5507 31.4729H18.0753" stroke="#2A3539" stroke-linecap="round" stroke-linejoin="round"/>
<path d="M34.3121 16.1732C30.1187 17.2508 33.7391 21.3174 33.6317 23.8308C33.5242 26.3443 30.2489 26.0513 30.2489 26.0513C30.2489 26.0513 30.4475 22.6815 30.1675 19.569C30.0308 18.055 28.3247 16.8439 26.3777 15.9094C25.9187 15.6881 25.6354 15.3364 25.4661 14.9978C25.274 14.6201 25.1991 14.1969 25.2122 13.7736C25.5052 4.742 21.3931 5.09363 21.3931 5.09363V6.98526H20.2112C19.1954 6.98526 18.3717 7.80898 18.3717 8.8248H16.7926C16.7926 8.8248 16.2326 11.1429 17.8898 11.7225C19.547 12.302 20.1461 11.7485 20.3252 12.862C20.4847 13.842 18.8015 16.5378 19.4135 19.9662C19.6512 21.2978 19.788 22.3527 19.8628 23.1862" stroke="#2A3539" stroke-linecap="round" stroke-linejoin="round"/>
<path d="M20.1685 13.9073C20.1685 13.9073 22.021 14.9329 25.215 13.7771" stroke="#2A3539" stroke-linecap="round" stroke-linejoin="round"/>
<path d="M26.5986 26.0613H28.4284" stroke="#2A3539" stroke-linecap="round" stroke-linejoin="round"/>
<path d="M21.9821 26.0613H24.4825" stroke="#2A3539" stroke-linecap="round" stroke-linejoin="round"/>
<path d="M23.2054 23.8083C23.3259 24.453 23.5799 25.1986 24.0064 26.0614" stroke="#2A3539" stroke-linecap="round" stroke-linejoin="round"/>
<path d="M26.5105 19.7258C26.5105 19.7258 24.7752 19.8235 23.7854 20.9826" stroke="#2A3539" stroke-linecap="round" stroke-linejoin="round"/>
</svg>
