<svg width="72" height="72" viewBox="0 0 72 72" fill="none" xmlns="http://www.w3.org/2000/svg">
<path d="M58.6171 32.5523C57.5259 32.3611 61.3565 31.2867 61.3565 31.2867L57.6496 30.5386L60.794 30.0661L63.7528 29.6217L63.9609 28.9748C61.1934 28.688 57.0253 28.2548 56.9859 28.2548C56.9465 28.2548 60.9234 27.5461 64.5628 27.0736L64.6809 26.708C65.7946 23.2092 63.6965 19.508 60.1246 18.6698L23.2584 10.013C19.8159 9.20295 16.3846 11.3855 15.659 14.8448L13.7634 23.873C16.9865 23.7661 19.979 24.7898 20.744 24.7505C20.8115 24.7448 20.8678 24.7392 20.8959 24.7392C20.9578 24.7392 20.8959 24.7392 20.744 24.7505C19.8665 24.8348 16.0471 25.4423 13.3359 25.8811L13.2065 26.4998C14.5565 26.5842 15.3721 26.6742 15.614 26.6686C23.309 26.4942 14.0446 28.2098 12.7171 28.8117L9.69652 43.178C8.92027 46.8623 11.5359 50.4004 15.2878 50.7436L50.8096 53.9723C53.7515 54.2423 56.4796 52.4254 57.3796 49.6129L62.7178 32.873C61.1484 32.7773 59.2359 32.648 58.6228 32.5411L58.6171 32.5523Z" fill="#FFD5DA"/>
<path d="M24.6589 8.98916L26.4702 8.36479L29.9014 7.49854L32.1683 9.26478L34.8458 19.2323L33.3833 21.4429L28.9002 22.8773H28.4558L29.7552 28.0017L32.5677 33.2554L37.4783 39.6454C37.4783 39.6454 41.3708 43.3804 41.4945 43.476C41.6183 43.5717 45.4208 46.311 45.4208 46.311L48.0983 42.3229L49.4708 41.1079L51.9289 41.046L60.3664 46.716L60.8445 48.9604L59.742 50.5804L54.3533 56.7285L52.0808 58.146L30.6889 43.1104L22.842 24.8854L23.4945 15.9192L24.6533 8.98916H24.6589Z" fill="white"/>
<path d="M37.7091 43.1052C36.1791 41.7159 34.4241 39.8596 32.551 37.379C32.5398 37.3621 32.5285 37.3452 32.5173 37.3284C32.506 37.3115 32.4948 37.2946 32.4779 37.2834C30.1323 34.1671 28.6698 31.5065 27.7529 29.4084L26.3916 24.1827L30.5204 22.6584C31.8648 22.2252 32.6241 20.8021 32.236 19.4465L29.6766 10.5759C29.2379 9.0571 27.5616 8.27523 26.116 8.91085C18.556 12.2071 16.9641 12.1002 17.0035 16.2177C17.0935 25.6396 19.4729 34.2009 25.6829 42.4246C25.6941 42.4415 27.6798 44.7927 27.691 44.8096C33.901 53.0277 39.6723 56.0146 48.7116 58.6752C52.6604 59.8396 52.8685 57.6346 58.111 51.2615C59.1123 50.0409 58.8141 48.2184 57.4754 47.3859L52.2216 44.264C51.0235 43.5159 49.4485 43.859 48.661 45.0346L46.6023 47.5096C45.8373 48.4265 44.476 48.5615 43.5423 47.8134L37.7148 43.1165L37.7091 43.1052Z" fill="#FF9BA7"/>
<path d="M15.5248 35.2749V39.8255" stroke="#F96073" stroke-width="1.40625" stroke-linecap="round" stroke-linejoin="round"/>
<path d="M13.2463 37.5466H17.8026" stroke="#F96073" stroke-width="1.40625" stroke-linecap="round" stroke-linejoin="round"/>
<path d="M50.6357 27.8318L47.4182 31.0493" stroke="#F96073" stroke-width="1.40625" stroke-linecap="round" stroke-linejoin="round"/>
<path d="M47.4182 27.8318L50.6357 31.0493" stroke="#F96073" stroke-width="1.40625" stroke-linecap="round" stroke-linejoin="round"/>
<path d="M43.2112 15.6211C44.2643 15.6211 45.1181 14.7674 45.1181 13.7142C45.1181 12.6611 44.2643 11.8074 43.2112 11.8074C42.1581 11.8074 41.3043 12.6611 41.3043 13.7142C41.3043 14.7674 42.1581 15.6211 43.2112 15.6211Z" stroke="#FFDA6A" stroke-width="1.40625" stroke-linecap="round" stroke-linejoin="round"/>
<path d="M25.6716 57.6512C26.7248 57.6512 27.5785 56.7974 27.5785 55.7443C27.5785 54.6911 26.7248 53.8374 25.6716 53.8374C24.6185 53.8374 23.7648 54.6911 23.7648 55.7443C23.7648 56.7974 24.6185 57.6512 25.6716 57.6512Z" stroke="#FFDA6A" stroke-width="1.40625" stroke-linecap="round" stroke-linejoin="round"/>
<path d="M28.5416 22.9267L32.6703 21.4023C34.0147 20.9692 34.7741 19.5461 34.386 18.1904L31.8266 9.31982C31.3878 7.80669 29.7172 7.0192 28.2716 7.6492C20.706 10.9511 16.9653 12.3292 17.0047 16.4411C17.0947 25.8629 19.7778 34.3286 25.9878 42.5523C25.9991 42.5692 26.0103 42.5861 26.0272 42.5973C26.0385 42.6142 26.0497 42.6311 26.061 42.6479C32.271 50.8661 39.6791 55.7654 48.7185 58.4261C52.6672 59.5904 55.0185 56.3673 60.261 49.9886C61.2622 48.7679 60.9641 46.9454 59.6253 46.1129L51.7953 41.2248C50.5972 40.4767 49.0222 40.8198 48.2347 41.9954L46.4122 44.7348" stroke="#2A3539" stroke-width="1.40625" stroke-linecap="round" stroke-linejoin="round"/>
<path d="M41.3047 43.1156L39.8647 41.85C38.3347 40.4606 36.5797 38.6043 34.7066 36.1237C34.6953 36.1068 34.6841 36.09 34.6728 36.0731C34.6616 36.0562 34.6503 36.0393 34.6334 36.0281C32.2878 32.9118 30.8253 30.2512 29.9084 28.1531" stroke="#2A3539" stroke-width="1.40625" stroke-linecap="round" stroke-linejoin="round"/>
</svg>
