<svg width="24" height="24" viewBox="0 0 24 24" fill="none" xmlns="http://www.w3.org/2000/svg">
<path d="M12 20.125C11.8594 18.0859 12.5625 15.9766 14.1094 14.3945C15.6914 12.8477 17.8008 12.1445 19.875 12.2852C19.875 12.2852 19.875 12.2852 19.875 12.25C19.875 7.92578 16.3242 4.375 12 4.375C11.9648 4.375 11.9648 4.375 11.9648 4.375C12.1055 6.44922 11.4023 8.55859 9.85547 10.1406C8.27344 11.6875 6.16406 12.3906 4.125 12.25C4.125 16.6094 7.64062 20.125 12 20.125ZM13.125 20.0547C16.5703 19.5625 19.2773 16.8555 19.7695 13.4102C18.0469 13.2695 16.2539 13.8672 14.918 15.2031C13.582 16.5391 12.9844 18.332 13.125 20.0547ZM10.8398 4.48047C7.39453 4.97266 4.6875 7.67969 4.19531 11.125C5.91797 11.2656 7.71094 10.668 9.04688 9.33203C10.3828 7.99609 10.9805 6.20312 10.8398 4.48047ZM3 12.25C3 9.05078 4.6875 6.09766 7.5 4.48047C10.2773 2.86328 13.6875 2.86328 16.5 4.48047C19.2773 6.09766 21 9.05078 21 12.25C21 15.4844 19.2773 18.4375 16.5 20.0547C13.6875 21.6719 10.2773 21.6719 7.5 20.0547C4.6875 18.4375 3 15.4844 3 12.25Z" fill="#4A5A61"/>
</svg>
