<svg width="72" height="72" viewBox="0 0 72 72" fill="none" xmlns="http://www.w3.org/2000/svg">
<path d="M58.6694 35.4747C57.5866 35.2849 61.3875 34.2189 61.3875 34.2189L57.7094 33.4765L60.8293 33.0077L63.7652 32.5668L63.9717 31.9249C61.2256 31.6403 57.0898 31.2105 57.0507 31.2105C57.0117 31.2105 60.9577 30.5072 64.5689 30.0384L64.6861 29.6756C65.7912 26.204 63.7094 22.5314 60.1652 21.6998L23.5847 13.11C20.1689 12.3063 16.7642 14.4719 16.0442 17.9045L14.1633 26.8626C17.3614 26.7565 20.3307 27.7724 21.0898 27.7333C21.1568 27.7277 21.2126 27.7221 21.2405 27.7221C21.3019 27.7221 21.2405 27.7221 21.0898 27.7333C20.2191 27.817 16.4293 28.4198 13.7391 28.8551L13.6107 29.4691C14.9503 29.5528 15.7596 29.6421 15.9996 29.6365C23.6349 29.4635 14.4424 31.1658 13.1252 31.7631L10.128 46.0179C9.35772 49.6738 11.9531 53.1845 15.6759 53.5249L50.9224 56.7286C53.8414 56.9965 56.5484 55.1938 57.4414 52.4031L62.7382 35.7928C61.181 35.6979 59.2833 35.5696 58.6749 35.4635L58.6694 35.4747Z" fill="#FFD5DA"/>
<path d="M42.0188 42.8112V52.1098C42.0188 52.1098 42.9509 55.4865 47.4718 56.7647C51.9928 58.0428 56.1676 57.2279 57.0328 56.614C57.8979 56 60.443 54.0856 60.5714 52.7293C60.6997 51.3731 60.5714 42.3535 60.5714 42.3535L42.0244 42.8112H42.0188Z" fill="#FFF3CD"/>
<path d="M51.4346 47.036C56.6348 47.036 60.8504 44.5596 60.8504 41.5048C60.8504 38.45 56.6348 35.9736 51.4346 35.9736C46.2344 35.9736 42.0188 38.45 42.0188 41.5048C42.0188 44.5596 46.2344 47.036 51.4346 47.036Z" fill="#FFF3CD"/>
<path d="M11.9474 32.8482L11.646 46.3999L26.3027 56.6194L36.7623 49.9943V51.105L42.02 47.8566L42.1093 40.7515C42.1093 40.7515 44.632 35.5106 48.6283 35.5664C52.6246 35.6222 53.1995 35.5664 53.1995 35.5664L54.8962 33.8696V24.2919L39.6144 14.7812L28.9483 21.4175L28.0386 20.6919L21.5083 24.8166L22.2562 25.5813L11.9474 32.8426V32.8482Z" fill="white"/>
<path d="M26.3017 42.1134L36.7613 35.3041L33.8478 33.6743L28.5064 36.6715C28.5064 36.6715 25.6934 36.2027 25.4589 36.7218C25.2245 37.2408 19.7324 33.412 19.7324 33.412C19.7324 33.412 20.3631 31.5199 20.045 31.3636C19.7268 31.2074 25.1743 27.8139 25.1743 27.8139L22.0543 25.7041L11.6394 32.1841L26.2961 42.1134H26.3017Z" fill="#FF9BA7"/>
<path d="M28.9417 21.4173L32.3128 23.4266L37.4868 20.0331C37.4868 20.0331 39.0384 20.4852 40.0207 20.0331C41.003 19.581 46.1268 23.4266 46.1268 23.4266C46.1268 23.4266 46.2607 25.4805 46.4672 25.6982C46.6737 25.9159 41.2263 29.0135 41.2263 29.0135L44.3017 30.9447L54.4375 24.2861L39.6077 14.7754L28.9417 21.4117V21.4173Z" fill="#FF9BA7"/>
<path d="M11.646 33.373V46.4L26.3027 56.614L36.7623 49.9944V35.2986L26.3027 42.1135L11.646 33.373Z" fill="#FF9BA7"/>
<path d="M44.3015 30.9451L54.8224 24.8223L54.895 33.8641L53.1927 35.5665L44.3015 37.3748V30.9451Z" fill="#FF9BA7"/>
<path d="M21.5027 24.8161L28.0329 20.6914L44.3027 30.9444V37.3742C44.3027 37.3742 41.9697 38.9649 42.0143 41.5044C42.059 44.044 42.0143 47.8561 42.0143 47.8561L36.7566 51.1044V35.3035L21.5027 24.8216V24.8161Z" fill="white"/>
<path d="M59.6284 63.6445C60.6734 63.6445 61.5205 62.7974 61.5205 61.7524C61.5205 60.7075 60.6734 59.8604 59.6284 59.8604C58.5834 59.8604 57.7363 60.7075 57.7363 61.7524C57.7363 62.7974 58.5834 63.6445 59.6284 63.6445Z" stroke="#FFDA6A" stroke-width="1.39535" stroke-linecap="round" stroke-linejoin="round"/>
<path d="M5.36036 40.6592C6.40533 40.6592 7.25245 39.8121 7.25245 38.7671C7.25245 37.7221 6.40533 36.875 5.36036 36.875C4.31538 36.875 3.46826 37.7221 3.46826 38.7671C3.46826 39.8121 4.31538 40.6592 5.36036 40.6592Z" stroke="#FFDA6A" stroke-width="1.39535" stroke-linecap="round" stroke-linejoin="round"/>
<path d="M37.5144 9.85059C38.5594 9.85059 39.4065 9.00347 39.4065 7.9585C39.4065 6.91353 38.5594 6.06641 37.5144 6.06641C36.4694 6.06641 35.6223 6.91353 35.6223 7.9585C35.6223 9.00347 36.4694 9.85059 37.5144 9.85059Z" stroke="#FFDA6A" stroke-width="1.39535" stroke-linecap="round" stroke-linejoin="round"/>
<path d="M13.9167 10.9111L10.7241 14.1037" stroke="#F96073" stroke-width="1.39535" stroke-linecap="round" stroke-linejoin="round"/>
<path d="M10.7241 10.9111L13.9167 14.1037" stroke="#F96073" stroke-width="1.39535" stroke-linecap="round" stroke-linejoin="round"/>
<path d="M29.7343 60.1562L26.5417 63.3488" stroke="#F96073" stroke-width="1.39535" stroke-linecap="round" stroke-linejoin="round"/>
<path d="M26.5417 60.1562L29.7343 63.3488" stroke="#F96073" stroke-width="1.39535" stroke-linecap="round" stroke-linejoin="round"/>
<path d="M64.3112 16.5479H59.7903" stroke="#F96073" stroke-width="1.39535" stroke-linecap="round" stroke-linejoin="round"/>
<path d="M62.051 14.2881V18.809" stroke="#F96073" stroke-width="1.39535" stroke-linecap="round" stroke-linejoin="round"/>
<path d="M36.7589 45.2357L26.2994 51.8608L11.0845 41.7139" stroke="#2A3539" stroke-width="1.39535" stroke-linecap="round" stroke-linejoin="round"/>
<path d="M39.6106 23.335V25.2382" stroke="#2A3539" stroke-width="1.39535" stroke-linecap="round" stroke-linejoin="round"/>
<path d="M26.3003 31.8906V33.7939" stroke="#2A3539" stroke-width="1.39535" stroke-linecap="round" stroke-linejoin="round"/>
<path d="M40.5481 48.6522L36.7584 51.0969V35.6364L21.1025 25.0541L28.1463 20.8066L32.2877 23.402L44.3602 30.9815V34.5201" stroke="#2A3539" stroke-width="1.39535" stroke-linecap="round" stroke-linejoin="round"/>
<path d="M41.2237 29.0168L46.6656 25.5786C45.8395 25.054 45.6665 24.3172 46.6656 23.6865L40.6823 19.9023C39.6832 20.533 38.5167 20.427 37.6907 19.9023L32.2153 23.3628" stroke="#2A3539" stroke-width="1.39535" stroke-linecap="round" stroke-linejoin="round"/>
<path d="M25.1773 27.8105L19.2275 31.5724C20.2266 32.2031 20.0647 32.9343 19.2387 33.4589L25.222 37.2431C26.048 36.724 27.2089 36.618 28.2024 37.2487L33.8396 33.6822" stroke="#2A3539" stroke-width="1.39535" stroke-linecap="round" stroke-linejoin="round"/>
<path d="M36.7589 35.7257L26.2994 42.3509L11.0845 32.5276L22.331 25.8857" stroke="#2A3539" stroke-width="1.39535" stroke-linecap="round" stroke-linejoin="round"/>
<path d="M29.2065 21.4648L39.6103 14.7783L54.8196 24.2834L44.3098 30.942" stroke="#2A3539" stroke-width="1.39535" stroke-linecap="round" stroke-linejoin="round"/>
<path d="M36.7589 40.4976L26.2994 47.1059L11.0845 37.1152" stroke="#2A3539" stroke-width="1.39535" stroke-linecap="round" stroke-linejoin="round"/>
<path d="M54.8196 29.0391C54.8196 29.0391 51.3926 31.2214 49.3499 32.5274" stroke="#2A3539" stroke-width="1.39535" stroke-linecap="round" stroke-linejoin="round"/>
<path d="M54.8209 33.7939C54.8209 33.7939 54.5363 33.9781 54.0786 34.2628" stroke="#2A3539" stroke-width="1.39535" stroke-linecap="round" stroke-linejoin="round"/>
<path d="M36.7589 49.9916L26.2994 56.6112L11.0845 46.1572" stroke="#2A3539" stroke-width="1.39535" stroke-linecap="round" stroke-linejoin="round"/>
<path d="M60.688 48.3623C60.688 51.6442 56.5076 54.3065 51.3504 54.3065C46.1932 54.3065 42.0127 51.6442 42.0127 48.3623" stroke="#2A3539" stroke-width="1.39535" stroke-linecap="round" stroke-linejoin="round"/>
<path d="M60.688 44.9014V51.7553C60.688 55.0372 56.5076 57.6995 51.3504 57.6995C46.1932 57.6995 42.0127 55.0372 42.0127 51.7553V48.3618V45.3032" stroke="#2A3539" stroke-width="1.39535" stroke-linecap="round" stroke-linejoin="round"/>
<path d="M51.3567 47.447C46.1995 47.447 42.019 44.7846 42.019 41.5028C42.019 38.2209 46.1995 35.5586 51.3567 35.5586C56.5139 35.5586 60.6944 38.2209 60.6944 41.5028C60.6944 44.7846 56.5139 47.447 51.3567 47.447Z" stroke="#2A3539" stroke-width="1.39535" stroke-linecap="round" stroke-linejoin="round"/>
<path d="M42.019 41.5029V44.8964C42.019 48.1783 46.1995 50.8406 51.3567 50.8406C56.5139 50.8406 60.6944 48.1783 60.6944 44.8964V41.5029" stroke="#2A3539" stroke-width="1.39535" stroke-linecap="round" stroke-linejoin="round"/>
</svg>
