<svg width="24" height="24" viewBox="0 0 24 24" fill="none" xmlns="http://www.w3.org/2000/svg">
<path d="M11.543 4.58594L5.32032 7.22266C4.9336 7.36328 4.65235 7.75 4.68751 8.17188C4.68751 11.4766 6.0586 17.3125 11.543 19.9492C11.8242 20.0898 12.1406 20.0898 12.4219 19.9492C17.9063 17.3125 19.2774 11.4766 19.3125 8.17188C19.3125 7.75 19.0313 7.39844 18.6445 7.22266L12.4219 4.58594C12.1406 4.44531 11.8242 4.44531 11.543 4.58594ZM12.8789 3.53125L19.0664 6.16797C19.8399 6.51953 20.4375 7.25781 20.4375 8.17188C20.4024 11.6875 18.9609 18.0508 12.9141 20.9688C12.3164 21.25 11.6484 21.25 11.0508 20.9688C5.00392 18.0508 3.56251 11.6875 3.56251 8.17188C3.52735 7.25781 4.12501 6.51953 4.89845 6.16797L11.1211 3.53125C11.6836 3.28516 12.3164 3.28516 12.8789 3.53125ZM10.0313 7.75H10.5938H11.1563H13.2656C13.8984 7.75 14.4961 8.13672 14.7774 8.69922L14.8477 8.875H16.5C17.0977 8.875 17.625 9.40234 17.625 10V10.5625C17.625 12.4258 16.1133 13.9375 14.25 13.9375H13.125V16.1875C13.125 16.5039 12.8438 16.75 12.5625 16.75C12.2461 16.75 12 16.5039 12 16.1875V13.375C12 13.0938 12.2461 12.8125 12.5625 12.8125H14.25C15.4805 12.8125 16.5 11.8281 16.5 10.5625V10H14.5313C14.2852 10 14.1094 9.89453 14.0039 9.71875L13.7578 9.19141C13.6524 9.01562 13.4766 8.875 13.2656 8.875H11.1563V10.8438C11.1563 11.8281 10.4531 12.6367 9.53907 12.7773L8.83595 14.2188C8.69532 14.4648 8.34376 14.6055 8.06251 14.4648C7.81642 14.3242 7.67579 13.9727 7.81642 13.6914L8.34376 12.6367C7.67579 12.3555 7.21876 11.6523 7.21876 10.8438V9.82422C7.21876 8.69922 8.13282 7.75 9.25782 7.75H10.0313ZM9.15235 11.6875V11.7227H9.18751C9.64454 11.6875 10.0313 11.3359 10.0313 10.8789V10.0352V8.91016H9.25782C9.1172 8.91016 9.01173 8.91016 8.90626 8.98047C8.5547 9.12109 8.34376 9.4375 8.34376 9.82422V10.8438C8.34376 11.3359 8.69532 11.6875 9.15235 11.6875ZM12.5625 10.5625C12.2461 10.5625 12 10.3164 12 10C12 9.71875 12.2461 9.4375 12.5625 9.4375C12.8438 9.4375 13.125 9.71875 13.125 10C13.125 10.3164 12.8438 10.5625 12.5625 10.5625Z" fill="#4A5A61"/>
</svg>
