<svg width="24" height="24" viewBox="0 0 24 24" fill="none" xmlns="http://www.w3.org/2000/svg">
<path d="M19.5858 20.7949H19.4289C18.1082 20.7949 16.6963 19.0744 17.8653 16.1951C18.9735 13.4676 16.8583 12.41 17.6426 11.2006C17.9564 10.7148 18.8217 10.9881 19.3631 10.6541C19.9046 10.3201 20.9116 9.58131 20.8306 7.53696L18.8115 7.50154C18.8115 7.50154 19.0848 5.50778 16.4282 5.07766C11.0643 4.21235 9.56135 10.8413 10.9124 11.8888C11.5096 12.3493 14.0397 13.331 14.5154 8.40227" stroke="#4A5A61" stroke-linecap="round" stroke-linejoin="round"/>
<path d="M16.8398 7.07666V7.74462" stroke="#4A5A61" stroke-linecap="round" stroke-linejoin="round"/>
<path d="M4.03252 14.343C1.8566 16.4835 3.22793 20.8911 7.12941 20.8911C7.12941 20.8911 5.51012 18.4419 7.71135 15.4361C9.06244 13.5941 10.6412 13.3794 11.7291 12.251" stroke="#4A5A61" stroke-linecap="round" stroke-linejoin="round"/>
<path d="M10.8516 16.1953C10.8516 16.1953 14.0193 16.7368 12.0508 20.7951" stroke="#4A5A61" stroke-linecap="round" stroke-linejoin="round"/>
<path d="M15.467 20.8911H10.1992" stroke="#4A5A61" stroke-linecap="round" stroke-linejoin="round"/>
</svg>
