<svg width="24" height="24" viewBox="0 0 24 24" fill="none" xmlns="http://www.w3.org/2000/svg">
<path d="M18.3173 21.4739H18.1749C17.0094 21.4739 16.0654 20.5299 16.0654 19.3644L16.9971 18.4996L18.4971 17.9996L17.9971 15.9996L19.4971 14.9996L18.4971 13.4996M15.4062 4.89848C14.9843 9.2546 12.2647 9.50012 11.3612 9.20187C8.9971 8.4215 10.8233 1.10665 16.6455 2.09285C18.987 2.48838 18.9971 4.50012 18.9971 4.50012L21.9971 5.00012C22.034 5.9494 21.5762 8.91574 21.4971 9.00012L19.9971 8.50012L18.9971 9.50012L17.4971 8.50012L17.9971 10.9996C17.9971 10.9996 19.4971 12.0217 19.4971 11.9996M18.4971 13.4996C18.5204 13.4763 19.4971 11.9996 19.4971 11.9996M18.4971 13.4996L19.4971 11.9996" stroke="#4A5A61" stroke-linecap="round" stroke-linejoin="round"/>
<path d="M16.9925 4.37134V4.45572" stroke="#4A5A61" stroke-linecap="round" stroke-linejoin="round"/>
<path d="M10.9983 8.99988L9.99829 10.4999L7.99829 10.9999L8.49829 12.9999L6.49829 13.4999L6.99829 14.9999L4.99829 15.9999L5.99829 17.4447C5.45304 19.8139 6.28666 21.4739 6.28666 21.4739C3.4863 21.4739 1.80397 19.5278 1.51392 17.4447" stroke="#4A5A61" stroke-linecap="round" stroke-linejoin="round"/>
<path d="M10.3752 14.692C10.3752 14.692 14.9687 15.4778 12.1103 21.3633" stroke="#4A5A61" stroke-linecap="round" stroke-linejoin="round"/>
<path d="M14.3711 21.4741H8.97083" stroke="#4A5A61" stroke-linecap="round" stroke-linejoin="round"/>
</svg>
