<svg width="24" height="24" viewBox="0 0 24 24" fill="none" xmlns="http://www.w3.org/2000/svg">
<path d="M21 4.05859V8.03125V8.06641V16.1875C21 17.7695 19.4883 19 17.625 19C15.7617 19 14.25 17.7695 14.25 16.1875C14.25 14.6406 15.7617 13.375 17.625 13.375C18.4688 13.375 19.2773 13.6562 19.875 14.1133V8.80469L9.75 11.9336V18.4375C9.75 20.0195 8.23828 21.25 6.375 21.25C4.51172 21.25 3 20.0195 3 18.4375C3 16.8906 4.51172 15.625 6.375 15.625C7.21875 15.625 8.02734 15.9062 8.625 16.3633V11.4062V7.1875C8.625 6.94141 8.76562 6.73047 9.01172 6.66016L19.9453 3.28516C20.0156 3.28516 20.0859 3.25 20.1914 3.25C20.6133 3.25 21 3.63672 21 4.05859ZM19.875 16.1875C19.875 15.4492 19.0664 14.5 17.625 14.5C16.1484 14.5 15.375 15.4492 15.375 16.1875C15.375 16.9609 16.1484 17.875 17.625 17.875C19.0664 17.875 19.875 16.9609 19.875 16.1875ZM8.625 18.4375C8.625 17.6992 7.81641 16.75 6.375 16.75C4.89844 16.75 4.125 17.6992 4.125 18.4375C4.125 19.2109 4.89844 20.125 6.375 20.125C7.81641 20.125 8.625 19.2109 8.625 18.4375ZM19.875 7.64453V4.51562L9.75 7.60938V10.7383L19.875 7.64453Z" fill="#4A5A61"/>
</svg>
