<svg width="24" height="24" viewBox="0 0 24 24" fill="none" xmlns="http://www.w3.org/2000/svg">
<path d="M14.293 4.23437C14.3633 4.30469 14.3984 4.33984 14.4688 4.375C13.6602 4.41016 12.957 4.48047 12.3594 4.62109C11.4453 4.375 9.96875 4.23438 7.75391 4.62109C3.92188 5.25391 2.69141 6.51953 2.375 6.97656C2.375 7.01172 2.375 7.08203 2.375 7.15234L3.35938 12.918C3.57031 14.0078 4.0625 14.9922 4.83594 15.625C5.57422 16.2227 6.48828 16.8555 7.4375 17.3125C8.03516 17.5938 8.59766 17.7695 9.125 17.875C9.33594 18.2266 9.61719 18.6133 9.93359 19C7.89453 19.1758 5.57422 17.6641 4.13281 16.4688C3.07812 15.625 2.48047 14.3945 2.23438 13.0938L1.25 7.36328C1.21484 7.01172 1.21484 6.66016 1.42578 6.37891C1.95313 5.60547 3.46484 4.16406 7.54297 3.49609C11.6562 2.82812 13.5547 3.70703 14.293 4.23437ZM6.83984 13.3398C7.15625 13.0938 7.61328 12.8125 8.14062 12.6016L8.10547 12.9531C8.03516 13.2695 8 13.5859 8 13.9023C7.82422 14.0078 7.68359 14.1133 7.54297 14.2188C7.36719 14.3945 7.15625 14.5703 7.01562 14.7812C6.83984 15.0273 6.48828 15.0977 6.20703 14.9219C5.96094 14.7461 5.89062 14.3945 6.06641 14.1484C6.27734 13.832 6.55859 13.5859 6.83984 13.3398ZM6.69922 9.05078C6.80469 8.76953 7.12109 8.59375 7.4375 8.69922C7.71875 8.83984 7.85938 9.15625 7.75391 9.4375C7.54297 9.96484 7.05078 10.3867 6.41797 10.4922C5.82031 10.5977 5.1875 10.3516 4.83594 9.92969C4.625 9.68359 4.66016 9.33203 4.90625 9.12109C5.15234 8.94531 5.50391 8.98047 5.71484 9.19141C5.99609 9.54297 6.52344 9.4375 6.69922 9.05078ZM14.7852 21.2148C12.6758 20.8633 10.8828 18.5781 9.86328 16.9258C9.125 15.8008 8.98438 14.4297 9.19531 13.1289L10.1797 7.36328C10.25 7.04688 10.3906 6.69531 10.6719 6.51953C11.4102 5.95703 13.3438 5.07812 17.4219 5.74609C21.5 6.41406 23.0117 7.85547 23.5391 8.62891C23.75 8.91016 23.75 9.26172 23.7148 9.61328L22.7305 15.3438C22.4844 16.6445 21.8867 17.875 20.8672 18.7188C19.3203 19.9844 16.8945 21.5664 14.7852 21.2148ZM12.7109 18.7891C13.4844 19.5273 14.2578 19.9844 14.9609 20.125C15.6641 20.2305 16.543 20.0195 17.5273 19.5625C18.4766 19.1055 19.3906 18.4727 20.1289 17.875C20.9023 17.2422 21.3945 16.2578 21.6055 15.168L22.5898 9.40234C22.5898 9.33203 22.5898 9.26172 22.5898 9.22656C22.2734 8.76953 21.043 7.46875 17.2109 6.87109C13.4141 6.23828 11.832 7.04688 11.375 7.39844C11.3398 7.39844 11.3398 7.46875 11.3047 7.57422L10.3203 13.3047C10.1445 14.4297 10.2852 15.4844 10.8125 16.3281C11.3047 17.1367 11.9727 18.0508 12.7109 18.7891ZM13.5898 11.6523C13.3789 11.8984 13.0273 11.9336 12.7813 11.7227C12.5352 11.5469 12.5 11.1953 12.7109 10.9492C13.0625 10.4922 13.6953 10.2461 14.293 10.3516C14.9258 10.457 15.418 10.8789 15.6289 11.4062C15.7344 11.7227 15.5938 12.0391 15.3125 12.1445C14.9961 12.25 14.6797 12.1094 14.5742 11.8281C14.5039 11.6172 14.3281 11.4766 14.1172 11.4766C13.9063 11.4414 13.7305 11.5117 13.5898 11.6523ZM18.793 14.6758C18.8984 14.6406 19.0039 14.6055 19.1094 14.5352C19.25 14.5 19.3906 14.4648 19.4961 14.3945C19.707 14.2891 19.9883 14.4648 19.9531 14.6758C19.918 14.8164 19.8828 14.9922 19.8477 15.1328C19.8125 15.2383 19.7773 15.3789 19.707 15.4844V15.5195C19.0039 17.1719 17.2109 18.2266 15.3477 17.9102C13.4492 17.5938 12.1133 16.0469 12.0078 14.2891C12.0078 14.2539 12.0078 14.2188 12.0078 14.2188C12.0078 14.0781 12.0078 13.9727 12.0078 13.832C12.0078 13.6914 12.043 13.5508 12.043 13.375C12.0781 13.1641 12.3945 13.0938 12.5703 13.2695C12.6758 13.3398 12.7813 13.4453 12.8867 13.5156C12.957 13.5859 13.0625 13.6562 13.1328 13.7266L13.168 13.7617C13.9414 14.2891 14.8555 14.7109 15.875 14.8516C16.8594 15.0273 17.8789 14.957 18.793 14.6758ZM18.0547 15.9766C17.2813 16.1172 16.4727 16.1172 15.6641 15.9766C14.8555 15.8359 14.1172 15.5898 13.4141 15.2031C13.8008 16.0117 14.5742 16.6445 15.5234 16.7852C16.5078 16.9609 17.4219 16.6094 18.0547 15.9766ZM18.0898 12.3906C17.8789 12.6367 17.5273 12.6719 17.2813 12.4609C17.0352 12.2852 17 11.9336 17.2109 11.6875C17.5977 11.2305 18.1953 10.9844 18.8281 11.0898C19.4609 11.1953 19.918 11.6172 20.1289 12.1797C20.2344 12.4609 20.0938 12.7773 19.8125 12.8828C19.4961 12.9883 19.1797 12.8477 19.0742 12.5664C19.0039 12.3906 18.8281 12.25 18.6172 12.2148C18.4063 12.1797 18.2305 12.25 18.0898 12.3906Z" fill="#4A5A61"/>
</svg>
