<svg width="24" height="24" viewBox="0 0 24 24" fill="none" xmlns="http://www.w3.org/2000/svg">
<path d="M21.1484 6.30859C21.6055 5.88672 21.6055 5.14844 21.1484 4.72656C20.7266 4.26953 19.9883 4.26953 19.5664 4.72656L13.7656 10.4922L15.3477 12.1094L21.1484 6.30859ZM14.5742 12.8828L12.9922 11.3008L11.6914 12.6016L10.25 14.0078L11.8672 15.625L12.0078 15.4492L13.2734 14.1836L14.5742 12.8828ZM8.5625 14.5V14.5352C6.98047 14.5352 5.75 15.7656 5.75 17.3477C5.75 17.418 5.75 17.5234 5.75 17.6289C5.82031 18.2266 5.64453 18.7891 5.32812 19.2812C4.97656 19.7383 4.41406 20.125 3.64062 20.1602H8.5625C10.1094 20.1602 11.375 18.8945 11.375 17.3477C11.375 17.1016 11.3398 16.8555 11.2695 16.6445L9.23047 14.6055C9.01953 14.5352 8.77344 14.5 8.5625 14.5ZM12.4297 16.6445C12.4648 16.8555 12.5 17.1016 12.5 17.3125C12.5 19.4922 10.707 21.25 8.5625 21.25H3.5C2.86719 21.25 2.375 20.7578 2.375 20.125C2.375 19.5273 2.86719 19 3.5 19H3.64062C4.27344 19 4.69531 18.3672 4.625 17.7344C4.625 17.5938 4.625 17.4531 4.625 17.3477C4.625 15.168 6.38281 13.4102 8.5625 13.4102C8.77344 13.4102 9.01953 13.4102 9.23047 13.4453L18.7578 3.91797C19.6367 3.03906 21.0781 3.03906 21.957 3.91797C22.8359 4.79688 22.8359 6.23828 21.957 7.11719L12.4297 16.6445ZM8.35156 3.84766L12.8164 8.3125L12.0078 9.08594L10.2852 7.36328L7.61328 10.0703L9.30078 11.793L8.80859 12.2852C8.73828 12.2852 8.63281 12.25 8.5625 12.25C8.42188 12.25 8.31641 12.2852 8.21094 12.2852L4.09766 8.13672C3.32422 7.36328 3.32422 6.13281 4.09766 5.35938L5.57422 3.84766C6.34766 3.10938 7.57812 3.10938 8.35156 3.84766ZM16.7891 13.8672L17.5625 13.0586L19.3555 14.8516C19.7422 15.2734 20.0586 15.7656 20.1992 16.293L21.4648 20.5469C21.5 20.7578 21.4648 20.9688 21.3242 21.1094C21.1836 21.25 20.9727 21.3203 20.7617 21.25L16.5078 19.9844C15.9805 19.8438 15.4883 19.5273 15.0664 19.1406L13.5898 17.6641C13.5898 17.5586 13.5898 17.4531 13.5898 17.3477C13.5898 17.2422 13.5898 17.1367 13.5898 17.0312L14.082 16.5742L15.875 18.332C16.1211 18.6133 16.4727 18.8242 16.8242 18.9297L20.0938 19.8789L19.1445 16.6094C19.0391 16.2578 18.8281 15.9062 18.5469 15.6602L16.7891 13.8672ZM6.38281 4.65625L4.87109 6.16797C4.55469 6.48438 4.55469 7.01172 4.87109 7.36328L6.80469 9.26172L9.51172 6.58984L7.57812 4.65625C7.22656 4.33984 6.69922 4.33984 6.38281 4.65625Z" fill="#4A5A61"/>
</svg>
