<svg width="24" height="24" viewBox="0 0 24 24" fill="none" xmlns="http://www.w3.org/2000/svg">
<path d="M13.5117 19.9844C13.5117 19.9492 13.5117 19.9492 13.5117 19.9141L14.2852 16.8906C14.3203 16.6797 14.3203 16.4336 14.2148 16.293L14.0742 16.082C13.8281 15.7656 13.4062 15.6602 13.0195 15.6602H10.9453C10.5586 15.6602 10.1367 15.7656 9.89062 16.082L9.75 16.293C9.64453 16.4336 9.64453 16.6797 9.67969 16.8906L10.4531 19.9141C10.4531 19.9492 10.4531 19.9492 10.4531 19.9844C10.9453 20.0898 11.4727 20.125 11.9648 20.125C12.4922 20.125 13.0195 20.0898 13.5117 19.9844ZM14.7422 19.6328C16.0781 19.1406 17.2734 18.2617 18.1523 17.1719L15.5859 16.9961C15.5508 16.9961 15.4805 17.0312 15.4453 17.0312C15.4102 17.0664 15.375 17.1367 15.375 17.1719L14.7422 19.6328ZM18.8555 16.1172C19.3477 15.2383 19.6641 14.2539 19.8047 13.1992C19.7695 13.1992 19.7344 13.1992 19.7344 13.1641L17.0977 11.5117C16.9219 11.4062 16.6758 11.3359 16.5 11.4062L16.2539 11.4766C15.9023 11.582 15.6562 11.9336 15.5508 12.3203L14.8828 14.2891C14.7773 14.6758 14.7422 15.0977 14.9883 15.4141L15.1289 15.625C15.2344 15.8008 15.4453 15.8711 15.6562 15.8711L18.7852 16.082C18.8203 16.082 18.8203 16.082 18.8555 16.082V16.1172ZM19.8398 11.9336C19.8047 10.457 19.3125 9.08594 18.5391 7.92578L17.5898 10.2812C17.5898 10.3516 17.5898 10.3867 17.5898 10.457C17.625 10.4922 17.6602 10.5273 17.6953 10.5625L19.8398 11.9336ZM17.7656 6.90625C17.0625 6.16797 16.2188 5.53516 15.3047 5.11328C15.2695 5.14844 15.2695 5.14844 15.2344 5.18359L12.8438 7.1875C12.668 7.29297 12.5273 7.50391 12.5273 7.71484V7.92578C12.5273 8.34766 12.8086 8.66406 13.125 8.91016L14.8125 10.1406C15.1289 10.3516 15.5508 10.5273 15.9023 10.3867L16.1484 10.3164C16.3594 10.2461 16.4648 10.0703 16.5703 9.85938L17.7305 6.97656C17.7305 6.97656 17.7305 6.94141 17.7656 6.90625ZM14.0742 4.69141C13.4062 4.48047 12.7031 4.375 12 4.375C11.2617 4.375 10.5586 4.48047 9.89062 4.69141L11.8594 6.30859C11.8945 6.34375 11.9297 6.34375 12 6.34375C12.0352 6.34375 12.0703 6.34375 12.1055 6.30859L14.0742 4.69141ZM8.66016 5.11328C7.74609 5.57031 6.90234 6.16797 6.19922 6.90625C6.23438 6.94141 6.23438 6.97656 6.23438 6.97656L7.39453 9.85938C7.5 10.0703 7.64062 10.2461 7.81641 10.3164L8.0625 10.3867C8.41406 10.5273 8.83594 10.3516 9.15234 10.1406L10.8398 8.91016C11.1562 8.66406 11.4375 8.34766 11.4375 7.92578V7.71484C11.4375 7.50391 11.2969 7.29297 11.1211 7.1875L8.73047 5.18359C8.69531 5.14844 8.69531 5.14844 8.66016 5.11328ZM5.42578 7.92578C4.65234 9.08594 4.19531 10.457 4.125 11.9336L6.26953 10.5625C6.30469 10.5273 6.33984 10.4922 6.375 10.457V10.4219C6.375 10.3867 6.375 10.3516 6.375 10.2812L5.42578 7.92578ZM4.16016 13.1992C4.30078 14.2539 4.61719 15.2383 5.10938 16.1172C5.14453 16.082 5.17969 16.082 5.17969 16.082L8.30859 15.8711C8.51953 15.8711 8.73047 15.8008 8.87109 15.625L8.97656 15.4492C9.22266 15.0977 9.1875 14.6758 9.08203 14.3242L8.44922 12.3203C8.30859 11.9688 8.0625 11.582 7.71094 11.4766L7.46484 11.4062C7.28906 11.3359 7.04297 11.4062 6.86719 11.5117L4.23047 13.1641C4.23047 13.1992 4.19531 13.1992 4.16016 13.1992ZM5.8125 17.1719C6.69141 18.2617 7.88672 19.1406 9.22266 19.6328L8.58984 17.1719C8.58984 17.1016 8.55469 17.0664 8.51953 17.0312C8.48438 17.0312 8.41406 16.9961 8.37891 16.9961L5.8125 17.1719ZM3 12.25C3 9.05078 4.6875 6.09766 7.5 4.48047C10.2773 2.86328 13.6875 2.86328 16.5 4.48047C19.2773 6.09766 21 9.05078 21 12.25C21 15.4844 19.2773 18.4375 16.5 20.0547C13.6875 21.6719 10.2773 21.6719 7.5 20.0547C4.6875 18.4375 3 15.4844 3 12.25ZM11.4727 9.82422L9.82031 11.0195C9.50391 11.2656 9.39844 11.6172 9.50391 11.9688L10.1367 13.9727C10.2422 14.2891 10.5938 14.5352 10.9453 14.5352H13.0195C13.4062 14.5352 13.7227 14.2891 13.8281 13.9727L14.4609 11.9688C14.5664 11.6172 14.4609 11.2656 14.1797 11.0195L12.4922 9.82422C12.1758 9.61328 11.7891 9.61328 11.4727 9.82422Z" fill="#4A5A61"/>
</svg>
