<svg width="24" height="24" viewBox="0 0 24 24" fill="none" xmlns="http://www.w3.org/2000/svg">
<path d="M10.4531 7.85542L10.0312 7.39839L9.85547 7.22261C8.94141 6.20308 7.57031 5.71089 6.23438 5.95698C4.33594 6.30855 3 7.92573 3 9.82417V9.9648C3 11.0898 3.45703 12.1796 4.30078 12.9531L10.7695 18.9648C10.7695 19 10.8047 19 10.875 19C10.9102 19 10.9453 19 10.9805 18.9648L11.332 18.6132C11.5078 18.9648 11.6836 19.3164 11.8945 19.6328L11.7188 19.8085C11.6836 19.8085 11.6836 19.8437 11.6484 19.8789C11.4023 20.0546 11.1562 20.125 10.875 20.125C10.5234 20.125 10.2422 20.0195 9.99609 19.8085L3.52734 13.7617C3.38672 13.6562 3.24609 13.5156 3.14062 13.375C2.33203 12.4257 1.875 11.2304 1.875 9.9648V9.82417C1.875 7.39839 3.59766 5.28901 6.02344 4.86714C7.46484 4.58589 8.90625 4.97261 10.0664 5.85151C10.2773 6.0273 10.5234 6.23823 10.6992 6.48433L10.8398 6.62495L11.0156 6.48433C11.1562 6.30855 11.2969 6.13276 11.4727 5.99214C11.543 5.95698 11.6133 5.88667 11.6484 5.85151C12.8086 4.97261 14.25 4.58589 15.6914 4.86714C18.1172 5.28901 19.875 7.39839 19.875 9.82417V9.9648C19.875 10.2109 19.8398 10.4218 19.8047 10.6679C19.4531 10.4921 19.1016 10.3515 18.7148 10.246C18.7148 10.1406 18.75 10.0703 18.75 9.9648V9.82417C18.75 7.92573 17.3789 6.30855 15.5156 5.95698C14.1445 5.71089 12.7734 6.20308 11.8594 7.22261L11.7188 7.39839L11.2969 7.85542C11.1914 7.96089 11.0156 8.0312 10.875 8.0312C10.6992 8.0312 10.5586 7.96089 10.4531 7.85542ZM17.0625 20.125C18.4688 20.125 19.7344 19.3867 20.4375 18.1562C21.1758 16.9609 21.1758 15.4492 20.4375 14.2187C19.7344 13.0234 18.4688 12.25 17.0625 12.25C15.6211 12.25 14.3555 13.0234 13.6523 14.2187C12.9141 15.4492 12.9141 16.9609 13.6523 18.1562C14.3555 19.3867 15.6211 20.125 17.0625 20.125ZM17.0625 11.125C18.8555 11.125 20.5078 12.1093 21.4219 13.6562C22.3359 15.2382 22.3359 17.1718 21.4219 18.7187C20.5078 20.3007 18.8555 21.25 17.0625 21.25C15.2344 21.25 13.582 20.3007 12.668 18.7187C11.7539 17.1718 11.7539 15.2382 12.668 13.6562C13.582 12.1093 15.2344 11.125 17.0625 11.125ZM19.418 14.6757C19.6289 14.8867 19.6289 15.2734 19.418 15.4843L16.8867 18.0156C16.6758 18.2265 16.2891 18.2265 16.0781 18.0156L14.6719 16.6093C14.4609 16.3984 14.4609 16.0117 14.6719 15.8007C14.8828 15.5898 15.2695 15.5898 15.4805 15.8007L16.5 16.8203L18.6094 14.6757C18.8203 14.4648 19.207 14.4648 19.418 14.6757Z" fill="#4A5A61"/>
</svg>
