<svg width="24" height="24" viewBox="0 0 24 24" fill="none" xmlns="http://www.w3.org/2000/svg">
<path d="M9.75 4.375C8.87109 4.375 8.13281 5.07812 8.0625 5.92188C8.02734 6.13281 7.85156 6.34375 7.64062 6.41406C6.90234 6.58984 6.33984 7.25781 6.33984 8.03125C6.33984 8.13672 6.375 8.24219 6.375 8.34766C6.44531 8.62891 6.30469 8.91016 6.02344 8.98047C5.39062 9.22656 4.93359 9.85938 4.93359 10.5625C4.93359 10.7734 4.96875 10.9492 5.03906 11.0898C5.10938 11.3008 5.03906 11.5469 4.86328 11.6875C4.40625 12.1094 4.125 12.707 4.125 13.375C4.125 14.1836 4.54688 14.8867 5.17969 15.3086C5.39062 15.4492 5.49609 15.7305 5.39062 16.0117C5.28516 16.2227 5.25 16.5039 5.25 16.75C5.25 17.8398 6.12891 18.7188 7.21875 18.7188C7.32422 18.7188 7.42969 18.7188 7.53516 18.7188C7.81641 18.6484 8.0625 18.8242 8.16797 19.0703C8.41406 19.7031 9.01172 20.125 9.75 20.125C10.6641 20.125 11.4375 19.3867 11.4375 18.4375V13.9375H9.75C9.46875 13.9375 9.25781 14.1133 9.1875 14.3594C9.67969 14.5703 10.0312 15.0625 10.0312 15.625C10.0312 16.4336 9.39844 17.0312 8.625 17.0312C7.81641 17.0312 7.21875 16.4336 7.21875 15.625C7.21875 15.0625 7.57031 14.5703 8.0625 14.3594C8.13281 13.4805 8.87109 12.8125 9.75 12.8125H11.4375V8.875H10.4531C10.2422 9.40234 9.75 9.71875 9.1875 9.71875C8.37891 9.71875 7.78125 9.12109 7.78125 8.3125C7.78125 7.53906 8.37891 6.90625 9.1875 6.90625C9.75 6.90625 10.2422 7.25781 10.4531 7.75H11.4375V6.0625C11.4375 5.14844 10.6641 4.375 9.75 4.375ZM12.5625 8.875V15.625H14.6367C14.8477 15.1328 15.3398 14.7812 15.9375 14.7812C16.7109 14.7812 17.3438 15.4141 17.3438 16.1875C17.3438 16.9961 16.7109 17.5938 15.9375 17.5938C15.3398 17.5938 14.8477 17.2773 14.6367 16.75H12.5625V18.4375C12.5625 19.3867 13.3008 20.125 14.25 20.125C14.9531 20.125 15.5508 19.7031 15.7969 19.0703C15.9023 18.7891 16.1484 18.6484 16.4297 18.7188C16.5352 18.7188 16.6406 18.7188 16.7461 18.7188C17.8359 18.7188 18.7148 17.8398 18.7148 16.75C18.7148 16.5039 18.6797 16.2227 18.5742 16.0117C18.4688 15.7305 18.5742 15.4492 18.7852 15.3086C19.4531 14.8867 19.875 14.1836 19.875 13.375C19.875 12.707 19.5586 12.1094 19.1016 11.6875C18.9258 11.5469 18.8555 11.3359 18.9258 11.0898C18.9961 10.9492 19.0312 10.7734 19.0312 10.5625C19.0312 9.85938 18.5742 9.22656 17.9414 9.01562C17.6602 8.91016 17.5195 8.62891 17.5898 8.38281C17.5898 8.27734 17.625 8.17188 17.625 8.03125C17.625 7.25781 17.0625 6.58984 16.3242 6.41406C16.1133 6.34375 15.9375 6.16797 15.9023 5.92188C15.832 5.07812 15.1289 4.375 14.25 4.375C13.3008 4.375 12.5625 5.14844 12.5625 6.0625V7.75H14.25C15.1641 7.75 15.9375 8.52344 15.9375 9.4375V9.85938C16.4297 10.0703 16.7812 10.5625 16.7812 11.125C16.7812 11.9336 16.1484 12.5312 15.375 12.5312C14.5664 12.5312 13.9688 11.9336 13.9688 11.125C13.9688 10.5625 14.2852 10.0703 14.8125 9.85938V9.4375C14.8125 9.15625 14.5312 8.875 14.25 8.875H12.5625ZM9.75 21.25C8.69531 21.25 7.78125 20.6875 7.28906 19.8438C7.25391 19.8438 7.21875 19.8438 7.21875 19.8438C5.49609 19.8438 4.125 18.4727 4.125 16.75C4.125 16.5039 4.16016 16.2227 4.19531 15.9766C3.45703 15.3789 3 14.4297 3 13.375C3 12.4961 3.31641 11.6875 3.87891 11.0898C3.84375 10.9492 3.84375 10.7734 3.84375 10.5625C3.84375 9.54297 4.40625 8.62891 5.25 8.13672C5.25 8.10156 5.25 8.06641 5.25 8.03125C5.25 6.87109 5.95312 5.85156 7.00781 5.42969C7.28906 4.19922 8.41406 3.25 9.75 3.25C10.6641 3.25 11.4727 3.70703 12 4.375C12.4922 3.70703 13.3008 3.25 14.25 3.25C15.5508 3.25 16.6758 4.19922 16.957 5.42969C18.0117 5.85156 18.75 6.87109 18.75 8.03125C18.75 8.06641 18.75 8.10156 18.75 8.13672C19.5586 8.62891 20.1562 9.54297 20.1562 10.5625C20.1562 10.7734 20.1211 10.9492 20.0859 11.0898C20.6484 11.6875 21 12.4961 21 13.375C21 14.4297 20.5078 15.3789 19.7695 15.9766C19.8398 16.2227 19.875 16.5039 19.875 16.75C19.875 18.4727 18.4688 19.8438 16.7812 19.8438C16.7461 19.8438 16.7109 19.8438 16.6758 19.8438C16.1836 20.6875 15.2695 21.25 14.25 21.25C13.3008 21.25 12.4922 20.8281 12 20.125C11.4727 20.8281 10.6641 21.25 9.75 21.25ZM9.1875 7.75C8.87109 7.75 8.625 8.03125 8.625 8.3125C8.625 8.62891 8.87109 8.875 9.1875 8.875C9.46875 8.875 9.75 8.62891 9.75 8.3125C9.75 8.03125 9.46875 7.75 9.1875 7.75ZM8.625 15.0625C8.30859 15.0625 8.0625 15.3438 8.0625 15.625C8.0625 15.9414 8.30859 16.1875 8.625 16.1875C8.90625 16.1875 9.1875 15.9414 9.1875 15.625C9.1875 15.3438 8.90625 15.0625 8.625 15.0625ZM14.8125 11.125C14.8125 11.4414 15.0586 11.6875 15.375 11.6875C15.6562 11.6875 15.9375 11.4414 15.9375 11.125C15.9375 10.8438 15.6562 10.5625 15.375 10.5625C15.0586 10.5625 14.8125 10.8438 14.8125 11.125ZM15.9375 15.625C15.6211 15.625 15.375 15.9062 15.375 16.1875C15.375 16.5039 15.6211 16.75 15.9375 16.75C16.2188 16.75 16.5 16.5039 16.5 16.1875C16.5 15.9062 16.2188 15.625 15.9375 15.625Z" fill="#4A5A61"/>
</svg>
