<svg width="24" height="24" viewBox="0 0 24 24" fill="none" xmlns="http://www.w3.org/2000/svg">
<path d="M14.2929 4.23437C14.3633 4.30469 14.3984 4.33984 14.4687 4.375C13.6601 4.41016 12.957 4.48047 12.3593 4.62109C11.4453 4.375 9.96872 4.23438 7.75388 4.62109C3.92185 5.25391 2.69138 6.51953 2.37497 6.97656C2.37497 7.01172 2.37497 7.08203 2.37497 7.15234L3.35935 12.918C3.57029 14.0078 4.06247 14.9922 4.83591 15.625C5.57419 16.2227 6.48825 16.8555 7.43747 17.3125C8.03513 17.5938 8.59763 17.7695 9.12497 17.875C9.33591 18.2266 9.61716 18.6133 9.93357 19C7.8945 19.1758 5.57419 17.6641 4.13279 16.4688C3.0781 15.625 2.48044 14.3945 2.23435 13.0938L1.24997 7.36328C1.21482 7.01172 1.21482 6.66016 1.42575 6.37891C1.9531 5.60547 3.46482 4.16406 7.54294 3.49609C11.6562 2.82812 13.5547 3.70703 14.2929 4.23437ZM6.83982 13.3398C7.15622 13.0938 7.61325 12.8125 8.1406 12.6016L8.10544 12.9531C8.03513 13.2695 7.99997 13.5859 7.99997 13.9023C7.82419 14.0078 7.68357 14.1133 7.54294 14.2188C7.36716 14.3945 7.15622 14.5703 7.0156 14.7812C6.83982 15.0273 6.48825 15.0977 6.207 14.9219C5.96091 14.7461 5.8906 14.3945 6.06638 14.1484C6.27732 13.832 6.55857 13.5859 6.83982 13.3398ZM6.69919 9.05078C6.80466 8.76953 7.12107 8.59375 7.43747 8.69922C7.71872 8.83984 7.85935 9.15625 7.75388 9.4375C7.54294 9.96484 7.05075 10.3867 6.41794 10.4922C5.82029 10.5977 5.18747 10.3516 4.83591 9.92969C4.62497 9.68359 4.66013 9.33203 4.90622 9.12109C5.15232 8.94531 5.50388 8.98047 5.71482 9.19141C5.99607 9.54297 6.52341 9.4375 6.69919 9.05078ZM14.7851 21.2148C12.6758 20.8633 10.8828 18.5781 9.86325 16.9258C9.12497 15.8008 8.98435 14.4297 9.19529 13.1289L10.1797 7.36328C10.25 7.04688 10.3906 6.69531 10.6718 6.51953C11.4101 5.95703 13.3437 5.07812 17.4218 5.74609C21.5 6.41406 23.0117 7.85547 23.539 8.62891C23.75 8.91016 23.75 9.26172 23.7148 9.61328L22.7304 15.3438C22.4843 16.6445 21.8867 17.875 20.8672 18.7188C19.3203 19.9844 16.8945 21.5664 14.7851 21.2148ZM12.7109 18.7891C13.4843 19.5273 14.2578 19.9844 14.9609 20.125C15.664 20.2305 16.5429 20.0195 17.5273 19.5625C18.4765 19.1055 19.3906 18.4727 20.1289 17.875C20.9023 17.2422 21.3945 16.2578 21.6054 15.168L22.5898 9.40234C22.5898 9.33203 22.5898 9.26172 22.5898 9.22656C22.2734 8.76953 21.0429 7.46875 17.2109 6.87109C13.414 6.23828 11.832 7.04688 11.375 7.39844C11.3398 7.39844 11.3398 7.46875 11.3047 7.57422L10.3203 13.3047C10.1445 14.4297 10.2851 15.4844 10.8125 16.3281C11.3047 17.1367 11.9726 18.0508 12.7109 18.7891ZM13.5898 11.6523C13.3789 11.8984 13.0273 11.9336 12.7812 11.7227C12.5351 11.5469 12.5 11.1953 12.7109 10.9492C13.0625 10.4922 13.6953 10.2461 14.2929 10.3516C14.9258 10.457 15.4179 10.8789 15.6289 11.4062C15.7343 11.7227 15.5937 12.0391 15.3125 12.1445C14.9961 12.25 14.6797 12.1094 14.5742 11.8281C14.5039 11.6172 14.3281 11.4766 14.1172 11.4766C13.9062 11.4414 13.7304 11.5117 13.5898 11.6523ZM18.7929 14.6758C18.8984 14.6406 19.0039 14.6055 19.1093 14.5352C19.25 14.5 19.3906 14.4648 19.4961 14.3945C19.707 14.2891 19.9883 14.4648 19.9531 14.6758C19.9179 14.8164 19.8828 14.9922 19.8476 15.1328C19.8125 15.2383 19.7773 15.3789 19.707 15.4844V15.5195C19.0039 17.1719 17.2109 18.2266 15.3476 17.9102C13.4492 17.5938 12.1133 16.0469 12.0078 14.2891C12.0078 14.2539 12.0078 14.2188 12.0078 14.2188C12.0078 14.0781 12.0078 13.9727 12.0078 13.832C12.0078 13.6914 12.0429 13.5508 12.0429 13.375C12.0781 13.1641 12.3945 13.0938 12.5703 13.2695C12.6758 13.3398 12.7812 13.4453 12.8867 13.5156C12.957 13.5859 13.0625 13.6562 13.1328 13.7266L13.1679 13.7617C13.9414 14.2891 14.8554 14.7109 15.875 14.8516C16.8593 15.0273 17.8789 14.957 18.7929 14.6758ZM18.0547 15.9766C17.2812 16.1172 16.4726 16.1172 15.664 15.9766C14.8554 15.8359 14.1172 15.5898 13.414 15.2031C13.8008 16.0117 14.5742 16.6445 15.5234 16.7852C16.5078 16.9609 17.4218 16.6094 18.0547 15.9766ZM18.0898 12.3906C17.8789 12.6367 17.5273 12.6719 17.2812 12.4609C17.0351 12.2852 17 11.9336 17.2109 11.6875C17.5976 11.2305 18.1953 10.9844 18.8281 11.0898C19.4609 11.1953 19.9179 11.6172 20.1289 12.1797C20.2343 12.4609 20.0937 12.7773 19.8125 12.8828C19.4961 12.9883 19.1797 12.8477 19.0742 12.5664C19.0039 12.3906 18.8281 12.25 18.6172 12.2148C18.4062 12.1797 18.2304 12.25 18.0898 12.3906Z" fill="#4A5A61"/>
</svg>
