<svg width="24" height="24" viewBox="0 0 24 24" fill="none" xmlns="http://www.w3.org/2000/svg">
<path d="M12 20.125C15.0938 20.125 17.625 17.6289 17.625 14.5C17.625 13.9375 17.3789 13.1289 16.957 12.1445C16.5352 11.1602 15.9727 10.1055 15.3398 9.08594C14.0742 7.04688 12.6328 5.18359 12 4.375H11.9648C11.332 5.18359 9.89062 7.04688 8.625 9.08594C7.99219 10.1055 7.42969 11.1602 7.00781 12.1445C6.58594 13.1289 6.375 13.9375 6.375 14.5C6.375 17.6289 8.87109 20.125 12 20.125ZM5.25 14.5C5.25 11.3008 9.82031 5.28906 11.0859 3.67188C11.2969 3.42578 11.6133 3.25 11.9648 3.25H12C12.3516 3.25 12.668 3.42578 12.8789 3.67188C14.1445 5.28906 18.75 11.3008 18.75 14.5C18.75 18.2266 15.7266 21.25 12 21.25C8.27344 21.25 5.25 18.2266 5.25 14.5ZM9.1875 14.5C9.1875 16.082 10.418 17.3125 12 17.3125C12.2812 17.3125 12.5625 17.5938 12.5625 17.875C12.5625 18.1914 12.2812 18.4375 12 18.4375C9.82031 18.4375 8.0625 16.6797 8.0625 14.5C8.0625 14.2188 8.30859 13.9375 8.625 13.9375C8.90625 13.9375 9.1875 14.2188 9.1875 14.5Z" fill="#4A5A61"/>
</svg>
