<svg width="24" height="24" viewBox="0 0 24 24" fill="none" xmlns="http://www.w3.org/2000/svg">
<path d="M8.00001 6.0625C8.45704 6.0625 8.84376 5.71094 8.84376 5.21875C8.84376 4.76172 8.45704 4.375 8.00001 4.375C7.50782 4.375 7.15626 4.76172 7.15626 5.21875C7.15626 5.71094 7.50782 6.0625 8.00001 6.0625ZM8.00001 3.25C8.70313 3.25 9.33594 3.63672 9.68751 4.23438C10.0391 4.86719 10.0391 5.60547 9.68751 6.20312C9.33594 6.83594 8.70313 7.1875 8.00001 7.1875C7.26172 7.1875 6.62891 6.83594 6.27735 6.20312C5.92579 5.60547 5.92579 4.86719 6.27735 4.23438C6.62891 3.63672 7.26172 3.25 8.00001 3.25ZM6.87501 9.01562V14.5H9.12501V9.01562C8.91407 8.94531 8.66797 8.875 8.42188 8.875H7.54297C7.29688 8.875 7.08594 8.94531 6.87501 9.01562ZM6.87501 15.625V20.6875C6.87501 21.0039 6.59376 21.25 6.31251 21.25C5.9961 21.25 5.75001 21.0039 5.75001 20.6875V10.3867L3.99219 13.6562C3.81641 13.9375 3.50001 14.043 3.21876 13.9023C2.93751 13.7266 2.83204 13.4102 2.97266 13.1289L5.04688 9.26172C5.53907 8.34766 6.48829 7.75 7.54297 7.75H8.42188C9.47657 7.75 10.4258 8.34766 10.918 9.26172L12.6406 12.4609C12.3594 12.8125 12.1484 13.1641 11.9375 13.5859L10.25 10.3867V20.6875C10.25 21.0039 9.96876 21.25 9.68751 21.25C9.3711 21.25 9.12501 21.0039 9.12501 20.6875V15.625H6.87501ZM21.5 16.1875C21.5 14.7812 20.7266 13.5156 19.5313 12.8125C18.3008 12.0742 16.7891 12.0742 15.5938 12.8125C14.3633 13.5156 13.625 14.7812 13.625 16.1875C13.625 17.6289 14.3633 18.8945 15.5938 19.5977C16.7891 20.3359 18.3008 20.3359 19.5313 19.5977C20.7266 18.8945 21.5 17.6289 21.5 16.1875ZM12.5 16.1875C12.5 14.3945 13.4492 12.7422 15.0313 11.8281C16.5781 10.9141 18.5117 10.9141 20.0938 11.8281C21.6406 12.7422 22.625 14.3945 22.625 16.1875C22.625 18.0156 21.6406 19.668 20.0938 20.582C18.5117 21.4961 16.5781 21.4961 15.0313 20.582C13.4492 19.668 12.5 18.0156 12.5 16.1875ZM17.5625 17.875C17.8438 17.875 18.125 18.1562 18.125 18.4375C18.125 18.7539 17.8438 19 17.5625 19C17.2461 19 17 18.7539 17 18.4375C17 18.1562 17.2461 17.875 17.5625 17.875ZM15.3125 14.8516C15.3125 14.043 15.9453 13.375 16.7539 13.375H18.1953C19.0742 13.375 19.8125 14.1133 19.8125 14.9922C19.8125 15.5898 19.4609 16.1523 18.9336 16.4336L18.0898 16.8555C18.0547 17.1367 17.8086 17.3125 17.5625 17.3125C17.2461 17.3125 17 17.0664 17 16.75V16.5391C17 16.3281 17.1055 16.1172 17.2813 16.0117L18.4063 15.4492C18.582 15.3438 18.6875 15.168 18.6875 14.9922C18.6875 14.7461 18.4414 14.5 18.1953 14.5H16.7539C16.5781 14.5 16.4375 14.6758 16.4375 14.8516V15.0625C16.4375 15.3789 16.1563 15.625 15.875 15.625C15.5586 15.625 15.3125 15.3789 15.3125 15.0625V14.8516Z" fill="#4A5A61"/>
</svg>
