<svg width="24" height="24" viewBox="0 0 24 24" fill="none" xmlns="http://www.w3.org/2000/svg">
<path d="M9.74998 4.9375C9.74998 4.02344 10.4883 3.25 11.4375 3.25H12.5625C13.4765 3.25 14.25 4.02344 14.25 4.9375V8.38281L17.2031 6.66016C18.0117 6.20312 19.0312 6.48438 19.4883 7.29297L20.0508 8.24219C20.5429 9.05078 20.2617 10.1055 19.4531 10.5625L16.5 12.25L19.4531 13.9727C20.2617 14.4297 20.5078 15.4844 20.0508 16.293L19.4883 17.2422C19.0312 18.0508 18.0117 18.332 17.2031 17.875L14.25 16.1523V19.5625C14.25 20.5117 13.4765 21.25 12.5625 21.25H11.4375C10.4883 21.25 9.74998 20.5117 9.74998 19.5625V16.1523L6.7617 17.875C5.9531 18.332 4.93357 18.0508 4.47654 17.2422L3.91404 16.293C3.45701 15.4844 3.7031 14.4297 4.5117 13.9727L7.49998 12.25L4.5117 10.5625L4.79295 10.0703L4.5117 10.5625C3.7031 10.1055 3.45701 9.05078 3.91404 8.24219L4.47654 7.29297C4.93357 6.48438 5.9531 6.20312 6.7617 6.66016L9.74998 8.38281V4.9375ZM11.4375 4.375C11.1211 4.375 10.875 4.65625 10.875 4.9375V9.33203C10.875 9.54297 10.7695 9.71875 10.5937 9.82422C10.4179 9.92969 10.207 9.92969 10.0312 9.82422L6.1992 7.64453C5.9531 7.46875 5.60154 7.57422 5.46091 7.85547L4.89841 8.80469C4.72263 9.08594 4.8281 9.4375 5.0742 9.57812L8.90623 11.793C9.08201 11.8633 9.18748 12.0742 9.18748 12.25C9.18748 12.4609 9.08201 12.6367 8.90623 12.7422L5.0742 14.957C4.8281 15.0977 4.72263 15.4492 4.89841 15.7305L5.46091 16.6797C5.60154 16.9609 5.9531 17.0664 6.1992 16.8906L10.0312 14.7109C10.207 14.6055 10.4179 14.6055 10.5937 14.7109C10.7695 14.8164 10.875 14.9922 10.875 15.2031V19.5625C10.875 19.8789 11.1211 20.125 11.4375 20.125H12.5625C12.8437 20.125 13.125 19.8789 13.125 19.5625V15.2031C13.125 14.9922 13.2304 14.8164 13.4062 14.7109C13.582 14.6055 13.7929 14.6055 13.9687 14.7109L17.7656 16.8906C18.0117 17.0312 18.3633 16.9609 18.539 16.6797L19.1015 15.6953C19.2422 15.4492 19.1367 15.0977 18.8906 14.957L15.0937 12.7422C14.9179 12.6367 14.8125 12.4609 14.8125 12.25C14.8125 12.0742 14.9179 11.8633 15.0937 11.793L18.8906 9.57812C19.1367 9.4375 19.2422 9.08594 19.1015 8.80469L18.539 7.85547C18.3633 7.57422 18.0117 7.46875 17.7656 7.64453L13.9687 9.82422C13.7929 9.92969 13.582 9.92969 13.4062 9.82422C13.2304 9.71875 13.125 9.54297 13.125 9.33203V4.9375C13.125 4.65625 12.8437 4.375 12.5625 4.375H11.4375Z" fill="#4A5A61"/>
</svg>
