<svg width="24" height="24" viewBox="0 0 24 24" fill="none" xmlns="http://www.w3.org/2000/svg">
<path d="M5.75001 6.625C6.34767 6.625 6.87501 6.13281 6.87501 5.5C6.87501 4.90234 6.34767 4.375 5.75001 4.375C5.1172 4.375 4.62501 4.90234 4.62501 5.5C4.62501 6.13281 5.1172 6.625 5.75001 6.625ZM5.75001 3.25C6.52345 3.25 7.26173 3.70703 7.68361 4.375C8.07033 5.07812 8.07033 5.95703 7.68361 6.625C7.26173 7.32812 6.52345 7.75 5.75001 7.75C4.94142 7.75 4.20314 7.32812 3.78126 6.625C3.39454 5.95703 3.39454 5.07812 3.78126 4.375C4.20314 3.70703 4.94142 3.25 5.75001 3.25ZM4.94142 10C4.06251 10 3.32423 10.7031 3.25392 11.5469L3.11329 13.3047C3.07814 13.9375 3.57033 14.5 4.23829 14.5H5.82033C5.92579 14.7461 6.03126 14.957 6.2422 15.1328L6.73439 15.625H4.62501V20.6875C4.62501 21.0039 4.34376 21.25 4.06251 21.25C3.74611 21.25 3.50001 21.0039 3.50001 20.6875V15.5195C2.55079 15.168 1.91798 14.2539 1.98829 13.1992L2.12892 11.4766C2.26954 10 3.50001 8.875 4.94142 8.875H6.52345C7.50783 8.875 8.38673 9.40234 8.91408 10.2109C8.73829 10.2812 8.59767 10.3867 8.4922 10.5273L8.03517 10.9492C7.75392 10.3867 7.19142 10 6.52345 10H4.94142ZM6.87501 20.6875V15.7656L8.00001 16.8906V20.6875C8.00001 21.0039 7.71876 21.25 7.43751 21.25C7.12111 21.25 6.87501 21.0039 6.87501 20.6875ZM17 20.6875V16.8906L18.125 15.7656V20.6875C18.125 21.0039 17.8438 21.25 17.5625 21.25C17.2461 21.25 17 21.0039 17 20.6875ZM20.375 15.625H18.2305L18.7578 15.1328C18.9336 14.957 19.0742 14.7461 19.1445 14.5H20.7266C21.3945 14.5 21.8867 13.9375 21.8516 13.3047L21.711 11.5469C21.6406 10.7031 20.9024 10 20.0235 10H18.4414C17.7735 10 17.2109 10.3867 16.9297 10.9492L16.5078 10.5273C16.3672 10.3867 16.2266 10.2812 16.0859 10.2109C16.5781 9.40234 17.457 8.875 18.4414 8.875H20.0235C21.5 8.875 22.6953 10 22.836 11.4766L22.9766 13.1992C23.0469 14.2539 22.4141 15.168 21.5 15.5195V20.6875C21.5 21.0039 21.2188 21.25 20.9375 21.25C20.6211 21.25 20.375 21.0039 20.375 20.6875V15.625ZM19.25 6.625C19.8477 6.625 20.375 6.13281 20.375 5.5C20.375 4.90234 19.8477 4.375 19.25 4.375C18.6172 4.375 18.125 4.90234 18.125 5.5C18.125 6.13281 18.6172 6.625 19.25 6.625ZM19.25 3.25C20.0235 3.25 20.7617 3.70703 21.1836 4.375C21.5703 5.07812 21.5703 5.95703 21.1836 6.625C20.7617 7.32812 20.0235 7.75 19.25 7.75C18.4414 7.75 17.7031 7.32812 17.2813 6.625C16.8945 5.95703 16.8945 5.07812 17.2813 4.375C17.7031 3.70703 18.4414 3.25 19.25 3.25ZM10.0742 12.1094L8.77345 13.375H16.1914L14.8906 12.1094C14.6797 11.8984 14.6797 11.5117 14.8906 11.3008C15.1016 11.0898 15.4883 11.0898 15.6992 11.3008L17.9492 13.5508C18.1602 13.7617 18.1602 14.1484 17.9492 14.3594L15.6992 16.6094C15.4883 16.8203 15.1016 16.8203 14.8906 16.6094C14.6797 16.3984 14.6797 16.0117 14.8906 15.8008L16.1914 14.5H8.77345L10.0742 15.8008C10.2852 16.0117 10.2852 16.3984 10.0742 16.6094C9.86329 16.8203 9.47658 16.8203 9.26564 16.6094L7.01564 14.3594C6.8047 14.1484 6.8047 13.7617 7.01564 13.5508L9.26564 11.3008C9.47658 11.0898 9.86329 11.0898 10.0742 11.3008C10.2852 11.5117 10.2852 11.8984 10.0742 12.1094Z" fill="#4A5A61"/>
</svg>
