<svg width="24" height="24" viewBox="0 0 24 24" fill="none" xmlns="http://www.w3.org/2000/svg">
<path d="M5.75 3.8125C5.75 4.62109 5.85547 5.07812 6.03125 5.39453C6.20703 5.74609 6.41797 5.95703 6.69922 6.23828C6.98047 6.51953 7.33203 6.87109 7.57812 7.36328C7.82422 7.89062 8 8.55859 8 9.4375C8 9.75391 7.71875 10 7.4375 10C7.12109 10 6.875 9.75391 6.875 9.4375C6.875 8.66406 6.73438 8.20703 6.55859 7.89062C6.41797 7.53906 6.17188 7.32812 5.89062 7.04688V7.01172C5.60938 6.76562 5.25781 6.41406 5.01172 5.92188C4.76562 5.39453 4.625 4.72656 4.625 3.8125C4.625 3.53125 4.87109 3.25 5.1875 3.25C5.46875 3.25 5.75 3.53125 5.75 3.8125ZM9.125 3.8125C9.125 4.62109 9.23047 5.07812 9.40625 5.39453C9.58203 5.74609 9.79297 5.95703 10.0742 6.23828C10.3555 6.51953 10.707 6.87109 10.9531 7.36328C11.1992 7.89062 11.375 8.55859 11.375 9.4375C11.375 9.75391 11.0938 10 10.8125 10C10.4961 10 10.25 9.75391 10.25 9.4375C10.25 8.66406 10.1094 8.20703 9.93359 7.89062C9.79297 7.53906 9.54688 7.32812 9.26562 7.04688V7.01172C8.98438 6.76562 8.63281 6.41406 8.38672 5.92188C8.14062 5.39453 8 4.72656 8 3.8125C8 3.53125 8.24609 3.25 8.5625 3.25C8.84375 3.25 9.125 3.53125 9.125 3.8125ZM2.375 12.25H3.67578C3.92188 11.6172 4.51953 11.125 5.25781 11.125H19.707C20.4453 11.125 21.043 11.6172 21.2891 12.25H22.625C22.9062 12.25 23.1875 12.5312 23.1875 12.8125C23.1875 13.1289 22.9062 13.375 22.625 13.375H21.3594C21.1484 16.293 19.3555 18.7539 16.8594 19.9492C16.6133 20.7227 15.875 21.25 15.0312 21.25H9.96875C9.08984 21.25 8.35156 20.7227 8.10547 19.9492C5.60938 18.7539 3.81641 16.293 3.60547 13.375H2.375C2.05859 13.375 1.8125 13.1289 1.8125 12.8125C1.8125 12.5312 2.05859 12.25 2.375 12.25ZM20.1992 10H19.0039C18.5469 9.01562 17.5625 8.3125 16.4023 8.3125C15.2773 8.3125 14.2578 9.01562 13.8359 10H12.6406C13.1328 8.38281 14.6445 7.1875 16.4375 7.1875C18.1953 7.1875 19.707 8.38281 20.1992 10ZM9.16016 19.5625C9.26562 19.9141 9.58203 20.125 9.96875 20.125H15.0312C15.3828 20.125 15.6992 19.9141 15.8047 19.5625C15.9102 19.2812 16.1211 19.0703 16.4023 18.9297C18.5469 17.9102 20.0938 15.7656 20.2344 13.2344L20.2695 12.8477C20.2695 12.5312 20.0234 12.2852 19.707 12.2852H5.25781C4.94141 12.2852 4.69531 12.5312 4.69531 12.8477L4.73047 13.2344C4.87109 15.7656 6.41797 17.9102 8.5625 18.9297C8.84375 19.0703 9.05469 19.2812 9.16016 19.5625Z" fill="#4A5A61"/>
</svg>
