<svg width="24" height="24" viewBox="0 0 24 24" fill="none" xmlns="http://www.w3.org/2000/svg">
<path d="M9.1875 4.375C8.69531 4.375 8.34375 4.76172 8.34375 5.21875C8.34375 5.71094 8.69531 6.0625 9.1875 6.0625C9.64453 6.0625 10.0312 5.71094 10.0312 5.21875C10.0312 4.76172 9.64453 4.375 9.1875 4.375ZM9.1875 7.1875C8.44922 7.1875 7.81641 6.83594 7.46484 6.20312C7.11328 5.60547 7.11328 4.86719 7.46484 4.23438C7.81641 3.63672 8.44922 3.25 9.1875 3.25C9.89062 3.25 10.5234 3.63672 10.875 4.23438C11.2266 4.86719 11.2266 5.60547 10.875 6.20312C10.5234 6.83594 9.89062 7.1875 9.1875 7.1875ZM8.02734 10.5625V10.5977C8.09766 10.8789 7.92188 11.1953 7.60547 11.2656C5.60156 11.7227 4.125 13.5156 4.125 15.625C4.125 18.1211 6.12891 20.125 8.625 20.125C10.5586 20.125 12.2461 18.8945 12.8438 17.1367C12.9492 16.8555 13.2656 16.6797 13.582 16.7852C13.8633 16.8906 14.0039 17.207 13.8984 17.5234C13.125 19.7031 11.0508 21.25 8.625 21.25C5.49609 21.25 3 18.7539 3 15.625C3 12.9531 4.86328 10.7383 7.35938 10.1406C7.67578 10.0703 7.95703 10.2812 8.02734 10.5625ZM9.99609 8.76953L10.2773 10H15.375C15.6562 10 15.9375 10.2812 15.9375 10.5625C15.9375 10.8789 15.6562 11.125 15.375 11.125H10.5586L11.1914 14.0781C11.2617 14.3242 11.5078 14.5 11.7539 14.5H15.5859C16.0078 14.5 16.3945 14.7461 16.5703 15.1328L18.4336 18.8242L20.1562 17.9453C20.4375 17.8047 20.7891 17.9102 20.9297 18.1914C21.0703 18.4727 20.9648 18.8242 20.6836 18.9648L18.4336 20.0898C18.293 20.1602 18.1523 20.1602 18.0117 20.125C17.8359 20.0547 17.7305 19.9492 17.6602 19.8438L15.5859 15.625H11.7539C10.9805 15.625 10.2773 15.0977 10.1016 14.3242L8.90625 9.01562C8.83594 8.69922 9.01172 8.41797 9.32812 8.34766C9.64453 8.27734 9.92578 8.45312 9.99609 8.76953Z" fill="#4A5A61"/>
</svg>
