<svg width="24" height="24" viewBox="0 0 24 24" fill="none" xmlns="http://www.w3.org/2000/svg">
<path d="M4.125 7.32812V19.5625C4.125 19.8789 3.84375 20.125 3.5625 20.125C3.24609 20.125 3 19.8789 3 19.5625V7.32812C3 5.71094 4.30078 4.375 5.91797 4.375C6.72656 4.375 7.46484 4.69141 8.02734 5.25391L9.01172 6.23828C9.01172 6.27344 9.04688 6.27344 9.04688 6.30859C10.5938 5.14844 12.8086 5.25391 14.2148 6.66016L14.3555 6.83594L14.9531 6.23828C15.1641 6.02734 15.5508 6.02734 15.7617 6.23828C15.9727 6.44922 15.9727 6.83594 15.7617 7.04688L9.01172 13.7969C8.80078 14.0078 8.41406 14.0078 8.20312 13.7969C7.99219 13.5859 7.99219 13.1992 8.20312 12.9883L8.80078 12.3906L8.625 12.25C7.21875 10.8438 7.11328 8.62891 8.27344 7.08203C8.23828 7.08203 8.23828 7.04688 8.20312 7.04688L7.21875 6.0625C6.86719 5.71094 6.41016 5.5 5.91797 5.5C4.93359 5.5 4.125 6.34375 4.125 7.32812ZM9.43359 7.46875C8.34375 8.55859 8.34375 10.3516 9.43359 11.4414L9.60938 11.6172L13.582 7.64453L13.4062 7.46875C12.3164 6.37891 10.5234 6.37891 9.43359 7.46875ZM17.625 10.2812C17.625 10.7734 17.2383 11.125 16.7812 11.125C16.2891 11.125 15.9375 10.7734 15.9375 10.2812C15.9375 9.82422 16.2891 9.4375 16.7812 9.4375C17.2383 9.4375 17.625 9.82422 17.625 10.2812ZM14.5312 13.375C14.0391 13.375 13.6875 13.0234 13.6875 12.5312C13.6875 12.0742 14.0391 11.6875 14.5312 11.6875C14.9883 11.6875 15.375 12.0742 15.375 12.5312C15.375 13.0234 14.9883 13.375 14.5312 13.375ZM13.125 14.7812C13.125 15.2734 12.7383 15.625 12.2812 15.625C11.7891 15.625 11.4375 15.2734 11.4375 14.7812C11.4375 14.3242 11.7891 13.9375 12.2812 13.9375C12.7383 13.9375 13.125 14.3242 13.125 14.7812ZM15.6562 16.75C15.1641 16.75 14.8125 16.3984 14.8125 15.9062C14.8125 15.4492 15.1641 15.0625 15.6562 15.0625C16.1133 15.0625 16.5 15.4492 16.5 15.9062C16.5 16.3984 16.1133 16.75 15.6562 16.75ZM13.4062 19C12.9141 19 12.5625 18.6484 12.5625 18.1562C12.5625 17.6992 12.9141 17.3125 13.4062 17.3125C13.8633 17.3125 14.25 17.6992 14.25 18.1562C14.25 18.6484 13.8633 19 13.4062 19ZM17.9062 14.5C17.4141 14.5 17.0625 14.1484 17.0625 13.6562C17.0625 13.1992 17.4141 12.8125 17.9062 12.8125C18.3633 12.8125 18.75 13.1992 18.75 13.6562C18.75 14.1484 18.3633 14.5 17.9062 14.5ZM21 11.4062C21 11.8984 20.6133 12.25 20.1562 12.25C19.6641 12.25 19.3125 11.8984 19.3125 11.4062C19.3125 10.9492 19.6641 10.5625 20.1562 10.5625C20.6133 10.5625 21 10.9492 21 11.4062Z" fill="#4A5A61"/>
</svg>
