<svg width="24" height="24" viewBox="0 0 24 24" fill="none" xmlns="http://www.w3.org/2000/svg">
<path d="M12.4648 3.25C12.7461 3.25 12.957 3.42578 13.0273 3.70703L15.9805 15.5195L17.3164 12.2148C17.5625 11.5469 18.1953 11.125 18.8633 11.125H23.1875C23.4688 11.125 23.75 11.4062 23.75 11.6875C23.75 12.0039 23.4688 12.25 23.1875 12.25H18.8633C18.6523 12.25 18.4414 12.3906 18.3359 12.6367L16.3672 17.5234C16.2969 17.7695 16.0508 17.9102 15.8047 17.875C15.5938 17.875 15.3828 17.6992 15.3125 17.4531L12.5352 6.37891L9.65234 20.8281C9.61719 21.0742 9.40625 21.25 9.125 21.25C8.87891 21.2852 8.63281 21.1094 8.5625 20.8281L6.52344 12.707C6.45312 12.4258 6.24219 12.25 5.99609 12.25H1.8125C1.49609 12.25 1.25 12.0039 1.25 11.6875C1.25 11.4062 1.49609 11.125 1.8125 11.125H5.99609C6.76953 11.125 7.4375 11.6523 7.61328 12.4258L9.05469 18.1562L11.9375 3.70703C11.9727 3.46094 12.2188 3.28516 12.4648 3.25Z" fill="#4A5A61"/>
</svg>
