<svg width="24" height="24" viewBox="0 0 24 24" fill="none" xmlns="http://www.w3.org/2000/svg">
<path d="M8.625 7.75V8.3125H15.375V7.75V5.74609L12 4.48047L8.625 5.74609V7.75ZM7.5 8.875V7.75V5.74609C7.5 5.25391 7.78125 4.83203 8.20312 4.69141L11.5781 3.42578C11.8594 3.32031 12.1406 3.32031 12.3867 3.42578L15.7617 4.69141C16.1836 4.83203 16.5 5.25391 16.5 5.74609V7.75V8.875V9.4375C16.5 11.9336 14.4609 13.9375 12 13.9375C9.50391 13.9375 7.5 11.9336 7.5 9.4375V8.875ZM15.375 9.4375H8.625C8.625 11.3008 10.1367 12.8125 12 12.8125C13.8633 12.8125 15.375 11.3008 15.375 9.4375ZM8.30859 15.9062C6.51562 16.5039 5.25 18.1562 5.25 20.125H18.75C18.7148 18.1562 17.4492 16.5039 15.6914 15.9062L13.2305 18.5078C12.5625 19.2109 11.4375 19.2109 10.7695 18.5078L8.30859 15.9062ZM9.08203 15.0977L11.5781 17.7344C11.7891 17.9805 12.1758 17.9805 12.3867 17.7344L14.8828 15.0977C15.1641 14.8164 15.5508 14.6758 15.9375 14.7812C18.2227 15.5195 19.875 17.6641 19.875 20.1953C19.875 20.793 19.3828 21.25 18.7852 21.25H5.17969C4.58203 21.25 4.125 20.793 4.125 20.1953C4.125 17.6641 5.77734 15.5195 8.02734 14.7812C8.41406 14.6758 8.80078 14.8164 9.08203 15.0977ZM11.7188 4.9375H12.2812C12.4219 4.9375 12.5625 5.07812 12.5625 5.21875V5.78125H13.125C13.2656 5.78125 13.4062 5.92188 13.4062 6.0625V6.625C13.4062 6.80078 13.2656 6.90625 13.125 6.90625H12.5625V7.46875C12.5625 7.64453 12.4219 7.75 12.2812 7.75H11.7188C11.543 7.75 11.4375 7.64453 11.4375 7.46875V6.90625H10.875C10.6992 6.90625 10.5938 6.80078 10.5938 6.625V6.0625C10.5938 5.92188 10.6992 5.78125 10.875 5.78125H11.4375V5.21875C11.4375 5.07812 11.543 4.9375 11.7188 4.9375Z" fill="#4A5A61"/>
</svg>
