<svg width="24" height="24" viewBox="0 0 24 24" fill="none" xmlns="http://www.w3.org/2000/svg">
<path d="M12.5625 5.21875C12.5625 4.16406 13.4414 3.25 14.5312 3.25C15.5859 3.25 16.5 4.16406 16.5 5.21875V5.60547C16.7461 5.53516 17.0273 5.5 17.3438 5.5C17.8359 5.5 18.293 5.60547 18.75 5.78125V5.21875C18.75 4.16406 19.6289 3.25 20.7188 3.25C21.7734 3.25 22.6875 4.16406 22.6875 5.21875V5.5C22.6875 5.81641 22.4062 6.0625 22.125 6.0625C21.8086 6.0625 21.5625 5.81641 21.5625 5.5V5.21875C21.5625 4.76172 21.1758 4.375 20.7188 4.375C20.2266 4.375 19.875 4.76172 19.875 5.21875V6.51953C20.2617 6.90625 20.543 7.36328 20.7539 7.85547L22.4062 8.98047C22.6875 9.15625 22.7578 9.50781 22.582 9.75391C22.4062 10.0352 22.0547 10.1055 21.8086 9.92969L21 9.36719V11.6875C21 13.5508 19.4883 15.0625 17.625 15.0625H17.0625C15.1992 15.0625 13.6875 13.5508 13.6875 11.6875V9.57812L13.125 9.92969C12.8789 10.1055 12.5273 10.0352 12.3516 9.75391C12.1758 9.50781 12.2461 9.15625 12.5273 8.98047L13.8281 8.10156C14.0742 7.25781 14.6367 6.55469 15.3398 6.09766V5.21875C15.3398 4.76172 14.9883 4.375 14.4961 4.375C14.0391 4.375 13.6523 4.76172 13.6523 5.21875V5.5C13.6523 5.81641 13.4062 6.0625 13.0898 6.0625C12.8086 6.0625 12.5273 5.81641 12.5273 5.5V5.21875H12.5625ZM11.4375 5.71094C11.5078 6.09766 11.7188 6.44922 12.0352 6.66016C11.5781 6.97656 10.9453 6.87109 10.5938 6.44922C10.3828 6.23828 10.0664 6.0625 9.75 6.0625C9.39844 6.0625 9.08203 6.23828 8.87109 6.44922C8.48438 6.90625 7.81641 6.97656 7.32422 6.58984C7.14844 6.44922 6.90234 6.34375 6.65625 6.34375C6.12891 6.34375 5.67188 6.73047 5.53125 7.22266C5.42578 7.78516 4.86328 8.13672 4.26562 8.06641C4.23047 8.06641 4.16016 8.03125 4.08984 8.03125C3.49219 8.03125 2.96484 8.55859 2.96484 9.15625C2.96484 9.26172 3 9.36719 3 9.4375C3.14062 9.92969 2.89453 10.457 2.4375 10.7031C2.08594 10.9141 1.83984 11.2656 1.83984 11.6875C1.83984 12.1445 2.08594 12.4961 2.4375 12.707C2.89453 12.9531 3.14062 13.4453 3 13.9727C3 14.043 2.96484 14.1484 2.96484 14.2539C2.96484 14.8516 3.49219 15.3789 4.08984 15.3789C4.16016 15.3789 4.23047 15.3438 4.26562 15.3438C4.86328 15.2734 5.39062 15.625 5.53125 16.1875C5.67188 16.6797 6.12891 17.0312 6.65625 17.0312C6.90234 17.0312 7.14844 16.9609 7.32422 16.8203C7.81641 16.4336 8.48438 16.5039 8.87109 16.9609C9.08203 17.1719 9.39844 17.3477 9.75 17.3477C10.0664 17.3477 10.3828 17.1719 10.5938 16.9609C10.9805 16.5039 11.6484 16.4336 12.1406 16.8203C12.3164 16.9609 12.5625 17.0312 12.8438 17.0312C13.3711 17.0312 13.793 16.6797 13.9336 16.1875C13.9688 15.9766 14.0742 15.8008 14.2148 15.6602C14.4258 15.8711 14.6719 16.0117 14.918 16.1523L15.6211 16.3281L14.707 19.9844C14.5312 20.7227 13.8633 21.25 13.0898 21.25H12.5625C11.6133 21.25 10.875 20.5117 10.875 19.5625V18.1562C10.5234 18.332 10.1367 18.4375 9.75 18.4375C9.32812 18.4375 8.94141 18.332 8.625 18.1562V19.5625C8.625 20.5117 7.85156 21.25 6.9375 21.25H6.41016C5.63672 21.25 4.93359 20.7227 4.75781 19.9844L3.87891 16.4688C2.75391 16.3633 1.875 15.4141 1.875 14.2188C1.875 14.043 1.875 13.8672 1.91016 13.6914C1.20703 13.3047 0.75 12.5664 0.75 11.6875C0.75 10.8438 1.20703 10.1055 1.91016 9.71875C1.875 9.54297 1.875 9.36719 1.875 9.15625C1.875 7.92578 2.85938 6.90625 4.125 6.90625C4.23047 6.90625 4.33594 6.94141 4.44141 6.94141C4.6875 5.95703 5.56641 5.21875 6.65625 5.21875C7.18359 5.21875 7.64062 5.42969 8.02734 5.71094C8.44922 5.25391 9.04688 4.9375 9.75 4.9375C10.418 4.9375 11.0156 5.25391 11.4375 5.71094ZM12.8438 18.1562C12.5273 18.1562 12.2461 18.1211 12 18.0156V19.5625C12 19.8789 12.2461 20.125 12.5625 20.125H13.0898C13.3359 20.125 13.5469 19.9492 13.6172 19.7031L14.1094 17.7695C13.7578 18.0156 13.3008 18.1562 12.8438 18.1562ZM5.35547 17.7695L5.84766 19.7031C5.91797 19.9492 6.12891 20.125 6.41016 20.125H6.9375C7.21875 20.125 7.5 19.8789 7.5 19.5625V18.0156C7.21875 18.1211 6.9375 18.1562 6.65625 18.1562C6.16406 18.1562 5.74219 18.0156 5.35547 17.7695ZM19.875 9.15625C19.875 7.78516 18.7148 6.625 17.3438 6.625C16.043 6.625 15.0234 7.57422 14.8125 8.80469C14.8125 8.91016 14.8125 9.05078 14.8125 9.15625V11.6875C14.8125 12.9531 15.7969 13.9375 17.0625 13.9375H17.625C18.8555 13.9375 19.875 12.9531 19.875 11.6875V9.15625ZM16.5 9.4375C16.7812 9.4375 17.0625 9.71875 17.0625 10C17.0625 10.3164 16.7812 10.5625 16.5 10.5625C16.1836 10.5625 15.9375 10.3164 15.9375 10C15.9375 9.71875 16.1836 9.4375 16.5 9.4375ZM18.1875 10C18.1875 9.71875 18.4336 9.4375 18.75 9.4375C19.0312 9.4375 19.3125 9.71875 19.3125 10C19.3125 10.3164 19.0312 10.5625 18.75 10.5625C18.4336 10.5625 18.1875 10.3164 18.1875 10Z" fill="#4A5A61"/>
</svg>
