<svg width="24" height="24" viewBox="0 0 24 24" fill="none" xmlns="http://www.w3.org/2000/svg">
<path d="M9.75 17.875V19.5625L13.1953 16.9961C13.3711 16.8555 13.6172 16.75 13.8633 16.75H18.75C19.3477 16.75 19.875 16.2578 19.875 15.625V5.5C19.875 4.90234 19.3477 4.375 18.75 4.375H5.25C4.61719 4.375 4.125 4.90234 4.125 5.5V15.625C4.125 16.2578 4.61719 16.75 5.25 16.75H8.625C9.22266 16.75 9.75 17.2773 9.75 17.875ZM5.25 3.25H18.75C19.9805 3.25 21 4.26953 21 5.5V15.625C21 16.8906 19.9805 17.875 18.75 17.875H13.8633L9.50391 21.1445C9.32812 21.2852 9.11719 21.2852 8.90625 21.2148C8.73047 21.1094 8.625 20.9336 8.625 20.6875V19V17.875H7.5H5.25C3.98438 17.875 3 16.8906 3 15.625V5.5C3 4.26953 3.98438 3.25 5.25 3.25ZM7.5 11.4062C7.00781 11.4062 6.65625 11.0547 6.65625 10.5625C6.65625 10.1055 7.00781 9.71875 7.5 9.71875C7.95703 9.71875 8.34375 10.1055 8.34375 10.5625C8.34375 11.0547 7.95703 11.4062 7.5 11.4062ZM12 11.4062C11.5078 11.4062 11.1562 11.0547 11.1562 10.5625C11.1562 10.1055 11.5078 9.71875 12 9.71875C12.457 9.71875 12.8438 10.1055 12.8438 10.5625C12.8438 11.0547 12.457 11.4062 12 11.4062ZM17.3438 10.5625C17.3438 11.0547 16.957 11.4062 16.5 11.4062C16.0078 11.4062 15.6562 11.0547 15.6562 10.5625C15.6562 10.1055 16.0078 9.71875 16.5 9.71875C16.957 9.71875 17.3438 10.1055 17.3438 10.5625Z" fill="#4A5A61"/>
</svg>
