<svg width="42" height="42" viewBox="0 0 42 42" fill="none" xmlns="http://www.w3.org/2000/svg">
<path d="M33.2508 21.8919C32.6192 21.7812 34.8364 21.1593 34.8364 21.1593L32.6908 20.7263L34.5108 20.4528L36.2234 20.1956L36.3439 19.8212C34.742 19.6551 32.3294 19.4044 32.3066 19.4044C32.2839 19.4044 34.5857 18.9942 36.6922 18.7207L36.7606 18.5091C37.4052 16.484 36.1908 14.3417 34.1234 13.8565L12.7848 8.84584C10.7922 8.377 8.80618 9.64026 8.38618 11.6426L7.28897 16.8682C9.15455 16.8063 10.8866 17.3989 11.3294 17.3761C11.3685 17.3728 11.4011 17.3696 11.4173 17.3696C11.4532 17.3696 11.4173 17.3696 11.3294 17.3761C10.8215 17.4249 8.61083 17.7765 7.04153 18.0305L6.96664 18.3886C7.74804 18.4375 8.22013 18.4896 8.36013 18.4863C12.8141 18.3854 7.45176 19.3784 6.68339 19.7268L4.93502 28.0421C4.48571 30.1747 5.99967 32.2226 8.1713 32.4212L28.7318 34.29C30.4346 34.4463 32.0136 33.3947 32.5346 31.7668L35.6243 22.0775C34.7159 22.0221 33.609 21.9472 33.2541 21.8854L33.2508 21.8919Z" fill="#FFD5DA"/>
<path d="M31.4886 9.9983L8.17488 11.8004C7.55099 11.8486 7.08432 12.3935 7.13255 13.0173L8.64406 32.572C8.69229 33.1959 9.23715 33.6626 9.86104 33.6144L33.1747 31.8123C33.7986 31.7641 34.2653 31.2192 34.2171 30.5953L32.7056 11.0406C32.6573 10.4167 32.1125 9.95007 31.4886 9.9983Z" fill="white"/>
<path d="M31.0966 16.0797L10.0967 17.9317C9.62024 17.9737 9.26806 18.3941 9.31008 18.8705L10.4202 31.4575C10.4622 31.9339 10.8825 32.2861 11.3589 32.2441L32.3588 30.3921C32.8353 30.35 33.1875 29.9297 33.1454 29.4533L32.0354 16.8663C31.9933 16.3899 31.573 16.0377 31.0966 16.0797Z" fill="#FFF3CD"/>
<path d="M7.53577 12.9617L31.2162 11.0481C31.4921 11.0258 31.7309 11.2319 31.7529 11.5045L31.9942 14.4901L7.81716 16.4439L7.53551 12.9585L7.53577 12.9617Z" fill="#FF9BA7"/>
<path d="M13.708 8.88681L11.2791 9.06348L11.6069 13.5706L14.0358 13.394L13.708 8.88681Z" fill="white"/>
<path d="M12.4902 9.49392L13.8099 9.37336L14.1733 13.3517L12.536 13.5013L12.2015 9.8407C12.1855 9.66561 12.3152 9.50992 12.4902 9.49392Z" fill="#FFF3CD"/>
<path d="M28.3464 7.89951L25.9175 8.07617L26.2453 12.5833L28.6743 12.4067L28.3464 7.89951Z" fill="white"/>
<path d="M26.9265 8.25076L28.2461 8.1302L28.6095 12.1085L26.9722 12.2581L26.6378 8.59753C26.6218 8.42245 26.7514 8.26675 26.9265 8.25076Z" fill="#FFF3CD"/>
<path d="M7.62223 4.21973V6.85368" stroke="#F96073" stroke-linecap="round" stroke-linejoin="round"/>
<path d="M6.30337 5.53467H8.94058" stroke="#F96073" stroke-linecap="round" stroke-linejoin="round"/>
<path d="M37.6048 8.52734L35.7392 10.3897" stroke="#F96073" stroke-linecap="round" stroke-linejoin="round"/>
<path d="M35.7392 8.52734L37.6048 10.3897" stroke="#F96073" stroke-linecap="round" stroke-linejoin="round"/>
<path d="M18.8515 35.6152L16.9859 37.4776" stroke="#F96073" stroke-linecap="round" stroke-linejoin="round"/>
<path d="M16.9859 35.6152L18.8515 37.4776" stroke="#F96073" stroke-linecap="round" stroke-linejoin="round"/>
<path d="M20.8081 6.05266C21.4176 6.05266 21.9118 5.5585 21.9118 4.94894C21.9118 4.33937 21.4176 3.84521 20.8081 3.84521C20.1985 3.84521 19.7044 4.33937 19.7044 4.94894C19.7044 5.5585 20.1985 6.05266 20.8081 6.05266Z" stroke="#FFDA6A" stroke-linecap="round" stroke-linejoin="round"/>
<path d="M33.9941 36.5038C34.6037 36.5038 35.0978 36.0097 35.0978 35.4001C35.0978 34.7905 34.6037 34.2964 33.9941 34.2964C33.3846 34.2964 32.8904 34.7905 32.8904 35.4001C32.8904 36.0097 33.3846 36.5038 33.9941 36.5038Z" stroke="#FFDA6A" stroke-linecap="round" stroke-linejoin="round"/>
<path d="M33.1213 14.7485L10.3306 16.6434" stroke="#2A3539" stroke-linecap="round" stroke-linejoin="round"/>
<path d="M24.9098 10.3042L15.1489 11.1182" stroke="#2A3539" stroke-linecap="round" stroke-linejoin="round"/>
<path d="M10.2458 11.5252L8.52025 11.6684C7.81699 11.727 7.29606 12.3424 7.35467 13.0456L8.9956 32.7661C9.0542 33.4694 9.66955 33.9903 10.3728 33.9317L33.2775 32.027C33.9807 31.9684 34.5016 31.3531 34.443 30.6498L32.8021 10.9294C32.7435 10.2261 32.1282 9.70517 31.4249 9.76377L29.7514 9.90377" stroke="#2A3539" stroke-linecap="round" stroke-linejoin="round"/>
<path d="M13.3495 8.55246L11.6753 8.69187C11.4549 8.71022 11.2911 8.90377 11.3095 9.12418L11.6793 13.566C11.6977 13.7864 11.8912 13.9502 12.1116 13.9319L13.7858 13.7925C14.0063 13.7741 14.17 13.5806 14.1517 13.3601L13.7818 8.91831C13.7635 8.6979 13.5699 8.5341 13.3495 8.55246Z" stroke="#2A3539" stroke-linecap="round" stroke-linejoin="round"/>
<path d="M27.8665 7.34591L26.1923 7.48532C25.9719 7.50368 25.8081 7.69723 25.8264 7.91764L26.1963 12.3595C26.2147 12.5799 26.4082 12.7437 26.6286 12.7253L28.3028 12.5859C28.5232 12.5676 28.687 12.374 28.6687 12.1536L28.2988 7.71177C28.2805 7.49136 28.0869 7.32756 27.8665 7.34591Z" stroke="#2A3539" stroke-linecap="round" stroke-linejoin="round"/>
<path d="M12.0532 23.3049L14.596 23.0933" stroke="#2A3539" stroke-linecap="round" stroke-linejoin="round"/>
<path d="M17.1417 22.882L19.6877 22.6704" stroke="#2A3539" stroke-linecap="round" stroke-linejoin="round"/>
<path d="M22.2308 22.4587L24.7768 22.2471" stroke="#2A3539" stroke-linecap="round" stroke-linejoin="round"/>
<path d="M27.3199 22.0358L29.8659 21.8242" stroke="#2A3539" stroke-linecap="round" stroke-linejoin="round"/>
<path d="M16.872 19.6296L19.4148 19.418" stroke="#2A3539" stroke-linecap="round" stroke-linejoin="round"/>
<path d="M21.9605 19.2058L24.5066 18.9941" stroke="#2A3539" stroke-linecap="round" stroke-linejoin="round"/>
<path d="M27.0496 18.7829L29.5957 18.5713" stroke="#2A3539" stroke-linecap="round" stroke-linejoin="round"/>
<path d="M12.3234 26.5573L14.8662 26.3457" stroke="#2A3539" stroke-linecap="round" stroke-linejoin="round"/>
<path d="M17.4119 26.1345L19.958 25.9229" stroke="#2A3539" stroke-linecap="round" stroke-linejoin="round"/>
<path d="M22.501 25.7111L25.0471 25.4995" stroke="#2A3539" stroke-linecap="round" stroke-linejoin="round"/>
<path d="M27.5902 25.2883L30.1362 25.0767" stroke="#2A3539" stroke-linecap="round" stroke-linejoin="round"/>
<path d="M12.5937 29.8103L15.1398 29.5986" stroke="#2A3539" stroke-linecap="round" stroke-linejoin="round"/>
<path d="M17.6822 29.3874L20.2282 29.1758" stroke="#2A3539" stroke-linecap="round" stroke-linejoin="round"/>
<path d="M22.7713 28.9636L25.3173 28.752" stroke="#2A3539" stroke-linecap="round" stroke-linejoin="round"/>
</svg>
