<svg width="42" height="42" viewBox="0 0 42 42" fill="none" xmlns="http://www.w3.org/2000/svg">
<path d="M34.264 22.1126C33.6323 22.0019 35.8495 21.38 35.8495 21.38L33.704 20.947L35.524 20.6735L37.2365 20.4163L37.357 20.0419C35.7551 19.8758 33.3426 19.6251 33.3198 19.6251C33.297 19.6251 35.5988 19.2149 37.7054 18.9414L37.7737 18.7298C38.4184 16.7047 37.204 14.5624 35.1365 14.0772L13.7979 9.06654C11.8054 8.59771 9.81932 9.86096 9.39932 11.8633L8.30211 17.0889C10.1677 17.027 11.8998 17.6196 12.3426 17.5968C12.3816 17.5935 12.4142 17.5903 12.4305 17.5903C12.4663 17.5903 12.4305 17.5903 12.3426 17.5968C11.8347 17.6456 9.62397 17.9972 8.05467 18.2512L7.97978 18.6093C8.76118 18.6582 9.23327 18.7103 9.37327 18.707C13.8272 18.6061 8.4649 19.5991 7.69653 19.9475L5.94815 28.2628C5.49885 30.3954 7.0128 32.4433 9.18443 32.6419L29.7449 34.5107C31.4477 34.667 33.0268 33.6154 33.5477 31.9875L36.6375 22.2982C35.7291 22.2428 34.6221 22.1679 34.2672 22.1061L34.264 22.1126Z" fill="#FFD5DA"/>
<path d="M17.3689 31.0472C17.3689 31.0472 18.2447 28.1007 17.0693 26.4858C15.894 24.8709 13.6768 22.1067 13.8103 20.0848C13.9438 18.063 15.5261 14.4034 17.3721 13.8434C19.2182 13.2834 22.7052 11.9974 25.4954 14.2048C28.2856 16.4123 28.7642 19.1472 28.7642 19.1472C28.7642 19.1472 29.054 22.5039 27.9959 23.3797C26.9377 24.2555 25.554 25.2323 25.4986 26.489C25.4433 27.7458 25.4172 31.0504 25.4172 31.0504H17.3754L17.3689 31.0472Z" fill="#FFF3CD"/>
<path d="M17.1735 30.9395L17.587 33.1925L18.3684 35.0678H19.5177L19.9768 35.9241L22.7312 35.7385L23.4019 35.0678C23.4019 35.0678 24.3461 35.1264 24.3689 35.0678C24.3917 35.0092 25.414 31.0469 25.414 31.0469L17.1768 30.9395H17.1735Z" fill="#FF9BA7"/>
<path d="M22.8034 16.2236L18.369 22.6832L20.9997 22.1101C20.9997 22.1101 19.7495 26.6618 19.909 26.5674C20.0685 26.4729 24.3434 20.5929 24.3434 20.5929C24.3434 20.5929 21.9764 20.6157 21.9992 20.479C22.022 20.3422 22.8034 16.2269 22.8034 16.2269V16.2236Z" fill="white"/>
<path d="M4.76217 17.7319C5.37174 17.7319 5.86589 17.2377 5.86589 16.6281C5.86589 16.0186 5.37174 15.5244 4.76217 15.5244C4.1526 15.5244 3.65845 16.0186 3.65845 16.6281C3.65845 17.2377 4.1526 17.7319 4.76217 17.7319Z" stroke="#FFDA6A" stroke-linecap="round" stroke-linejoin="round"/>
<path d="M28.7611 7.17961C29.3706 7.17961 29.8648 6.68546 29.8648 6.07589C29.8648 5.46632 29.3706 4.97217 28.7611 4.97217C28.1515 4.97217 27.6573 5.46632 27.6573 6.07589C27.6573 6.68546 28.1515 7.17961 28.7611 7.17961Z" stroke="#FFDA6A" stroke-linecap="round" stroke-linejoin="round"/>
<path d="M32.944 39.0634C33.5536 39.0634 34.0477 38.5692 34.0477 37.9597C34.0477 37.3501 33.5536 36.856 32.944 36.856C32.3345 36.856 31.8403 37.3501 31.8403 37.9597C31.8403 38.5692 32.3345 39.0634 32.944 39.0634Z" stroke="#FFDA6A" stroke-linecap="round" stroke-linejoin="round"/>
<path d="M14.7026 4.65283L12.837 6.51841" stroke="#F96073" stroke-linecap="round" stroke-linejoin="round"/>
<path d="M12.837 4.65283L14.7026 6.51841" stroke="#F96073" stroke-linecap="round" stroke-linejoin="round"/>
<path d="M12.8362 35.9253L10.9738 37.7876" stroke="#F96073" stroke-linecap="round" stroke-linejoin="round"/>
<path d="M10.9738 35.9253L12.8362 37.7876" stroke="#F96073" stroke-linecap="round" stroke-linejoin="round"/>
<path d="M37.0211 10.4224H34.3839" stroke="#F96073" stroke-linecap="round" stroke-linejoin="round"/>
<path d="M35.7028 9.10352V11.7407" stroke="#F96073" stroke-linecap="round" stroke-linejoin="round"/>
<path d="M21.3908 7.79492V10.9465" stroke="#2A3539" stroke-linecap="round" stroke-linejoin="round"/>
<path d="M21.3908 5.58447V6.56773" stroke="#2A3539" stroke-linecap="round" stroke-linejoin="round"/>
<path d="M12.7591 11.6953L14.7582 13.6944" stroke="#2A3539" stroke-linecap="round" stroke-linejoin="round"/>
<path d="M10.9659 9.90137L11.6691 10.6046" stroke="#2A3539" stroke-linecap="round" stroke-linejoin="round"/>
<path d="M10.9875 20.3267H12.0098" stroke="#2A3539" stroke-linecap="round" stroke-linejoin="round"/>
<path d="M6.64807 20.3267H9.40249" stroke="#2A3539" stroke-linecap="round" stroke-linejoin="round"/>
<path d="M12.8634 28.8539L14.7583 26.959" stroke="#2A3539" stroke-linecap="round" stroke-linejoin="round"/>
<path d="M10.9659 30.7518L11.7733 29.9443" stroke="#2A3539" stroke-linecap="round" stroke-linejoin="round"/>
<path d="M28.761 27.6981L28.022 26.959" stroke="#2A3539" stroke-linecap="round" stroke-linejoin="round"/>
<path d="M31.8151 30.7521L29.9462 28.8833" stroke="#2A3539" stroke-linecap="round" stroke-linejoin="round"/>
<path d="M33.5769 20.3267H30.7704" stroke="#2A3539" stroke-linecap="round" stroke-linejoin="round"/>
<path d="M36.1333 20.3267H35.2738" stroke="#2A3539" stroke-linecap="round" stroke-linejoin="round"/>
<path d="M28.6992 13.0176L28.022 13.6948" stroke="#2A3539" stroke-linecap="round" stroke-linejoin="round"/>
<path d="M31.816 9.90137L29.716 12.0014" stroke="#2A3539" stroke-linecap="round" stroke-linejoin="round"/>
<path d="M24.0702 35.0693H23.3995L22.7321 35.74H21.3907H20.0493L19.3818 35.0693H18.7111" stroke="#2A3539" stroke-linecap="round" stroke-linejoin="round"/>
<path d="M17.3694 31.0483H25.4112" stroke="#2A3539" stroke-linecap="round" stroke-linejoin="round"/>
<path d="M18.0396 33.0571H24.7401" stroke="#2A3539" stroke-linecap="round" stroke-linejoin="round"/>
<path d="M16.7742 9.18555L17.7998 11.66" stroke="#2A3539" stroke-linecap="round" stroke-linejoin="round"/>
<path d="M10.2485 15.71L12.723 16.7355" stroke="#2A3539" stroke-linecap="round" stroke-linejoin="round"/>
<path d="M10.2485 24.9436L12.723 23.918" stroke="#2A3539" stroke-linecap="round" stroke-linejoin="round"/>
<path d="M32.5345 24.9436L30.0569 23.918" stroke="#2A3539" stroke-linecap="round" stroke-linejoin="round"/>
<path d="M32.5345 15.71L30.0569 16.7355" stroke="#2A3539" stroke-linecap="round" stroke-linejoin="round"/>
<path d="M26.0067 9.18555L24.9811 11.66" stroke="#2A3539" stroke-linecap="round" stroke-linejoin="round"/>
<path d="M21.8132 20.6555L23.2165 15.3257L17.9518 23.0713L21.1718 22.1727L19.6091 26.9294L24.7304 20.2485L21.8132 20.6555Z" stroke="#2A3539" stroke-linecap="round" stroke-linejoin="round"/>
<path d="M25.4115 29.7071V28.3103C25.4115 27.0503 25.7469 26.0215 26.4599 25.3085C27.1729 24.5954 28.7618 23.0684 28.7618 20.3238C28.7618 16.254 25.4604 12.9526 21.3906 12.9526C17.3208 12.9526 14.0194 16.254 14.0194 20.3238C14.0194 23.0684 15.6115 24.5954 16.3213 25.3085C17.0343 26.0215 17.3697 27.0503 17.3697 28.3103V29.7071" stroke="#2A3539" stroke-linecap="round" stroke-linejoin="round"/>
<path d="M15.5914 20.8089C15.3212 20.8089 15.103 20.5908 15.103 20.3205C15.103 16.7815 17.9812 13.9033 21.5202 13.9033C21.7905 13.9033 22.0086 14.1215 22.0086 14.3917C22.0086 14.6619 21.7905 14.8801 21.5202 14.8801C18.5216 14.8801 16.0798 17.3219 16.0798 20.3205C16.0798 20.5908 15.8616 20.8089 15.5914 20.8089Z" fill="white"/>
</svg>
