<svg width="24" height="24" viewBox="0 0 24 24" fill="none" xmlns="http://www.w3.org/2000/svg">
<path d="M11.9024 3.74236L12.3945 6.73064L15.3828 7.22283C15.5938 7.25799 15.7344 7.36346 15.8047 7.53924C15.9102 7.71502 15.875 7.92596 15.7695 8.10174L14.3984 10.0353C14.3281 10.0353 14.2578 10.0002 14.1875 10.0002C13.7305 10.0002 13.3086 10.0705 12.9219 10.2111L14.3281 8.17205L11.832 7.75018C11.5859 7.71502 11.4102 7.53924 11.375 7.29314L10.9531 4.79705L8.87891 6.23846C8.66798 6.37908 8.42188 6.37908 8.21095 6.23846L6.13673 4.79705L5.71485 7.29314C5.6797 7.53924 5.50391 7.71502 5.25782 7.75018L2.76173 8.17205L4.23829 10.2463C4.37891 10.4572 4.37891 10.7033 4.23829 10.9142L2.76173 12.9885L5.25782 13.4103C5.50391 13.4455 5.6797 13.6213 5.71485 13.8674L6.13673 16.3635L7.71876 15.2736C7.29688 15.8361 7.01563 16.4689 6.91016 17.2072L6.06641 17.8049C5.89063 17.9103 5.6797 17.9103 5.50391 17.84C5.32813 17.7697 5.22266 17.5939 5.18751 17.4181L4.69532 14.4299L1.70704 13.9377C1.53126 13.9025 1.35548 13.7971 1.28516 13.6213C1.21485 13.4455 1.21485 13.2346 1.32032 13.0588L3.07813 10.5627L1.32032 8.10174C1.21485 7.92596 1.21485 7.71502 1.28516 7.53924C1.35548 7.36346 1.53126 7.25799 1.70704 7.22283L4.69532 6.73064L5.18751 3.74236C5.22266 3.53143 5.32813 3.3908 5.50391 3.32049C5.6797 3.25018 5.89063 3.25018 6.06641 3.35564L8.56251 5.11346L11.0234 3.35564C11.1992 3.25018 11.4102 3.25018 11.5859 3.32049C11.7617 3.3908 11.8672 3.53143 11.9024 3.74236ZM9.79298 13.4103C9.40626 13.5861 8.98438 13.6564 8.56251 13.6564C6.83985 13.6564 5.46876 12.2853 5.46876 10.5627C5.46876 8.87518 6.83985 7.46893 8.56251 7.46893C10.25 7.46893 11.6563 8.87518 11.6563 10.5627C11.6563 10.6681 11.6211 10.7385 11.6211 10.8088C10.7422 11.4064 10.0742 12.3205 9.79298 13.4103ZM10.5313 10.5627C10.5313 9.85955 10.1445 9.22674 9.54688 8.87518C8.91407 8.52361 8.17579 8.52361 7.57813 8.87518C6.94532 9.22674 6.59376 9.85955 6.59376 10.5627C6.59376 11.301 6.94532 11.9338 7.57813 12.2853C8.17579 12.6369 8.91407 12.6369 9.54688 12.2853C10.1445 11.9338 10.5313 11.301 10.5313 10.5627ZM11.9375 14.5002C11.9375 14.676 11.9375 14.8166 11.9727 14.9572C12.0078 15.133 11.9727 15.3088 11.832 15.4494C11.7266 15.5549 11.5859 15.6603 11.4102 15.6252C11.375 15.6252 11.375 15.6252 11.375 15.6252C10.1094 15.6252 9.12501 16.6447 9.12501 17.8752C9.12501 19.1408 10.1094 20.1252 11.375 20.1252C11.375 20.1252 11.4102 20.1252 11.4453 20.1252H20.832H20.8672C20.8672 20.1252 20.9024 20.1252 20.9375 20.1252C21.8516 20.1252 22.625 19.3869 22.625 18.4377C22.625 17.5236 21.8516 16.7502 20.9375 16.7502H20.9024H20.6211C20.4102 16.7502 20.2344 16.6447 20.1289 16.4689C20.0234 16.3283 20.0234 16.0822 20.1289 15.9064C20.2695 15.6603 20.375 15.3791 20.375 15.0627C20.375 14.1486 19.6016 13.3752 18.6875 13.3752C18.125 13.3752 17.6328 13.6564 17.3164 14.0783C17.1758 14.2189 16.9649 14.3244 16.7539 14.2892C16.543 14.2541 16.4024 14.0783 16.332 13.8674C16.0508 12.9533 15.207 12.2502 14.1875 12.2502C12.9219 12.2502 11.9375 13.2697 11.9375 14.5002ZM14.1875 11.1252C15.3828 11.1252 16.4727 11.7931 17.0703 12.7775C17.5274 12.4611 18.0899 12.2502 18.6875 12.2502C20.2344 12.2502 21.5 13.5158 21.5 15.0627C21.5 15.2736 21.4649 15.4846 21.4297 15.6955C22.7305 15.9064 23.75 17.0666 23.75 18.4377C23.75 20.0197 22.4844 21.2502 20.9375 21.2502C20.9024 21.2502 20.8672 21.2502 20.832 21.2502H11.4805C11.4453 21.2502 11.4102 21.2502 11.375 21.2502C9.51173 21.2502 8.00001 19.7385 8.00001 17.8752C8.00001 16.2228 9.19532 14.8166 10.8125 14.5705V14.5002C10.8125 12.6369 12.3242 11.1252 14.1875 11.1252Z" fill="#4A5A61"/>
</svg>
