<svg width="24" height="24" viewBox="0 0 24 24" fill="none" xmlns="http://www.w3.org/2000/svg">
<path d="M20.375 16.3984V4.44527L13.0625 5.4648V17.875L20.375 16.3984ZM11.9375 17.875V5.4648L4.625 4.44527V16.3984L11.9375 17.875ZM20.1992 3.32027C20.8672 3.24995 21.5 3.7773 21.5 4.44527V16.3984C21.5 16.9609 21.1133 17.4179 20.5859 17.5234L12.9219 19.0351C12.6406 19.1054 12.3242 19.1054 12.043 19.0351L4.37891 17.5234C3.85156 17.4179 3.5 16.9257 3.5 16.3984V4.44527C3.5 3.7773 4.09766 3.24995 4.76562 3.32027L12.5 4.37495L20.1992 3.32027ZM1.25 5.57027C1.25 4.93745 1.74219 4.44527 2.375 4.44527V5.57027V8.87495V17.9804L12.2539 19.9492C12.3945 19.9843 12.5703 19.9843 12.7109 19.9492L22.625 17.9804V8.87495V5.57027V4.44527C23.2227 4.44527 23.75 4.93745 23.75 5.57027V17.9804C23.75 18.5078 23.3633 18.9648 22.8359 19.0703L12.9219 21.0742C12.6406 21.1093 12.3242 21.1093 12.043 21.0742L2.12891 19.0703C1.60156 18.9648 1.25 18.5078 1.25 17.9804V5.57027Z" fill="#4A5A61"/>
</svg>
