<svg width="24" height="24" viewBox="0 0 24 24" fill="none" xmlns="http://www.w3.org/2000/svg">
<path d="M4.125 11.125C4.125 12.7422 4.65234 14.2188 5.60156 15.3438C6.02344 15.9062 6.375 16.6094 6.375 17.3828V20.6875C6.375 21.0039 6.09375 21.25 5.8125 21.25C5.49609 21.25 5.25 21.0039 5.25 20.6875V17.3828C5.25 16.9258 5.03906 16.4688 4.72266 16.0469C3.63281 14.7109 3 12.9883 3 11.125C3 6.80078 6.51562 3.25 10.875 3.25H11.4375C14.1797 3.25 16.7109 4.9375 17.8359 7.32812C17.9766 7.60938 18.1172 7.89062 18.2227 8.13672C18.4336 8.62891 18.6445 9.05078 18.8555 9.50781C19.2422 10.2109 19.6289 10.8086 20.1562 11.2656L20.2617 11.3711C20.7188 11.793 21 12.3555 21 12.9531C21 14.1484 20.0508 15.0625 18.8555 15.0625H18.75V16.75C18.75 18.0156 17.7305 19 16.5 19H14.25V20.7227C14.25 21.0039 13.9688 21.2852 13.6875 21.2852C13.3711 21.2852 13.125 21.0039 13.125 20.7227V18.4727C13.125 18.1562 13.3711 17.9102 13.6875 17.9102H16.5C17.0977 17.9102 17.625 17.3828 17.625 16.7852V14.5352C17.625 14.2188 17.8711 13.9727 18.1875 13.9727H18.8906C19.418 13.9727 19.875 13.5156 19.875 12.9531C19.875 12.6719 19.7344 12.4258 19.5234 12.2148L19.418 12.1094C18.75 11.5117 18.2578 10.7734 17.8711 10.0352C17.625 9.57812 17.3789 9.05078 17.168 8.55859C17.0625 8.3125 16.957 8.03125 16.8164 7.78516C15.9023 5.78125 13.7578 4.375 11.4375 4.375H10.875C7.14844 4.375 4.125 7.39844 4.125 11.125ZM9.1875 7.75C9.1875 7.15234 9.67969 6.625 10.3125 6.625H11.4375C12.0352 6.625 12.5625 7.15234 12.5625 7.75V7.78516C12.5625 7.82031 12.5625 7.92578 12.7031 7.96094C12.8086 8.03125 12.8789 8.03125 12.9141 7.99609H12.9492C13.4766 7.67969 14.1797 7.85547 14.4609 8.41797L15.0234 9.36719C15.3398 9.92969 15.1641 10.5977 14.6367 10.9141H14.6016C14.5664 10.9492 14.5312 11.0195 14.5312 11.125C14.5312 11.2656 14.5664 11.3359 14.6016 11.3711H14.6367C15.1641 11.6875 15.3398 12.3555 15.0234 12.918L14.4609 13.8672C14.1797 14.4297 13.4766 14.6055 12.9492 14.2891H12.9141C12.8789 14.2539 12.8086 14.2539 12.7031 14.2891C12.5625 14.3594 12.5625 14.4648 12.5625 14.5C12.5625 15.1328 12.0352 15.625 11.4375 15.625H10.3125C9.67969 15.625 9.1875 15.1328 9.1875 14.5C9.1875 14.4648 9.15234 14.3594 9.01172 14.2891C8.90625 14.2539 8.83594 14.2539 8.80078 14.2891H8.76562C8.23828 14.6055 7.53516 14.4297 7.25391 13.8672L6.69141 12.918C6.375 12.3555 6.55078 11.6875 7.07812 11.3711H7.11328C7.14844 11.3359 7.21875 11.2656 7.21875 11.125C7.21875 11.0195 7.14844 10.9492 7.11328 10.9141H7.07812C6.55078 10.5977 6.375 9.92969 6.69141 9.36719L7.25391 8.41797C7.53516 7.85547 8.23828 7.67969 8.76562 7.99609H8.80078C8.83594 8.03125 8.90625 8.03125 9.01172 7.96094C9.15234 7.92578 9.1875 7.82031 9.1875 7.78516V7.75ZM11.4375 7.75H10.3125V7.78516C10.3125 8.3125 9.96094 8.73438 9.60938 8.94531C9.22266 9.15625 8.69531 9.22656 8.23828 8.98047H8.20312L7.64062 9.92969L7.67578 9.96484C8.13281 10.2109 8.34375 10.7031 8.34375 11.125C8.34375 11.582 8.13281 12.0742 7.67578 12.3203L7.64062 12.3555L8.20312 13.3047H8.23828C8.69531 13.0234 9.22266 13.1289 9.60938 13.3398C9.96094 13.5508 10.3125 13.9727 10.3125 14.5H11.4375C11.4375 13.9727 11.7539 13.5508 12.1406 13.3398C12.4922 13.1289 13.0195 13.0234 13.4766 13.3047H13.5117L14.0742 12.3555L14.0391 12.3203C13.582 12.0742 13.4062 11.582 13.4062 11.125C13.4062 10.7031 13.582 10.2109 14.0391 9.96484L14.0742 9.92969L13.5117 8.98047H13.4766C13.0195 9.22656 12.4922 9.15625 12.1406 8.94531C11.7539 8.73438 11.4375 8.3125 11.4375 7.78516V7.75ZM11.7188 11.125C11.7188 11.6172 11.332 11.9688 10.875 11.9688C10.3828 11.9688 10.0312 11.6172 10.0312 11.125C10.0312 10.668 10.3828 10.2812 10.875 10.2812C11.332 10.2812 11.7188 10.668 11.7188 11.125Z" fill="#4A5A61"/>
</svg>
