<svg width="24" height="24" viewBox="0 0 24 24" fill="none" xmlns="http://www.w3.org/2000/svg">
<path d="M12.8867 10.9844C12.6758 11.1953 12.2891 11.1953 12.0781 10.9844L8.70312 7.60938C8.49219 7.39844 8.49219 7.01172 8.70312 6.80078C8.91406 6.58984 9.30078 6.58984 9.51172 6.80078L11.9375 9.22656V3.8125C11.9375 3.53125 12.1836 3.25 12.5 3.25C12.7812 3.25 13.0625 3.53125 13.0625 3.8125V9.22656L15.4531 6.80078C15.6641 6.58984 16.0508 6.58984 16.2617 6.80078C16.4727 7.01172 16.4727 7.39844 16.2617 7.60938L12.8867 10.9844ZM16.1914 11.1953C16.3672 11.2656 16.5078 11.4062 16.543 11.6172L17.2461 15.3789L21.0078 16.082C21.2188 16.1172 21.3594 16.2578 21.4297 16.4336C21.5 16.6094 21.5 16.8203 21.3945 16.9609L19.9531 19H18.6172L19.9531 17.0312L16.6484 16.4336C16.4023 16.3984 16.2266 16.2227 16.1914 15.9766L15.5938 12.6719L12.8164 14.5703C12.6055 14.7109 12.3594 14.7109 12.1484 14.5703L9.37109 12.6719L8.77344 15.9766C8.73828 16.2227 8.5625 16.3984 8.31641 16.4336L5.01172 17.0312L6.34766 19H5.01172L3.57031 16.9609C3.46484 16.8203 3.46484 16.6094 3.53516 16.4336C3.60547 16.2578 3.74609 16.1172 3.95703 16.082L7.75391 15.3789L8.42188 11.6172C8.45703 11.4062 8.59766 11.2656 8.77344 11.1953C8.94922 11.125 9.16016 11.125 9.30078 11.2305L12.5 13.4453L15.6641 11.2305C15.8047 11.125 16.0156 11.125 16.1914 11.1953ZM16.8594 19H15.6641C15.207 17.6992 13.9414 16.75 12.5 16.75C11.0234 16.75 9.75781 17.6992 9.30078 19H8.14062C8.63281 17.0664 10.3906 15.625 12.5 15.625C14.5742 15.625 16.332 17.0664 16.8594 19ZM2.9375 20.125H22.0625C22.3438 20.125 22.625 20.4062 22.625 20.6875C22.625 21.0039 22.3438 21.25 22.0625 21.25H2.9375C2.62109 21.25 2.375 21.0039 2.375 20.6875C2.375 20.4062 2.62109 20.125 2.9375 20.125Z" fill="#4A5A61"/>
</svg>
