<svg width="24" height="24" viewBox="0 0 24 24" fill="none" xmlns="http://www.w3.org/2000/svg">
<path d="M7.81641 4.375L7.53516 4.9375L8.37891 6.625H9.1875H9.96094L10.8047 4.9375L10.5234 4.375H7.81641ZM11.9297 5.21875L11.0508 6.94141C13.5469 7.75 15.375 10.0703 15.375 12.8125C15.375 15.0977 14.1445 17.0664 12.3164 18.1562C12.0352 17.9102 11.7539 17.6289 11.543 17.3125C13.1602 16.4336 14.25 14.7812 14.25 12.8125C14.25 11.8633 13.9688 10.9492 13.4766 10.1758C11.332 10.7734 9.75 12.7422 9.75 15.0625C9.75 16.0469 9.99609 16.9609 10.4883 17.7344C10.6992 18.0508 10.9453 18.3672 11.2266 18.6836C12.1406 19.5625 13.4062 20.125 14.8125 20.125C17.5898 20.125 19.875 17.875 19.875 15.0625C19.875 12.707 18.2227 10.7031 15.9727 10.1406C15.7969 9.71875 15.5859 9.29688 15.3398 8.91016C18.5039 9.19141 21 11.8633 21 15.0625C21 18.5078 18.2227 21.25 14.8125 21.25C12.8438 21.25 11.1211 20.3711 9.99609 18.9648C9.71484 19 9.43359 19 9.1875 19C5.74219 19 3 16.2578 3 12.8125C3 10.0703 4.79297 7.75 7.28906 6.94141L6.41016 5.21875C6.33984 5.04297 6.33984 4.86719 6.41016 4.69141L6.97266 3.56641C7.07812 3.39062 7.25391 3.25 7.5 3.25H10.875C11.0859 3.25 11.2617 3.39062 11.3672 3.56641L11.9297 4.69141C12 4.86719 12 5.04297 11.9297 5.21875ZM9.29297 17.875C8.83594 17.0312 8.625 16.082 8.625 15.0625C8.625 12.3906 10.3477 10.0703 12.7383 9.22656C11.8242 8.3125 10.5586 7.75 9.1875 7.75C6.375 7.75 4.125 10.0352 4.125 12.8125C4.125 15.625 6.375 17.875 9.1875 17.875C9.22266 17.875 9.25781 17.875 9.29297 17.875Z" fill="#4A5A61"/>
</svg>
