<svg width="24" height="24" viewBox="0 0 24 24" fill="none" xmlns="http://www.w3.org/2000/svg">
<path d="M6.65626 5.21875C6.65626 5.71094 7.00782 6.0625 7.50001 6.0625C7.95704 6.0625 8.34376 5.71094 8.34376 5.21875C8.34376 4.76172 7.95704 4.375 7.50001 4.375C7.00782 4.375 6.65626 4.76172 6.65626 5.21875ZM9.46876 5.21875C9.46876 5.95703 9.08204 6.58984 8.48438 6.94141C7.85157 7.29297 7.11329 7.29297 6.51563 6.94141C5.88282 6.58984 5.53126 5.95703 5.53126 5.21875C5.53126 4.51562 5.88282 3.88281 6.51563 3.53125C7.11329 3.17969 7.85157 3.17969 8.48438 3.53125C9.08204 3.88281 9.46876 4.51562 9.46876 5.21875ZM7.04297 8.875C6.79688 8.875 6.58594 8.94531 6.37501 9.01562V14.5H8.62501V8.875H7.04297ZM6.37501 20.6875C6.37501 21.0039 6.09376 21.25 5.81251 21.25C5.4961 21.25 5.25001 21.0039 5.25001 20.6875V10.3867L3.49219 13.6562C3.35157 13.9375 3.00001 14.043 2.71876 13.9023C2.43751 13.7266 2.33204 13.4102 2.47266 13.1289L4.54688 9.26172C5.03907 8.34766 5.98829 7.75 7.04297 7.75H9.29297H12V4.9375C12 4.02344 12.7383 3.25 13.6875 3.25H21.5625C22.4766 3.25 23.25 4.02344 23.25 4.9375V12.8125C23.25 13.7617 22.4766 14.5 21.5625 14.5H13.6875C12.7383 14.5 12 13.7617 12 12.8125V10H13.125V12.8125C13.125 13.1289 13.3711 13.375 13.6875 13.375H21.5625C21.8438 13.375 22.125 13.1289 22.125 12.8125V4.9375C22.125 4.65625 21.8438 4.375 21.5625 4.375H13.6875C13.3711 4.375 13.125 4.65625 13.125 4.9375V7.75H14.8125C15.0938 7.75 15.375 8.03125 15.375 8.3125C15.375 8.62891 15.0938 8.875 14.8125 8.875H9.75001V20.6875C9.75001 21.0039 9.46876 21.25 9.18751 21.25C8.8711 21.25 8.62501 21.0039 8.62501 20.6875V15.625H6.37501V20.6875Z" fill="#4A5A61"/>
</svg>
