<svg width="264" height="168" viewBox="0 0 264 168" fill="none" xmlns="http://www.w3.org/2000/svg">
<path d="M263.247 100.171C261.669 104.587 257.796 107.793 253.146 108.521C250.371 108.953 247.571 108.459 245.166 107.177C244.105 110.433 241.342 112.998 237.753 113.664C233.288 114.466 228.972 112.061 227.232 108.065C224.161 111.728 219.783 114.195 214.899 114.861C209.003 115.675 203.132 113.751 198.877 109.791C194.905 116.513 188.282 121.509 180.327 123.297C170.682 125.48 160.765 122.557 153.871 115.884C150.516 123.1 143.782 128.453 135.617 129.859C125.996 131.511 116.45 127.392 111.035 119.572C107.113 122.73 101.921 124.16 96.7156 123.223C90.376 122.076 85.2822 117.636 83.1484 111.79C80.9653 113.282 78.4122 114.244 75.6741 114.54C72.381 114.898 69.1248 114.232 66.3004 112.727C60.5775 118.943 52.4371 122.668 43.7171 122.717C34.8737 122.767 26.5854 119.067 20.7761 112.752C17.446 114.392 13.4005 114.232 10.1444 112.086C6.78956 109.866 5.03817 106.017 5.38352 102.194C7.06092 105.734 10.6131 107.991 14.5229 108.028C17.409 108.052 20.1225 106.856 22.0342 104.821C28.0285 110.495 36.7115 112.517 44.6915 109.915C51.1914 107.793 56.2483 102.934 58.7274 96.8286C60.9475 100.553 64.8203 103.168 69.3098 103.711C74.3297 104.328 79.2016 102.28 82.2851 98.4937C86.3676 106.264 95.4699 110.223 104.104 107.645C111.825 105.339 116.968 98.4444 117.375 90.7727C120.15 93.7082 123.912 95.6199 128.019 96.0886C132.533 96.5943 137.023 95.3239 140.563 92.5981C145.582 96.9396 152.711 98.1607 158.989 95.5336C164.453 93.2518 168.289 88.4662 169.485 82.916C172.717 88.6266 178.649 92.4501 185.396 92.8941C191.982 93.3135 198.211 90.4397 202.158 85.4198C203.477 89.2556 206.808 92.0924 210.865 92.7338C213.949 93.2271 217.032 92.3638 219.4 90.489C221.904 93.8562 226.098 95.6076 230.316 94.9539C232.548 94.6085 234.559 93.6095 236.162 92.1541C238.259 94.5962 241.318 96.2242 244.784 96.4462C251.579 96.8779 257.438 91.7471 257.919 84.9511C258.955 85.5802 259.905 86.3695 260.731 87.2946C263.864 90.7974 264.838 95.7432 263.247 100.171Z" fill="#DCE8EF"/>
<path d="M257.919 84.9511C257.438 91.747 251.58 96.8779 244.784 96.4462C241.318 96.2242 238.259 94.5961 236.162 92.154C234.559 93.6094 232.548 94.6084 230.316 94.9538C226.098 95.6075 221.904 93.8561 219.4 90.4889C217.032 92.3637 213.949 93.2271 210.865 92.7337C206.808 92.0924 203.477 89.2556 202.158 85.4198C198.211 90.4396 191.982 93.3134 185.396 92.8941C178.649 92.45 172.717 88.6265 169.485 82.9159C168.289 88.4662 164.453 93.2517 158.989 95.5335C152.711 98.1606 145.582 96.9395 140.563 92.598C137.023 95.3238 132.533 96.5942 128.019 96.0885C123.912 95.6198 120.15 93.7081 117.375 90.7726C116.968 98.4443 111.825 105.339 104.104 107.645C95.4699 110.223 86.3676 106.264 82.2851 98.4936C79.2016 102.28 74.3297 104.328 69.3099 103.711C64.8203 103.168 60.9475 100.553 58.7274 96.8286C56.2483 102.934 51.1915 107.793 44.6915 109.915C36.7115 112.517 28.0285 110.494 22.0342 104.821C20.1225 106.856 17.4091 108.052 14.5229 108.028C10.6131 107.991 7.06095 105.734 5.38354 102.194C4.54484 101.885 3.75548 101.429 3.04012 100.849C0.894031 99.0856 -0.240712 96.3599 0.042967 93.5848C0.326646 90.8096 1.97939 88.3675 4.44616 87.0725C6.45658 86.0118 8.8 85.8391 10.9091 86.5298C11.8465 83.175 14.4119 80.3629 17.9394 79.2281C20.2088 78.4881 22.5646 78.5621 24.686 79.2898C27.4611 72.1979 33.2827 66.5366 40.7324 64.0698C47.3063 61.8991 54.3119 62.4541 60.3062 65.3649C61.4285 62.8981 63.365 60.8014 65.9057 59.494C67.9285 58.4579 70.1362 58.0139 72.2947 58.1496C73.6391 46.9751 81.4094 37.3177 92.5592 33.8642C102.303 30.8548 112.602 33.2229 119.99 39.5132C123.875 27.796 133.915 18.78 146.544 16.5352C158.78 14.3521 170.928 18.9773 178.674 28.0427C186.716 23.1955 197.064 23.7505 204.6 29.6707C211.124 34.8016 214.233 42.942 213.098 50.8603C216.995 49.6886 221.312 50.3669 224.692 52.8831C228.195 55.4978 230.106 59.6297 229.946 63.8602C236.323 61.6894 243.55 62.6391 249.248 66.7956C255.144 71.1001 258.252 77.9824 257.919 84.9511Z" fill="#F9FBFC"/>
<path d="M44.6497 91.7028C47.1621 93.5023 49.4611 94.6777 51.786 95.361C54.0875 96.0665 56.3606 96.2539 58.5869 96.0776C60.8095 95.863 63.0111 95.2771 65.1596 94.1954C67.3217 93.115 69.3938 91.5695 71.5609 89.3643C71.8261 92.4773 70.436 95.6792 68.1185 98.0374C65.7985 100.413 62.5165 101.93 59.1197 102.22C55.7254 102.508 52.23 101.591 49.5413 99.6408C46.8513 97.7254 44.9358 94.8059 44.6497 91.7028Z" fill="#DCE8EF"/>
<path d="M90.645 79.4625C94.3316 82.7976 98.0996 85.1903 102.093 86.6322C106.051 88.1147 110.162 88.6056 114.183 88.2824C118.198 87.9038 122.153 86.6975 125.805 84.5699C129.474 82.4485 132.79 79.4563 135.846 75.5342C135.708 80.5454 133.21 85.5246 129.355 89.1803C125.499 92.8595 120.246 95.1832 114.822 95.6519C109.401 96.1095 103.822 94.7442 99.3996 91.7668C94.9668 88.8473 91.6589 84.3615 90.645 79.4625Z" fill="#DCE8EF"/>
<path d="M159.073 78.4352C160.83 79.951 162.582 81.0204 164.424 81.6605C166.248 82.3192 168.124 82.5301 169.96 82.3833C171.793 82.2094 173.601 81.6716 175.287 80.7157C176.983 79.7623 178.534 78.413 180.003 76.6172C179.991 78.9569 178.851 81.3004 177.062 83.0209C175.274 84.7538 172.817 85.8503 170.28 86.0686C167.744 86.2832 165.134 85.6345 163.077 84.2284C161.017 82.8483 159.494 80.733 159.073 78.4352Z" fill="#DCE8EF"/>
<path d="M225.174 87.5202C226.93 89.036 228.683 90.1054 230.524 90.7455C232.349 91.4041 234.225 91.615 236.061 91.4682C237.894 91.2943 239.702 90.7566 241.388 89.8007C243.084 88.8473 244.634 87.4992 246.103 85.7021C246.092 88.0419 244.951 90.3853 243.163 92.1059C241.374 93.8388 238.918 94.9353 236.38 95.1536C233.845 95.3682 231.235 94.7195 229.178 93.3134C227.118 91.9332 225.595 89.818 225.174 87.5202Z" fill="#DCE8EF"/>
<g filter="url(#filter0_d_192_4208)">
<rect x="122" y="102" width="48" height="48" rx="24" fill="#F96073"/>
<path d="M149 117C149 118.078 148.391 119.062 147.5 119.625C146.562 120.141 145.391 120.141 144.5 119.625C143.562 119.062 143 118.078 143 117C143 115.969 143.562 114.984 144.5 114.422C145.391 113.906 146.562 113.906 147.5 114.422C148.391 114.984 149 115.969 149 117ZM144.125 121.969C144.172 121.969 144.219 121.969 144.266 122.016C144.828 122.156 145.391 122.25 146 122.25C147.875 122.25 149.609 121.312 150.641 119.766L151.484 118.453C151.906 117.75 152.844 117.562 153.547 118.031C154.25 118.453 154.437 119.391 153.969 120.094L153.125 121.406C152.281 122.719 151.109 123.75 149.75 124.406V136.5C149.75 137.344 149.047 138 148.25 138C147.406 138 146.75 137.344 146.75 136.5V132H145.25V136.5C145.25 137.344 144.547 138 143.75 138C142.906 138 142.25 137.344 142.25 136.5V124.406C140.891 123.75 139.766 122.766 138.875 121.453L137.984 120.094C137.516 119.438 137.703 118.5 138.406 118.031C139.109 117.562 140 117.75 140.469 118.453L141.406 119.812C142.062 120.797 143.047 121.547 144.125 121.969Z" fill="white"/>
</g>
<g filter="url(#filter1_d_192_4208)">
<rect x="111" y="6" width="48" height="48" rx="24" fill="#00D98B"/>
<path d="M133.594 22.3595C134.25 24.3751 133.594 26.4376 132.047 26.9063C130.547 27.422 128.766 26.2032 128.109 24.1876C127.453 22.172 128.109 20.1095 129.656 19.6407C131.156 19.1251 132.938 20.3438 133.594 22.3595ZM127.688 27.3282C128.578 28.8282 128.344 30.6095 127.219 31.2657C126.047 31.922 124.406 31.2188 123.516 29.7188C122.625 28.172 122.859 26.4376 123.984 25.7813C125.156 25.1251 126.797 25.8282 127.688 27.3282ZM126.234 36.8438C128.672 30.1876 133.031 28.5001 135 28.5001C136.922 28.5001 141.281 30.1876 143.719 36.8438C143.906 37.2657 144 37.7813 144 38.2501V38.3438C144 39.5626 143.016 40.5001 141.797 40.5001C141.234 40.5001 140.719 40.4532 140.203 40.3126L136.078 39.2813C135.375 39.0938 134.625 39.0938 133.875 39.2813L129.75 40.3126C129.234 40.4532 128.719 40.5001 128.156 40.5001C126.938 40.5001 126 39.5626 126 38.3438V38.2501C126 37.7813 126.047 37.2657 126.234 36.8438ZM142.734 31.2657C141.609 30.6095 141.375 28.8282 142.266 27.3282C143.156 25.8282 144.797 25.1251 145.969 25.7813C147.094 26.4376 147.328 28.172 146.438 29.7188C145.547 31.2188 143.906 31.922 142.734 31.2657ZM137.531 26.9063C135.984 26.4376 135.328 24.3751 135.984 22.3595C136.641 20.3438 138.422 19.1251 139.922 19.6407C141.469 20.1095 142.125 22.172 141.469 24.1876C140.813 26.2032 139.031 27.422 137.531 26.9063Z" fill="white"/>
</g>
<g filter="url(#filter2_d_192_4208)">
<rect x="202" y="38" width="48" height="48" rx="24" fill="#B85EFF"/>
<path d="M226 51.5C226.375 51.5 226.75 51.5938 227.078 51.7344L240.25 56.4688C240.672 56.6094 241 57.0312 241 57.5C241 58.0156 240.672 58.4375 240.25 58.5781L227.078 63.3125C226.75 63.4531 226.375 63.5 225.953 63.5C225.578 63.5 225.203 63.4531 224.875 63.3125L217.375 60.5938C217.797 60.1719 218.312 59.8438 218.875 59.6094L226.234 56.7031C226.656 56.5625 226.844 56.1406 226.656 55.7188C226.516 55.3438 226.094 55.1562 225.719 55.2969L218.359 58.2031C217.422 58.5781 216.625 59.1406 216.016 59.8906C215.219 60.9688 214.75 62.2812 214.75 63.6875V64.8594C215.031 65.4688 215.219 66.1719 215.359 66.8281C215.641 68.0938 215.875 69.9219 215.453 71.9375C215.406 72.125 215.312 72.3125 215.125 72.4062C214.938 72.5 214.75 72.5469 214.562 72.5L211.562 71.75C211.281 71.7031 211.094 71.5156 211 71.2812C210.953 71.0469 211 70.7656 211.141 70.5781C211.516 70.0156 211.891 69.4062 212.172 68.7969C212.734 67.7188 213.25 66.3594 213.25 65V63.6875C213.25 62.1875 213.672 60.7812 214.422 59.5625L211.703 58.5781C211.281 58.4375 211 58.0156 211 57.5C211 57.0312 211.281 56.6094 211.703 56.4688L224.875 51.7344C225.203 51.5938 225.578 51.5 226 51.5ZM217 69.125L217.703 62.3281L224.359 64.7188C224.875 64.9062 225.438 65 226 65C226.516 65 227.078 64.9062 227.594 64.7188L234.25 62.3281L235 69.125C235 70.8125 230.969 72.5 226 72.5C221.031 72.5 217 70.8125 217 69.125Z" fill="white"/>
</g>
<defs>
<filter id="filter0_d_192_4208" x="110" y="96" width="72" height="72" filterUnits="userSpaceOnUse" color-interpolation-filters="sRGB">
<feFlood flood-opacity="0" result="BackgroundImageFix"/>
<feColorMatrix in="SourceAlpha" type="matrix" values="0 0 0 0 0 0 0 0 0 0 0 0 0 0 0 0 0 0 127 0" result="hardAlpha"/>
<feMorphology radius="4" operator="erode" in="SourceAlpha" result="effect1_dropShadow_192_4208"/>
<feOffset dy="6"/>
<feGaussianBlur stdDeviation="8"/>
<feColorMatrix type="matrix" values="0 0 0 0 0.164706 0 0 0 0 0.207843 0 0 0 0 0.223529 0 0 0 0.2 0"/>
<feBlend mode="normal" in2="BackgroundImageFix" result="effect1_dropShadow_192_4208"/>
<feBlend mode="normal" in="SourceGraphic" in2="effect1_dropShadow_192_4208" result="shape"/>
</filter>
<filter id="filter1_d_192_4208" x="99" y="0" width="72" height="72" filterUnits="userSpaceOnUse" color-interpolation-filters="sRGB">
<feFlood flood-opacity="0" result="BackgroundImageFix"/>
<feColorMatrix in="SourceAlpha" type="matrix" values="0 0 0 0 0 0 0 0 0 0 0 0 0 0 0 0 0 0 127 0" result="hardAlpha"/>
<feMorphology radius="4" operator="erode" in="SourceAlpha" result="effect1_dropShadow_192_4208"/>
<feOffset dy="6"/>
<feGaussianBlur stdDeviation="8"/>
<feColorMatrix type="matrix" values="0 0 0 0 0.164706 0 0 0 0 0.207843 0 0 0 0 0.223529 0 0 0 0.2 0"/>
<feBlend mode="normal" in2="BackgroundImageFix" result="effect1_dropShadow_192_4208"/>
<feBlend mode="normal" in="SourceGraphic" in2="effect1_dropShadow_192_4208" result="shape"/>
</filter>
<filter id="filter2_d_192_4208" x="190" y="32" width="72" height="72" filterUnits="userSpaceOnUse" color-interpolation-filters="sRGB">
<feFlood flood-opacity="0" result="BackgroundImageFix"/>
<feColorMatrix in="SourceAlpha" type="matrix" values="0 0 0 0 0 0 0 0 0 0 0 0 0 0 0 0 0 0 127 0" result="hardAlpha"/>
<feMorphology radius="4" operator="erode" in="SourceAlpha" result="effect1_dropShadow_192_4208"/>
<feOffset dy="6"/>
<feGaussianBlur stdDeviation="8"/>
<feColorMatrix type="matrix" values="0 0 0 0 0.164706 0 0 0 0 0.207843 0 0 0 0 0.223529 0 0 0 0.2 0"/>
<feBlend mode="normal" in2="BackgroundImageFix" result="effect1_dropShadow_192_4208"/>
<feBlend mode="normal" in="SourceGraphic" in2="effect1_dropShadow_192_4208" result="shape"/>
</filter>
</defs>
</svg>
