<svg width="380" height="177" viewBox="0 0 380 177" fill="none" xmlns="http://www.w3.org/2000/svg">
<path d="M379.229 88.1493C378.125 91.8525 375.893 95.0829 372.873 97.4072C373.096 101.478 372.361 105.601 370.667 109.41C367.541 116.422 361.488 121.701 354.108 123.841C346.741 125.982 338.809 124.761 332.414 120.519C330.969 119.547 329.63 118.457 328.409 117.21C325.336 121.57 320.661 124.708 315.238 125.785C310.038 126.809 304.772 125.85 300.359 123.25C296.157 134.202 286.808 142.541 275.186 145.338C263.473 148.174 251.247 144.931 242.488 136.96C232.81 140.952 221.911 141.425 211.773 138.076C203.356 135.305 196.068 130.118 190.736 123.303C186.862 126.152 182.017 127.518 177.092 127.006C171.945 126.468 167.309 123.933 164.105 120.099C161.899 125.154 157.867 129.265 152.733 131.563C147.126 134.084 140.757 134.163 135.15 131.852C130.383 137.065 123.843 140.466 116.66 141.254C108.807 142.121 101.007 139.809 94.9534 134.938C86.3653 142.002 74.2973 143.683 63.9232 138.811C55.6634 134.951 49.9248 127.61 47.8763 119.166C41.1134 122.515 32.7486 121.845 26.511 116.776C21.1927 112.456 18.6845 105.956 19.2623 99.6002C17.1744 98.0375 15.4804 95.9233 14.4298 93.402C13.4975 91.1696 13.1298 88.8191 13.3005 86.5079C20.7856 101.701 37.2659 110 53.6674 107.322C55.926 113.034 60.3777 117.669 66.1031 120.164C70.9355 122.266 76.267 122.659 81.2702 121.373C88.335 128.175 98.7616 130.447 108.151 126.98C115.78 124.143 121.453 117.971 123.791 110.513C129.792 114.334 137.027 115.936 144.197 114.872C151.459 113.796 157.999 110.106 162.621 104.577C166.705 109.922 173.481 112.732 180.336 111.642C185.628 110.802 190.158 107.755 192.955 103.474C201.99 113.848 216.093 118.562 229.724 115.463C241.149 112.863 250.485 105.181 255.357 94.9647C259.284 99.3113 264.865 102.016 270.944 102.2C277.379 102.397 283.433 99.7709 287.674 95.2142C293.137 101.452 301.449 104.643 309.867 103.435C315.619 102.62 320.753 99.8366 324.535 95.7657C327.529 98.9042 331.429 101.084 335.763 101.977C341.856 103.225 348.172 101.78 353.11 98.0244C358.06 94.2556 361.133 88.5433 361.553 82.3583C361.973 76.1601 359.702 70.0933 355.316 65.6941C358.888 64.3678 362.801 64.1971 366.53 65.2083C371.284 66.5214 375.302 69.6993 377.692 74.0065C380.095 78.3268 380.647 83.4219 379.229 88.1493Z" fill="#DCE8EF"/>
<path d="M361.553 82.3583C361.133 88.5433 358.06 94.2556 353.11 98.0244C348.172 101.78 341.856 103.225 335.763 101.977C331.429 101.084 327.529 98.9042 324.535 95.7658C320.753 99.8366 315.619 102.62 309.867 103.435C301.45 104.643 293.137 101.452 287.674 95.2142C283.433 99.7709 277.379 102.397 270.945 102.2C264.865 102.016 259.284 99.3113 255.357 94.9647C250.485 105.181 241.149 112.863 229.724 115.463C216.093 118.562 201.99 113.848 192.955 103.474C190.158 107.755 185.628 110.802 180.336 111.642C173.481 112.732 166.705 109.922 162.621 104.577C157.999 110.106 151.459 113.796 144.197 114.872C137.027 115.936 129.792 114.334 123.791 110.513C121.453 117.971 115.78 124.143 108.151 126.98C98.7617 130.447 88.3351 128.175 81.2702 121.373C76.2671 122.659 70.9356 122.266 66.1031 120.164C60.3777 117.669 55.9261 113.034 53.6674 107.322C37.2659 110.001 20.7856 101.701 13.3005 86.5079C9.46608 86.4028 5.80235 84.6957 3.2548 81.6886C-0.0281284 77.8278 -0.907947 72.457 0.983018 67.7427C2.87398 63.0284 7.20745 59.7586 12.25 59.2202C15.0077 58.9313 17.7128 59.4829 20.0634 60.7304C22.4402 57.106 26.2878 54.5979 30.7 53.9413C36.084 53.1402 41.4681 55.2413 44.8823 59.4041C49.7936 52.7726 57.3574 48.3997 65.788 47.5855C72.8922 46.9027 79.8651 48.8199 85.538 52.7726C87.8098 48.531 91.8807 45.3663 96.8313 44.3683C101.309 43.4753 105.813 44.4865 109.398 46.9421C111.302 43.5016 114.244 40.6651 117.895 38.8923C121.204 37.2771 124.841 36.6731 128.387 37.0408C134.716 21.1908 150.698 10.843 168.268 12.1037C184.761 13.2855 198.392 24.4212 203.29 39.4964C208.595 35.964 215.214 34.6639 221.648 36.1084C227.741 37.4873 232.928 41.1773 236.251 46.233C239.074 42.9106 242.738 40.3237 246.927 38.761C251.339 37.1064 256.053 36.6994 260.584 37.4873C266.519 25.6031 279.362 18.0523 293.321 19.4706C306.912 20.8494 317.759 30.3305 321.475 42.6874C329.354 41.2561 337.614 43.1208 344.206 48.0714C350.037 52.4574 353.924 58.7737 355.316 65.6942C359.702 70.0933 361.974 76.1601 361.553 82.3583Z" fill="#F9FBFC"/>
<path d="M116.954 103.562C118.562 105.221 120.073 106.233 121.591 106.882C123.105 107.525 124.579 107.787 126.051 107.775C127.523 107.747 128.987 107.456 130.485 106.778C131.987 106.097 133.475 105.055 135.052 103.363C135.618 105.632 134.754 108.192 133.033 110.028C131.318 111.881 128.724 113.014 126.107 113.025C123.49 113.064 120.875 111.99 119.121 110.175C117.364 108.379 116.445 105.842 116.954 103.562Z" fill="#DCE8EF"/>
<path d="M316.15 91.2025C317.758 92.8624 319.268 93.8735 320.789 94.5222C322.303 95.1657 323.776 95.427 325.248 95.4152C326.72 95.3876 328.184 95.0961 329.683 94.4185C331.185 93.7369 332.673 92.6956 334.25 91.0029C334.816 93.2734 333.952 95.8328 332.23 97.6686C330.515 99.5228 327.922 100.655 325.305 100.665C322.687 100.705 320.073 99.6305 318.318 97.8157C316.561 96.0192 315.642 93.4835 316.15 91.2025Z" fill="#DCE8EF"/>
<path d="M228.529 76.8796C231.733 82.2085 235.752 86.2859 240.394 89.0225C245.021 91.7618 250.179 93.1157 255.338 93.0605C260.494 92.9922 265.617 91.5254 270.182 88.6863C274.759 85.8486 278.687 81.6898 281.783 76.2939C281.902 82.5565 278.91 88.9936 274.004 93.5608C269.115 98.1661 262.299 100.892 255.424 100.936C248.55 101.033 241.679 98.4576 236.692 93.9627C231.691 89.5044 228.558 83.1408 228.529 76.8796Z" fill="#DCE8EF"/>
<path d="M178.501 91.3535C181.054 94.3462 183.631 96.3186 186.329 97.6041C189.018 98.8845 191.753 99.4478 194.484 99.4229C197.215 99.3769 199.932 98.7558 202.59 97.4177C205.257 96.0717 207.789 94.0494 210.285 91.0042C211.005 94.9161 209.407 99.218 206.413 102.293C203.429 105.398 199.02 107.28 194.569 107.301C190.12 107.368 185.675 105.584 182.625 102.547C179.57 99.5371 177.879 95.2785 178.501 91.3535Z" fill="#DCE8EF"/>
<path d="M71.1772 104.37C69.562 107.123 66.8188 109.186 63.7171 110.347C60.6036 111.506 57.0935 111.742 53.7882 111.021C50.479 110.312 47.3826 108.64 45.0294 106.294C42.6867 103.951 41.0478 100.931 40.7274 97.7527C43.0176 99.9496 45.2237 101.7 47.5822 103.046C49.9262 104.395 52.3726 105.331 54.9031 105.889C57.4362 106.439 60.052 106.602 62.7453 106.347C65.4518 106.103 68.1858 105.424 71.1772 104.37Z" fill="#DCE8EF"/>
<g filter="url(#filter0_d_192_4211)">
<rect x="170" y="6" width="48" height="48" rx="24" fill="#35CFEA"/>
<path d="M207.031 20.5781L198.031 29.5781L199.672 31.2188C199.859 31.4062 200 31.6875 200 31.9688C200 32.5312 199.484 33 198.922 33H197.562L192.5 27.9375V26.5781C192.5 26.0156 192.969 25.5 193.531 25.5C193.812 25.5 194.094 25.6406 194.281 25.8281L195.922 27.4688L204.922 18.4688C205.484 17.8594 206.469 17.8594 207.031 18.4688C207.641 19.0312 207.641 20.0156 207.031 20.5781ZM196.484 34.5938C196.625 36.6094 195.922 38.5781 194.469 40.0312C193.203 41.2969 191.469 42 189.641 42H181.531C180.922 42 180.5 41.5781 180.5 40.9688C180.5 40.6875 180.594 40.4062 180.828 40.2188L186.734 34.875C186.922 34.6875 186.734 34.4062 186.5 34.5L184.109 35.7188C183.828 35.8594 183.5 35.625 183.5 35.3438C183.5 33.8438 184.062 32.4375 185.094 31.4062L185.469 31.0312C186.922 29.5781 188.891 28.875 190.906 29.0156L196.484 34.5938Z" fill="white"/>
</g>
<g filter="url(#filter1_d_192_4211)">
<rect x="210" y="111" width="48" height="48" rx="24" fill="#FD8B25"/>
<path d="M230.25 127.5C229.406 127.5 228.703 127.078 228.281 126.375C227.859 125.719 227.859 124.828 228.281 124.125C228.703 123.469 229.406 123 230.25 123C231.047 123 231.75 123.469 232.172 124.125C232.594 124.828 232.594 125.719 232.172 126.375C231.75 127.078 231.047 127.5 230.25 127.5ZM229.828 129H231C232.406 129 233.719 129.703 234.562 130.828L238.172 135.609C238.687 136.266 238.547 137.203 237.891 137.719C237.234 138.234 236.297 138.094 235.781 137.438L232.5 133.031V137.391L234.797 139.734C235.219 140.156 235.5 140.719 235.5 141.328V145.5C235.5 146.344 234.797 147 234 147C233.156 147 232.5 146.344 232.5 145.5V141.656L228.844 138.047C228.281 137.484 228 136.688 228 135.891V133.875L226.312 137.203C225.937 137.953 225.047 138.234 224.297 137.859C223.547 137.484 223.266 136.594 223.641 135.844L225.797 131.531C226.594 129.984 228.141 129 229.828 129ZM228 139.266L230.484 141.75L229.453 145.875C229.219 146.672 228.422 147.188 227.625 146.953C226.828 146.766 226.312 145.969 226.547 145.172L228 139.266ZM243.094 146.719L237.562 138.703C237.844 138.609 238.078 138.516 238.312 138.328C238.5 138.188 238.687 138 238.781 137.859L244.359 145.828C244.594 146.203 244.5 146.625 244.172 146.906C243.797 147.141 243.328 147.047 243.094 146.719Z" fill="white"/>
</g>
<defs>
<filter id="filter0_d_192_4211" x="158" y="0" width="72" height="72" filterUnits="userSpaceOnUse" color-interpolation-filters="sRGB">
<feFlood flood-opacity="0" result="BackgroundImageFix"/>
<feColorMatrix in="SourceAlpha" type="matrix" values="0 0 0 0 0 0 0 0 0 0 0 0 0 0 0 0 0 0 127 0" result="hardAlpha"/>
<feMorphology radius="4" operator="erode" in="SourceAlpha" result="effect1_dropShadow_192_4211"/>
<feOffset dy="6"/>
<feGaussianBlur stdDeviation="8"/>
<feColorMatrix type="matrix" values="0 0 0 0 0.164706 0 0 0 0 0.207843 0 0 0 0 0.223529 0 0 0 0.2 0"/>
<feBlend mode="normal" in2="BackgroundImageFix" result="effect1_dropShadow_192_4211"/>
<feBlend mode="normal" in="SourceGraphic" in2="effect1_dropShadow_192_4211" result="shape"/>
</filter>
<filter id="filter1_d_192_4211" x="198" y="105" width="72" height="72" filterUnits="userSpaceOnUse" color-interpolation-filters="sRGB">
<feFlood flood-opacity="0" result="BackgroundImageFix"/>
<feColorMatrix in="SourceAlpha" type="matrix" values="0 0 0 0 0 0 0 0 0 0 0 0 0 0 0 0 0 0 127 0" result="hardAlpha"/>
<feMorphology radius="4" operator="erode" in="SourceAlpha" result="effect1_dropShadow_192_4211"/>
<feOffset dy="6"/>
<feGaussianBlur stdDeviation="8"/>
<feColorMatrix type="matrix" values="0 0 0 0 0.164706 0 0 0 0 0.207843 0 0 0 0 0.223529 0 0 0 0.2 0"/>
<feBlend mode="normal" in2="BackgroundImageFix" result="effect1_dropShadow_192_4211"/>
<feBlend mode="normal" in="SourceGraphic" in2="effect1_dropShadow_192_4211" result="shape"/>
</filter>
</defs>
</svg>
