<svg width="231" height="113" viewBox="0 0 231 113" fill="none" xmlns="http://www.w3.org/2000/svg">
<path d="M67.6631 40.242L64.2391 34.05H65.6951L68.3511 39.058H68.3991L71.1031 34.05H72.4631L68.8471 40.466V45.25H67.6631V40.242ZM75.8567 45.442C73.5367 45.442 71.9207 43.618 71.9207 41.346C71.9207 39.074 73.5367 37.25 75.8567 37.25C78.1767 37.25 79.7927 39.074 79.7927 41.346C79.7927 43.618 78.1767 45.442 75.8567 45.442ZM75.8567 44.45C77.6007 44.45 78.6727 42.978 78.6727 41.346C78.6727 39.714 77.6007 38.242 75.8567 38.242C74.1127 38.242 73.0407 39.714 73.0407 41.346C73.0407 42.978 74.1127 44.45 75.8567 44.45ZM84.5764 45.442C82.3524 45.442 81.6324 44.018 81.6324 41.666V37.442H82.7204V41.49C82.7204 42.962 82.9924 44.45 84.7364 44.45C85.9044 44.45 86.8484 43.618 87.3604 42.626V37.442H88.4484V45.25H87.3604V43.874C86.7364 44.914 85.7764 45.442 84.5764 45.442ZM91.1138 37.442H92.2018V38.914C92.6338 38.05 93.3858 37.25 94.4738 37.25C94.6818 37.25 94.9058 37.266 95.1298 37.314L94.9858 38.514C94.7458 38.402 94.5538 38.37 94.2498 38.37C93.3538 38.37 92.7618 39.042 92.2018 40.034V45.25H91.1138V37.442ZM102.244 40.242L98.8203 34.05H100.276L102.932 39.058H102.98L105.684 34.05H107.044L103.428 40.466V45.25H102.244V40.242ZM110.454 45.442C107.894 45.442 106.502 43.586 106.502 41.298C106.502 38.994 108.198 37.25 110.326 37.25C112.342 37.25 113.798 38.962 113.798 40.898C113.798 41.154 113.766 41.474 113.75 41.618H107.59C107.686 43.122 108.678 44.514 110.374 44.514C111.414 44.514 112.294 44.226 112.854 43.17L113.622 43.666C112.998 44.834 111.638 45.442 110.454 45.442ZM112.726 40.69C112.662 39.378 111.654 38.178 110.326 38.178C108.822 38.178 107.846 39.234 107.622 40.69H112.726ZM117.876 45.442C116.436 45.442 115.172 44.594 115.172 43.122C115.172 41.202 116.964 40.45 118.628 40.45C119.156 40.45 119.7 40.514 120.404 40.69V40.258C120.404 38.962 119.764 38.242 118.404 38.242C117.492 38.242 116.468 38.578 115.86 38.914L115.492 37.938C116.212 37.602 117.428 37.25 118.452 37.25C120.772 37.25 121.492 38.466 121.492 40.482V45.25H120.516L120.436 44.338C119.684 45.154 118.772 45.442 117.876 45.442ZM117.908 44.546C118.804 44.546 119.668 44.082 120.404 43.378V41.57C119.732 41.41 119.14 41.346 118.58 41.346C117.508 41.346 116.26 41.778 116.26 42.994C116.26 43.938 116.996 44.546 117.908 44.546ZM124.054 37.442H125.142V38.914C125.574 38.05 126.326 37.25 127.414 37.25C127.622 37.25 127.846 37.266 128.07 37.314L127.926 38.514C127.686 38.402 127.494 38.37 127.19 38.37C126.294 38.37 125.702 39.042 125.142 40.034V45.25H124.054V37.442ZM132.577 44.066C133.809 42.754 135.393 40.946 136.385 39.442C136.817 38.802 137.265 38.018 137.265 37.17C137.265 36.194 136.401 35.522 135.425 35.522C134.497 35.522 133.649 36.194 133.553 37.186L132.417 36.946C132.561 35.458 133.953 34.434 135.473 34.434C136.993 34.434 138.497 35.57 138.497 37.218C138.497 38.194 138.049 39.106 137.441 39.986C136.449 41.41 135.281 42.882 134.065 44.162H139.121V45.25H132.577V44.066ZM144.013 45.442C141.677 45.442 140.333 43.346 140.333 39.938C140.333 36.53 141.677 34.434 144.013 34.434C146.349 34.434 147.693 36.53 147.693 39.938C147.693 43.346 146.349 45.442 144.013 45.442ZM144.013 44.354C145.581 44.354 146.493 42.882 146.493 39.938C146.493 36.994 145.581 35.522 144.013 35.522C142.445 35.522 141.533 36.994 141.533 39.938C141.533 42.882 142.445 44.354 144.013 44.354ZM149.066 44.066C150.298 42.754 151.882 40.946 152.874 39.442C153.306 38.802 153.754 38.018 153.754 37.17C153.754 36.194 152.89 35.522 151.914 35.522C150.986 35.522 150.138 36.194 150.042 37.186L148.906 36.946C149.05 35.458 150.442 34.434 151.962 34.434C153.482 34.434 154.986 35.57 154.986 37.218C154.986 38.194 154.538 39.106 153.93 39.986C152.938 41.41 151.77 42.882 150.554 44.162H155.61V45.25H149.066V44.066ZM160.345 45.442C158.057 45.442 156.665 43.394 156.665 41.282C156.665 37.922 158.953 35.266 161.753 34.13L162.233 35.17C160.073 36.178 158.425 37.634 157.977 39.954C158.633 39.17 159.465 38.626 160.633 38.626C162.457 38.626 163.705 40.226 163.705 42.066C163.705 43.842 162.313 45.442 160.345 45.442ZM160.329 44.354C161.689 44.354 162.505 43.314 162.505 41.938C162.505 40.77 161.769 39.714 160.473 39.714C159.353 39.714 158.425 40.45 157.865 41.442C157.945 42.93 158.617 44.354 160.329 44.354ZM172.622 45.442C170.302 45.442 168.686 43.618 168.686 41.346C168.686 39.074 170.302 37.25 172.622 37.25C174.942 37.25 176.558 39.074 176.558 41.346C176.558 43.618 174.942 45.442 172.622 45.442ZM172.622 44.45C174.366 44.45 175.438 42.978 175.438 41.346C175.438 39.714 174.366 38.242 172.622 38.242C170.878 38.242 169.806 39.714 169.806 41.346C169.806 42.978 170.878 44.45 172.622 44.45ZM178.509 37.442H179.597V38.818C180.221 37.778 181.181 37.25 182.381 37.25C184.605 37.25 185.325 38.674 185.325 41.026V45.25H184.237V41.202C184.237 39.73 183.965 38.242 182.221 38.242C181.053 38.242 180.109 39.074 179.597 40.066V45.25H178.509V37.442Z" fill="white"/>
<path fill-rule="evenodd" clip-rule="evenodd" d="M87.5558 57.7944C87.5558 57.7217 87.5264 57.6538 87.4774 57.6067H87.4764C87.4715 57.6008 87.4656 57.5949 87.4597 57.5899C87.4587 57.589 87.4568 57.588 87.4568 57.587C87.4519 57.5831 87.447 57.5801 87.4421 57.5752C87.4352 57.5713 87.4283 57.5683 87.4205 57.5634C86.9021 57.236 86.2758 56.9764 85.429 57.0571C85.2281 56.5733 85.0566 56.0591 84.8508 55.5803C84.8449 55.5665 84.8391 55.5538 84.8322 55.539C84.7871 55.4574 84.7009 55.4014 84.6009 55.4014C84.5539 55.4014 84.5107 55.4141 84.4725 55.4358C84.451 55.4515 84.4294 55.4692 84.4078 55.4859C83.8894 55.9057 83.5033 56.4583 83.3249 57.2173C82.8006 57.2399 82.2988 57.2832 81.7764 57.3058C81.7539 57.3068 81.7323 57.3078 81.7098 57.3087C81.5853 57.3294 81.4902 57.4395 81.4902 57.5693C81.4902 57.585 81.4922 57.6008 81.4942 57.6145C81.501 57.6401 81.5098 57.6637 81.5187 57.6892C81.7607 58.3952 82.2831 58.9035 82.8231 59.3085C82.6918 59.8001 82.5653 60.2976 82.435 60.7922C82.4311 60.8069 82.4262 60.8217 82.4232 60.8374C82.4203 60.8512 82.4183 60.8669 82.4183 60.8826C82.4183 61.0163 82.5173 61.1274 82.6467 61.1451C82.6771 61.1441 82.7094 61.1432 82.7398 61.1412C83.5434 61.1009 84.1569 60.7696 84.648 60.395C85.087 60.6712 85.5163 60.9583 85.9563 61.2356C85.9671 61.2435 85.9789 61.2503 85.9896 61.2562C86.0259 61.2759 86.068 61.2877 86.1121 61.2877C86.2258 61.2877 86.3229 61.2149 86.3601 61.1147C86.364 61.0989 86.3689 61.0842 86.3719 61.0684C86.5443 60.4117 86.5042 59.5396 86.2307 59.0057C86.6267 58.6724 87.0451 58.3578 87.4342 58.0166C87.4362 58.0157 87.4372 58.0157 87.4381 58.0137C87.4381 58.0147 87.4372 58.0157 87.4372 58.0157C87.4372 58.0157 87.4381 58.0147 87.4381 58.0137C87.4548 57.9989 87.4725 57.9842 87.4891 57.9694C87.4891 57.9694 87.4901 57.9694 87.4901 57.9685C87.4901 57.9694 87.4891 57.9694 87.4891 57.9694C87.4901 57.9685 87.4911 57.9675 87.4921 57.9655C87.5313 57.9193 87.5558 57.8593 87.5558 57.7944" fill="white"/>
<path fill-rule="evenodd" clip-rule="evenodd" d="M132.566 57.7925C132.566 57.7197 132.536 57.6539 132.488 57.6067C132.488 57.6067 132.487 57.6057 132.486 57.6047C132.48 57.5988 132.474 57.5939 132.469 57.589L132.467 57.587C132.461 57.5831 132.458 57.5791 132.452 57.5752C132.445 57.5703 132.438 57.5663 132.43 57.5624C131.912 57.235 131.286 56.9755 130.439 57.0551C130.238 56.5714 130.067 56.0581 129.86 55.5803C129.854 55.5646 129.848 55.5518 129.843 55.538C129.797 55.4554 129.711 55.4004 129.611 55.4004C129.563 55.4004 129.521 55.4132 129.482 55.4348C129.46 55.4515 129.439 55.4682 129.418 55.4849C128.899 55.9048 128.513 56.4563 128.335 57.2163C127.81 57.238 127.309 57.2812 126.785 57.3048C126.764 57.3068 126.742 57.3068 126.72 57.3078C126.594 57.3284 126.5 57.4375 126.5 57.5683C126.5 57.584 126.502 57.5998 126.504 57.6135C126.511 57.6391 126.52 57.6637 126.529 57.6883C126.771 58.3942 127.293 58.9025 127.833 59.3076C127.701 59.7992 127.574 60.2967 127.444 60.7902C127.44 60.805 127.437 60.8207 127.433 60.8364C127.43 60.8512 127.429 60.8659 127.429 60.8826C127.429 61.0154 127.527 61.1265 127.657 61.1432C127.687 61.1432 127.719 61.1412 127.75 61.1402C128.552 61.1009 129.167 60.7686 129.657 60.393C130.097 60.6693 130.526 60.9574 130.966 61.2346C130.978 61.2415 130.989 61.2494 131 61.2562C131.036 61.2759 131.078 61.2867 131.121 61.2867C131.236 61.2867 131.332 61.214 131.37 61.1137C131.374 61.0989 131.378 61.0842 131.382 61.0685C131.554 60.4117 131.514 59.5386 131.241 59.0057C131.637 58.6714 132.055 58.3568 132.444 58.0157C132.446 58.0157 132.447 58.0147 132.448 58.0137V58.0147V58.0137C132.465 57.998 132.482 57.9832 132.5 57.9695V57.9675L132.499 57.9695C132.5 57.9675 132.501 57.9655 132.502 57.9645C132.542 57.9183 132.566 57.8574 132.566 57.7925" fill="white"/>
<path fill-rule="evenodd" clip-rule="evenodd" d="M57.4526 58.0737H61.2209V66.9135H61.2816C61.7373 66.2125 62.345 65.6334 63.1349 65.2067C63.8641 64.7791 64.7451 64.5352 65.6879 64.5352C68.2096 64.5352 70.8528 66.2125 70.8528 70.9682V79.7176H67.1159V71.3949C67.1159 69.2309 66.3259 67.6146 64.259 67.6146C62.8007 67.6146 61.7677 68.5899 61.3718 69.7186C61.2503 70.0234 61.2209 70.4196 61.2209 70.8463V79.7176H57.4526V58.0737V58.0737Z" fill="white"/>
<path fill-rule="evenodd" clip-rule="evenodd" d="M74.8309 79.7176H78.5992V58.0737H74.8309V79.7176Z" fill="white"/>
<path fill-rule="evenodd" clip-rule="evenodd" d="M82.6378 79.7172H86.4061V64.8711H82.6378V79.7172Z" fill="white"/>
<path fill-rule="evenodd" clip-rule="evenodd" d="M100.322 71.0597C100.322 70.7549 100.292 70.3882 100.23 70.0844C99.8962 68.6204 98.7114 67.4318 97.01 67.4318C94.6089 67.4318 93.2721 69.5653 93.2721 72.3398C93.2721 75.0524 94.6089 77.0345 96.9796 77.0345C98.4997 77.0345 99.8355 75.9973 100.201 74.3829C100.292 74.0466 100.322 73.6819 100.322 73.2857V71.0597ZM104.06 58.0742V75.5415C104.06 77.0654 104.119 78.7113 104.181 79.718H100.838L100.687 77.3702H100.626C99.7442 79.017 97.9517 80.0523 95.7946 80.0523C92.2693 80.0523 89.4742 77.0349 89.4742 72.4631C89.4429 67.4931 92.5428 64.5357 96.0974 64.5357C98.1339 64.5357 99.5923 65.3901 100.261 66.4873H100.321V58.0742H104.06Z" fill="white"/>
<path fill-rule="evenodd" clip-rule="evenodd" d="M115.907 72.4622C113.263 72.4012 110.742 72.9793 110.742 75.2357C110.742 76.6997 111.684 77.3692 112.869 77.3692C114.358 77.3692 115.451 76.3939 115.786 75.3272C115.876 75.0529 115.907 74.7481 115.907 74.5042V72.4622ZM116.393 79.7175L116.15 78.0716H116.06C115.147 79.2298 113.599 80.0528 111.684 80.0528C108.705 80.0528 107.034 77.8888 107.034 75.6333C107.034 71.8825 110.346 69.9928 115.817 70.0243V69.7795C115.817 68.8041 115.421 67.1888 112.808 67.1888C111.35 67.1888 109.829 67.646 108.826 68.286L108.097 65.8467C109.191 65.1762 111.106 64.5352 113.445 64.5352C118.186 64.5352 119.554 67.5545 119.554 70.7853V76.1505C119.554 77.4916 119.614 78.8031 119.766 79.7175H116.393Z" fill="white"/>
<path fill-rule="evenodd" clip-rule="evenodd" d="M134.379 79.2603C133.59 79.6261 132.039 80.0223 130.187 80.0223C125.568 80.0223 122.558 77.0658 122.558 72.4626C122.558 68.0117 125.596 64.5352 130.794 64.5352C132.16 64.5352 133.559 64.8409 134.409 65.2371L133.742 68.0422C133.133 67.7679 132.252 67.4621 130.916 67.4621C128.058 67.4621 126.356 69.5661 126.387 72.2787C126.387 75.3276 128.362 77.0658 130.916 77.0658C132.222 77.0658 133.133 76.7906 133.862 76.4858L134.379 79.2603Z" fill="white"/>
<path fill-rule="evenodd" clip-rule="evenodd" d="M140.879 71.3949H140.94C141.304 70.8158 141.731 70.1758 142.125 69.6566L145.711 64.8715H150.209L144.738 70.9377L150.999 79.7176H146.409L142.156 73.1636L140.879 74.6571V79.7176H137.142V58.0737H140.879V71.3949Z" fill="white"/>
<path fill-rule="evenodd" clip-rule="evenodd" d="M155.188 64.8716L157.862 72.8275C158.166 73.7429 158.471 74.8706 158.683 75.724H158.775C159.018 74.8706 159.292 73.7733 159.564 72.797L161.874 64.8716H165.884L162.178 74.9925C160.142 80.5396 158.775 83.0094 157.012 84.5333C155.553 85.8449 154.033 86.3325 153.091 86.4544L152.242 83.2847C152.88 83.1313 153.67 82.797 154.43 82.2474C155.129 81.7902 155.947 80.9063 156.465 79.8996C156.618 79.6262 156.708 79.4119 156.708 79.23C156.708 79.0766 156.677 78.8643 156.495 78.4975L151.086 64.8716H155.188Z" fill="white"/>
<path fill-rule="evenodd" clip-rule="evenodd" d="M167.174 79.8224H170.441V76.5454H167.174V79.8224Z" fill="white"/>
<path fill-rule="evenodd" clip-rule="evenodd" d="M184.752 79.2603C183.961 79.6261 182.41 80.0223 180.558 80.0223C175.939 80.0223 172.93 77.0658 172.93 72.4626C172.93 68.0117 175.969 64.5352 181.167 64.5352C182.533 64.5352 183.93 64.8409 184.782 65.2371L184.113 68.0422C183.506 67.7679 182.625 67.4621 181.287 67.4621C178.431 67.4621 176.73 69.5661 176.76 72.2787C176.76 75.3276 178.735 77.0658 181.287 77.0658C182.595 77.0658 183.506 76.7906 184.235 76.4858L184.752 79.2603Z" fill="white"/>
<path fill-rule="evenodd" clip-rule="evenodd" d="M187.097 77.5532L192.657 70.4192C193.417 69.5048 194.055 68.7733 194.845 67.9199V67.859H187.644V64.8721H199.403V67.158L193.965 74.1386C193.236 75.0225 192.535 75.8769 191.776 76.6683V76.7293H199.584V79.7172H187.097V77.5532Z" fill="white"/>
<path opacity="0.6" fill-rule="evenodd" clip-rule="evenodd" d="M46.1836 39.6369C46.1836 39.5659 46.1553 39.5009 46.1084 39.4526H46.1055C46.1006 39.4477 46.0948 39.4418 46.0889 39.4368C46.0889 39.4358 46.0879 39.4358 46.0879 39.4339C46.0821 39.4299 46.0782 39.428 46.0723 39.423C46.0664 39.4191 46.0596 39.4142 46.0528 39.4102C45.5461 39.089 44.936 38.8347 44.1101 38.9136C43.9139 38.4386 43.7459 37.935 43.5448 37.4659C43.54 37.4512 43.5341 37.4374 43.5282 37.4246C43.4833 37.3438 43.4004 37.2896 43.3018 37.2896C43.2559 37.2896 43.2139 37.3024 43.1768 37.3221C43.1553 37.3388 43.1348 37.3566 43.1133 37.3733C42.6077 37.7852 42.2318 38.3252 42.0571 39.0722C41.5465 39.0919 41.0574 39.1353 40.5468 39.1589C40.5263 39.1599 40.5039 39.1599 40.4824 39.1609C40.3604 39.1816 40.2686 39.288 40.2686 39.4161C40.2686 39.4319 40.2696 39.4477 40.2725 39.4615C40.2794 39.4861 40.2881 39.5097 40.296 39.5334C40.5322 40.2281 41.0418 40.7248 41.568 41.1239C41.4401 41.6058 41.3161 42.0936 41.1892 42.5784C41.1853 42.5942 41.1824 42.608 41.1785 42.6228C41.1755 42.6385 41.1746 42.6523 41.1746 42.6681C41.1746 42.8001 41.2702 42.9075 41.3962 42.9253C41.4264 42.9253 41.4567 42.9233 41.4869 42.9223C42.2699 42.8829 42.8693 42.5577 43.3467 42.1882C43.7772 42.4592 44.195 42.742 44.6236 43.014C44.6353 43.0219 44.6451 43.0288 44.6568 43.0357C44.6929 43.0544 44.7339 43.0652 44.7759 43.0652C44.8872 43.0652 44.9809 42.9943 45.018 42.8957C45.0219 42.8809 45.0258 42.8652 45.0287 42.8514C45.1976 42.2069 45.1585 41.3506 44.892 40.8273C45.2776 40.4991 45.6867 40.1897 46.0655 39.8556C46.0664 39.8556 46.0684 39.8547 46.0694 39.8537V39.8547V39.8537C46.086 39.8379 46.1026 39.8241 46.1201 39.8093V39.8083L46.1182 39.8093C46.1201 39.8083 46.1201 39.8074 46.1211 39.8054C46.1611 39.761 46.1836 39.7009 46.1836 39.6369" fill="white"/>
<path opacity="0.6" fill-rule="evenodd" clip-rule="evenodd" d="M53.2237 36.8182C53.293 36.7512 53.3281 36.6615 53.3291 36.5718C53.3291 36.5718 53.3281 36.5709 53.3281 36.5699C53.3281 36.558 53.3281 36.5482 53.3272 36.5383C53.3272 36.5373 53.3262 36.5344 53.3272 36.5344C53.3262 36.5255 53.3262 36.5186 53.3252 36.5098C53.3223 36.4989 53.3203 36.4891 53.3174 36.4782C53.1515 35.682 52.8234 34.8483 51.9731 34.1151C52.2445 33.4785 52.5706 32.8439 52.8322 32.2063C52.8391 32.1876 52.8469 32.1709 52.8547 32.1521C52.8908 32.0329 52.8635 31.8999 52.7727 31.8053C52.7287 31.7599 52.677 31.7294 52.6233 31.7136C52.5872 31.7077 52.5511 31.7038 52.5169 31.6988C51.6481 31.5904 50.7773 31.7314 49.8987 32.2595C49.3998 31.7806 48.899 31.3431 48.4001 30.8661C48.3787 30.8464 48.3582 30.8257 48.3367 30.806C48.202 30.7055 48.0136 30.7163 47.8906 30.8366C47.8749 30.8504 47.8632 30.8661 47.8515 30.8829C47.8349 30.9115 47.8193 30.943 47.8046 30.9735C47.3614 31.8535 47.3614 32.8183 47.4737 33.7052C46.8919 34.0314 46.3081 34.3684 45.7243 34.6995C45.7067 34.7094 45.6901 34.7192 45.6706 34.7291C45.654 34.7409 45.6394 34.7537 45.6247 34.7675C45.4988 34.8907 45.4851 35.0868 45.5867 35.2257C45.615 35.2553 45.6452 35.2829 45.6745 35.3115C46.4457 36.0397 47.3195 36.3196 48.1209 36.4398C48.2635 37.1128 48.3845 37.7859 48.5261 38.4599C48.53 38.4787 48.5319 38.4954 48.5358 38.5132C48.5515 38.5644 48.5807 38.6147 48.6188 38.656C48.7243 38.7654 48.8795 38.7901 49.0093 38.7339C49.0269 38.724 49.0445 38.7132 49.063 38.7033C49.8381 38.2629 50.6211 37.4223 50.872 36.6724C51.5485 36.7403 52.227 36.8517 52.9035 36.9069C52.9054 36.9079 52.9064 36.9089 52.9093 36.9079C52.9093 36.9098 52.9084 36.9098 52.9084 36.9098C52.9084 36.9098 52.9093 36.9098 52.9093 36.9079C52.9386 36.9108 52.9689 36.9138 52.9982 36.9167C52.9992 36.9167 52.9992 36.9167 53.0001 36.9158C52.9992 36.9167 52.9992 36.9167 52.9972 36.9158C53.0001 36.9158 53.0021 36.9148 53.004 36.9148C53.0831 36.9108 53.1632 36.8783 53.2237 36.8182" fill="white"/>
<path fill-rule="evenodd" clip-rule="evenodd" d="M41.909 45.6889C41.8416 45.7008 41.7714 45.7205 41.704 45.7313C35.2804 46.7059 30.1044 42.2557 30.1884 36.0306C30.2411 32.1115 32.2346 29.3927 34.9573 27.6465C35.0266 27.6022 35.0979 27.5618 35.1672 27.5184C35.2531 27.4287 35.3068 27.3075 35.3068 27.1725C35.3068 26.9754 35.1916 26.8089 35.0276 26.7251C34.9417 26.7123 34.8518 26.6887 34.7669 26.6758C27.1113 25.6037 21.2891 31.4552 20.9572 38.1267C20.6204 44.8976 26.0394 50.4979 32.1496 50.9394C36.6715 51.2665 40.0737 49.4188 42.2507 46.5551C42.2643 46.5354 42.278 46.5187 42.2917 46.499C42.3581 46.4142 42.4039 46.3108 42.4039 46.1935C42.4039 45.9156 42.1833 45.6919 41.909 45.6889" fill="white"/>
<path fill-rule="evenodd" clip-rule="evenodd" d="M40.1376 34.4607C40.1952 34.4154 40.2293 34.3514 40.2372 34.2843C40.2372 34.2843 40.2372 34.2834 40.2372 34.2824C40.2381 34.2745 40.2391 34.2666 40.2391 34.2587V34.2558C40.2391 34.2489 40.2391 34.2439 40.2391 34.2361C40.2391 34.2282 40.2381 34.2203 40.2362 34.2114C40.1776 33.5985 39.999 32.9412 39.4201 32.3174C39.6768 31.8611 39.9755 31.4098 40.2254 30.9516C40.2333 30.9378 40.2401 30.926 40.2469 30.9122C40.284 30.8254 40.2752 30.723 40.2137 30.6441C40.1844 30.6057 40.1483 30.5791 40.1093 30.5613C40.0819 30.5544 40.0556 30.5485 40.0302 30.5416C39.3839 30.3869 38.7152 30.4185 38.0094 30.7427C37.6736 30.3396 37.3319 29.9671 36.9961 29.566C36.9814 29.5493 36.9678 29.5325 36.9531 29.5148C36.8604 29.4281 36.7179 29.4202 36.6144 29.501C36.6017 29.5099 36.5919 29.5207 36.5812 29.5325C36.5665 29.5532 36.5529 29.5749 36.5382 29.5966C36.1311 30.2224 36.0511 30.9496 36.0628 31.6276C35.5962 31.8247 35.1285 32.0287 34.6609 32.2287C34.6463 32.2346 34.6326 32.2405 34.618 32.2474C34.6043 32.2543 34.5926 32.2632 34.5799 32.2721C34.4755 32.3548 34.4481 32.5007 34.5135 32.614C34.5321 32.6387 34.5526 32.6623 34.5721 32.686C35.0934 33.2999 35.7289 33.5847 36.3225 33.7433C36.3742 34.2636 36.4103 34.781 36.4601 35.3013C36.4621 35.3151 36.4621 35.3279 36.464 35.3407C36.4709 35.3811 36.4884 35.4215 36.5138 35.456C36.5841 35.5477 36.6993 35.5792 36.8018 35.5487C36.8155 35.5418 36.8301 35.5359 36.8448 35.529C37.4656 35.2629 38.1256 34.6963 38.3774 34.1513C38.8812 34.2607 39.3839 34.4016 39.8896 34.5002C39.8906 34.5011 39.8916 34.5021 39.8935 34.5021C39.8925 34.5021 39.8916 34.5031 39.8916 34.5031C39.8916 34.5031 39.8925 34.5021 39.8935 34.5021C39.915 34.5061 39.9375 34.511 39.9589 34.5159C39.9599 34.5159 39.9599 34.5159 39.9609 34.5149C39.9599 34.5159 39.9599 34.5159 39.9589 34.5149H39.9638C40.0243 34.5189 40.0868 34.5002 40.1376 34.4607" fill="white"/>
<path fill-rule="evenodd" clip-rule="evenodd" d="M16.5113 48.3817C16.4771 48.2703 16.401 48.1836 16.3053 48.1334H16.3034C16.2916 48.1265 16.2809 48.1215 16.2692 48.1176C16.2682 48.1156 16.2653 48.1156 16.2643 48.1156C16.2545 48.1117 16.2467 48.1087 16.236 48.1048C16.2243 48.1008 16.2116 48.0969 16.1979 48.0949C15.2598 47.8417 14.1879 47.7451 12.9442 48.2703C12.4121 47.6288 11.9123 46.9282 11.3744 46.2975C11.3588 46.2778 11.3431 46.261 11.3265 46.2413C11.2201 46.1388 11.063 46.0955 10.9126 46.1437C10.8404 46.1644 10.7808 46.2048 10.733 46.2551C10.7076 46.2916 10.6832 46.327 10.6588 46.3645C10.0721 47.2504 9.74603 48.2743 9.83291 49.5169C9.049 49.7997 8.30999 50.1062 7.52901 50.389C7.49582 50.4018 7.46263 50.4127 7.42944 50.4245C7.25079 50.5161 7.15707 50.728 7.21857 50.9281C7.22638 50.9507 7.23614 50.9744 7.24688 50.9931C7.26933 51.0286 7.29374 51.0621 7.31815 51.0956C8.0181 52.0574 9.04705 52.5826 10.0565 52.9423C10.0867 53.7543 10.1297 54.5732 10.1648 55.3872C10.1658 55.4128 10.1658 55.4374 10.1678 55.4631C10.1707 55.4867 10.1756 55.5094 10.1834 55.534C10.2459 55.738 10.4479 55.8592 10.651 55.8247C10.6979 55.8089 10.7447 55.7922 10.7906 55.7754C11.9894 55.332 12.7616 54.5348 13.3288 53.7287C14.1244 53.9406 14.9103 54.1751 15.7059 54.3889C15.7264 54.3939 15.7469 54.3998 15.7674 54.4047C15.8318 54.4165 15.9002 54.4136 15.9666 54.3929C16.1394 54.3387 16.2516 54.183 16.2614 54.0115C16.2604 53.9859 16.2594 53.9612 16.2585 53.9366C16.2096 52.8526 15.7401 51.544 15.0753 50.8611C15.5165 50.1624 16.0027 49.4844 16.4322 48.7778C16.4332 48.7768 16.4351 48.7759 16.4371 48.7719C16.4361 48.7739 16.4361 48.7749 16.4361 48.7749C16.4361 48.7749 16.4371 48.7739 16.4371 48.7719C16.4556 48.7414 16.4732 48.7128 16.4927 48.6822C16.4927 48.6803 16.4927 48.6803 16.4937 48.6783C16.4927 48.6803 16.4927 48.6803 16.4918 48.6822C16.4927 48.6793 16.4937 48.6763 16.4957 48.6744C16.5328 48.5847 16.5416 48.4822 16.5113 48.3817" fill="white"/>
<path fill-rule="evenodd" clip-rule="evenodd" d="M31.0161 13.9332C30.9565 13.8317 30.8628 13.7657 30.7583 13.7391C30.7583 13.7391 30.7574 13.7391 30.7564 13.7391C30.7437 13.7352 30.732 13.7332 30.7203 13.7312C30.7183 13.7312 30.7154 13.7302 30.7144 13.7302C30.7047 13.7292 30.6959 13.7283 30.6851 13.7263C30.6724 13.7253 30.6597 13.7253 30.6461 13.7253C29.6747 13.6987 28.6097 13.8544 27.5202 14.6556C26.8554 14.155 26.2081 13.5903 25.5404 13.1015C25.5219 13.0867 25.5023 13.0729 25.4828 13.0591C25.3549 12.9833 25.1919 12.9774 25.0572 13.0591C24.9918 13.0976 24.942 13.1508 24.9068 13.2109C24.8912 13.2513 24.8756 13.2917 24.86 13.3341C24.491 14.3314 24.409 15.4045 24.778 16.5939C24.08 17.0512 23.4308 17.5212 22.7357 17.9785C22.7064 17.9992 22.6771 18.0179 22.6469 18.0366C22.4936 18.1677 22.4516 18.3953 22.557 18.5747C22.5697 18.5963 22.5844 18.616 22.599 18.6338C22.6293 18.6614 22.6605 18.689 22.6927 18.7156C23.5928 19.4882 24.7145 19.7592 25.7786 19.8745C25.9943 20.6569 26.2228 21.4443 26.4434 22.2277C26.4502 22.2523 26.4561 22.276 26.4639 22.3006C26.4717 22.3233 26.4815 22.345 26.4942 22.3666C26.6025 22.5509 26.8261 22.6209 27.0165 22.5401C27.0584 22.5145 27.1004 22.4869 27.1414 22.4593C28.2055 21.7497 28.7756 20.7929 29.1427 19.8764C29.9647 19.8971 30.7837 19.9425 31.6067 19.9641C31.6282 19.9651 31.6487 19.9661 31.6701 19.9661C31.7346 19.9631 31.8019 19.9444 31.8615 19.908C32.0157 19.8153 32.0899 19.6379 32.0597 19.4685C32.0528 19.4448 32.047 19.4202 32.0401 19.3955C31.7453 18.3529 30.9887 17.1891 30.1853 16.6797C30.4557 15.8972 30.774 15.1236 31.0297 14.3373C31.0307 14.3353 31.0327 14.3333 31.0336 14.3304C31.0327 14.3314 31.0336 14.3333 31.0336 14.3333V14.3304C31.0444 14.2959 31.0551 14.2634 31.0668 14.2289C31.0659 14.2269 31.0668 14.2269 31.0668 14.2249C31.0668 14.2269 31.0659 14.2269 31.0659 14.2289C31.0659 14.2259 31.0659 14.2239 31.0678 14.221C31.0834 14.1254 31.0688 14.0229 31.0161 13.9332" fill="white"/>
<path fill-rule="evenodd" clip-rule="evenodd" d="M27.3489 59.6825C27.3586 59.5948 27.3313 59.5101 27.2796 59.447C27.2796 59.447 27.2796 59.446 27.2786 59.445C27.2727 59.4371 27.2669 59.4293 27.26 59.4234C27.26 59.4234 27.2581 59.4214 27.2571 59.4214C27.2513 59.4155 27.2474 59.4115 27.2415 59.4046C27.2337 59.3987 27.2259 59.3928 27.2171 59.3859C26.6401 58.9237 25.9236 58.5286 24.9005 58.5148C24.7228 57.9048 24.5842 57.2652 24.3997 56.6621C24.3948 56.6434 24.389 56.6257 24.3831 56.6089C24.3401 56.5035 24.2435 56.4256 24.1244 56.4138C24.0688 56.4069 24.0141 56.4168 23.9653 56.4365C23.9379 56.4542 23.9106 56.471 23.8823 56.4897C23.2077 56.9262 22.6737 57.5392 22.3623 58.431C21.7317 58.3877 21.1254 58.3758 20.4967 58.3344C20.4704 58.3325 20.444 58.3305 20.4177 58.3285C20.2654 58.3374 20.1365 58.4556 20.1199 58.6133C20.118 58.633 20.118 58.6518 20.1189 58.6695C20.1248 58.7 20.1316 58.7306 20.1385 58.7611C20.3376 59.6441 20.895 60.324 21.4905 60.8828C21.2679 61.4583 21.0522 62.0407 20.8326 62.6162C20.8247 62.6349 20.8179 62.6526 20.8121 62.6704C20.8072 62.6881 20.8023 62.7049 20.8013 62.7256C20.7828 62.8862 20.8872 63.032 21.0395 63.0715C21.0766 63.0734 21.1147 63.0764 21.1508 63.0784C22.1182 63.1365 22.8953 62.8182 23.5308 62.4299C24.0209 62.8212 24.4983 63.2232 24.9874 63.6154C25.0001 63.6253 25.0128 63.6361 25.0255 63.646C25.0665 63.6736 25.1153 63.6923 25.168 63.6982C25.3037 63.713 25.4286 63.6391 25.4862 63.5228C25.4931 63.506 25.5009 63.4863 25.5077 63.4696C25.7986 62.7019 25.865 61.6465 25.6063 60.9675C26.1237 60.6167 26.6645 60.2935 27.1751 59.9338C27.1761 59.9338 27.178 59.9328 27.18 59.9318L27.179 59.9338L27.18 59.9318C27.2024 59.9151 27.2239 59.9013 27.2464 59.8855C27.2474 59.8836 27.2474 59.8836 27.2474 59.8836C27.2474 59.8836 27.2474 59.8836 27.2464 59.8845C27.2474 59.8836 27.2483 59.8816 27.2503 59.8806C27.304 59.8294 27.3401 59.7604 27.3489 59.6825" fill="white"/>
<path fill-rule="evenodd" clip-rule="evenodd" d="M29.4782 54.8091C29.5055 54.7647 29.5123 54.7135 29.5006 54.6652V54.6652C29.4987 54.6593 29.4977 54.6544 29.4967 54.6484L29.4957 54.6465C29.4938 54.6415 29.4928 54.6386 29.4909 54.6337C29.4879 54.6287 29.486 54.6228 29.4831 54.6179C29.2927 54.2227 29.0125 53.8286 28.4707 53.5546C28.5312 53.1851 28.6201 52.8096 28.6738 52.4411C28.6757 52.4292 28.6777 52.4194 28.6796 52.4076C28.6825 52.3405 28.6513 52.2755 28.5908 52.2371C28.5625 52.2193 28.5312 52.2105 28.501 52.2085C28.4814 52.2105 28.4619 52.2124 28.4424 52.2154C27.9728 52.2735 27.5335 52.4618 27.1421 52.8559C26.8179 52.6697 26.4977 52.5061 26.1746 52.3228C26.1609 52.3149 26.1463 52.3061 26.1336 52.2982C26.0497 52.2647 25.952 52.2942 25.9022 52.3731C25.8974 52.3829 25.8925 52.3928 25.8886 52.4026C25.8837 52.4204 25.8798 52.4391 25.8759 52.4568C25.7578 52.9781 25.8817 53.4837 26.0565 53.934C25.7929 54.1823 25.5303 54.4366 25.2667 54.6869C25.2589 54.6957 25.2511 54.7026 25.2433 54.7105C25.2355 54.7184 25.2296 54.7273 25.2238 54.7371C25.173 54.8179 25.1915 54.9224 25.2628 54.9825C25.2814 54.9924 25.3009 55.0042 25.3194 55.016C25.8193 55.2949 26.3142 55.3274 26.7506 55.285C26.9126 55.6191 27.063 55.9571 27.225 56.2922C27.2289 56.301 27.2328 56.3089 27.2377 56.3168C27.2514 56.3434 27.2729 56.3651 27.2992 56.3828C27.3685 56.4252 27.4535 56.4183 27.514 56.371C27.5218 56.3631 27.5296 56.3552 27.5384 56.3473C27.8879 56.0153 28.1895 55.4703 28.2257 55.0426C28.5888 54.9904 28.9598 54.9579 29.321 54.8987H29.3249H29.3239H29.3249C29.3405 54.8948 29.3561 54.8928 29.3727 54.8909L29.3737 54.8899C29.3727 54.8909 29.3727 54.8909 29.3718 54.8909C29.3737 54.8899 29.3747 54.8889 29.3747 54.8889C29.4167 54.8761 29.4538 54.8485 29.4782 54.8091" fill="white"/>
<path fill-rule="evenodd" clip-rule="evenodd" d="M49.7295 48.1796C49.6846 48.147 49.6309 48.1362 49.5801 48.1451C49.5801 48.1451 49.5791 48.1451 49.5782 48.146C49.5723 48.147 49.5664 48.148 49.5616 48.149L49.5586 48.15C49.5537 48.151 49.5498 48.1529 49.545 48.1549C49.5401 48.1569 49.5332 48.1589 49.5274 48.1598C49.0988 48.3412 48.6634 48.6171 48.3413 49.1827C47.9537 49.094 47.5622 48.9748 47.1757 48.893C47.1639 48.8901 47.1532 48.8881 47.1425 48.8841C47.0712 48.8763 46.999 48.9068 46.956 48.9689C46.9345 48.9985 46.9238 49.03 46.9199 49.0645C46.9199 49.0862 46.9218 49.1059 46.9228 49.1275C46.954 49.637 47.1259 50.1219 47.5154 50.5702C47.2987 50.9063 47.1054 51.2393 46.8896 51.5764C46.8818 51.5911 46.872 51.6049 46.8633 51.6187C46.8203 51.7074 46.8467 51.8139 46.9277 51.872C46.9375 51.8789 46.9472 51.8848 46.958 51.8888C46.9755 51.8947 46.995 51.9016 47.0136 51.9055C47.5564 52.0671 48.0992 51.9656 48.5863 51.807C48.8313 52.1065 49.0832 52.4051 49.3302 52.7047C49.339 52.7146 49.3458 52.7224 49.3546 52.7313C49.3624 52.7412 49.3712 52.7481 49.381 52.755C49.463 52.8141 49.5742 52.8003 49.6426 52.7274C49.6553 52.7086 49.6689 52.6879 49.6816 52.6682C50.0096 52.1479 50.0741 51.6178 50.0575 51.1457C50.4216 50.993 50.7867 50.8511 51.1509 50.6993C51.1616 50.6954 51.1704 50.6914 51.1801 50.6875C51.2075 50.6737 51.2329 50.653 51.2514 50.6244C51.3022 50.5535 51.3002 50.4618 51.2543 50.3929C51.2465 50.384 51.2397 50.3761 51.2309 50.3662C50.9019 49.9671 50.3455 49.6075 49.8964 49.5424C49.8632 49.1473 49.8534 48.7472 49.8124 48.353C49.8144 48.352 49.8144 48.351 49.8134 48.349C49.8134 48.35 49.8144 48.351 49.8144 48.351C49.8144 48.351 49.8134 48.35 49.8134 48.349C49.8115 48.3323 49.8105 48.3155 49.8085 48.2978C49.8085 48.2968 49.8085 48.2968 49.8076 48.2968C49.8085 48.2968 49.8085 48.2968 49.8085 48.2988C49.8076 48.2968 49.8076 48.2958 49.8076 48.2948C49.7958 48.2485 49.7705 48.2081 49.7295 48.1796" fill="white"/>
<path fill-rule="evenodd" clip-rule="evenodd" d="M50.9181 40.2382C50.8469 40.2165 50.7737 40.2244 50.7122 40.2579H50.7112C50.7034 40.2628 50.6965 40.2668 50.6917 40.2707C50.6897 40.2707 50.6878 40.2727 50.6878 40.2727C50.6829 40.2766 50.679 40.2796 50.6731 40.2835C50.6663 40.2904 50.6594 40.2963 50.6536 40.3013C50.184 40.7092 49.7437 41.2443 49.568 42.0958C49.0399 42.146 48.4932 42.1588 47.968 42.217C47.9533 42.217 47.9377 42.2199 47.9231 42.2219C47.8303 42.2396 47.7513 42.3096 47.722 42.4052C47.7073 42.4515 47.7054 42.4988 47.7151 42.5422C47.7249 42.5688 47.7347 42.5944 47.7454 42.621C47.9943 43.2546 48.4122 43.7966 49.0916 44.2026C48.9559 44.721 48.8476 45.2255 48.7138 45.7429C48.707 45.7646 48.7021 45.7862 48.6962 45.8089C48.6777 45.938 48.7548 46.0631 48.8817 46.1035C48.8974 46.1075 48.912 46.1104 48.9266 46.1134C48.954 46.1124 48.9794 46.1124 49.0067 46.1104C49.7603 46.0858 50.4076 45.7291 50.9611 45.3231C51.3965 45.6 51.8397 45.8739 52.2771 46.1499C52.2907 46.1587 52.3024 46.1686 52.3171 46.1755C52.3308 46.1834 52.3454 46.1893 52.36 46.1932C52.4889 46.2346 52.6256 46.1715 52.6812 46.0484C52.691 46.0198 52.6978 45.9873 52.7046 45.9587C52.9077 45.1595 52.772 44.4598 52.5572 43.8686C52.9555 43.5197 53.3607 43.1857 53.7609 42.8407C53.7717 42.8319 53.7824 42.823 53.7922 42.8132C53.8205 42.7846 53.8439 42.7461 53.8576 42.7048C53.8917 42.5944 53.8498 42.4761 53.7658 42.4091C53.7521 42.4012 53.7375 42.3924 53.7258 42.3845C53.142 42.0189 52.2888 41.7932 51.6913 41.9006C51.4863 41.4119 51.3086 40.9083 51.0958 40.4225C51.0958 40.4225 51.0948 40.4215 51.0939 40.4205C51.0948 40.4195 51.0958 40.4215 51.0958 40.4215C51.0958 40.4215 51.0948 40.4195 51.0939 40.4205C51.0851 40.3978 51.0753 40.3771 51.0675 40.3555H51.0656V40.3574C51.0656 40.3555 51.0646 40.3555 51.0626 40.3515C51.0304 40.2993 50.9806 40.2579 50.9181 40.2382" fill="white"/>
<path fill-rule="evenodd" clip-rule="evenodd" d="M49.6605 24.3818C49.68 24.3128 49.6693 24.2429 49.6371 24.1837C49.6371 24.1837 49.6361 24.1837 49.6351 24.1827C49.6312 24.1758 49.6273 24.1699 49.6224 24.163C49.6234 24.163 49.6214 24.1611 49.6224 24.1601C49.6175 24.1552 49.6146 24.1512 49.6107 24.1453C49.6058 24.1404 49.6 24.1345 49.5951 24.1285C49.1929 23.6802 48.6735 23.2692 47.8574 23.1195C47.7959 22.608 47.7695 22.0778 47.7022 21.5713C47.7002 21.5556 47.6983 21.5408 47.6963 21.527C47.6748 21.4373 47.6094 21.3624 47.5157 21.3348C47.4708 21.322 47.4269 21.323 47.3849 21.3319C47.3605 21.3417 47.3361 21.3535 47.3117 21.3634C46.7142 21.6226 46.2076 22.0394 45.8386 22.7105C45.3426 22.5913 44.8584 22.4996 44.3625 22.3814C44.342 22.3774 44.3205 22.3715 44.299 22.3666C44.176 22.3528 44.0589 22.4306 44.0247 22.5538C44.0198 22.5696 44.0179 22.5844 44.0159 22.5982C44.0169 22.6238 44.0179 22.6494 44.0198 22.675C44.0608 23.4072 44.4181 24.0261 44.8184 24.5523C44.5656 24.9819 44.3156 25.4185 44.0638 25.8501C44.056 25.8629 44.0482 25.8767 44.0413 25.8895C44.0345 25.9033 44.0296 25.9171 44.0247 25.9319C43.9896 26.058 44.054 26.1891 44.1702 26.2403C44.1995 26.2482 44.2288 26.2541 44.258 26.262C45.0224 26.4374 45.6872 26.2876 46.2456 26.064C46.5873 26.4424 46.9134 26.8277 47.2541 27.2071C47.2629 27.2179 47.2707 27.2268 47.2795 27.2366C47.3088 27.2642 47.3449 27.2859 47.3859 27.2977C47.4933 27.3283 47.6026 27.2859 47.6651 27.2002C47.6719 27.1874 47.6797 27.1736 47.6875 27.1607C48.0224 26.5862 48.2137 25.7516 48.0975 25.1751C48.5574 24.9642 49.0328 24.7789 49.4877 24.5602C49.4897 24.5592 49.4906 24.5592 49.4926 24.5582L49.4916 24.5602L49.4926 24.5582C49.5121 24.5493 49.5326 24.5395 49.5521 24.5306L49.5531 24.5286L49.5512 24.5296C49.5531 24.5286 49.5541 24.5276 49.5551 24.5276C49.6048 24.4941 49.6429 24.4429 49.6605 24.3818" fill="white"/>
<path fill-rule="evenodd" clip-rule="evenodd" d="M15.8759 19.8504C15.8973 19.8977 15.9374 19.9302 15.9832 19.947C15.9901 19.949 15.995 19.9509 15.9998 19.9529H16.0018C16.0077 19.9539 16.0096 19.9549 16.0155 19.9549C16.0203 19.9559 16.0262 19.9559 16.033 19.9569C16.4655 20.0061 16.9458 19.9785 17.4632 19.6642C17.7405 19.9135 18.0079 20.1904 18.2872 20.4348C18.2959 20.4417 18.3037 20.4486 18.3116 20.4555C18.3662 20.4949 18.4385 20.5038 18.5019 20.4722C18.5322 20.4575 18.5556 20.4358 18.5742 20.4102C18.5829 20.3924 18.5917 20.3757 18.5995 20.3579C18.8026 19.9263 18.8797 19.4503 18.7616 18.9054C19.0896 18.729 19.3981 18.5437 19.7251 18.3673C19.7398 18.3595 19.7534 18.3516 19.7671 18.3447C19.8413 18.2915 19.8677 18.1919 19.8276 18.1072C19.8237 18.0983 19.8169 18.0885 19.811 18.0806C19.7993 18.0668 19.7857 18.053 19.773 18.0402C19.4001 17.6598 18.91 17.4952 18.4394 17.4026C18.374 17.0449 18.3018 16.6852 18.2335 16.3255C18.2305 16.3157 18.2286 16.3038 18.2266 16.294C18.2237 16.2831 18.2198 16.2733 18.2149 16.2624C18.1739 16.1757 18.0763 16.1353 17.9884 16.1649C17.9699 16.1747 17.9494 16.1856 17.9299 16.1954C17.429 16.4714 17.1372 16.8754 16.939 17.2705C16.5719 17.2292 16.2088 17.1779 15.8417 17.1355C15.8329 17.1355 15.8231 17.1336 15.8144 17.1326C15.7851 17.1316 15.7548 17.1375 15.7265 17.1503C15.6533 17.1868 15.6142 17.2627 15.6211 17.3395C15.623 17.3504 15.625 17.3612 15.6269 17.372C15.7187 17.849 16.0125 18.3979 16.3503 18.658C16.2009 18.996 16.0291 19.3281 15.8847 19.6691C15.8837 19.6701 15.8837 19.6711 15.8827 19.6721C15.8768 19.6868 15.871 19.7016 15.8632 19.7174C15.8632 19.7174 15.8641 19.7174 15.8641 19.7184C15.8641 19.7174 15.8641 19.7174 15.8641 19.7164C15.8641 19.7184 15.8632 19.7194 15.8632 19.7194C15.8524 19.7617 15.8554 19.8081 15.8759 19.8504Z" fill="white"/>
<path fill-rule="evenodd" clip-rule="evenodd" d="M10.9223 27.0674C10.9906 27.1225 11.0746 27.1452 11.1566 27.1354C11.1566 27.1354 11.1566 27.1354 11.1576 27.1344C11.1673 27.1334 11.1771 27.1324 11.1859 27.1304C11.1869 27.1304 11.1898 27.1294 11.1898 27.1285C11.1976 27.1275 11.2035 27.1265 11.2123 27.1245C11.222 27.1216 11.2298 27.1186 11.2406 27.1137C11.9356 26.8693 12.6502 26.4702 13.2106 25.6059C13.8159 25.7814 14.425 26.006 15.0283 26.1726C15.0469 26.1775 15.0645 26.1824 15.082 26.1864C15.1933 26.2061 15.3095 26.1657 15.3847 26.0711C15.4198 26.0257 15.4403 25.9745 15.4501 25.9223C15.4501 25.8898 15.4501 25.8562 15.451 25.8227C15.4462 25.0147 15.2187 24.2313 14.6408 23.4863C15.0147 22.9738 15.3495 22.4624 15.7205 21.95C15.7361 21.9273 15.7517 21.9066 15.7683 21.8849C15.8425 21.7499 15.8122 21.5775 15.6892 21.4779C15.6746 21.4661 15.659 21.4563 15.6434 21.4484C15.615 21.4365 15.5848 21.4257 15.5555 21.4149C14.7101 21.1114 13.8432 21.2227 13.0563 21.4306C12.6942 20.933 12.3232 20.4373 11.9581 19.9406C11.9474 19.9249 11.9366 19.9091 11.9249 19.8943C11.9132 19.8815 11.8995 19.8677 11.8849 19.8559C11.7589 19.7544 11.5822 19.7662 11.469 19.8746C11.4465 19.9042 11.4231 19.9357 11.4016 19.9653C10.8345 20.7586 10.6851 21.5913 10.6695 22.3412C10.0798 22.5491 9.48725 22.7403 8.89761 22.9472C8.88199 22.9531 8.86637 22.9581 8.85075 22.964C8.80682 22.9837 8.76484 23.0152 8.73165 23.0566C8.64672 23.165 8.64184 23.3109 8.70725 23.4222C8.71799 23.438 8.7297 23.4537 8.74142 23.4695C9.22758 24.1288 10.0749 24.7506 10.7808 24.8935C10.7974 25.5222 10.7769 26.1568 10.8052 26.7845C10.8042 26.7855 10.8042 26.7875 10.8042 26.7895L10.8032 26.7885C10.8032 26.7885 10.8032 26.7895 10.8042 26.7895C10.8052 26.818 10.8061 26.8446 10.8071 26.8713C10.8081 26.8732 10.8081 26.8732 10.8091 26.8742C10.8081 26.8732 10.8081 26.8732 10.8081 26.8713C10.8091 26.8732 10.8091 26.8762 10.8091 26.8782C10.8227 26.9501 10.8608 27.0181 10.9223 27.0674" fill="white"/>
<path opacity="0.6" fill-rule="evenodd" clip-rule="evenodd" d="M7.66565 37.9887C7.77011 38.0153 7.87749 37.9956 7.9634 37.9433C7.9634 37.9433 7.96437 37.9414 7.96535 37.9404C7.97609 37.9335 7.98585 37.9276 7.99464 37.9197C7.99561 37.9197 7.99854 37.9187 7.99854 37.9187C8.00635 37.9118 8.01221 37.9059 8.021 37.9C8.02881 37.8921 8.03759 37.8842 8.04638 37.8744C8.70533 37.2309 9.30278 36.4051 9.48924 35.1348C10.2614 35.0126 11.0649 34.9456 11.8312 34.8126C11.8537 34.8096 11.8751 34.8067 11.8986 34.8027C12.0333 34.7653 12.1436 34.6589 12.1797 34.513C12.1963 34.4431 12.1934 34.3751 12.1778 34.311C12.1602 34.2726 12.1426 34.2361 12.1251 34.1996C11.7024 33.2891 11.0414 32.5264 10.0047 31.9913C10.1599 31.2167 10.2732 30.4638 10.4274 29.6893C10.4323 29.6558 10.4401 29.6242 10.4459 29.5917C10.4606 29.3996 10.3356 29.2222 10.1472 29.1759C10.1238 29.17 10.1013 29.167 10.0789 29.166C10.0408 29.167 10.0018 29.1709 9.96369 29.1749C8.85372 29.2764 7.93314 29.8617 7.15508 30.5082C6.48929 30.1386 5.81472 29.776 5.146 29.4074C5.1255 29.3966 5.10402 29.3858 5.08352 29.3749C5.06205 29.3651 5.04252 29.3582 5.01812 29.3523C4.82482 29.304 4.63055 29.4094 4.55831 29.5917C4.54855 29.638 4.53879 29.6844 4.53 29.7307C4.30254 30.9211 4.56515 31.941 4.93514 32.7934C4.37673 33.3423 3.80857 33.8666 3.25016 34.4125C3.23552 34.4273 3.22185 34.4401 3.20721 34.4539C3.16621 34.5012 3.13497 34.5583 3.11935 34.6224C3.07932 34.7909 3.14961 34.9565 3.28238 35.0491C3.30288 35.0599 3.32241 35.0708 3.34388 35.0816C4.23323 35.5694 5.51014 35.8227 6.37996 35.6138C6.72359 36.3124 7.03012 37.0397 7.38547 37.7315C7.38645 37.7344 7.38645 37.7354 7.3884 37.7384H7.38645H7.3884C7.40304 37.7689 7.41866 37.7995 7.43428 37.83H7.43623L7.43331 37.828C7.43623 37.83 7.43819 37.832 7.43916 37.834C7.49188 37.9088 7.56998 37.966 7.66565 37.9887" fill="white"/>
<path opacity="0.35" fill-rule="evenodd" clip-rule="evenodd" d="M18.8833 38.4582C18.8833 38.3696 18.8472 38.2897 18.7896 38.2316C18.7896 38.2316 18.7886 38.2306 18.7876 38.2306C18.7808 38.2227 18.774 38.2168 18.7671 38.2109C18.7671 38.2109 18.7642 38.2089 18.7642 38.2079C18.7574 38.203 18.7535 38.1991 18.7457 38.1941C18.7379 38.1892 18.73 38.1833 18.7213 38.1784C18.0965 37.7822 17.3428 37.4679 16.3227 37.5644C16.0806 36.9781 15.8746 36.3563 15.6256 35.7769C15.6188 35.7591 15.611 35.7434 15.6051 35.7266C15.5495 35.6261 15.446 35.5601 15.3259 35.5601C15.2683 35.5601 15.2166 35.5748 15.1697 35.6005C15.1434 35.6212 15.119 35.6409 15.0926 35.6625C14.4688 36.17 14.0041 36.8382 13.7884 37.7596C13.1577 37.7852 12.5534 37.8394 11.9238 37.866C11.8974 37.868 11.8711 37.8689 11.8447 37.8699C11.6934 37.8956 11.5792 38.0276 11.5792 38.1863C11.5792 38.205 11.5821 38.2237 11.585 38.2414C11.5928 38.271 11.6036 38.3006 11.6143 38.3311C11.9052 39.1865 12.5349 39.8014 13.1851 40.2921C13.025 40.8893 12.8736 41.4914 12.7165 42.0906C12.7126 42.1083 12.7077 42.127 12.7028 42.1448C12.6989 42.1635 12.6989 42.1803 12.6989 42.2C12.6989 42.3626 12.817 42.4966 12.9722 42.5173C13.0093 42.5173 13.0474 42.5153 13.0845 42.5133C14.051 42.465 14.791 42.063 15.3816 41.6077C15.9117 41.9437 16.4271 42.2926 16.9572 42.6267C16.9719 42.6365 16.9845 42.6454 16.9982 42.6542C17.0421 42.6769 17.0919 42.6907 17.1446 42.6907C17.2823 42.6907 17.3985 42.604 17.4434 42.4808C17.4483 42.4631 17.4531 42.4443 17.458 42.4256C17.665 41.6304 17.6171 40.573 17.2882 39.9265C17.7646 39.5215 18.2693 39.1412 18.7369 38.7273C18.7398 38.7273 18.7408 38.7263 18.7418 38.7243V38.7263V38.7243C18.7623 38.7066 18.7828 38.6888 18.8033 38.6711V38.6691C18.8033 38.6701 18.8033 38.6701 18.8033 38.6711C18.8033 38.6691 18.8052 38.6672 18.8062 38.6652C18.855 38.61 18.8833 38.5371 18.8833 38.4582" fill="white"/>
<path opacity="0.35" fill-rule="evenodd" clip-rule="evenodd" d="M18.6577 59.3271C18.685 59.2828 18.6918 59.2316 18.6801 59.1833V59.1833C18.6782 59.1774 18.6772 59.1714 18.6762 59.1665L18.6752 59.1645C18.6733 59.1596 18.6723 59.1567 18.6704 59.1517C18.6674 59.1458 18.6655 59.1419 18.6626 59.136C18.4722 58.7398 18.191 58.3456 17.6502 58.0746C17.7107 57.7051 17.7996 57.3277 17.8533 56.9581C17.8552 56.9483 17.8572 56.9365 17.8591 56.9266C17.862 56.8596 17.8308 56.7926 17.7703 56.7561C17.742 56.7374 17.7107 56.7285 17.6805 56.7266C17.6609 56.7285 17.6414 56.7305 17.6219 56.7335C17.1523 56.7916 16.713 56.9808 16.3206 57.374C15.9975 57.1887 15.6772 57.0242 15.3541 56.8409C15.3404 56.833 15.3258 56.8251 15.3131 56.8172C15.2292 56.7827 15.1315 56.8123 15.0817 56.8921C15.0769 56.901 15.072 56.9118 15.0681 56.9217C15.0632 56.9384 15.0583 56.9572 15.0554 56.9749C14.9363 57.4962 15.0612 58.0027 15.236 58.4531C14.9724 58.7014 14.7098 58.9546 14.4462 59.2059C14.4384 59.2138 14.4306 59.2217 14.4228 59.2286C14.415 59.2365 14.4082 59.2453 14.4033 59.2552C14.3525 59.337 14.3711 59.4405 14.4423 59.5006C14.4609 59.5114 14.4804 59.5232 14.4989 59.5331C14.9988 59.8139 15.4937 59.8445 15.9301 59.8021C16.0921 60.1372 16.2425 60.4742 16.4045 60.8102C16.4084 60.8191 16.4123 60.826 16.4172 60.8359C16.4309 60.8615 16.4524 60.8841 16.4787 60.8999C16.548 60.9442 16.633 60.9364 16.6935 60.89C16.7013 60.8822 16.7091 60.8743 16.7179 60.8664C17.0674 60.5333 17.3691 59.9884 17.4052 59.5607C17.7683 59.5085 18.1393 59.4759 18.5005 59.4158C18.5025 59.4168 18.5034 59.4168 18.5044 59.4158C18.5044 59.4168 18.5034 59.4178 18.5034 59.4178C18.5034 59.4178 18.5044 59.4168 18.5044 59.4158C18.52 59.4139 18.5356 59.4119 18.5522 59.4089V59.4079H18.5513C18.5532 59.4079 18.5542 59.4079 18.5542 59.407C18.5962 59.3942 18.6333 59.3666 18.6577 59.3271" fill="white"/>
<path opacity="0.35" fill-rule="evenodd" clip-rule="evenodd" d="M46.8402 54.2289C46.85 54.1402 46.8226 54.0565 46.7709 53.9924L46.7699 53.9914C46.7641 53.9835 46.7572 53.9757 46.7514 53.9698C46.7514 53.9688 46.7494 53.9668 46.7484 53.9668C46.7426 53.9619 46.7387 53.9579 46.7328 53.951C46.725 53.9441 46.7172 53.9382 46.7084 53.9323C46.1315 53.4701 45.4139 53.075 44.3918 53.0602C44.2142 52.4512 44.0755 51.8116 43.891 51.2076C43.8861 51.1898 43.8803 51.1721 43.8744 51.1553C43.8315 51.0489 43.7348 50.972 43.6157 50.9592C43.5601 50.9533 43.5054 50.9632 43.4566 50.9819C43.4293 51.0006 43.401 51.0174 43.3736 51.0361C42.699 51.4726 42.1651 52.0856 41.8536 52.9774C41.223 52.9341 40.6168 52.9222 39.9881 52.8799C39.9617 52.8779 39.9353 52.8759 39.909 52.8739C39.7567 52.8838 39.6278 53.002 39.6112 53.1597C39.6093 53.1784 39.6093 53.1972 39.6103 53.2149C39.6161 53.2455 39.623 53.276 39.6298 53.3066C39.8289 54.1905 40.3864 54.8695 40.9809 55.4282C40.7593 56.0037 40.5435 56.5871 40.3239 57.1626C40.3161 57.1813 40.3083 57.199 40.3034 57.2158C40.2985 57.2345 40.2936 57.2513 40.2917 57.272C40.2741 57.4326 40.3786 57.5775 40.5308 57.6169C40.5679 57.6198 40.606 57.6218 40.6421 57.6238C41.6096 57.6819 42.3867 57.3646 43.0222 56.9753C43.5122 57.3666 43.9896 57.7696 44.4787 58.1608C44.4914 58.1717 44.5041 58.1825 44.5168 58.1914C44.5578 58.219 44.6066 58.2377 44.6593 58.2436C44.795 58.2594 44.92 58.1845 44.9776 58.0682C44.9844 58.0514 44.9922 58.0327 44.999 58.015C45.29 57.2473 45.3554 56.1919 45.0976 55.5139C45.615 55.1621 46.1559 54.8399 46.6664 54.4802C46.6674 54.4792 46.6694 54.4792 46.6713 54.4773L46.6703 54.4792C46.6703 54.4792 46.6713 54.4782 46.6713 54.4773C46.6938 54.4615 46.7153 54.4467 46.7377 54.4309C46.7377 54.429 46.7387 54.429 46.7387 54.429C46.7387 54.429 46.7377 54.429 46.7377 54.4309C46.7387 54.429 46.7397 54.427 46.7416 54.427C46.7953 54.3748 46.8314 54.3068 46.8402 54.2289" fill="white"/>
<path opacity="0.35" fill-rule="evenodd" clip-rule="evenodd" d="M37.0584 38.4708C37.0204 38.4541 36.9784 38.455 36.9423 38.4698V38.4698C36.9374 38.4718 36.9335 38.4738 36.9306 38.4757C36.9296 38.4757 36.9286 38.4757 36.9286 38.4767C36.9247 38.4787 36.9228 38.4797 36.9188 38.4817C36.9149 38.4846 36.911 38.4876 36.9071 38.4905C36.6201 38.6896 36.3429 38.9616 36.1945 39.4267C35.8958 39.4227 35.5902 39.3961 35.2934 39.3971C35.2856 39.3961 35.2768 39.3971 35.268 39.3971C35.2153 39.4011 35.1675 39.4365 35.145 39.4878C35.1343 39.5134 35.1304 39.539 35.1333 39.5637C35.1363 39.5794 35.1411 39.5942 35.145 39.609C35.2475 39.9776 35.4477 40.3067 35.803 40.5737C35.6956 40.8556 35.6058 41.1305 35.5004 41.4114C35.4955 41.4232 35.4916 41.436 35.4867 41.4478C35.4691 41.5188 35.5043 41.5937 35.5726 41.6232C35.5814 41.6262 35.5892 41.6292 35.597 41.6311C35.6127 41.6321 35.6263 41.6341 35.6419 41.6351C36.0646 41.6666 36.4473 41.507 36.7802 41.3138C37.0067 41.4941 37.2381 41.6745 37.4655 41.8558C37.4733 41.8607 37.4792 41.8666 37.487 41.8716C37.4938 41.8765 37.5017 41.8804 37.5095 41.8844C37.5798 41.9149 37.6598 41.8883 37.6979 41.8223C37.7047 41.8075 37.7106 41.7898 37.7164 41.774C37.8775 41.3394 37.8433 40.9413 37.7584 40.5964C38.0015 40.4269 38.2475 40.2653 38.4916 40.0958C38.4984 40.0928 38.5042 40.0889 38.5111 40.084C38.5287 40.0692 38.5433 40.0495 38.554 40.0268C38.5794 39.9667 38.5638 39.8987 38.5199 39.8554C38.513 39.8504 38.5052 39.8445 38.4984 39.8406C38.1948 39.6001 37.7311 39.4227 37.3913 39.4454C37.3064 39.1606 37.2371 38.8679 37.1473 38.5851C37.1463 38.5851 37.1463 38.5841 37.1463 38.5841H37.1473L37.1463 38.5832C37.1424 38.5703 37.1385 38.5585 37.1356 38.5457C37.1346 38.5457 37.1346 38.5457 37.1346 38.5457V38.5467C37.1346 38.5457 37.1336 38.5447 37.1336 38.5437C37.118 38.5122 37.0926 38.4856 37.0584 38.4708" fill="white"/>
<path opacity="0.35" fill-rule="evenodd" clip-rule="evenodd" d="M20.1363 28.8658C20.1871 28.8983 20.2466 28.9072 20.3013 28.8954C20.3013 28.8954 20.3023 28.8944 20.3033 28.8934C20.3101 28.8924 20.3159 28.8904 20.3218 28.8895L20.3238 28.8885C20.3296 28.8865 20.3335 28.8855 20.3394 28.8826C20.3452 28.8796 20.3511 28.8776 20.3569 28.8737C20.8167 28.6539 21.2756 28.3268 21.5968 27.6912C22.0243 27.7661 22.4578 27.8745 22.8844 27.9424C22.8971 27.9444 22.9098 27.9464 22.9215 27.9493C22.9986 27.9533 23.0757 27.9168 23.1206 27.8469C23.1411 27.8134 23.1519 27.7769 23.1538 27.7404C23.1519 27.7178 23.1499 27.6941 23.146 27.6724C23.0845 27.1176 22.8707 26.5983 22.4197 26.1322C22.6374 25.7518 22.8297 25.3773 23.0465 24.997C23.0552 24.9812 23.064 24.9654 23.0738 24.9497C23.1138 24.8511 23.0806 24.7358 22.9889 24.6777C22.9781 24.6698 22.9664 24.6639 22.9557 24.6599C22.9352 24.654 22.9137 24.6491 22.8932 24.6442C22.2918 24.4993 21.7051 24.6412 21.1819 24.8423C20.8968 24.5289 20.6059 24.2175 20.3189 23.9031C20.3101 23.8952 20.3013 23.8854 20.2925 23.8755C20.2827 23.8667 20.274 23.8588 20.2622 23.8529C20.1695 23.7918 20.0485 23.8135 19.9782 23.8962C19.9655 23.9179 19.9518 23.9416 19.9391 23.9632C19.6101 24.5486 19.5691 25.132 19.614 25.6464C19.2235 25.8336 18.833 26.009 18.4435 26.1962C18.4338 26.2012 18.425 26.2051 18.4133 26.21C18.384 26.2268 18.3576 26.2524 18.3381 26.283C18.2873 26.3638 18.2961 26.4633 18.3488 26.5352C18.3576 26.5451 18.3664 26.554 18.3752 26.5648C18.7569 26.9797 19.3846 27.3413 19.8786 27.3876C19.9362 27.8163 19.9694 28.2529 20.0348 28.6805C20.0348 28.6825 20.0338 28.6835 20.0348 28.6845L20.0338 28.6835L20.0348 28.6845C20.0377 28.7032 20.0397 28.7219 20.0426 28.7416H20.0436V28.7397C20.0436 28.7416 20.0445 28.7426 20.0455 28.7446C20.0592 28.7929 20.0914 28.8372 20.1363 28.8658" fill="white"/>
<path opacity="0.35" fill-rule="evenodd" clip-rule="evenodd" d="M40.058 22.1767C40.0072 22.155 39.9526 22.156 39.9037 22.1757V22.1757C39.8969 22.1776 39.892 22.1806 39.8881 22.1826C39.8862 22.1826 39.8852 22.1836 39.8852 22.1845C39.8803 22.1865 39.8774 22.1885 39.8725 22.1905C39.8676 22.1954 39.8627 22.1983 39.8569 22.2023C39.4762 22.4664 39.1081 22.828 38.9109 23.4459C38.5146 23.44 38.1085 23.4055 37.715 23.4065C37.7033 23.4055 37.6926 23.4065 37.6809 23.4065C37.6106 23.4124 37.5471 23.4577 37.5169 23.5277C37.5032 23.5602 37.4973 23.5947 37.5012 23.6282C37.5061 23.6489 37.512 23.6676 37.5169 23.6883C37.6535 24.1771 37.9191 24.6146 38.3916 24.9684C38.249 25.3429 38.129 25.7075 37.9894 26.081C37.9825 26.0967 37.9767 26.1125 37.9708 26.1283C37.9474 26.2219 37.9952 26.3224 38.085 26.3628C38.0967 26.3658 38.1075 26.3697 38.1172 26.3727C38.1387 26.3746 38.1563 26.3766 38.1768 26.3776C38.7381 26.42 39.2467 26.2081 39.689 25.9509C39.9897 26.1913 40.2962 26.4298 40.5988 26.6703C40.6086 26.6772 40.6164 26.686 40.6271 26.6919C40.6359 26.6979 40.6467 26.7038 40.6574 26.7087C40.7492 26.7501 40.8556 26.7136 40.9063 26.6279C40.9161 26.6072 40.9239 26.5835 40.9317 26.5619C41.1455 25.9864 41.0996 25.4562 40.9874 24.9999C41.3095 24.7743 41.6375 24.5595 41.9607 24.3348C41.9694 24.3298 41.9773 24.3249 41.986 24.318C42.0095 24.2983 42.03 24.2717 42.0436 24.2421C42.0778 24.1623 42.0563 24.0726 41.9987 24.0155C41.989 24.0086 41.9792 24.0007 41.9704 23.9938C41.5663 23.6755 40.9512 23.44 40.5002 23.4715C40.387 23.0931 40.2952 22.7039 40.1761 22.3284C40.1751 22.3284 40.1751 22.3264 40.1742 22.3255C40.1751 22.3255 40.1761 22.3264 40.1761 22.3264C40.1761 22.3264 40.1751 22.3255 40.1742 22.3255C40.1693 22.3087 40.1644 22.2929 40.1595 22.2762C40.1585 22.2762 40.1585 22.2762 40.1585 22.2762V22.2782C40.1585 22.2762 40.1585 22.2752 40.1576 22.2732C40.1371 22.2318 40.1029 22.1964 40.058 22.1767" fill="white"/>
<path opacity="0.8" fill-rule="evenodd" clip-rule="evenodd" d="M23.9156 50.8642C23.9156 50.8041 23.8912 50.7489 23.8521 50.7085C23.8521 50.7085 23.8511 50.7085 23.8502 50.7075C23.8453 50.7026 23.8404 50.6986 23.8355 50.6937C23.8355 50.6927 23.8346 50.6927 23.8346 50.6917C23.8297 50.6888 23.8258 50.6858 23.8209 50.6829C23.816 50.6799 23.8101 50.676 23.8043 50.672C23.3738 50.3981 22.8544 50.1823 22.1515 50.2483C21.9846 49.8442 21.8421 49.4166 21.6712 49.0165C21.6663 49.0047 21.6615 48.9938 21.6566 48.982C21.6185 48.914 21.5472 48.8677 21.4643 48.8677C21.4252 48.8677 21.3891 48.8775 21.3569 48.8953C21.3393 48.9091 21.3217 48.9238 21.3042 48.9376C20.8736 49.2875 20.5544 49.7477 20.4051 50.3833C19.9706 50.4 19.5548 50.4375 19.1203 50.4562C19.1028 50.4582 19.0842 50.4582 19.0657 50.4592C18.9622 50.4769 18.8831 50.5676 18.8831 50.6779C18.8831 50.6898 18.8851 50.7026 18.887 50.7154C18.8929 50.7351 18.8997 50.7568 18.9075 50.7765C19.1077 51.3668 19.5421 51.7895 19.9892 52.1285C19.8798 52.5384 19.7754 52.9543 19.667 53.3662C19.6641 53.38 19.6612 53.3908 19.6573 53.4046C19.6553 53.4175 19.6543 53.4303 19.6543 53.4431C19.6543 53.5544 19.7363 53.6471 19.8437 53.6618C19.8691 53.6609 19.8945 53.6599 19.9199 53.6589C20.5866 53.6264 21.0962 53.3485 21.5023 53.0351C21.8684 53.2667 22.2238 53.5061 22.5889 53.7377C22.5986 53.7436 22.6074 53.7496 22.6162 53.7555C22.6475 53.7712 22.6816 53.7801 22.7177 53.7801C22.8134 53.7801 22.8925 53.72 22.9237 53.6362C22.9276 53.6244 22.9306 53.6106 22.9335 53.5988C23.077 53.0509 23.0428 52.3216 22.8173 51.8762C23.1444 51.5973 23.4929 51.3362 23.815 51.0504C23.816 51.0485 23.817 51.0485 23.818 51.0485C23.8326 51.0356 23.8472 51.0238 23.8609 51.01H23.8599C23.8609 51.01 23.8619 51.0081 23.8629 51.0081C23.8961 50.9696 23.9156 50.9184 23.9156 50.8642Z" fill="white"/>
<path opacity="0.8" fill-rule="evenodd" clip-rule="evenodd" d="M38.2291 56.6077C38.1949 56.5042 38.1217 56.4234 38.0309 56.3791H38.028C38.0163 56.3732 38.0055 56.3682 37.9948 56.3633L37.9919 56.3613C37.9821 56.3584 37.9743 56.3554 37.9645 56.3515C37.9528 56.3495 37.9411 56.3456 37.9294 56.3436C37.0371 56.1278 36.0267 56.0598 34.865 56.5831C34.3486 55.9898 33.8614 55.3414 33.3411 54.758C33.3265 54.7403 33.3108 54.7235 33.2962 54.7058C33.1927 54.6122 33.0443 54.5747 32.9028 54.622C32.8354 54.6457 32.7807 54.6851 32.7358 54.7324C32.7134 54.7669 32.6909 54.8024 32.6695 54.8369C32.1345 55.6843 31.8514 56.657 31.9588 57.8267C31.2276 58.1095 30.5374 58.416 29.8071 58.6998C29.7769 58.7136 29.7456 58.7234 29.7144 58.7362C29.5465 58.8269 29.4655 59.027 29.527 59.2142C29.5348 59.2369 29.5455 59.2575 29.5553 59.2773C29.5768 59.3098 29.6012 59.3393 29.6246 59.3709C30.304 60.2627 31.2871 60.7337 32.2448 61.0501C32.2926 61.8157 32.3502 62.5854 32.401 63.3521C32.402 63.3757 32.4049 63.4003 32.4068 63.423C32.4098 63.4457 32.4147 63.4673 32.4225 63.49C32.4859 63.6812 32.6782 63.7906 32.8696 63.7541C32.9135 63.7383 32.9574 63.7216 33.0004 63.7039C34.1192 63.2604 34.8318 62.4908 35.3463 61.7182C36.1029 61.9005 36.8467 62.1035 37.6023 62.2878C37.6228 62.2917 37.6414 62.2966 37.6609 62.3016C37.7214 62.3104 37.7859 62.3065 37.8474 62.2858C38.0104 62.2296 38.111 62.0818 38.1178 61.9192C38.1158 61.8956 38.1139 61.8729 38.1119 61.8483C38.0436 60.8283 37.5711 59.6044 36.9307 58.9747C37.3309 58.3096 37.7751 57.6582 38.1637 56.9841C38.1656 56.9822 38.1666 56.9812 38.1686 56.9782V56.9802V56.9782C38.1851 56.9487 38.2027 56.9191 38.2203 56.8905L38.2193 56.8885L38.2183 56.8905C38.2193 56.8885 38.2193 56.8856 38.2213 56.8826C38.2554 56.7979 38.2603 56.7013 38.2291 56.6077" fill="white"/>
<path opacity="0.8" fill-rule="evenodd" clip-rule="evenodd" d="M9.28096 41.5221C9.28096 41.4492 9.25167 41.3831 9.20383 41.3358C9.20383 41.3358 9.20286 41.3339 9.20188 41.3339C9.19602 41.328 9.19017 41.323 9.18431 41.3181L9.18236 41.3161C9.1765 41.3122 9.17357 41.3082 9.16771 41.3043C9.16088 41.2994 9.15405 41.2954 9.14624 41.2915C8.62981 40.9633 8.006 40.7032 7.16254 40.783C6.96241 40.2982 6.79157 39.7838 6.58559 39.3048C6.57973 39.2891 6.57387 39.2763 6.56899 39.2625C6.52311 39.1797 6.4372 39.1245 6.33763 39.1245C6.28979 39.1245 6.24781 39.1373 6.20974 39.159C6.18729 39.1758 6.16581 39.1925 6.14531 39.2093C5.62888 39.63 5.24425 40.1829 5.06658 40.9446C4.54429 40.9663 4.04446 41.0097 3.52316 41.0333C3.50168 41.0353 3.4802 41.0353 3.45775 41.0363C3.33279 41.057 3.23907 41.1663 3.23907 41.2974C3.23907 41.3132 3.24103 41.3289 3.24298 41.3427C3.24981 41.3684 3.2586 41.393 3.26739 41.4166C3.50851 42.1252 4.02884 42.6347 4.56675 43.0407C4.43496 43.5334 4.30902 44.032 4.17918 44.5267C4.17528 44.5415 4.17235 44.5572 4.16844 44.573C4.16552 44.5878 4.16454 44.6026 4.16454 44.6193C4.16454 44.7524 4.26216 44.8637 4.39102 44.8805C4.42129 44.8805 4.4535 44.8785 4.48377 44.8775C5.2833 44.8381 5.89539 44.505 6.38351 44.1286C6.82184 44.4055 7.24942 44.6942 7.68775 44.9721C7.69947 44.979 7.7102 44.9869 7.72094 44.9938C7.75706 45.0135 7.79904 45.0243 7.84199 45.0243C7.95621 45.0243 8.05188 44.9514 8.08996 44.8509C8.09386 44.8361 8.09777 44.8213 8.10167 44.8056C8.27349 44.1473 8.23346 43.2722 7.96109 42.7381C8.35549 42.4021 8.77234 42.0877 9.1599 41.7458C9.16186 41.7458 9.16283 41.7448 9.16381 41.7438V41.7448V41.7438C9.1804 41.728 9.19798 41.7133 9.21555 41.6995V41.6975L9.21457 41.6995C9.21555 41.6975 9.21653 41.6955 9.21653 41.6945C9.25655 41.6482 9.28096 41.5871 9.28096 41.5221" fill="white"/>
<path opacity="0.8" fill-rule="evenodd" clip-rule="evenodd" d="M44.3307 28.1027C44.2927 28.0859 44.2507 28.0869 44.2146 28.1017V28.1017C44.2097 28.1036 44.2058 28.1056 44.2028 28.1076C44.2019 28.1076 44.2009 28.1076 44.2009 28.1086C44.197 28.1105 44.195 28.1115 44.1911 28.1135C44.1872 28.1164 44.1833 28.1194 44.1794 28.1224C43.8924 28.3214 43.6152 28.5934 43.4668 29.0585C43.169 29.0546 42.8625 29.028 42.5657 29.029C42.5579 29.028 42.5491 29.029 42.5403 29.029C42.4876 29.0339 42.4398 29.0674 42.4173 29.1196C42.4066 29.1452 42.4027 29.1709 42.4056 29.1955C42.4085 29.2113 42.4134 29.2261 42.4173 29.2418C42.5198 29.6094 42.72 29.9385 43.0753 30.2056C42.9679 30.4874 42.8781 30.7624 42.7727 31.0432C42.7678 31.055 42.7639 31.0669 42.759 31.0797C42.7414 31.1496 42.7766 31.2255 42.8449 31.2551C42.8537 31.258 42.8615 31.261 42.8693 31.263C42.8849 31.2639 42.8986 31.2659 42.9142 31.2669C43.3369 31.2984 43.7196 31.1388 44.0525 30.9456C44.279 31.126 44.5104 31.3063 44.7378 31.4867C44.7456 31.4926 44.7515 31.4985 44.7593 31.5034C44.7661 31.5083 44.7739 31.5123 44.7817 31.5162C44.852 31.5468 44.9321 31.5192 44.9702 31.4551C44.977 31.4394 44.9828 31.4216 44.9887 31.4058C45.1498 30.9723 45.1156 30.5731 45.0307 30.2292C45.2738 30.0587 45.5198 29.8971 45.7638 29.7286C45.7707 29.7247 45.7765 29.7207 45.7834 29.7158C45.8009 29.701 45.8156 29.6813 45.8263 29.6587C45.8517 29.5985 45.8361 29.5306 45.7921 29.4882C45.7853 29.4823 45.7775 29.4764 45.7716 29.4714C45.4671 29.232 45.0033 29.0546 44.6636 29.0782C44.5787 28.7925 44.5094 28.4998 44.4196 28.217C44.4196 28.217 44.4186 28.216 44.4186 28.215L44.4196 28.216L44.4186 28.215C44.4147 28.2022 44.4108 28.1904 44.4078 28.1775C44.4069 28.1775 44.4069 28.1775 44.4069 28.1775V28.1785C44.4069 28.1775 44.4059 28.1766 44.4059 28.1756C44.3903 28.144 44.3649 28.1174 44.3307 28.1027" fill="white"/>
<path opacity="0.8" fill-rule="evenodd" clip-rule="evenodd" d="M13.8581 31.4935C13.8796 31.5408 13.9186 31.5733 13.9655 31.5901V31.5901C13.9723 31.5911 13.9772 31.594 13.9831 31.595L13.984 31.596C13.9889 31.596 13.9928 31.597 13.9987 31.597C14.0036 31.5989 14.0094 31.5989 14.0153 31.5999C14.4477 31.6492 14.929 31.6216 15.4455 31.3063C15.7227 31.5556 15.9912 31.8325 16.2694 32.0769C16.2782 32.0848 16.285 32.0917 16.2938 32.0986C16.3485 32.137 16.4207 32.1468 16.4851 32.1153C16.5144 32.1005 16.5388 32.0788 16.5574 32.0532C16.5652 32.0355 16.574 32.0177 16.5828 32C16.7858 31.5684 16.8629 31.0934 16.7438 30.5485C17.0718 30.3711 17.3803 30.1868 17.7084 30.0094C17.722 30.0015 17.7367 29.9946 17.7494 29.9868C17.8235 29.9335 17.8499 29.834 17.8099 29.7502C17.806 29.7404 17.8001 29.7315 17.7943 29.7236C17.7816 29.7089 17.7689 29.6951 17.7552 29.6823C17.3833 29.3029 16.8922 29.1383 16.4217 29.0457C16.3563 28.687 16.284 28.3283 16.2157 27.9686C16.2128 27.9587 16.2118 27.9479 16.2089 27.9361C16.2069 27.9252 16.202 27.9154 16.1971 27.9055C16.1561 27.8188 16.0585 27.7784 15.9716 27.8079C15.9521 27.8178 15.9316 27.8277 15.9131 27.8385C15.4103 28.1134 15.1194 28.5194 14.9212 28.9136C14.5542 28.8722 14.191 28.821 13.8249 28.7786C13.8151 28.7776 13.8064 28.7766 13.7966 28.7756C13.7673 28.7737 13.7371 28.7796 13.7097 28.7934C13.6355 28.8289 13.5965 28.9057 13.6033 28.9826C13.6053 28.9934 13.6072 29.0043 13.6101 29.0151C13.7009 29.4911 13.9948 30.041 14.3335 30.3001C14.1832 30.6381 14.0114 30.9712 13.8669 31.3122C13.8659 31.3122 13.8659 31.3141 13.8659 31.3151C13.8649 31.3141 13.8649 31.3141 13.8649 31.3141C13.8649 31.3141 13.8649 31.3141 13.8659 31.3151C13.8591 31.3289 13.8532 31.3447 13.8454 31.3595C13.8464 31.3605 13.8464 31.3605 13.8464 31.3605C13.8464 31.3605 13.8464 31.3605 13.8464 31.3595C13.8464 31.3605 13.8464 31.3614 13.8464 31.3624C13.8347 31.4038 13.8376 31.4521 13.8581 31.4935" fill="white"/>
<path opacity="0.8" fill-rule="evenodd" clip-rule="evenodd" d="M34.4314 19.7912C34.3719 19.7784 34.3114 19.7903 34.2635 19.8208C34.2635 19.8208 34.2635 19.8218 34.2625 19.8228C34.2567 19.8267 34.2518 19.8307 34.2469 19.8346H34.244C34.2401 19.8385 34.2372 19.8415 34.2323 19.8454C34.2274 19.8504 34.2225 19.8553 34.2176 19.8602C33.8545 20.2298 33.5274 20.6998 33.4376 21.4162C33.0052 21.4941 32.5532 21.5404 32.1236 21.6232C32.1109 21.6251 32.0992 21.6281 32.0865 21.6301C32.0104 21.6527 31.9499 21.7138 31.9313 21.7966C31.9225 21.836 31.9245 21.8745 31.9352 21.9099C31.945 21.9306 31.9547 21.9513 31.9655 21.972C32.2125 22.4795 32.5932 22.9013 33.1819 23.189C33.1038 23.6276 33.0471 24.0523 32.969 24.4888C32.9661 24.5076 32.9632 24.5263 32.9603 24.544C32.9544 24.6524 33.0257 24.751 33.1331 24.7746C33.1457 24.7776 33.1584 24.7786 33.1711 24.7795C33.1926 24.7786 33.2141 24.7756 33.2356 24.7726C33.8584 24.7027 34.3699 24.3647 34.8005 23.9922C35.1783 24.1922 35.5619 24.3883 35.9417 24.5884C35.9544 24.5943 35.9651 24.5992 35.9768 24.6061C35.9895 24.611 36.0012 24.615 36.0139 24.6179C36.1232 24.6416 36.2316 24.5805 36.2707 24.477C36.2755 24.4524 36.2804 24.4258 36.2843 24.4001C36.3995 23.7271 36.2414 23.1565 36.0237 22.6815C36.3312 22.3682 36.6445 22.0656 36.953 21.7523C36.9608 21.7444 36.9687 21.7375 36.9765 21.7286C36.9989 21.702 37.0155 21.6695 37.0233 21.634C37.0448 21.5384 37.0038 21.4458 36.9277 21.3955C36.9159 21.3896 36.9052 21.3837 36.8925 21.3778C36.3868 21.1137 35.6664 20.9856 35.1802 21.1127C34.9791 20.7235 34.7985 20.3184 34.5906 19.9331C34.5906 19.9312 34.5906 19.9312 34.5896 19.9292H34.5906H34.5896C34.5808 19.9124 34.572 19.8957 34.5623 19.8789L34.5613 19.878L34.5623 19.8789C34.5613 19.878 34.5613 19.877 34.5593 19.876C34.5291 19.8346 34.4851 19.8031 34.4314 19.7912" fill="white"/>
<path opacity="0.8" fill-rule="evenodd" clip-rule="evenodd" d="M41.8262 17.4126C41.8262 17.3633 41.8067 17.318 41.7745 17.2854C41.7745 17.2854 41.7735 17.2854 41.7725 17.2854C41.7686 17.2815 41.7647 17.2776 41.7608 17.2736L41.7599 17.2726C41.756 17.2697 41.753 17.2677 41.7491 17.2648C41.7452 17.2628 41.7403 17.2588 41.7354 17.2559C41.385 17.0342 40.9633 16.8578 40.3912 16.913C40.2565 16.5838 40.1403 16.236 40.0007 15.9108C39.9968 15.9009 39.9929 15.8911 39.99 15.8822C39.9587 15.827 39.9011 15.7896 39.8328 15.7896C39.8015 15.7896 39.7723 15.7974 39.7459 15.8112C39.7313 15.8231 39.7166 15.8349 39.7029 15.8467C39.3535 16.1315 39.0928 16.505 38.9717 17.0214C38.6184 17.0361 38.2806 17.0657 37.9272 17.0815C37.9125 17.0824 37.8969 17.0824 37.8823 17.0834C37.7983 17.0982 37.7349 17.1711 37.7349 17.2608C37.7349 17.2707 37.7358 17.2815 37.7368 17.2914C37.7427 17.3081 37.7476 17.3249 37.7544 17.3416C37.9174 17.8215 38.2698 18.1664 38.633 18.4414C38.5451 18.7745 38.4592 19.1125 38.3714 19.4475C38.3684 19.4583 38.3665 19.4672 38.3636 19.479C38.3616 19.4889 38.3616 19.4988 38.3616 19.5096C38.3616 19.6003 38.428 19.6751 38.5149 19.688C38.5354 19.687 38.5568 19.686 38.5773 19.685C39.1192 19.6574 39.5341 19.4327 39.864 19.1775C40.1618 19.3647 40.4507 19.5608 40.7475 19.7491C40.7553 19.754 40.7621 19.7589 40.77 19.7638C40.7944 19.7766 40.8237 19.7845 40.852 19.7845C40.9291 19.7845 40.9935 19.7353 41.0199 19.6663C41.0228 19.6564 41.0248 19.6466 41.0277 19.6357C41.1439 19.1903 41.1165 18.5981 40.933 18.2354C41.1995 18.0088 41.4826 17.7959 41.7452 17.5633C41.7452 17.5633 41.7462 17.5633 41.7472 17.5624V17.5633V17.5624C41.7589 17.5525 41.7706 17.5417 41.7813 17.5318V17.5308V17.5318C41.7813 17.5308 41.7823 17.5298 41.7833 17.5298C41.8106 17.4983 41.8262 17.4569 41.8262 17.4126" fill="white"/>
</svg>
