<svg width="72" height="72" viewBox="0 0 72 72" fill="none" xmlns="http://www.w3.org/2000/svg">
<g filter="url(#filter0_d_192_4336)">
<rect x="12" y="6" width="48" height="48" rx="24" fill="white"/>
<path d="M35.8561 44C35.1913 44 34.5338 43.8121 33.9558 43.4364C30.6394 41.2833 26.0657 37.7645 24.6857 32.1071C24.5195 31.4062 24.3606 30.7343 24.2233 30.0912C24.1727 29.86 24.3172 29.6288 24.5484 29.5854C24.7796 29.5349 25.0108 29.6794 25.0542 29.9106C25.1915 30.5464 25.3432 31.2111 25.5094 31.9048C26.8099 37.266 31.2174 40.6474 34.411 42.7211C35.2853 43.2847 36.4124 43.2847 37.2795 42.7211C40.4731 40.6474 44.8805 37.2732 46.1811 31.9048C47.2721 27.4178 47.6767 24.0581 47.8285 22.035C47.9224 20.7705 47.0987 19.6145 45.8704 19.2821C45.0033 19.0509 43.8617 18.7474 42.4022 18.3717C39.2809 17.5697 37.3084 17.1145 36.4124 16.9194C36.0367 16.8399 35.6538 16.8399 35.278 16.9194C34.3821 17.1145 32.4096 17.5697 29.2882 18.3717C27.8287 18.7474 26.6871 19.0509 25.8201 19.2821C24.5918 19.6073 23.7681 20.7633 23.862 22.035C23.9343 23.0754 24.0643 24.2026 24.2305 25.3803C24.2666 25.6115 24.1004 25.8283 23.8692 25.8644C23.6308 25.9005 23.4213 25.7343 23.3851 25.5031C23.2117 24.3037 23.0889 23.1549 23.0094 22.0928C22.8866 20.4165 23.9776 18.8847 25.5961 18.4512C26.4631 18.22 27.6047 17.9165 29.0715 17.5408C32.2073 16.7316 34.187 16.2764 35.0902 16.0813C35.5887 15.9729 36.0945 15.9729 36.5931 16.0813C37.4962 16.2836 39.476 16.7316 42.6118 17.5408C44.0713 17.9165 45.2129 18.22 46.0871 18.4512C47.7129 18.8847 48.7967 20.4165 48.6738 22.0928C48.5221 24.152 48.1102 27.5551 47.0048 32.0999C45.632 37.7573 41.0583 41.276 37.7347 43.4292C37.1566 43.8049 36.4919 43.9928 35.8344 43.9928L35.8561 44Z" fill="#2A3539"/>
<path opacity="0.8" d="M44.4542 20.3371C43.7173 20.142 42.7491 19.8891 41.5135 19.5639C38.8835 18.8848 37.2217 18.5018 36.4197 18.3284C36.0512 18.2489 35.6755 18.2489 35.2997 18.3284C34.5049 18.5018 32.8359 18.8848 30.2059 19.5639C28.9631 19.8819 28.0021 20.1347 27.2652 20.3371C26.0513 20.6622 25.2493 21.7966 25.336 23.0466C25.466 24.8312 25.8129 27.678 26.7377 31.4713C27.8721 36.1316 31.622 39.029 34.4399 40.857C35.2997 41.4134 36.4052 41.4134 37.265 40.857C40.0829 39.029 43.8329 36.1316 44.9672 31.4713C45.8921 27.678 46.2389 24.824 46.369 23.0466C46.4629 21.7966 45.6537 20.6622 44.4398 20.3371H44.4542ZM41.8531 26.3341L35.1336 33.0537C35.0107 33.1765 34.8518 33.2415 34.6784 33.2415C34.5049 33.2415 34.346 33.1765 34.2232 33.0537L30.9284 29.7589C30.6755 29.506 30.6755 29.1014 30.9284 28.8485C31.1813 28.5956 31.5859 28.5956 31.8388 28.8485L34.6784 31.6881L40.9427 25.4237C41.1956 25.1708 41.6002 25.1708 41.8531 25.4237C41.976 25.5465 42.041 25.7055 42.041 25.8789C42.041 26.0523 41.976 26.2113 41.8531 26.3341Z" fill="#03C499"/>
<path d="M44.9311 21.6737C44.2736 21.5003 39.2448 20.1058 36.7954 19.441C36.2318 19.2893 35.6755 19.7156 35.6827 20.3081C37.5179 22.2734 38.7029 24.665 39.2014 27.1866L40.9572 25.4308C41.2101 25.178 41.6147 25.178 41.8676 25.4308C41.9904 25.5537 42.0554 25.7126 42.0554 25.886C42.0554 26.0594 41.9904 26.2184 41.8676 26.3412L39.4182 28.7906C39.6349 31.5507 39.0569 34.3758 37.6119 36.8975L35.885 39.9104C35.885 39.9104 36.3619 40.0477 36.5642 39.9104C39.4615 38.0318 42.9225 35.3296 43.9485 31.0811C44.9167 27.0854 45.2779 24.1231 45.408 22.3384C45.4297 22.0277 45.2346 21.7604 44.9383 21.6809L44.9311 21.6737Z" fill="#03C499"/>
</g>
<defs>
<filter id="filter0_d_192_4336" x="0" y="0" width="72" height="72" filterUnits="userSpaceOnUse" color-interpolation-filters="sRGB">
<feFlood flood-opacity="0" result="BackgroundImageFix"/>
<feColorMatrix in="SourceAlpha" type="matrix" values="0 0 0 0 0 0 0 0 0 0 0 0 0 0 0 0 0 0 127 0" result="hardAlpha"/>
<feMorphology radius="4" operator="erode" in="SourceAlpha" result="effect1_dropShadow_192_4336"/>
<feOffset dy="6"/>
<feGaussianBlur stdDeviation="8"/>
<feColorMatrix type="matrix" values="0 0 0 0 0.164706 0 0 0 0 0.207843 0 0 0 0 0.223529 0 0 0 0.2 0"/>
<feBlend mode="normal" in2="BackgroundImageFix" result="effect1_dropShadow_192_4336"/>
<feBlend mode="normal" in="SourceGraphic" in2="effect1_dropShadow_192_4336" result="shape"/>
</filter>
</defs>
</svg>
