<svg width="144" height="144" viewBox="0 0 144 144" fill="none" xmlns="http://www.w3.org/2000/svg">
<path d="M116.573 68.7179C114.407 68.3384 122.009 66.2063 122.009 66.2063L114.653 64.7216L120.893 63.784L126.765 62.9021L127.178 61.6184C121.686 61.0491 113.414 60.1895 113.336 60.1895C113.258 60.1895 121.15 58.783 128.372 57.8454L128.607 57.1198C130.817 50.1765 126.653 42.8314 119.565 41.1682L46.4038 23.9886C39.5721 22.3812 32.7628 26.7123 31.3228 33.5775L27.561 51.4937C33.9573 51.2816 39.8959 53.3133 41.414 53.2351C41.548 53.224 41.6596 53.2128 41.7154 53.2128C41.8382 53.2128 41.7154 53.2128 41.414 53.2351C39.6726 53.4026 32.0931 54.6082 26.7126 55.4789L26.4559 56.7068C29.1349 56.8742 30.7535 57.0528 31.2335 57.0416C46.5042 56.6956 28.1191 60.1002 25.4847 61.2947L19.4903 89.8044C17.9498 97.1161 23.1405 104.137 30.5861 104.818L101.079 111.226C106.917 111.762 112.331 108.156 114.117 102.575L124.711 69.3542C121.596 69.1644 117.801 68.9077 116.584 68.6956L116.573 68.7179Z" fill="#C3F6FF"/>
<path d="M99.706 17.5928L105.823 84.6811L101.068 86.6458L90.7646 89.2579L85.1944 80.0486L84.212 76.6439L81.1088 79.3342L87.3376 94.5714L39.5497 97.3621L33.4548 23.0179L99.706 17.5928Z" fill="white"/>
<path opacity="0.6" d="M40.9674 28.9343L93.3097 23.8887L98.5116 79.2338L45.0641 84.1231L40.9674 28.9343Z" fill="#62E4FB"/>
<path d="M100.934 123.305L85.8642 116.473L76.5432 111.349L75.3153 107.799L77.7488 104.674L83.9442 104.618L90.2846 106.002L75.3153 78.5641C75.3153 78.5641 74.4446 73.9762 76.9116 73.4069C79.3786 72.8376 81.667 73.3399 82.1581 74.0543C83.3637 75.8292 88.5879 85.3734 88.5879 85.3734L96.6251 83.0739C96.9265 83.7325 101.503 81.0646 101.503 81.0646L105.399 81.4553H108.056L111.684 80.0264L114.34 81.4553L125.883 100.588L125.481 107.933L130.326 116.64L102.899 126.921L100.945 123.282L100.934 123.305Z" fill="#FFF3CD"/>
<path d="M56.4725 65.5702C55.6464 65.9274 51.6278 66.2847 51.6278 66.2847C51.6278 66.2847 54.1059 61.9423 53.2799 59.0288C52.4538 56.1154 49.7301 49.4958 51.3934 46.3033C53.0566 43.1107 54.932 35.4865 63.9515 34.1805C73.4399 32.8074 73.4511 32.5842 77.6148 35.6651C81.7785 38.746 84.625 42.4074 85.0938 44.5395C85.5627 46.6716 85.3283 55.066 86.2771 57.3098C87.2259 59.5535 89.6929 62.5116 89.6929 62.5116C89.6929 62.5116 87.3599 63.6056 85.3283 63.8623C83.2966 64.1191 82.2585 63.8623 82.2585 63.8623C82.2585 63.8623 57.3097 65.2353 56.4836 65.5926L56.4725 65.5702Z" fill="#62E4FB"/>
<path d="M59.9106 61.7526C59.9106 61.7526 63.4046 69.7786 70.5153 69.4214C76.1748 69.1424 80.439 64.7442 80.8185 58.5935C81.1981 52.4428 80.4836 46.1805 80.4836 46.1805C80.4836 46.1805 70.8167 42.0391 70.2697 41.2131C69.7227 40.387 67.7692 47.6763 65.4027 48.6252C63.0362 49.574 58.0129 49.574 58.0129 49.574L59.8994 61.7526H59.9106Z" fill="#FFF3CD"/>
<path d="M26.2214 15.6392L19.8251 22.0354" stroke="white" stroke-width="2.06026" stroke-linecap="round" stroke-linejoin="round"/>
<path d="M19.8251 15.6392L26.2214 22.0354" stroke="white" stroke-width="2.06026" stroke-linecap="round" stroke-linejoin="round"/>
<path d="M43.3004 111.74V120.782" stroke="white" stroke-width="2.06026" stroke-linecap="round" stroke-linejoin="round"/>
<path d="M38.7795 116.261H47.8102" stroke="white" stroke-width="2.06026" stroke-linecap="round" stroke-linejoin="round"/>
<path d="M120.703 17.9277V26.9696" stroke="white" stroke-width="2.06026" stroke-linecap="round" stroke-linejoin="round"/>
<path d="M116.182 22.4482H125.224" stroke="white" stroke-width="2.06026" stroke-linecap="round" stroke-linejoin="round"/>
<path d="M131.598 86.1323C133.688 86.1323 135.382 84.4381 135.382 82.3482C135.382 80.2582 133.688 78.564 131.598 78.564C129.508 78.564 127.814 80.2582 127.814 82.3482C127.814 84.4381 129.508 86.1323 131.598 86.1323Z" stroke="#FFDA6A" stroke-width="2.06026" stroke-linecap="round" stroke-linejoin="round"/>
<path d="M14.9358 68.0484C17.0257 68.0484 18.72 66.3541 18.72 64.2642C18.72 62.1742 17.0257 60.48 14.9358 60.48C12.8458 60.48 11.1516 62.1742 11.1516 64.2642C11.1516 66.3541 12.8458 68.0484 14.9358 68.0484Z" stroke="#FFDA6A" stroke-width="2.06026" stroke-linecap="round" stroke-linejoin="round"/>
<path d="M88.5879 85.3735L91.5907 83.6433C93.2986 82.6275 95.3414 82.4154 96.6251 83.074L100.13 81.0424C101.771 80.0935 104.528 80.5512 105.667 82.527L109.172 80.4954C110.813 79.5466 113.57 80.0042 114.709 81.9801L124.845 99.528C126.899 103.078 125.034 107.967 126.396 110.334C127.758 112.7 129.756 115.937 129.756 115.937" stroke="#2A3539" stroke-width="2.06026" stroke-linecap="round" stroke-linejoin="round"/>
<path d="M96.625 83.0737L101.693 91.8477" stroke="#2A3539" stroke-width="2.06026" stroke-linecap="round" stroke-linejoin="round"/>
<path d="M105.667 82.5381L109.719 89.5595" stroke="#2A3539" stroke-width="2.06026" stroke-linecap="round" stroke-linejoin="round"/>
<path d="M94.6716 95.911L82.5153 74.8468C81.4102 72.8933 78.932 72.2571 76.9785 73.3622C75.0251 74.4673 74.3553 76.8896 75.4604 78.8431C75.4604 78.8431 87.639 99.9296 90.9432 105.656C91.2223 106.136 90.7534 106.705 90.2176 106.527C88.1302 105.824 83.5088 104.261 80.6288 104.015C78.7981 103.859 76.9674 104.819 75.9181 106.337C74.4334 108.469 75.572 111.416 78.0502 112.22C85.4846 114.631 90.9878 120.447 98.0539 122.032C100.967 122.813 101.269 123.539 101.838 124.532C102.407 125.515 102.887 126.363 102.887 126.363" stroke="#2A3539" stroke-width="2.06026" stroke-linecap="round" stroke-linejoin="round"/>
<path d="M98.333 76.2309L93.9683 24.2012L40.1971 28.6105L44.8297 85.0719L72.0669 82.8393" stroke="#2A3539" stroke-width="2.06026" stroke-linecap="round" stroke-linejoin="round"/>
<path d="M79.0437 95.3416L39.6502 98.5677L33.4548 23.0179L99.706 17.5928L104.316 73.976" stroke="#2A3539" stroke-width="2.06026" stroke-linecap="round" stroke-linejoin="round"/>
<path d="M57.1088 65.8269C52.8781 68.6846 50.6121 65.7153 50.6121 65.7153C53.5144 62.7348 53.079 61.0716 53.0009 58.973C52.9228 56.7739 52.666 56.3051 51.773 53.2576C47.8995 34.8278 66.4744 33.7227 68.8967 33.5218C85.3283 32.1711 87.7618 48.3906 86.6009 56.2158C86.2883 58.292 86.5674 60.0111 89.9274 62.4892C89.9274 62.4892 88.1749 65.7823 83.5311 63.6613" stroke="#2A3539" stroke-width="2.06026" stroke-linecap="round" stroke-linejoin="round"/>
<path d="M57.9794 50.4781C57.9794 50.4781 67.1999 51.6948 69.9906 42.3069C70.3813 40.9785 70.426 40.8222 71.8213 42.039C75.1143 44.919 80.1264 45.946 80.1264 45.946L80.4613 46.0353C80.4613 46.0353 81.9013 50.0762 81.5999 54.3739C81.5999 54.3739 80.4836 68.6064 70.7608 69.399L70.5153 69.4213C60.7925 70.2139 57.9125 56.3162 57.9125 56.3162" stroke="#2A3539" stroke-width="2.06026" stroke-linecap="round" stroke-linejoin="round"/>
<path fill-rule="evenodd" clip-rule="evenodd" d="M66.5637 53.7992V53.7713L66.5592 53.7157C66.4802 52.7282 65.6107 51.8466 64.4663 51.9839C63.481 52.1021 62.6989 52.9646 62.7839 54.0276C62.8673 55.0699 63.7698 55.849 64.8219 55.7649C65.8403 55.6834 66.6074 54.8201 66.5637 53.7992Z" fill="#2A3539"/>
<path fill-rule="evenodd" clip-rule="evenodd" d="M76.3422 52.9955V52.9675L76.3378 52.912C76.2588 51.9245 75.3893 51.0429 74.2448 51.1802C73.2596 51.2984 72.4774 52.1608 72.5625 53.2239C72.6459 54.2662 73.5484 55.0453 74.6005 54.9612C75.6189 54.8797 76.386 54.0163 76.3422 52.9955Z" fill="#2A3539"/>
</svg>
