<svg width="144" height="144" viewBox="0 0 144 144" fill="none" xmlns="http://www.w3.org/2000/svg">
<path opacity="0.5" d="M114.003 75.0587C111.837 74.6792 119.439 72.5471 119.439 72.5471L112.083 71.0625L118.323 70.1248L124.194 69.2429L124.607 67.9592C119.115 67.3899 110.844 66.5304 110.766 66.5304C110.687 66.5304 118.58 65.1239 125.802 64.1862L126.036 63.4606C128.246 56.5173 124.083 49.1722 116.994 47.509L43.8335 30.3294C37.0018 28.722 30.1925 33.0532 28.7525 39.9183L24.9907 57.8346C31.3869 57.6225 37.3255 59.6541 38.8437 59.5759C38.9776 59.5648 39.0893 59.5536 39.1451 59.5536C39.2679 59.5536 39.1451 59.5536 38.8437 59.5759C37.1023 59.7434 29.5228 60.949 24.1423 61.8197L23.8855 63.0476C26.5646 63.215 28.1832 63.3936 28.6632 63.3825C43.9339 63.0364 25.5488 66.4411 22.9144 67.6355L16.92 96.1452C15.3795 103.457 20.5702 110.478 28.0158 111.159L98.5088 117.567C104.347 118.102 109.761 114.497 111.547 108.915L122.14 75.695C119.026 75.5052 115.231 75.2485 114.014 75.0364L114.003 75.0587Z" fill="#E4C1FF"/>
<path d="M97.1876 27.0818L88.8599 27.6875L89.9838 43.1406L98.3116 42.5349L97.1876 27.0818Z" fill="white"/>
<path d="M86.7316 73.294C99.3082 73.294 109.504 61.9191 109.504 47.8875C109.504 33.8558 99.3082 22.481 86.7316 22.481C74.1549 22.481 63.9595 33.8558 63.9595 47.8875C63.9595 61.9191 74.1549 73.294 86.7316 73.294Z" fill="white"/>
<path d="M85.5151 72.8132C96.7047 72.8132 105.776 62.093 105.776 48.869C105.776 35.645 96.7047 24.9248 85.5151 24.9248C74.3256 24.9248 65.2546 35.645 65.2546 48.869C65.2546 62.093 74.3256 72.8132 85.5151 72.8132Z" fill="#FFF3CD"/>
<path d="M54.9852 87.7945C67.5619 87.7945 77.7573 76.4196 77.7573 62.388C77.7573 48.3563 67.5619 36.9814 54.9852 36.9814C42.4085 36.9814 32.2131 48.3563 32.2131 62.388C32.2131 76.4196 42.4085 87.7945 54.9852 87.7945Z" fill="white"/>
<path d="M52.4736 86.4333C63.6631 86.4333 72.7341 75.7131 72.7341 62.4891C72.7341 49.2651 63.6631 38.5449 52.4736 38.5449C41.2841 38.5449 32.2131 49.2651 32.2131 62.4891C32.2131 75.7131 41.2841 86.4333 52.4736 86.4333Z" fill="#CD8EFF"/>
<path d="M87.3346 75.3145C87.3346 75.3145 79.6657 83.2958 79.9783 83.4075C80.2909 83.5191 93.5634 83.4075 93.5634 83.4075L87.3346 75.3145Z" fill="#FFF3CD"/>
<path d="M54.9854 87.7939L48.3882 96.847H60.3324L54.9854 87.7939Z" fill="#CD8EFF"/>
<path d="M14.679 63.5625C16.7689 63.5625 18.4631 61.8683 18.4631 59.7783C18.4631 57.6884 16.7689 55.9941 14.679 55.9941C12.589 55.9941 10.8948 57.6884 10.8948 59.7783C10.8948 61.8683 12.589 63.5625 14.679 63.5625Z" stroke="#FFDA6A" stroke-width="2.06026" stroke-linecap="round" stroke-linejoin="round"/>
<path d="M125.323 101.416C127.413 101.416 129.108 99.7213 129.108 97.6314C129.108 95.5414 127.413 93.8472 125.323 93.8472C123.234 93.8472 121.539 95.5414 121.539 97.6314C121.539 99.7213 123.234 101.416 125.323 101.416Z" stroke="#FFDA6A" stroke-width="2.06026" stroke-linecap="round" stroke-linejoin="round"/>
<path d="M29.7146 16.835V25.8657" stroke="white" stroke-width="2.06026" stroke-linecap="round" stroke-linejoin="round"/>
<path d="M25.2058 21.3438H34.2365" stroke="white" stroke-width="2.06026" stroke-linecap="round" stroke-linejoin="round"/>
<path d="M127.924 35.3428L121.539 41.7391" stroke="white" stroke-width="2.06026" stroke-linecap="round" stroke-linejoin="round"/>
<path d="M121.539 35.3428L127.924 41.7391" stroke="white" stroke-width="2.06026" stroke-linecap="round" stroke-linejoin="round"/>
<path d="M74.8358 119.243L68.4507 125.639" stroke="white" stroke-width="2.06026" stroke-linecap="round" stroke-linejoin="round"/>
<path d="M68.4507 119.243L74.8358 125.639" stroke="white" stroke-width="2.06026" stroke-linecap="round" stroke-linejoin="round"/>
<path d="M34.7381 73.3082C33.1753 70.1714 32.2153 66.5993 32.2153 62.6812C32.2153 47.2765 42.407 36.9956 54.9874 36.9956C67.5679 36.9956 77.7595 47.2765 77.7595 62.6812C77.7595 78.0858 63.7167 87.9984 54.9874 87.9984C50.1763 87.9984 42.8646 84.3817 37.8302 78.1193" stroke="#2A3539" stroke-width="2.06026" stroke-linecap="round" stroke-linejoin="round"/>
<path d="M54.6306 44.0049C51.1813 44.1277 44.986 46.5054 42.1506 53.4709" stroke="#2A3539" stroke-width="2.06026" stroke-linecap="round" stroke-linejoin="round"/>
<path d="M54.0274 88.3662L48.1223 97.2629H61.8637L55.2777 88.4778" stroke="#2A3539" stroke-width="2.06026" stroke-linecap="round" stroke-linejoin="round"/>
<path d="M55.6361 97.6323C55.6361 97.6323 58.8621 102.689 50.0547 109.543C41.0574 116.542 48.637 125.193 48.637 125.193" stroke="#2A3539" stroke-width="2.06026" stroke-linecap="round" stroke-linejoin="round"/>
<path d="M68.283 36.8494C71.9778 28.4661 79.4904 23.3647 88.1639 23.3647C96.1453 23.3647 103.144 27.6736 107.085 34.9071C107.699 36.0345 108.235 37.2289 108.692 38.4903C109.027 39.4057 109.317 40.3657 109.563 41.348C110.155 43.7368 110.467 46.3154 110.467 49.0503C110.467 64.455 96.7146 74.3675 88.1639 74.3675C85.7751 74.3675 82.7499 73.441 79.7137 71.6996" stroke="#2A3539" stroke-width="2.06026" stroke-linecap="round" stroke-linejoin="round"/>
<path d="M87.8167 30.3875C84.8586 30.354 78.3618 32.888 75.5823 39.8536" stroke="#2A3539" stroke-width="2.06026" stroke-linecap="round" stroke-linejoin="round"/>
<path d="M87.6938 74.5806L93.61 83.4773H79.8687L86.4435 74.6922" stroke="#2A3539" stroke-width="2.06026" stroke-linecap="round" stroke-linejoin="round"/>
<path d="M86.0877 83.8555C86.0877 83.8555 82.8617 88.9122 91.6691 95.7662C100.477 102.62 93.0868 111.416 93.0868 111.416" stroke="#2A3539" stroke-width="2.06026" stroke-linecap="round" stroke-linejoin="round"/>
</svg>
