<svg width="144" height="144" viewBox="0 0 144 144" fill="none" xmlns="http://www.w3.org/2000/svg">
<path d="M117.393 73.654C115.211 73.2715 122.872 71.1227 122.872 71.1227L115.458 69.6265L121.747 68.6815L127.664 67.7927L128.081 66.499C122.546 65.9252 114.209 65.059 114.131 65.059C114.052 65.059 122.006 63.6415 129.284 62.6965L129.521 61.9652C131.748 54.9677 127.552 47.5652 120.408 45.889L46.6757 28.5752C39.7907 26.9552 32.9282 31.3202 31.477 38.239L27.6857 56.2952C34.132 56.0815 40.117 58.129 41.647 58.0502C41.782 58.039 41.8945 58.0277 41.9507 58.0277C42.0745 58.0277 41.9507 58.0277 41.647 58.0502C39.892 58.219 32.2532 59.434 26.8307 60.3115L26.572 61.549C29.272 61.7177 30.9032 61.8977 31.387 61.8865C46.777 61.5377 28.2482 64.969 25.5932 66.1727L19.552 94.9052C17.9995 102.274 23.2307 109.35 30.7345 110.036L101.778 116.494C107.662 117.034 113.118 113.4 114.918 107.775L125.594 74.2952C122.456 74.104 118.631 73.8452 117.404 73.6315L117.393 73.654Z" fill="#FFD5DA"/>
<path d="M86.625 20.8916V35.9441H99.1462V40.2979H116.595L113.198 33.0416L116.876 25.7854H102.049V20.8916H86.625Z" fill="#FF9BA7"/>
<path d="M29.2725 123.098H114.131L104.962 111.634H95.7937L91.0237 106.47L82.0237 107.044L74.1712 101.959H66.4875L61.7737 113.884L54.27 114.064L50.1187 116.314L40.6012 116.303L29.2725 123.098Z" fill="#FFE69C"/>
<path d="M63.6751 27.9226C63.6751 23.4864 60.0813 19.8901 55.6482 19.8901C51.2151 19.8901 47.6213 23.4864 47.6213 27.9226V30.2064C47.6213 34.6426 51.2151 38.2389 55.6482 38.2389C60.0813 38.2389 63.6751 34.6426 63.6751 30.2064V27.9226Z" fill="#FFE69C"/>
<path d="M27.1014 35.6177L26.2239 45.3039L45.3376 57.7352V85.5002V88.4702V116.213H50.1189L54.2701 114.064L56.8014 80.6627L68.2651 86.4002V101.959H74.1714L77.5464 104.141V81.2252L63.6189 69.1652L63.6751 57.7352L79.2451 54.4952L79.7626 45.1239L50.1639 44.9102L44.8989 43.9314L27.1014 35.6177Z" fill="#FF9BA7"/>
<path d="M19.7776 32.6587L28.0913 36.0674L26.8201 46.5187C26.8201 46.5187 21.2176 42.3112 20.7563 41.5912C20.2951 40.8712 18.3826 36.0449 19.7776 32.6587Z" fill="#FFE69C"/>
<path d="M79.7624 45.124L79.2449 54.4953C79.2449 54.4953 84.1274 54.2365 85.0499 51.6715C85.9724 49.1065 86.1636 45.124 86.1636 45.124H79.7736H79.7624Z" fill="#FFE69C"/>
<path d="M102.049 21.9038H86.614V25.1438H102.049V21.9038Z" fill="white"/>
<path d="M115.099 26.2578H101.745V29.4978H115.099V26.2578Z" fill="white"/>
<path d="M10.7661 71.3364L17.2011 77.7714" stroke="white" stroke-width="2.06713" stroke-linecap="round" stroke-linejoin="round"/>
<path d="M10.7661 77.7714L17.2011 71.3364" stroke="white" stroke-width="2.06713" stroke-linecap="round" stroke-linejoin="round"/>
<path d="M77.7371 125.685L84.1833 132.131" stroke="white" stroke-width="2.06713" stroke-linecap="round" stroke-linejoin="round"/>
<path d="M77.7371 132.131L84.1833 125.685" stroke="white" stroke-width="2.06713" stroke-linecap="round" stroke-linejoin="round"/>
<path d="M131.119 33.6826V42.7951" stroke="white" stroke-width="2.06713" stroke-linecap="round" stroke-linejoin="round"/>
<path d="M135.675 38.2388H126.562" stroke="white" stroke-width="2.06713" stroke-linecap="round" stroke-linejoin="round"/>
<path d="M32.1409 19.1138C34.2472 19.1138 35.9546 17.4064 35.9546 15.3001C35.9546 13.1938 34.2472 11.4863 32.1409 11.4863C30.0346 11.4863 28.3271 13.1938 28.3271 15.3001C28.3271 17.4064 30.0346 19.1138 32.1409 19.1138Z" stroke="#FFDA6A" stroke-width="2.06713" stroke-linecap="round" stroke-linejoin="round"/>
<path d="M128.812 98.9551C130.919 98.9551 132.626 97.2477 132.626 95.1414C132.626 93.0351 130.919 91.3276 128.812 91.3276C126.706 91.3276 124.999 93.0351 124.999 95.1414C124.999 97.2477 126.706 98.9551 128.812 98.9551Z" stroke="#FFDA6A" stroke-width="2.06713" stroke-linecap="round" stroke-linejoin="round"/>
<path d="M55.6536 38.2389C60.3336 38.2389 63.6861 35.2464 63.6861 30.9039V27.2364C63.6861 22.8939 60.3336 19.9014 55.6536 19.9014C50.9736 19.9014 47.6211 22.8939 47.6211 27.2364V30.9039C47.6211 35.2464 50.9736 38.2389 55.6536 38.2389Z" stroke="#2A3539" stroke-width="2.06713" stroke-linecap="round" stroke-linejoin="round"/>
<path d="M54.5056 112.781L56.8006 80.6626L68.2644 86.4001V101.306" stroke="#2A3539" stroke-width="2.06713" stroke-linecap="round" stroke-linejoin="round"/>
<path d="M29.2722 123.098L40.7472 116.213H50.591L54.506 113.918H61.391L65.9697 102.454H75.1497L82.0235 107.044H91.2035L95.7935 111.634H104.962L114.131 123.098" stroke="#2A3539" stroke-width="2.06713" stroke-linecap="round" stroke-linejoin="round"/>
<path d="M45.3371 86.4342V57.7242C45.3371 57.7242 26.5946 46.8567 22.2746 43.2567C17.6846 39.4317 19.7883 32.6479 19.7883 32.6479C19.7883 32.6479 34.6721 39.3754 42.6258 43.2904C45.9333 44.9217 50.8271 45.1017 54.5171 45.1017H86.6246C86.6246 45.1017 87.1533 52.8192 79.7396 54.2029C75.2621 55.0354 63.6858 57.7129 63.6858 57.7129V69.1767L77.4446 81.7879V102.443" stroke="#2A3539" stroke-width="2.06713" stroke-linecap="round" stroke-linejoin="round"/>
<path d="M45.3369 115.065V91.3276" stroke="#2A3539" stroke-width="2.06713" stroke-linecap="round" stroke-linejoin="round"/>
<path d="M86.6133 45.124V105.897" stroke="#2A3539" stroke-width="2.06713" stroke-linecap="round" stroke-linejoin="round"/>
<path d="M86.6133 15.3003V45.124" stroke="#2A3539" stroke-width="2.06713" stroke-linecap="round" stroke-linejoin="round"/>
<path d="M86.6248 21.4316H102.049V35.9441H86.6248" stroke="#2A3539" stroke-width="2.06713" stroke-linecap="round" stroke-linejoin="round"/>
<path d="M102.048 25.7852H116.876L112.522 33.0414L116.876 40.2977H99.146V35.9439" stroke="#2A3539" stroke-width="2.06713" stroke-linecap="round" stroke-linejoin="round"/>
<path d="M28.3271 36.5625L27.0896 45.8663" stroke="#2A3539" stroke-width="2.06713" stroke-linecap="round" stroke-linejoin="round"/>
<path d="M78.7949 53.2578L79.7624 45.124" stroke="#2A3539" stroke-width="2.06713" stroke-linecap="round" stroke-linejoin="round"/>
</svg>
