<svg width="144" height="144" viewBox="0 0 144 144" fill="none" xmlns="http://www.w3.org/2000/svg">
<path opacity="0.5" d="M117.252 74.4219C115.07 74.0279 122.73 71.7899 122.73 71.7899L115.316 70.2259L121.604 69.2359L127.522 68.3019L127.938 66.9519C122.402 66.3559 114.066 65.4559 113.988 65.4559C113.91 65.4559 121.864 63.9699 129.142 62.9919L129.378 62.2279C131.606 54.9259 127.41 47.1859 120.266 45.4319L46.5244 27.3619C39.6404 25.6739 32.7764 30.2299 31.3264 37.4539L27.5344 56.3079C33.9804 56.0839 39.9664 58.2199 41.4964 58.1419C41.6324 58.1299 41.7444 58.1199 41.8004 58.1199C41.9244 58.1199 41.8004 58.1199 41.4964 58.1419C39.7424 58.3219 32.1024 59.5939 26.6804 60.5039L26.4224 61.7979C29.1224 61.9659 30.7544 62.1699 31.2384 62.1579C46.6284 61.7979 28.1004 65.3759 25.4444 66.6359L19.4024 95.9299C17.8504 103.624 23.0804 111.016 30.5844 111.726L101.628 116.878C107.512 117.44 112.968 115.956 114.768 110.084L125.444 75.1179C122.306 74.9159 118.48 74.6459 117.254 74.4199L117.252 74.4219Z" fill="#FFD5DA"/>
<path d="M49.688 81.6441C64.7731 81.6441 77.002 69.4152 77.002 54.3301C77.002 39.245 64.7731 27.0161 49.688 27.0161C34.6029 27.0161 22.374 39.245 22.374 54.3301C22.374 69.4152 34.6029 81.6441 49.688 81.6441Z" fill="white"/>
<path d="M49.688 77.5483C62.5109 77.5483 72.906 67.1533 72.906 54.3303C72.906 41.5074 62.5109 31.1123 49.688 31.1123C36.865 31.1123 26.47 41.5074 26.47 54.3303C26.47 67.1533 36.865 77.5483 49.688 77.5483Z" fill="#FFF3CD"/>
<path d="M90.782 121.934C110.821 121.934 127.066 105.689 127.066 85.6502C127.066 65.6111 110.821 49.3662 90.782 49.3662C70.7429 49.3662 54.498 65.6111 54.498 85.6502C54.498 105.689 70.7429 121.934 90.782 121.934Z" fill="white"/>
<path d="M90.782 117.298C108.261 117.298 122.43 103.129 122.43 85.65C122.43 68.1712 108.261 54.002 90.782 54.002C73.3033 54.002 59.134 68.1712 59.134 85.65C59.134 103.129 73.3033 117.298 90.782 117.298Z" fill="#FFF3CD"/>
<path d="M82.6382 98.4023V105.606C82.6382 110.104 86.2862 113.752 90.7842 113.752C95.2822 113.752 98.9302 110.104 98.9302 105.606V98.4023L90.7842 99.5503L82.6382 98.4023Z" fill="#FF9BA7"/>
<path d="M34.6561 55.5301C32.2841 54.2701 29.3401 55.1721 28.0801 57.5441C27.7281 58.2081 27.6261 58.6681 27.5921 59.3961C27.5581 58.6681 27.4561 58.2081 27.1041 57.5441C25.8441 55.1721 22.9001 54.2701 20.5281 55.5301C19.1061 56.2841 18.1361 57.7281 17.9721 59.3281C17.6521 62.4321 20.7661 64.3561 22.8221 66.1381C24.3941 67.5001 25.9821 68.8441 27.6041 70.1741C29.0261 68.9921 30.4381 67.7961 31.8401 66.5881C32.8621 65.7081 33.8801 64.8241 34.8761 63.9161C36.2221 62.6881 37.3161 61.5681 37.2341 59.6221C37.1621 57.9121 36.1681 56.3321 34.6561 55.5301Z" fill="#FF9BA7"/>
<path d="M22.912 119.046C22.912 116.956 21.218 115.262 19.128 115.262C17.038 115.262 15.344 116.956 15.344 119.046C15.344 121.136 17.038 122.83 19.128 122.83C21.218 122.83 22.912 121.136 22.912 119.046Z" stroke="#FFDA6A" stroke-width="2.06713" stroke-linecap="round" stroke-linejoin="round"/>
<path d="M134.718 115.262C134.718 113.172 133.024 111.478 130.934 111.478C128.844 111.478 127.15 113.172 127.15 115.262C127.15 117.352 128.844 119.046 130.934 119.046C133.024 119.046 134.718 117.352 134.718 115.262Z" stroke="#FFDA6A" stroke-width="2.06713" stroke-linecap="round" stroke-linejoin="round"/>
<path d="M76.7421 14.5501C76.7421 12.4601 75.0481 10.7661 72.9581 10.7661C70.8681 10.7661 69.1741 12.4601 69.1741 14.5501C69.1741 16.6401 70.8681 18.3341 72.9581 18.3341C75.0481 18.3341 76.7421 16.6401 76.7421 14.5501Z" stroke="#FFDA6A" stroke-width="2.06713" stroke-linecap="round" stroke-linejoin="round"/>
<path d="M127.084 38.8323L120.688 32.4463" stroke="white" stroke-width="2.06713" stroke-linecap="round" stroke-linejoin="round"/>
<path d="M120.622 38.8959L127.15 32.3799" stroke="white" stroke-width="2.06713" stroke-linecap="round" stroke-linejoin="round"/>
<path d="M67.5239 136.128L61.1279 129.742" stroke="white" stroke-width="2.06713" stroke-linecap="round" stroke-linejoin="round"/>
<path d="M61.1279 136.128L67.5239 129.742" stroke="white" stroke-width="2.06713" stroke-linecap="round" stroke-linejoin="round"/>
<path d="M17.948 34.3779H8.91797" stroke="white" stroke-width="2.06713" stroke-linecap="round" stroke-linejoin="round"/>
<path d="M13.4299 38.8962V29.8662" stroke="white" stroke-width="2.06713" stroke-linecap="round" stroke-linejoin="round"/>
<path d="M125.841 94.1904C130.412 74.8293 118.422 55.4288 99.0605 50.8581C79.6994 46.2874 60.2988 58.2774 55.7281 77.6385C51.1574 96.9996 63.1474 116.4 82.5085 120.971C101.87 125.542 121.27 113.552 125.841 94.1904Z" stroke="#2A3539" stroke-width="2.06713" stroke-linecap="round" stroke-linejoin="round"/>
<path d="M110.47 91.9458C105.27 96.6698 98.3639 99.5499 90.7859 99.5499C83.2079 99.5499 76.2999 96.6698 71.0999 91.9438" stroke="#2A3539" stroke-width="2.06713" stroke-linecap="round" stroke-linejoin="round"/>
<path d="M72.9579 91.0601L69.2639 92.8261" stroke="#2A3539" stroke-width="2.06713" stroke-linecap="round" stroke-linejoin="round"/>
<path d="M108.612 91.0601L112.306 92.8261" stroke="#2A3539" stroke-width="2.06713" stroke-linecap="round" stroke-linejoin="round"/>
<path d="M82.6399 98.4019V105.606C82.6399 110.104 86.2879 113.752 90.7859 113.752C95.2839 113.752 98.9319 110.104 98.9319 105.606V98.4019" stroke="#2A3539" stroke-width="2.06713" stroke-linecap="round" stroke-linejoin="round"/>
<path d="M90.7859 99.5518V104.824" stroke="#2A3539" stroke-width="2.06713" stroke-linecap="round" stroke-linejoin="round"/>
<path d="M71.0999 83.5499L78.0039 79.8099L71.0999 76.0679" stroke="#2A3539" stroke-width="2.06713" stroke-linecap="round" stroke-linejoin="round"/>
<path d="M110.47 83.5499L103.566 79.8099L110.47 76.0679" stroke="#2A3539" stroke-width="2.06713" stroke-linecap="round" stroke-linejoin="round"/>
<path d="M49.6901 81.6444C42.1401 81.6444 35.3061 78.5824 30.3621 73.6304" stroke="#2A3539" stroke-width="2.06713" stroke-linecap="round" stroke-linejoin="round"/>
<path d="M22.606 50.7782C24.346 37.3702 35.81 27.0142 49.692 27.0142C61.942 27.0142 72.308 35.0782 75.772 46.1882" stroke="#2A3539" stroke-width="2.06713" stroke-linecap="round" stroke-linejoin="round"/>
<path d="M34.426 49.3664C35.012 48.3544 36.108 47.6724 37.362 47.6724C38.532 47.6724 39.564 48.2664 40.174 49.1664" stroke="#2A3539" stroke-width="2.06713" stroke-linecap="round" stroke-linejoin="round"/>
<path d="M64.956 49.3664C64.37 48.3544 63.274 47.6724 62.02 47.6724C60.85 47.6724 59.818 48.2664 59.208 49.1664" stroke="#2A3539" stroke-width="2.06713" stroke-linecap="round" stroke-linejoin="round"/>
<path d="M51.996 69.4842C51.368 69.9202 50.608 70.1742 49.786 70.1742C47.644 70.1742 45.908 68.4382 45.908 66.2962C45.908 65.2322 46.336 64.2682 47.032 63.5662C47.366 63.2302 47.76 62.9542 48.196 62.7582C47.758 62.5642 47.364 62.2882 47.03 61.9522C46.336 61.2522 45.906 60.2862 45.906 59.2222C45.906 57.0802 47.642 55.3442 49.784 55.3442C50.606 55.3442 51.366 55.6002 51.994 56.0342" stroke="#2A3539" stroke-width="2.06713" stroke-linecap="round" stroke-linejoin="round"/>
<path d="M34.658 55.5301C32.286 54.2701 29.342 55.1721 28.082 57.5441C27.73 58.2081 27.628 58.6681 27.594 59.3961C27.56 58.6681 27.458 58.2081 27.106 57.5441C25.846 55.1721 22.902 54.2701 20.53 55.5301C19.108 56.2841 18.138 57.7281 17.974 59.3281C17.654 62.4321 20.768 64.3561 22.824 66.1381C24.396 67.5001 25.984 68.8441 27.606 70.1741C29.028 68.9921 30.44 67.7961 31.842 66.5881C32.864 65.7081 33.882 64.8241 34.878 63.9161C36.224 62.6881 37.318 61.5681 37.236 59.6221C37.164 57.9121 36.17 56.3321 34.658 55.5301Z" stroke="#2A3539" stroke-width="2.06713" stroke-linecap="round" stroke-linejoin="round"/>
</svg>
