<svg width="144" height="144" viewBox="0 0 144 144" fill="none" xmlns="http://www.w3.org/2000/svg">
<path opacity="0.5" d="M117.297 73.4175C115.115 73.0238 122.776 70.785 122.776 70.785L115.362 69.2213L121.651 68.2313L127.568 67.2975L127.985 65.9475C122.45 65.3513 114.113 64.4513 114.035 64.4513C113.956 64.4513 121.91 62.9663 129.188 61.9875L129.425 61.2225C131.652 53.9213 127.456 46.1813 120.312 44.4263L46.5683 26.3588C39.6833 24.6713 32.8208 29.2275 31.3695 36.45L27.5783 55.305C34.0246 55.08 40.0095 57.2175 41.5395 57.1388C41.6745 57.1275 41.7871 57.1163 41.8433 57.1163C41.9671 57.1163 41.8433 57.1163 41.5395 57.1388C39.7845 57.3188 32.1458 58.59 26.7233 59.5013L26.4646 60.795C29.1646 60.9638 30.7958 61.1663 31.2795 61.155C46.6695 60.795 28.1408 64.3725 25.4858 65.6325L19.4445 94.9275C17.892 102.623 23.1233 110.014 30.627 110.723L101.671 115.875C107.555 116.438 113.011 114.953 114.811 109.08L125.487 74.115C122.348 73.9125 118.523 73.6425 117.297 73.4175Z" fill="#88FFD4"/>
<path d="M51.8444 80.3359C46.4331 80.3359 42.0456 75.9484 42.0456 70.5372L40.3806 63.4947L54.3644 56.7222L63.2519 61.5484L61.6319 70.5484C61.6319 75.9597 57.2444 80.3472 51.8331 80.3472L51.8444 80.3359Z" fill="white"/>
<path d="M93.7166 54.2021C88.3054 54.2021 83.9179 49.8146 83.9179 44.4034L82.4104 38.6096L96.2479 30.5884L106.575 38.1596L104.978 44.3021C104.978 49.7134 99.1391 54.2134 93.7279 54.2134L93.7166 54.2021Z" fill="white"/>
<path d="M45.8594 86.2422H57.8519C69.2032 86.2422 78.4057 95.4559 78.4057 106.796V119.283H25.3057V106.796C25.3057 95.4447 34.5194 86.2422 45.8594 86.2422Z" fill="white"/>
<path d="M120.604 94.2522H74.5919L67.4932 88.3122V81.7535C67.4932 70.4022 76.6957 61.1997 88.0469 61.1997H100.039C111.391 61.1997 120.593 70.4022 120.593 81.7535V94.241L120.604 94.2522Z" fill="white"/>
<path d="M117.229 94.8375H75.2892L67.5042 88.3237V86.5237C67.5042 74.475 77.2692 64.71 89.3179 64.71H99.6117C109.343 64.71 117.229 72.5962 117.229 82.3275V94.8375Z" fill="#34F5AF"/>
<path d="M107.667 73.5972L115.744 89.9097L133.047 91.8334L120.728 104.872L123.349 121.117L107.667 114.086L91.9731 121.038L94.5944 104.895L82.2869 91.8334L99.5894 89.9097L107.667 73.5972Z" fill="#FFF3CD"/>
<path d="M47.1307 79.5824C47.1307 79.5824 42.0344 81.2699 38.8507 80.9324C35.6669 80.5949 31.2119 78.8849 31.2119 78.8849C31.2119 78.8849 36.3644 76.1962 35.6219 68.9962C34.8794 61.7962 31.7069 49.5111 38.8507 46.7661C45.9944 44.0211 49.6957 40.7137 55.9507 42.1537C62.2057 43.5937 68.0219 50.6811 68.0219 50.6811L70.2494 61.2111L68.4044 70.0086L68.6519 75.0262L72.4094 79.2674C72.4094 79.2674 62.6219 83.2949 56.4907 79.6949C56.4907 79.6949 60.6644 76.6461 61.1594 73.5974C61.6544 70.5486 63.2632 61.5374 63.2632 61.5374C63.2632 61.5374 54.2857 59.6811 54.3757 56.7111C54.4657 53.7411 52.7669 62.0886 44.7232 62.3136C36.6794 62.5386 40.3919 63.4949 40.3919 63.4949C40.3919 63.4949 42.1469 77.8949 47.1419 79.5936L47.1307 79.5824Z" fill="#FFF3CD"/>
<path d="M90.0267 55.6986C90.0267 55.6986 84.9304 57.3861 81.7467 57.0486C78.5629 56.7111 74.1079 55.0011 74.1079 55.0011C74.1079 55.0011 77.7979 52.4474 77.0554 45.2474C76.3129 38.0474 72.9995 29.3502 80.9995 22C86.0198 17.3875 92.5917 16.8299 98.8467 18.2699C105.09 19.7099 109 26 109 26L111.3 36.4791L110 45.2474L111.548 51.1424L114 54.8886C114 54.8886 103.875 58.4886 97.7329 54.8886C97.7329 54.8886 102.75 51.3224 103.234 48.2736C103.718 45.2249 106.148 37.6536 106.148 37.6536C106.148 37.6536 96.9095 34.97 96.9995 32C97.0895 29.03 95.9995 34 87.9995 37C85.9995 38 83.2767 39.6111 83.2767 39.6111C83.2767 39.6111 85.0317 54.0111 90.0267 55.7099V55.6986Z" fill="#FFF3CD"/>
<path d="M45.0831 89.4824H58.6506C67.6731 89.4824 74.9968 96.8062 74.9968 105.829V118.372C74.9968 118.642 74.7718 118.867 74.5018 118.867H29.2318C28.9618 118.867 28.7368 118.642 28.7368 118.372V105.829C28.7368 96.8062 36.0606 89.4824 45.0831 89.4824Z" fill="#34F5AF"/>
<path d="M95.9219 119.295L91.9731 121.038L94.5944 104.895L82.2869 91.8334L99.5894 89.9097L107.667 73.5972L107.464 82.3834L102.256 93.0259L90.1056 94.4547L98.4194 103.533L95.9219 119.295Z" fill="white"/>
<path d="M25.3057 118.429V106.369C25.3057 95.2539 34.3169 86.2427 45.4319 86.2427H58.3019C69.2257 86.2427 78.1132 94.9389 78.4169 105.784V118.429" stroke="#2A3539" stroke-width="2.07635" stroke-linecap="round" stroke-linejoin="round"/>
<path d="M63.1509 80.8088C67.9997 81.5626 72.3984 78.8963 72.3984 78.8963C68.1122 77.1413 67.5272 73.1813 68.8547 67.6126C71.8134 55.2488 66.6947 42.4126 51.7997 42.4126C36.9047 42.4126 31.7859 55.2488 34.7447 67.6126C36.0722 73.1813 35.4872 77.1413 31.2009 78.8963C31.2009 78.8963 35.5997 81.5738 40.4484 80.8088" stroke="#2A3539" stroke-width="2.07635" stroke-linecap="round" stroke-linejoin="round"/>
<path d="M55.4106 53.4712C52.9131 59.8274 46.2644 64.0912 38.8394 63.5174" stroke="#2A3539" stroke-width="2.07635" stroke-linecap="round" stroke-linejoin="round"/>
<path d="M64.7478 62.3139C60.259 62.2352 56.3778 59.7602 54.364 56.1489" stroke="#2A3539" stroke-width="2.07635" stroke-linecap="round" stroke-linejoin="round"/>
<path d="M62.3631 66.8477C61.6656 74.4527 57.1881 80.3252 51.7544 80.3252C46.7144 80.3252 42.4731 75.2514 41.3481 68.4227" stroke="#2A3539" stroke-width="2.07635" stroke-linecap="round" stroke-linejoin="round"/>
<path d="M74.1082 66.4543C77.6407 63.3943 82.2419 61.5381 87.2819 61.5381H100.152C111.076 61.5381 119.963 70.2343 120.267 81.0793V84.4993" stroke="#2A3539" stroke-width="2.07635" stroke-linecap="round" stroke-linejoin="round"/>
<path d="M105.012 56.1043C109.861 56.858 114.26 54.1918 114.26 54.1918C109.973 52.4368 109.388 48.4768 110.716 42.908C113.675 30.5443 108.556 17.708 93.6608 17.708C78.7658 17.708 73.647 30.5443 76.6058 42.908C77.9333 48.4768 77.3483 52.4368 73.062 54.1918C73.062 54.1918 77.4608 56.8693 82.3095 56.1043" stroke="#2A3539" stroke-width="2.07635" stroke-linecap="round" stroke-linejoin="round"/>
<path d="M97.2724 28.7666C94.7749 35.1229 88.1262 39.3866 80.7012 38.8129" stroke="#2A3539" stroke-width="2.07635" stroke-linecap="round" stroke-linejoin="round"/>
<path d="M106.609 37.6093C102.121 37.5306 98.2393 35.0556 96.2256 31.4443" stroke="#2A3539" stroke-width="2.07635" stroke-linecap="round" stroke-linejoin="round"/>
<path d="M104.225 42.1543C103.527 49.7593 99.05 55.6318 93.6162 55.6318C88.5762 55.6318 84.335 50.558 83.21 43.7293" stroke="#2A3539" stroke-width="2.07635" stroke-linecap="round" stroke-linejoin="round"/>
<path d="M36.9045 106.774V118.429" stroke="#2A3539" stroke-width="2.07635" stroke-linecap="round" stroke-linejoin="round"/>
<path d="M65.502 106.774V118.429" stroke="#2A3539" stroke-width="2.07635" stroke-linecap="round" stroke-linejoin="round"/>
<path d="M107.667 73.5977L115.745 89.9102L133.047 91.8339L120.729 104.873L123.35 121.118L107.667 114.086L91.9736 121.039L94.5948 104.895L82.2874 91.8339L99.5899 89.9102L107.667 73.5977Z" stroke="#2A3539" stroke-width="2.07635" stroke-linecap="round" stroke-linejoin="round"/>
<path d="M80.7009 72.8442V84.4992" stroke="#2A3539" stroke-width="2.07635" stroke-linecap="round" stroke-linejoin="round"/>
<path d="M18.5557 43.7402V52.8527" stroke="white" stroke-width="2.07635" stroke-linecap="round" stroke-linejoin="round"/>
<path d="M23.112 48.2964H13.9995" stroke="white" stroke-width="2.07635" stroke-linecap="round" stroke-linejoin="round"/>
<path d="M106.126 126.709L112.561 133.144" stroke="white" stroke-width="2.07635" stroke-linecap="round" stroke-linejoin="round"/>
<path d="M106.126 133.144L112.561 126.709" stroke="white" stroke-width="2.07635" stroke-linecap="round" stroke-linejoin="round"/>
<path d="M123.125 27.3716L129.56 33.8066" stroke="white" stroke-width="2.07635" stroke-linecap="round" stroke-linejoin="round"/>
<path d="M123.125 33.8066L129.56 27.3716" stroke="white" stroke-width="2.07635" stroke-linecap="round" stroke-linejoin="round"/>
<path d="M48.9866 134.157C51.0929 134.157 52.8004 132.449 52.8004 130.343C52.8004 128.237 51.0929 126.529 48.9866 126.529C46.8803 126.529 45.1729 128.237 45.1729 130.343C45.1729 132.449 46.8803 134.157 48.9866 134.157Z" stroke="#FFDA6A" stroke-width="2.07635" stroke-linecap="round" stroke-linejoin="round"/>
<path d="M63.2522 21.5103C65.3585 21.5103 67.066 19.8028 67.066 17.6966C67.066 15.5903 65.3585 13.8828 63.2522 13.8828C61.1459 13.8828 59.4385 15.5903 59.4385 17.6966C59.4385 19.8028 61.1459 21.5103 63.2522 21.5103Z" stroke="#FFDA6A" stroke-width="2.07635" stroke-linecap="round" stroke-linejoin="round"/>
</svg>
