<svg width="144" height="144" viewBox="0 0 144 144" fill="none" xmlns="http://www.w3.org/2000/svg">
<path opacity="0.5" d="M117.259 73.14C115.079 72.74 122.739 70.5 122.739 70.5L115.319 68.94L121.599 67.96L127.519 67.02L127.939 65.68C122.399 65.08 114.059 64.18 113.979 64.18C113.899 64.18 121.859 62.7 129.139 61.72L129.379 60.96C131.599 53.66 127.419 45.92 120.259 44.16L46.5192 26.08C39.6392 24.4 32.7792 28.94 31.3192 36.18L27.5192 55.04C33.9592 54.82 39.9592 56.96 41.4792 56.88C41.6192 56.88 41.7192 56.86 41.7792 56.86C41.8992 56.86 41.7792 56.86 41.4792 56.88C39.7192 57.06 32.0792 58.34 26.6592 59.24L26.3992 60.54C29.0992 60.7 30.7392 60.92 31.2192 60.9C46.5992 60.54 28.0792 64.12 25.4192 65.38L19.3792 94.68C17.8192 102.38 23.0592 109.76 30.5592 110.48L101.599 115.64C107.479 116.2 112.939 114.72 114.739 108.84L125.419 73.88C122.279 73.68 118.459 73.4 117.219 73.18L117.259 73.14Z" fill="#FFD5DA"/>
<path d="M48.8193 74.1398L70.6193 50.3798C74.8593 45.7598 79.8393 41.8598 85.3593 38.8598L98.2393 31.8398L113.199 47.1598L108.459 59.1398L102.879 67.2998L71.2593 96.5798L48.8193 74.1398Z" fill="#FFF3CD"/>
<path d="M28.2395 75.8598L48.8195 55.2798H65.5795L41.3395 81.6198L28.2395 75.8598Z" fill="#FF9BA7"/>
<path d="M90.1195 79.8398V96.5798L69.7795 116.92L64.2595 103.64L90.1195 79.8398Z" fill="#FF9BA7"/>
<path d="M81.7993 72.5796C86.7589 72.5796 90.7793 68.5591 90.7793 63.5996C90.7793 58.6401 86.7589 54.6196 81.7993 54.6196C76.8398 54.6196 72.8193 58.6401 72.8193 63.5996C72.8193 68.5591 76.8398 72.5796 81.7993 72.5796Z" fill="white"/>
<path d="M98.2192 33.4798L118.699 28.3398L113.199 48.7998L98.2192 33.4798Z" fill="#FF9BA7"/>
<path d="M48.8194 74.1396L71.2594 96.5797L64.2594 103.64L41.3394 81.6197L48.8194 74.1396Z" fill="white"/>
<path d="M44.9795 85.6597L39.4595 90.9797L54.4195 105.94L60.0395 100.32L44.9795 85.6597Z" fill="#FF9BA7"/>
<path d="M52.5793 77.8999C52.5793 77.8999 69.4393 55.6199 83.9793 44.6999C86.8993 42.4999 98.9193 35.3999 100.919 35.5799L97.3393 31.8599C97.3393 31.8599 80.8393 38.6599 71.2393 49.0999C61.6393 59.5399 48.7993 74.1599 48.7993 74.1599L52.5593 77.9199L52.5793 77.8999Z" fill="white"/>
<path d="M45.3394 77.04L68.1994 99.5L63.4994 104.24L40.5994 82.22L45.3394 77.04Z" fill="#FFF3CD"/>
<path d="M40.9394 98.6601C40.9394 98.6601 30.7194 94.4401 27.5394 99.0001C24.3594 103.56 22.1794 121.64 18.3594 122.82C14.5394 124 18.4194 125.46 22.9594 123.98C27.4994 122.5 31.7994 118.48 33.7794 115.94C35.7594 113.4 37.3594 113.4 38.1994 114.32C39.0394 115.24 41.8994 120.04 39.0594 121.6C36.2194 123.16 43.6394 122.2 46.2394 116.76C48.8394 111.32 47.5194 106.56 47.5194 106.56C47.5194 106.56 42.0394 109.1 39.4394 108.32C36.8394 107.54 35.0994 108.44 34.4594 108.74C33.8194 109.04 35.3194 99.0601 38.1394 98.8601" fill="#FF9BA7"/>
<path d="M38.9595 97.1997C38.9595 97.1997 47.9395 103 47.6595 105.26C47.3795 107.52 38.2595 107.02 36.7395 107.72C35.2195 108.42 33.7995 109.06 33.7995 109.06C33.7995 109.06 32.5395 104.6 35.8395 102.2C39.1395 99.7997 38.9395 97.1997 38.9395 97.1997H38.9595Z" fill="#FFF3CD"/>
<path d="M86.4609 124.1V133.42" stroke="#F96073" stroke-width="2.06713" stroke-linecap="round" stroke-linejoin="round"/>
<path d="M81.8008 128.76H91.1208" stroke="#F96073" stroke-width="2.06713" stroke-linecap="round" stroke-linejoin="round"/>
<path d="M129.301 32.2998L135.881 38.8998" stroke="#F96073" stroke-width="2.06713" stroke-linecap="round" stroke-linejoin="round"/>
<path d="M129.301 38.8998L135.881 32.2998" stroke="white" stroke-width="2.06713" stroke-linecap="round" stroke-linejoin="round"/>
<path d="M17.7207 42.2197L24.3007 48.7997" stroke="white" stroke-width="2.06713" stroke-linecap="round" stroke-linejoin="round"/>
<path d="M17.7207 48.7997L24.3007 42.2197" stroke="white" stroke-width="2.06713" stroke-linecap="round" stroke-linejoin="round"/>
<path d="M72.1007 19.1198C74.2546 19.1198 76.0007 17.3737 76.0007 15.2198C76.0007 13.0659 74.2546 11.3198 72.1007 11.3198C69.9468 11.3198 68.2007 13.0659 68.2007 15.2198C68.2007 17.3737 69.9468 19.1198 72.1007 19.1198Z" stroke="#FFDA6A" stroke-width="2.06713" stroke-linecap="round" stroke-linejoin="round"/>
<path d="M125.381 110.92C127.535 110.92 129.281 109.174 129.281 107.02C129.281 104.866 127.535 103.12 125.381 103.12C123.227 103.12 121.481 104.866 121.481 107.02C121.481 109.174 123.227 110.92 125.381 110.92Z" stroke="#FFDA6A" stroke-width="2.06713" stroke-linecap="round" stroke-linejoin="round"/>
<path d="M63.7808 104.06L41.3408 81.6197L72.1608 48.1197C80.1208 39.4797 90.5008 33.4597 101.961 30.8797L118.701 26.6997L114.521 43.4397C111.941 54.8997 105.921 65.2797 97.2808 73.2397L63.7808 104.06Z" stroke="#2A3539" stroke-width="2.06713" stroke-linecap="round" stroke-linejoin="round"/>
<path d="M45.0729 85.3602L39.4585 90.9746L54.4209 105.937L60.0353 100.323L45.0729 85.3602Z" stroke="#2A3539" stroke-width="2.06713" stroke-linecap="round" stroke-linejoin="round"/>
<path d="M41.3407 81.4598L28.2407 75.8598L48.8207 55.2798H63.9407" stroke="#2A3539" stroke-width="2.06713" stroke-linecap="round" stroke-linejoin="round"/>
<path d="M90.1207 81.4595V96.5795L69.5607 117.159L63.9407 104.059" stroke="#2A3539" stroke-width="2.06713" stroke-linecap="round" stroke-linejoin="round"/>
<path d="M87.6806 69.4999C84.4206 72.7599 79.1606 72.7599 75.9006 69.4999C72.6406 66.2399 72.6406 60.9799 75.9006 57.7199C79.1606 54.4599 84.4206 54.4599 87.6806 57.7199C90.9406 60.9799 90.9406 66.2399 87.6806 69.4999Z" stroke="#2A3539" stroke-width="2.06713" stroke-linecap="round" stroke-linejoin="round"/>
<path d="M48.8208 74.1396L71.2608 96.5797" stroke="#2A3539" stroke-width="2.06713" stroke-linecap="round" stroke-linejoin="round"/>
<path d="M98.2207 32.1997L113.201 47.1797" stroke="#2A3539" stroke-width="2.06713" stroke-linecap="round" stroke-linejoin="round"/>
<path d="M46.6808 115.96C45.1008 119.16 42.2208 121.6 38.2008 122.1C41.9408 120.66 42.1008 113.16 36.2608 113.36C29.7008 113.58 33.7008 126.28 16.8008 123.78C27.5008 118.42 17.1208 103.7 30.6408 98.1398C34.3808 96.5998 37.9608 97.0798 40.9408 98.6598" stroke="#2A3539" stroke-width="2.06713" stroke-linecap="round" stroke-linejoin="round"/>
<path d="M46.0208 103.74C47.1208 104.84 47.8208 107.18 47.9608 108.48C48.0008 108.8 48.0208 109.14 48.0408 109.48" stroke="#2A3539" stroke-width="2.06713" stroke-linecap="round" stroke-linejoin="round"/>
<path d="M40.0808 98.2397C36.0408 99.5197 33.5208 104.56 33.8208 109.04C37.5808 105.48 40.2208 110.64 47.3808 106.1" stroke="#2A3539" stroke-width="2.06713" stroke-linecap="round" stroke-linejoin="round"/>
</svg>
