<svg width="144" height="144" viewBox="0 0 144 144" fill="none" xmlns="http://www.w3.org/2000/svg">
<g opacity="0.5">
<path d="M119.081 70.4474C116.898 70.0649 124.559 67.9162 124.559 67.9162L117.146 66.4199L123.434 65.4749L129.352 64.5862L129.768 63.2924C124.233 62.7187 115.897 61.8524 115.818 61.8524C115.739 61.8524 123.693 60.4349 130.972 59.4899L131.208 58.7587C133.436 51.7612 129.239 44.3587 122.096 42.6824L48.3632 25.3687C41.4782 23.7487 34.6157 28.1137 33.1645 35.0324L29.3732 53.0887C35.8195 52.8749 41.8045 54.9224 43.3345 54.8437C43.4695 54.8324 43.582 54.8212 43.6382 54.8212C43.762 54.8212 43.6382 54.8212 43.3345 54.8437C41.5795 55.0124 33.9407 56.2274 28.5182 57.1049L28.2595 58.3424C30.9595 58.5112 32.5907 58.6912 33.0745 58.6799C48.4645 58.3312 29.9357 61.7624 27.2807 62.9662L21.2395 91.6987C19.687 99.0674 24.9182 106.144 32.422 106.83L103.466 113.287C109.349 113.827 114.806 110.194 116.606 104.569L127.282 71.0887C124.143 70.8974 120.318 70.6387 119.092 70.4249L119.081 70.4474Z" fill="#88FFD4"/>
</g>
<path d="M75.5441 120.296C98.9554 120.296 117.934 101.317 117.934 77.9061C117.934 54.4948 98.9554 35.5161 75.5441 35.5161C52.1327 35.5161 33.1541 54.4948 33.1541 77.9061C33.1541 101.317 52.1327 120.296 75.5441 120.296Z" fill="#34F5AF"/>
<path d="M75.285 114.142C95.5835 114.142 112.039 97.6871 112.039 77.3885C112.039 57.09 95.5835 40.6348 75.285 40.6348C54.9865 40.6348 38.5312 57.09 38.5312 77.3885C38.5312 97.6871 54.9865 114.142 75.285 114.142Z" fill="white"/>
<path d="M75.2853 105.975C90.7872 105.975 103.354 93.4081 103.354 77.9062C103.354 62.4042 90.7872 49.8374 75.2853 49.8374C59.7834 49.8374 47.2166 62.4042 47.2166 77.9062C47.2166 93.4081 59.7834 105.975 75.2853 105.975Z" fill="#FFF3CD"/>
<path d="M75.2853 84.8811C79.1375 84.8811 82.2603 81.7583 82.2603 77.9062C82.2603 74.054 79.1375 70.9312 75.2853 70.9312C71.4331 70.9312 68.3103 74.054 68.3103 77.9062C68.3103 81.7583 71.4331 84.8811 75.2853 84.8811Z" fill="#34F5AF"/>
<path d="M79.7518 16.0537H70.5493V37.3837H79.7518V16.0537Z" fill="#34F5AF"/>
<path d="M81.9001 16.0537H68.5014C65.8856 16.0537 63.7651 18.1742 63.7651 20.79C63.7651 23.4057 65.8856 25.5262 68.5014 25.5262H81.9001C84.5159 25.5262 86.6364 23.4057 86.6364 20.79C86.6364 18.1742 84.5159 16.0537 81.9001 16.0537Z" fill="#34F5AF"/>
<path d="M80.0214 25.5376H71.0776V35.2913H80.0214V25.5376Z" fill="#FFF3CD"/>
<path d="M18.2472 106.11V115.211" stroke="white" stroke-width="2.07635" stroke-linecap="round" stroke-linejoin="round"/>
<path d="M22.7924 110.666H13.6912" stroke="white" stroke-width="2.07635" stroke-linecap="round" stroke-linejoin="round"/>
<path d="M117.922 117.889L124.369 124.335" stroke="white" stroke-width="2.07635" stroke-linecap="round" stroke-linejoin="round"/>
<path d="M117.922 124.335L124.369 117.889" stroke="white" stroke-width="2.07635" stroke-linecap="round" stroke-linejoin="round"/>
<path d="M108.821 17.5723L115.256 24.0185" stroke="white" stroke-width="2.07635" stroke-linecap="round" stroke-linejoin="round"/>
<path d="M108.821 24.0185L115.256 17.5723" stroke="white" stroke-width="2.07635" stroke-linecap="round" stroke-linejoin="round"/>
<path d="M71.9998 136.958C74.1061 136.958 75.8135 135.25 75.8135 133.144C75.8135 131.038 74.1061 129.33 71.9998 129.33C69.8935 129.33 68.186 131.038 68.186 133.144C68.186 135.25 69.8935 136.958 71.9998 136.958Z" stroke="#FFDA6A" stroke-width="2.07635" stroke-linecap="round" stroke-linejoin="round"/>
<path d="M26.9439 25.9088C29.0502 25.9088 30.7576 24.2013 30.7576 22.095C30.7576 19.9887 29.0502 18.2812 26.9439 18.2812C24.8376 18.2812 23.1301 19.9887 23.1301 22.095C23.1301 24.2013 24.8376 25.9088 26.9439 25.9088Z" stroke="#FFDA6A" stroke-width="2.07635" stroke-linecap="round" stroke-linejoin="round"/>
<path d="M24.795 53.9663H53.9663" stroke="#2A3539" stroke-width="2.07635" stroke-linecap="round" stroke-linejoin="round"/>
<path d="M13.6912 72.9111H52.9424" stroke="#2A3539" stroke-width="2.07635" stroke-linecap="round" stroke-linejoin="round"/>
<path d="M22.1396 91.8677H38.6771H55.2259" stroke="#2A3539" stroke-width="2.07635" stroke-linecap="round" stroke-linejoin="round"/>
<path d="M38.3401 98.9663C41.1301 103.793 44.8426 108.023 49.2301 111.409" stroke="#2A3539" stroke-width="2.07635" stroke-linecap="round" stroke-linejoin="round"/>
<path d="M32.7036 80.021C32.9286 84.0935 33.7161 88.0085 35.0099 91.6872" stroke="#2A3539" stroke-width="2.07635" stroke-linecap="round" stroke-linejoin="round"/>
<path d="M35.9887 61.0649C34.425 64.7774 33.3675 68.7487 32.9062 72.9112" stroke="#2A3539" stroke-width="2.07635" stroke-linecap="round" stroke-linejoin="round"/>
<path d="M80.0211 35.291C86.9849 36.056 93.4311 38.5085 98.9774 42.2098" stroke="#2A3539" stroke-width="2.07635" stroke-linecap="round" stroke-linejoin="round"/>
<path d="M70.549 32.3437V25.5374H68.1752C65.554 25.5374 63.439 23.4112 63.439 20.8012C63.439 18.1799 65.5652 16.0649 68.1752 16.0649H82.384C85.0052 16.0649 87.1202 18.1912 87.1202 20.8012C87.1202 23.4224 84.994 25.5374 82.384 25.5374H79.9765L79.999 31.0724" stroke="#2A3539" stroke-width="2.07635" stroke-linecap="round" stroke-linejoin="round"/>
<path d="M42.8176 50.0173C49.6801 41.9735 59.4676 36.5173 70.5489 35.291" stroke="#2A3539" stroke-width="2.07635" stroke-linecap="round" stroke-linejoin="round"/>
<path d="M75.285 84.7576C79.2118 84.7576 82.395 81.5743 82.395 77.6476C82.395 73.7208 79.2118 70.5376 75.285 70.5376C71.3583 70.5376 68.175 73.7208 68.175 77.6476C68.175 81.5743 71.3583 84.7576 75.285 84.7576Z" stroke="#2A3539" stroke-width="2.07635" stroke-linecap="round" stroke-linejoin="round"/>
<path d="M80.6172 72.3151L98.9772 53.9663" stroke="#2A3539" stroke-width="2.07635" stroke-linecap="round" stroke-linejoin="round"/>
<path d="M115.56 42.1198L108.45 35.0098" stroke="#2A3539" stroke-width="2.07635" stroke-linecap="round" stroke-linejoin="round"/>
<path d="M104.501 46.0686L110.824 39.7461" stroke="#2A3539" stroke-width="2.07635" stroke-linecap="round" stroke-linejoin="round"/>
<path d="M104.355 46.395C119.902 60.7725 122.647 84.7238 110.16 102.319C96.3224 121.815 68.625 125.685 49.3875 111.476" stroke="#2A3539" stroke-width="2.07635" stroke-linecap="round" stroke-linejoin="round"/>
<path d="M65.6774 36.1348C75.9711 33.7385 87.0974 35.1673 96.7274 40.7585" stroke="#2A3539" stroke-width="2.07635" stroke-linecap="round" stroke-linejoin="round"/>
<path d="M59.0284 48.2738C63.7984 45.6301 69.2997 44.1226 75.1384 44.1226C82.3609 44.1226 89.0434 46.4288 94.4997 50.3326" stroke="#2A3539" stroke-width="2.07635" stroke-linecap="round" stroke-linejoin="round"/>
<path d="M102.611 58.6011C106.278 63.9448 108.416 70.4136 108.416 77.3886C108.416 95.7598 93.5209 110.655 75.1497 110.655C63.7534 110.655 53.7072 104.929 47.7109 96.1986" stroke="#2A3539" stroke-width="2.07635" stroke-linecap="round" stroke-linejoin="round"/>
</svg>
