<svg width="144" height="144" viewBox="0 0 144 144" fill="none" xmlns="http://www.w3.org/2000/svg">
<path d="M117.236 70.8189C115.054 70.4251 122.715 68.1864 122.715 68.1864L115.301 66.6226L121.59 65.6326L127.508 64.6989L127.924 63.3489C122.389 62.7526 114.053 61.8526 113.974 61.8526C113.895 61.8526 121.849 60.3676 129.128 59.3889L129.364 58.6239C131.591 51.3226 127.395 43.5826 120.251 41.8276L46.5075 23.7601C39.6225 22.0726 32.76 26.6289 31.3088 33.8514L27.5175 52.7064C33.9638 52.4814 39.9488 54.6189 41.4788 54.5401C41.6138 54.5289 41.7263 54.5176 41.7825 54.5176C41.9063 54.5176 41.7825 54.5176 41.4788 54.5401C39.7238 54.7201 32.085 55.9914 26.6625 56.9026L26.4038 58.1964C29.1038 58.3651 30.735 58.5676 31.2188 58.5564C46.6088 58.1964 28.08 61.7739 25.425 63.0339L19.3838 92.3289C17.8313 100.024 23.0625 107.415 30.5663 108.124L101.61 113.276C107.494 113.839 112.95 112.354 114.75 106.481L125.426 71.5164C122.288 71.3139 118.463 71.0439 117.236 70.8189Z" fill="#FFD5DA"/>
<path fill-rule="evenodd" clip-rule="evenodd" d="M30.3863 110.137L37.7213 110.16V129.071L53.2688 110.182H77.0738C84.2513 110.182 90.0788 104.366 90.0788 97.1772V68.8385C90.0788 61.661 84.2625 55.8335 77.0738 55.8335H30.42C23.2425 55.8335 17.415 61.6497 17.415 68.8385V97.1322C17.415 104.298 23.2088 110.115 30.375 110.137H30.3863Z" fill="white"/>
<path d="M77.0625 60.3447H30.42C25.7288 60.3447 21.915 64.1585 21.915 68.8497V97.1435C21.915 101.812 25.7175 105.626 30.3863 105.648L37.7213 105.671C40.1963 105.671 42.21 107.696 42.21 110.261V116.538L49.7813 107.336C50.6363 106.29 51.9075 105.693 53.2575 105.693H77.0625C81.7538 105.693 85.5675 101.88 85.5675 97.1885V68.8497C85.5675 64.1585 81.7538 60.3447 77.0625 60.3447Z" fill="#FF9BA7"/>
<path fill-rule="evenodd" clip-rule="evenodd" d="M111.049 82.7325L103.714 82.755V101.666L88.1662 82.7775H64.3612C57.1837 82.7775 51.3562 76.9612 51.3562 69.7725V41.4337C51.3562 34.2562 57.1724 28.4287 64.3612 28.4287H111.004C118.181 28.4287 124.009 34.245 124.009 41.4337V69.7275C124.009 76.8937 118.215 82.71 111.049 82.7325Z" fill="white"/>
<path d="M64.3724 32.9287H111.015C115.706 32.9287 119.52 36.7425 119.52 41.4337V69.7275C119.52 74.3962 115.717 78.21 111.049 78.2325L103.714 78.255C101.239 78.255 99.2249 80.28 99.2249 82.845V89.1225L91.6537 79.92C90.7987 78.8737 89.5274 78.2775 88.1774 78.2775H64.3724C59.6812 78.2775 55.8674 74.4637 55.8674 69.7725V41.4337C55.8674 36.7425 59.6812 32.9287 64.3724 32.9287Z" fill="#FFF3CD"/>
<path d="M123.052 98.2803V107.393" stroke="white" stroke-width="2.06713" stroke-linecap="round" stroke-linejoin="round"/>
<path d="M118.496 102.836H127.597" stroke="white" stroke-width="2.06713" stroke-linecap="round" stroke-linejoin="round"/>
<path d="M81.2812 122.524L87.7275 128.97" stroke="white" stroke-width="2.06713" stroke-linecap="round" stroke-linejoin="round"/>
<path d="M81.2812 128.97L87.7275 122.524" stroke="white" stroke-width="2.06713" stroke-linecap="round" stroke-linejoin="round"/>
<path d="M17.415 25.2114L23.8613 31.6577" stroke="white" stroke-width="2.06713" stroke-linecap="round" stroke-linejoin="round"/>
<path d="M17.415 31.6577L23.8613 25.2114" stroke="white" stroke-width="2.06713" stroke-linecap="round" stroke-linejoin="round"/>
<path d="M20.6438 123.998C22.7501 123.998 24.4576 122.29 24.4576 120.184C24.4576 118.078 22.7501 116.37 20.6438 116.37C18.5376 116.37 16.8301 118.078 16.8301 120.184C16.8301 122.29 18.5376 123.998 20.6438 123.998Z" stroke="#FFDA6A" stroke-width="2.06713" stroke-linecap="round" stroke-linejoin="round"/>
<path d="M88.3238 18.9224C90.43 18.9224 92.1375 17.2149 92.1375 15.1087C92.1375 13.0024 90.43 11.2949 88.3238 11.2949C86.2175 11.2949 84.51 13.0024 84.51 15.1087C84.51 17.2149 86.2175 18.9224 88.3238 18.9224Z" stroke="#FFDA6A" stroke-width="2.06713" stroke-linecap="round" stroke-linejoin="round"/>
<path d="M46.26 55.8452H30.42C23.2425 55.8452 17.415 61.6615 17.415 68.8502V71.224" stroke="#2A3539" stroke-width="2.06713" stroke-linecap="round" stroke-linejoin="round"/>
<path d="M17.415 82.1924V97.1324C17.415 104.299 23.2088 110.115 30.375 110.137L37.71 110.16V129.071L53.2575 110.182H77.0625C84.24 110.182 90.0675 104.366 90.0675 97.1774V91.8786" stroke="#2A3539" stroke-width="2.06713" stroke-linecap="round" stroke-linejoin="round"/>
<path d="M124.009 54.7875V69.7275C124.009 76.8937 118.215 82.71 111.049 82.7325L103.714 82.755V101.666L88.1663 82.7775H64.3613C57.1838 82.7775 51.3563 76.9612 51.3563 69.7725V41.4337C51.3563 34.2562 57.1726 28.4287 64.3613 28.4287H111.004C118.181 28.4287 124.009 34.245 124.009 41.4337V43.8075" stroke="#2A3539" stroke-width="2.06713" stroke-linecap="round" stroke-linejoin="round"/>
<path d="M87.1088 63.4501C87.2663 60.6376 88.9313 57.9938 91.6763 56.7113C95.6363 54.8663 97.3576 50.1526 95.5126 46.1813C93.6676 42.2101 88.9538 40.5001 84.9826 42.3451C81.0113 44.1901 79.3013 48.9038 81.1463 52.8751" stroke="#2A3539" stroke-width="2.06713" stroke-linecap="round" stroke-linejoin="round"/>
<path d="M87.0975 68.0625V70.065" stroke="#2A3539" stroke-width="2.06713" stroke-linecap="round" stroke-linejoin="round"/>
<path d="M31.0837 72.6641H44.5275" stroke="#2A3539" stroke-width="2.06713" stroke-linecap="round" stroke-linejoin="round"/>
<path d="M31.0837 94.1738H76.14" stroke="#2A3539" stroke-width="2.06713" stroke-linecap="round" stroke-linejoin="round"/>
<path d="M31.0837 83.4189H48.1387" stroke="#2A3539" stroke-width="2.06713" stroke-linecap="round" stroke-linejoin="round"/>
</svg>
