<svg width="14" height="14" viewBox="0 0 14 14" fill="none" xmlns="http://www.w3.org/2000/svg">
<path d="M8.50005 3C8.50005 3.53906 8.19537 4.03125 7.75005 4.3125C7.2813 4.57031 6.69537 4.57031 6.25005 4.3125C5.7813 4.03125 5.50005 3.53906 5.50005 3C5.50005 2.48438 5.7813 1.99219 6.25005 1.71094C6.69537 1.45312 7.2813 1.45312 7.75005 1.71094C8.19537 1.99219 8.50005 2.48438 8.50005 3ZM6.06255 5.48438C6.08599 5.48438 6.10943 5.48438 6.13287 5.50781C6.41412 5.57812 6.69537 5.625 7.00005 5.625C7.93755 5.625 8.80474 5.15625 9.32037 4.38281L9.74224 3.72656C9.95318 3.375 10.4219 3.28125 10.7735 3.51562C11.1251 3.72656 11.2188 4.19531 10.9844 4.54688L10.5626 5.20312C10.1407 5.85938 9.55474 6.375 8.87505 6.70312V12.75C8.87505 13.1719 8.52349 13.5 8.12505 13.5C7.70318 13.5 7.37505 13.1719 7.37505 12.75V10.5H6.62505V12.75C6.62505 13.1719 6.27349 13.5 5.87505 13.5C5.45318 13.5 5.12505 13.1719 5.12505 12.75V6.70312C4.44537 6.375 3.88287 5.88281 3.43755 5.22656L2.99224 4.54688C2.75787 4.21875 2.85162 3.75 3.20318 3.51562C3.55474 3.28125 4.00005 3.375 4.23443 3.72656L4.70318 4.40625C5.0313 4.89844 5.52349 5.27344 6.06255 5.48438Z" fill="#E6213A"/>
</svg>
