<svg width="18" height="18" viewBox="0 0 18 18" fill="none" xmlns="http://www.w3.org/2000/svg">
<path d="M11.0001 3C11.0001 3.71875 10.5938 4.375 10.0001 4.75C9.37507 5.09375 8.59382 5.09375 8.00007 4.75C7.37507 4.375 7.00007 3.71875 7.00007 3C7.00007 2.3125 7.37507 1.65625 8.00007 1.28125C8.59382 0.9375 9.37507 0.9375 10.0001 1.28125C10.5938 1.65625 11.0001 2.3125 11.0001 3ZM7.75007 6.3125C7.78132 6.3125 7.81257 6.3125 7.84382 6.34375C8.21882 6.4375 8.59382 6.5 9.00007 6.5C10.2501 6.5 11.4063 5.875 12.0938 4.84375L12.6563 3.96875C12.9376 3.5 13.5626 3.375 14.0313 3.6875C14.5001 3.96875 14.6251 4.59375 14.3126 5.0625L13.7501 5.9375C13.1876 6.8125 12.4063 7.5 11.5001 7.9375V16C11.5001 16.5625 11.0313 17 10.5001 17C9.93757 17 9.50007 16.5625 9.50007 16V13H8.50007V16C8.50007 16.5625 8.03132 17 7.50007 17C6.93757 17 6.50007 16.5625 6.50007 16V7.9375C5.59382 7.5 4.84382 6.84375 4.25007 5.96875L3.65632 5.0625C3.34382 4.625 3.46882 4 3.93757 3.6875C4.40632 3.375 5.00007 3.5 5.31257 3.96875L5.93757 4.875C6.37507 5.53125 7.03132 6.03125 7.75007 6.3125Z" fill="#F96073"/>
</svg>
