<svg width="18" height="18" viewBox="0 0 18 18" fill="none" xmlns="http://www.w3.org/2000/svg">
<path d="M17.8438 1.875L11.3438 8.375L12.75 9.78125C12.9062 9.9375 13 10.125 13 10.3438C13 10.7188 12.7188 11.0625 12.3125 11.125L10.625 11.4062L10.6562 11.7188C10.875 13.1562 10.375 14.625 9.34375 15.6562C8.46875 16.5312 7.28125 17 6.0625 17H0.6875C0.3125 17 0 16.6875 0 16.3125C0 16.125 0.0625 15.9375 0.1875 15.8125L2.0625 13.9375L2.53125 13.4688L3 13H2.53125C2.28125 13 2.0625 12.8438 2 12.5938C2 12.5625 2 12.5 2 12.4688C2 11.5312 2.34375 10.6562 3.03125 9.96875L3.34375 9.65625C4.375 8.625 5.84375 8.125 7.28125 8.34375L7.59375 8.375L7.875 6.6875C7.9375 6.28125 8.28125 6 8.65625 6C8.875 6 9.0625 6.09375 9.21875 6.25L10.625 7.65625L17.125 1.15625C17.3125 0.96875 17.6562 0.96875 17.8438 1.15625C18.0312 1.34375 18.0312 1.6875 17.8438 1.875ZM8.5625 8.59375L10.4062 10.4375L11.75 10.2188L8.78125 7.25L8.5625 8.59375ZM7.15625 9.34375C6 9.15625 4.875 9.5625 4.0625 10.375L3.71875 10.6875C3.375 11.0625 3.125 11.5 3.03125 12C3.40625 12.0312 3.75 12.2812 3.90625 12.625C4.0625 13 3.96875 13.4375 3.6875 13.7188L1.40625 16H6.0625C7.03125 16 7.96875 15.625 8.625 14.9375C9.4375 14.125 9.84375 13 9.65625 11.8438L9.5625 11.0938L7.90625 9.4375L7.15625 9.34375Z" fill="#8B91A3"/>
</svg>
