<svg width="18" height="18" viewBox="0 0 18 18" fill="none" xmlns="http://www.w3.org/2000/svg">
<path d="M17.6875 2.71875L11.6875 8.71875L12.7812 9.8125C12.9062 9.9375 13 10.125 13 10.3125C13 10.6875 12.6562 11 12.2812 11H11.375L8 7.625V6.71875C8 6.34375 8.3125 6 8.6875 6C8.875 6 9.0625 6.09375 9.1875 6.21875L10.2812 7.3125L16.2812 1.3125C16.6562 0.90625 17.3125 0.90625 17.6875 1.3125C18.0938 1.6875 18.0938 2.34375 17.6875 2.71875ZM10.6562 12.0625C10.75 13.4062 10.2812 14.7188 9.3125 15.6875C8.46875 16.5312 7.3125 17 6.09375 17H0.6875C0.28125 17 0 16.7188 0 16.3125C0 16.125 0.0625 15.9375 0.21875 15.8125L4.15625 12.25C4.28125 12.125 4.15625 11.9375 4 12L2.40625 12.8125C2.21875 12.9062 2 12.75 2 12.5625C2 11.5625 2.375 10.625 3.0625 9.9375L3.3125 9.6875C4.28125 8.71875 5.59375 8.25 6.9375 8.34375L10.6562 12.0625Z" fill="#35CFEA"/>
</svg>
