<svg width="64" height="64" viewBox="0 0 64 64" fill="none" xmlns="http://www.w3.org/2000/svg">
<path d="M50.9791 33.0758C50.0103 32.898 53.4147 31.9025 53.4147 31.9025L50.1169 31.2091L52.908 30.7736L55.5391 30.3558L55.7258 29.7602C53.2636 29.4936 49.5569 29.0936 49.5214 29.0936C49.4858 29.0936 53.0236 28.4358 56.2591 28.0002L56.3658 27.6625C57.3525 24.418 55.4947 20.978 52.3125 20.1958L19.548 12.1602C16.4903 11.4136 13.4414 13.4313 12.7925 16.6491L11.1036 25.0313C13.9658 24.9336 16.6325 25.8847 17.308 25.8491C17.3703 25.8491 17.4147 25.8402 17.4414 25.8402C17.4947 25.8402 17.4414 25.8402 17.308 25.8491C16.5258 25.9291 13.1303 26.498 10.7214 26.898L10.6058 27.4758C11.8058 27.5469 12.5347 27.6447 12.748 27.6358C19.5836 27.4758 11.3525 29.0669 10.1703 29.6269L7.48581 42.6491C6.79248 46.0713 9.12137 49.3513 12.4547 49.6713L44.028 51.9647C46.6414 52.2136 49.068 51.5558 49.868 48.9425L54.6147 33.4047C53.2191 33.3158 51.5214 33.1913 50.9703 33.0936L50.9791 33.0758Z" fill="#FFD5DA"/>
<path d="M52.641 26.4085C52.641 37.6085 43.5654 46.6841 32.3654 46.6841C21.1654 46.6841 12.0898 37.6085 12.0898 26.4085C12.0898 15.2085 20.2676 6.63965 31.4676 6.63965C42.6676 6.63965 52.6498 15.2085 52.6498 26.4085H52.641Z" fill="white"/>
<path d="M30.7021 41.6704C39.249 41.6704 46.1777 34.4592 46.1777 25.5637C46.1777 16.6682 39.249 9.45703 30.7021 9.45703C22.1552 9.45703 15.2266 16.6682 15.2266 25.5637C15.2266 34.4592 22.1552 41.6704 30.7021 41.6704Z" fill="#FF9BA7"/>
<path d="M33.7984 43.7062C42.8559 43.7062 50.1984 36.3637 50.1984 27.3062C50.1984 18.2488 42.8559 10.9062 33.7984 10.9062C24.741 10.9062 17.3984 18.2488 17.3984 27.3062C17.3984 36.3637 24.741 43.7062 33.7984 43.7062Z" fill="white"/>
<path d="M15.4062 52.7818L23.2285 40.5596L31.9929 43.7951L42.0107 41.9018L48.9618 52.7818L44.8551 52.1951L40.9263 50.4796L38.4374 55.9018L35.9929 52.9951L32.8107 45.9285C32.8107 45.9285 31.664 47.5729 31.6018 47.7062C31.5396 47.8396 28.2151 53.4307 28.2151 53.4307L26.1263 55.9018L24.2685 51.9996L23.4507 50.7373L17.4151 52.9151L15.424 52.7907L15.4062 52.7818Z" fill="#FFE69C"/>
<path d="M33.7981 41.4126C41.589 41.4126 47.9047 35.0968 47.9047 27.3059C47.9047 19.515 41.589 13.1992 33.7981 13.1992C26.0072 13.1992 19.6914 19.515 19.6914 27.3059C19.6914 35.0968 26.0072 41.4126 33.7981 41.4126Z" fill="#FF9BA7"/>
<path d="M28.5072 24.2756L31.645 27.5378L39.2361 20.2578L42.605 23.2445C42.605 23.2445 31.5828 34.7467 31.325 34.56C31.0672 34.3734 24.9961 27.6445 24.9961 27.6445L28.4983 24.2667L28.5072 24.2756Z" fill="white"/>
<path d="M6.46094 21.333V25.3775" stroke="#F96073" stroke-width="1.4" stroke-linecap="round" stroke-linejoin="round"/>
<path d="M8.48976 23.3506H4.44531" stroke="#F96073" stroke-width="1.4" stroke-linecap="round" stroke-linejoin="round"/>
<path d="M56.1719 40.8525L59.0341 43.7148" stroke="#F96073" stroke-width="1.4" stroke-linecap="round" stroke-linejoin="round"/>
<path d="M56.1719 43.7148L59.0341 40.8525" stroke="#F96073" stroke-width="1.4" stroke-linecap="round" stroke-linejoin="round"/>
<path d="M50.6328 9.1377L53.495 11.9999" stroke="#F96073" stroke-width="1.4" stroke-linecap="round" stroke-linejoin="round"/>
<path d="M50.6328 11.9999L53.495 9.1377" stroke="#F96073" stroke-width="1.4" stroke-linecap="round" stroke-linejoin="round"/>
<path d="M9.61184 55.9014C10.5452 55.9014 11.3096 55.1459 11.3096 54.2036C11.3096 53.2614 10.5541 52.5059 9.61184 52.5059C8.66962 52.5059 7.91406 53.2614 7.91406 54.2036C7.91406 55.1459 8.66962 55.9014 9.61184 55.9014Z" stroke="#FFDA6A" stroke-width="1.4" stroke-linecap="round" stroke-linejoin="round"/>
<path d="M23.8306 6.13286C24.7639 6.13286 25.5284 5.3773 25.5284 4.43508C25.5284 3.49286 24.7728 2.7373 23.8306 2.7373C22.8884 2.7373 22.1328 3.49286 22.1328 4.43508C22.1328 5.3773 22.8884 6.13286 23.8306 6.13286Z" stroke="#FFDA6A" stroke-width="1.4" stroke-linecap="round" stroke-linejoin="round"/>
<path d="M33.7975 43.7952C42.904 43.7952 50.2864 36.4128 50.2864 27.3063C50.2864 18.1997 42.904 10.8174 33.7975 10.8174C24.6909 10.8174 17.3086 18.1997 17.3086 27.3063C17.3086 36.4128 24.6909 43.7952 33.7975 43.7952Z" stroke="#2A3539" stroke-width="1.4" stroke-linecap="round" stroke-linejoin="round"/>
<path d="M25.7074 41.671C17.7696 38.3733 14.543 32.551 14.543 25.8133C14.543 16.8621 22.0274 9.1377 30.943 9.1377C35.0407 9.1377 40.1696 11.1199 43.0141 13.6355" stroke="#2A3539" stroke-width="1.4" stroke-linecap="round" stroke-linejoin="round"/>
<path d="M32.4276 45.7953C31.1476 49.0042 28.7032 53.5465 25.9299 55.902C25.201 53.6798 24.1876 51.6709 23.3254 50.5331C20.9521 51.8131 18.801 52.7998 15.2188 53.0042C18.8099 48.6753 21.0499 44.702 22.4187 41.6709" stroke="#2A3539" stroke-width="1.4" stroke-linecap="round" stroke-linejoin="round"/>
<path d="M32 43.9287C33.2178 47.7598 35.3333 52.9865 38.4356 55.8932C39.1644 53.6709 40.1778 51.6621 41.04 50.5243C43.4133 51.8043 45.5644 52.7909 49.1467 52.9954C45.7956 48.9509 43.6178 45.2176 42.2311 42.2754" stroke="#2A3539" stroke-width="1.4" stroke-linecap="round" stroke-linejoin="round"/>
<path d="M34.6672 24.5774L31.6005 27.653L28.3028 24.3463L24.9961 27.653L31.6005 34.2485L42.605 23.2441L39.2983 19.9463L37.2539 21.9907" stroke="#2A3539" stroke-width="1.4" stroke-linecap="round" stroke-linejoin="round"/>
</svg>
