<svg width="18" height="18" viewBox="0 0 18 18" fill="none" xmlns="http://www.w3.org/2000/svg">
<path d="M9.11719 3.64844C9.67186 3.09376 10.5547 3.09376 11.1094 3.64844L14.6016 7.14062C15.1562 7.6953 15.1562 8.57814 14.6016 9.13281V9.13379L10.8125 12.9004H14.625C14.7513 12.9004 14.8688 12.9625 14.9531 13.0469C15.0375 13.1312 15.0996 13.2487 15.0996 13.375C15.0996 13.6451 14.8637 13.8496 14.625 13.8496H6.44531C6.07047 13.8496 5.71623 13.724 5.4375 13.4453L3.375 11.3828C2.82032 10.8281 2.82032 9.9453 3.375 9.39062L9.11719 3.64844ZM4.05469 10.0469C3.88183 10.2197 3.8648 10.4602 3.98926 10.6309L4.05176 10.6992L4.05566 10.7021L4.05469 10.7031L6.125 12.7734L6.18359 12.8291C6.24917 12.8767 6.33611 12.9004 6.44531 12.9004H9.28125C9.42688 12.9004 9.53318 12.8589 9.60156 12.7734L9.60938 12.7637L10.7324 11.6621L6.58594 7.51562L4.05469 10.0469ZM10.4521 4.32812C10.2547 4.13111 9.96989 4.1373 9.80078 4.3252L9.79785 4.3291L9.79688 4.32812L7.26562 6.85938L11.3906 10.9844L13.9219 8.45312L13.9248 8.44922C14.115 8.27801 14.115 7.99543 13.9248 7.82422L13.9209 7.82031L10.4521 4.32812Z" fill="#F96073"/>
</svg>
