<svg width="24" height="24" viewBox="0 0 24 24" fill="none" xmlns="http://www.w3.org/2000/svg">
<path d="M3.56083 12.4255L19.3108 3.42555C19.6624 3.21461 20.1546 3.21461 20.5061 3.4607C20.8577 3.7068 21.0335 4.12867 20.9632 4.55055L18.7132 19.1755C18.6077 19.8787 17.8343 20.3357 17.1663 20.0545L12.8069 18.2263L10.6272 20.863C10.4163 21.1091 10.0999 21.2498 9.74833 21.2498C9.11552 21.2498 8.62333 20.7576 8.62333 20.1248V16.4685L3.6663 14.4295C2.82255 14.0779 2.75224 12.8826 3.56083 12.4255ZM5.38896 13.3045L9.71318 15.0974L9.67802 15.0623L17.3772 6.44898L5.38896 13.3045ZM17.1663 18.2263L18.8186 7.36305L11.2952 15.7654L17.1663 18.2263Z" fill="#F96073"/>
</svg>
