<svg width="16" height="16" viewBox="0 0 16 16" fill="none" xmlns="http://www.w3.org/2000/svg">
<path d="M5.375 10.8125C6.08594 10.8125 6.6875 11.4141 6.6875 12.125V12.5625L8.65625 11.0859C8.875 10.9219 9.14844 10.8125 9.44922 10.8125H13.25C13.4688 10.8125 13.6875 10.6211 13.6875 10.375V2.5C13.6875 2.28125 13.4688 2.0625 13.25 2.0625H2.75C2.50391 2.0625 2.3125 2.28125 2.3125 2.5V10.375C2.3125 10.6211 2.50391 10.8125 2.75 10.8125H5.375ZM6.6875 14.2031L6.66016 14.2305L6.52344 14.3125L6.05859 14.668C5.92188 14.7773 5.75781 14.7773 5.59375 14.7227C5.45703 14.6406 5.375 14.5039 5.375 14.3125V13.7383V13.5742V13.5469V13.4375V12.125H4.0625H2.75C1.76562 12.125 1 11.3594 1 10.375V2.5C1 1.54297 1.76562 0.75 2.75 0.75H13.25C14.207 0.75 15 1.54297 15 2.5V10.375C15 11.3594 14.207 12.125 13.25 12.125H9.44922L6.6875 14.2031Z" fill="#F96073"/>
</svg>
