<svg width="25" height="26" viewBox="0 0 25 26" fill="none" xmlns="http://www.w3.org/2000/svg">
<path d="M23.6934 12.3467C23.6934 6.08116 18.6122 1.00001 12.3467 1C6.08115 1 1 6.08115 1 12.3467C1 15.0012 1.91251 17.4416 3.44141 19.3701L3.4375 19.3721C3.52703 19.4841 3.56779 19.6276 3.54199 19.7705L2.7168 24.3213L6.56738 22.3623C6.71304 22.2882 6.88617 22.2902 7.03027 22.3672C8.61229 23.2145 10.4216 23.6934 12.3467 23.6934C18.6122 23.6934 23.6934 18.6122 23.6934 12.3467ZM24.6934 12.3467C24.6934 19.1645 19.1645 24.6934 12.3467 24.6934C10.3477 24.6934 8.46021 24.2177 6.79199 23.3701L2.27246 25.6699C2.10315 25.756 1.89946 25.7384 1.74707 25.625C1.59468 25.5116 1.51984 25.3217 1.55371 25.1348L2.51758 19.8086C0.938603 17.7387 2.54904e-06 15.1515 0 12.3467C0 5.52887 5.52887 0 12.3467 0C19.1645 6.18722e-06 24.6934 5.52887 24.6934 12.3467Z" fill="white"/>
<path d="M17.7305 11.0327C17.7305 9.97224 17.0864 9.02938 16.1592 8.64886C15.2629 8.28112 14.0003 8.40554 12.7012 9.70453C12.5059 9.89979 12.1894 9.89979 11.9941 9.70453C10.6947 8.40521 9.43227 8.2812 8.53613 8.64886C7.60909 9.02935 6.96484 9.97186 6.96484 11.0327C6.96487 12.4988 7.67631 13.4218 8.77734 14.3227C9.34004 14.7831 9.97127 15.211 10.6582 15.7094C11.2149 16.1133 11.793 16.5544 12.3477 17.0649C12.9023 16.5544 13.4804 16.1133 14.0371 15.7094C14.724 15.211 15.3553 14.7831 15.918 14.3227C17.019 13.4218 17.7304 12.4988 17.7305 11.0327ZM18.7305 11.0327C18.7304 12.928 17.7608 14.1061 16.5508 15.0961C15.9581 15.5811 15.2763 16.0458 14.624 16.519C13.9607 17.0003 13.3032 17.5078 12.7012 18.1098C12.506 18.3048 12.1894 18.3048 11.9941 18.1098C11.3921 17.5078 10.7347 17.0003 10.0713 16.519C9.41906 16.0458 8.73724 15.5811 8.14453 15.0961C6.9345 14.1061 5.96487 12.928 5.96484 11.0327C5.96484 9.57177 6.84884 8.25968 8.15625 7.72308C9.39223 7.21596 10.9177 7.43082 12.3477 8.67035C13.7775 7.43097 15.303 7.21679 16.5391 7.72406C17.8464 8.26064 18.7305 9.57198 18.7305 11.0327Z" fill="white"/>
</svg>
