<svg width="24" height="24" viewBox="0 0 24 24" fill="none" xmlns="http://www.w3.org/2000/svg">
<path d="M4.25 5.28125C3.9375 5 3.9375 4.5 4.25 4.21875C4.53125 3.9375 5 3.9375 5.3125 4.21875L12.0312 10.9375L18.75 4.21875C19.0312 3.9375 19.5 3.9375 19.7812 4.21875C20.0938 4.5 20.0938 5 19.7812 5.28125L13.0625 12L19.7812 18.7188C20.0938 19 20.0938 19.5 19.7812 19.7812C19.5 20.0625 19.0312 20.0625 18.75 19.7812L12.0312 13.0625L5.3125 19.7812C5 20.0625 4.53125 20.0625 4.25 19.7812C3.9375 19.4688 3.9375 19 4.25 18.7188L10.9688 12L4.25 5.28125Z" fill="#8B91A3"/>
</svg>
