<svg width="16" height="16" viewBox="0 0 16 16" fill="none" xmlns="http://www.w3.org/2000/svg">
<path d="M8.00156 2.5C8.4 2.5 8.75156 2.85156 8.75156 3.25V3.67188C10.4391 3.95312 11.7516 5.42969 11.7516 7.1875V7.98438C11.7516 9.03906 12.1031 10.0703 12.7594 10.9141L13.1109 11.3359C13.2516 11.5234 13.275 11.7578 13.1812 11.9453C13.0875 12.1328 12.9 12.25 12.6891 12.25H3.31406C3.07969 12.25 2.89219 12.1328 2.79844 11.9453C2.70469 11.7578 2.72813 11.5234 2.86875 11.3359L3.22031 10.9141C3.87656 10.0703 4.25156 9.03906 4.25156 7.98438V7.1875C4.25156 5.42969 5.54063 3.95312 7.25156 3.67188V3.25C7.25156 2.85156 7.57969 2.5 8.00156 2.5ZM8.00156 4.75H7.81406C6.45469 4.75 5.37656 5.85156 5.37656 7.1875V7.98438C5.37656 9.10938 5.04844 10.1875 4.43906 11.125H11.5406C10.9312 10.1875 10.6266 9.10938 10.6266 7.98438V7.1875C10.6266 5.85156 9.525 4.75 8.18906 4.75H8.00156ZM9.50156 13C9.50156 13.3984 9.3375 13.7969 9.05625 14.0781C8.775 14.3594 8.4 14.5 8.00156 14.5C7.60313 14.5 7.20469 14.3594 6.92344 14.0781C6.64219 13.7969 6.50156 13.3984 6.50156 13H8.00156H9.50156Z" fill="#8B91A3"/>
</svg>
