<svg width="16" height="16" viewBox="0 0 16 16" fill="none" xmlns="http://www.w3.org/2000/svg">
<path d="M7.5 0.5C7.5 0.25 7.71875 0 8 0C8.25 0 8.5 0.25 8.5 0.5V1.03125C11 1.28125 13 3.40625 13 6V6.9375C13 8.28125 13.5312 9.59375 14.5 10.5625L14.5938 10.6562C14.8438 10.9062 15 11.2812 15 11.625C15 12.4062 14.375 13.0312 13.5938 13.0312H2.375C1.59375 13 1 12.4062 1 11.625C1 11.25 1.125 10.9062 1.40625 10.6562L1.46875 10.5625C2.4375 9.59375 3 8.28125 3 6.9375V6C3 3.40625 4.96875 1.28125 7.5 1.03125V0.5ZM8 2C5.78125 2 4 3.8125 4 6V6.9375C4 8.5625 3.34375 10.125 2.1875 11.2812L2.09375 11.3438C2.03125 11.4375 2 11.5312 2 11.625C2 11.8438 2.15625 12 2.375 12H13.5938C13.8125 12 14 11.8438 14 11.625C14 11.5312 13.9375 11.4375 13.875 11.3438L13.7812 11.2812C12.625 10.125 11.9688 8.5625 11.9688 6.90625V6C11.9688 3.8125 10.1875 2 7.96875 2H8ZM7.03125 14.3438C7.1875 14.75 7.5625 15 8 15C8.40625 15 8.78125 14.75 8.9375 14.3438C9.03125 14.0938 9.3125 13.9375 9.5625 14.0312C9.8125 14.125 9.96875 14.4062 9.875 14.6875C9.59375 15.4688 8.84375 16 8 16C7.125 16 6.375 15.4688 6.09375 14.6875C6 14.4062 6.15625 14.125 6.40625 14.0312C6.65625 13.9375 6.9375 14.0938 7.03125 14.3438Z" fill="#8B91A3"/>
</svg>
