<svg width="18" height="18" viewBox="0 0 18 18" fill="none" xmlns="http://www.w3.org/2000/svg">
<path d="M12.5 7.5C12.5 4.75 10.25 2.5 7.5 2.5C4.75 2.5 2.5 4.75 2.5 7.5C2.5 10.25 4.75 12.5 7.5 12.5C10.25 12.5 12.5 10.25 12.5 7.5ZM11.5312 12.5938C10.4375 13.4688 9.03125 14 7.5 14C3.90625 14 1 11.0938 1 7.5C1 3.90625 3.90625 1 7.5 1C11.0938 1 14 3.90625 14 7.5C14 9.03125 13.4688 10.4375 12.5938 11.5312L16.7812 15.7188C17.0625 16 17.0625 16.5 16.7812 16.7812C16.5 17.0625 16 17.0625 15.7188 16.7812L11.5312 12.5938Z" fill="#8B91A3"/>
</svg>
