<svg width="24" height="24" viewBox="0 0 24 24" fill="none" xmlns="http://www.w3.org/2000/svg">
<path d="M10.375 20.0312L9.1875 20.875C8.96875 21.0312 8.65625 21.0312 8.40625 20.9062C8.15625 20.7812 8 20.5312 8 20.25V18H7C5.34375 18 4 16.6562 4 15V8C4 6.34375 5.34375 5 7 5H17C18.6562 5 20 6.34375 20 8V15C20 16.6562 18.6562 18 17 18H13.25L10.375 20.0312ZM13.25 16.5H17C17.8438 16.5 18.5 15.8438 18.5 15V8C18.5 7.1875 17.8438 6.5 17 6.5H7C6.1875 6.5 5.5 7.1875 5.5 8V15C5.5 15.8438 6.1875 16.5 7 16.5H8.75C9.0625 16.5 9.34375 16.7188 9.46875 17C9.5 17.0625 9.5 17.1562 9.5 17.25V18.8125C10.5312 18.0938 11.4688 17.4062 12.375 16.7812C12.625 16.5938 12.9375 16.5 13.25 16.5ZM8.5 12.5C7.9375 12.5 7.5 12.0625 7.5 11.5C7.5 10.9375 7.9375 10.5 8.5 10.5C9.0625 10.5 9.5 10.9375 9.5 11.5C9.5 12.0625 9.0625 12.5 8.5 12.5ZM13 11.5C13 12.0625 12.5625 12.5 12 12.5C11.4375 12.5 11 12.0625 11 11.5C11 10.9375 11.4375 10.5 12 10.5C12.5625 10.5 13 10.9375 13 11.5ZM15.5 12.5C14.9375 12.5 14.5 12.0625 14.5 11.5C14.5 10.9375 14.9375 10.5 15.5 10.5C16.0625 10.5 16.5 10.9375 16.5 11.5C16.5 12.0625 16.0625 12.5 15.5 12.5Z" fill="#8B91A3"/>
</svg>
