<svg width="16" height="16" viewBox="0 0 16 16" fill="none" xmlns="http://www.w3.org/2000/svg">
<path d="M12.1289 11.6875C13.0859 10.6484 13.6875 9.28125 13.6875 7.75C13.6875 4.60547 11.1445 2.0625 8 2.0625C4.85547 2.0625 2.3125 4.60547 2.3125 7.75C2.3125 9.28125 2.91406 10.6484 3.89844 11.6875C4.41797 10.4023 5.67578 9.5 7.125 9.5H8.875C10.3516 9.5 11.582 10.4023 12.1289 11.6875ZM11.0078 12.5625H11.0352C10.8164 11.5781 9.94141 10.8125 8.875 10.8125H7.125C6.05859 10.8125 5.18359 11.5781 4.99219 12.5625C5.86719 13.1094 6.87891 13.4375 8 13.4375C9.12109 13.4375 10.1328 13.1094 11.0078 12.5625ZM8 14.75C4.14453 14.75 1 11.6055 1 7.75C1 3.89453 4.14453 0.75 8 0.75C11.8555 0.75 15 3.89453 15 7.75C15 11.6055 11.8555 14.75 8 14.75ZM8 7.3125C8.60156 7.3125 9.09375 6.82031 9.09375 6.21875C9.09375 5.61719 8.60156 5.125 8 5.125C7.39844 5.125 6.90625 5.61719 6.90625 6.21875C6.90625 6.82031 7.39844 7.3125 8 7.3125ZM5.59375 6.21875C5.59375 4.87891 6.66016 3.8125 8 3.8125C9.33984 3.8125 10.4062 4.87891 10.4062 6.21875C10.4062 7.55859 9.33984 8.625 8 8.625C6.66016 8.625 5.59375 7.55859 5.59375 6.21875Z" fill="#F96073"/>
</svg>
