<svg width="18" height="18" viewBox="0 0 18 18" fill="none" xmlns="http://www.w3.org/2000/svg">
<path d="M3.25 4.28125C2.9375 4 2.9375 3.5 3.25 3.21875C3.53125 2.9375 4 2.9375 4.28125 3.21875L9 7.9375L13.7188 3.21875C14.0312 2.9375 14.5 2.9375 14.7812 3.21875C15.0938 3.53125 15.0938 4 14.7812 4.28125L10.0625 9L14.7812 13.7188C15.0938 14 15.0938 14.5 14.7812 14.7812C14.5 15.0625 14.0312 15.0625 13.7188 14.7812L9 10.0625L4.28125 14.7812C4 15.0625 3.53125 15.0625 3.25 14.7812C2.9375 14.5 2.9375 14 3.25 13.7188L7.96875 9L3.25 4.28125Z" fill="#F96073"/>
</svg>
