<svg width="24" height="24" viewBox="0 0 24 24" fill="none" xmlns="http://www.w3.org/2000/svg">
<path d="M22.5 12C22.5 13.2656 21.5156 14.25 20.25 14.25C18.9844 14.25 18 13.2656 18 12C18 10.7344 18.9844 9.75 20.25 9.75C21.5156 9.75 22.5 10.7344 22.5 12ZM14.25 12C14.25 13.2656 13.2656 14.25 12 14.25C10.7344 14.25 9.75 13.2656 9.75 12C9.75 10.7344 10.7344 9.75 12 9.75C13.2656 9.75 14.25 10.7344 14.25 12ZM3.75 14.25C2.48438 14.25 1.5 13.2656 1.5 12C1.5 10.7344 2.48438 9.75 3.75 9.75C5.01562 9.75 6 10.7344 6 12C6 13.2656 5.01562 14.25 3.75 14.25Z" fill="#8B91A3"/>
</svg>
