<svg width="16" height="16" viewBox="0 0 16 16" fill="none" xmlns="http://www.w3.org/2000/svg">
<path d="M6.95898 5.50001C6.5944 5.50001 6.33398 5.23959 6.33398 4.87501V4.66668V4.25001V3.00001L2.16732 6.75001L6.33398 10.5V9.25001V8.83334V8.62501C6.33398 8.28647 6.5944 8.00001 6.95898 8.00001H7.16732H9.66732C11.4902 8.00001 13.0007 9.51043 13.0007 11.3333C13.0007 11.5677 12.9746 11.7761 12.9486 11.9583C13.4173 11.3333 13.834 10.474 13.834 9.25001C13.834 7.19272 12.1413 5.50001 10.084 5.50001H7.16732H6.95898ZM7.16732 9.25001V9.66668V10.5C7.16732 10.8386 6.95898 11.1511 6.67253 11.2813C6.36003 11.4115 6.02148 11.3594 5.76107 11.125L1.5944 7.37501C1.41211 7.21876 1.33398 7.01043 1.33398 6.75001C1.33398 6.51564 1.41211 6.3073 1.5944 6.15105L5.76107 2.40105C6.02148 2.16668 6.36003 2.11459 6.67253 2.2448C6.95898 2.37501 7.16732 2.68751 7.16732 3.00001V3.83335V4.25001V4.66668H8.00065H10.084C12.61 4.66668 14.6673 6.72397 14.6673 9.25001C14.6673 12.2188 12.5319 13.5208 12.0371 13.8073C11.985 13.8333 11.9069 13.8333 11.8288 13.8333C11.5423 13.8333 11.334 13.625 11.334 13.3386C11.334 13.1302 11.4382 12.9479 11.5684 12.8177C11.8288 12.5833 12.1673 12.1406 12.1673 11.3594C12.1673 9.97918 11.0475 8.85939 9.66732 8.85939H8.00065H7.16732V9.27605V9.25001Z" fill="white"/>
</svg>
