<svg width="28" height="28" viewBox="0 0 28 28" fill="none" xmlns="http://www.w3.org/2000/svg">
<path d="M9.39062 15.75H15.25C15.9141 15.75 16.5 15.2031 16.5 14.5V7C16.5 6.33594 15.9141 5.75 15.25 5.75H4C3.29688 5.75 2.75 6.33594 2.75 7V14.5C2.75 15.2031 3.29688 15.75 4 15.75H5.25C5.91406 15.75 6.5 16.3359 6.5 17V17.625L8.64844 16.0234C8.88281 15.8672 9.11719 15.75 9.39062 15.75ZM15.25 17H9.39062L6.22656 19.3828C6.03125 19.5391 5.79688 19.5391 5.5625 19.4609C5.36719 19.3438 5.25 19.1484 5.25 18.875V18.25V17H4C2.59375 17 1.5 15.9062 1.5 14.5V7C1.5 5.63281 2.59375 4.5 4 4.5H15.25C16.6172 4.5 17.75 5.63281 17.75 7V14.5C17.75 15.9062 16.6172 17 15.25 17ZM14 22C12.5938 22 11.5 20.9062 11.5 19.5V18.25H12.75V19.5C12.75 20.2031 13.2969 20.75 14 20.75H18.5703C18.8438 20.75 19.1172 20.8672 19.3125 21.0234L21.5 22.625V22C21.5 21.3359 22.0469 20.75 22.75 20.75H24C24.6641 20.75 25.25 20.2031 25.25 19.5V12C25.25 11.3359 24.6641 10.75 24 10.75H19V9.5H24C25.3672 9.5 26.5 10.6328 26.5 12V19.5C26.5 20.9062 25.3672 22 24 22H22.75V23.25V23.875C22.75 24.1484 22.5938 24.3438 22.3984 24.4609C22.1641 24.5391 21.9297 24.5391 21.7344 24.3828L18.5703 22H14Z" fill="#F96073"/>
</svg>
