<svg width="64" height="64" viewBox="0 0 64 64" fill="none" xmlns="http://www.w3.org/2000/svg">
<path d="M52.0887 28.9773C51.1109 28.7996 54.4887 27.8218 54.4887 27.8218L51.1998 27.1996L53.9553 26.7551L56.622 26.3996L56.7998 25.8662C54.3109 25.5996 50.6665 25.244 50.5776 25.244C50.4887 25.244 54.0442 24.6218 57.3331 24.1773V23.8218C58.3998 20.7107 56.5331 17.4218 53.422 16.7107L20.7109 8.88845C17.6887 8.17734 14.5776 10.1329 13.9553 13.1551L12.2665 21.1551C15.1109 21.0662 17.7776 21.9551 18.4887 21.9551C18.4887 21.9551 18.5776 21.9551 18.6665 21.9551C18.6665 21.9551 18.6665 21.9551 18.4887 21.9551C17.6887 21.9551 14.3109 22.5773 11.9109 22.9329V23.4662C12.9776 23.4662 13.6887 23.644 13.9553 23.644C20.7998 23.4662 12.5331 24.9773 11.3776 25.5107L8.7109 38.3107C7.99979 41.5996 10.3109 44.7107 13.6887 45.0662L45.2442 47.9107C47.822 48.1773 50.3109 46.5773 51.1109 43.9996L55.822 29.1551C54.3998 29.1551 52.7109 28.9773 52.1776 28.8884L52.0887 28.9773Z" fill="#FFD5DA"/>
<path d="M47.7317 43.9106C50.4808 43.9106 52.7095 41.682 52.7095 38.9329C52.7095 36.1837 50.4808 33.9551 47.7317 33.9551C44.9825 33.9551 42.7539 36.1837 42.7539 38.9329C42.7539 41.682 44.9825 43.9106 47.7317 43.9106Z" fill="white"/>
<path d="M6.93359 37.3324L46.4892 11.8213L45.778 27.1991C40.5336 27.7324 36.5336 34.488 38.578 38.8435C40.6225 43.1991 44.5336 44.7102 44.5336 44.7102L43.7336 52.2657L31.7336 47.3768C31.7336 47.3768 25.4225 53.8657 25.4225 53.4213C25.4225 52.9768 18.9336 42.2213 18.9336 42.2213L6.93359 37.2435V37.3324Z" fill="white"/>
<path d="M9.60061 37.6884L46.3117 13.9551L45.4228 26.4884L44.4451 44.6217L43.6451 52.1773L31.6451 47.2884C31.6451 47.2884 25.1562 53.9551 25.3339 53.3329C25.4228 52.7995 18.8451 42.1329 18.8451 42.1329L9.51172 37.5106L9.60061 37.6884Z" fill="#FFF3CD"/>
<path d="M56.8007 36.6214L58.7562 35.6436L57.334 32.177L55.2007 32.8881C54.6674 32.0881 53.9562 31.377 53.1562 30.8436L53.8674 28.7103L50.4007 27.2881L49.4229 29.2436C48.4451 29.0659 47.4674 29.0659 46.4896 29.2436L45.5118 27.2881L42.0451 28.7103L42.7562 30.8436C41.9562 31.377 41.2451 32.0881 40.7118 32.8881L38.5785 32.177L37.1562 35.6436L39.1118 36.6214C38.934 37.5992 38.934 38.577 39.1118 39.5548L37.1562 40.5325L38.5785 43.9992L40.7118 43.2881C41.2451 44.0881 41.9562 44.7992 42.7562 45.3325L42.0451 47.4659L45.5118 48.8881L46.4896 46.9325C47.4674 47.1103 48.4451 47.1103 49.4229 46.9325L50.4007 48.8881L53.8674 47.4659L53.1562 45.3325C53.9562 44.7992 54.6674 44.0881 55.2007 43.2881L57.334 43.9992L58.7562 40.5325L56.8007 39.5548C56.9785 38.577 56.9785 37.5992 56.8007 36.6214ZM49.334 41.3325C47.4674 42.0436 45.4229 41.2436 44.6229 39.377C43.9118 37.5103 44.7118 35.4659 46.5785 34.6659C48.4451 33.9548 50.4896 34.7548 51.2896 36.6214C52.0007 38.4881 51.2007 40.5325 49.334 41.3325Z" fill="#FF9BA7"/>
<path d="M37.1562 35.5558L38.5785 32.0891L40.7118 32.8002C41.334 32.0002 42.0451 31.2891 42.7562 30.7557L42.0451 28.6224L45.5118 27.2002L46.4896 29.1557C47.4674 28.978 48.4451 28.978 49.4229 29.1557L50.4007 27.2002L53.8674 28.6224L53.1562 30.7557C53.9562 31.378 54.6674 32.0891 55.2007 32.8002L57.334 32.0891L58.7562 35.5558L56.8007 36.5335C56.9785 37.5113 56.9785 38.4891 56.8007 39.4669L58.7562 40.4446L57.334 43.9113L55.2007 43.2002C54.5785 44.0002 53.9562 44.7113 53.1562 45.2446L53.8674 47.378L50.4007 48.8002L49.4229 46.8446C48.4451 47.0224 47.4674 47.0224 46.4896 46.8446L45.5118 48.8002L42.0451 47.378L42.7562 45.2446C41.9562 44.6224 41.2451 43.9113 40.7118 43.2002L38.5785 43.9113L37.1562 40.4446L39.1118 39.4669C38.934 38.4891 38.934 37.5113 39.1118 36.5335L37.1562 35.5558Z" stroke="#2A3539" stroke-width="1.4" stroke-linecap="round" stroke-linejoin="round"/>
<path d="M43.8225 50.7556V52.2667C43.7336 52.2667 25.778 44.9778 25.778 44.9778L39.7336 21.5112L18.9336 42.4889L6.93359 37.3334L46.4892 11.8223L45.6003 25.1556" stroke="#2A3539" stroke-width="1.4" stroke-linecap="round" stroke-linejoin="round"/>
<path d="M18.9336 42.4883L25.4225 53.4216L25.8669 44.9772" stroke="#2A3539" stroke-width="1.4" stroke-linecap="round" stroke-linejoin="round"/>
<path d="M25.4219 53.4223L31.733 47.4668" stroke="#2A3539" stroke-width="1.4" stroke-linecap="round" stroke-linejoin="round"/>
<path d="M7.28785 31.4668L4.26562 33.3335" stroke="#2A3539" stroke-width="1.4" stroke-linecap="round" stroke-linejoin="round"/>
<path d="M28.5337 18.0439L10.5781 29.4217" stroke="#2A3539" stroke-width="1.4" stroke-linecap="round" stroke-linejoin="round"/>
<path d="M44.7102 39.3774C45.4213 41.244 47.5547 42.0441 49.4213 41.3329C51.288 40.5329 52.088 38.4885 51.3769 36.6218C50.6658 34.7552 48.5324 33.9552 46.6658 34.6663C44.7991 35.3774 43.9991 37.5107 44.7102 39.3774Z" stroke="#2A3539" stroke-width="1.4" stroke-linecap="round" stroke-linejoin="round"/>
<path d="M30.0476 4.71094L27.2031 7.55538" stroke="#F96073" stroke-width="1.4" stroke-linecap="round" stroke-linejoin="round"/>
<path d="M27.1133 4.71094L29.9577 7.55538" stroke="#F96073" stroke-width="1.4" stroke-linecap="round" stroke-linejoin="round"/>
<path d="M13.8679 50.1328L11.0234 52.9773" stroke="#F96073" stroke-width="1.4" stroke-linecap="round" stroke-linejoin="round"/>
<path d="M11.0234 50.1328L13.8679 52.9773" stroke="#F96073" stroke-width="1.4" stroke-linecap="round" stroke-linejoin="round"/>
<path d="M53.957 50.7549V54.8438" stroke="#F96073" stroke-width="1.4" stroke-linecap="round" stroke-linejoin="round"/>
<path d="M51.9141 52.7998H56.003" stroke="#F96073" stroke-width="1.4" stroke-linecap="round" stroke-linejoin="round"/>
<path d="M52.7123 12.1776C53.6901 12.1776 54.4012 11.3776 54.4012 10.4887C54.4012 9.59981 53.6012 8.7998 52.7123 8.7998C51.8234 8.7998 51.0234 9.59981 51.0234 10.4887C51.0234 11.3776 51.8234 12.1776 52.7123 12.1776Z" stroke="#FFDA6A" stroke-width="1.4" stroke-linecap="round" stroke-linejoin="round"/>
<path d="M9.15764 17.7772C10.1354 17.7772 10.8465 16.9772 10.8465 16.0883C10.8465 15.1994 10.0465 14.3994 9.15764 14.3994C8.26875 14.3994 7.46875 15.1994 7.46875 16.0883C7.46875 16.9772 8.26875 17.7772 9.15764 17.7772Z" stroke="#FFDA6A" stroke-width="1.4" stroke-linecap="round" stroke-linejoin="round"/>
<path d="M35.4701 57.0663C36.4479 57.0663 37.159 56.2663 37.159 55.3774C37.159 54.4885 36.359 53.6885 35.4701 53.6885C34.5813 53.6885 33.7812 54.4885 33.7812 55.3774C33.7812 56.2663 34.5813 57.0663 35.4701 57.0663Z" stroke="#FFDA6A" stroke-width="1.4" stroke-linecap="round" stroke-linejoin="round"/>
</svg>
