<svg width="18" height="18" viewBox="0 0 18 18" fill="none" xmlns="http://www.w3.org/2000/svg">
<path d="M14.5 2C14.75 2 15 2.25 15 2.5V4H16.5C16.75 4 17 4.25 17 4.5C17 4.78125 16.75 5 16.5 5H15V6.5C15 6.78125 14.75 7 14.5 7C14.2188 7 14 6.78125 14 6.5V5H12.5C12.2188 5 12 4.78125 12 4.5C12 4.25 12.2188 4 12.5 4H14V2.5C14 2.25 14.2188 2 14.5 2ZM14.5 11C14.75 11 15 11.25 15 11.5V13H16.5C16.75 13 17 13.25 17 13.5C17 13.7812 16.75 14 16.5 14H15V15.5C15 15.7812 14.75 16 14.5 16C14.2188 16 14 15.7812 14 15.5V14H12.5C12.2188 14 12 13.7812 12 13.5C12 13.25 12.2188 13 12.5 13H14V11.5C14 11.25 14.2188 11 14.5 11ZM5.25 7.78125L2.6875 8.96875L5.25 10.1562C5.46875 10.25 5.65625 10.4375 5.75 10.6562L6.9375 13.2188L8.125 10.6562C8.21875 10.4375 8.40625 10.25 8.625 10.1562L11.1875 8.96875L8.625 7.78125C8.40625 7.6875 8.21875 7.5 8.125 7.28125L6.9375 4.71875L5.75 7.28125C5.65625 7.5 5.46875 7.6875 5.25 7.78125ZM4.84375 11.0625L1.28125 9.4375C1.09375 9.34375 1 9.15625 1 8.96875C1 8.78125 1.09375 8.59375 1.28125 8.53125L4.84375 6.875L6.5 3.3125C6.5625 3.125 6.75 3 6.9375 3C7.125 3 7.3125 3.125 7.40625 3.3125L9.03125 6.875L12.5938 8.5C12.7812 8.59375 12.9062 8.78125 12.9062 8.96875C12.9062 9.15625 12.7812 9.34375 12.5938 9.40625L9.03125 11.0625L7.40625 14.625C7.3125 14.8125 7.125 14.9375 6.9375 14.9375C6.75 14.9375 6.5625 14.8125 6.5 14.625L4.84375 11.0625Z" fill="#F96073"/>
</svg>
