<svg width="14" height="14" viewBox="0 0 14 14" fill="none" xmlns="http://www.w3.org/2000/svg">
<path d="M2.6875 3.96094C2.45312 3.75 2.45312 3.375 2.6875 3.16406C2.89844 2.95312 3.25 2.95312 3.46094 3.16406L7 6.70312L10.5391 3.16406C10.7734 2.95312 11.125 2.95312 11.3359 3.16406C11.5703 3.39844 11.5703 3.75 11.3359 3.96094L7.79688 7.5L11.3359 11.0391C11.5703 11.25 11.5703 11.625 11.3359 11.8359C11.125 12.0469 10.7734 12.0469 10.5391 11.8359L7 8.29688L3.46094 11.8359C3.25 12.0469 2.89844 12.0469 2.6875 11.8359C2.45312 11.625 2.45312 11.25 2.6875 11.0391L6.22656 7.5L2.6875 3.96094Z" fill="#ED7000"/>
</svg>
