<svg preserveAspectRatio="none" overflow="visible" style="display: block;" width="29.4314" height="32" viewBox="0 0 29.4314 32" fill="none" xmlns="http://www.w3.org/2000/svg">
<path id="Vector" d="M14.7322 32C13.9705 32 13.217 31.7853 12.5546 31.3559C8.75423 28.8952 3.51313 24.8738 1.93169 18.4081C1.74126 17.6071 1.5591 16.8392 1.40179 16.1043C1.34383 15.84 1.50943 15.5758 1.77438 15.5262C2.03933 15.4684 2.30428 15.6336 2.35396 15.8978C2.51128 16.6245 2.68515 17.3842 2.87559 18.1769C4.36595 24.304 9.41661 28.1685 13.0763 30.5384C14.0781 31.1825 15.3698 31.1825 16.3633 30.5384C20.023 28.1685 25.0737 24.3122 26.564 18.1769C27.8143 13.049 28.2779 9.20921 28.4518 6.8971C28.5594 5.45204 27.6156 4.13083 26.208 3.75098C25.2144 3.48674 23.9062 3.13993 22.2337 2.71053C18.6568 1.79395 16.3965 1.27372 15.3698 1.05077C14.9392 0.959938 14.5004 0.959938 14.0698 1.05077C13.0432 1.27372 10.7828 1.79395 7.20591 2.71053C5.53339 3.13993 4.22519 3.48674 3.23162 3.75098C1.82406 4.12257 0.880162 5.44378 0.987799 6.8971C1.0706 8.08619 1.21963 9.37436 1.41007 10.7203C1.45147 10.9846 1.26103 11.2323 0.996079 11.2736C0.722847 11.3149 0.482733 11.125 0.441334 10.8607C0.24262 9.48997 0.101864 8.17702 0.0107865 6.96316C-0.12997 5.04742 1.12028 3.29682 2.97495 2.80137C3.96852 2.53713 5.27672 2.19031 6.95752 1.76092C10.5509 0.836075 12.8196 0.315851 13.8546 0.0928972C14.4259 -0.0309657 15.0055 -0.0309657 15.5768 0.0928972C16.6117 0.324108 18.8804 0.836075 22.4738 1.76092C24.1463 2.19031 25.4545 2.53713 26.4564 2.80137C28.3193 3.29682 29.5613 5.04742 29.4205 6.96316C29.2467 9.31656 28.7747 13.2059 27.5079 18.3998C25.9348 24.8655 20.6937 28.8869 16.885 31.3477C16.2226 31.777 15.4608 31.9917 14.7074 31.9917L14.7322 32Z" fill="white"/>
</svg>
