<svg width="72" height="72" viewBox="0 0 72 72" fill="none" xmlns="http://www.w3.org/2000/svg">
<path d="M57.8725 34.3585C56.7897 34.1687 60.5906 33.1027 60.5906 33.1027L56.9125 32.3603L60.0325 31.8915L62.9683 31.4506L63.1748 30.8087C60.4288 30.5241 56.2929 30.0943 56.2539 30.0943C56.2148 30.0943 60.1608 29.391 63.772 28.9222L63.8892 28.5594C64.9943 25.0878 62.9125 21.4152 59.3683 20.5836L22.7878 11.9938C19.372 11.1901 15.9674 13.3557 15.2474 16.7882L13.3664 25.7464C16.5646 25.6403 19.5339 26.6561 20.2929 26.6171C20.3599 26.6115 20.4157 26.6059 20.4436 26.6059C20.505 26.6059 20.4436 26.6059 20.2929 26.6171C19.4222 26.7008 15.6325 27.3036 12.9422 27.7389L12.8139 28.3529C14.1534 28.4366 14.9627 28.5259 15.2027 28.5203C22.8381 28.3473 13.6455 30.0496 12.3283 30.6468L9.33108 44.9017C8.56084 48.5575 11.1562 52.0682 14.879 52.4087L50.1255 55.6124C53.0446 55.8803 55.7515 54.0775 56.6446 51.2868L61.9413 34.6766C60.3841 34.5817 58.4864 34.4534 57.8781 34.3473L57.8725 34.3585Z" fill="#FFD5DA"/>
<path d="M58.7198 19.0781L11.0547 25.9383L15.4397 56.4058L63.1048 49.5456L58.7198 19.0781Z" fill="white"/>
<path d="M35.5448 25.3064L16.2258 28.0869C15.1152 28.2468 14.3444 29.2767 14.5043 30.3873L17.4954 51.1703C17.6553 52.2809 18.6852 53.0516 19.7958 52.8918L39.1148 50.1113C40.2254 49.9515 40.9962 48.9216 40.8363 47.811L37.8452 27.0279C37.6853 25.9173 36.6554 25.1466 35.5448 25.3064Z" fill="#FF9BA7"/>
<path d="M38.1836 12.8139L30.3223 13.9454L32.0596 26.0163L39.9209 24.8849L38.1836 12.8139Z" fill="white"/>
<path d="M39.3418 23.6257L33.5929 24.4517L32.0469 13.6963L37.7678 12.6694L39.3418 23.6257Z" fill="#FF9BA7"/>
<path d="M31.724 36.2281C31.724 39.7667 30.1724 41.2737 27.7054 41.2737C25.2384 41.2737 23.084 39.7946 23.084 36.256C23.084 32.7174 23.7649 30.4737 27.3872 30.4737C29.8542 30.4737 31.724 32.6951 31.724 36.2337V36.2281Z" fill="white"/>
<path d="M31.6068 35.0282C32.0477 38.0924 31.0598 39.5603 29.2012 39.8282C27.3426 40.0961 25.5287 39.0524 25.0877 35.9882C24.6468 32.924 24.8812 30.9091 27.6161 30.5184C29.4803 30.2505 31.1659 31.9696 31.6068 35.0282Z" fill="#FFF3CD"/>
<path d="M22.6151 49.1269L35.9825 47.1288C35.9825 47.1288 36.1946 43.1883 34.5928 42.6134C32.9909 42.0386 29.7593 40.872 28.7379 41.073C27.7165 41.2739 26.3714 41.5865 25.0876 42.5855C23.8039 43.5846 22.6988 44.5279 22.6207 45.6832C22.5425 46.8386 22.6207 49.1214 22.6207 49.1214L22.6151 49.1269Z" fill="white"/>
<path d="M24.0821 48.8758L35.7138 47.2851C35.7138 47.2851 35.217 42.7419 33.6152 42.1614C32.0133 41.581 29.9314 41.1735 28.91 41.3744C27.8886 41.5754 27.2245 41.0172 25.9407 42.0163C24.657 43.0154 24.1659 44.2768 24.0821 45.4321C23.9984 46.5875 24.0821 48.8703 24.0821 48.8703V48.8758Z" fill="#FFF3CD"/>
<path d="M53.8109 65.4245C62.3402 65.4245 69.2546 58.5102 69.2546 49.9808C69.2546 41.4515 62.3402 34.5371 53.8109 34.5371C45.2816 34.5371 38.3672 41.4515 38.3672 49.9808C38.3672 58.5102 45.2816 65.4245 53.8109 65.4245Z" fill="white"/>
<path d="M53.811 63.1085C61.0611 63.1085 66.9385 57.2311 66.9385 49.981C66.9385 42.7309 61.0611 36.8536 53.811 36.8536C46.561 36.8536 40.6836 42.7309 40.6836 49.981C40.6836 57.2311 46.561 63.1085 53.811 63.1085Z" fill="#FF9BA7"/>
<path d="M47.8672 50.1593L51.9863 54.2783L60.5872 45.683" stroke="white" stroke-width="1.39535" stroke-linecap="round" stroke-linejoin="round"/>
<path d="M29.8843 8.31629C30.9293 8.31629 31.7764 7.46917 31.7764 6.4242C31.7764 5.37922 30.9293 4.5321 29.8843 4.5321C28.8393 4.5321 27.9922 5.37922 27.9922 6.4242C27.9922 7.46917 28.8393 8.31629 29.8843 8.31629Z" stroke="#FFDA6A" stroke-width="1.39535" stroke-linecap="round" stroke-linejoin="round"/>
<path d="M4.88428 40.9898C5.92925 40.9898 6.77637 40.1427 6.77637 39.0977C6.77637 38.0527 5.92925 37.2056 4.88428 37.2056C3.83931 37.2056 2.99219 38.0527 2.99219 39.0977C2.99219 40.1427 3.83931 40.9898 4.88428 40.9898Z" stroke="#FFDA6A" stroke-width="1.39535" stroke-linecap="round" stroke-linejoin="round"/>
<path d="M12.7433 13.9534L9.55078 17.146" stroke="#FF9BA7" stroke-width="1.39535" stroke-linecap="round" stroke-linejoin="round"/>
<path d="M9.55078 13.9534L12.7433 17.146" stroke="#FF9BA7" stroke-width="1.39535" stroke-linecap="round" stroke-linejoin="round"/>
<path d="M54.6816 10.5321V15.053" stroke="#FF9BA7" stroke-width="1.39535" stroke-linecap="round" stroke-linejoin="round"/>
<path d="M52.4277 12.7925H56.9431" stroke="#FF9BA7" stroke-width="1.39535" stroke-linecap="round" stroke-linejoin="round"/>
<path d="M28.3105 58.337V62.8579" stroke="#FF9BA7" stroke-width="1.39535" stroke-linecap="round" stroke-linejoin="round"/>
<path d="M26.0547 60.5974H30.57" stroke="#FF9BA7" stroke-width="1.39535" stroke-linecap="round" stroke-linejoin="round"/>
<path d="M37.0776 53.2911L15.5167 56.3944L11.1465 25.9925L29.2749 23.386" stroke="#2A3539" stroke-width="1.39535" stroke-linecap="round" stroke-linejoin="round"/>
<path d="M42.2188 21.5275L58.7285 19.1498L60.6876 32.7908" stroke="#2A3539" stroke-width="1.39535" stroke-linecap="round" stroke-linejoin="round"/>
<path d="M35.7159 46.7445L35.3364 44.0989C35.1187 42.5919 31.128 40.6663 28.1587 41.0961C25.1894 41.5259 21.902 44.4952 22.1196 46.0021L22.4992 48.6477" stroke="#2A3539" stroke-width="1.39535" stroke-linecap="round" stroke-linejoin="round"/>
<path d="M28.1482 41.0289C25.7649 41.3693 23.8952 39.5833 23.5324 37.0884L23.3147 35.587C22.9575 33.0977 24.2468 30.8484 26.6301 30.5079C29.0133 30.1675 30.8831 31.9535 31.2459 34.4484L31.4635 35.9498C31.8208 38.4391 30.5315 40.6884 28.1482 41.0289Z" stroke="#2A3539" stroke-width="1.39535" stroke-linecap="round" stroke-linejoin="round"/>
<path d="M33.3932 26.1658C32.6453 26.2719 31.9476 25.7584 31.836 25.0049L30.3402 15.0812C30.2341 14.35 30.742 13.6746 31.4732 13.5686L36.7588 12.8095C37.4899 12.7035 38.1653 13.2114 38.2713 13.9426L39.7671 23.8495C39.8788 24.6086 39.3597 25.3119 38.6006 25.4179L33.3988 26.1658H33.3932Z" stroke="#2A3539" stroke-width="1.39535" stroke-linecap="round" stroke-linejoin="round"/>
<path d="M41.2969 29.1688L53.1908 27.4553" stroke="#2A3539" stroke-width="1.39535" stroke-linecap="round" stroke-linejoin="round"/>
<path d="M41.916 32.9864L53.81 31.2729" stroke="#2A3539" stroke-width="1.39535" stroke-linecap="round" stroke-linejoin="round"/>
<path d="M53.8109 65.425C62.3402 65.425 69.2546 58.5106 69.2546 49.9813C69.2546 41.4519 62.3402 34.5375 53.8109 34.5375C45.2816 34.5375 38.3672 41.4519 38.3672 49.9813C38.3672 58.5106 45.2816 65.425 53.8109 65.425Z" stroke="#2A3539" stroke-width="1.39535" stroke-linecap="round" stroke-linejoin="round"/>
</svg>
