<svg width="18" height="18" viewBox="0 0 18 18" fill="none" xmlns="http://www.w3.org/2000/svg">
<path d="M3 14C3 14.5625 3.4375 15 4 15H14C14.5312 15 15 14.5625 15 14V4C15 3.46875 14.5312 3 14 3H4C3.4375 3 3 3.46875 3 4V14ZM4 16C2.875 16 2 15.125 2 14V4C2 2.90625 2.875 2 4 2H14C15.0938 2 16 2.90625 16 4V14C16 15.125 15.0938 16 14 16H4ZM8.25 9C8.25 8.59375 8.5625 8.25 9 8.25C9.40625 8.25 9.75 8.59375 9.75 9C9.75 9.4375 9.40625 9.75 9 9.75C8.5625 9.75 8.25 9.4375 8.25 9ZM6 9.75C5.5625 9.75 5.25 9.4375 5.25 9C5.25 8.59375 5.5625 8.25 6 8.25C6.40625 8.25 6.75 8.59375 6.75 9C6.75 9.4375 6.40625 9.75 6 9.75ZM11.25 9C11.25 8.59375 11.5625 8.25 12 8.25C12.4062 8.25 12.75 8.59375 12.75 9C12.75 9.4375 12.4062 9.75 12 9.75C11.5625 9.75 11.25 9.4375 11.25 9Z" fill="#2A3539"/>
</svg>
