<svg width="18" height="18" viewBox="0 0 18 18" fill="none" xmlns="http://www.w3.org/2000/svg">
<path d="M9 2C6.46875 2 4.1875 3.34375 2.9375 5.5C1.65625 7.6875 1.65625 10.3438 2.9375 12.5C4.1875 14.6875 6.46875 16 9 16C11.5 16 13.7812 14.6875 15.0312 12.5C16.3125 10.3438 16.3125 7.6875 15.0312 5.5C13.7812 3.34375 11.5 2 9 2ZM9 17C6.125 17 3.5 15.5 2.0625 13C0.625 10.5312 0.625 7.5 2.0625 5C3.5 2.53125 6.125 1 9 1C11.8438 1 14.4688 2.53125 15.9062 5C17.3438 7.5 17.3438 10.5312 15.9062 13C14.4688 15.5 11.8438 17 9 17ZM7.5 12H8.5V9H7.75C7.46875 9 7.25 8.78125 7.25 8.5C7.25 8.25 7.46875 8 7.75 8H9C9.25 8 9.5 8.25 9.5 8.5V12H10.5C10.75 12 11 12.25 11 12.5C11 12.7812 10.75 13 10.5 13H7.5C7.21875 13 7 12.7812 7 12.5C7 12.25 7.21875 12 7.5 12ZM9 6.75C8.5625 6.75 8.25 6.4375 8.25 6C8.25 5.59375 8.5625 5.25 9 5.25C9.40625 5.25 9.75 5.59375 9.75 6C9.75 6.4375 9.40625 6.75 9 6.75Z" fill="#2A3539"/>
</svg>
