<svg width="18" height="18" viewBox="0 0 18 18" fill="none" xmlns="http://www.w3.org/2000/svg">
<path d="M14 2H4C3.4375 2 3 2.46875 3 3V15C3 15.5625 3.4375 16 4 16H14C14.5312 16 15 15.5625 15 15V3C15 2.46875 14.5312 2 14 2ZM4 1H14C15.0938 1 16 1.90625 16 3V15C16 16.125 15.0938 17 14 17H4C2.875 17 2 16.125 2 15V3C2 1.90625 2.875 1 4 1ZM7 5C7 4.75 7.21875 4.5 7.5 4.5H13C13.25 4.5 13.5 4.75 13.5 5C13.5 5.28125 13.25 5.5 13 5.5H7.5C7.21875 5.5 7 5.28125 7 5ZM7 9C7 8.75 7.21875 8.5 7.5 8.5H13C13.25 8.5 13.5 8.75 13.5 9C13.5 9.28125 13.25 9.5 13 9.5H7.5C7.21875 9.5 7 9.28125 7 9ZM7 13C7 12.75 7.21875 12.5 7.5 12.5H13C13.25 12.5 13.5 12.75 13.5 13C13.5 13.2812 13.25 13.5 13 13.5H7.5C7.21875 13.5 7 13.2812 7 13ZM4.75 4.25H5.25C5.5 4.25 5.75 4.5 5.75 4.75V5.25C5.75 5.53125 5.5 5.75 5.25 5.75H4.75C4.46875 5.75 4.25 5.53125 4.25 5.25V4.75C4.25 4.5 4.46875 4.25 4.75 4.25ZM4.25 8.75C4.25 8.5 4.46875 8.25 4.75 8.25H5.25C5.5 8.25 5.75 8.5 5.75 8.75V9.25C5.75 9.53125 5.5 9.75 5.25 9.75H4.75C4.46875 9.75 4.25 9.53125 4.25 9.25V8.75ZM4.75 12.25H5.25C5.5 12.25 5.75 12.5 5.75 12.75V13.25C5.75 13.5312 5.5 13.75 5.25 13.75H4.75C4.46875 13.75 4.25 13.5312 4.25 13.25V12.75C4.25 12.5 4.46875 12.25 4.75 12.25Z" fill="#2A3539"/>
</svg>
