<svg width="48" height="48" viewBox="0 0 48 48" fill="none" xmlns="http://www.w3.org/2000/svg">
<path d="M34.5263 20.5395C29.4605 20.5395 25.0526 23.5658 23.0132 27.9079H22.9474H18.7368C15.6447 27.9079 12.8816 29.6184 11.4342 32.1184C13.7368 34.6842 17.0921 36.3289 20.8421 36.3289C21.3026 36.3289 21.8289 36.3289 22.2895 36.2631C22.6184 37.7105 23.2763 39.0263 24.0658 40.2105C23.0132 40.4079 21.9605 40.5395 20.8421 40.5395C11.5658 40.5395 4 32.9737 4 23.6974C4 14.421 11.5658 6.85526 20.8421 6.85526C29.1974 6.85526 36.1053 12.9079 37.4211 20.8684C36.5 20.671 35.5132 20.5395 34.5263 20.5395ZM20.8421 24.75C23.4737 24.75 25.5789 22.6447 25.5789 20.0132C25.5789 17.3816 23.4737 15.2763 20.8421 15.2763C18.2105 15.2763 16.1053 17.3816 16.1053 20.0132C16.1053 22.6447 18.2105 24.75 20.8421 24.75Z" fill="#A1BFE9"/>
<circle cx="34.5" cy="33.5" r="10.5" fill="#EA2323"/>
<path d="M35.8423 37.3815C35.8423 38.1052 35.2502 38.6973 34.5265 38.6973C33.8028 38.6973 33.2107 38.1052 33.2107 37.3815C33.2107 36.6579 33.8028 36.0658 34.5265 36.0658C35.2502 36.0658 35.8423 36.6579 35.8423 37.3815Z" fill="white"/>
<path d="M33.4739 27.9079C33.4739 27.3158 33.9344 26.8552 34.5265 26.8552C35.1186 26.8552 35.5791 27.3158 35.5791 27.9079V33.171C35.5791 33.7631 35.1186 34.2236 34.5265 34.2236C33.9344 34.2236 33.4739 33.7631 33.4739 33.171V27.9079Z" fill="white"/>
</svg>
