<svg width="14" height="14" viewBox="0 0 14 14" fill="none" xmlns="http://www.w3.org/2000/svg">
<path fill-rule="evenodd" clip-rule="evenodd" d="M1.16675 7.00008C1.16675 6.67792 1.42792 6.41675 1.75008 6.41675H12.2501C12.5722 6.41675 12.8334 6.67792 12.8334 7.00008C12.8334 7.32225 12.5722 7.58342 12.2501 7.58342H1.75008C1.42792 7.58342 1.16675 7.32225 1.16675 7.00008Z" fill="#BEC2CE"/>
<path fill-rule="evenodd" clip-rule="evenodd" d="M8.33762 3.0876C8.56543 2.8598 8.93477 2.8598 9.16258 3.0876L12.6626 6.5876C12.8904 6.81541 12.8904 7.18475 12.6626 7.41256L9.16258 10.9126C8.93477 11.1404 8.56543 11.1404 8.33762 10.9126C8.10981 10.6848 8.10981 10.3154 8.33762 10.0876L11.4251 7.00008L8.33762 3.91256C8.10981 3.68475 8.10981 3.31541 8.33762 3.0876Z" fill="#BEC2CE"/>
</svg>
