<svg width="16" height="16" viewBox="0 0 16 16" fill="none" xmlns="http://www.w3.org/2000/svg">
<path d="M9.49984 4C9.49984 4.82031 8.82015 5.5 7.99984 5.5C7.17953 5.5 6.49984 4.82031 6.49984 4C6.49984 3.17969 7.17953 2.5 7.99984 2.5C8.82015 2.5 9.49984 3.17969 9.49984 4ZM7.08578 6.46094C7.10921 6.48438 7.13265 6.48438 7.15609 6.48438C7.4139 6.57812 7.71859 6.625 7.99984 6.625C8.93734 6.625 9.80453 6.15625 10.3202 5.35938L10.742 4.72656C10.9764 4.375 11.4452 4.28125 11.7967 4.49219C12.1248 4.72656 12.242 5.19531 12.0077 5.54688L11.5858 6.17969C11.1405 6.83594 10.5545 7.35156 9.87484 7.70312V13.75C9.87484 14.1719 9.54671 14.5 9.12484 14.5C8.70296 14.5 8.37484 14.1719 8.37484 13.75V11.5H7.62484V13.75C7.62484 14.1719 7.29671 14.5 6.87484 14.5C6.45296 14.5 6.12484 14.1719 6.12484 13.75V7.67969C5.46859 7.35156 4.88265 6.85938 4.46078 6.22656L3.99203 5.54688C3.78109 5.19531 3.87484 4.72656 4.20296 4.49219C4.55453 4.28125 5.02328 4.375 5.25765 4.70312L5.70296 5.40625C6.03109 5.89844 6.52328 6.27344 7.08578 6.46094Z" fill="#F96073"/>
</svg>
