<svg width="48" height="48" viewBox="0 0 48 48" fill="none" xmlns="http://www.w3.org/2000/svg">
<path d="M22.6389 8.01761L11.4664 11.8664C9.67675 12.4829 8.51425 14.2278 8.65768 16.1151C9.73721 30.3179 17.7872 37.0692 21.7749 39.5695C23.1375 40.4239 24.8625 40.4239 26.2252 39.5695C30.2128 37.0692 38.2628 30.3179 39.3424 16.1151C39.4858 14.2278 38.3231 12.4829 36.5336 11.8664L25.3611 8.01761C24.4792 7.71386 23.5208 7.71386 22.6389 8.01761Z" fill="#D2C2F2"/>
<path d="M27.6324 21.1345C27.6324 19.1282 26.006 17.502 23.9999 17.502C21.9938 17.502 20.3674 19.1284 20.3674 21.1345C20.3674 22.597 21.2337 23.8543 22.4795 24.4302V27.7345C22.4795 28.5743 23.1602 29.2551 24.0001 29.2551C24.8399 29.2551 25.5207 28.5743 25.5207 27.7345V24.4302C26.7665 23.8543 27.6327 22.5971 27.6327 21.1345H27.6324Z" fill="#8C66DD"/>
</svg>
