<svg width="32" height="26" viewBox="0 0 32 26" fill="none" xmlns="http://www.w3.org/2000/svg">
<path d="M9.8125 7.25C10.0938 7.25 10.375 7.53125 10.375 7.8125V9.5H17.125V7.8125C17.125 7.53125 17.3711 7.25 17.6875 7.25C17.9688 7.25 18.25 7.53125 18.25 7.8125V9.5H19.375C20.6055 9.5 21.625 10.5195 21.625 11.75V12.875V14V14.0352C21.4141 14.0352 21.2383 14 21.0625 14C20.8516 14 20.6758 14.0352 20.5 14.0352V14H7V23C7 23.6328 7.49219 24.125 8.125 24.125H16.2812C16.6328 24.582 17.0195 24.9336 17.4766 25.25H8.125C6.85938 25.25 5.875 24.2656 5.875 23V14V12.875V11.75C5.875 10.5195 6.85938 9.5 8.125 9.5H9.25V7.8125C9.25 7.53125 9.49609 7.25 9.8125 7.25ZM19.375 10.625H8.125C7.49219 10.625 7 11.1523 7 11.75V12.875H20.5V11.75C20.5 11.1523 19.9727 10.625 19.375 10.625ZM21.0625 24.125C22.4688 24.125 23.7344 23.3867 24.4375 22.1562C25.1758 20.9609 25.1758 19.4492 24.4375 18.2188C23.7344 17.0234 22.4688 16.25 21.0625 16.25C19.6211 16.25 18.3555 17.0234 17.6523 18.2188C16.9141 19.4492 16.9141 20.9609 17.6523 22.1562C18.3555 23.3867 19.6211 24.125 21.0625 24.125ZM21.0625 15.125C22.8555 15.125 24.5078 16.1094 25.4219 17.6562C26.3359 19.2383 26.3359 21.1719 25.4219 22.7188C24.5078 24.3008 22.8555 25.25 21.0625 25.25C19.2344 25.25 17.582 24.3008 16.668 22.7188C15.7539 21.1719 15.7539 19.2383 16.668 17.6562C17.582 16.1094 19.2344 15.125 21.0625 15.125ZM21.0625 17.375C21.3438 17.375 21.625 17.6562 21.625 17.9375V19.625H22.75C23.0312 19.625 23.3125 19.9062 23.3125 20.1875C23.3125 20.5039 23.0312 20.75 22.75 20.75H21.0625C20.7461 20.75 20.5 20.5039 20.5 20.1875V17.9375C20.5 17.6562 20.7461 17.375 21.0625 17.375Z" fill="#2A3539"/>
<rect x="16" width="16" height="16" rx="8" fill="#F96073"/>
<path d="M23.934 12.0561C22.902 12.0561 21.822 11.5281 21.366 10.6641L22.386 10.1121C22.686 10.6761 23.238 10.9401 23.814 10.9401C24.774 10.9401 25.338 10.2561 25.338 9.42809C25.338 8.60009 24.714 8.03609 23.838 8.03609C23.394 8.03609 22.986 8.18009 22.662 8.52809L21.774 8.01209C21.894 6.83609 21.99 5.07209 22.05 3.94409H26.214V5.04809H23.25C23.214 5.73209 23.178 6.51209 23.106 7.14809C23.454 6.99209 23.85 6.93209 24.222 6.93209C25.554 6.93209 26.634 8.00009 26.634 9.36809C26.634 10.9041 25.494 12.0561 23.934 12.0561Z" fill="white"/>
</svg>
