<svg width="24" height="24" viewBox="0 0 24 24" fill="none" xmlns="http://www.w3.org/2000/svg">
<path d="M12 4.67712C9.31445 4.67712 6.87956 6.10942 5.51888 8.40108C4.19401 10.7286 4.19401 13.5573 5.51888 15.849C6.87956 18.1765 9.31445 19.573 12 19.573C14.6497 19.573 17.0846 18.1765 18.4453 15.849C19.7702 13.5573 19.7702 10.7286 18.4453 8.40108C17.0846 6.10942 14.6497 4.67712 12 4.67712ZM12 21.2917C8.70573 21.2917 5.69792 19.573 4.05078 16.7084C2.40365 13.8796 2.40365 10.4063 4.05078 7.54171C5.69792 4.71293 8.70573 2.95837 12 2.95837C15.2585 2.95837 18.2663 4.71293 19.9134 7.54171C21.5605 10.4063 21.5605 13.8796 19.9134 16.7084C18.2663 19.573 15.2585 21.2917 12 21.2917ZM16.0462 10.4421L11.4629 15.0254C11.1048 15.3835 10.5677 15.3835 10.2454 15.0254L7.95378 12.7338C7.5957 12.4115 7.5957 11.8744 7.95378 11.5521C8.27604 11.1941 8.81315 11.1941 9.17122 11.5521L10.8542 13.2351L14.8288 9.26046C15.151 8.90238 15.6882 8.90238 16.0462 9.26046C16.3685 9.58272 16.3685 10.1198 16.0462 10.4421Z" fill="#22BF1E"/>
</svg>
