<svg width="16" height="16" viewBox="0 0 16 16" fill="none" xmlns="http://www.w3.org/2000/svg">
<path d="M14.5391 3.78906L10.0391 8.28906L10.8359 9.08594C10.9531 9.20312 11 9.32031 11 9.46094C11 9.76562 10.7656 10 10.4609 10H9.78125L7.25 7.46875V6.78906C7.25 6.48438 7.48438 6.25 7.78906 6.25C7.92969 6.25 8.04688 6.29688 8.16406 6.41406L8.96094 7.21094L13.4609 2.71094C13.7656 2.42969 14.2344 2.42969 14.5391 2.71094C14.8203 3.01562 14.8203 3.48438 14.5391 3.78906ZM9.24219 10.7734C9.33594 11.7812 8.96094 12.7891 8.25781 13.4922C7.60156 14.1484 6.73438 14.5 5.82031 14.5H1.76562C1.48438 14.5 1.25 14.2656 1.25 13.9844C1.25 13.8438 1.32031 13.7031 1.41406 13.5859L4.39062 10.9375C4.48438 10.8438 4.36719 10.6797 4.25 10.75L3.05469 11.3359C2.91406 11.4062 2.75 11.3125 2.75 11.1484C2.75 10.4219 3.05469 9.71875 3.57031 9.17969L3.75781 8.99219C4.46094 8.28906 5.46875 7.91406 6.47656 8.00781L9.24219 10.7734Z" fill="#35CFEA"/>
</svg>
