<svg width="20" height="14" viewBox="0 0 20 14" fill="none" xmlns="http://www.w3.org/2000/svg">
<mask id="mask0_2598_43060" style="mask-type:luminance" maskUnits="userSpaceOnUse" x="0" y="0" width="20" height="14">
<path d="M17.6471 13.5294H2.35294C1.05353 13.5294 0 12.4759 0 11.1765V2.35294C0 1.05353 1.05382 0 2.35294 0H17.6471C18.9465 0 20 1.05353 20 2.35294V11.1765C20 12.4762 18.9465 13.5294 17.6471 13.5294Z" fill="white"/>
</mask>
<g mask="url(#mask0_2598_43060)">
<path d="M19.9998 6.76465H-0.000244141V13.5294H19.9998V6.76465Z" fill="#EF4D29"/>
<g opacity="0.1">
<path d="M19.7059 -7.17938e-05V6.76463H0.294118V-7.17938e-05H19.7059ZM20 -0.294189H0V7.05875H20V-0.294189Z" fill="white"/>
</g>
<path d="M19.9998 0H-0.000244141V6.76471H19.9998V0Z" fill="white"/>
<g opacity="0.15">
<path d="M20.5883 -0.588207V6.47062H-0.588207V-0.588207H20.5883ZM20.8824 -0.882324H-0.882324V6.76473H20.8824V-0.882324Z" fill="black"/>
</g>
<path d="M10.0001 6.76471L-0.000244141 13.5294V0L10.0001 6.76471Z" fill="#3876BB"/>
<g opacity="0.1">
<path d="M19.7059 2.35294V11.1765C19.7059 12.3135 18.7838 13.2353 17.6471 13.2353H2.35294C1.21559 13.2353 0.294118 12.3135 0.294118 11.1765V2.35294C0.294118 1.21588 1.21559 0.294118 2.35294 0.294118H17.6471C18.7838 0.294118 19.7059 1.21588 19.7059 2.35294ZM2.35294 0C1.05353 0 0 1.05353 0 2.35294V11.1765C0 12.4759 1.05382 13.5294 2.35294 13.5294H17.6471C18.9465 13.5294 20 12.4759 20 11.1765V2.35294C20 1.05353 18.9465 0 17.6471 0H2.35294Z" fill="black"/>
</g>
</g>
</svg>
