<svg width="21" height="14" viewBox="0 0 21 14" fill="none" xmlns="http://www.w3.org/2000/svg">
<mask id="mask0_535_8701" style="mask-type:luminance" maskUnits="userSpaceOnUse" x="0" y="0" width="21" height="14">
<path d="M18.5294 14H2.47059C1.10621 14 0 12.9098 0 11.5652V2.43478C0 1.09017 1.10652 0 2.47059 0H18.5294C19.8938 0 21 1.09017 21 2.43478V11.5652C21 12.9101 19.8938 14 18.5294 14Z" fill="white"/>
</mask>
<g mask="url(#mask0_535_8701)">
<path d="M20.9998 7H-0.000244141V14H20.9998V7Z" fill="#EF4D29"/>
<g opacity="0.1">
<path d="M20.6912 -9.54866e-05V6.99991H0.308824V-9.54866e-05H20.6912ZM21 -0.304443H0V7.30425H21V-0.304443Z" fill="white"/>
</g>
<path d="M20.9998 0H-0.000244141V7H20.9998V0Z" fill="white"/>
<g opacity="0.15">
<path d="M21.6176 -0.608738V6.69561H-0.61769V-0.608738H21.6176ZM21.9264 -0.913086H-0.926514V6.99996H21.9264V-0.913086Z" fill="black"/>
</g>
<path d="M10.5001 7L-0.000244141 14V0L10.5001 7Z" fill="#3876BB"/>
<g opacity="0.1">
<path d="M20.6912 2.43478V11.5652C20.6912 12.7418 19.723 13.6957 18.5294 13.6957H2.47059C1.27637 13.6957 0.308824 12.7418 0.308824 11.5652V2.43478C0.308824 1.25817 1.27637 0.304348 2.47059 0.304348H18.5294C19.723 0.304348 20.6912 1.25817 20.6912 2.43478ZM2.47059 0C1.10621 0 0 1.09017 0 2.43478V11.5652C0 12.9098 1.10652 14 2.47059 14H18.5294C19.8938 14 21 12.9098 21 11.5652V2.43478C21 1.09017 19.8938 0 18.5294 0H2.47059Z" fill="black"/>
</g>
</g>
</svg>
