<svg width="20" height="20" viewBox="0 0 20 20" fill="none" xmlns="http://www.w3.org/2000/svg">
<path d="M7.1875 3.5H3.8125C3.49609 3.5 3.25 3.78125 3.25 4.0625V7.4375C3.25 7.75391 3.49609 8 3.8125 8H7.1875C7.46875 8 7.75 7.75391 7.75 7.4375V4.0625C7.75 3.78125 7.46875 3.5 7.1875 3.5ZM3.8125 2.375H7.1875C8.10156 2.375 8.875 3.14844 8.875 4.0625V7.4375C8.875 8.38672 8.10156 9.125 7.1875 9.125H3.8125C2.86328 9.125 2.125 8.38672 2.125 7.4375V4.0625C2.125 3.14844 2.86328 2.375 3.8125 2.375ZM7.1875 12.5H3.8125C3.49609 12.5 3.25 12.7812 3.25 13.0625V16.4375C3.25 16.7539 3.49609 17 3.8125 17H7.1875C7.46875 17 7.75 16.7539 7.75 16.4375V13.0625C7.75 12.7812 7.46875 12.5 7.1875 12.5ZM3.8125 11.375H7.1875C8.10156 11.375 8.875 12.1484 8.875 13.0625V16.4375C8.875 17.3867 8.10156 18.125 7.1875 18.125H3.8125C2.86328 18.125 2.125 17.3867 2.125 16.4375V13.0625C2.125 12.1484 2.86328 11.375 3.8125 11.375ZM12.8125 3.5C12.4961 3.5 12.25 3.78125 12.25 4.0625V7.4375C12.25 7.75391 12.4961 8 12.8125 8H16.1875C16.4688 8 16.75 7.75391 16.75 7.4375V4.0625C16.75 3.78125 16.4688 3.5 16.1875 3.5H12.8125ZM11.125 4.0625C11.125 3.14844 11.8633 2.375 12.8125 2.375H16.1875C17.1016 2.375 17.875 3.14844 17.875 4.0625V7.4375C17.875 8.38672 17.1016 9.125 16.1875 9.125H12.8125C11.8633 9.125 11.125 8.38672 11.125 7.4375V4.0625ZM14.5 10.8125C14.7812 10.8125 15.0625 11.0938 15.0625 11.375V14.1875H17.875C18.1562 14.1875 18.4375 14.4688 18.4375 14.75C18.4375 15.0664 18.1562 15.3125 17.875 15.3125H15.0625V18.125C15.0625 18.4414 14.7812 18.6875 14.5 18.6875C14.1836 18.6875 13.9375 18.4414 13.9375 18.125V15.3125H11.125C10.8086 15.3125 10.5625 15.0664 10.5625 14.75C10.5625 14.4688 10.8086 14.1875 11.125 14.1875H13.9375V11.375C13.9375 11.0938 14.1836 10.8125 14.5 10.8125Z" fill="#F96073"/>
</svg>
