<svg width="72" height="72" viewBox="0 0 72 72" fill="none" xmlns="http://www.w3.org/2000/svg">
<path d="M58.6181 32.5521C57.5269 32.3608 61.3575 31.2865 61.3575 31.2865L57.6506 30.5383L60.795 30.0658L63.7537 29.6215L63.9619 28.9746C61.1944 28.6877 57.0262 28.2546 56.9869 28.2546C56.9475 28.2546 60.9244 27.5458 64.5637 27.0733L64.6819 26.7077C65.7956 23.209 63.6975 19.5077 60.1256 18.6696L23.2594 10.0127C19.8169 9.20271 16.3856 11.3852 15.66 14.8446L13.7644 23.8727C16.9875 23.7658 19.98 24.7896 20.745 24.7502C20.8125 24.7446 20.8687 24.739 20.8969 24.739C20.9587 24.739 20.8969 24.739 20.745 24.7502C19.8675 24.8346 16.0481 25.4421 13.3369 25.8808L13.2075 26.4996C14.5575 26.584 15.3731 26.674 15.615 26.6683C23.31 26.494 14.0456 28.2096 12.7181 28.8115L9.69749 43.1777C8.92124 46.8621 11.5369 50.4002 15.2887 50.7433L50.8106 53.9721C53.7525 54.2421 56.4806 52.4252 57.3806 49.6127L62.7187 32.8727C61.1494 32.7771 59.2369 32.6477 58.6237 32.5408L58.6181 32.5521Z" fill="#FFD5DA"/>
<path d="M7.81317 42.0246L52.335 13.2977L51.57 30.5609C45.6413 31.1965 41.1244 38.7621 43.4644 43.6784C45.8044 48.5946 50.1244 50.3215 50.1244 50.3215L49.2413 58.7984L35.7132 53.314C35.7132 53.314 28.5694 60.6265 28.5919 60.1427C28.6144 59.659 21.2963 47.5821 21.2963 47.5821L7.8188 42.019L7.81317 42.0246Z" fill="white"/>
<path d="M10.7776 42.4239L52.1495 15.7389L51.1988 29.8745C51.1988 29.8745 43.6557 32.4958 43.2563 38.6889C42.857 44.882 50.1188 50.3214 50.1188 50.3214L49.2357 58.7983L35.7076 53.3139C35.7076 53.3139 28.4513 60.7895 28.5863 60.1426C28.7213 59.4958 21.2907 47.582 21.2907 47.582L10.7776 42.4183V42.4239Z" fill="#FFF3CD"/>
<path d="M33.7556 5.27588L30.5381 8.49338" stroke="#F96073" stroke-width="1.40625" stroke-linecap="round" stroke-linejoin="round"/>
<path d="M30.5381 5.27588L33.7556 8.49338" stroke="#F96073" stroke-width="1.40625" stroke-linecap="round" stroke-linejoin="round"/>
<path d="M15.6093 56.4299L12.3918 59.6531" stroke="#F96073" stroke-width="1.40625" stroke-linecap="round" stroke-linejoin="round"/>
<path d="M12.3918 56.4299L15.6093 59.6531" stroke="#F96073" stroke-width="1.40625" stroke-linecap="round" stroke-linejoin="round"/>
<path d="M60.6713 57.127V61.6776" stroke="#F96073" stroke-width="1.40625" stroke-linecap="round" stroke-linejoin="round"/>
<path d="M58.3931 59.4055H62.9493" stroke="#F96073" stroke-width="1.40625" stroke-linecap="round" stroke-linejoin="round"/>
<path d="M59.3043 13.6627C60.3575 13.6627 61.2112 12.809 61.2112 11.7559C61.2112 10.7027 60.3575 9.849 59.3043 9.849C58.2512 9.849 57.3975 10.7027 57.3975 11.7559C57.3975 12.809 58.2512 13.6627 59.3043 13.6627Z" stroke="#FFDA6A" stroke-width="1.40625" stroke-linecap="round" stroke-linejoin="round"/>
<path d="M10.2768 19.9739C11.3299 19.9739 12.1837 19.1202 12.1837 18.067C12.1837 17.0139 11.3299 16.1602 10.2768 16.1602C9.22367 16.1602 8.36993 17.0139 8.36993 18.067C8.36993 19.1202 9.22367 19.9739 10.2768 19.9739Z" stroke="#FFDA6A" stroke-width="1.40625" stroke-linecap="round" stroke-linejoin="round"/>
<path d="M39.8699 64.1867C40.9231 64.1867 41.7768 63.3329 41.7768 62.2798C41.7768 61.2267 40.9231 60.3729 39.8699 60.3729C38.8168 60.3729 37.9631 61.2267 37.9631 62.2798C37.9631 63.3329 38.8168 64.1867 39.8699 64.1867Z" stroke="#FFDA6A" stroke-width="1.40625" stroke-linecap="round" stroke-linejoin="round"/>
<path d="M49.5281 54.5452L49.4437 55.7321L49.2355 58.7977L29.0418 50.6134L44.713 24.2096L21.2905 47.8402L7.81305 42.024L52.3349 13.2971L51.3562 27.624" stroke="#2A3539" stroke-width="1.40625" stroke-linecap="round" stroke-linejoin="round"/>
<path d="M21.2906 47.8403L28.5863 60.1422L29.0419 50.6135" stroke="#2A3539" stroke-width="1.40625" stroke-linecap="round" stroke-linejoin="round"/>
<path d="M28.5862 60.1423L35.7075 53.4373" stroke="#2A3539" stroke-width="1.40625" stroke-linecap="round" stroke-linejoin="round"/>
<path d="M8.1787 35.4482L4.80933 37.5801" stroke="#2A3539" stroke-width="1.40625" stroke-linecap="round" stroke-linejoin="round"/>
<path d="M32.1468 20.3003L11.9531 33.0634" stroke="#2A3539" stroke-width="1.40625" stroke-linecap="round" stroke-linejoin="round"/>
<path d="M52.3349 52.7281C58.601 52.7281 63.6806 47.6485 63.6806 41.3825C63.6806 35.1165 58.601 30.0369 52.3349 30.0369C46.0689 30.0369 40.9893 35.1165 40.9893 41.3825C40.9893 47.6485 46.0689 52.7281 52.3349 52.7281Z" fill="white"/>
<path d="M52.3349 50.473C57.3552 50.473 61.4249 46.4032 61.4249 41.383C61.4249 36.3627 57.3552 32.293 52.3349 32.293C47.3147 32.293 43.2449 36.3627 43.2449 41.383C43.2449 46.4032 47.3147 50.473 52.3349 50.473Z" fill="#FF9BA7"/>
<path d="M47.9644 41.5123L50.9906 44.5386L57.3075 38.2217" stroke="white" stroke-width="1.40625" stroke-linecap="round" stroke-linejoin="round"/>
<path d="M52.3349 52.7281C58.601 52.7281 63.6806 47.6485 63.6806 41.3825C63.6806 35.1165 58.601 30.0369 52.3349 30.0369C46.0689 30.0369 40.9893 35.1165 40.9893 41.3825C40.9893 47.6485 46.0689 52.7281 52.3349 52.7281Z" stroke="#2A3539" stroke-width="1.40625" stroke-linecap="round" stroke-linejoin="round"/>
</svg>
