<svg width="16" height="16" viewBox="0 0 16 16" fill="none" xmlns="http://www.w3.org/2000/svg">
<path d="M2.3125 1.625C8.82031 1.625 14.125 6.92969 14.125 13.4375C14.125 13.6836 13.9062 13.875 13.6875 13.875C13.4414 13.875 13.25 13.6836 13.25 13.4375C13.25 7.42188 8.32812 2.5 2.3125 2.5C2.06641 2.5 1.875 2.30859 1.875 2.0625C1.875 1.84375 2.06641 1.625 2.3125 1.625ZM2.3125 5.5625C6.66016 5.5625 10.1875 9.08984 10.1875 13.4375C10.1875 13.6836 9.96875 13.875 9.75 13.875C9.50391 13.875 9.3125 13.6836 9.3125 13.4375C9.3125 9.58203 6.16797 6.4375 2.3125 6.4375C2.06641 6.4375 1.875 6.24609 1.875 6C1.875 5.78125 2.06641 5.5625 2.3125 5.5625ZM2.75 12.125C2.75 12.6172 3.13281 13 3.625 13C4.08984 13 4.5 12.6172 4.5 12.125C4.5 11.6602 4.08984 11.25 3.625 11.25C3.13281 11.25 2.75 11.6602 2.75 12.125ZM5.375 12.125C5.375 12.7539 5.01953 13.3281 4.5 13.6562C3.95312 13.957 3.26953 13.957 2.75 13.6562C2.20312 13.3281 1.875 12.7539 1.875 12.125C1.875 11.5234 2.20312 10.9492 2.75 10.6211C3.26953 10.3203 3.95312 10.3203 4.5 10.6211C5.01953 10.9492 5.375 11.5234 5.375 12.125Z" fill="#2A3539"/>
</svg>
