<svg width="16" height="16" viewBox="0 0 16 16" fill="none" xmlns="http://www.w3.org/2000/svg">
<path d="M7.15234 1.67969C7.125 1.70703 7.09766 1.76172 7.09766 1.78906L6.71484 3.10156C6.63281 3.42969 6.38672 3.67578 6.11328 3.8125C5.89453 3.92188 5.70312 4.03125 5.51172 4.16797C5.26562 4.33203 4.91016 4.41406 4.58203 4.33203L3.26953 4.00391C3.21484 4.00391 3.1875 4.00391 3.13281 4.00391C2.99609 4.19531 2.85938 4.38672 2.72266 4.60547L2.61328 4.79688C2.50391 5.01562 2.39453 5.23438 2.3125 5.45312C2.3125 5.48047 2.33984 5.53516 2.36719 5.5625L3.32422 6.51953C3.54297 6.76562 3.65234 7.12109 3.625 7.42188C3.625 7.53125 3.625 7.64062 3.625 7.75C3.625 7.88672 3.625 7.99609 3.625 8.10547C3.65234 8.40625 3.54297 8.73438 3.32422 8.98047L2.36719 9.96484C2.33984 9.99219 2.3125 10.0469 2.3125 10.0742C2.39453 10.293 2.50391 10.5117 2.61328 10.7305L2.75 10.9219C2.85938 11.1406 2.99609 11.332 3.16016 11.5234C3.1875 11.5234 3.21484 11.5234 3.26953 11.5234L4.58203 11.1953C4.91016 11.1133 5.26562 11.1953 5.51172 11.3594C5.70312 11.4961 5.89453 11.6055 6.11328 11.7148C6.38672 11.8516 6.63281 12.0977 6.71484 12.4258L7.09766 13.7383C7.09766 13.7656 7.125 13.8203 7.15234 13.8477C7.42578 13.875 7.69922 13.9023 8 13.9023C8.27344 13.9023 8.54688 13.875 8.82031 13.8477C8.84766 13.8203 8.875 13.7656 8.875 13.7383L9.25781 12.4258C9.36719 12.0977 9.58594 11.8516 9.88672 11.7148C10.0781 11.6055 10.2695 11.4961 10.4609 11.3594C10.7344 11.1953 11.0625 11.1133 11.3906 11.1953L12.7031 11.5234C12.7578 11.5234 12.7852 11.5234 12.8398 11.5234C12.9766 11.332 13.1133 11.1406 13.25 10.9219L13.3594 10.7305C13.4688 10.5117 13.5781 10.293 13.6602 10.0742C13.6602 10.0469 13.6328 9.99219 13.6055 9.96484L12.6484 8.98047C12.4297 8.73438 12.3203 8.40625 12.3477 8.10547C12.3477 7.99609 12.375 7.88672 12.375 7.75C12.375 7.64062 12.3477 7.53125 12.3477 7.42188C12.3203 7.12109 12.4297 6.76562 12.6484 6.51953L13.6055 5.5625C13.6328 5.53516 13.6602 5.48047 13.6602 5.45312C13.5781 5.23438 13.4688 5.01562 13.3594 4.79688L13.2227 4.60547C13.1133 4.38672 12.9766 4.19531 12.8398 4.00391C12.7852 4.00391 12.7578 4.00391 12.7031 4.00391L11.3906 4.33203C11.0625 4.41406 10.7344 4.33203 10.4609 4.16797C10.2695 4.03125 10.0781 3.92188 9.85938 3.8125C9.58594 3.67578 9.33984 3.42969 9.25781 3.10156L8.875 1.78906C8.875 1.76172 8.84766 1.70703 8.82031 1.67969C8.54688 1.65234 8.27344 1.625 8 1.625C7.69922 1.625 7.42578 1.65234 7.15234 1.67969ZM6.93359 0.832031C7.28906 0.777344 7.64453 0.75 8 0.75C8.35547 0.75 8.68359 0.777344 9.03906 0.832031C9.09375 0.859375 9.12109 0.859375 9.17578 0.886719C9.42188 1.02344 9.64062 1.26953 9.72266 1.54297L10.1055 2.85547C10.1055 2.91016 10.1602 2.99219 10.2422 3.01953C10.4883 3.12891 10.7344 3.29297 10.9531 3.42969C11.0352 3.48438 11.1172 3.51172 11.1719 3.48438L12.4844 3.15625C12.7852 3.07422 13.1133 3.12891 13.3594 3.29297C13.3867 3.32031 13.4141 3.34766 13.4414 3.40234C13.6602 3.62109 13.8242 3.89453 13.9883 4.16797L14.125 4.35938V4.38672C14.2617 4.63281 14.3984 4.93359 14.5078 5.20703C14.5352 5.26172 14.5352 5.28906 14.5352 5.34375C14.5625 5.64453 14.4531 5.94531 14.2344 6.16406L13.2773 7.14844C13.25 7.17578 13.2227 7.25781 13.2227 7.33984C13.2227 7.47656 13.25 7.61328 13.25 7.75C13.25 7.88672 13.2227 8.05078 13.2227 8.16016C13.2227 8.26953 13.25 8.35156 13.2773 8.37891L14.2344 9.36328C14.4531 9.58203 14.5625 9.88281 14.5352 10.1836C14.5352 10.2109 14.5352 10.2656 14.5078 10.3203C14.3984 10.5938 14.2617 10.8672 14.125 11.1406L13.9883 11.3594C13.8242 11.6328 13.6602 11.9062 13.4688 12.125C13.4141 12.1797 13.3867 12.207 13.3594 12.2344C13.1133 12.3984 12.7852 12.4531 12.5117 12.3711L11.1719 12.043C11.1172 12.0156 11.0352 12.043 10.9531 12.0977C10.7344 12.2344 10.4883 12.3711 10.2422 12.5078C10.1602 12.5352 10.1055 12.6172 10.1055 12.6719L9.72266 13.957C9.64062 14.2578 9.42188 14.5039 9.17578 14.6406C9.12109 14.668 9.09375 14.668 9.03906 14.6953C8.68359 14.7227 8.35547 14.75 8 14.75C7.64453 14.75 7.28906 14.7227 6.93359 14.6953C6.87891 14.668 6.85156 14.668 6.79688 14.6406C6.55078 14.5039 6.33203 14.2578 6.25 13.957L5.86719 12.6719C5.86719 12.6172 5.8125 12.5352 5.73047 12.5078C5.48438 12.3711 5.23828 12.2344 5.01953 12.0977C4.9375 12.043 4.85547 12.0156 4.80078 12.043L3.48828 12.3711C3.1875 12.4531 2.88672 12.3984 2.64062 12.2344C2.58594 12.207 2.55859 12.1797 2.53125 12.125C2.33984 11.8789 2.14844 11.6328 1.98438 11.3594L1.875 11.1406H1.84766C1.71094 10.8672 1.57422 10.5938 1.46484 10.3203C1.46484 10.2656 1.4375 10.2109 1.4375 10.1836C1.4375 9.88281 1.51953 9.58203 1.73828 9.36328L2.69531 8.37891C2.72266 8.35156 2.75 8.26953 2.75 8.16016C2.75 8.02344 2.75 7.88672 2.75 7.75C2.75 7.61328 2.75 7.47656 2.75 7.33984C2.75 7.25781 2.72266 7.17578 2.69531 7.14844L1.73828 6.16406C1.51953 5.94531 1.4375 5.64453 1.4375 5.34375C1.4375 5.28906 1.46484 5.26172 1.46484 5.20703C1.57422 4.93359 1.71094 4.63281 1.84766 4.38672L1.875 4.35938L1.98438 4.16797V4.14062C2.14844 3.89453 2.33984 3.62109 2.53125 3.40234C2.55859 3.34766 2.58594 3.32031 2.64062 3.29297C2.88672 3.12891 3.1875 3.07422 3.48828 3.15625L4.80078 3.48438C4.85547 3.51172 4.9375 3.48438 5.01953 3.42969C5.23828 3.26562 5.48438 3.12891 5.73047 3.01953C5.8125 2.99219 5.86719 2.91016 5.86719 2.85547L6.25 1.54297C6.33203 1.26953 6.55078 1.02344 6.79688 0.886719C6.85156 0.859375 6.87891 0.859375 6.93359 0.832031ZM8.84766 5.20703L7.97266 10.457C7.94531 10.7031 7.72656 10.8672 7.48047 10.8125C7.23438 10.7852 7.07031 10.5664 7.125 10.3203L8 5.07031C8.02734 4.82422 8.24609 4.66016 8.49219 4.71484C8.73828 4.74219 8.90234 4.96094 8.84766 5.20703ZM6.11328 6.98438L5.32031 7.75L6.11328 8.54297C6.27734 8.70703 6.27734 9.00781 6.11328 9.17188C5.94922 9.33594 5.64844 9.33594 5.48438 9.17188L4.39062 8.07812C4.22656 7.91406 4.22656 7.61328 4.39062 7.44922L5.48438 6.35547C5.64844 6.19141 5.94922 6.19141 6.11328 6.35547C6.27734 6.51953 6.27734 6.82031 6.11328 6.98438ZM10.4883 6.35547L11.582 7.44922C11.7461 7.61328 11.7461 7.91406 11.582 8.07812L10.4883 9.17188C10.3242 9.33594 10.0234 9.33594 9.85938 9.17188C9.69531 9.00781 9.69531 8.70703 9.85938 8.54297L10.6523 7.75L9.85938 6.98438C9.69531 6.82031 9.69531 6.51953 9.85938 6.35547C10.0234 6.19141 10.3242 6.19141 10.4883 6.35547Z" fill="#2A3539"/>
</svg>
