<svg width="16" height="16" viewBox="0 0 16 16" fill="none" xmlns="http://www.w3.org/2000/svg">
<path d="M12.375 1.98049C12.375 1.76174 12.1289 1.67971 11.9922 1.81643L11.3359 2.50003C10.1875 3.70315 8.71094 4.55081 7.125 4.90628V9.74612C8.71094 10.1016 10.1875 10.9219 11.3359 12.1524L11.9922 12.836C12.1289 12.9727 12.375 12.8633 12.375 12.6719V1.98049ZM6.25 9.6094V5.04299C6.08594 5.07034 5.92188 5.07034 5.75781 5.09768L4.9375 5.12503H2.75C2.25781 5.12503 1.875 5.53518 1.875 6.00003V8.62503C1.875 9.11721 2.25781 9.50002 2.75 9.50002H4.9375L5.75781 9.55471C5.92188 9.55471 6.08594 9.58206 6.25 9.6094ZM11.3633 1.21487C12.0195 0.503931 13.25 0.968775 13.25 1.98049V12.6719C13.25 13.6563 12.0195 14.1485 11.3633 13.4375L10.707 12.7539C9.50391 11.4961 7.94531 10.7031 6.25 10.4844V13.2188C6.25 14.0664 5.56641 14.75 4.71875 14.75H4.28125C3.43359 14.75 2.75 14.0664 2.75 13.2188V10.375C1.76562 10.375 1 9.6094 1 8.62503V6.00003C1 5.04299 1.76562 4.25003 2.75 4.25003H4.91016L5.70312 4.22268C7.61719 4.11331 9.39453 3.29299 10.707 1.89846L11.3633 1.21487ZM3.625 10.375V13.2188C3.625 13.6016 3.89844 13.875 4.28125 13.875H4.71875C5.07422 13.875 5.375 13.6016 5.375 13.2188V10.4024L4.91016 10.375H3.625ZM14.5625 6.00003C14.7812 6.00003 15 6.21878 15 6.43753V8.18753C15 8.43362 14.7812 8.62503 14.5625 8.62503C14.3164 8.62503 14.125 8.43362 14.125 8.18753V6.43753C14.125 6.21878 14.3164 6.00003 14.5625 6.00003Z" fill="#2A3539"/>
</svg>
