<svg width="16" height="16" viewBox="0 0 16 16" fill="none" xmlns="http://www.w3.org/2000/svg">
<path d="M13.0312 11.25C13.1406 11.25 13.25 11.168 13.25 11.0312V9.71875C13.25 9.60938 13.1406 9.5 13.0312 9.5H11.7188C11.582 9.5 11.5 9.60938 11.5 9.71875V11.0312C11.5 11.168 11.582 11.25 11.7188 11.25H13.0312ZM14.125 11.0312C14.125 11.6602 13.6328 12.125 13.0312 12.125H11.7188C11.0898 12.125 10.625 11.6602 10.625 11.0312V9.71875C10.625 9.11719 11.0898 8.625 11.7188 8.625H13.0312C13.6328 8.625 14.125 9.11719 14.125 9.71875V11.0312ZM13.0312 6C13.1406 6 13.25 5.91797 13.25 5.78125V4.46875C13.25 4.35938 13.1406 4.25 13.0312 4.25H11.7188C11.582 4.25 11.5 4.35938 11.5 4.46875V5.78125C11.5 5.91797 11.582 6 11.7188 6H13.0312ZM14.125 5.78125C14.125 6.41016 13.6328 6.875 13.0312 6.875H11.7188C11.0898 6.875 10.625 6.41016 10.625 5.78125V4.46875C10.625 3.86719 11.0898 3.375 11.7188 3.375H13.0312C13.6328 3.375 14.125 3.86719 14.125 4.46875V5.78125ZM7.34375 11.25H8.65625C8.76562 11.25 8.875 11.168 8.875 11.0312V9.71875C8.875 9.60938 8.76562 9.5 8.65625 9.5H7.34375C7.20703 9.5 7.125 9.60938 7.125 9.71875V11.0312C7.125 11.168 7.20703 11.25 7.34375 11.25ZM8.65625 12.125H7.34375C6.71484 12.125 6.25 11.6602 6.25 11.0312V9.71875C6.25 9.11719 6.71484 8.625 7.34375 8.625H8.65625C9.25781 8.625 9.75 9.11719 9.75 9.71875V11.0312C9.75 11.6602 9.25781 12.125 8.65625 12.125ZM8.65625 6C8.76562 6 8.875 5.91797 8.875 5.78125V4.46875C8.875 4.35938 8.76562 4.25 8.65625 4.25H7.34375C7.20703 4.25 7.125 4.35938 7.125 4.46875V5.78125C7.125 5.91797 7.20703 6 7.34375 6H8.65625ZM9.75 5.78125C9.75 6.41016 9.25781 6.875 8.65625 6.875H7.34375C6.71484 6.875 6.25 6.41016 6.25 5.78125V4.46875C6.25 3.86719 6.71484 3.375 7.34375 3.375H8.65625C9.25781 3.375 9.75 3.86719 9.75 4.46875V5.78125ZM2.96875 11.25H4.28125C4.39062 11.25 4.5 11.168 4.5 11.0312V9.71875C4.5 9.60938 4.39062 9.5 4.28125 9.5H2.96875C2.83203 9.5 2.75 9.60938 2.75 9.71875V11.0312C2.75 11.168 2.83203 11.25 2.96875 11.25ZM4.28125 12.125H2.96875C2.33984 12.125 1.875 11.6602 1.875 11.0312V9.71875C1.875 9.11719 2.33984 8.625 2.96875 8.625H4.28125C4.88281 8.625 5.375 9.11719 5.375 9.71875V11.0312C5.375 11.6602 4.88281 12.125 4.28125 12.125ZM4.28125 6C4.39062 6 4.5 5.91797 4.5 5.78125V4.46875C4.5 4.35938 4.39062 4.25 4.28125 4.25H2.96875C2.83203 4.25 2.75 4.35938 2.75 4.46875V5.78125C2.75 5.91797 2.83203 6 2.96875 6H4.28125ZM5.375 5.78125C5.375 6.41016 4.88281 6.875 4.28125 6.875H2.96875C2.33984 6.875 1.875 6.41016 1.875 5.78125V4.46875C1.875 3.86719 2.33984 3.375 2.96875 3.375H4.28125C4.88281 3.375 5.375 3.86719 5.375 4.46875V5.78125Z" fill="#2A3539"/>
</svg>
