<svg width="16" height="16" viewBox="0 0 16 16" fill="none" xmlns="http://www.w3.org/2000/svg">
<path d="M8 1.625C4.60938 1.625 1.875 4.38672 1.875 7.75C1.875 11.1406 4.60938 13.875 8 13.875C8.21875 13.875 8.4375 14.0938 8.4375 14.3125C8.4375 14.5586 8.21875 14.75 8 14.75C4.11719 14.75 1 11.6328 1 7.75C1 3.89453 4.11719 0.75 8 0.75C11.8555 0.75 15 3.89453 15 7.75V8.40625C15 9.74609 13.9062 10.8125 12.5938 10.8125C11.6641 10.8125 10.8711 10.3203 10.4609 9.55469C9.91406 10.3203 9.01172 10.8125 8 10.8125C6.30469 10.8125 4.9375 9.44531 4.9375 7.75C4.9375 6.08203 6.30469 4.6875 8 4.6875C8.84766 4.6875 9.61328 5.04297 10.1875 5.61719V5.5625C10.1875 5.34375 10.3789 5.125 10.625 5.125C10.8438 5.125 11.0625 5.34375 11.0625 5.5625V7.75V8.40625C11.0625 9.25391 11.7461 9.9375 12.5938 9.9375C13.4141 9.9375 14.125 9.25391 14.125 8.40625V7.75C14.125 4.38672 11.3633 1.625 8 1.625ZM10.1875 7.75C10.1875 6.98438 9.75 6.27344 9.09375 5.86328C8.41016 5.48047 7.5625 5.48047 6.90625 5.86328C6.22266 6.27344 5.8125 6.98438 5.8125 7.75C5.8125 8.54297 6.22266 9.25391 6.90625 9.66406C7.5625 10.0469 8.41016 10.0469 9.09375 9.66406C9.75 9.25391 10.1875 8.54297 10.1875 7.75Z" fill="#2A3539"/>
</svg>
