<svg width="16" height="16" viewBox="0 0 16 16" fill="none" xmlns="http://www.w3.org/2000/svg">
<path d="M4.50023 3.375C4.96508 3.375 5.37523 2.99219 5.37523 2.5C5.37523 2.03516 4.96508 1.625 4.50023 1.625C4.00805 1.625 3.62523 2.03516 3.62523 2.5C3.62523 2.99219 4.00805 3.375 4.50023 3.375ZM4.50023 0.75C5.1018 0.75 5.67601 1.10547 6.00414 1.625C6.30492 2.17188 6.30492 2.85547 6.00414 3.375C5.67601 3.92188 5.1018 4.25 4.50023 4.25C3.87133 4.25 3.29711 3.92188 2.96898 3.375C2.6682 2.85547 2.6682 2.17188 2.96898 1.625C3.29711 1.10547 3.87133 0.75 4.50023 0.75ZM3.87133 6C3.18773 6 2.61351 6.54688 2.55883 7.20312L2.44945 8.57031C2.42211 9.0625 2.80492 9.5 3.32445 9.5H4.96508C4.93773 9.66406 4.93773 9.80078 4.93773 9.9375V10.375H3.62523V14.3125C3.62523 14.5586 3.40648 14.75 3.18773 14.75C2.94164 14.75 2.75023 14.5586 2.75023 14.3125V10.293C2.01195 10.0195 1.51976 9.30859 1.57445 8.48828L1.68383 7.14844C1.7932 6 2.75023 5.125 3.87133 5.125H5.1018C5.2932 5.125 5.48461 5.15234 5.64867 5.20703C5.59398 5.39844 5.59398 5.58984 5.59398 5.78125C5.59398 5.89062 5.59398 6 5.59398 6.10938C5.45726 6.05469 5.26586 6 5.1018 6H3.87133ZM12.3752 11.25H11.008C11.0354 11.1133 11.0627 10.9766 11.0627 10.8125V10.375H13.8245L12.758 6.65625C12.6487 6.27344 12.3205 6 11.9104 6H11.0627C10.7346 6 10.4612 6.19141 10.2971 6.4375C10.3518 6.24609 10.4065 6.02734 10.4065 5.78125C10.4065 5.61719 10.3791 5.45312 10.3518 5.28906C10.5705 5.17969 10.8166 5.125 11.0627 5.125H11.9104C12.7034 5.125 13.387 5.64453 13.6057 6.41016L14.6721 10.1562C14.8362 10.7031 14.3987 11.25 13.8245 11.25H13.2502V14.3125C13.2502 14.5586 13.0315 14.75 12.8127 14.75C12.5666 14.75 12.3752 14.5586 12.3752 14.3125V11.25ZM11.5002 3.375C11.9651 3.375 12.3752 2.99219 12.3752 2.5C12.3752 2.03516 11.9651 1.625 11.5002 1.625C11.008 1.625 10.6252 2.03516 10.6252 2.5C10.6252 2.99219 11.008 3.375 11.5002 3.375ZM11.5002 0.75C12.1018 0.75 12.676 1.10547 13.0041 1.625C13.3049 2.17188 13.3049 2.85547 13.0041 3.375C12.676 3.92188 12.1018 4.25 11.5002 4.25C10.8713 4.25 10.2971 3.92188 9.96898 3.375C9.6682 2.85547 9.6682 2.17188 9.96898 1.625C10.2971 1.10547 10.8713 0.75 11.5002 0.75ZM8.00023 6.4375C8.3557 6.4375 8.65648 6.16406 8.65648 5.78125C8.65648 5.42578 8.3557 5.125 8.00023 5.125C7.61742 5.125 7.34398 5.42578 7.34398 5.78125C7.34398 6.16406 7.61742 6.4375 8.00023 6.4375ZM8.00023 4.25C8.54711 4.25 9.0393 4.55078 9.31273 5.01562C9.58617 5.50781 9.58617 6.08203 9.31273 6.54688C9.0393 7.03906 8.54711 7.3125 8.00023 7.3125C7.42601 7.3125 6.93383 7.03906 6.66039 6.54688C6.38695 6.08203 6.38695 5.50781 6.66039 5.01562C6.93383 4.55078 7.42601 4.25 8.00023 4.25ZM8.00023 8.625C7.26195 8.625 6.68773 9.22656 6.68773 9.9375V10.8125C6.68773 11.0586 6.87914 11.25 7.12523 11.25H8.87523C9.09398 11.25 9.31273 11.0586 9.31273 10.8125V9.9375C9.31273 9.22656 8.71117 8.625 8.00023 8.625ZM6.68773 12.0703C6.1682 11.8789 5.81273 11.3867 5.81273 10.8125V9.9375C5.81273 8.73438 6.76976 7.75 8.00023 7.75C9.20336 7.75 10.1877 8.73438 10.1877 9.9375V10.8125C10.1877 11.3867 9.80492 11.8789 9.31273 12.0703V14.3125C9.31273 14.5586 9.09398 14.75 8.87523 14.75C8.62914 14.75 8.43773 14.5586 8.43773 14.3125V12.125H7.56273V14.3125C7.56273 14.5586 7.34398 14.75 7.12523 14.75C6.87914 14.75 6.68773 14.5586 6.68773 14.3125V12.0703Z" fill="#2A3539"/>
</svg>
