<svg width="18" height="16" viewBox="0 0 18 16" fill="none" xmlns="http://www.w3.org/2000/svg">
<path d="M5.52344 8.625H9.625C10.0898 8.625 10.5 8.24219 10.5 7.75V2.5C10.5 2.03516 10.0898 1.625 9.625 1.625H1.75C1.25781 1.625 0.875 2.03516 0.875 2.5V7.75C0.875 8.24219 1.25781 8.625 1.75 8.625H2.625C3.08984 8.625 3.5 9.03516 3.5 9.5V9.9375L5.00391 8.81641C5.16797 8.70703 5.33203 8.625 5.52344 8.625ZM9.625 9.5H5.52344L3.30859 11.168C3.17188 11.2773 3.00781 11.2773 2.84375 11.2227C2.70703 11.1406 2.625 11.0039 2.625 10.8125V10.375V9.5H1.75C0.765625 9.5 0 8.73438 0 7.75V2.5C0 1.54297 0.765625 0.75 1.75 0.75H9.625C10.582 0.75 11.375 1.54297 11.375 2.5V7.75C11.375 8.73438 10.582 9.5 9.625 9.5ZM8.75 13C7.76562 13 7 12.2344 7 11.25V10.375H7.875V11.25C7.875 11.7422 8.25781 12.125 8.75 12.125H11.9492C12.1406 12.125 12.332 12.207 12.4688 12.3164L14 13.4375V13C14 12.5352 14.3828 12.125 14.875 12.125H15.75C16.2148 12.125 16.625 11.7422 16.625 11.25V6C16.625 5.53516 16.2148 5.125 15.75 5.125H12.25V4.25H15.75C16.707 4.25 17.5 5.04297 17.5 6V11.25C17.5 12.2344 16.707 13 15.75 13H14.875V13.875V14.3125C14.875 14.5039 14.7656 14.6406 14.6289 14.7227C14.4648 14.7773 14.3008 14.7773 14.1641 14.668L11.9492 13H8.75Z" fill="#2A3539"/>
</svg>
