<svg width="14" height="19" viewBox="0 0 14 19" fill="none" xmlns="http://www.w3.org/2000/svg">
<path d="M0 0.572917C0 0.286458 0.250651 0 0.572917 0H13.1771C13.4635 0 13.75 0.286458 13.75 0.572917C13.75 0.895182 13.4635 1.14583 13.1771 1.14583H12.6042V2.75716C12.6042 3.90299 12.2103 5.01302 11.5299 5.9082L9.02344 9.16667L11.5299 12.4609C12.2103 13.3561 12.6042 14.4661 12.6042 15.612V17.1875H13.1771C13.4635 17.1875 13.75 17.474 13.75 17.7604C13.75 18.0827 13.4635 18.3333 13.1771 18.3333H0.572917C0.250651 18.3333 0 18.0827 0 17.7604C0 17.474 0.250651 17.1875 0.572917 17.1875H1.14583V15.612C1.14583 14.4661 1.50391 13.3561 2.18424 12.4609L4.69076 9.16667L2.18424 5.9082C1.50391 4.97721 1.14583 3.90299 1.14583 2.75716V1.14583H0.572917C0.250651 1.14583 0 0.895182 0 0.572917ZM2.29167 1.14583V2.75716C2.29167 3.65234 2.57812 4.51172 3.11523 5.19206L5.8724 8.8444C6.05143 9.02344 6.05143 9.3099 5.8724 9.52474L3.11523 13.1771C2.57812 13.8574 2.29167 14.7168 2.29167 15.612V17.1875H11.4583V15.612C11.4583 14.7168 11.1361 13.8574 10.6348 13.1771L7.8418 9.52474C7.66276 9.3099 7.66276 9.02344 7.8418 8.8444L10.6348 5.19206C11.1361 4.51172 11.4583 3.65234 11.4583 2.75716V1.14583H2.29167ZM7.3405 11.1361L10.2051 15.1465C10.3125 15.3255 10.3125 15.5404 10.2409 15.7552C10.1335 15.9342 9.95443 16.0417 9.73958 16.0417H6.875H4.01042C3.79557 16.0417 3.58073 15.9342 3.47331 15.7552C3.40169 15.5404 3.40169 15.3255 3.54492 15.1465L6.40951 11.1361C6.51693 10.9928 6.66016 10.8854 6.875 10.8854C7.05404 10.8854 7.23307 10.9928 7.3405 11.1361ZM6.875 14.8958H8.59375L6.875 12.4609L5.12044 14.8958H6.875Z" fill="#35CFEA"/>
</svg>
