<svg width="48" height="49" viewBox="0 0 48 49" fill="none" xmlns="http://www.w3.org/2000/svg">
<path d="M23.9999 7.5C25.2186 7.5 26.2499 6.5625 26.2499 5.25C26.2499 4.03125 25.2186 3 23.9999 3C22.6874 3 21.7499 4.03125 21.7499 5.25C21.7499 6.5625 22.6874 7.5 23.9999 7.5ZM23.9999 0C25.8749 0 27.5624 1.03125 28.4999 2.625C29.4374 4.3125 29.4374 6.28125 28.4999 7.875C27.5624 9.5625 25.8749 10.5 23.9999 10.5C22.0311 10.5 20.3436 9.5625 19.4061 7.875C18.4686 6.28125 18.4686 4.3125 19.4061 2.625C20.3436 1.03125 22.0311 0 23.9999 0ZM20.1561 22.6875C20.9061 23.0625 21.1874 24 20.8124 24.75L15.8436 34.5H19.4999H28.4999H32.0624L27.0936 24.75C26.7186 24 27.0936 23.0625 27.7499 22.6875C28.4999 22.3125 29.4374 22.5938 29.8124 23.3438L35.8124 35.3438C35.9999 35.8125 35.9999 36.375 35.7186 36.8438C35.4374 37.3125 34.9686 37.5938 34.4999 37.5938H29.9999V46.5938C29.9999 47.3438 29.2499 48.0938 28.4999 48.0938C27.6561 48.0938 26.9999 47.3438 26.9999 46.5938V37.5H20.9999V46.5C20.9999 47.3438 20.2499 48 19.4999 48C18.6561 48 17.9999 47.3438 17.9999 46.5V37.5H13.4999C12.9374 37.5 12.4686 37.3125 12.1874 36.8438C11.9061 36.375 11.9061 35.8125 12.0936 35.3438L18.0936 23.3438C18.4686 22.5938 19.4061 22.3125 20.1561 22.6875ZM18.2811 18.4688L13.3124 27.75C12.8436 28.5 11.9999 28.7812 11.2499 28.4062C10.4999 27.9375 10.2186 27.0938 10.5936 26.3438L15.5624 17.0625C17.2499 13.9688 20.4374 12 23.9999 12C27.4686 12 30.6561 13.9688 32.3436 17.0625L37.3124 26.3438C37.6874 27.0938 37.4061 27.9375 36.6561 28.4062C35.9061 28.7812 35.0624 28.5 34.5936 27.75L29.7186 18.4688C28.5936 16.4062 26.3436 15 23.9999 15C21.5624 15 19.4061 16.4062 18.2811 18.4688Z" fill="#F96073"/>
</svg>
