<svg width="16" height="16" viewBox="0 0 16 16" fill="none" xmlns="http://www.w3.org/2000/svg">
<path d="M14.9727 1.76192L13.2227 13.1369C13.1953 13.4104 13.0313 13.6564 12.7852 13.7658C12.5664 13.9025 12.2656 13.9299 12.0196 13.8205L8.90236 12.508L7.45315 14.3127C7.2344 14.6135 6.90627 14.7502 6.5508 14.7502C5.89455 14.7502 5.37502 14.2307 5.37502 13.5744V11.0314L1.51955 9.44551C1.21877 9.30879 1.00002 9.03535 1.00002 8.67988C0.972676 8.35176 1.13674 8.05098 1.43752 7.88692L13.6875 0.886916C13.961 0.722854 14.3438 0.722854 14.6172 0.91426C14.8906 1.10567 15.0274 1.43379 14.9727 1.76192ZM8.05471 12.1799L6.25002 11.4143V13.5744C6.25002 13.7658 6.3594 13.8752 6.5508 13.8752C6.63283 13.8752 6.71486 13.8479 6.76955 13.7658L8.05471 12.1799ZM9.23049 11.715L12.375 13.0002L13.961 2.6916L6.60549 10.6213L9.23049 11.715ZM13.3047 2.09004L1.87502 8.6252L5.73049 10.2385L13.3047 2.09004Z" fill="#2A3539"/>
</svg>
