<svg width="16" height="16" viewBox="0 0 16 16" fill="none" xmlns="http://www.w3.org/2000/svg">
<path d="M1.875 3.375V12.125C1.875 12.6172 2.25781 13 2.75 13H13.25C13.7148 13 14.125 12.6172 14.125 12.125V5.125C14.125 4.66016 13.7148 4.25 13.25 4.25H8.95703C8.49219 4.25 8.05469 4.08594 7.72656 3.75781L6.74219 2.77344C6.57812 2.60938 6.35938 2.5 6.14062 2.5H2.75C2.25781 2.5 1.875 2.91016 1.875 3.375ZM2.75 1.625H6.14062C6.60547 1.625 7.04297 1.81641 7.37109 2.14453L8.35547 3.12891C8.51953 3.29297 8.73828 3.375 8.95703 3.375H13.25C14.207 3.375 15 4.16797 15 5.125V12.125C15 13.1094 14.207 13.875 13.25 13.875H2.75C1.76562 13.875 1 13.1094 1 12.125V3.375C1 2.41797 1.76562 1.625 2.75 1.625ZM8 6C7.50781 6 7.125 6.41016 7.125 6.875C7.125 7.36719 7.50781 7.75 8 7.75C8.46484 7.75 8.875 7.36719 8.875 6.875C8.875 6.41016 8.46484 6 8 6ZM8 8.625C7.37109 8.625 6.79688 8.29688 6.46875 7.75C6.16797 7.23047 6.16797 6.54688 6.46875 6C6.79688 5.48047 7.37109 5.125 8 5.125C8.60156 5.125 9.17578 5.48047 9.50391 6C9.80469 6.54688 9.80469 7.23047 9.50391 7.75C9.17578 8.29688 8.60156 8.625 8 8.625ZM7.125 10.375C6.38672 10.375 5.8125 10.9766 5.8125 11.6875C5.8125 11.9336 5.59375 12.125 5.375 12.125C5.12891 12.125 4.9375 11.9336 4.9375 11.6875C4.9375 10.4844 5.89453 9.5 7.125 9.5H8.875C10.0781 9.5 11.0625 10.4844 11.0625 11.6875C11.0625 11.9336 10.8438 12.125 10.625 12.125C10.3789 12.125 10.1875 11.9336 10.1875 11.6875C10.1875 10.9766 9.58594 10.375 8.875 10.375H7.125Z" fill="#2A3539"/>
</svg>
