<svg width="16" height="16" viewBox="0 0 16 16" fill="none" xmlns="http://www.w3.org/2000/svg">
<path d="M7.9999 2.9375C8.35536 2.9375 8.65615 2.66406 8.65615 2.28125C8.65615 1.92578 8.35536 1.625 7.9999 1.625C7.61708 1.625 7.34365 1.92578 7.34365 2.28125C7.34365 2.66406 7.61708 2.9375 7.9999 2.9375ZM7.9999 0.75C8.54677 0.75 9.03896 1.05078 9.3124 1.51562C9.58583 2.00781 9.58583 2.58203 9.3124 3.04688C9.03896 3.53906 8.54677 3.8125 7.9999 3.8125C7.42568 3.8125 6.93349 3.53906 6.66005 3.04688C6.38661 2.58203 6.38661 2.00781 6.66005 1.51562C6.93349 1.05078 7.42568 0.75 7.9999 0.75ZM6.8788 7.36719C7.09755 7.47656 7.17958 7.75 7.07021 7.96875L5.62099 10.8125H6.6874H9.3124H10.3515L8.90224 7.96875C8.79286 7.75 8.90224 7.47656 9.09365 7.36719C9.3124 7.25781 9.58583 7.33984 9.69521 7.55859L11.4452 11.0586C11.4999 11.1953 11.4999 11.3594 11.4179 11.4961C11.3358 11.6328 11.1991 11.7148 11.0624 11.7148H9.7499V14.3398C9.7499 14.5586 9.53115 14.7773 9.3124 14.7773C9.0663 14.7773 8.8749 14.5586 8.8749 14.3398V11.6875H7.1249V14.3125C7.1249 14.5586 6.90615 14.75 6.6874 14.75C6.4413 14.75 6.2499 14.5586 6.2499 14.3125V11.6875H4.9374C4.77333 11.6875 4.63661 11.6328 4.55458 11.4961C4.47255 11.3594 4.47255 11.1953 4.52724 11.0586L6.27724 7.55859C6.38661 7.33984 6.66005 7.25781 6.8788 7.36719ZM6.33193 6.13672L4.88271 8.84375C4.74599 9.0625 4.4999 9.14453 4.28115 9.03516C4.0624 8.89844 3.98036 8.65234 4.08974 8.43359L5.53896 5.72656C6.03115 4.82422 6.96083 4.25 7.9999 4.25C9.01161 4.25 9.9413 4.82422 10.4335 5.72656L11.8827 8.43359C11.9921 8.65234 11.9101 8.89844 11.6913 9.03516C11.4726 9.14453 11.2265 9.0625 11.0897 8.84375L9.66786 6.13672C9.33974 5.53516 8.68349 5.125 7.9999 5.125C7.28896 5.125 6.66005 5.53516 6.33193 6.13672Z" fill="#F96073"/>
</svg>
