<svg width="16" height="16" viewBox="0 0 16 16" fill="none" xmlns="http://www.w3.org/2000/svg">
<path d="M9.66797 12.3164C9.94141 11.7695 10.1875 11.1406 10.3516 10.4023H8.41016L8.73828 9.52734H10.4883C10.5703 8.95312 10.625 8.37891 10.625 7.77734C10.625 7.14844 10.5703 6.57422 10.4883 6.02734H5.48438C5.42969 6.4375 5.375 6.875 5.375 7.33984L4.5 7.66797C4.5 7.09375 4.52734 6.54688 4.60938 6.02734H2.12109C1.95703 6.57422 1.84766 7.14844 1.84766 7.77734C1.84766 8.05078 1.875 8.32422 1.92969 8.59766L1.65625 8.70703C1.4375 8.78906 1.24609 8.89844 1.10938 9.08984C1.02734 8.65234 1 8.21484 1 7.75C1 3.89453 4.11719 0.75 8 0.75C11.8555 0.75 15 3.89453 15 7.75C15 11.6328 11.8555 14.75 8 14.75C7.53516 14.75 7.09766 14.7227 6.66016 14.6406C6.85156 14.5039 6.96094 14.3125 7.04297 14.0938L7.23438 13.5742C7.50781 13.793 7.78125 13.875 8 13.875C8.4375 13.875 9.09375 13.4922 9.66797 12.3164ZM6.30469 3.21094C6.03125 3.75781 5.78516 4.38672 5.64844 5.125H10.3516C10.1875 4.38672 9.94141 3.75781 9.66797 3.21094C9.09375 2.03516 8.4375 1.625 8 1.625C7.53516 1.625 6.87891 2.03516 6.30469 3.21094ZM11.5 7.75C11.5 8.37891 11.4453 8.95312 11.3906 9.5H13.8516C14.0156 8.95312 14.125 8.37891 14.125 7.75C14.125 7.14844 14.0156 6.57422 13.8516 6H11.3906C11.4453 6.57422 11.5 7.14844 11.5 7.75ZM11.2266 5.125H13.5234C12.8125 3.64844 11.5273 2.5 9.94141 1.95312C10.5156 2.71875 10.9805 3.83984 11.2266 5.125ZM2.44922 5.125H4.74609C5.01953 3.83984 5.45703 2.71875 6.03125 1.95312C4.44531 2.5 3.16016 3.64844 2.44922 5.125ZM11.2266 10.375C10.9805 11.6875 10.5156 12.7812 9.94141 13.5742C11.5273 13.0273 12.8125 11.8789 13.5234 10.375H11.2266ZM8.41016 7.91406L6.22266 13.793C6.16797 13.957 6.00391 14.0664 5.83984 14.0664C5.64844 14.0938 5.48438 13.9844 5.42969 13.8203L4.58203 11.7969L1.73828 14.6406C1.57422 14.8047 1.27344 14.8047 1.10938 14.6406C0.945312 14.4766 0.945312 14.1758 1.10938 14.0117L3.95312 11.168L1.92969 10.3203C1.76562 10.2656 1.65625 10.1016 1.68359 9.91016C1.68359 9.74609 1.79297 9.58203 1.95703 9.52734L7.83594 7.33984C8 7.28516 8.16406 7.33984 8.30078 7.44922C8.41016 7.58594 8.46484 7.75 8.41016 7.91406ZM4.91016 10.5938C5.01953 10.6484 5.10156 10.7305 5.15625 10.8398L5.8125 12.4258L7.26172 8.48828L3.32422 9.9375L4.91016 10.5938Z" fill="#2A3539"/>
</svg>
