<svg width="48" height="48" viewBox="0 0 48 48" fill="none" xmlns="http://www.w3.org/2000/svg">
<path d="M17.929 26.3232C17.929 31.3515 22.7802 35.4276 28.7644 35.4276C30.2413 35.4276 32.9319 34.7298 32.9319 34.7298C34.108 35.9058 37.4652 36.423 39.5618 36.6368C40.235 36.7054 40.6701 35.944 40.266 35.401C39.1491 33.9004 37.6115 31.6285 38.0472 31.0221C39.0329 29.6504 39.6001 28.0424 39.6001 26.3232C39.6001 21.2949 34.7488 17.2188 28.7646 17.2188C22.7804 17.2188 17.929 21.2949 17.929 26.3232Z" fill="#FFE8B7"/>
<path d="M39.4468 37.7663C36.206 37.4358 33.9287 36.8309 32.6585 35.9652C31.752 36.178 29.9496 36.563 28.7645 36.563C22.1637 36.563 16.7937 31.9691 16.7937 26.3228C16.7937 20.6766 22.1637 16.0831 28.7645 16.0831C35.3653 16.0831 40.7356 20.6766 40.7356 26.3228C40.7356 28.1244 40.186 29.885 39.1434 31.4342C39.2485 31.7575 39.6503 32.6716 41.1764 34.7224C41.6292 35.33 41.6801 36.1483 41.3064 36.8069C40.9645 37.4095 40.3257 37.7759 39.6418 37.7759C39.5771 37.7759 39.512 37.7728 39.4468 37.7663ZM19.0645 26.323C19.0645 30.7172 23.4157 34.2924 28.7645 34.2924C29.8546 34.2924 31.9368 33.8147 32.6475 33.6306L33.2759 33.4678L33.735 33.9269C34.2189 34.4103 35.8181 35.0352 38.8712 35.4163C36.6523 32.3108 36.5503 31.1598 37.1256 30.3594C38.002 29.1397 38.465 27.7441 38.465 26.323C38.465 21.9288 34.1132 18.3541 28.7646 18.3541C23.4159 18.3541 19.0645 21.9288 19.0645 26.323Z" fill="#FFC540"/>
<path d="M20.3711 8.8374C13.1442 8.8374 7.2645 13.9404 7.2645 20.2124C7.2645 22.029 7.76263 23.8168 8.71028 25.4191C8.48059 25.8587 8.00778 26.6446 7.04841 27.9333C6.32684 28.9019 6.24528 30.2068 6.84122 31.2565C7.38184 32.2091 8.39794 32.8007 9.49341 32.8007C9.59638 32.8007 9.70013 32.7958 9.80388 32.7852C12.9465 32.4646 15.2045 31.9004 16.6783 31.0649C17.7218 31.296 19.2617 31.5879 20.3709 31.5879C27.5975 31.5879 33.477 26.4849 33.477 20.2124C33.477 13.9399 27.5975 8.8374 20.3711 8.8374Z" fill="white"/>
<path d="M31.2073 20.2127C31.2073 25.241 26.356 29.3171 20.3718 29.3171C18.8949 29.3171 16.2043 28.6193 16.2043 28.6193C15.0282 29.7954 11.671 30.3126 9.57446 30.5263C8.90118 30.5949 8.46618 29.8335 8.87024 29.2905C9.98712 27.7899 11.5248 25.518 11.089 24.9116C10.1034 23.5399 9.53618 21.9319 9.53618 20.2127C9.53618 15.1844 14.3874 11.1083 20.3717 11.1083C26.3559 11.1083 31.2073 15.1844 31.2073 20.2127Z" fill="#FFE8B7"/>
<path d="M9.49457 31.6657C8.81066 31.6657 8.17206 31.2992 7.83003 30.6966C7.45613 30.038 7.50722 29.2197 7.96003 28.6121C9.48613 26.5613 9.888 25.6472 9.993 25.3239C8.95035 23.7747 8.40081 22.0141 8.40081 20.2125C8.40081 14.5663 13.7713 9.97284 20.3719 9.97284C26.9725 9.97284 32.3427 14.5663 32.3427 20.2125C32.3427 25.8588 26.9727 30.4527 20.3719 30.4527C19.1869 30.4527 17.3844 30.0677 16.4778 29.8549C15.2077 30.7207 12.9302 31.3255 9.68956 31.656C9.62441 31.6627 9.55925 31.6657 9.49457 31.6657ZM20.3721 12.2435C15.0233 12.2435 10.6718 15.8182 10.6718 20.2124C10.6718 21.6333 11.1347 23.0291 12.0111 24.2488C12.5863 25.0492 12.4844 26.2002 10.2655 29.3057C13.3186 28.9247 14.9178 28.2997 15.4018 27.8163L15.8608 27.3572L16.4893 27.52C17.1997 27.7041 19.2821 28.1817 20.3722 28.1817C25.721 28.1817 30.0722 24.6066 30.0722 20.2124C30.0722 15.8182 25.7208 12.2435 20.3721 12.2435Z" fill="#FFC540"/>
</svg>
