<svg width="48" height="48" viewBox="0 0 48 48" fill="none" xmlns="http://www.w3.org/2000/svg">
<path d="M7.625 24.125L6.25 17.125L6.9375 9.875L8.375 8.4375L24.0625 4.5L39.5625 8.375L41 9.8125L41.9375 12L40.75 22.375L37.875 31.8125L34.75 35.9375C33.375 37.3125 30.5625 40.0625 30.125 40.0625C29.6875 40.0625 25.3125 43.4375 25.0625 43.6875C24.8125 43.9375 22.875 43.4375 22.625 43.4375C22.375 43.4375 19.3125 41.1875 17.8125 40.0625L11.0625 32.8125L7.6875 24.125H7.625Z" fill="white"/>
<path d="M24.0626 44C23.1251 44 22.1876 43.75 21.3751 43.1875C16.6251 40.125 10.1251 35.0625 8.12509 27C7.87509 26 7.68759 25.0625 7.43759 24.125C7.37509 23.8125 7.56259 23.4375 7.87509 23.375C8.18759 23.3125 8.56259 23.5 8.62509 23.8125C8.81259 24.75 9.06259 25.6875 9.25009 26.6875C11.1251 34.375 17.3751 39.1875 21.9376 42.125C23.1876 42.9375 24.8126 42.9375 26.0626 42.125C30.6251 39.1875 36.9376 34.3125 38.7501 26.6875C40.3126 20.25 40.8751 15.5 41.1251 12.5625C41.2501 10.75 40.0626 9.125 38.3126 8.625C37.0626 8.3125 35.4376 7.875 33.3751 7.3125C28.9376 6.1875 26.1251 5.5 24.8126 5.25C24.2501 5.125 23.7501 5.125 23.1876 5.25C21.9376 5.5 19.0626 6.1875 14.6251 7.3125C12.5626 7.875 10.9376 8.3125 9.68759 8.625C7.93759 9.0625 6.75009 10.75 6.87509 12.5625C7.00009 14.0625 7.18759 15.6875 7.37509 17.3125C7.37509 17.625 7.18759 17.9375 6.87509 18C6.56259 18 6.25009 17.8125 6.18759 17.5C5.93759 15.8125 5.75009 14.125 5.62509 12.625C5.43759 10.25 7.00009 8.0625 9.31259 7.4375C10.5626 7.125 12.1876 6.6875 14.2501 6.125C18.8126 5.0625 21.6251 4.375 22.9376 4.125C23.6251 4 24.3751 4 25.0626 4.125C26.3751 4.4375 29.1876 5.0625 33.6876 6.1875C35.7501 6.75 37.3751 7.1875 38.6251 7.5C40.9376 8.125 42.5001 10.3125 42.3126 12.6875C42.1251 15.625 41.5001 20.5 39.9376 27C38.0001 35.0625 31.4376 40.125 26.6876 43.1875C25.8751 43.75 24.9376 44 24.0001 44H24.0626Z" fill="#2A3539"/>
<path opacity="0.8" d="M36.3124 10.1875C35.2499 9.9375 33.8749 9.5625 32.1249 9.0625C28.3749 8.0625 25.9999 7.5625 24.8749 7.3125C24.3749 7.1875 23.8124 7.1875 23.2499 7.3125C22.1249 7.5625 19.7499 8.125 15.9999 9.0625C14.2499 9.5 12.8749 9.875 11.8124 10.1875C10.0624 10.625 8.93743 12.25 9.06243 14.0625C9.24993 16.625 9.74993 20.6875 11.0624 26.125C12.6874 32.8125 18.0624 36.9375 22.0624 39.5625C23.3124 40.375 24.8749 40.375 26.1249 39.5625C30.1249 36.9375 35.4999 32.8125 37.1249 26.125C38.4374 20.6875 38.9374 16.625 39.1249 14.0625C39.2499 12.25 38.1249 10.6875 36.3749 10.1875H36.3124Z" fill="#FD8B25"/>
<path d="M37 12.125C36.0625 11.875 28.875 9.87499 25.375 8.93749C24.5625 8.74999 23.75 9.31249 23.8125 10.1875C26.4375 13 28.125 16.4375 28.8125 20L29.125 22.3125C29.4375 26.25 28.625 30.3125 26.5625 33.875L24.125 38.1875C24.125 38.1875 24.8125 38.375 25.125 38.1875C29.25 35.5 34.1875 31.625 35.6875 25.5625C37.0625 19.875 37.5625 15.625 37.75 13.0625C37.75 12.625 37.5 12.25 37.0625 12.125H37Z" fill="#FD8B25"/>
<path d="M26.8866 18.3171L24.6056 13.7552C24.3522 13.2483 23.5918 13.2483 23.3384 13.7552L21.0574 18.4016L15.9886 19.1619C15.3972 19.2464 15.1438 20.0067 15.5662 20.4291L19.2833 23.9773L18.4385 29.0461C18.354 29.6375 18.9454 30.0599 19.4523 29.8064C21.1419 28.8771 24.0142 27.441 24.0142 27.441L28.5762 29.8064C29.0831 30.0599 29.7589 29.6375 29.5899 29.0461L28.7451 23.9773L32.3778 20.3446C32.8002 19.9222 32.5467 19.1619 31.9554 19.0774L26.8866 18.3171Z" fill="white"/>
<path opacity="0.4" d="M25.309 34.9211C24.5049 35.3596 23.5546 35.3596 22.7505 34.9211L15.3675 31.1199C14.0517 30.462 13.1745 29.2924 12.8821 27.8304L10.9084 18.8392C10.616 17.4503 11.2739 15.9883 12.5897 15.3304L22.5312 10.5789C23.4815 10.1404 24.578 10.1404 25.5283 10.5789L35.4698 15.3304C36.7856 15.9883 37.5166 17.3772 37.1511 18.8392L35.1774 27.9035C34.885 29.2924 33.9347 30.5351 32.6189 31.193L25.2359 34.9211H25.309ZM16.3909 28.7807L23.1891 32.2164C23.7008 32.5088 24.3587 32.5088 24.8704 32.2164L31.6687 28.7807C32.1803 28.5614 32.5458 28.0497 32.6189 27.538L34.3733 19.3509C34.5195 18.5468 34.154 17.6696 33.3499 17.3041L24.7973 13.2105C24.2856 12.9912 23.7008 12.9912 23.1891 13.2105L14.6365 17.3041C13.8324 17.6696 13.4669 18.5468 13.6131 19.3509L15.3675 27.538C15.5137 28.0497 15.8792 28.5614 16.3178 28.7807H16.3909Z" fill="#FEE7D1"/>
</svg>
