<svg width="48" height="48" viewBox="0 0 48 48" fill="none" xmlns="http://www.w3.org/2000/svg">
<path opacity="0.6" fill-rule="evenodd" clip-rule="evenodd" d="M40.7324 25.1881C40.7324 25.121 40.7056 25.0595 40.6613 25.0139H40.6585C40.6539 25.0092 40.6484 25.0036 40.6428 24.999C40.6428 24.998 40.6419 24.998 40.6419 24.9962C40.6364 24.9925 40.6327 24.9906 40.6271 24.9859C40.6216 24.9822 40.6151 24.9775 40.6087 24.9738C40.1296 24.67 39.5526 24.4296 38.7717 24.5042C38.5861 24.055 38.4273 23.5789 38.2372 23.1353C38.2325 23.1213 38.227 23.1083 38.2215 23.0962C38.179 23.0198 38.1005 22.9685 38.0073 22.9685C37.9639 22.9685 37.9242 22.9806 37.8891 22.9993C37.8688 23.0151 37.8495 23.0319 37.8291 23.0477C37.351 23.4372 36.9956 23.9479 36.8303 24.6542C36.3475 24.6728 35.885 24.7138 35.4023 24.7362C35.3829 24.7371 35.3616 24.7371 35.3413 24.7381C35.2259 24.7576 35.1392 24.8583 35.1392 24.9794C35.1392 24.9943 35.1401 25.0092 35.1429 25.0223C35.1493 25.0456 35.1576 25.0679 35.165 25.0903C35.3884 25.7472 35.8703 26.2169 36.3678 26.5943C36.2469 27.0499 36.1297 27.5112 36.0097 27.9697C36.006 27.9846 36.0032 27.9976 35.9995 28.0116C35.9967 28.0265 35.9958 28.0396 35.9958 28.0545C35.9958 28.1793 36.0863 28.2809 36.2054 28.2977C36.234 28.2977 36.2626 28.2958 36.2912 28.2949C37.0316 28.2576 37.5984 27.9501 38.0498 27.6007C38.4569 27.8569 38.852 28.1243 39.2572 28.3815C39.2683 28.389 39.2775 28.3955 39.2886 28.402C39.3228 28.4197 39.3615 28.43 39.4012 28.43C39.5065 28.43 39.5951 28.3629 39.6302 28.2697C39.6339 28.2557 39.6375 28.2408 39.6403 28.2278C39.8 27.6184 39.7631 26.8086 39.5111 26.3138C39.8757 26.0035 40.2625 25.7109 40.6207 25.395C40.6216 25.395 40.6234 25.3941 40.6244 25.3931V25.3941V25.3931C40.6401 25.3782 40.6558 25.3652 40.6724 25.3512V25.3503L40.6705 25.3512C40.6724 25.3503 40.6724 25.3493 40.6733 25.3475C40.7111 25.3055 40.7324 25.2487 40.7324 25.1881" fill="white"/>
<path opacity="0.6" fill-rule="evenodd" clip-rule="evenodd" d="M47.3893 22.5226C47.4548 22.4592 47.4881 22.3744 47.489 22.2896C47.489 22.2896 47.4881 22.2887 47.4881 22.2878C47.4881 22.2766 47.4881 22.2673 47.4872 22.258C47.4872 22.257 47.4862 22.2542 47.4872 22.2542C47.4862 22.2458 47.4862 22.2393 47.4853 22.2309C47.4825 22.2207 47.4807 22.2114 47.4779 22.2011C47.321 21.4482 47.0108 20.6599 46.2068 19.9666C46.4634 19.3646 46.7717 18.7645 47.0191 18.1616C47.0256 18.1439 47.033 18.1281 47.0404 18.1104C47.0745 17.9976 47.0487 17.8718 46.9628 17.7823C46.9213 17.7395 46.8724 17.7106 46.8216 17.6957C46.7874 17.6901 46.7533 17.6864 46.721 17.6817C45.8994 17.5792 45.076 17.7125 44.2451 18.2119C43.7734 17.7591 43.2999 17.3453 42.8281 16.8943C42.8078 16.8757 42.7885 16.8561 42.7681 16.8375C42.6408 16.7424 42.4626 16.7527 42.3463 16.8664C42.3315 16.8794 42.3204 16.8943 42.3094 16.9102C42.2937 16.9372 42.2789 16.967 42.265 16.9959C41.8459 17.828 41.8459 18.7403 41.9521 19.5789C41.4019 19.8874 40.8499 20.2061 40.2979 20.5191C40.2812 20.5285 40.2656 20.5378 40.2471 20.5471C40.2314 20.5583 40.2176 20.5704 40.2037 20.5834C40.0846 20.6999 40.0717 20.8854 40.1677 21.0167C40.1945 21.0447 40.2231 21.0708 40.2508 21.0978C40.9801 21.7864 41.8062 22.0511 42.5641 22.1648C42.6989 22.8012 42.8134 23.4377 42.9472 24.075C42.9509 24.0927 42.9528 24.1086 42.9565 24.1253C42.9712 24.1738 42.9989 24.2213 43.0349 24.2605C43.1346 24.3639 43.2814 24.3872 43.4042 24.3341C43.4208 24.3248 43.4374 24.3145 43.4549 24.3052C44.1879 23.8887 44.9283 23.0938 45.1655 22.3847C45.8052 22.449 46.4468 22.5543 47.0865 22.6065C47.0884 22.6074 47.0893 22.6083 47.0921 22.6074C47.0921 22.6093 47.0911 22.6093 47.0911 22.6093C47.0911 22.6093 47.0921 22.6093 47.0921 22.6074C47.1198 22.6102 47.1484 22.613 47.1761 22.6158C47.177 22.6158 47.177 22.6158 47.1779 22.6148C47.177 22.6158 47.177 22.6158 47.1751 22.6148C47.1779 22.6148 47.1798 22.6139 47.1816 22.6139C47.2564 22.6102 47.3321 22.5794 47.3893 22.5226" fill="white"/>
<path fill-rule="evenodd" clip-rule="evenodd" d="M36.69 30.9109C36.6263 30.9221 36.5598 30.9407 36.4961 30.951C30.4219 31.8726 25.5275 27.6644 25.6069 21.778C25.6568 18.0721 27.5418 15.5012 30.1164 13.85C30.1819 13.808 30.2493 13.7698 30.3149 13.7288C30.3961 13.644 30.4469 13.5294 30.4469 13.4017C30.4469 13.2154 30.3379 13.0579 30.1829 12.9787C30.1016 12.9666 30.0167 12.9442 29.9364 12.9321C22.6972 11.9183 17.1917 17.4515 16.8779 23.76C16.5594 30.1627 21.6837 35.4583 27.4615 35.8757C31.7374 36.1851 34.9545 34.4379 37.0131 31.73C37.026 31.7114 37.0389 31.6955 37.0518 31.6769C37.1146 31.5967 37.158 31.4989 37.158 31.388C37.158 31.1252 36.9494 30.9137 36.69 30.9109" fill="white"/>
<path fill-rule="evenodd" clip-rule="evenodd" d="M35.0151 20.2931C35.0696 20.2502 35.1019 20.1897 35.1092 20.1263C35.1092 20.1263 35.1092 20.1254 35.1092 20.1244C35.1102 20.117 35.1111 20.1095 35.1111 20.1021V20.0993C35.1111 20.0928 35.1111 20.0881 35.1111 20.0806C35.1111 20.0732 35.1102 20.0657 35.1083 20.0573C35.0529 19.4777 34.884 18.8562 34.3366 18.2664C34.5794 17.8349 34.8618 17.4081 35.0982 16.9748C35.1056 16.9618 35.112 16.9506 35.1185 16.9376C35.1536 16.8556 35.1452 16.7587 35.0871 16.6841C35.0594 16.6478 35.0252 16.6226 34.9883 16.6058C34.9625 16.5993 34.9375 16.5937 34.9135 16.5872C34.3024 16.4409 33.6701 16.4707 33.0027 16.7773C32.6851 16.3962 32.362 16.0439 32.0445 15.6647C32.0306 15.6488 32.0177 15.633 32.0039 15.6162C31.9162 15.5342 31.7814 15.5268 31.6835 15.6032C31.6715 15.6116 31.6623 15.6218 31.6521 15.633C31.6383 15.6526 31.6254 15.6731 31.6115 15.6936C31.2266 16.2853 31.1509 16.973 31.162 17.6141C30.7207 17.8004 30.2785 17.9933 29.8364 18.1825C29.8225 18.1881 29.8096 18.1937 29.7957 18.2002C29.7828 18.2067 29.7717 18.2151 29.7597 18.2235C29.661 18.3018 29.6351 18.4397 29.697 18.5468C29.7145 18.5701 29.7339 18.5925 29.7524 18.6149C30.2453 19.1954 30.8463 19.4647 31.4075 19.6147C31.4564 20.1067 31.4906 20.5959 31.5377 21.088C31.5395 21.101 31.5395 21.1131 31.5414 21.1252C31.5478 21.1634 31.5644 21.2016 31.5884 21.2343C31.6549 21.3209 31.7638 21.3507 31.8608 21.3218C31.8737 21.3153 31.8875 21.3097 31.9014 21.3032C32.4885 21.0516 33.1125 20.5158 33.3507 20.0005C33.827 20.1039 34.3024 20.2372 34.7806 20.3304C34.7815 20.3313 34.7825 20.3322 34.7843 20.3322C34.7834 20.3322 34.7825 20.3332 34.7825 20.3332C34.7825 20.3332 34.7834 20.3322 34.7843 20.3322C34.8046 20.336 34.8258 20.3406 34.8462 20.3453C34.8471 20.3453 34.8471 20.3453 34.848 20.3444C34.8471 20.3453 34.8471 20.3453 34.8462 20.3444H34.8508C34.908 20.3481 34.9671 20.3304 35.0151 20.2931" fill="white"/>
<path fill-rule="evenodd" clip-rule="evenodd" d="M12.6742 33.4571C12.6419 33.3518 12.5699 33.2698 12.4794 33.2223H12.4776C12.4665 33.2158 12.4563 33.2111 12.4453 33.2074C12.4443 33.2055 12.4416 33.2055 12.4406 33.2055C12.4314 33.2018 12.424 33.199 12.4139 33.1953C12.4028 33.1915 12.3908 33.1878 12.3779 33.1859C11.4908 32.9465 10.4772 32.8551 9.3011 33.3518C8.798 32.7452 8.32536 32.0827 7.81672 31.4863C7.80195 31.4676 7.78718 31.4518 7.77148 31.4332C7.67086 31.3363 7.52224 31.2953 7.38008 31.3409C7.31177 31.3605 7.25546 31.3987 7.21023 31.4462C7.18622 31.4807 7.16315 31.5142 7.14007 31.5496C6.58527 32.3874 6.27695 33.3555 6.3591 34.5306C5.61784 34.798 4.91903 35.0878 4.18053 35.3553C4.14915 35.3674 4.11776 35.3776 4.08637 35.3888C3.91744 35.4755 3.82882 35.6758 3.88698 35.865C3.89436 35.8864 3.90359 35.9088 3.91375 35.9265C3.93498 35.96 3.95806 35.9917 3.98114 36.0234C4.64302 36.9329 5.61599 37.4295 6.5705 37.7696C6.59912 38.5375 6.63973 39.3118 6.67297 40.0815C6.67389 40.1058 6.67389 40.129 6.67574 40.1533C6.67851 40.1756 6.68312 40.1971 6.69051 40.2204C6.74959 40.4133 6.94067 40.5279 7.13268 40.4953C7.17699 40.4804 7.2213 40.4645 7.26469 40.4487C8.39829 40.0293 9.12848 39.2755 9.66481 38.5132C10.4172 38.7136 11.1603 38.9354 11.9126 39.1376C11.932 39.1422 11.9514 39.1478 11.9708 39.1525C12.0317 39.1637 12.0963 39.1609 12.1591 39.1413C12.3225 39.0901 12.4286 38.9428 12.4379 38.7807C12.437 38.7565 12.436 38.7332 12.4351 38.7099C12.389 37.6848 11.9449 36.4474 11.3163 35.8016C11.7335 35.1409 12.1932 34.4998 12.5994 33.8317C12.6003 33.8308 12.6022 33.8298 12.604 33.8261C12.6031 33.828 12.6031 33.8289 12.6031 33.8289C12.6031 33.8289 12.604 33.828 12.604 33.8261C12.6216 33.7972 12.6382 33.7702 12.6567 33.7413C12.6567 33.7395 12.6567 33.7395 12.6576 33.7376C12.6567 33.7395 12.6567 33.7395 12.6557 33.7413C12.6567 33.7385 12.6576 33.7357 12.6594 33.7339C12.6945 33.6491 12.7028 33.5522 12.6742 33.4571" fill="white"/>
<path fill-rule="evenodd" clip-rule="evenodd" d="M26.3895 0.882467C26.3332 0.786488 26.2445 0.724055 26.1458 0.698896C26.1458 0.698896 26.1448 0.698896 26.1439 0.698896C26.1319 0.695168 26.1208 0.693305 26.1098 0.691441C26.1079 0.691441 26.1052 0.690509 26.1042 0.690509C26.095 0.689577 26.0867 0.688646 26.0765 0.686782C26.0645 0.68585 26.0525 0.68585 26.0396 0.68585C25.1211 0.660691 24.114 0.80792 23.0838 1.5655C22.4551 1.09213 21.8431 0.558189 21.2117 0.0959986C21.1941 0.0820211 21.1757 0.0689754 21.1572 0.0559297C21.0363 -0.0158215 20.8821 -0.0214126 20.7547 0.0559297C20.6929 0.0922713 20.6458 0.14259 20.6126 0.199432C20.5978 0.237638 20.583 0.275843 20.5683 0.315912C20.2193 1.25893 20.1418 2.2737 20.4907 3.39842C19.8307 3.83079 19.2168 4.27528 18.5595 4.70765C18.5318 4.72722 18.5041 4.74492 18.4755 4.76263C18.3306 4.88656 18.2909 5.10182 18.3906 5.27141C18.4026 5.29191 18.4165 5.31055 18.4303 5.32732C18.4589 5.35341 18.4885 5.3795 18.5189 5.40466C19.37 6.13522 20.4307 6.39147 21.4369 6.5005C21.6409 7.24038 21.8569 7.98491 22.0656 8.72572C22.072 8.74902 22.0776 8.77138 22.0849 8.79468C22.0923 8.81611 22.1016 8.83661 22.1136 8.85711C22.216 9.03136 22.4274 9.09752 22.6074 9.02111C22.6471 8.99688 22.6868 8.97079 22.7256 8.9447C23.7318 8.27378 24.2709 7.36897 24.618 6.50236C25.3953 6.52193 26.1698 6.5648 26.948 6.5853C26.9683 6.58623 26.9877 6.58716 27.008 6.58716C27.0689 6.58436 27.1326 6.56666 27.1889 6.53218C27.3348 6.44459 27.4049 6.27686 27.3763 6.11658C27.3698 6.09422 27.3643 6.07092 27.3578 6.04763C27.079 5.06175 26.3636 3.96125 25.6039 3.47949C25.8596 2.73961 26.1605 2.00812 26.4024 1.26452C26.4033 1.26266 26.4052 1.26079 26.4061 1.258C26.4052 1.25893 26.4061 1.26079 26.4061 1.26079V1.258C26.4162 1.22538 26.4264 1.19463 26.4375 1.16202C26.4366 1.16015 26.4375 1.16015 26.4375 1.15829C26.4375 1.16015 26.4366 1.16015 26.4366 1.16202C26.4366 1.15922 26.4366 1.15736 26.4384 1.15456C26.4532 1.06417 26.4393 0.967264 26.3895 0.882467" fill="white"/>
<path fill-rule="evenodd" clip-rule="evenodd" d="M22.9217 44.1433C22.931 44.0603 22.9051 43.9802 22.8562 43.9206C22.8562 43.9206 22.8562 43.9196 22.8553 43.9187C22.8497 43.9112 22.8442 43.9038 22.8377 43.8982C22.8377 43.8982 22.8359 43.8963 22.835 43.8963C22.8294 43.8907 22.8257 43.887 22.8202 43.8805C22.8128 43.8749 22.8054 43.8693 22.7971 43.8628C22.2515 43.4258 21.574 43.0521 20.6065 43.039C20.4385 42.4622 20.3074 41.8575 20.133 41.2872C20.1284 41.2695 20.1228 41.2527 20.1173 41.2369C20.0767 41.1372 19.9853 41.0636 19.8727 41.0524C19.82 41.0458 19.7683 41.0552 19.7222 41.0738C19.6963 41.0906 19.6705 41.1064 19.6437 41.1241C19.0058 41.5369 18.5009 42.1165 18.2064 42.9598C17.6101 42.9188 17.0368 42.9077 16.4423 42.8685C16.4174 42.8667 16.3925 42.8648 16.3676 42.8629C16.2235 42.8713 16.1017 42.9831 16.086 43.1322C16.0842 43.1509 16.0842 43.1686 16.0851 43.1853C16.0906 43.2142 16.0971 43.2431 16.1035 43.272C16.2919 44.1069 16.819 44.7499 17.3821 45.2782C17.1716 45.8224 16.9676 46.3731 16.7599 46.9173C16.7525 46.935 16.746 46.9518 16.7405 46.9686C16.7359 46.9854 16.7313 47.0012 16.7303 47.0208C16.7128 47.1727 16.8116 47.3106 16.9556 47.3478C16.9907 47.3497 17.0267 47.3525 17.0608 47.3544C17.9756 47.4093 18.7104 47.1084 19.3114 46.7412C19.7748 47.1112 20.2262 47.4913 20.6887 47.8622C20.7007 47.8715 20.7127 47.8818 20.7247 47.8911C20.7635 47.9172 20.8096 47.9349 20.8595 47.9405C20.9878 47.9545 21.106 47.8846 21.1604 47.7746C21.1669 47.7588 21.1743 47.7401 21.1807 47.7243C21.4558 46.9984 21.5186 46.0004 21.274 45.3584C21.7632 45.0266 22.2746 44.721 22.7574 44.3809C22.7583 44.3809 22.7602 44.38 22.762 44.379L22.7611 44.3809L22.762 44.379C22.7833 44.3632 22.8036 44.3501 22.8248 44.3352C22.8257 44.3334 22.8257 44.3334 22.8257 44.3334C22.8257 44.3334 22.8257 44.3334 22.8248 44.3343C22.8257 44.3334 22.8267 44.3315 22.8285 44.3306C22.8793 44.2821 22.9134 44.2169 22.9217 44.1433" fill="white"/>
<path fill-rule="evenodd" clip-rule="evenodd" d="M24.9354 39.5348C24.9613 39.4929 24.9677 39.4444 24.9567 39.3987V39.3987C24.9548 39.3932 24.9539 39.3885 24.953 39.3829L24.952 39.381C24.9502 39.3764 24.9493 39.3736 24.9474 39.3689C24.9447 39.3643 24.9428 39.3587 24.94 39.354C24.76 38.9804 24.4951 38.6076 23.9828 38.3486C24.04 37.9991 24.124 37.6441 24.1748 37.2956C24.1766 37.2844 24.1785 37.2751 24.1803 37.2639C24.1831 37.2005 24.1535 37.139 24.0963 37.1027C24.0695 37.0859 24.04 37.0775 24.0114 37.0757C23.9929 37.0775 23.9745 37.0794 23.956 37.0822C23.512 37.1372 23.0966 37.3152 22.7264 37.6879C22.4199 37.5118 22.1171 37.3571 21.8116 37.1838C21.7986 37.1763 21.7848 37.1679 21.7728 37.1605C21.6934 37.1288 21.6011 37.1568 21.554 37.2313C21.5494 37.2406 21.5448 37.2499 21.5411 37.2593C21.5365 37.276 21.5328 37.2937 21.5291 37.3105C21.4174 37.8034 21.5346 38.2815 21.6999 38.7073C21.4506 38.9421 21.2023 39.1826 20.9531 39.4192C20.9457 39.4276 20.9383 39.4342 20.9309 39.4416C20.9235 39.4491 20.918 39.4575 20.9124 39.4668C20.8644 39.5432 20.882 39.642 20.9494 39.6988C20.9669 39.7081 20.9854 39.7193 21.0029 39.7305C21.4756 39.9942 21.9436 40.0249 22.3562 39.9849C22.5095 40.3008 22.6516 40.6204 22.8049 40.9372C22.8085 40.9456 22.8122 40.953 22.8169 40.9605C22.8298 40.9857 22.8501 41.0062 22.875 41.0229C22.9406 41.063 23.0209 41.0565 23.0781 41.0118C23.0855 41.0043 23.0929 40.9968 23.1012 40.9894C23.4317 40.6754 23.7169 40.1601 23.7511 39.7556C24.0945 39.7063 24.4452 39.6755 24.7868 39.6196H24.7905H24.7896H24.7905C24.8053 39.6159 24.82 39.614 24.8357 39.6121L24.8366 39.6112C24.8357 39.6121 24.8357 39.6121 24.8348 39.6121C24.8366 39.6112 24.8376 39.6103 24.8376 39.6103C24.8773 39.5982 24.9123 39.5721 24.9354 39.5348" fill="white"/>
<path fill-rule="evenodd" clip-rule="evenodd" d="M44.0851 33.2659C44.0426 33.2351 43.9918 33.2249 43.9438 33.2333C43.9438 33.2333 43.9429 33.2333 43.942 33.2342C43.9365 33.2351 43.9309 33.2361 43.9263 33.237L43.9235 33.2379C43.9189 33.2389 43.9152 33.2407 43.9106 33.2426C43.906 33.2445 43.8995 33.2463 43.894 33.2473C43.4887 33.4187 43.077 33.6796 42.7724 34.2145C42.4059 34.1306 42.0357 34.0179 41.6702 33.9405C41.6591 33.9377 41.6489 33.9359 41.6388 33.9322C41.5714 33.9247 41.5031 33.9536 41.4625 34.0123C41.4422 34.0402 41.432 34.0701 41.4283 34.1027C41.4283 34.1232 41.4302 34.1418 41.4311 34.1623C41.4606 34.6441 41.6231 35.1025 41.9914 35.5265C41.7865 35.8443 41.6037 36.1592 41.3997 36.4779C41.3923 36.4919 41.3831 36.505 41.3748 36.518C41.3342 36.6019 41.3591 36.7025 41.4357 36.7575C41.4449 36.764 41.4542 36.7696 41.4643 36.7733C41.4809 36.7789 41.4994 36.7854 41.5169 36.7892C42.0302 36.942 42.5435 36.846 43.0041 36.696C43.2358 36.9793 43.474 37.2616 43.7075 37.5449C43.7158 37.5542 43.7223 37.5617 43.7306 37.57C43.738 37.5794 43.7463 37.5859 43.7555 37.5924C43.8331 37.6483 43.9383 37.6353 44.0029 37.5663C44.0149 37.5486 44.0278 37.529 44.0398 37.5104C44.35 37.0184 44.4109 36.5171 44.3952 36.0707C44.7396 35.9263 45.0848 35.7921 45.4291 35.6486C45.4393 35.6449 45.4476 35.6411 45.4568 35.6374C45.4827 35.6244 45.5067 35.6048 45.5242 35.5778C45.5722 35.5107 45.5704 35.424 45.527 35.3588C45.5196 35.3504 45.5131 35.343 45.5048 35.3336C45.1937 34.9562 44.6676 34.6161 44.2429 34.5546C44.2115 34.181 44.2023 33.8026 44.1635 33.4299C44.1654 33.429 44.1654 33.428 44.1645 33.4262C44.1645 33.4271 44.1654 33.428 44.1654 33.428C44.1654 33.428 44.1645 33.4271 44.1645 33.4262C44.1626 33.4103 44.1617 33.3945 44.1598 33.3777C44.1598 33.3768 44.1598 33.3768 44.1589 33.3768C44.1598 33.3768 44.1598 33.3768 44.1598 33.3786C44.1589 33.3768 44.1589 33.3758 44.1589 33.3749C44.1478 33.3311 44.1238 33.2929 44.0851 33.2659" fill="white"/>
<path fill-rule="evenodd" clip-rule="evenodd" d="M45.2093 25.7566C45.1419 25.7361 45.0727 25.7435 45.0145 25.7752H45.0136C45.0062 25.7799 44.9997 25.7836 44.9951 25.7873C44.9933 25.7873 44.9914 25.7892 44.9914 25.7892C44.9868 25.7929 44.9831 25.7957 44.9776 25.7994C44.9711 25.806 44.9647 25.8116 44.9591 25.8162C44.5151 26.202 44.0988 26.708 43.9326 27.5131C43.4332 27.5606 42.9162 27.5727 42.4196 27.6277C42.4058 27.6277 42.391 27.6305 42.3771 27.6324C42.2894 27.6491 42.2147 27.7153 42.187 27.8057C42.1731 27.8495 42.1713 27.8942 42.1805 27.9352C42.1897 27.9604 42.199 27.9846 42.2091 28.0098C42.4445 28.6089 42.8396 29.1214 43.4821 29.5054C43.3538 29.9955 43.2513 30.4726 43.1249 30.9618C43.1184 30.9823 43.1138 31.0028 43.1082 31.0242C43.0907 31.1463 43.1636 31.2647 43.2836 31.3029C43.2984 31.3066 43.3123 31.3094 43.3261 31.3122C43.352 31.3113 43.376 31.3113 43.4018 31.3094C44.1145 31.2861 44.7265 30.9488 45.2499 30.5649C45.6616 30.8267 46.0807 31.0857 46.4943 31.3467C46.5072 31.355 46.5183 31.3644 46.5321 31.3709C46.545 31.3783 46.5589 31.3839 46.5727 31.3877C46.6946 31.4268 46.8238 31.3672 46.8764 31.2507C46.8857 31.2237 46.8921 31.1929 46.8986 31.1659C47.0906 30.4102 46.9623 29.7486 46.7592 29.1895C47.1358 28.8596 47.5189 28.5437 47.8974 28.2176C47.9076 28.2092 47.9177 28.2008 47.927 28.1915C47.9537 28.1644 47.9759 28.1281 47.9888 28.089C48.0211 27.9846 47.9814 27.8728 47.902 27.8094C47.8891 27.802 47.8753 27.7936 47.8642 27.7861C47.3122 27.4404 46.5053 27.227 45.9404 27.3286C45.7465 26.8664 45.5785 26.3902 45.3773 25.9308C45.3773 25.9308 45.3764 25.9299 45.3754 25.929C45.3764 25.928 45.3773 25.9299 45.3773 25.9299C45.3773 25.9299 45.3764 25.928 45.3754 25.929C45.3671 25.9075 45.3579 25.888 45.3505 25.8675H45.3487V25.8693C45.3487 25.8675 45.3477 25.8675 45.3459 25.8637C45.3154 25.8144 45.2684 25.7752 45.2093 25.7566" fill="white"/>
<path fill-rule="evenodd" clip-rule="evenodd" d="M44.0199 10.7626C44.0384 10.6974 44.0282 10.6313 43.9977 10.5754C43.9977 10.5754 43.9968 10.5754 43.9959 10.5744C43.9922 10.5679 43.9885 10.5623 43.9839 10.5558C43.9848 10.5558 43.983 10.5539 43.9839 10.553C43.9793 10.5483 43.9765 10.5446 43.9728 10.539C43.9682 10.5343 43.9627 10.5288 43.9581 10.5232C43.5777 10.0992 43.0866 9.71061 42.3149 9.56897C42.2567 9.08535 42.2318 8.58402 42.1681 8.10506C42.1663 8.09015 42.1644 8.07617 42.1626 8.06312C42.1423 7.97833 42.0804 7.90751 41.9918 7.88142C41.9493 7.8693 41.9078 7.87023 41.8681 7.87862C41.845 7.88794 41.8219 7.89912 41.7989 7.90844C41.2339 8.15351 40.7548 8.54768 40.4059 9.18226C39.9369 9.06951 39.4791 8.98284 39.0101 8.87102C38.9907 8.8673 38.9704 8.86171 38.9501 8.85705C38.8338 8.844 38.723 8.91762 38.6907 9.0341C38.6861 9.049 38.6842 9.06298 38.6824 9.07603C38.6833 9.10026 38.6842 9.12448 38.6861 9.14871C38.7249 9.84106 39.0627 10.4263 39.4412 10.9239C39.2021 11.3301 38.9658 11.7429 38.7276 12.1511C38.7202 12.1632 38.7129 12.1762 38.7064 12.1884C38.6999 12.2014 38.6953 12.2144 38.6907 12.2284C38.6575 12.3477 38.7184 12.4716 38.8282 12.5201C38.8559 12.5275 38.8836 12.5331 38.9113 12.5406C39.6341 12.7065 40.2628 12.5648 40.7908 12.3533C41.1139 12.7111 41.4222 13.0755 41.7444 13.4342C41.7527 13.4445 41.7601 13.4529 41.7684 13.4622C41.7961 13.4883 41.8302 13.5088 41.869 13.5199C41.9706 13.5488 42.074 13.5088 42.133 13.4277C42.1395 13.4156 42.1469 13.4025 42.1543 13.3904C42.4709 12.8472 42.6518 12.0579 42.542 11.5128C42.9768 11.3134 43.4263 11.1382 43.8565 10.9313C43.8584 10.9304 43.8593 10.9304 43.8611 10.9294L43.8602 10.9313L43.8611 10.9294C43.8796 10.9211 43.899 10.9117 43.9174 10.9034L43.9184 10.9015L43.9165 10.9024C43.9184 10.9015 43.9193 10.9006 43.9202 10.9006C43.9673 10.8689 44.0033 10.8204 44.0199 10.7626" fill="white"/>
<path fill-rule="evenodd" clip-rule="evenodd" d="M12.0727 6.47754C12.093 6.52227 12.1309 6.55302 12.1743 6.56886C12.1807 6.57073 12.1853 6.57259 12.19 6.57445H12.1918C12.1973 6.57539 12.1992 6.57632 12.2047 6.57632C12.2093 6.57725 12.2149 6.57725 12.2213 6.57818C12.6303 6.62477 13.0845 6.59868 13.5737 6.30143C13.8359 6.53718 14.0888 6.79903 14.3528 7.03012C14.3611 7.03664 14.3685 7.04317 14.3759 7.04969C14.4276 7.08696 14.4959 7.09535 14.5559 7.06553C14.5845 7.05155 14.6067 7.03105 14.6242 7.00682C14.6325 6.99005 14.6408 6.97421 14.6482 6.95744C14.8402 6.54929 14.9132 6.09922 14.8015 5.58391C15.1116 5.41711 15.4033 5.24193 15.7126 5.07513C15.7264 5.06768 15.7394 5.06022 15.7523 5.0537C15.8224 5.00338 15.8474 4.90926 15.8095 4.82913C15.8058 4.82074 15.7994 4.81142 15.7938 4.80397C15.7828 4.79092 15.7698 4.77788 15.7578 4.76576C15.4052 4.40607 14.9418 4.25046 14.4968 4.16286C14.435 3.82461 14.3667 3.48449 14.3021 3.14437C14.2993 3.13505 14.2974 3.12387 14.2956 3.11455C14.2928 3.1043 14.2891 3.09498 14.2845 3.08473C14.2458 3.00273 14.1534 2.96453 14.0704 2.99248C14.0528 3.0018 14.0334 3.01205 14.015 3.02137C13.5414 3.28228 13.2654 3.66433 13.078 4.038C12.7309 3.99886 12.3875 3.95041 12.0404 3.91034C12.0321 3.91034 12.0229 3.90847 12.0146 3.90754C11.9869 3.90661 11.9582 3.9122 11.9315 3.92432C11.8622 3.95879 11.8253 4.03054 11.8318 4.10323C11.8336 4.11348 11.8355 4.12373 11.8373 4.13398C11.9241 4.58499 12.202 5.10402 12.5214 5.35002C12.3801 5.66964 12.2176 5.98367 12.081 6.30608C12.0801 6.30702 12.0801 6.30795 12.0792 6.30888C12.0736 6.32286 12.0681 6.33684 12.0607 6.35175C12.0607 6.35175 12.0616 6.35175 12.0616 6.35268C12.0616 6.35175 12.0616 6.35174 12.0616 6.35081C12.0616 6.35268 12.0607 6.35361 12.0607 6.35361C12.0506 6.39368 12.0533 6.43747 12.0727 6.47754Z" fill="white"/>
<path fill-rule="evenodd" clip-rule="evenodd" d="M7.38929 13.3026C7.45391 13.3548 7.5333 13.3762 7.61084 13.3669C7.61084 13.3669 7.61084 13.3669 7.61176 13.366C7.62099 13.3651 7.63022 13.3641 7.63853 13.3623C7.63946 13.3623 7.64222 13.3613 7.64222 13.3604C7.64961 13.3595 7.65515 13.3585 7.66346 13.3567C7.67269 13.3539 7.68007 13.3511 7.69023 13.3464C8.34749 13.1153 9.02322 12.7379 9.55309 11.9207C10.1254 12.0866 10.7015 12.299 11.2719 12.4565C11.2895 12.4612 11.3061 12.4658 11.3227 12.4696C11.428 12.4882 11.5378 12.45 11.6089 12.3605C11.6421 12.3177 11.6615 12.2692 11.6707 12.2198C11.6707 12.1891 11.6707 12.1574 11.6717 12.1257C11.667 11.3616 11.452 10.6208 10.9055 9.91633C11.259 9.43178 11.5757 8.94815 11.9264 8.4636C11.9412 8.44217 11.956 8.4226 11.9717 8.4021C12.0418 8.27444 12.0132 8.11137 11.8969 8.01725C11.8831 8.00607 11.8683 7.99675 11.8535 7.9893C11.8267 7.97811 11.7981 7.96786 11.7704 7.95761C10.971 7.67061 10.1513 7.77591 9.40724 7.97252C9.06476 7.50195 8.71397 7.03323 8.36872 6.56359C8.35857 6.54868 8.34841 6.53377 8.33734 6.51979C8.32626 6.50768 8.31334 6.49463 8.29949 6.48345C8.18041 6.38747 8.01332 6.39865 7.90624 6.50116C7.88501 6.52911 7.86285 6.55893 7.84254 6.58689C7.30621 7.33701 7.16497 8.12441 7.1502 8.83354C6.59263 9.03016 6.0323 9.21093 5.47473 9.40662C5.45996 9.41221 5.44519 9.41687 5.43042 9.42246C5.38888 9.4411 5.34918 9.47091 5.3178 9.51005C5.23749 9.61255 5.23287 9.75046 5.29472 9.85576C5.30487 9.87067 5.31595 9.88558 5.32703 9.90049C5.78674 10.5239 6.58802 11.1119 7.25544 11.247C7.27113 11.8415 7.25174 12.4416 7.27851 13.0352C7.27759 13.0361 7.27759 13.038 7.27759 13.0398L7.27667 13.0389C7.27667 13.0389 7.27667 13.0398 7.27759 13.0398C7.27851 13.0669 7.27944 13.092 7.28036 13.1172C7.28128 13.119 7.28128 13.119 7.28221 13.12C7.28128 13.119 7.28128 13.119 7.28128 13.1172C7.28221 13.119 7.28221 13.1218 7.28221 13.1237C7.29513 13.1917 7.33113 13.256 7.38929 13.3026" fill="white"/>
<path opacity="0.6" fill-rule="evenodd" clip-rule="evenodd" d="M4.30958 23.6291C4.40835 23.6543 4.50989 23.6356 4.59113 23.5862C4.59113 23.5862 4.59205 23.5844 4.59298 23.5834C4.60313 23.5769 4.61236 23.5713 4.62067 23.5639C4.62159 23.5639 4.62436 23.5629 4.62436 23.5629C4.63175 23.5564 4.63729 23.5508 4.64559 23.5452C4.65298 23.5378 4.66129 23.5303 4.66959 23.521C5.2927 22.9125 5.85766 22.1316 6.03397 20.9305C6.76416 20.815 7.5239 20.7516 8.24855 20.6258C8.26978 20.623 8.29009 20.6202 8.31224 20.6165C8.43963 20.5811 8.54395 20.4804 8.5781 20.3425C8.5938 20.2764 8.59103 20.2121 8.57626 20.1515C8.55964 20.1151 8.54302 20.0807 8.52641 20.0462C8.1267 19.1852 7.50174 18.4639 6.52138 17.9579C6.66816 17.2255 6.77524 16.5136 6.9211 15.7812C6.92571 15.7495 6.9331 15.7197 6.93863 15.6889C6.95248 15.5072 6.83432 15.3395 6.65616 15.2957C6.634 15.2901 6.61277 15.2873 6.59154 15.2864C6.55554 15.2873 6.51861 15.291 6.48261 15.2948C5.43302 15.3907 4.56251 15.9443 3.82678 16.5555C3.19721 16.2061 2.55933 15.8632 1.92699 15.5147C1.90761 15.5044 1.8873 15.4942 1.86791 15.4839C1.8476 15.4746 1.82914 15.4681 1.80606 15.4625C1.62328 15.4168 1.43958 15.5165 1.37127 15.6889C1.36204 15.7327 1.35281 15.7765 1.3445 15.8203C1.12941 16.946 1.37773 17.9104 1.7276 18.7165C1.19957 19.2355 0.662313 19.7312 0.134285 20.2475C0.120439 20.2614 0.107515 20.2736 0.0936679 20.2866C0.0548967 20.3313 0.0253568 20.3854 0.0105868 20.4459C-0.0272613 20.6053 0.0392036 20.7618 0.164749 20.8494C0.184134 20.8597 0.202597 20.8699 0.222905 20.8802C1.06387 21.3414 2.27132 21.5809 3.09382 21.3834C3.41876 22.044 3.70862 22.7317 4.04464 23.3859C4.04556 23.3887 4.04556 23.3896 4.04741 23.3924H4.04556H4.04741C4.06126 23.4213 4.07603 23.4502 4.0908 23.4791H4.09264L4.08987 23.4772C4.09264 23.4791 4.09449 23.4809 4.09541 23.4828C4.14526 23.5536 4.21911 23.6077 4.30958 23.6291" fill="white"/>
<path opacity="0.35" fill-rule="evenodd" clip-rule="evenodd" d="M14.9176 24.0733C14.9176 23.9894 14.8834 23.9139 14.8289 23.859C14.8289 23.859 14.828 23.858 14.8271 23.858C14.8206 23.8506 14.8142 23.845 14.8077 23.8394C14.8077 23.8394 14.8049 23.8375 14.8049 23.8366C14.7985 23.8319 14.7948 23.8282 14.7874 23.8236C14.78 23.8189 14.7726 23.8133 14.7643 23.8086C14.1735 23.4341 13.4609 23.1368 12.4962 23.2281C12.2673 22.6737 12.0725 22.0857 11.8371 21.5378C11.8306 21.521 11.8232 21.5061 11.8177 21.4902C11.7651 21.3952 11.6672 21.3328 11.5537 21.3328C11.4992 21.3328 11.4503 21.3467 11.406 21.371C11.3811 21.3905 11.358 21.4092 11.3331 21.4297C10.7432 21.9096 10.3038 22.5414 10.0998 23.4126C9.50343 23.4368 8.93202 23.4881 8.33661 23.5133C8.31168 23.5151 8.28676 23.5161 8.26183 23.517C8.11875 23.5412 8.01074 23.6661 8.01074 23.8161C8.01074 23.8338 8.01351 23.8515 8.01628 23.8683C8.02367 23.8962 8.03382 23.9242 8.04397 23.9531C8.31907 24.7619 8.91448 25.3434 9.52928 25.8074C9.37789 26.3721 9.2348 26.9415 9.08618 27.508C9.08249 27.5248 9.07787 27.5425 9.07326 27.5593C9.06957 27.577 9.06957 27.5928 9.06957 27.6115C9.06957 27.7652 9.18126 27.8919 9.32804 27.9115C9.36312 27.9115 9.39912 27.9097 9.4342 27.9078C10.3481 27.8621 11.0478 27.4819 11.6063 27.0514C12.1076 27.3692 12.595 27.6991 13.0962 28.015C13.1101 28.0243 13.1221 28.0327 13.135 28.041C13.1765 28.0625 13.2236 28.0755 13.2735 28.0755C13.4036 28.0755 13.5135 27.9935 13.5559 27.877C13.5606 27.8603 13.5652 27.8426 13.5698 27.8249C13.7655 27.0729 13.7203 26.073 13.4092 25.4617C13.8597 25.0787 14.3369 24.7191 14.7791 24.3277C14.7819 24.3277 14.7828 24.3267 14.7837 24.3249V24.3267V24.3249C14.8031 24.3081 14.8225 24.2913 14.8419 24.2746V24.2727C14.8419 24.2736 14.8419 24.2736 14.8419 24.2746C14.8419 24.2727 14.8437 24.2708 14.8446 24.269C14.8908 24.2168 14.9176 24.1478 14.9176 24.0733" fill="white"/>
<path opacity="0.35" fill-rule="evenodd" clip-rule="evenodd" d="M14.704 43.8073C14.7298 43.7653 14.7363 43.7169 14.7252 43.6712V43.6712C14.7234 43.6656 14.7224 43.66 14.7215 43.6554L14.7206 43.6535C14.7187 43.6488 14.7178 43.646 14.716 43.6414C14.7132 43.6358 14.7114 43.6321 14.7086 43.6265C14.5286 43.2519 14.2627 42.8791 13.7513 42.6229C13.8085 42.2735 13.8926 41.9166 13.9433 41.5671C13.9452 41.5578 13.947 41.5466 13.9489 41.5373C13.9516 41.4739 13.9221 41.4106 13.8649 41.3761C13.8381 41.3584 13.8085 41.35 13.7799 41.3481C13.7615 41.35 13.743 41.3519 13.7245 41.3547C13.2805 41.4096 12.8651 41.5886 12.494 41.9604C12.1885 41.7852 11.8857 41.6296 11.5801 41.4562C11.5672 41.4488 11.5534 41.4413 11.5414 41.4339C11.462 41.4013 11.3697 41.4292 11.3226 41.5047C11.318 41.5131 11.3133 41.5233 11.3096 41.5326C11.305 41.5485 11.3004 41.5662 11.2976 41.583C11.185 42.0759 11.3032 42.5549 11.4684 42.9807C11.2192 43.2155 10.9709 43.455 10.7216 43.6926C10.7142 43.7001 10.7068 43.7075 10.6995 43.7141C10.6921 43.7215 10.6856 43.7299 10.681 43.7392C10.633 43.8166 10.6505 43.9144 10.7179 43.9713C10.7355 43.9815 10.7539 43.9927 10.7715 44.002C11.2441 44.2676 11.7121 44.2965 12.1248 44.2564C12.278 44.5732 12.4202 44.8919 12.5734 45.2097C12.5771 45.2181 12.5808 45.2246 12.5854 45.2339C12.5983 45.2581 12.6186 45.2796 12.6436 45.2945C12.7091 45.3364 12.7894 45.3289 12.8467 45.2851C12.854 45.2777 12.8614 45.2702 12.8697 45.2628C13.2002 44.9478 13.4855 44.4325 13.5196 44.0281C13.863 43.9787 14.2138 43.948 14.5554 43.8911C14.5572 43.8921 14.5581 43.8921 14.559 43.8911C14.559 43.8921 14.5581 43.893 14.5581 43.893C14.5581 43.893 14.559 43.8921 14.559 43.8911C14.5738 43.8893 14.5886 43.8874 14.6043 43.8846V43.8837H14.6034C14.6052 43.8837 14.6061 43.8837 14.6061 43.8827C14.6458 43.8706 14.6809 43.8445 14.704 43.8073" fill="white"/>
<path opacity="0.35" fill-rule="evenodd" clip-rule="evenodd" d="M41.3534 38.9863C41.3626 38.9024 41.3368 38.8232 41.2878 38.7626L41.2869 38.7617C41.2814 38.7542 41.2749 38.7468 41.2694 38.7412C41.2694 38.7403 41.2675 38.7384 41.2666 38.7384C41.2611 38.7337 41.2574 38.73 41.2518 38.7235C41.2444 38.717 41.2371 38.7114 41.2288 38.7058C40.6832 38.2688 40.0047 37.8951 39.0382 37.8811C38.8702 37.3052 38.7391 36.7005 38.5646 36.1293C38.56 36.1125 38.5545 36.0957 38.5489 36.0799C38.5083 35.9792 38.4169 35.9066 38.3043 35.8944C38.2517 35.8888 38.2 35.8982 38.1538 35.9159C38.128 35.9336 38.1012 35.9494 38.0754 35.9671C37.4375 36.3799 36.9325 36.9595 36.6381 37.8028C36.0417 37.7618 35.4685 37.7507 34.874 37.7106C34.849 37.7087 34.8241 37.7069 34.7992 37.705C34.6552 37.7143 34.5333 37.8261 34.5176 37.9752C34.5158 37.9929 34.5158 38.0106 34.5167 38.0274C34.5223 38.0563 34.5287 38.0852 34.5352 38.1141C34.7235 38.9499 35.2506 39.592 35.8128 40.1203C35.6032 40.6645 35.3992 41.2161 35.1915 41.7603C35.1841 41.778 35.1768 41.7948 35.1721 41.8107C35.1675 41.8284 35.1629 41.8442 35.1611 41.8638C35.1444 42.0157 35.2432 42.1526 35.3872 42.1899C35.4223 42.1927 35.4583 42.1946 35.4925 42.1964C36.4073 42.2514 37.1421 41.9514 37.743 41.5833C38.2064 41.9532 38.6579 42.3344 39.1203 42.7043C39.1323 42.7145 39.1443 42.7248 39.1563 42.7332C39.1951 42.7593 39.2413 42.777 39.2911 42.7826C39.4194 42.7975 39.5376 42.7267 39.5921 42.6167C39.5985 42.6009 39.6059 42.5832 39.6124 42.5664C39.8875 41.8405 39.9493 40.8425 39.7056 40.2014C40.1949 39.8687 40.7063 39.564 41.1891 39.2239C41.19 39.223 41.1918 39.223 41.1937 39.2211L41.1928 39.223C41.1928 39.223 41.1937 39.222 41.1937 39.2211C41.2149 39.2062 41.2352 39.1922 41.2564 39.1773C41.2564 39.1754 41.2574 39.1754 41.2574 39.1754C41.2574 39.1754 41.2564 39.1754 41.2564 39.1773C41.2574 39.1754 41.2583 39.1736 41.2601 39.1736C41.3109 39.1242 41.3451 39.0599 41.3534 38.9863" fill="white"/>
<path opacity="0.35" fill-rule="evenodd" clip-rule="evenodd" d="M32.104 24.0851C32.068 24.0693 32.0283 24.0702 31.9942 24.0842V24.0842C31.9895 24.0861 31.9858 24.0879 31.9831 24.0898C31.9822 24.0898 31.9812 24.0898 31.9812 24.0907C31.9775 24.0926 31.9757 24.0935 31.972 24.0954C31.9683 24.0982 31.9646 24.101 31.9609 24.1038C31.6895 24.292 31.4274 24.5492 31.287 24.989C31.0046 24.9853 30.7156 24.9601 30.435 24.9611C30.4276 24.9601 30.4193 24.9611 30.411 24.9611C30.3611 24.9648 30.3159 24.9983 30.2947 25.0468C30.2845 25.071 30.2808 25.0952 30.2836 25.1185C30.2864 25.1334 30.291 25.1474 30.2947 25.1614C30.3916 25.5099 30.5809 25.8211 30.9169 26.0737C30.8153 26.3402 30.7304 26.6002 30.6307 26.8657C30.6261 26.8769 30.6224 26.889 30.6178 26.9002C30.6012 26.9673 30.6344 27.0381 30.699 27.0661C30.7073 27.0689 30.7147 27.0717 30.7221 27.0735C30.7369 27.0745 30.7498 27.0763 30.7646 27.0773C31.1643 27.1071 31.5261 26.9561 31.8409 26.7735C32.0551 26.944 32.2739 27.1145 32.4889 27.286C32.4963 27.2906 32.5019 27.2962 32.5093 27.3009C32.5157 27.3056 32.5231 27.3093 32.5305 27.313C32.597 27.3419 32.6726 27.3167 32.7087 27.2543C32.7151 27.2403 32.7207 27.2236 32.7262 27.2086C32.8785 26.7977 32.8462 26.4212 32.7659 26.0951C32.9957 25.9348 33.2284 25.782 33.4592 25.6217C33.4656 25.6189 33.4712 25.6152 33.4776 25.6105C33.4942 25.5966 33.5081 25.5779 33.5182 25.5565C33.5422 25.4997 33.5275 25.4354 33.4859 25.3944C33.4795 25.3897 33.4721 25.3841 33.4656 25.3804C33.1785 25.153 32.74 24.9853 32.4188 25.0067C32.3385 24.7374 32.2729 24.4607 32.188 24.1932C32.1871 24.1932 32.1871 24.1923 32.1871 24.1923H32.188L32.1871 24.1914C32.1834 24.1792 32.1797 24.1681 32.1769 24.156C32.176 24.156 32.176 24.156 32.176 24.156V24.1569C32.176 24.156 32.1751 24.155 32.1751 24.1541C32.1603 24.1243 32.1363 24.0991 32.104 24.0851" fill="white"/>
<path opacity="0.35" fill-rule="evenodd" clip-rule="evenodd" d="M16.1025 15.0028C16.1505 15.0336 16.2068 15.042 16.2585 15.0308C16.2585 15.0308 16.2594 15.0299 16.2603 15.0289C16.2668 15.028 16.2723 15.0261 16.2778 15.0252L16.2797 15.0243C16.2852 15.0224 16.2889 15.0215 16.2945 15.0187C16.3 15.0159 16.3055 15.014 16.3111 15.0103C16.7459 14.8025 17.1797 14.4931 17.4834 13.8921C17.8878 13.9629 18.2976 14.0654 18.701 14.1297C18.7131 14.1316 18.7251 14.1334 18.7361 14.1362C18.8091 14.14 18.882 14.1055 18.9244 14.0393C18.9438 14.0076 18.954 13.9732 18.9558 13.9387C18.954 13.9172 18.9521 13.8949 18.9484 13.8744C18.8903 13.3498 18.6881 12.8587 18.2616 12.4179C18.4675 12.0582 18.6494 11.7041 18.8543 11.3444C18.8626 11.3295 18.8709 11.3146 18.8801 11.2997C18.918 11.2065 18.8866 11.0975 18.7998 11.0425C18.7897 11.0351 18.7786 11.0295 18.7684 11.0258C18.7491 11.0202 18.7287 11.0155 18.7094 11.0109C18.1407 10.8739 17.5859 11.0081 17.0911 11.1981C16.8216 10.9018 16.5465 10.6074 16.2751 10.3101C16.2668 10.3027 16.2585 10.2933 16.2502 10.284C16.2409 10.2756 16.2326 10.2682 16.2215 10.2626C16.1338 10.2048 16.0194 10.2253 15.9529 10.3036C15.9409 10.3241 15.928 10.3465 15.916 10.367C15.6049 10.9205 15.5661 11.4721 15.6086 11.9585C15.2393 12.1356 14.8701 12.3014 14.5018 12.4785C14.4925 12.4831 14.4842 12.4869 14.4731 12.4915C14.4454 12.5074 14.4205 12.5316 14.4021 12.5605C14.3541 12.6369 14.3624 12.731 14.4122 12.799C14.4205 12.8084 14.4288 12.8167 14.4371 12.827C14.7981 13.2193 15.3916 13.5613 15.8587 13.6051C15.9132 14.0104 15.9446 14.4232 16.0064 14.8276C16.0064 14.8295 16.0055 14.8304 16.0064 14.8314L16.0055 14.8304L16.0064 14.8314C16.0092 14.8491 16.0111 14.8668 16.0138 14.8854H16.0148V14.8836C16.0148 14.8854 16.0157 14.8864 16.0166 14.8882C16.0295 14.9339 16.06 14.9758 16.1025 15.0028" fill="white"/>
<path opacity="0.35" fill-rule="evenodd" clip-rule="evenodd" d="M34.9403 8.6775C34.8923 8.657 34.8406 8.65793 34.7944 8.67656V8.67656C34.788 8.67843 34.7833 8.68122 34.7796 8.68309C34.7778 8.68309 34.7769 8.68402 34.7769 8.68495C34.7723 8.68681 34.7695 8.68868 34.7649 8.69054C34.7603 8.6952 34.7556 8.698 34.7501 8.70172C34.3901 8.95146 34.0421 9.29344 33.8556 9.8777C33.4808 9.87211 33.0968 9.83949 32.7248 9.84043C32.7137 9.83949 32.7035 9.84043 32.6925 9.84043C32.626 9.84602 32.566 9.88888 32.5374 9.95504C32.5245 9.98579 32.5189 10.0184 32.5226 10.0501C32.5272 10.0697 32.5328 10.0874 32.5374 10.1069C32.6666 10.5691 32.9177 10.9829 33.3645 11.3174C33.2297 11.6715 33.1162 12.0163 32.9842 12.3694C32.9777 12.3843 32.9722 12.3992 32.9666 12.4142C32.9445 12.5027 32.9897 12.5977 33.0746 12.6359C33.0857 12.6387 33.0959 12.6425 33.1051 12.6452C33.1254 12.6471 33.142 12.649 33.1614 12.6499C33.6922 12.69 34.1732 12.4896 34.5913 12.2464C34.8757 12.4738 35.1655 12.6993 35.4517 12.9267C35.4609 12.9332 35.4683 12.9416 35.4785 12.9472C35.4868 12.9528 35.4969 12.9583 35.5071 12.963C35.5938 13.0021 35.6945 12.9677 35.7425 12.8866C35.7517 12.867 35.7591 12.8447 35.7665 12.8242C35.9686 12.28 35.9252 11.7786 35.8191 11.3472C36.1237 11.1338 36.4339 10.9307 36.7394 10.7182C36.7477 10.7136 36.7551 10.7089 36.7634 10.7024C36.7856 10.6837 36.805 10.6586 36.8179 10.6306C36.8502 10.5551 36.8299 10.4703 36.7754 10.4163C36.7662 10.4098 36.757 10.4023 36.7487 10.3958C36.3665 10.0948 35.7849 9.87211 35.3584 9.90193C35.2514 9.5441 35.1646 9.17603 35.052 8.821C35.051 8.821 35.051 8.81913 35.0501 8.8182C35.051 8.8182 35.052 8.81913 35.052 8.81913C35.052 8.81913 35.051 8.8182 35.0501 8.8182C35.0455 8.80236 35.0409 8.78745 35.0363 8.77161C35.0354 8.77161 35.0354 8.77161 35.0354 8.77161V8.77347C35.0354 8.77161 35.0354 8.77068 35.0344 8.76882C35.015 8.72968 34.9827 8.69613 34.9403 8.6775" fill="white"/>
<path opacity="0.8" fill-rule="evenodd" clip-rule="evenodd" d="M19.6757 35.8049C19.6757 35.748 19.6526 35.6959 19.6157 35.6577C19.6157 35.6577 19.6148 35.6577 19.6138 35.6567C19.6092 35.6521 19.6046 35.6483 19.6 35.6437C19.6 35.6428 19.5991 35.6428 19.5991 35.6418C19.5945 35.639 19.5908 35.6362 19.5862 35.6334C19.5815 35.6306 19.576 35.6269 19.5705 35.6232C19.1634 35.3641 18.6723 35.1601 18.0076 35.2225C17.8498 34.8404 17.715 34.436 17.5534 34.0577C17.5488 34.0465 17.5442 34.0363 17.5396 34.0251C17.5036 33.9608 17.4362 33.917 17.3577 33.917C17.3208 33.917 17.2867 33.9263 17.2562 33.9431C17.2396 33.9561 17.223 33.9701 17.2063 33.9832C16.7992 34.314 16.4974 34.7491 16.3561 35.3502C15.9454 35.366 15.5521 35.4014 15.1413 35.4191C15.1247 35.421 15.1072 35.421 15.0896 35.4219C14.9918 35.4387 14.917 35.5244 14.917 35.6288C14.917 35.64 14.9188 35.6521 14.9207 35.6642C14.9262 35.6828 14.9327 35.7033 14.9401 35.722C15.1293 36.2801 15.5401 36.6799 15.9629 37.0004C15.8595 37.3881 15.7607 37.7813 15.6583 38.1708C15.6555 38.1839 15.6527 38.1941 15.649 38.2072C15.6472 38.2193 15.6463 38.2314 15.6463 38.2435C15.6463 38.3488 15.7238 38.4364 15.8253 38.4504C15.8493 38.4494 15.8733 38.4485 15.8974 38.4476C16.5278 38.4168 17.0097 38.154 17.3937 37.8577C17.7399 38.0767 18.0759 38.3031 18.4212 38.5221C18.4304 38.5277 18.4387 38.5333 18.447 38.5389C18.4766 38.5538 18.5089 38.5622 18.543 38.5622C18.6335 38.5622 18.7083 38.5053 18.7378 38.4261C18.7415 38.415 18.7443 38.4019 18.747 38.3907C18.8827 37.8726 18.8504 37.1831 18.6372 36.7619C18.9464 36.4982 19.276 36.2512 19.5806 35.981C19.5815 35.9791 19.5825 35.9791 19.5834 35.9791C19.5972 35.967 19.6111 35.9558 19.624 35.9428H19.6231C19.624 35.9428 19.6249 35.9409 19.6258 35.9409C19.6572 35.9046 19.6757 35.8561 19.6757 35.8049Z" fill="white"/>
<path opacity="0.8" fill-rule="evenodd" clip-rule="evenodd" d="M33.21 41.2359C33.1777 41.138 33.1085 41.0616 33.0226 41.0197H33.0199C33.0088 41.0141 32.9986 41.0094 32.9885 41.0048L32.9857 41.0029C32.9765 41.0001 32.9691 40.9973 32.9599 40.9936C32.9488 40.9917 32.9377 40.988 32.9266 40.9861C32.0829 40.7821 31.1275 40.7178 30.0289 41.2126C29.5406 40.6516 29.08 40.0385 28.5879 39.4868C28.5741 39.47 28.5593 39.4542 28.5455 39.4374C28.4476 39.3489 28.3073 39.3135 28.1735 39.3582C28.1098 39.3806 28.0581 39.4179 28.0156 39.4626C27.9944 39.4952 27.9731 39.5287 27.9528 39.5614C27.447 40.3627 27.1793 41.2825 27.2808 42.3886C26.5894 42.656 25.9367 42.9458 25.2462 43.2142C25.2176 43.2272 25.1881 43.2365 25.1585 43.2486C24.9998 43.3344 24.9231 43.5235 24.9813 43.7006C24.9887 43.722 24.9988 43.7416 25.0081 43.7602C25.0284 43.791 25.0515 43.8189 25.0736 43.8487C25.7161 44.692 26.6457 45.1375 27.5513 45.4366C27.5965 46.1606 27.651 46.8884 27.699 47.6133C27.6999 47.6357 27.7027 47.659 27.7045 47.6804C27.7073 47.7019 27.7119 47.7224 27.7193 47.7438C27.7793 47.9246 27.9611 48.028 28.1421 47.9935C28.1836 47.9786 28.2252 47.9628 28.2658 47.946C29.3237 47.5267 29.9976 46.7989 30.484 46.0684C31.1995 46.2408 31.9029 46.4327 32.6174 46.607C32.6368 46.6107 32.6543 46.6154 32.6728 46.62C32.73 46.6284 32.7909 46.6247 32.8491 46.6051C33.0032 46.552 33.0983 46.4122 33.1048 46.2585C33.1029 46.2361 33.1011 46.2147 33.0993 46.1914C33.0346 45.2269 32.5878 44.0696 31.9823 43.4741C32.3608 42.8451 32.7808 42.2292 33.1482 41.5918C33.15 41.59 33.1509 41.589 33.1528 41.5862V41.5881V41.5862C33.1685 41.5583 33.1851 41.5303 33.2017 41.5033L33.2008 41.5014L33.1999 41.5033C33.2008 41.5014 33.2008 41.4986 33.2026 41.4959C33.235 41.4157 33.2396 41.3244 33.21 41.2359" fill="white"/>
<path opacity="0.8" fill-rule="evenodd" clip-rule="evenodd" d="M5.83724 26.9708C5.83724 26.9018 5.80955 26.8394 5.76431 26.7947C5.76431 26.7947 5.76339 26.7928 5.76247 26.7928C5.75693 26.7872 5.75139 26.7825 5.74585 26.7779L5.744 26.776C5.73846 26.7723 5.7357 26.7686 5.73016 26.7648C5.72369 26.7602 5.71723 26.7564 5.70985 26.7527C5.22152 26.4424 4.63164 26.1964 3.83406 26.2719C3.64482 25.8134 3.48327 25.327 3.28849 24.8741C3.28295 24.8592 3.27742 24.8471 3.2728 24.8341C3.22941 24.7558 3.14818 24.7036 3.05402 24.7036C3.00879 24.7036 2.96909 24.7157 2.93309 24.7362C2.91186 24.7521 2.89155 24.7679 2.87216 24.7838C2.38383 25.1816 2.02012 25.7044 1.85211 26.4247C1.35824 26.4452 0.885601 26.4862 0.392653 26.5086C0.372344 26.5104 0.352035 26.5104 0.330803 26.5114C0.212643 26.5309 0.124023 26.6344 0.124023 26.7583C0.124023 26.7732 0.12587 26.7881 0.127716 26.8012C0.134178 26.8254 0.142486 26.8487 0.150794 26.8711C0.378806 27.5411 0.870831 28.0228 1.37947 28.4067C1.25485 28.8726 1.13577 29.3442 1.01299 29.8119C1.0093 29.8259 1.00653 29.8408 1.00284 29.8557C1.00007 29.8697 0.999145 29.8837 0.999145 29.8995C0.999145 30.0253 1.09146 30.1306 1.21331 30.1465C1.24193 30.1465 1.27239 30.1446 1.30101 30.1437C2.05705 30.1064 2.63584 29.7914 3.09741 29.4355C3.51189 29.6973 3.91622 29.9703 4.3307 30.2331C4.34178 30.2396 4.35193 30.2471 4.36209 30.2536C4.39624 30.2723 4.43594 30.2825 4.47655 30.2825C4.58456 30.2825 4.67503 30.2136 4.71103 30.1185C4.71472 30.1045 4.71841 30.0906 4.72211 30.0756C4.88457 29.4532 4.84673 28.6257 4.58918 28.1207C4.96212 27.8029 5.35629 27.5056 5.72277 27.1823C5.72462 27.1823 5.72554 27.1814 5.72646 27.1804V27.1814V27.1804C5.74216 27.1655 5.75877 27.1515 5.77539 27.1385V27.1366L5.77447 27.1385C5.77539 27.1366 5.77631 27.1348 5.77631 27.1338C5.81416 27.09 5.83724 27.0323 5.83724 26.9708" fill="white"/>
<path opacity="0.8" fill-rule="evenodd" clip-rule="evenodd" d="M38.98 14.2814C38.944 14.2656 38.9043 14.2665 38.8701 14.2805V14.2805C38.8655 14.2824 38.8618 14.2842 38.8591 14.2861C38.8581 14.2861 38.8572 14.2861 38.8572 14.287C38.8535 14.2889 38.8517 14.2898 38.848 14.2917C38.8443 14.2945 38.8406 14.2973 38.8369 14.3001C38.5655 14.4883 38.3033 14.7455 38.163 15.1853C37.8815 15.1816 37.5916 15.1564 37.311 15.1573C37.3036 15.1564 37.2953 15.1573 37.287 15.1573C37.2371 15.162 37.1919 15.1937 37.1707 15.2431C37.1605 15.2673 37.1568 15.2915 37.1596 15.3148C37.1624 15.3297 37.167 15.3437 37.1707 15.3586C37.2676 15.7062 37.4568 16.0174 37.7928 16.27C37.6913 16.5365 37.6064 16.7964 37.5067 17.062C37.5021 17.0732 37.4984 17.0844 37.4938 17.0965C37.4771 17.1627 37.5104 17.2344 37.575 17.2624C37.5833 17.2652 37.5907 17.268 37.5981 17.2698C37.6128 17.2707 37.6258 17.2726 37.6405 17.2735C38.0402 17.3034 38.4021 17.1524 38.7169 16.9698C38.9311 17.1403 39.1498 17.3108 39.3649 17.4813C39.3723 17.4869 39.3778 17.4925 39.3852 17.4972C39.3917 17.5018 39.3991 17.5056 39.4065 17.5093C39.4729 17.5382 39.5486 17.5121 39.5846 17.4515C39.5911 17.4366 39.5966 17.4198 39.6022 17.4049C39.7545 16.9949 39.7222 16.6175 39.6419 16.2923C39.8717 16.1311 40.1043 15.9783 40.3351 15.819C40.3416 15.8152 40.3471 15.8115 40.3536 15.8068C40.3702 15.7929 40.3841 15.7742 40.3942 15.7528C40.4182 15.6959 40.4034 15.6317 40.3619 15.5916C40.3554 15.586 40.3481 15.5804 40.3425 15.5757C40.0545 15.3493 39.616 15.1816 39.2948 15.2039C39.2145 14.9337 39.1489 14.657 39.064 14.3895C39.064 14.3895 39.0631 14.3886 39.0631 14.3877L39.064 14.3886L39.0631 14.3877C39.0594 14.3755 39.0557 14.3644 39.0529 14.3522C39.052 14.3522 39.052 14.3522 39.052 14.3522V14.3532C39.052 14.3522 39.0511 14.3513 39.0511 14.3504C39.0363 14.3206 39.0123 14.2954 38.98 14.2814" fill="white"/>
<path opacity="0.8" fill-rule="evenodd" clip-rule="evenodd" d="M10.1655 17.4878C10.1858 17.5325 10.2227 17.5633 10.267 17.5791V17.5791C10.2735 17.58 10.2781 17.5828 10.2836 17.5838L10.2846 17.5847C10.2892 17.5847 10.2929 17.5856 10.2984 17.5856C10.303 17.5875 10.3086 17.5875 10.3141 17.5884C10.7231 17.635 11.1782 17.6089 11.6665 17.3107C11.9287 17.5465 12.1825 17.8083 12.4456 18.0394C12.4539 18.0469 12.4604 18.0534 12.4687 18.0599C12.5204 18.0963 12.5887 18.1056 12.6496 18.0758C12.6773 18.0618 12.7004 18.0413 12.7179 18.0171C12.7253 18.0003 12.7336 17.9835 12.7419 17.9668C12.9339 17.5586 13.0069 17.1095 12.8942 16.5942C13.2044 16.4264 13.4961 16.2522 13.8063 16.0845C13.8192 16.077 13.8331 16.0705 13.8451 16.063C13.9152 16.0127 13.9401 15.9186 13.9023 15.8394C13.8986 15.8301 13.8931 15.8217 13.8875 15.8142C13.8755 15.8002 13.8635 15.7872 13.8506 15.7751C13.4989 15.4163 13.0346 15.2607 12.5896 15.1731C12.5278 14.8339 12.4595 14.4947 12.3948 14.1546C12.3921 14.1453 12.3911 14.1351 12.3884 14.1239C12.3865 14.1136 12.3819 14.1043 12.3773 14.095C12.3385 14.013 12.2462 13.9748 12.1641 14.0027C12.1456 14.0121 12.1262 14.0214 12.1087 14.0316C11.6333 14.2916 11.3582 14.6755 11.1708 15.0483C10.8237 15.0091 10.4803 14.9607 10.1341 14.9206C10.1249 14.9197 10.1166 14.9187 10.1073 14.9178C10.0796 14.9159 10.051 14.9215 10.0252 14.9346C9.95502 14.9681 9.91809 15.0408 9.92455 15.1135C9.9264 15.1237 9.92825 15.134 9.93102 15.1442C10.0169 15.5943 10.2947 16.1143 10.6151 16.3593C10.4729 16.679 10.3104 16.9939 10.1738 17.3163C10.1729 17.3163 10.1729 17.3182 10.1729 17.3191C10.172 17.3182 10.172 17.3182 10.172 17.3182C10.172 17.3182 10.172 17.3182 10.1729 17.3191C10.1664 17.3322 10.1609 17.3471 10.1535 17.3611C10.1544 17.362 10.1544 17.362 10.1544 17.362C10.1544 17.362 10.1544 17.362 10.1544 17.3611C10.1544 17.362 10.1544 17.3629 10.1544 17.3639C10.1433 17.403 10.1461 17.4487 10.1655 17.4878" fill="white"/>
<path opacity="0.8" fill-rule="evenodd" clip-rule="evenodd" d="M29.6198 6.42206C29.5635 6.40995 29.5063 6.42113 29.4611 6.45002C29.4611 6.45002 29.4611 6.45095 29.4601 6.45188C29.4546 6.45561 29.45 6.45934 29.4454 6.46306H29.4426C29.4389 6.46679 29.4361 6.46959 29.4315 6.47331C29.4269 6.47797 29.4223 6.48263 29.4177 6.48729C29.0743 6.83673 28.765 7.28122 28.6801 7.95866C28.2712 8.03227 27.8438 8.07607 27.4376 8.15435C27.4256 8.15621 27.4145 8.159 27.4025 8.16087C27.3305 8.1823 27.2733 8.24007 27.2557 8.31835C27.2474 8.35562 27.2493 8.39196 27.2594 8.42551C27.2686 8.44508 27.2779 8.46465 27.288 8.48421C27.5216 8.96411 27.8816 9.36294 28.4382 9.63503C28.3644 10.0497 28.3109 10.4513 28.237 10.8641C28.2342 10.8818 28.2315 10.8995 28.2287 10.9163C28.2232 11.0188 28.2905 11.112 28.3921 11.1344C28.4041 11.1371 28.4161 11.1381 28.4281 11.139C28.4484 11.1381 28.4687 11.1353 28.489 11.1325C29.078 11.0663 29.5617 10.7467 29.9688 10.3945C30.326 10.5836 30.6888 10.7691 31.0479 10.9582C31.0599 10.9638 31.0701 10.9685 31.0811 10.975C31.0931 10.9797 31.1042 10.9834 31.1162 10.9862C31.2196 11.0086 31.3221 10.9508 31.359 10.8529C31.3636 10.8296 31.3682 10.8045 31.3719 10.7803C31.4809 10.1438 31.3313 9.60428 31.1255 9.15514C31.4162 8.85881 31.7126 8.57274 32.0043 8.27642C32.0117 8.26896 32.019 8.26244 32.0264 8.25405C32.0477 8.22889 32.0634 8.19814 32.0707 8.1646C32.091 8.07421 32.0523 7.98661 31.9803 7.93909C31.9692 7.9335 31.959 7.92791 31.947 7.92232C31.4689 7.67259 30.7876 7.55145 30.3279 7.67165C30.1377 7.30358 29.9669 6.9206 29.7703 6.55625C29.7703 6.55438 29.7703 6.55438 29.7694 6.55252H29.7703H29.7694C29.7611 6.53668 29.7528 6.52084 29.7435 6.505L29.7426 6.50407L29.7435 6.505C29.7426 6.50407 29.7426 6.50313 29.7408 6.5022C29.7122 6.46306 29.6706 6.43325 29.6198 6.42206" fill="white"/>
<path opacity="0.8" fill-rule="evenodd" clip-rule="evenodd" d="M36.612 4.17267C36.612 4.12608 36.5935 4.08322 36.5631 4.05246C36.5631 4.05246 36.5621 4.05246 36.5612 4.05246C36.5575 4.04874 36.5538 4.04501 36.5501 4.04128L36.5492 4.04035C36.5455 4.03756 36.5427 4.03569 36.5391 4.0329C36.5354 4.03103 36.5307 4.02731 36.5261 4.02451C36.1947 3.81485 35.7959 3.64805 35.255 3.70023C35.1276 3.389 35.0177 3.06006 34.8857 2.75256C34.882 2.74324 34.8784 2.73392 34.8756 2.72553C34.846 2.67335 34.7916 2.63794 34.727 2.63794C34.6974 2.63794 34.6697 2.64539 34.6448 2.65844C34.631 2.66962 34.6171 2.6808 34.6042 2.69199C34.2737 2.96129 34.0272 3.31445 33.9128 3.80273C33.5786 3.81671 33.2592 3.84467 32.925 3.85958C32.9112 3.86051 32.8964 3.86051 32.8826 3.86144C32.8032 3.87542 32.7432 3.94437 32.7432 4.02917C32.7432 4.03849 32.7441 4.04874 32.745 4.05806C32.7505 4.0739 32.7552 4.08974 32.7616 4.10558C32.9158 4.55938 33.249 4.88553 33.5924 5.14551C33.5094 5.46047 33.4281 5.78009 33.345 6.09691C33.3423 6.10716 33.3404 6.11555 33.3377 6.12673C33.3358 6.13605 33.3358 6.14537 33.3358 6.15562C33.3358 6.24135 33.3986 6.31216 33.4807 6.32428C33.5001 6.32335 33.5204 6.32242 33.5398 6.32148C34.0522 6.29539 34.4445 6.08293 34.7565 5.84159C35.0381 6.01864 35.3113 6.20407 35.5919 6.38205C35.5993 6.38671 35.6058 6.39137 35.6132 6.39603C35.6362 6.40814 35.6639 6.4156 35.6907 6.4156C35.7636 6.4156 35.8246 6.36901 35.8495 6.30378C35.8522 6.29446 35.8541 6.28514 35.8569 6.27489C35.9667 5.8537 35.9409 5.29367 35.7673 4.95075C36.0193 4.73643 36.287 4.53516 36.5354 4.31524C36.5354 4.31524 36.5363 4.31524 36.5372 4.31431V4.31524V4.31431C36.5483 4.30499 36.5594 4.29474 36.5695 4.28542V4.28449V4.28542C36.5695 4.28449 36.5704 4.28356 36.5714 4.28356C36.5972 4.25374 36.612 4.2146 36.612 4.17267" fill="white"/>
</svg>
