<svg width="24" height="24" viewBox="0 0 24 24" fill="none" xmlns="http://www.w3.org/2000/svg">
<path d="M5.125 3.81775C5.125 3.35225 5.48307 2.95837 5.98438 2.95837H18.0156C18.4811 2.95837 18.875 3.35225 18.875 3.81775C18.875 4.31905 18.4811 4.67712 18.0156 4.67712H17.7292V5.35746C17.7292 6.82556 17.1563 8.18624 16.1178 9.22465L13.1816 12.125L16.1178 15.0612C17.1563 16.0638 17.7292 17.4603 17.7292 18.8926V19.573H18.0156C18.4811 19.573 18.875 19.9668 18.875 20.4323C18.875 20.9336 18.4811 21.2917 18.0156 21.2917H5.98438C5.48307 21.2917 5.125 20.9336 5.125 20.4323C5.125 19.9668 5.48307 19.573 5.98438 19.573H6.27083V18.8926C6.27083 17.4603 6.84375 16.0638 7.84635 15.0612L10.7826 12.125L7.84635 9.22465C6.84375 8.18624 6.27083 6.82556 6.27083 5.35746V4.67712H5.98438C5.48307 4.67712 5.125 4.31905 5.125 3.81775ZM14.9004 8.0072C15.6165 7.29106 16.0104 6.36007 16.0104 5.35746V4.67712H7.98958V5.35746C7.98958 6.36007 8.38346 7.29106 9.0638 8.0072L12 10.9434L14.9004 8.0072Z" fill="#F96073"/>
</svg>
