<svg width="20" height="20" viewBox="0 0 20 20" fill="none" xmlns="http://www.w3.org/2000/svg">
<path d="M6.0625 1.25C6.34375 1.25 6.625 1.53125 6.625 1.8125V3.5H13.375V1.8125C13.375 1.53125 13.6211 1.25 13.9375 1.25C14.2188 1.25 14.5 1.53125 14.5 1.8125V3.5H15.625C16.8555 3.5 17.875 4.51953 17.875 5.75V6.875V8V17C17.875 18.2656 16.8555 19.25 15.625 19.25H4.375C3.10938 19.25 2.125 18.2656 2.125 17V8V6.875V5.75C2.125 4.51953 3.10938 3.5 4.375 3.5H5.5V1.8125C5.5 1.53125 5.74609 1.25 6.0625 1.25ZM16.75 8H3.25V17C3.25 17.6328 3.74219 18.125 4.375 18.125H15.625C16.2227 18.125 16.75 17.6328 16.75 17V8ZM15.625 4.625H4.375C3.74219 4.625 3.25 5.15234 3.25 5.75V6.875H16.75V5.75C16.75 5.15234 16.2227 4.625 15.625 4.625ZM5.5 14.1875C5.5 13.9062 5.74609 13.625 6.0625 13.625H10.5625C10.8438 13.625 11.125 13.9062 11.125 14.1875C11.125 14.5039 10.8438 14.75 10.5625 14.75H6.0625C5.74609 14.75 5.5 14.5039 5.5 14.1875ZM6.0625 10.25H13.9375C14.2188 10.25 14.5 10.5312 14.5 10.8125C14.5 11.1289 14.2188 11.375 13.9375 11.375H6.0625C5.74609 11.375 5.5 11.1289 5.5 10.8125C5.5 10.5312 5.74609 10.25 6.0625 10.25Z" fill="#2A3539"/>
</svg>
