<svg width="20" height="18" viewBox="0 0 20 18" fill="none" xmlns="http://www.w3.org/2000/svg">
<path d="M7 8C8.0625 8 9.03125 7.4375 9.59375 6.5C10.125 5.59375 10.125 4.4375 9.59375 3.5C9.03125 2.59375 8.0625 2 7 2C5.90625 2 4.9375 2.59375 4.375 3.5C3.84375 4.4375 3.84375 5.59375 4.375 6.5C4.9375 7.4375 5.90625 8 7 8ZM1 16H10.9688C11.4375 16.4375 12.0938 16.4375 12.625 16.1562V16.1875C12.625 16.4688 12.6875 16.7812 12.8438 17H0.90625C0.40625 17 0 16.5938 0 16.0938C0 13 2.46875 10.5 5.5625 10.5H8.40625C8.78125 10.5 9.15625 10.5625 9.5 10.625C9.4375 11.0312 9.59375 11.4375 9.84375 11.75C9.40625 11.5938 8.90625 11.5 8.40625 11.5H5.5625C3.0625 11.5 1.03125 13.5312 1 16ZM3 5C3 3.59375 3.75 2.28125 5 1.5625C6.21875 0.84375 7.75 0.84375 9 1.5625C10.2188 2.28125 11 3.59375 11 5C11 6.4375 10.2188 7.75 9 8.46875C7.75 9.1875 6.21875 9.1875 5 8.46875C3.75 7.75 3 6.4375 3 5ZM11.6562 13.3438L12.1875 14.2812C12.6875 14.0938 13.2188 14.1562 13.625 14.4062C14.0312 14.625 14.375 15.0312 14.4688 15.5312H15.5312C15.625 15.0312 15.9375 14.625 16.3438 14.4062C16.75 14.1562 17.2812 14.0938 17.7812 14.2812L18.3125 13.3438C17.9062 12.9688 17.75 12.4688 17.75 12C17.75 11.5625 17.9062 11.0312 18.3125 10.6875L17.7812 9.71875C17.2812 9.9375 16.75 9.84375 16.3438 9.625C15.9375 9.375 15.5938 8.96875 15.5312 8.46875H14.4688C14.375 8.96875 14.0312 9.375 13.625 9.625C13.2188 9.84375 12.6875 9.90625 12.1875 9.71875L11.6562 10.6875C12.0625 11.0312 12.25 11.5312 12.25 12C12.25 12.4688 12.0625 12.9688 11.6562 13.3438ZM12.4688 15.25L12.4375 15.2812C12.0938 15.5 11.6562 15.375 11.4688 15.0312L10.6562 13.5625C10.4688 13.25 10.5625 12.8438 10.875 12.6562C11.125 12.5312 11.25 12.2812 11.25 12C11.25 11.75 11.125 11.4688 10.875 11.3438C10.5625 11.1562 10.4688 10.75 10.6562 10.4375L11.4688 8.96875C11.6562 8.625 12.0938 8.53125 12.4062 8.71875L12.4688 8.75C12.6875 8.875 12.9375 8.84375 13.125 8.75C13.3438 8.625 13.5 8.40625 13.5 8.1875V8.125C13.5 7.75 13.7812 7.46875 14.1562 7.46875H15.8125C16.1875 7.46875 16.5 7.75 16.5 8.125V8.1875C16.5 8.40625 16.625 8.625 16.8438 8.75C17.0312 8.875 17.2812 8.875 17.5 8.75L17.5625 8.71875C17.875 8.53125 18.3125 8.65625 18.5 8.96875L19.3438 10.4375C19.5 10.75 19.4062 11.1562 19.0938 11.3438C18.8438 11.4688 18.75 11.75 18.75 12C18.75 12.2812 18.8438 12.5312 19.0938 12.6562C19.4062 12.8438 19.5 13.25 19.3438 13.5625L18.5 15.0312C18.3125 15.375 17.875 15.5 17.5625 15.2812L17.5 15.25C17.2812 15.125 17.0312 15.1562 16.8438 15.2812C16.625 15.375 16.5 15.5938 16.5 15.8438V15.875C16.5 16.25 16.1875 16.5625 15.8125 16.5625H14.1562C13.7812 16.5625 13.5 16.25 13.5 15.875V15.8438C13.5 15.5938 13.3438 15.375 13.125 15.2812C12.9375 15.1562 12.6875 15.125 12.4688 15.25ZM15 10.25C15.625 10.25 16.1875 10.5938 16.5 11.125C16.8125 11.6875 16.8125 12.3438 16.5 12.875C16.1875 13.4375 15.625 13.75 15 13.75C14.375 13.75 13.7812 13.4375 13.4688 12.875C13.1562 12.3438 13.1562 11.6875 13.4688 11.125C13.7812 10.5938 14.375 10.25 15 10.25ZM15 12.75C15.4062 12.75 15.75 12.4062 15.75 12C15.75 11.5938 15.4062 11.25 15 11.25C14.5625 11.25 14.25 11.5938 14.25 12C14.25 12.4062 14.5625 12.75 15 12.75Z" fill="#2A3539"/>
</svg>
