<svg width="21" height="20" viewBox="0 0 21 20" fill="none" xmlns="http://www.w3.org/2000/svg">
<path d="M3.9375 1.25C4.21875 1.25 4.5 1.53125 4.5 1.8125V3.5H11.25V1.8125C11.25 1.53125 11.4961 1.25 11.8125 1.25C12.0938 1.25 12.375 1.53125 12.375 1.8125V3.5H13.5C14.7305 3.5 15.75 4.51953 15.75 5.75V6.875V8V8.03516C15.5391 8.03516 15.3633 8 15.1875 8C14.9766 8 14.8008 8.03516 14.625 8.03516V8H1.125V17C1.125 17.6328 1.61719 18.125 2.25 18.125H10.4062C10.7578 18.582 11.1445 18.9336 11.6016 19.25H2.25C0.984375 19.25 0 18.2656 0 17V8V6.875V5.75C0 4.51953 0.984375 3.5 2.25 3.5H3.375V1.8125C3.375 1.53125 3.62109 1.25 3.9375 1.25ZM13.5 4.625H2.25C1.61719 4.625 1.125 5.15234 1.125 5.75V6.875H14.625V5.75C14.625 5.15234 14.0977 4.625 13.5 4.625ZM15.1875 18.125C16.5938 18.125 17.8594 17.3867 18.5625 16.1562C19.3008 14.9609 19.3008 13.4492 18.5625 12.2188C17.8594 11.0234 16.5938 10.25 15.1875 10.25C13.7461 10.25 12.4805 11.0234 11.7773 12.2188C11.0391 13.4492 11.0391 14.9609 11.7773 16.1562C12.4805 17.3867 13.7461 18.125 15.1875 18.125ZM15.1875 9.125C16.9805 9.125 18.6328 10.1094 19.5469 11.6562C20.4609 13.2383 20.4609 15.1719 19.5469 16.7188C18.6328 18.3008 16.9805 19.25 15.1875 19.25C13.3594 19.25 11.707 18.3008 10.793 16.7188C9.87891 15.1719 9.87891 13.2383 10.793 11.6562C11.707 10.1094 13.3594 9.125 15.1875 9.125ZM15.1875 11.375C15.4688 11.375 15.75 11.6562 15.75 11.9375V13.625H16.875C17.1562 13.625 17.4375 13.9062 17.4375 14.1875C17.4375 14.5039 17.1562 14.75 16.875 14.75H15.1875C14.8711 14.75 14.625 14.5039 14.625 14.1875V11.9375C14.625 11.6562 14.8711 11.375 15.1875 11.375Z" fill="#2A3539"/>
</svg>
