<svg width="16" height="16" viewBox="0 0 16 16" fill="none" xmlns="http://www.w3.org/2000/svg">
<path d="M0.505463 8.15623L14.5055 0.156231C14.818 -0.0312686 15.2555 -0.0312686 15.568 0.187481C15.8805 0.406231 16.0367 0.781231 15.9742 1.15623L13.9742 14.1562C13.8805 14.7812 13.193 15.1875 12.5992 14.9375L8.72421 13.3125L6.78671 15.6562C6.59921 15.875 6.31796 16 6.00546 16C5.44296 16 5.00546 15.5625 5.00546 15V11.75L0.599213 9.93748C-0.150787 9.62498 -0.213287 8.56248 0.505463 8.15623ZM2.13046 8.93748L5.97421 10.5312L5.94296 10.5L12.7867 2.84373L2.13046 8.93748ZM12.5992 13.3125L14.068 3.65623L7.38046 11.125L12.5992 13.3125Z" fill="white"/>
</svg>
