<svg width="23" height="20" viewBox="0 0 23 20" fill="none" xmlns="http://www.w3.org/2000/svg">
<path d="M7.10156 11.375H12.375C12.9727 11.375 13.5 10.8828 13.5 10.25V3.5C13.5 2.90234 12.9727 2.375 12.375 2.375H2.25C1.61719 2.375 1.125 2.90234 1.125 3.5V10.25C1.125 10.8828 1.61719 11.375 2.25 11.375H3.375C3.97266 11.375 4.5 11.9023 4.5 12.5V13.0625L6.43359 11.6211C6.64453 11.4805 6.85547 11.375 7.10156 11.375ZM12.375 12.5H7.10156L4.25391 14.6445C4.07812 14.7852 3.86719 14.7852 3.65625 14.7148C3.48047 14.6094 3.375 14.4336 3.375 14.1875V13.625V12.5H2.25C0.984375 12.5 0 11.5156 0 10.25V3.5C0 2.26953 0.984375 1.25 2.25 1.25H12.375C13.6055 1.25 14.625 2.26953 14.625 3.5V10.25C14.625 11.5156 13.6055 12.5 12.375 12.5ZM11.25 17C9.98438 17 9 16.0156 9 14.75V13.625H10.125V14.75C10.125 15.3828 10.6172 15.875 11.25 15.875H15.3633C15.6094 15.875 15.8555 15.9805 16.0312 16.1211L18 17.5625V17C18 16.4023 18.4922 15.875 19.125 15.875H20.25C20.8477 15.875 21.375 15.3828 21.375 14.75V8C21.375 7.40234 20.8477 6.875 20.25 6.875H15.75V5.75H20.25C21.4805 5.75 22.5 6.76953 22.5 8V14.75C22.5 16.0156 21.4805 17 20.25 17H19.125V18.125V18.6875C19.125 18.9336 18.9844 19.1094 18.8086 19.2148C18.5977 19.2852 18.3867 19.2852 18.2109 19.1445L15.3633 17H11.25Z" fill="#2A3539"/>
</svg>
