<svg width="20" height="20" viewBox="0 0 20 20" fill="none" xmlns="http://www.w3.org/2000/svg">
<path d="M15.9062 10.2421L11.0938 14.8358C10.8203 15.0819 10.4102 15.0819 10.1641 14.8085C9.91797 14.535 9.91797 14.1249 10.1914 13.8788L13.8281 10.4061H4.53125C4.14844 10.4061 3.875 10.1327 3.875 9.74989C3.875 9.39442 4.14844 9.09364 4.53125 9.09364H13.8281L10.1914 5.64833C9.91797 5.40223 9.91797 4.96473 10.1641 4.71864C10.4102 4.4452 10.8477 4.4452 11.0938 4.6913L15.9062 9.28505C16.043 9.42177 16.125 9.58583 16.125 9.74989C16.125 9.9413 16.043 10.1054 15.9062 10.2421Z" fill="#F96073"/>
</svg>
