<svg width="16" height="16" viewBox="0 0 16 16" fill="none" xmlns="http://www.w3.org/2000/svg">
<path d="M3.125 7.75001H2.9375C2.60938 7.75001 2.375 7.51564 2.375 7.18751V4.18751C2.375 3.97658 2.49219 3.76564 2.70312 3.67189C2.91406 3.60158 3.17188 3.64845 3.33594 3.78908L4.29688 4.77345C6.35938 2.75783 9.66406 2.75783 11.7031 4.79689C13.7422 6.85939 13.7422 10.1641 11.7031 12.2266C9.64062 14.2656 6.33594 14.2656 4.27344 12.2266C3.99219 11.9219 3.99219 11.4531 4.27344 11.1719C4.57812 10.8672 5.04688 10.8672 5.32812 11.1719C6.80469 12.625 9.17188 12.625 10.6484 11.1719C12.1016 9.69533 12.1016 7.32814 10.6484 5.85158C9.19531 4.39845 6.82812 4.39845 5.35156 5.82814L6.33594 6.78908C6.47656 6.95314 6.52344 7.21095 6.45312 7.42189C6.35938 7.63283 6.14844 7.75001 5.9375 7.75001H3.125Z" fill="white"/>
</svg>
