<svg width="20" height="20" viewBox="0 0 20 20" fill="none" xmlns="http://www.w3.org/2000/svg">
<path d="M15.8789 15.625C17.2852 14.1797 18.1445 12.1875 18.1445 10C18.1445 5.54688 14.4727 1.875 10.0195 1.875C5.52734 1.875 1.89453 5.54688 1.89453 10C1.89453 12.1875 2.71484 14.1797 4.12109 15.625C4.86328 13.7891 6.66016 12.5 8.76953 12.5H11.2695C13.3398 12.5 15.1367 13.7891 15.8789 15.625ZM14.3164 16.9141C14.043 15.4688 12.7539 14.375 11.2695 14.375H8.76953C7.24609 14.375 5.95703 15.4688 5.68359 16.9141C6.93359 17.6953 8.41797 18.125 10.0195 18.125C11.582 18.125 13.0664 17.6953 14.3164 16.9141ZM10.0195 20C6.42578 20 3.14453 18.125 1.34766 15C-0.449219 11.9141 -0.449219 8.125 1.34766 5C3.14453 1.91406 6.42578 0 10.0195 0C13.5742 0 16.8555 1.91406 18.6523 5C20.4492 8.125 20.4492 11.9141 18.6523 15C16.8555 18.125 13.5742 20 10.0195 20ZM10.0195 9.375C10.5664 9.375 11.0742 9.10156 11.3477 8.59375C11.6211 8.125 11.6211 7.53906 11.3477 7.03125C11.0742 6.5625 10.5664 6.25 10.0195 6.25C9.43359 6.25 8.92578 6.5625 8.65234 7.03125C8.37891 7.53906 8.37891 8.125 8.65234 8.59375C8.92578 9.10156 9.43359 9.375 10.0195 9.375ZM6.58203 7.8125C6.58203 6.60156 7.20703 5.46875 8.30078 4.84375C9.35547 4.25781 10.6445 4.25781 11.7383 4.84375C12.793 5.46875 13.457 6.60156 13.457 7.8125C13.457 9.0625 12.793 10.1953 11.7383 10.8203C10.6445 11.4062 9.35547 11.4062 8.30078 10.8203C7.20703 10.1953 6.58203 9.0625 6.58203 7.8125Z" fill="#F96073"/>
</svg>
