<svg width="20" height="20" viewBox="0 0 20 20" fill="none" xmlns="http://www.w3.org/2000/svg">
<path d="M9.58986 3.24219C11.0664 1.79297 13.418 1.79297 14.8672 3.24219C16.3164 4.71875 16.3164 7.07031 14.8672 8.51953L10.2188 13.168C9.28908 14.0977 7.75783 14.0977 6.82814 13.168C5.87111 12.2109 5.87111 10.6797 6.82814 9.75L11.1485 5.42969C11.3945 5.15625 11.832 5.15625 12.0781 5.42969C12.3242 5.67578 12.3242 6.08594 12.0781 6.35938L7.75783 10.6797C7.32033 11.1172 7.32033 11.8008 7.75783 12.2383C8.16799 12.6484 8.85158 12.6484 9.28908 12.2383L13.9375 7.58984C14.8672 6.63281 14.8672 5.12891 13.9375 4.17187C12.9805 3.24219 11.4766 3.24219 10.5195 4.17187L5.57033 9.12109C4.12111 10.5703 4.12111 12.9492 5.57033 14.3984C7.04689 15.8477 9.39846 15.8477 10.8477 14.3984L14.7031 10.5156C14.9766 10.2695 15.3867 10.2695 15.6328 10.5156C15.8789 10.7891 15.8789 11.1992 15.6328 11.4453L11.7774 15.3281C9.80861 17.2969 6.60939 17.2969 4.64064 15.3281C2.69924 13.3594 2.67189 10.1602 4.64064 8.19141L9.58986 3.24219Z" fill="#F96073"/>
</svg>
