<svg width="24" height="24" viewBox="0 0 24 24" fill="none" xmlns="http://www.w3.org/2000/svg">
<path d="M4.50005 6.25C5.16412 6.25 5.75005 5.70312 5.75005 5C5.75005 4.33594 5.16412 3.75 4.50005 3.75C3.79693 3.75 3.25005 4.33594 3.25005 5C3.25005 5.70312 3.79693 6.25 4.50005 6.25ZM4.50005 2.5C5.35943 2.5 6.17974 3.00781 6.64849 3.75C7.07818 4.53125 7.07818 5.50781 6.64849 6.25C6.17974 7.03125 5.35943 7.5 4.50005 7.5C3.60162 7.5 2.7813 7.03125 2.31255 6.25C1.88287 5.50781 1.88287 4.53125 2.31255 3.75C2.7813 3.00781 3.60162 2.5 4.50005 2.5ZM3.60162 10C2.62505 10 1.80474 10.7812 1.72662 11.7188L1.57037 13.6719C1.5313 14.375 2.07818 15 2.82037 15H4.57818C4.69537 15.2734 4.81255 15.5078 5.04693 15.7031L5.5938 16.25H3.25005V21.875C3.25005 22.2266 2.93755 22.5 2.62505 22.5C2.27349 22.5 2.00005 22.2266 2.00005 21.875V16.1328C0.945367 15.7422 0.242242 14.7266 0.320367 13.5547L0.476617 11.6406C0.632867 10 2.00005 8.75 3.60162 8.75H5.35943C6.45318 8.75 7.42974 9.33594 8.01568 10.2344C7.82037 10.3125 7.66412 10.4297 7.54693 10.5859L7.03912 11.0547C6.72662 10.4297 6.10162 10 5.35943 10H3.60162ZM5.75005 21.875V16.4062L7.00005 17.6562V21.875C7.00005 22.2266 6.68755 22.5 6.37505 22.5C6.02349 22.5 5.75005 22.2266 5.75005 21.875ZM17.0001 21.875V17.6562L18.2501 16.4062V21.875C18.2501 22.2266 17.9376 22.5 17.6251 22.5C17.2735 22.5 17.0001 22.2266 17.0001 21.875ZM20.7501 16.25H18.3672L18.9532 15.7031C19.1485 15.5078 19.3047 15.2734 19.3829 15H21.1407C21.8829 15 22.4297 14.375 22.3907 13.6719L22.2344 11.7188C22.1563 10.7812 21.336 10 20.3594 10H18.6016C17.8594 10 17.2344 10.4297 16.9219 11.0547L16.4532 10.5859C16.2969 10.4297 16.1407 10.3125 15.9844 10.2344C16.5313 9.33594 17.5079 8.75 18.6016 8.75H20.3594C22.0001 8.75 23.3282 10 23.4844 11.6406L23.6407 13.5547C23.7188 14.7266 23.0157 15.7422 22.0001 16.1328V21.875C22.0001 22.2266 21.6876 22.5 21.3751 22.5C21.0235 22.5 20.7501 22.2266 20.7501 21.875V16.25ZM19.5001 6.25C20.1641 6.25 20.7501 5.70312 20.7501 5C20.7501 4.33594 20.1641 3.75 19.5001 3.75C18.7969 3.75 18.2501 4.33594 18.2501 5C18.2501 5.70312 18.7969 6.25 19.5001 6.25ZM19.5001 2.5C20.3594 2.5 21.1797 3.00781 21.6485 3.75C22.0782 4.53125 22.0782 5.50781 21.6485 6.25C21.1797 7.03125 20.3594 7.5 19.5001 7.5C18.6016 7.5 17.7813 7.03125 17.3126 6.25C16.8829 5.50781 16.8829 4.53125 17.3126 3.75C17.7813 3.00781 18.6016 2.5 19.5001 2.5ZM9.30474 12.3438L7.85943 13.75H16.1016L14.6563 12.3438C14.4219 12.1094 14.4219 11.6797 14.6563 11.4453C14.8907 11.2109 15.3204 11.2109 15.5547 11.4453L18.0547 13.9453C18.2891 14.1797 18.2891 14.6094 18.0547 14.8438L15.5547 17.3438C15.3204 17.5781 14.8907 17.5781 14.6563 17.3438C14.4219 17.1094 14.4219 16.6797 14.6563 16.4453L16.1016 15H7.85943L9.30474 16.4453C9.53912 16.6797 9.53912 17.1094 9.30474 17.3438C9.07037 17.5781 8.64068 17.5781 8.40631 17.3438L5.9063 14.8438C5.67193 14.6094 5.67193 14.1797 5.9063 13.9453L8.40631 11.4453C8.64068 11.2109 9.07037 11.2109 9.30474 11.4453C9.53912 11.6797 9.53912 12.1094 9.30474 12.3438Z" fill="white"/>
</svg>
