<svg width="20" height="20" viewBox="0 0 20 20" fill="none" xmlns="http://www.w3.org/2000/svg">
<path d="M18.9648 2.55078L16.7148 17.1758C16.6797 17.5273 16.4688 17.8438 16.1523 17.9844C15.8711 18.1602 15.4844 18.1953 15.168 18.0547L11.1602 16.3672L9.29688 18.6875C9.01562 19.0742 8.59375 19.25 8.13672 19.25C7.29297 19.25 6.625 18.582 6.625 17.7383V14.4688L1.66797 12.4297C1.28125 12.2539 1 11.9023 1 11.4453C0.964844 11.0234 1.17578 10.6367 1.5625 10.4258L17.3125 1.42578C17.6641 1.21484 18.1562 1.21484 18.5078 1.46094C18.8594 1.70703 19.0352 2.12891 18.9648 2.55078ZM10.0703 15.9453L7.75 14.9609V17.7383C7.75 17.9844 7.89062 18.125 8.13672 18.125C8.24219 18.125 8.34766 18.0898 8.41797 17.9844L10.0703 15.9453ZM11.582 15.3477L15.625 17L17.6641 3.74609L8.20703 13.9414L11.582 15.3477ZM16.8203 2.97266L2.125 11.375L7.08203 13.4492L16.8203 2.97266Z" fill="#2A3539"/>
</svg>
