<svg width="48" height="48" viewBox="0 0 48 48" fill="none" xmlns="http://www.w3.org/2000/svg">
<path d="M33.75 14.125C36.375 16.75 38 20.1875 38 23.9375C38 31.5625 31.625 37.8125 23.9375 37.8125C21.625 37.8125 19.375 37.1875 17.3125 36.125L10 38L11.9375 30.8125C10.75 28.75 10.0625 26.375 10.0625 23.875C10.0625 16.25 16.3125 10 23.9375 10C27.6875 10 31.1875 11.5 33.75 14.125ZM23.9375 35.4375C30.3125 35.4375 35.625 30.25 35.625 23.9375C35.625 20.8125 34.3125 17.9375 32.125 15.75C29.9375 13.5625 27.0625 12.375 24 12.375C17.625 12.375 12.4375 17.5625 12.4375 23.875C12.4375 26.0625 13.0625 28.1875 14.1875 30.0625L14.5 30.5L13.3125 34.75L17.6875 33.5625L18.0625 33.8125C19.875 34.875 21.875 35.4375 23.9375 35.4375ZM30.3125 26.8125C30.625 27 30.875 27.0625 30.9375 27.25C31.0625 27.375 31.0625 28.0625 30.75 28.875C30.4375 29.6875 29.0625 30.4375 28.4375 30.5C27.3125 30.6875 26.4375 30.625 24.25 29.625C20.75 28.125 18.5 24.625 18.3125 24.4375C18.125 24.1875 16.9375 22.5625 16.9375 20.8125C16.9375 19.125 17.8125 18.3125 18.125 17.9375C18.4375 17.5625 18.8125 17.5 19.0625 17.5C19.25 17.5 19.5 17.5 19.6875 17.5C19.9375 17.5 20.1875 17.4375 20.5 18.125C20.75 18.8125 21.5 20.5 21.5625 20.6875C21.625 20.875 21.6875 21.0625 21.5625 21.3125C20.9375 22.625 20.1875 22.5625 20.5625 23.1875C21.9375 25.5 23.25 26.3125 25.3125 27.3125C25.625 27.5 25.8125 27.4375 26.0625 27.25C26.25 27 26.9375 26.1875 27.125 25.875C27.375 25.5 27.625 25.5625 27.9375 25.6875C28.25 25.8125 29.9375 26.625 30.3125 26.8125Z" fill="#25D366"/>
</svg>
