<svg width="18" height="18" viewBox="0 0 18 18" fill="none" xmlns="http://www.w3.org/2000/svg">
<path d="M14 7C14 4.25 11.75 2 9 2C6.21875 2 4 4.25 4 7C4 7.5 4.15625 8.15625 4.5 9C4.84375 9.8125 5.3125 10.6875 5.875 11.5625C6.9375 13.2812 8.1875 14.9375 9 15.9375C9.78125 14.9375 11.0312 13.2812 12.125 11.5625C12.6562 10.6875 13.125 9.8125 13.4688 9C13.8125 8.15625 14 7.5 14 7ZM15 7C15 9.75 11.3438 14.5938 9.71875 16.625C9.34375 17.0938 8.625 17.0938 8.25 16.625C6.65625 14.5938 3 9.75 3 7C3 3.6875 5.6875 1 9 1C12.3125 1 15 3.6875 15 7ZM7.5 7C7.5 7.5625 7.78125 8.03125 8.25 8.3125C8.6875 8.59375 9.28125 8.59375 9.75 8.3125C10.1875 8.03125 10.5 7.5625 10.5 7C10.5 6.46875 10.1875 6 9.75 5.71875C9.28125 5.4375 8.6875 5.4375 8.25 5.71875C7.78125 6 7.5 6.46875 7.5 7ZM9 9.5C8.09375 9.5 7.28125 9.03125 6.8125 8.25C6.375 7.5 6.375 6.53125 6.8125 5.75C7.28125 5 8.09375 4.5 9 4.5C9.875 4.5 10.6875 5 11.1562 5.75C11.5938 6.53125 11.5938 7.5 11.1562 8.25C10.6875 9.03125 9.875 9.5 9 9.5Z" fill="#2A3539"/>
</svg>
