<svg width="148" height="56" viewBox="0 0 148 56" fill="none" xmlns="http://www.w3.org/2000/svg">
<path fill-rule="evenodd" clip-rule="evenodd" d="M63.3355 33.5961C63.3355 33.5415 63.3135 33.4906 63.2767 33.4552H63.276C63.2723 33.4508 63.2679 33.4464 63.2635 33.4427C63.2627 33.442 63.2613 33.4412 63.2613 33.4405C63.2576 33.4375 63.2539 33.4353 63.2503 33.4316C63.2451 33.4287 63.24 33.4265 63.2341 33.4228C62.8452 33.1772 62.3756 32.9826 61.7405 33.043C61.5898 32.6802 61.4612 32.2946 61.3068 31.9355C61.3024 31.9252 61.298 31.9156 61.2929 31.9045C61.259 31.8433 61.1944 31.8013 61.1194 31.8013C61.0841 31.8013 61.0518 31.8109 61.0231 31.8271C61.0069 31.8389 60.9908 31.8521 60.9746 31.8647C60.5857 32.1795 60.2961 32.594 60.1624 33.1632C59.7691 33.1802 59.3928 33.2126 59.001 33.2296C58.9841 33.2303 58.9679 33.2311 58.951 33.2318C58.8577 33.2473 58.7864 33.3299 58.7864 33.4272C58.7864 33.439 58.7878 33.4508 58.7893 33.4611C58.7945 33.4803 58.8011 33.498 58.8077 33.5172C58.9892 34.0466 59.381 34.4278 59.786 34.7317C59.6875 35.1003 59.5927 35.4735 59.495 35.8444C59.492 35.8554 59.4883 35.8665 59.4861 35.8783C59.4839 35.8886 59.4825 35.9004 59.4825 35.9122C59.4825 36.0125 59.5567 36.0958 59.6537 36.1091C59.6765 36.1084 59.7008 36.1076 59.7235 36.1061C60.3263 36.0759 60.7864 35.8274 61.1547 35.5465C61.484 35.7537 61.8059 35.969 62.1359 36.1769C62.144 36.1828 62.1528 36.188 62.1609 36.1924C62.1881 36.2072 62.2197 36.216 62.2528 36.216C62.3381 36.216 62.4108 36.1614 62.4388 36.0862C62.4417 36.0744 62.4454 36.0634 62.4476 36.0516C62.577 35.559 62.5468 34.9049 62.3417 34.5045C62.6387 34.2546 62.9526 34.0186 63.2444 33.7627C63.2458 33.762 63.2466 33.762 63.2473 33.7605C63.2473 33.7612 63.2466 33.762 63.2466 33.762C63.2466 33.762 63.2473 33.7612 63.2473 33.7605C63.2598 33.7495 63.273 33.7384 63.2855 33.7273C63.2855 33.7273 63.2863 33.7273 63.2863 33.7266C63.2863 33.7273 63.2855 33.7273 63.2855 33.7273C63.2863 33.7266 63.287 33.7259 63.2877 33.7244C63.3171 33.6897 63.3355 33.6447 63.3355 33.5961" fill="#F96073"/>
<path fill-rule="evenodd" clip-rule="evenodd" d="M97.0931 33.5946C97.0931 33.54 97.071 33.4906 97.035 33.4552C97.035 33.4552 97.0343 33.4545 97.0336 33.4538C97.0291 33.4493 97.0247 33.4457 97.0203 33.442L97.0189 33.4405C97.0144 33.4375 97.0122 33.4346 97.0078 33.4316C97.0027 33.428 96.9975 33.425 96.9917 33.4221C96.6028 33.1765 96.1331 32.9818 95.4981 33.0416C95.3474 32.6788 95.2187 32.2939 95.0637 31.9355C95.0592 31.9237 95.0548 31.9141 95.0512 31.9038C95.0166 31.8418 94.9519 31.8005 94.877 31.8005C94.8409 31.8005 94.8093 31.8101 94.7807 31.8263C94.7638 31.8389 94.7483 31.8514 94.7322 31.864C94.3433 32.1788 94.0537 32.5925 93.9199 33.1625C93.5267 33.1787 93.1504 33.2112 92.7578 33.2289C92.7417 33.2303 92.7255 33.2303 92.7086 33.2311C92.6145 33.2466 92.5439 33.3284 92.5439 33.4265C92.5439 33.4383 92.5454 33.4501 92.5469 33.4604C92.552 33.4796 92.5586 33.498 92.5653 33.5164C92.7468 34.0459 93.1386 34.4271 93.5436 34.7309C93.4444 35.0996 93.3495 35.4727 93.2518 35.8429C93.2488 35.854 93.2466 35.8658 93.2437 35.8776C93.2415 35.8886 93.2408 35.8997 93.2408 35.9122C93.2408 36.0118 93.3143 36.0951 93.4113 36.1076C93.4341 36.1076 93.4583 36.1061 93.4811 36.1054C94.0831 36.0759 94.544 35.8267 94.9115 35.545C95.2415 35.7522 95.5635 35.9683 95.8935 36.1762C95.9023 36.1814 95.9104 36.1873 95.9185 36.1924C95.9457 36.2072 95.9773 36.2153 96.0096 36.2153C96.0956 36.2153 96.1677 36.1607 96.1963 36.0855C96.1993 36.0744 96.2022 36.0634 96.2052 36.0516C96.3345 35.559 96.3044 34.9042 96.0993 34.5045C96.3963 34.2538 96.7101 34.0179 97.0019 33.762C97.0034 33.762 97.0042 33.7613 97.0049 33.7605V33.7613V33.7605C97.0174 33.7487 97.0306 33.7377 97.0438 33.7273V33.7259L97.0431 33.7273C97.0438 33.7259 97.0446 33.7244 97.0453 33.7236C97.0755 33.689 97.0931 33.6433 97.0931 33.5946" fill="#F96073"/>
<path fill-rule="evenodd" clip-rule="evenodd" d="M40.7583 33.8057H43.5845V40.4355H43.6301C43.9719 39.9098 44.4276 39.4754 45.02 39.1554C45.5669 38.8347 46.2277 38.6518 46.9348 38.6518C48.8261 38.6518 50.8085 39.9098 50.8085 43.4765V50.0385H48.0058V43.7965C48.0058 42.1735 47.4133 40.9613 45.8631 40.9613C44.7694 40.9613 43.9947 41.6928 43.6977 42.5393C43.6066 42.7679 43.5845 43.0651 43.5845 43.3851V50.0385H40.7583V33.8057V33.8057Z" fill="#F96073"/>
<path fill-rule="evenodd" clip-rule="evenodd" d="M53.792 50.0385H56.6182V33.8057H53.792V50.0385Z" fill="#F96073"/>
<path fill-rule="evenodd" clip-rule="evenodd" d="M59.6472 50.0381H62.4734V38.9036H59.6472V50.0381Z" fill="#F96073"/>
<path fill-rule="evenodd" clip-rule="evenodd" d="M72.9101 43.5448C72.9101 43.3162 72.888 43.0412 72.8417 42.8133C72.5911 41.7153 71.7024 40.8238 70.4264 40.8238C68.6256 40.8238 67.623 42.424 67.623 44.5049C67.623 46.5393 68.6256 48.0259 70.4036 48.0259C71.5437 48.0259 72.5455 47.248 72.8197 46.0372C72.888 45.785 72.9101 45.5114 72.9101 45.2142V43.5448ZM75.7141 33.8057V46.9061C75.7141 48.0491 75.7582 49.2835 75.8045 50.0385H73.2973L73.1841 48.2777H73.1386C72.477 49.5128 71.1327 50.2892 69.5148 50.2892C66.8709 50.2892 64.7746 48.0262 64.7746 44.5973C64.7511 40.8698 67.076 38.6518 69.742 38.6518C71.2694 38.6518 72.3631 39.2926 72.8644 40.1155H72.91V33.8057H75.7141Z" fill="#F96073"/>
<path fill-rule="evenodd" clip-rule="evenodd" d="M84.5988 44.5969C82.6164 44.5512 80.7252 44.9847 80.7252 46.677C80.7252 47.775 81.4315 48.2772 82.3202 48.2772C83.4374 48.2772 84.257 47.5457 84.5084 46.7456C84.576 46.5399 84.5988 46.3113 84.5988 46.1284V44.5969ZM84.9634 50.0384L84.7812 48.804H84.7135C84.0292 49.6726 82.8679 50.2898 81.4316 50.2898C79.1978 50.2898 77.9446 48.6668 77.9446 46.9753C77.9446 44.1621 80.4283 42.7449 84.5312 42.7685V42.5848C84.5312 41.8534 84.2343 40.6418 82.2747 40.6418C81.1809 40.6418 80.0409 40.9847 79.2882 41.4647L78.7414 39.6353C79.5624 39.1324 80.9987 38.6516 82.7525 38.6516C86.3086 38.6516 87.3339 40.9161 87.3339 43.3392V47.3631C87.3339 48.3689 87.3795 49.3526 87.4934 50.0384H84.9634Z" fill="#F96073"/>
<path fill-rule="evenodd" clip-rule="evenodd" d="M98.4527 49.6955C97.861 49.9698 96.6982 50.267 95.3089 50.267C91.8447 50.267 89.5874 48.0496 89.5874 44.5972C89.5874 41.259 91.866 38.6516 95.7639 38.6516C96.7886 38.6516 97.8382 38.8809 98.4755 39.1781L97.9749 41.2819C97.5185 41.0761 96.8577 40.8468 95.8558 40.8468C93.7124 40.8468 92.4357 42.4248 92.4592 44.4593C92.4592 46.7459 93.9403 48.0496 95.8558 48.0496C96.8349 48.0496 97.5185 47.8432 98.0653 47.6146L98.4527 49.6955Z" fill="#F96073"/>
<path fill-rule="evenodd" clip-rule="evenodd" d="M103.328 43.7965H103.374C103.647 43.3622 103.967 42.8822 104.262 42.4928L106.952 38.904H110.326L106.223 43.4537L110.918 50.0385H107.476L104.286 45.1231L103.328 46.2432V50.0385H100.525V33.8057H103.328V43.7965Z" fill="#F96073"/>
<path fill-rule="evenodd" clip-rule="evenodd" d="M114.06 38.9038L116.065 44.8708C116.293 45.5573 116.522 46.403 116.681 47.0431H116.75C116.932 46.403 117.138 45.5801 117.341 44.8479L119.074 38.9038H122.082L119.303 46.4945C117.775 50.6548 116.75 52.5071 115.427 53.6501C114.334 54.6338 113.194 54.9995 112.487 55.091L111.85 52.7136C112.329 52.5986 112.921 52.3479 113.491 51.9357C114.015 51.5928 114.629 50.9299 115.017 50.1748C115.132 49.9698 115.2 49.809 115.2 49.6726C115.2 49.5576 115.177 49.3983 115.04 49.1233L110.983 38.9038H114.06Z" fill="#F96073"/>
<path opacity="0.6" fill-rule="evenodd" clip-rule="evenodd" d="M123.05 50.1171H125.499V47.6594H123.05V50.1171Z" fill="#F96073"/>
<path opacity="0.6" fill-rule="evenodd" clip-rule="evenodd" d="M136.232 49.6955C135.639 49.9698 134.476 50.267 133.087 50.267C129.623 50.267 127.366 48.0496 127.366 44.5972C127.366 41.259 129.646 38.6516 133.544 38.6516C134.568 38.6516 135.617 38.8809 136.255 39.1781L135.753 41.2819C135.298 41.0761 134.637 40.8468 133.634 40.8468C131.492 40.8468 130.216 42.4248 130.239 44.4593C130.239 46.7459 131.72 48.0496 133.634 48.0496C134.615 48.0496 135.298 47.8432 135.845 47.6146L136.232 49.6955Z" fill="#F96073"/>
<path opacity="0.6" fill-rule="evenodd" clip-rule="evenodd" d="M137.991 48.4151L142.162 43.0646C142.731 42.3789 143.21 41.8303 143.802 41.1902V41.1445H138.402V38.9043H147.221V40.6187L143.142 45.8542C142.595 46.5171 142.07 47.1579 141.501 47.7515V47.7972H147.357V50.0381H137.991V48.4151Z" fill="#F96073"/>
<path opacity="0.6" fill-rule="evenodd" clip-rule="evenodd" d="M32.3066 19.9778C32.3066 19.9246 32.2854 19.8758 32.2502 19.8396H32.248C32.2444 19.8359 32.24 19.8314 32.2356 19.8277C32.2356 19.827 32.2348 19.827 32.2348 19.8255C32.2304 19.8226 32.2275 19.8211 32.2231 19.8174C32.2187 19.8144 32.2136 19.8107 32.2085 19.8078C31.8285 19.5668 31.3709 19.3762 30.7515 19.4353C30.6043 19.0791 30.4784 18.7014 30.3275 18.3496C30.3239 18.3385 30.3195 18.3281 30.3151 18.3185C30.2814 18.2579 30.2192 18.2173 30.1452 18.2173C30.1108 18.2173 30.0793 18.2269 30.0515 18.2417C30.0354 18.2542 30.02 18.2675 30.0039 18.2801C29.6246 18.589 29.3428 18.9941 29.2117 19.5543C28.8288 19.5691 28.462 19.6016 28.079 19.6193C28.0637 19.6201 28.0468 19.6201 28.0307 19.6208C27.9392 19.6363 27.8704 19.7161 27.8704 19.8122C27.8704 19.824 27.8711 19.8359 27.8733 19.8462C27.8784 19.8647 27.885 19.8824 27.8909 19.9002C28.068 20.4212 28.4502 20.7937 28.8449 21.093C28.749 21.4545 28.656 21.8203 28.5608 22.1839C28.5579 22.1958 28.5557 22.2061 28.5527 22.2172C28.5505 22.229 28.5498 22.2394 28.5498 22.2512C28.5498 22.3502 28.6216 22.4308 28.716 22.4441C28.7387 22.4441 28.7614 22.4426 28.7841 22.4419C29.3713 22.4123 29.8209 22.1684 30.1789 21.8913C30.5018 22.0945 30.8152 22.3066 31.1366 22.5106C31.1454 22.5165 31.1527 22.5217 31.1615 22.5269C31.1886 22.5409 31.2193 22.549 31.2508 22.549C31.3343 22.549 31.4046 22.4958 31.4324 22.4219C31.4353 22.4108 31.4382 22.399 31.4404 22.3887C31.5671 21.9053 31.5378 21.263 31.3379 20.8706C31.6271 20.6245 31.9339 20.3924 32.218 20.1419C32.2187 20.1419 32.2202 20.1411 32.2209 20.1404V20.1411V20.1404C32.2334 20.1285 32.2458 20.1182 32.259 20.1071V20.1064L32.2575 20.1071C32.259 20.1064 32.259 20.1056 32.2597 20.1042C32.2897 20.0709 32.3066 20.0258 32.3066 19.9778" fill="#F96073"/>
<path opacity="0.6" fill-rule="evenodd" clip-rule="evenodd" d="M37.5867 17.8638C37.6386 17.8135 37.665 17.7463 37.6657 17.679C37.6657 17.679 37.665 17.6783 37.665 17.6775C37.665 17.6687 37.665 17.6613 37.6643 17.6539C37.6643 17.6531 37.6635 17.6509 37.6643 17.6509C37.6635 17.6443 37.6635 17.6391 37.6628 17.6324C37.6606 17.6243 37.6591 17.6169 37.6569 17.6088C37.5325 17.0116 37.2865 16.3863 36.6487 15.8365C36.8523 15.359 37.0968 14.8831 37.2931 14.4049C37.2982 14.3908 37.304 14.3783 37.3099 14.3642C37.337 14.2748 37.3165 14.175 37.2484 14.1041C37.2154 14.0701 37.1766 14.0472 37.1364 14.0353C37.1093 14.0309 37.0822 14.0279 37.0566 14.0242C36.4049 13.9429 35.7518 14.0486 35.0929 14.4448C34.7187 14.0856 34.3431 13.7574 33.969 13.3997C33.9529 13.3849 33.9375 13.3694 33.9214 13.3546C33.8204 13.2793 33.6791 13.2874 33.5868 13.3776C33.5751 13.3879 33.5663 13.3997 33.5575 13.4123C33.5451 13.4337 33.5334 13.4574 33.5224 13.4803C33.19 14.1403 33.19 14.8638 33.2742 15.529C32.8378 15.7737 32.3999 16.0264 31.9621 16.2747C31.9489 16.2821 31.9365 16.2895 31.9218 16.2969C31.9094 16.3058 31.8984 16.3154 31.8874 16.3257C31.793 16.4181 31.7827 16.5652 31.8589 16.6694C31.8801 16.6916 31.9028 16.7123 31.9248 16.7337C32.5032 17.2799 33.1585 17.4898 33.7596 17.58C33.8665 18.0848 33.9573 18.5895 34.0634 19.0951C34.0664 19.1091 34.0678 19.1217 34.0708 19.135C34.0825 19.1734 34.1044 19.2111 34.133 19.2422C34.2121 19.3242 34.3285 19.3427 34.4259 19.3005C34.439 19.2932 34.4522 19.285 34.4661 19.2776C35.0475 18.9473 35.6347 18.3168 35.8229 17.7544C36.3302 17.8054 36.8391 17.8889 37.3465 17.9303C37.348 17.931 37.3487 17.9318 37.3509 17.931C37.3509 17.9325 37.3502 17.9325 37.3502 17.9325C37.3502 17.9325 37.3509 17.9325 37.3509 17.931C37.3729 17.9332 37.3956 17.9355 37.4175 17.9377C37.4183 17.9377 37.4183 17.9377 37.419 17.9369C37.4183 17.9377 37.4183 17.9377 37.4168 17.9369C37.419 17.9369 37.4205 17.9362 37.4219 17.9362C37.4812 17.9332 37.5413 17.9089 37.5867 17.8638" fill="#F96073"/>
<path fill-rule="evenodd" clip-rule="evenodd" d="M29.1005 24.5168C29.05 24.5257 28.9973 24.5405 28.9468 24.5486C24.1291 25.2796 20.2471 21.9419 20.3101 17.2731C20.3496 14.3338 21.8447 12.2947 23.8867 10.985C23.9387 10.9517 23.9922 10.9214 24.0442 10.8889C24.1086 10.8217 24.1489 10.7308 24.1489 10.6295C24.1489 10.4817 24.0625 10.3568 23.9395 10.294C23.875 10.2844 23.8077 10.2666 23.744 10.257C18.0023 9.45289 13.6356 13.8415 13.3867 18.8451C13.1341 23.9233 17.1984 28.1235 21.781 28.4546C25.1724 28.7 27.7241 27.3142 29.3568 25.1665C29.3671 25.1517 29.3773 25.1391 29.3876 25.1244C29.4373 25.0608 29.4718 24.9832 29.4718 24.8952C29.4718 24.6868 29.3063 24.519 29.1005 24.5168" fill="#F96073"/>
<path fill-rule="evenodd" clip-rule="evenodd" d="M27.7721 16.0954C27.8153 16.0614 27.8409 16.0134 27.8468 15.9631C27.8468 15.9631 27.8468 15.9624 27.8468 15.9617C27.8475 15.9557 27.8483 15.9498 27.8483 15.9439V15.9417C27.8483 15.9365 27.8483 15.9328 27.8483 15.9269C27.8483 15.921 27.8475 15.9151 27.8461 15.9084C27.8021 15.4487 27.6681 14.9558 27.234 14.4879C27.4265 14.1457 27.6506 13.8072 27.838 13.4636C27.8439 13.4532 27.849 13.4443 27.8541 13.434C27.8819 13.369 27.8754 13.2921 27.8292 13.233C27.8073 13.2041 27.7802 13.1842 27.7509 13.1709C27.7304 13.1657 27.7106 13.1613 27.6916 13.1561C27.2069 13.0401 26.7053 13.0637 26.176 13.3069C25.9241 13.0046 25.6679 12.7252 25.416 12.4244C25.405 12.4119 25.3948 12.3993 25.3838 12.386C25.3142 12.3209 25.2073 12.315 25.1297 12.3756C25.1202 12.3823 25.1129 12.3904 25.1048 12.3993C25.0938 12.4148 25.0836 12.4311 25.0726 12.4473C24.7673 12.9166 24.7072 13.4621 24.716 13.9706C24.3661 14.1184 24.0153 14.2714 23.6646 14.4214C23.6536 14.4258 23.6434 14.4303 23.6324 14.4355C23.6222 14.4406 23.6134 14.4473 23.6039 14.4539C23.5255 14.516 23.505 14.6254 23.5541 14.7104C23.568 14.7289 23.5834 14.7466 23.598 14.7643C23.989 15.2248 24.4656 15.4384 24.9108 15.5574C24.9496 15.9476 24.9767 16.3356 25.014 16.7259C25.0155 16.7362 25.0155 16.7458 25.017 16.7554C25.0221 16.7857 25.0353 16.816 25.0543 16.8419C25.107 16.9106 25.1934 16.9343 25.2703 16.9114C25.2805 16.9062 25.2915 16.9018 25.3025 16.8966C25.7682 16.697 26.2631 16.2721 26.452 15.8634C26.8298 15.9454 27.2069 16.0511 27.5861 16.125C27.5869 16.1257 27.5876 16.1265 27.5891 16.1265C27.5883 16.1265 27.5876 16.1272 27.5876 16.1272C27.5876 16.1272 27.5883 16.1265 27.5891 16.1265C27.6052 16.1294 27.622 16.1331 27.6381 16.1368C27.6389 16.1368 27.6389 16.1368 27.6396 16.1361C27.6389 16.1368 27.6389 16.1368 27.6381 16.1361H27.6418C27.6872 16.139 27.734 16.125 27.7721 16.0954" fill="#F96073"/>
<path fill-rule="evenodd" clip-rule="evenodd" d="M10.0523 26.5363C10.0267 26.4527 9.96956 26.3877 9.89781 26.35H9.89634C9.88756 26.3448 9.8795 26.3411 9.87072 26.3382C9.86999 26.3367 9.86779 26.3367 9.86706 26.3367C9.85973 26.3338 9.85388 26.3315 9.84582 26.3286C9.83704 26.3256 9.82752 26.3227 9.81727 26.3212C9.11365 26.1312 8.30973 26.0588 7.37694 26.4527C6.97791 25.9716 6.60303 25.4461 6.19961 24.9731C6.18789 24.9583 6.17618 24.9458 6.16373 24.931C6.08392 24.8541 5.96604 24.8216 5.85329 24.8578C5.79911 24.8733 5.75445 24.9036 5.71857 24.9413C5.69953 24.9687 5.68123 24.9953 5.66293 25.0234C5.22289 25.6878 4.97834 26.4557 5.04351 27.3877C4.45557 27.5998 3.90132 27.8297 3.31558 28.0418C3.29069 28.0514 3.26579 28.0595 3.2409 28.0684C3.10691 28.1371 3.03662 28.296 3.08275 28.446C3.08861 28.463 3.09593 28.4808 3.10398 28.4948C3.12082 28.5214 3.13913 28.5466 3.15743 28.5717C3.6824 29.293 4.45411 29.687 5.21118 29.9567C5.23387 30.5657 5.26609 31.1799 5.29245 31.7904C5.29318 31.8096 5.29318 31.8281 5.29464 31.8473C5.29684 31.865 5.3005 31.882 5.30636 31.9005C5.35322 32.0535 5.50478 32.1444 5.65707 32.1185C5.69221 32.1067 5.72736 32.0941 5.76177 32.0816C6.66088 31.749 7.24002 31.1511 7.66542 30.5465C8.26214 30.7054 8.85153 30.8813 9.44825 31.0417C9.46363 31.0454 9.47901 31.0498 9.49438 31.0535C9.5427 31.0624 9.59396 31.0602 9.64374 31.0447C9.77334 31.004 9.85754 30.8872 9.86486 30.7586C9.86413 30.7394 9.8634 30.7209 9.86266 30.7025C9.82606 29.8895 9.47388 28.908 8.97527 28.3958C9.30621 27.8718 9.67083 27.3633 9.99299 26.8334C9.99372 26.8326 9.99519 26.8319 9.99665 26.8289C9.99592 26.8304 9.99592 26.8312 9.99592 26.8312C9.99592 26.8312 9.99665 26.8304 9.99665 26.8289C10.0106 26.806 10.0237 26.7846 10.0384 26.7617C10.0384 26.7602 10.0384 26.7602 10.0391 26.7587C10.0384 26.7602 10.0384 26.7602 10.0377 26.7617C10.0384 26.7595 10.0391 26.7572 10.0406 26.7558C10.0684 26.6885 10.075 26.6116 10.0523 26.5363" fill="#F96073"/>
<path fill-rule="evenodd" clip-rule="evenodd" d="M20.931 0.699925C20.8863 0.6238 20.816 0.574281 20.7377 0.554326C20.7377 0.554326 20.737 0.554326 20.7362 0.554326C20.7267 0.55137 20.7179 0.549892 20.7091 0.548413C20.7077 0.548413 20.7055 0.547674 20.7047 0.547674C20.6974 0.546935 20.6908 0.546196 20.6828 0.544718C20.6733 0.543979 20.6637 0.543979 20.6535 0.543979C19.925 0.524024 19.1262 0.640798 18.3091 1.24167C17.8105 0.866218 17.325 0.442725 16.8242 0.0761409C16.8103 0.0650547 16.7957 0.0547075 16.781 0.0443604C16.6851 -0.0125488 16.5628 -0.0169833 16.4618 0.0443604C16.4128 0.0731846 16.3754 0.113095 16.3491 0.158179C16.3373 0.188481 16.3256 0.218783 16.3139 0.250564C16.0371 0.998513 15.9756 1.80337 16.2524 2.69544C15.7289 3.03838 15.242 3.39092 14.7207 3.73385C14.6987 3.74937 14.6768 3.76341 14.6541 3.77746C14.5391 3.87575 14.5076 4.04648 14.5867 4.18099C14.5962 4.19725 14.6072 4.21204 14.6182 4.22534C14.6409 4.24603 14.6643 4.26673 14.6885 4.28668C15.3635 4.86612 16.2048 5.06937 17.0029 5.15584C17.1647 5.74267 17.336 6.3332 17.5015 6.92077C17.5066 6.93924 17.511 6.95698 17.5169 6.97546C17.5227 6.99246 17.53 7.00872 17.5396 7.02498C17.6208 7.16318 17.7885 7.21566 17.9313 7.15506C17.9628 7.13584 17.9942 7.11514 18.025 7.09445C18.8231 6.56231 19.2506 5.84467 19.5259 5.15732C20.1424 5.17284 20.7567 5.20684 21.3739 5.2231C21.3901 5.22384 21.4054 5.22458 21.4215 5.22458C21.4699 5.22236 21.5204 5.20832 21.565 5.18097C21.6807 5.1115 21.7364 4.97846 21.7137 4.85134C21.7085 4.8336 21.7042 4.81513 21.699 4.79665C21.4779 4.0147 20.9105 3.14185 20.3079 2.75974C20.5107 2.17291 20.7494 1.59273 20.9412 1.00295C20.942 1.00147 20.9434 0.999992 20.9442 0.997774C20.9434 0.998513 20.9442 0.999992 20.9442 0.999992V0.997774C20.9522 0.971907 20.9603 0.947517 20.9691 0.921649C20.9683 0.920171 20.9691 0.920171 20.9691 0.918693C20.9691 0.920171 20.9683 0.920171 20.9683 0.921649C20.9683 0.919432 20.9683 0.917954 20.9698 0.915736C20.9815 0.844046 20.9705 0.767181 20.931 0.699925" fill="#F96073"/>
<path fill-rule="evenodd" clip-rule="evenodd" d="M18.1805 35.012C18.1878 34.9462 18.1673 34.8827 18.1285 34.8354C18.1285 34.8354 18.1285 34.8346 18.1278 34.8339C18.1234 34.828 18.119 34.8221 18.1139 34.8176C18.1139 34.8176 18.1124 34.8162 18.1117 34.8162C18.1073 34.8117 18.1044 34.8088 18.1 34.8036C18.0941 34.7992 18.0883 34.7947 18.0817 34.7896C17.649 34.4429 17.1115 34.1466 16.3442 34.1362C16.211 33.6787 16.107 33.199 15.9686 32.7467C15.965 32.7327 15.9606 32.7194 15.9562 32.7068C15.924 32.6277 15.8515 32.5694 15.7622 32.5605C15.7204 32.5553 15.6794 32.5627 15.6428 32.5775C15.6223 32.5908 15.6018 32.6034 15.5806 32.6174C15.0746 32.9448 14.6741 33.4045 14.4406 34.0734C13.9676 34.0409 13.5129 34.032 13.0414 34.001C13.0216 33.9995 13.0019 33.998 12.9821 33.9965C12.8679 34.0032 12.7712 34.0919 12.7588 34.2101C12.7573 34.2249 12.7573 34.2389 12.758 34.2522C12.7624 34.2752 12.7676 34.2981 12.7727 34.321C12.9221 34.9832 13.3401 35.4932 13.7868 35.9122C13.6198 36.3438 13.458 36.7806 13.2933 37.2123C13.2874 37.2263 13.2823 37.2396 13.2779 37.2529C13.2742 37.2662 13.2706 37.2788 13.2698 37.2943C13.2559 37.4148 13.3343 37.5241 13.4485 37.5537C13.4763 37.5552 13.5049 37.5574 13.532 37.5589C14.2575 37.6025 14.8403 37.3638 15.317 37.0726C15.6845 37.366 16.0426 37.6675 16.4094 37.9617C16.4189 37.9691 16.4284 37.9772 16.4379 37.9846C16.4687 38.0053 16.5053 38.0193 16.5448 38.0238C16.6466 38.0349 16.7403 37.9794 16.7835 37.8922C16.7887 37.8796 16.7945 37.8649 16.7996 37.8523C17.0178 37.2766 17.0676 36.485 16.8736 35.9758C17.2616 35.7127 17.6673 35.4702 18.0502 35.2005C18.0509 35.2005 18.0524 35.1997 18.0538 35.199L18.0531 35.2005L18.0538 35.199C18.0707 35.1864 18.0868 35.1761 18.1036 35.1643C18.1044 35.1628 18.1044 35.1628 18.1044 35.1628C18.1044 35.1628 18.1044 35.1628 18.1036 35.1635C18.1044 35.1628 18.1051 35.1613 18.1066 35.1606C18.1468 35.1221 18.1739 35.0704 18.1805 35.012" fill="#F96073"/>
<path fill-rule="evenodd" clip-rule="evenodd" d="M19.7776 31.3569C19.7981 31.3237 19.8032 31.2852 19.7944 31.249V31.249C19.7929 31.2446 19.7922 31.2409 19.7915 31.2365L19.7907 31.235C19.7893 31.2313 19.7885 31.2291 19.7871 31.2254C19.7849 31.2217 19.7834 31.2172 19.7812 31.2135C19.6384 30.9172 19.4283 30.6215 19.022 30.4161C19.0674 30.1389 19.134 29.8573 19.1743 29.5809C19.1757 29.572 19.1772 29.5647 19.1786 29.5558C19.1808 29.5055 19.1574 29.4568 19.112 29.4279C19.0908 29.4146 19.0674 29.408 19.0447 29.4065C19.03 29.408 19.0154 29.4095 19.0007 29.4117C18.6486 29.4553 18.3191 29.5964 18.0255 29.8921C17.7824 29.7524 17.5422 29.6297 17.2999 29.4922C17.2896 29.4863 17.2787 29.4797 17.2691 29.4738C17.2062 29.4486 17.133 29.4708 17.0956 29.5299C17.092 29.5373 17.0883 29.5447 17.0854 29.5521C17.0817 29.5654 17.0788 29.5794 17.0758 29.5927C16.9873 29.9837 17.0802 30.3629 17.2113 30.7006C17.0136 30.8869 16.8167 31.0776 16.619 31.2653C16.6131 31.2719 16.6073 31.2771 16.6014 31.283C16.5955 31.2889 16.5911 31.2956 16.5868 31.303C16.5487 31.3636 16.5626 31.4419 16.616 31.487C16.63 31.4944 16.6446 31.5033 16.6585 31.5121C17.0334 31.7213 17.4046 31.7457 17.7319 31.7139C17.8534 31.9645 17.9662 32.218 18.0877 32.4692C18.0906 32.4759 18.0936 32.4818 18.0972 32.4877C18.1075 32.5077 18.1236 32.5239 18.1434 32.5372C18.1953 32.569 18.259 32.5638 18.3044 32.5284C18.3103 32.5225 18.3161 32.5165 18.3227 32.5106C18.5849 32.2616 18.8111 31.8529 18.8382 31.5321C19.1106 31.4929 19.3888 31.4685 19.6597 31.4242H19.6626H19.6619H19.6626C19.6743 31.4212 19.686 31.4198 19.6985 31.4183L19.6992 31.4175C19.6985 31.4183 19.6985 31.4183 19.6978 31.4183C19.6992 31.4175 19.7 31.4168 19.7 31.4168C19.7314 31.4072 19.7593 31.3865 19.7776 31.3569" fill="#F96073"/>
<path fill-rule="evenodd" clip-rule="evenodd" d="M34.966 26.3845C34.9323 26.3602 34.892 26.352 34.854 26.3587C34.854 26.3587 34.8532 26.3587 34.8525 26.3594C34.8481 26.3602 34.8437 26.3609 34.8401 26.3616L34.8379 26.3624C34.8342 26.3631 34.8313 26.3646 34.8276 26.3661C34.824 26.3675 34.8188 26.369 34.8144 26.3698C34.493 26.5058 34.1665 26.7127 33.9249 27.1369C33.6342 27.0704 33.3406 26.981 33.0506 26.9196C33.0419 26.9174 33.0338 26.9159 33.0257 26.913C32.9723 26.9071 32.9181 26.93 32.8859 26.9765C32.8698 26.9987 32.8617 27.0224 32.8588 27.0482C32.8588 27.0645 32.8603 27.0793 32.861 27.0955C32.8844 27.4776 33.0133 27.8413 33.3054 28.1775C33.1429 28.4296 32.9979 28.6794 32.8361 28.9322C32.8303 28.9432 32.8229 28.9536 32.8163 28.9639C32.7841 29.0304 32.8039 29.1103 32.8647 29.1539C32.872 29.159 32.8793 29.1635 32.8874 29.1664C32.9005 29.1709 32.9152 29.176 32.9291 29.179C33.3362 29.3002 33.7433 29.2241 34.1086 29.1051C34.2924 29.3298 34.4813 29.5537 34.6665 29.7784C34.6731 29.7858 34.6783 29.7917 34.6848 29.7984C34.6907 29.8057 34.6973 29.8109 34.7046 29.8161C34.7661 29.8604 34.8496 29.8501 34.9008 29.7954C34.9104 29.7814 34.9206 29.7658 34.9301 29.7511C35.1761 29.3608 35.2245 28.9632 35.212 28.6092C35.4851 28.4946 35.7589 28.3882 36.032 28.2744C36.0401 28.2714 36.0467 28.2685 36.054 28.2655C36.0745 28.2552 36.0935 28.2396 36.1075 28.2182C36.1455 28.165 36.1441 28.0963 36.1097 28.0445C36.1038 28.0379 36.0987 28.032 36.0921 28.0246C35.8453 27.7252 35.428 27.4555 35.0912 27.4067C35.0663 27.1103 35.059 26.8103 35.0282 26.5146C35.0297 26.5139 35.0297 26.5131 35.029 26.5117C35.029 26.5124 35.0297 26.5131 35.0297 26.5131C35.0297 26.5131 35.029 26.5124 35.029 26.5117C35.0275 26.4991 35.0268 26.4865 35.0253 26.4732C35.0253 26.4725 35.0253 26.4725 35.0246 26.4725C35.0253 26.4725 35.0253 26.4725 35.0253 26.474C35.0246 26.4725 35.0246 26.4718 35.0246 26.471C35.0158 26.4363 34.9968 26.406 34.966 26.3845" fill="#F96073"/>
<path fill-rule="evenodd" clip-rule="evenodd" d="M35.8575 20.4288C35.804 20.4125 35.7491 20.4184 35.703 20.4436H35.7022C35.6964 20.4472 35.6913 20.4502 35.6876 20.4532C35.6861 20.4532 35.6847 20.4546 35.6847 20.4546C35.681 20.4576 35.6781 20.4598 35.6737 20.4628C35.6686 20.4679 35.6634 20.4724 35.659 20.4761C35.3069 20.7821 34.9767 21.1834 34.8449 21.8219C34.4488 21.8596 34.0387 21.8692 33.6448 21.9128C33.6339 21.9128 33.6221 21.9151 33.6112 21.9165C33.5416 21.9298 33.4823 21.9823 33.4603 22.054C33.4494 22.0887 33.4479 22.1242 33.4552 22.1567C33.4625 22.1767 33.4699 22.1959 33.4779 22.2159C33.6646 22.6911 33.978 23.0976 34.4876 23.4021C34.3858 23.7908 34.3045 24.1693 34.2042 24.5573C34.1991 24.5735 34.1954 24.5898 34.191 24.6068C34.1771 24.7036 34.235 24.7975 34.3302 24.8278C34.3419 24.8307 34.3529 24.833 34.3638 24.8352C34.3843 24.8344 34.4034 24.8344 34.4239 24.833C34.9891 24.8145 35.4745 24.5469 35.8897 24.2424C36.2162 24.4501 36.5486 24.6556 36.8766 24.8625C36.8869 24.8692 36.8957 24.8766 36.9067 24.8817C36.9169 24.8876 36.9279 24.8921 36.9389 24.895C37.0355 24.9261 37.138 24.8788 37.1798 24.7864C37.1871 24.765 37.1922 24.7406 37.1973 24.7191C37.3496 24.1197 37.2479 23.595 37.0868 23.1515C37.3855 22.8899 37.6894 22.6394 37.9895 22.3807C37.9976 22.374 38.0057 22.3674 38.013 22.36C38.0342 22.3386 38.0518 22.3097 38.062 22.2787C38.0877 22.1959 38.0562 22.1072 37.9932 22.057C37.983 22.0511 37.972 22.0444 37.9632 22.0385C37.5254 21.7643 36.8854 21.595 36.4373 21.6756C36.2836 21.309 36.1503 20.9313 35.9907 20.567C35.9907 20.567 35.99 20.5662 35.9893 20.5655C35.99 20.5648 35.9907 20.5662 35.9907 20.5662C35.9907 20.5662 35.99 20.5648 35.9893 20.5655C35.9827 20.5485 35.9753 20.533 35.9695 20.5167H35.968V20.5182C35.968 20.5167 35.9673 20.5167 35.9658 20.5138C35.9417 20.4746 35.9043 20.4436 35.8575 20.4288" fill="#F96073"/>
<path fill-rule="evenodd" clip-rule="evenodd" d="M34.9142 8.53611C34.9288 8.48437 34.9208 8.4319 34.8966 8.38755C34.8966 8.38755 34.8959 8.38755 34.8952 8.38681C34.8922 8.38164 34.8893 8.37721 34.8856 8.37203C34.8864 8.37203 34.8849 8.37055 34.8856 8.36982C34.882 8.36612 34.8798 8.36316 34.8769 8.35873C34.8732 8.35503 34.8688 8.3506 34.8651 8.34617C34.5635 8.00988 34.174 7.70169 33.5619 7.58935C33.5157 7.20576 33.496 6.80814 33.4455 6.42825C33.444 6.41643 33.4425 6.40534 33.4411 6.39499C33.425 6.32774 33.3759 6.27157 33.3056 6.25087C33.2719 6.24126 33.239 6.242 33.2075 6.24865C33.1892 6.25604 33.1709 6.26491 33.1526 6.2723C32.7045 6.46668 32.3245 6.77931 32.0477 7.28263C31.6758 7.1932 31.3126 7.12446 30.9407 7.03577C30.9253 7.03282 30.9092 7.02838 30.8931 7.02469C30.8009 7.01434 30.713 7.07273 30.6874 7.16511C30.6837 7.17694 30.6822 7.18803 30.6808 7.19837C30.6815 7.21759 30.6822 7.2368 30.6837 7.25602C30.7145 7.80516 30.9824 8.2693 31.2826 8.66397C31.093 8.98621 30.9056 9.31362 30.7167 9.63734C30.7108 9.64695 30.7049 9.65729 30.6998 9.6669C30.6947 9.67725 30.691 9.6876 30.6874 9.69868C30.661 9.79329 30.7093 9.89158 30.7965 9.93002C30.8184 9.93593 30.8404 9.94036 30.8624 9.94628C31.4356 10.0778 31.9343 9.96549 32.3531 9.79772C32.6093 10.0815 32.8539 10.3705 33.1094 10.6551C33.116 10.6632 33.1218 10.6698 33.1284 10.6772C33.1504 10.6979 33.1775 10.7142 33.2082 10.723C33.2888 10.746 33.3708 10.7142 33.4176 10.6499C33.4228 10.6403 33.4286 10.6299 33.4345 10.6203C33.6856 10.1894 33.8291 9.56343 33.742 9.13107C34.0868 8.97291 34.4434 8.83396 34.7846 8.66988C34.7861 8.66914 34.7868 8.66914 34.7883 8.6684L34.7875 8.66988L34.7883 8.6684C34.8029 8.66175 34.8183 8.65436 34.8329 8.64771L34.8337 8.64623L34.8322 8.64697C34.8337 8.64623 34.8344 8.64549 34.8351 8.64549C34.8725 8.62036 34.901 8.58193 34.9142 8.53611" fill="#F96073"/>
<path fill-rule="evenodd" clip-rule="evenodd" d="M9.57571 5.13782C9.59181 5.1733 9.62183 5.19769 9.65625 5.21025C9.66137 5.21173 9.66503 5.21321 9.66869 5.21469H9.67016C9.67455 5.21542 9.67601 5.21616 9.68041 5.21616C9.68407 5.2169 9.68846 5.2169 9.69359 5.21764C10.0179 5.2546 10.3782 5.2339 10.7662 4.99813C10.9742 5.18512 11.1748 5.3928 11.3842 5.5761C11.3908 5.58127 11.3966 5.58644 11.4025 5.59162C11.4435 5.62118 11.4977 5.62783 11.5452 5.60418C11.5679 5.59309 11.5855 5.57683 11.5994 5.55762C11.606 5.54431 11.6126 5.53175 11.6185 5.51845C11.7708 5.19473 11.8286 4.83775 11.74 4.42904C11.986 4.29675 12.2174 4.1578 12.4627 4.0255C12.4736 4.01959 12.4839 4.01368 12.4941 4.00851C12.5498 3.96859 12.5696 3.89395 12.5395 3.83039C12.5366 3.82373 12.5315 3.81634 12.5271 3.81043C12.5183 3.80008 12.5081 3.78974 12.4985 3.78013C12.2188 3.49484 11.8513 3.37142 11.4984 3.30194C11.4493 3.03366 11.3952 2.76389 11.3439 2.49413C11.3417 2.48674 11.3402 2.47787 11.3388 2.47048C11.3366 2.46235 11.3337 2.45496 11.33 2.44683C11.2992 2.38179 11.226 2.35149 11.1601 2.37366C11.1462 2.38105 11.1308 2.38918 11.1162 2.39657C10.7406 2.60351 10.5217 2.90654 10.373 3.20291C10.0977 3.17187 9.82538 3.13343 9.55008 3.10165C9.54349 3.10165 9.53617 3.10017 9.52958 3.09944C9.50761 3.0987 9.48492 3.10313 9.46368 3.11274C9.40877 3.14009 9.37948 3.19699 9.38461 3.25464C9.38607 3.26277 9.38754 3.2709 9.389 3.27903C9.45783 3.63675 9.67821 4.04842 9.93154 4.24353C9.81952 4.49704 9.69066 4.74611 9.5823 5.00183C9.58156 5.00257 9.58156 5.00331 9.58083 5.00405C9.57644 5.01513 9.57205 5.02622 9.56619 5.03804C9.56619 5.03804 9.56692 5.03804 9.56692 5.03878C9.56692 5.03804 9.56692 5.03804 9.56692 5.03731C9.56692 5.03878 9.56619 5.03952 9.56619 5.03952C9.55813 5.0713 9.56033 5.10604 9.57571 5.13782Z" fill="#F96073"/>
<path fill-rule="evenodd" clip-rule="evenodd" d="M5.8606 10.5508C5.91185 10.5921 5.97482 10.6091 6.03632 10.6018C6.03632 10.6018 6.03632 10.6018 6.03706 10.601C6.04438 10.6003 6.0517 10.5995 6.05829 10.5981C6.05902 10.5981 6.06122 10.5973 6.06122 10.5966C6.06707 10.5958 6.07147 10.5951 6.07806 10.5936C6.08538 10.5914 6.09124 10.5892 6.09929 10.5855C6.6206 10.4022 7.15655 10.1029 7.57681 9.4547C8.03076 9.58626 8.48764 9.75477 8.94012 9.87968C8.95403 9.88337 8.96721 9.88707 8.98039 9.89002C9.06385 9.9048 9.15098 9.8745 9.20736 9.80355C9.23372 9.76955 9.24909 9.73112 9.25642 9.69195C9.25642 9.66756 9.25642 9.64243 9.25715 9.6173C9.25349 9.01126 9.08289 8.42369 8.64944 7.86494C8.92987 7.48062 9.181 7.09704 9.45923 6.71271C9.47094 6.69572 9.48266 6.6802 9.4951 6.66394C9.55075 6.56268 9.52805 6.43334 9.4358 6.3587C9.42481 6.34983 9.4131 6.34244 9.40139 6.33652C9.38015 6.32765 9.35746 6.31952 9.33549 6.31139C8.70143 6.08376 8.05126 6.16727 7.46113 6.32322C7.18949 5.94998 6.91127 5.57823 6.63744 5.20573C6.62938 5.1939 6.62133 5.18208 6.61254 5.17099C6.60376 5.16138 6.59351 5.15104 6.58252 5.14217C6.48807 5.06604 6.35555 5.07491 6.27062 5.15621C6.25378 5.17838 6.23621 5.20203 6.2201 5.22421C5.79471 5.81917 5.68268 6.44369 5.67097 7.00613C5.22874 7.16208 4.78431 7.30546 4.34208 7.46066C4.33036 7.4651 4.31865 7.46879 4.30693 7.47323C4.27399 7.48801 4.2425 7.51166 4.21761 7.5427C4.15391 7.624 4.15025 7.73339 4.1993 7.8169C4.20736 7.82873 4.21614 7.84055 4.22493 7.85238C4.58955 8.34682 5.22508 8.81318 5.75444 8.92035C5.76688 9.39188 5.75151 9.86785 5.77274 10.3386C5.77201 10.3394 5.77201 10.3409 5.77201 10.3423L5.77128 10.3416C5.77128 10.3416 5.77128 10.3423 5.77201 10.3423C5.77274 10.3638 5.77347 10.3837 5.77421 10.4037C5.77494 10.4052 5.77494 10.4052 5.77567 10.4059C5.77494 10.4052 5.77494 10.4052 5.77494 10.4037C5.77567 10.4052 5.77567 10.4074 5.77567 10.4089C5.78592 10.4628 5.81448 10.5138 5.8606 10.5508" fill="#F96073"/>
<path opacity="0.6" fill-rule="evenodd" clip-rule="evenodd" d="M3.41812 18.7413C3.49646 18.7612 3.577 18.7464 3.64143 18.7073C3.64143 18.7073 3.64217 18.7058 3.6429 18.705C3.65095 18.6999 3.65827 18.6954 3.66486 18.6895C3.6656 18.6895 3.66779 18.6888 3.66779 18.6888C3.67365 18.6836 3.67804 18.6792 3.68463 18.6747C3.69049 18.6688 3.69708 18.6629 3.70367 18.6555C4.19788 18.1729 4.64597 17.5536 4.78582 16.6009C5.36497 16.5092 5.96754 16.459 6.5423 16.3592C6.55914 16.357 6.57525 16.3548 6.59282 16.3518C6.69386 16.3237 6.77659 16.2439 6.80368 16.1345C6.81613 16.082 6.81393 16.031 6.80222 15.983C6.78904 15.9542 6.77586 15.9268 6.76268 15.8995C6.44565 15.2166 5.94997 14.6445 5.1724 14.2432C5.28882 13.6623 5.37375 13.0976 5.48943 12.5167C5.4931 12.4916 5.49895 12.4679 5.50335 12.4436C5.51433 12.2994 5.42061 12.1664 5.2793 12.1317C5.26173 12.1272 5.24489 12.125 5.22805 12.1243C5.1995 12.125 5.17021 12.128 5.14165 12.1309C4.30917 12.207 3.61874 12.6461 3.0352 13.1309C2.53585 12.8537 2.02992 12.5818 1.52839 12.3053C1.51301 12.2972 1.4969 12.2891 1.48153 12.281C1.46542 12.2736 1.45078 12.2684 1.43247 12.264C1.2875 12.2277 1.1418 12.3068 1.08762 12.4436C1.0803 12.4783 1.07297 12.513 1.06639 12.5478C0.895789 13.4406 1.09274 14.2055 1.37024 14.8448C0.951434 15.2565 0.52531 15.6497 0.106508 16.0591C0.0955253 16.0702 0.0852749 16.0798 0.0742923 16.0902C0.0435411 16.1257 0.0201116 16.1685 0.00839684 16.2166C-0.0216222 16.3429 0.0310942 16.4671 0.13067 16.5366C0.146045 16.5447 0.160689 16.5528 0.176796 16.561C0.843805 16.9268 1.80149 17.1168 2.45385 16.9601C2.71158 17.4841 2.94148 18.0295 3.20799 18.5484C3.20872 18.5506 3.20872 18.5513 3.21018 18.5535H3.20872H3.21018C3.22117 18.5764 3.23288 18.5994 3.2446 18.6223H3.24606L3.24386 18.6208C3.24606 18.6223 3.24753 18.6237 3.24826 18.6252C3.28779 18.6814 3.34637 18.7243 3.41812 18.7413" fill="#F96073"/>
<path opacity="0.35" fill-rule="evenodd" clip-rule="evenodd" d="M11.8311 19.0936C11.8311 19.027 11.804 18.9672 11.7608 18.9236C11.7608 18.9236 11.7601 18.9228 11.7594 18.9228C11.7543 18.9169 11.7491 18.9125 11.744 18.908C11.744 18.908 11.7418 18.9066 11.7418 18.9058C11.7367 18.9021 11.7338 18.8992 11.7279 18.8955C11.722 18.8918 11.7162 18.8874 11.7096 18.8837C11.241 18.5865 10.6758 18.3508 9.91065 18.4232C9.72907 17.9835 9.57458 17.5171 9.38788 17.0825C9.38275 17.0692 9.3769 17.0574 9.3725 17.0448C9.33077 16.9694 9.25316 16.9199 9.1631 16.9199C9.1199 16.9199 9.0811 16.931 9.04596 16.9502C9.02619 16.9657 9.00788 16.9805 8.98811 16.9968C8.52026 17.3774 8.17174 17.8785 8.00993 18.5696C7.53695 18.5888 7.08373 18.6294 6.61148 18.6494C6.59172 18.6508 6.57195 18.6516 6.55218 18.6523C6.43869 18.6715 6.35303 18.7706 6.35303 18.8896C6.35303 18.9036 6.35522 18.9177 6.35742 18.931C6.36328 18.9531 6.37133 18.9753 6.37939 18.9982C6.59757 19.6397 7.06982 20.1009 7.55745 20.469C7.43737 20.9169 7.32389 21.3684 7.20601 21.8178C7.20308 21.8311 7.19942 21.8452 7.19576 21.8585C7.19283 21.8725 7.19283 21.8851 7.19283 21.8998C7.19283 22.0218 7.28142 22.1223 7.39784 22.1378C7.42566 22.1378 7.45421 22.1364 7.48204 22.1349C8.20689 22.0987 8.76187 21.7971 9.20484 21.4557C9.60241 21.7077 9.98899 21.9693 10.3866 22.2199C10.3975 22.2273 10.4071 22.2339 10.4173 22.2406C10.4503 22.2576 10.4876 22.2679 10.5271 22.2679C10.6304 22.2679 10.7175 22.2029 10.7512 22.1105C10.7548 22.0972 10.7585 22.0831 10.7622 22.0691C10.9174 21.4727 10.8815 20.6796 10.6348 20.1948C10.9921 19.891 11.3706 19.6057 11.7213 19.2953C11.7235 19.2953 11.7242 19.2946 11.725 19.2931V19.2946V19.2931C11.7403 19.2798 11.7557 19.2665 11.7711 19.2532V19.2517C11.7711 19.2525 11.7711 19.2525 11.7711 19.2532C11.7711 19.2517 11.7726 19.2502 11.7733 19.2488C11.8099 19.2074 11.8311 19.1527 11.8311 19.0936" fill="#F96073"/>
<path opacity="0.35" fill-rule="evenodd" clip-rule="evenodd" d="M11.6621 34.7456C11.6826 34.7123 11.6877 34.6739 11.6789 34.6377V34.6377C11.6775 34.6333 11.6767 34.6288 11.676 34.6251L11.6753 34.6237C11.6738 34.62 11.6731 34.6177 11.6716 34.614C11.6694 34.6096 11.6679 34.6067 11.6657 34.6022C11.523 34.3051 11.3121 34.0095 10.9065 33.8062C10.9519 33.5291 11.0185 33.246 11.0588 32.9688C11.0602 32.9615 11.0617 32.9526 11.0632 32.9452C11.0654 32.8949 11.0419 32.8447 10.9965 32.8173C10.9753 32.8033 10.9519 32.7966 10.9292 32.7952C10.9145 32.7966 10.8999 32.7981 10.8852 32.8003C10.5331 32.8439 10.2036 32.9858 9.90926 33.2807C9.66691 33.1418 9.42676 33.0184 9.18441 32.8809C9.17416 32.875 9.16318 32.8691 9.15366 32.8632C9.09069 32.8373 9.01748 32.8595 8.98014 32.9193C8.97647 32.926 8.97281 32.9341 8.96988 32.9415C8.96622 32.9541 8.96256 32.9681 8.96037 32.9814C8.87104 33.3724 8.96476 33.7523 9.09582 34.09C8.89813 34.2763 8.70118 34.4662 8.50349 34.6547C8.49763 34.6606 8.49178 34.6665 8.48592 34.6717C8.48006 34.6776 8.47494 34.6843 8.47128 34.6916C8.4332 34.753 8.44711 34.8306 8.50056 34.8757C8.51447 34.8838 8.52912 34.8927 8.54303 34.9001C8.9179 35.1107 9.28911 35.1336 9.61639 35.1018C9.73793 35.3531 9.85069 35.6059 9.97223 35.8579C9.97516 35.8646 9.97809 35.8697 9.98175 35.8771C9.992 35.8963 10.0081 35.9133 10.0279 35.9252C10.0799 35.9584 10.1436 35.9525 10.189 35.9178C10.1948 35.9119 10.2007 35.906 10.2073 35.9C10.4694 35.6502 10.6956 35.2415 10.7227 34.9208C10.9951 34.8816 11.2733 34.8572 11.5442 34.8121C11.5457 34.8129 11.5464 34.8129 11.5471 34.8121C11.5471 34.8129 11.5464 34.8136 11.5464 34.8136C11.5464 34.8136 11.5471 34.8129 11.5471 34.8121C11.5588 34.8106 11.5706 34.8092 11.583 34.8069V34.8062H11.5823C11.5837 34.8062 11.5845 34.8062 11.5845 34.8055C11.616 34.7959 11.6438 34.7752 11.6621 34.7456" fill="#F96073"/>
<path opacity="0.35" fill-rule="evenodd" clip-rule="evenodd" d="M32.7989 30.9218C32.8062 30.8553 32.7857 30.7925 32.7469 30.7444L32.7462 30.7437C32.7418 30.7378 32.7367 30.7319 32.7323 30.7274C32.7323 30.7267 32.7308 30.7252 32.7301 30.7252C32.7257 30.7215 32.7228 30.7186 32.7184 30.7134C32.7125 30.7082 32.7067 30.7038 32.7001 30.6994C32.2674 30.3527 31.7292 30.0564 30.9626 30.0453C30.8294 29.5885 30.7254 29.1089 30.587 28.6558C30.5834 28.6425 30.579 28.6292 30.5746 28.6166C30.5424 28.5368 30.4699 28.4792 30.3806 28.4695C30.3388 28.4651 30.2978 28.4725 30.2612 28.4865C30.2407 28.5006 30.2195 28.5132 30.199 28.5272C29.693 28.8546 29.2926 29.3143 29.059 29.9832C28.586 29.9507 28.1313 29.9418 27.6598 29.91C27.64 29.9085 27.6203 29.9071 27.6005 29.9056C27.4863 29.913 27.3896 30.0017 27.3772 30.1199C27.3757 30.134 27.3757 30.148 27.3765 30.1613C27.3809 30.1842 27.386 30.2071 27.3911 30.23C27.5405 30.893 27.9585 31.4022 28.4044 31.8213C28.2382 32.2529 28.0764 32.6904 27.9117 33.1221C27.9058 33.1361 27.9 33.1494 27.8963 33.162C27.8926 33.176 27.889 33.1886 27.8875 33.2041C27.8743 33.3246 27.9527 33.4332 28.0669 33.4628C28.0947 33.465 28.1233 33.4665 28.1504 33.4679C28.8759 33.5116 29.4588 33.2736 29.9354 32.9816C30.3029 33.275 30.661 33.5773 31.0278 33.8707C31.0373 33.8789 31.0468 33.887 31.0564 33.8937C31.0871 33.9144 31.1237 33.9284 31.1632 33.9328C31.265 33.9447 31.3587 33.8885 31.4019 33.8013C31.4071 33.7887 31.4129 33.7747 31.418 33.7614C31.6362 33.1856 31.6853 32.3941 31.492 31.8856C31.88 31.6217 32.2857 31.38 32.6686 31.1103C32.6693 31.1095 32.6708 31.1095 32.6723 31.1081L32.6715 31.1095C32.6715 31.1095 32.6723 31.1088 32.6723 31.1081C32.6891 31.0962 32.7052 31.0852 32.722 31.0733C32.722 31.0718 32.7228 31.0718 32.7228 31.0718C32.7228 31.0718 32.722 31.0718 32.722 31.0733C32.7228 31.0718 32.7235 31.0704 32.725 31.0704C32.7652 31.0312 32.7923 30.9802 32.7989 30.9218" fill="#F96073"/>
<path opacity="0.35" fill-rule="evenodd" clip-rule="evenodd" d="M25.4626 19.1032C25.4341 19.0907 25.4026 19.0914 25.3755 19.1025V19.1025C25.3718 19.104 25.3689 19.1054 25.3667 19.1069C25.366 19.1069 25.3652 19.1069 25.3652 19.1077C25.3623 19.1091 25.3608 19.1099 25.3579 19.1114C25.355 19.1136 25.3521 19.1158 25.3491 19.118C25.1339 19.2673 24.9259 19.4713 24.8146 19.8201C24.5906 19.8172 24.3614 19.7972 24.1388 19.798C24.133 19.7972 24.1264 19.798 24.1198 19.798C24.0803 19.8009 24.0444 19.8275 24.0276 19.866C24.0195 19.8852 24.0166 19.9044 24.0188 19.9229C24.021 19.9347 24.0246 19.9458 24.0276 19.9569C24.1044 20.2333 24.2545 20.4801 24.521 20.6804C24.4405 20.8918 24.3731 21.098 24.2941 21.3086C24.2904 21.3175 24.2875 21.3271 24.2838 21.336C24.2706 21.3892 24.297 21.4454 24.3482 21.4676C24.3548 21.4698 24.3607 21.472 24.3666 21.4735C24.3783 21.4742 24.3885 21.4757 24.4002 21.4764C24.7173 21.5001 25.0043 21.3803 25.2539 21.2355C25.4238 21.3707 25.5973 21.506 25.7679 21.642C25.7738 21.6457 25.7782 21.6501 25.784 21.6538C25.7892 21.6575 25.795 21.6605 25.8009 21.6634C25.8536 21.6863 25.9136 21.6664 25.9422 21.6168C25.9473 21.6058 25.9517 21.5925 25.9561 21.5806C26.0769 21.2547 26.0513 20.9561 25.9876 20.6974C26.1699 20.5703 26.3544 20.4491 26.5374 20.322C26.5426 20.3198 26.547 20.3168 26.5521 20.3131C26.5653 20.302 26.5762 20.2872 26.5843 20.2702C26.6033 20.2252 26.5916 20.1742 26.5587 20.1416C26.5536 20.1379 26.5477 20.1335 26.5426 20.1306C26.3149 19.9502 25.9671 19.8172 25.7123 19.8342C25.6486 19.6206 25.5966 19.4011 25.5292 19.189C25.5285 19.189 25.5285 19.1882 25.5285 19.1882H25.5292L25.5285 19.1875C25.5256 19.1779 25.5227 19.169 25.5205 19.1594C25.5197 19.1594 25.5197 19.1594 25.5197 19.1594V19.1601C25.5197 19.1594 25.519 19.1587 25.519 19.1579C25.5073 19.1343 25.4882 19.1143 25.4626 19.1032" fill="#F96073"/>
<path opacity="0.35" fill-rule="evenodd" clip-rule="evenodd" d="M12.771 11.8995C12.809 11.9239 12.8537 11.9305 12.8947 11.9216C12.8947 11.9216 12.8954 11.9209 12.8962 11.9202C12.9013 11.9194 12.9057 11.918 12.9101 11.9172L12.9115 11.9165C12.9159 11.915 12.9189 11.9143 12.9233 11.912C12.9277 11.9098 12.932 11.9083 12.9364 11.9054C13.2813 11.7406 13.6254 11.4952 13.8663 11.0185C14.187 11.0747 14.5121 11.156 14.832 11.207C14.8416 11.2084 14.8511 11.2099 14.8599 11.2121C14.9177 11.2151 14.9755 11.1877 15.0092 11.1353C15.0246 11.1101 15.0326 11.0828 15.0341 11.0554C15.0326 11.0384 15.0312 11.0207 15.0283 11.0045C14.9821 10.5883 14.8218 10.1989 14.4835 9.84927C14.6468 9.56398 14.791 9.28313 14.9536 8.99785C14.9602 8.98602 14.9668 8.9742 14.9741 8.96237C15.0041 8.88846 14.9792 8.80199 14.9104 8.75838C14.9023 8.75247 14.8935 8.74804 14.8855 8.74508C14.8701 8.74065 14.854 8.73695 14.8386 8.73326C14.3876 8.62461 13.9476 8.73104 13.5551 8.88181C13.3413 8.64678 13.1231 8.41323 12.9079 8.17747C12.9013 8.17156 12.8947 8.16416 12.8881 8.15677C12.8808 8.15012 12.8742 8.14421 12.8654 8.13977C12.7959 8.09395 12.7051 8.11021 12.6524 8.17229C12.6428 8.18855 12.6326 8.20629 12.6231 8.22255C12.3763 8.66157 12.3456 9.0991 12.3793 9.4849C12.0864 9.62533 11.7935 9.75688 11.5014 9.89731C11.4941 9.901 11.4875 9.90396 11.4787 9.90766C11.4567 9.92022 11.437 9.93944 11.4223 9.96235C11.3842 10.023 11.3908 10.0976 11.4304 10.1516C11.437 10.1589 11.4435 10.1656 11.4501 10.1737C11.7364 10.4849 12.2072 10.7561 12.5777 10.7909C12.6209 11.1124 12.6458 11.4398 12.6948 11.7605C12.6948 11.762 12.6941 11.7627 12.6948 11.7635L12.6941 11.7627L12.6948 11.7635C12.697 11.7775 12.6985 11.7916 12.7007 11.8064H12.7014V11.8049C12.7014 11.8064 12.7021 11.8071 12.7029 11.8086C12.7131 11.8448 12.7373 11.878 12.771 11.8995" fill="#F96073"/>
<path opacity="0.35" fill-rule="evenodd" clip-rule="evenodd" d="M27.7122 6.88262C27.6741 6.86636 27.6331 6.86709 27.5965 6.88188V6.88188C27.5913 6.88335 27.5877 6.88557 27.5848 6.88705C27.5833 6.88705 27.5826 6.88779 27.5826 6.88853C27.5789 6.89001 27.5767 6.89148 27.573 6.89296C27.5694 6.89666 27.5657 6.89888 27.5613 6.90183C27.2758 7.09991 26.9997 7.37115 26.8518 7.83455C26.5546 7.83012 26.25 7.80425 25.9549 7.80499C25.9462 7.80425 25.9381 7.80499 25.9293 7.80499C25.8766 7.80942 25.829 7.84342 25.8063 7.8959C25.7961 7.92028 25.7917 7.94615 25.7946 7.97128C25.7983 7.9868 25.8026 8.00084 25.8063 8.01637C25.9088 8.38295 26.108 8.7111 26.4623 8.97643C26.3554 9.25728 26.2654 9.53074 26.1607 9.81085C26.1556 9.82268 26.1512 9.8345 26.1468 9.84633C26.1292 9.91654 26.1651 9.99193 26.2324 10.0222C26.2412 10.0244 26.2493 10.0274 26.2566 10.0296C26.2727 10.0311 26.2859 10.0326 26.3013 10.0333C26.7223 10.0651 27.1037 9.90619 27.4354 9.71329C27.6609 9.89363 27.8908 10.0725 28.1178 10.2528C28.1251 10.258 28.131 10.2646 28.139 10.2691C28.1456 10.2735 28.1536 10.278 28.1617 10.2816C28.2305 10.3127 28.3103 10.2853 28.3484 10.221C28.3557 10.2055 28.3616 10.1878 28.3674 10.1715C28.5278 9.7399 28.4934 9.34228 28.4092 9.00008C28.6508 8.83083 28.8968 8.66971 29.1392 8.5012C29.1457 8.49751 29.1516 8.49381 29.1582 8.48864C29.1758 8.47386 29.1911 8.4539 29.2014 8.43173C29.227 8.37186 29.2109 8.30461 29.1677 8.26174C29.1604 8.25657 29.1531 8.25065 29.1465 8.24548C28.8434 8.00676 28.3821 7.83012 28.0438 7.85377C27.9589 7.56996 27.8901 7.27802 27.8007 6.99643C27.8 6.99643 27.8 6.99496 27.7993 6.99422C27.8 6.99422 27.8007 6.99496 27.8007 6.99496C27.8007 6.99496 27.8 6.99422 27.7993 6.99422C27.7956 6.98165 27.792 6.96983 27.7883 6.95726C27.7876 6.95726 27.7876 6.95726 27.7876 6.95726V6.95874C27.7876 6.95726 27.7876 6.95652 27.7868 6.95505C27.7715 6.924 27.7458 6.8974 27.7122 6.88262" fill="#F96073"/>
<path opacity="0.8" fill-rule="evenodd" clip-rule="evenodd" d="M15.6054 28.3983C15.6054 28.3532 15.5871 28.3118 15.5578 28.2815C15.5578 28.2815 15.5571 28.2815 15.5563 28.2807C15.5527 28.277 15.549 28.2741 15.5454 28.2704C15.5454 28.2697 15.5446 28.2697 15.5446 28.2689C15.541 28.2667 15.538 28.2645 15.5344 28.2623C15.5307 28.26 15.5263 28.2571 15.5219 28.2541C15.199 28.0487 14.8095 27.8868 14.2824 27.9363C14.1572 27.6333 14.0503 27.3125 13.9221 27.0125C13.9185 27.0036 13.9148 26.9955 13.9112 26.9866C13.8826 26.9356 13.8292 26.9009 13.7669 26.9009C13.7376 26.9009 13.7105 26.9083 13.6864 26.9216C13.6732 26.9319 13.66 26.943 13.6468 26.9534C13.324 27.2157 13.0845 27.5609 12.9725 28.0376C12.6467 28.0501 12.3348 28.0782 12.009 28.0923C11.9958 28.0938 11.9819 28.0938 11.968 28.0945C11.8904 28.1078 11.8311 28.1758 11.8311 28.2586C11.8311 28.2674 11.8325 28.277 11.834 28.2867C11.8384 28.3014 11.8435 28.3177 11.8494 28.3325C11.9995 28.7752 12.3253 29.0923 12.6606 29.3465C12.5786 29.654 12.5003 29.9658 12.419 30.2748C12.4168 30.2851 12.4146 30.2933 12.4117 30.3036C12.4102 30.3132 12.4095 30.3228 12.4095 30.3324C12.4095 30.4159 12.471 30.4854 12.5515 30.4965C12.5705 30.4958 12.5896 30.495 12.6086 30.4943C13.1087 30.4699 13.4909 30.2615 13.7955 30.0265C14.07 30.2001 14.3365 30.3797 14.6104 30.5534C14.6177 30.5578 14.6243 30.5623 14.6309 30.5667C14.6543 30.5785 14.6799 30.5852 14.707 30.5852C14.7788 30.5852 14.8381 30.5401 14.8615 30.4773C14.8644 30.4684 14.8666 30.4581 14.8688 30.4492C14.9765 30.0383 14.9508 29.4914 14.7817 29.1573C15.027 28.9481 15.2884 28.7523 15.53 28.5379C15.5307 28.5365 15.5315 28.5365 15.5322 28.5365C15.5432 28.5269 15.5542 28.518 15.5644 28.5076H15.5637C15.5644 28.5076 15.5651 28.5062 15.5659 28.5062C15.5908 28.4773 15.6054 28.4389 15.6054 28.3983Z" fill="#F96073"/>
<path opacity="0.8" fill-rule="evenodd" clip-rule="evenodd" d="M26.3405 32.7058C26.3149 32.6282 26.26 32.5676 26.1919 32.5343H26.1897C26.1809 32.5299 26.1729 32.5262 26.1648 32.5225L26.1626 32.521C26.1553 32.5188 26.1494 32.5166 26.1421 32.5136C26.1333 32.5121 26.1245 32.5092 26.1158 32.5077C25.4466 32.3458 24.6888 32.2948 23.8175 32.6873C23.4302 32.2424 23.0648 31.7561 22.6746 31.3185C22.6636 31.3052 22.6519 31.2926 22.6409 31.2793C22.5633 31.2091 22.452 31.181 22.3458 31.2165C22.2953 31.2343 22.2543 31.2638 22.2206 31.2993C22.2038 31.3252 22.1869 31.3518 22.1708 31.3776C21.7696 32.0133 21.5573 32.7427 21.6378 33.62C21.0894 33.8321 20.5718 34.062 20.0241 34.2748C20.0014 34.2852 19.978 34.2926 19.9545 34.3022C19.8286 34.3702 19.7678 34.5202 19.814 34.6606C19.8198 34.6776 19.8279 34.6932 19.8352 34.7079C19.8513 34.7323 19.8696 34.7545 19.8872 34.7782C20.3968 35.447 21.1341 35.8003 21.8523 36.0375C21.8882 36.6118 21.9314 37.189 21.9695 37.764C21.9702 37.7818 21.9724 37.8003 21.9739 37.8173C21.9761 37.8343 21.9797 37.8505 21.9856 37.8675C22.0332 38.0109 22.1774 38.0929 22.3209 38.0656C22.3539 38.0538 22.3868 38.0412 22.419 38.0279C23.2581 37.6953 23.7926 37.1181 24.1784 36.5386C24.7459 36.6754 25.3038 36.8276 25.8705 36.9658C25.8859 36.9688 25.8998 36.9725 25.9144 36.9762C25.9598 36.9828 26.0081 36.9799 26.0543 36.9644C26.1765 36.9222 26.2519 36.8114 26.2571 36.6894C26.2556 36.6717 26.2541 36.6547 26.2527 36.6362C26.2014 35.8713 25.8471 34.9533 25.3668 34.481C25.6669 33.9822 26.0001 33.4936 26.2915 32.9881C26.2929 32.9866 26.2937 32.9859 26.2951 32.9837V32.9851V32.9837C26.3076 32.9615 26.3208 32.9393 26.334 32.9179L26.3332 32.9164L26.3325 32.9179C26.3332 32.9164 26.3332 32.9142 26.3347 32.912C26.3603 32.8484 26.364 32.776 26.3405 32.7058" fill="#F96073"/>
<path opacity="0.8" fill-rule="evenodd" clip-rule="evenodd" d="M4.62956 21.3914C4.62956 21.3368 4.60759 21.2872 4.57171 21.2518C4.57171 21.2518 4.57098 21.2503 4.57025 21.2503C4.56586 21.2458 4.56146 21.2421 4.55707 21.2385L4.55561 21.237C4.55121 21.234 4.54902 21.2311 4.54462 21.2281C4.5395 21.2244 4.53437 21.2215 4.52852 21.2185C4.1412 20.9724 3.67334 20.7773 3.04074 20.8371C2.89065 20.4735 2.76252 20.0877 2.60803 19.7285C2.60364 19.7167 2.59924 19.7071 2.59558 19.6967C2.56117 19.6347 2.49674 19.5933 2.42206 19.5933C2.38618 19.5933 2.3547 19.6029 2.32614 19.6191C2.3093 19.6317 2.2932 19.6443 2.27782 19.6568C1.8905 19.9724 1.60203 20.387 1.46877 20.9583C1.07706 20.9746 0.702186 21.0071 0.311207 21.0249C0.295099 21.0263 0.278991 21.0263 0.262151 21.0271C0.168433 21.0426 0.0981445 21.1246 0.0981445 21.2229C0.0981445 21.2348 0.0996089 21.2466 0.101073 21.2569C0.106198 21.2761 0.112788 21.2946 0.119378 21.3124C0.300224 21.8438 0.690472 22.2259 1.0939 22.5304C0.995055 22.8999 0.900605 23.2739 0.803226 23.6449C0.800297 23.656 0.798101 23.6678 0.795172 23.6796C0.792976 23.6907 0.792243 23.7018 0.792243 23.7144C0.792243 23.8141 0.865461 23.8977 0.962107 23.9102C0.984805 23.9102 1.00897 23.9088 1.03166 23.908C1.63131 23.8784 2.09038 23.6286 2.45647 23.3463C2.78522 23.554 3.10591 23.7705 3.43465 23.979C3.44344 23.9841 3.45149 23.9901 3.45955 23.9952C3.48664 24.01 3.51812 24.0181 3.55034 24.0181C3.636 24.0181 3.70775 23.9634 3.73631 23.8881C3.73924 23.877 3.74216 23.8659 3.74509 23.8541C3.87396 23.3604 3.84394 22.7041 3.63966 22.3035C3.93546 22.0514 4.24809 21.8157 4.53877 21.5592C4.54023 21.5592 4.54096 21.5585 4.5417 21.5577V21.5585V21.5577C4.55414 21.5459 4.56732 21.5348 4.5805 21.5245V21.523L4.57977 21.5245C4.5805 21.523 4.58123 21.5215 4.58123 21.5208C4.61125 21.486 4.62956 21.4402 4.62956 21.3914" fill="#F96073"/>
<path opacity="0.8" fill-rule="evenodd" clip-rule="evenodd" d="M30.9167 11.3271C30.8882 11.3145 30.8567 11.3153 30.8296 11.3264V11.3264C30.8259 11.3278 30.823 11.3293 30.8208 11.3308C30.8201 11.3308 30.8193 11.3308 30.8193 11.3315C30.8164 11.333 30.8149 11.3338 30.812 11.3352C30.8091 11.3375 30.8062 11.3397 30.8032 11.3419C30.588 11.4912 30.38 11.6952 30.2687 12.044C30.0454 12.0411 29.8155 12.0211 29.593 12.0218C29.5871 12.0211 29.5805 12.0218 29.5739 12.0218C29.5344 12.0255 29.4985 12.0507 29.4817 12.0898C29.4736 12.1091 29.4707 12.1283 29.4729 12.1467C29.4751 12.1586 29.4787 12.1697 29.4817 12.1815C29.5585 12.4572 29.7086 12.704 29.9751 12.9043C29.8946 13.1157 29.8272 13.3219 29.7482 13.5325C29.7445 13.5414 29.7416 13.5503 29.7379 13.5599C29.7247 13.6123 29.7511 13.6693 29.8024 13.6914C29.8089 13.6936 29.8148 13.6959 29.8207 13.6973C29.8324 13.6981 29.8426 13.6996 29.8543 13.7003C30.1714 13.7239 30.4584 13.6042 30.708 13.4594C30.8779 13.5946 31.0514 13.7299 31.222 13.8651C31.2279 13.8695 31.2323 13.874 31.2381 13.8777C31.2433 13.8814 31.2491 13.8843 31.255 13.8873C31.3077 13.9102 31.3677 13.8895 31.3963 13.8415C31.4014 13.8296 31.4058 13.8163 31.4102 13.8045C31.531 13.4793 31.5054 13.18 31.4417 12.922C31.624 12.7942 31.8085 12.673 31.9915 12.5466C31.9967 12.5436 32.0011 12.5407 32.0062 12.537C32.0194 12.5259 32.0303 12.5111 32.0384 12.4941C32.0574 12.449 32.0457 12.398 32.0128 12.3663C32.0077 12.3618 32.0018 12.3574 31.9974 12.3537C31.769 12.1741 31.4212 12.0411 31.1664 12.0588C31.1027 11.8445 31.0507 11.625 30.9833 11.4128C30.9833 11.4128 30.9826 11.4121 30.9826 11.4114L30.9833 11.4121L30.9826 11.4114C30.9797 11.4018 30.9768 11.3929 30.9746 11.3833C30.9738 11.3833 30.9738 11.3833 30.9738 11.3833V11.384C30.9738 11.3833 30.9731 11.3825 30.9731 11.3818C30.9614 11.3582 30.9423 11.3382 30.9167 11.3271" fill="#F96073"/>
<path opacity="0.8" fill-rule="evenodd" clip-rule="evenodd" d="M8.06228 13.87C8.07839 13.9055 8.10767 13.9299 8.14282 13.9424V13.9424C8.14794 13.9432 8.1516 13.9454 8.156 13.9461L8.15673 13.9469C8.16039 13.9469 8.16332 13.9476 8.16771 13.9476C8.17137 13.9491 8.17576 13.9491 8.18016 13.9498C8.50451 13.9868 8.86547 13.9661 9.25279 13.7296C9.46073 13.9166 9.66207 14.1242 9.87074 14.3075C9.87733 14.3134 9.88246 14.3186 9.88905 14.3238C9.93005 14.3526 9.98423 14.36 10.0326 14.3364C10.0545 14.3253 10.0728 14.309 10.0867 14.2898C10.0926 14.2765 10.0992 14.2632 10.1058 14.2499C10.2581 13.9262 10.3159 13.5699 10.2266 13.1612C10.4726 13.0282 10.704 12.89 10.95 12.7569C10.9602 12.751 10.9712 12.7459 10.9807 12.7399C11.0364 12.7 11.0561 12.6254 11.0261 12.5626C11.0232 12.5552 11.0188 12.5485 11.0144 12.5426C11.0049 12.5315 10.9954 12.5212 10.9851 12.5116C10.7062 12.227 10.3379 12.1036 9.98496 12.0341C9.93591 11.7651 9.88172 11.4961 9.83047 11.2263C9.82828 11.2189 9.82754 11.2108 9.82535 11.2019C9.82388 11.1938 9.82022 11.1864 9.81656 11.179C9.78581 11.114 9.71259 11.0837 9.64743 11.1058C9.63279 11.1132 9.61741 11.1206 9.6035 11.1287C9.22643 11.335 9.00824 11.6395 8.85961 11.9351C8.58432 11.904 8.31195 11.8656 8.03738 11.8338C8.03006 11.8331 8.02347 11.8324 8.01615 11.8316C7.99419 11.8301 7.97149 11.8346 7.95099 11.8449C7.89534 11.8715 7.86606 11.9292 7.87118 11.9868C7.87265 11.9949 7.87411 12.0031 7.87631 12.0112C7.9444 12.3682 8.16478 12.7806 8.41885 12.975C8.30609 13.2285 8.17723 13.4783 8.06887 13.734C8.06814 13.734 8.06814 13.7355 8.06814 13.7362C8.0674 13.7355 8.0674 13.7355 8.0674 13.7355C8.0674 13.7355 8.0674 13.7355 8.06814 13.7362C8.06301 13.7466 8.05862 13.7584 8.05276 13.7695C8.05349 13.7702 8.05349 13.7702 8.05349 13.7702C8.05349 13.7702 8.05349 13.7702 8.05349 13.7695C8.05349 13.7702 8.05349 13.771 8.05349 13.7717C8.04471 13.8027 8.0469 13.839 8.06228 13.87" fill="#F96073"/>
<path opacity="0.8" fill-rule="evenodd" clip-rule="evenodd" d="M23.4923 5.09318C23.4476 5.08358 23.4022 5.09245 23.3663 5.11536C23.3663 5.11536 23.3663 5.1161 23.3656 5.11684C23.3612 5.11979 23.3576 5.12275 23.3539 5.1257H23.3517C23.3488 5.12866 23.3466 5.13088 23.3429 5.13383C23.3393 5.13753 23.3356 5.14122 23.3319 5.14492C23.0596 5.42208 22.8143 5.77462 22.7469 6.31193C22.4226 6.37032 22.0836 6.40505 21.7614 6.46714C21.7519 6.46861 21.7431 6.47083 21.7336 6.47231C21.6765 6.48931 21.6311 6.53513 21.6172 6.59721C21.6106 6.62678 21.6121 6.6556 21.6201 6.68221C21.6274 6.69773 21.6348 6.71325 21.6428 6.72877C21.8281 7.1094 22.1136 7.42572 22.5551 7.64154C22.4965 7.97043 22.4541 8.28897 22.3955 8.61638C22.3933 8.63043 22.3911 8.64447 22.3889 8.65777C22.3845 8.73907 22.438 8.81298 22.5185 8.83072C22.528 8.83293 22.5375 8.83367 22.547 8.83441C22.5632 8.83367 22.5793 8.83146 22.5954 8.82924C23.0625 8.77676 23.4462 8.52326 23.769 8.24389C24.0524 8.39392 24.3401 8.541 24.6249 8.69103C24.6345 8.69546 24.6425 8.69916 24.6513 8.70433C24.6608 8.70803 24.6696 8.71099 24.6791 8.7132C24.7611 8.73094 24.8424 8.68512 24.8717 8.60751C24.8754 8.58904 24.879 8.56908 24.8819 8.54987C24.9683 8.04507 24.8497 7.61715 24.6865 7.26091C24.9171 7.02588 25.1521 6.79898 25.3835 6.56396C25.3893 6.55804 25.3952 6.55287 25.4011 6.54622C25.4179 6.52626 25.4303 6.50187 25.4362 6.47527C25.4523 6.40357 25.4216 6.3341 25.3644 6.29641C25.3557 6.29197 25.3476 6.28754 25.3381 6.2831C24.9588 6.08503 24.4185 5.98895 24.0539 6.08429C23.903 5.79235 23.7676 5.48859 23.6116 5.19961C23.6116 5.19813 23.6116 5.19813 23.6109 5.19666H23.6116H23.6109C23.6043 5.18409 23.5977 5.17153 23.5904 5.15896L23.5897 5.15822L23.5904 5.15896C23.5897 5.15822 23.5897 5.15748 23.5882 5.15675C23.5655 5.1257 23.5325 5.10205 23.4923 5.09318" fill="#F96073"/>
<path opacity="0.8" fill-rule="evenodd" clip-rule="evenodd" d="M29.0385 3.30931C29.0385 3.27235 29.0239 3.23836 28.9997 3.21397C28.9997 3.21397 28.999 3.21397 28.9982 3.21397C28.9953 3.21101 28.9924 3.20805 28.9894 3.2051L28.9887 3.20436C28.9858 3.20214 28.9836 3.20066 28.9807 3.19844C28.9777 3.19697 28.9741 3.19401 28.9704 3.19179C28.7076 3.0255 28.3913 2.8932 27.9622 2.93459C27.8612 2.68774 27.774 2.42684 27.6693 2.18295C27.6664 2.17556 27.6635 2.16817 27.6613 2.16151C27.6379 2.12013 27.5947 2.09204 27.5434 2.09204C27.52 2.09204 27.498 2.09795 27.4782 2.1083C27.4673 2.11717 27.4563 2.12604 27.446 2.13491C27.1839 2.3485 26.9884 2.62861 26.8976 3.01589C26.6326 3.02698 26.3793 3.04915 26.1142 3.06098C26.1032 3.06171 26.0915 3.06171 26.0805 3.06245C26.0176 3.07354 25.97 3.12823 25.97 3.19549C25.97 3.20288 25.9707 3.21101 25.9714 3.2184C25.9758 3.23096 25.9795 3.24353 25.9846 3.25609C26.1069 3.61603 26.3712 3.8747 26.6436 4.08091C26.5777 4.33072 26.5132 4.58422 26.4473 4.83551C26.4452 4.84364 26.4437 4.85029 26.4415 4.85916C26.44 4.86655 26.44 4.87394 26.44 4.88207C26.44 4.95007 26.4898 5.00624 26.555 5.01584C26.5704 5.0151 26.5865 5.01437 26.6018 5.01363C27.0082 4.99293 27.3194 4.82442 27.5668 4.633C27.7901 4.77343 28.0069 4.9205 28.2295 5.06167C28.2353 5.06536 28.2404 5.06906 28.2463 5.07275C28.2646 5.08236 28.2866 5.08827 28.3078 5.08827C28.3656 5.08827 28.414 5.05132 28.4337 4.99958C28.4359 4.99219 28.4374 4.9848 28.4396 4.97667C28.5267 4.64261 28.5062 4.19842 28.3686 3.92644C28.5684 3.75645 28.7808 3.59681 28.9777 3.42239C28.9777 3.42239 28.9785 3.42239 28.9792 3.42165V3.42239V3.42165C28.988 3.41426 28.9968 3.40613 29.0048 3.39874V3.398V3.39874C29.0048 3.398 29.0056 3.39726 29.0063 3.39726C29.0268 3.37361 29.0385 3.34257 29.0385 3.30931" fill="#F96073"/>
</svg>
