<svg width="32" height="32" viewBox="0 0 32 32" fill="none" xmlns="http://www.w3.org/2000/svg">
<path d="M11.8516 17.375H17.125C17.7227 17.375 18.25 16.8828 18.25 16.25V9.5C18.25 8.90234 17.7227 8.375 17.125 8.375H7C6.36719 8.375 5.875 8.90234 5.875 9.5V16.25C5.875 16.8828 6.36719 17.375 7 17.375H8.125C8.72266 17.375 9.25 17.9023 9.25 18.5V19.0625L11.1836 17.6211C11.3945 17.4805 11.6055 17.375 11.8516 17.375ZM17.125 18.5H11.8516L9.00391 20.6445C8.82812 20.7852 8.61719 20.7852 8.40625 20.7148C8.23047 20.6094 8.125 20.4336 8.125 20.1875V19.625V18.5H7C5.73438 18.5 4.75 17.5156 4.75 16.25V9.5C4.75 8.26953 5.73438 7.25 7 7.25H17.125C18.3555 7.25 19.375 8.26953 19.375 9.5V16.25C19.375 17.5156 18.3555 18.5 17.125 18.5ZM16 23C14.7344 23 13.75 22.0156 13.75 20.75V19.625H14.875V20.75C14.875 21.3828 15.3672 21.875 16 21.875H20.1133C20.3594 21.875 20.6055 21.9805 20.7812 22.1211L22.75 23.5625V23C22.75 22.4023 23.2422 21.875 23.875 21.875H25C25.5977 21.875 26.125 21.3828 26.125 20.75V14C26.125 13.4023 25.5977 12.875 25 12.875H20.5V11.75H25C26.2305 11.75 27.25 12.7695 27.25 14V20.75C27.25 22.0156 26.2305 23 25 23H23.875V24.125V24.6875C23.875 24.9336 23.7344 25.1094 23.5586 25.2148C23.3477 25.2852 23.1367 25.2852 22.9609 25.1445L20.1133 23H16Z" fill="#2A3539"/>
<rect x="16" width="16" height="16" rx="8" fill="#F96073"/>
<path d="M23.934 12.0561C22.902 12.0561 21.822 11.5281 21.366 10.6641L22.386 10.1121C22.686 10.6761 23.238 10.9401 23.814 10.9401C24.774 10.9401 25.338 10.2561 25.338 9.42809C25.338 8.60009 24.714 8.03609 23.838 8.03609C23.394 8.03609 22.986 8.18009 22.662 8.52809L21.774 8.01209C21.894 6.83609 21.99 5.07209 22.05 3.94409H26.214V5.04809H23.25C23.214 5.73209 23.178 6.51209 23.106 7.14809C23.454 6.99209 23.85 6.93209 24.222 6.93209C25.554 6.93209 26.634 8.00009 26.634 9.36809C26.634 10.9041 25.494 12.0561 23.934 12.0561Z" fill="white"/>
</svg>
