<svg width="18" height="18" viewBox="0 0 18 18" fill="none" xmlns="http://www.w3.org/2000/svg">
<path d="M13.3359 3.88281C13.125 3.67188 12.75 3.67188 12.5391 3.88281L11.8594 4.5625L12.9375 5.64062L13.6172 4.96094C13.8516 4.75 13.8516 4.375 13.6172 4.16406L13.3359 3.88281ZM7.92188 8.5C7.85156 8.57031 7.80469 8.66406 7.78125 8.75781L7.38281 10.1172L8.74219 9.71875C8.83594 9.69531 8.92969 9.64844 9 9.57812L12.1406 6.4375L11.0625 5.35938L7.92188 8.5ZM11.7422 3.08594C12.3984 2.42969 13.4766 2.42969 14.1328 3.08594L14.4141 3.36719C15.0703 4.02344 15.0703 5.10156 14.4141 5.75781L9.79688 10.375C9.58594 10.5859 9.32812 10.7266 9.07031 10.7969L6.72656 11.4766C6.51562 11.5234 6.30469 11.4766 6.16406 11.3359C6.02344 11.1953 5.97656 10.9844 6.02344 10.7734L6.70312 8.42969C6.77344 8.17188 6.91406 7.91406 7.125 7.70312L11.7422 3.08594ZM5.0625 4H7.6875C7.99219 4 8.25 4.25781 8.25 4.5625C8.25 4.86719 7.99219 5.125 7.6875 5.125H5.0625C4.54688 5.125 4.125 5.54688 4.125 6.0625V12.4375C4.125 12.9531 4.54688 13.375 5.0625 13.375H11.4375C11.9531 13.375 12.375 12.9531 12.375 12.4375V9.8125C12.375 9.50781 12.6328 9.25 12.9375 9.25C13.2422 9.25 13.5 9.50781 13.5 9.8125V12.4375C13.5 13.5859 12.5859 14.5 11.4375 14.5H5.0625C3.91406 14.5 3 13.5859 3 12.4375V6.0625C3 4.91406 3.91406 4 5.0625 4Z" fill="#F96073"/>
</svg>
