<svg width="16" height="16" viewBox="0 0 16 16" fill="none" xmlns="http://www.w3.org/2000/svg">
<path d="M7.50781 4.67949C7.83594 5.6873 7.48437 6.69511 6.73437 6.95292C5.98437 7.1873 5.09375 6.57792 4.76562 5.57011C4.41406 4.5623 4.76562 3.55449 5.51562 3.29667C6.26562 3.0623 7.15625 3.67167 7.50781 4.67949ZM4.34375 7.16386C4.78906 7.91386 4.69531 8.80449 4.10937 9.13261C3.54687 9.46074 2.72656 9.10917 2.28125 8.33574C1.83594 7.58574 1.92969 6.69511 2.51562 6.36699C3.07812 6.03886 3.92187 6.39042 4.34375 7.16386ZM3.61719 11.8982C4.85937 8.59355 7.03906 7.7498 8 7.7498C8.96094 7.7498 11.1406 8.59355 12.3828 11.8982C12.4531 12.1326 12.5 12.367 12.5 12.6248V12.6482C12.5 13.2576 12.0078 13.7498 11.3984 13.7498C11.1406 13.7498 10.8594 13.7264 10.6016 13.656L8.53906 13.1404C8.1875 13.0467 7.8125 13.0467 7.46094 13.1404L5.39844 13.656C5.14062 13.7264 4.85937 13.7498 4.60156 13.7498C3.99219 13.7498 3.5 13.2576 3.5 12.6482V12.6248C3.5 12.367 3.54687 12.1326 3.61719 11.8982ZM11.8906 9.13261C11.3047 8.80449 11.2109 7.91386 11.6562 7.16386C12.1016 6.39042 12.9219 6.03886 13.4844 6.36699C14.0703 6.69511 14.1641 7.58574 13.7187 8.33574C13.2734 9.10917 12.4531 9.46074 11.8906 9.13261ZM9.26562 6.95292C8.51562 6.69511 8.16406 5.6873 8.51562 4.67949C8.84375 3.67167 9.73437 3.0623 10.4844 3.29667C11.2344 3.55449 11.5859 4.5623 11.2578 5.57011C10.9062 6.57792 10.0156 7.1873 9.26562 6.95292Z" fill="#00D98B"/>
</svg>
