<svg width="48" height="48" viewBox="0 0 48 48" fill="none" xmlns="http://www.w3.org/2000/svg">
<path d="M36.0219 10.2538H11.9781C10.366 10.2538 9.05908 11.5607 9.05908 13.1728V37.2166C9.05908 38.8288 10.366 40.1357 11.9781 40.1357H36.0219C37.6341 40.1357 38.941 38.8288 38.941 37.2166V13.1728C38.941 11.5607 37.6341 10.2538 36.0219 10.2538Z" fill="#FDC0C8"/>
<path d="M25.6688 22.7673H22.3312C22.0877 22.7673 21.8904 22.9647 21.8904 23.2081V26.5458C21.8904 26.7892 22.0877 26.9866 22.3312 26.9866H25.6688C25.9123 26.9866 26.1096 26.7892 26.1096 26.5458V23.2081C26.1096 22.9647 25.9123 22.7673 25.6688 22.7673Z" fill="white"/>
<path d="M16.7516 22.7673H13.4139C13.1705 22.7673 12.9731 22.9647 12.9731 23.2081V26.5458C12.9731 26.7892 13.1705 26.9866 13.4139 26.9866H16.7516C16.995 26.9866 17.1924 26.7892 17.1924 26.5458V23.2081C17.1924 22.9647 16.995 22.7673 16.7516 22.7673Z" fill="white"/>
<path d="M34.5858 22.7673H31.2482C31.0047 22.7673 30.8074 22.9647 30.8074 23.2081V26.5458C30.8074 26.7892 31.0047 26.9866 31.2482 26.9866H34.5858C34.8292 26.9866 35.0266 26.7892 35.0266 26.5458V23.2081C35.0266 22.9647 34.8292 22.7673 34.5858 22.7673Z" fill="white"/>
<path d="M25.6688 30.5734H22.3312C22.0877 30.5734 21.8904 30.7707 21.8904 31.0141V34.3518C21.8904 34.5952 22.0877 34.7926 22.3312 34.7926H25.6688C25.9123 34.7926 26.1096 34.5952 26.1096 34.3518V31.0141C26.1096 30.7707 25.9123 30.5734 25.6688 30.5734Z" fill="white"/>
<path d="M16.7516 30.5734H13.4139C13.1705 30.5734 12.9731 30.7707 12.9731 31.0141V34.3518C12.9731 34.5952 13.1705 34.7926 13.4139 34.7926H16.7516C16.995 34.7926 17.1924 34.5952 17.1924 34.3518V31.0141C17.1924 30.7707 16.995 30.5734 16.7516 30.5734Z" fill="white"/>
<path d="M34.5858 30.5734H31.2482C31.0047 30.5734 30.8074 30.7707 30.8074 31.0141V34.3518C30.8074 34.5952 31.0047 34.7926 31.2482 34.7926H34.5858C34.8292 34.7926 35.0266 34.5952 35.0266 34.3518V31.0141C35.0266 30.7707 34.8292 30.5734 34.5858 30.5734Z" fill="white"/>
<path d="M38.941 18.6628V13.1728C38.941 11.5607 37.6341 10.2538 36.0219 10.2538H11.9781C10.366 10.2538 9.05908 11.5608 9.05908 13.1728V18.6628H38.941Z" fill="#F96074"/>
<path d="M19.1946 8.10167C19.1946 6.9959 18.2983 6.09949 17.1925 6.09949C16.0868 6.09949 15.1904 6.9959 15.1904 8.10167V11.0046C15.1904 12.1104 16.0868 13.0068 17.1925 13.0068C18.2983 13.0068 19.1946 12.1104 19.1946 11.0046V8.10167Z" fill="#F96074"/>
<path d="M32.8094 8.10167C32.8094 6.9959 31.913 6.09949 30.8073 6.09949C29.7016 6.09949 28.8052 6.9959 28.8052 8.10167V11.0046C28.8052 12.1104 29.7016 13.0068 30.8073 13.0068C31.913 13.0068 32.8094 12.1104 32.8094 11.0046V8.10167Z" fill="#F96074"/>
</svg>
