<svg width="20" height="20" viewBox="0 0 20 20" fill="none" xmlns="http://www.w3.org/2000/svg">
<path d="M13.375 5.75C13.375 4.55469 12.707 3.46484 11.6875 2.83203C10.6328 2.23438 9.33203 2.23438 8.3125 2.83203C7.25781 3.46484 6.625 4.55469 6.625 5.75C6.625 6.98047 7.25781 8.07031 8.3125 8.70312C9.33203 9.30078 10.6328 9.30078 11.6875 8.70312C12.707 8.07031 13.375 6.98047 13.375 5.75ZM5.5 5.75C5.5 4.16797 6.34375 2.69141 7.75 1.88281C9.12109 1.07422 10.8438 1.07422 12.25 1.88281C13.6211 2.69141 14.5 4.16797 14.5 5.75C14.5 7.36719 13.6211 8.84375 12.25 9.65234C10.8438 10.4609 9.12109 10.4609 7.75 9.65234C6.34375 8.84375 5.5 7.36719 5.5 5.75ZM3.25 18.125H16.75C16.6797 15.3477 14.3945 13.0625 11.582 13.0625H8.38281C5.57031 13.0625 3.28516 15.3477 3.25 18.125ZM2.125 18.2305C2.125 14.75 4.90234 11.9375 8.38281 11.9375H11.582C15.0625 11.9375 17.875 14.75 17.875 18.2305C17.875 18.793 17.3828 19.25 16.8203 19.25H3.14453C2.58203 19.25 2.125 18.793 2.125 18.2305Z" fill="#2A3539"/>
</svg>
