<svg width="16" height="16" viewBox="0 0 16 16" fill="none" xmlns="http://www.w3.org/2000/svg">
<path d="M13.9141 2.1416C13.5859 1.78613 13.0117 1.78613 12.6836 2.1416L11.9453 2.85254L13.5312 4.43848L14.2422 3.7002C14.5977 3.37207 14.5977 2.79785 14.2422 2.46973L13.9141 2.1416ZM6.66797 8.15723C6.53125 8.2666 6.44922 8.43066 6.42188 8.56738L6.01172 10.3721L7.81641 9.96191C7.95312 9.93457 8.11719 9.85254 8.22656 9.71582L12.9023 5.04004L11.3438 3.48145L6.66797 8.15723ZM12.0547 1.5127C12.7383 0.829102 13.8594 0.829102 14.543 1.5127L14.8711 1.84082C15.5547 2.52441 15.5547 3.64551 14.8711 4.3291L8.85547 10.3447C8.60938 10.5908 8.30859 10.7549 8.00781 10.8096L5.51953 11.3838C5.38281 11.4111 5.21875 11.3838 5.10938 11.2744C5 11.165 4.97266 11.001 5 10.8643L5.57422 8.37598C5.65625 8.0752 5.79297 7.77441 6.03906 7.52832L12.0547 1.5127ZM3.6875 2.63379H7.1875C7.40625 2.63379 7.625 2.85254 7.625 3.07129C7.625 3.31738 7.40625 3.50879 7.1875 3.50879H3.6875C2.94922 3.50879 2.375 4.11035 2.375 4.82129V12.6963C2.375 13.4346 2.94922 14.0088 3.6875 14.0088H11.5625C12.2734 14.0088 12.875 13.4346 12.875 12.6963V9.19629C12.875 8.97754 13.0664 8.75879 13.3125 8.75879C13.5312 8.75879 13.75 8.97754 13.75 9.19629V12.6963C13.75 13.9268 12.7656 14.8838 11.5625 14.8838H3.6875C2.45703 14.8838 1.5 13.9268 1.5 12.6963V4.82129C1.5 3.61816 2.45703 2.63379 3.6875 2.63379Z" fill="#F96073"/>
</svg>
