<svg width="16" height="16" viewBox="0 0 16 16" fill="none" xmlns="http://www.w3.org/2000/svg">
<path d="M6.5 1.75C7.22656 1.75 7.8125 2.33594 7.8125 3.0625C7.8125 3.78906 7.22656 4.375 6.5 4.375C5.77344 4.375 5.1875 3.78906 5.1875 3.0625C5.1875 2.33594 5.77344 1.75 6.5 1.75ZM5 7.30469L4.46094 7.84375C4.32031 7.98438 4.25 8.17188 4.25 8.38281V9.25C4.25 9.67188 3.92188 10 3.5 10C3.07812 10 2.75 9.67188 2.75 9.25V8.38281C2.75 7.77344 2.98438 7.21094 3.40625 6.78906L4.22656 5.96875C4.76562 5.42969 5.49219 5.125 6.26562 5.125C7.10938 5.125 7.90625 5.5 8.46875 6.13281L10.0625 8.00781C10.3438 8.33594 10.2969 8.80469 9.99219 9.0625C9.66406 9.34375 9.19531 9.29688 8.9375 8.99219L7.625 7.46875V10.2344L8.42188 10.9375C8.84375 11.2891 9.125 11.7812 9.19531 12.3203L9.5 14.3828C9.54688 14.8047 9.26562 15.1797 8.84375 15.25C8.44531 15.2969 8.07031 15.0156 8 14.5938L7.71875 12.5312C7.69531 12.3672 7.60156 12.2031 7.46094 12.0625L5.77344 10.6328C5.28125 10.2109 5 9.57812 5 8.92188V7.30469ZM5 11.1953C5.07031 11.2422 5.11719 11.3125 5.1875 11.3594L6.26562 12.2734L6.19531 12.4609C6.10156 12.8359 5.89062 13.1641 5.63281 13.4219L4.03906 15.0391C3.73438 15.3203 3.26562 15.3203 2.96094 15.0391C2.67969 14.7344 2.67969 14.2656 2.96094 13.9609L4.57812 12.3672C4.64844 12.2734 4.71875 12.1797 4.76562 12.0391L5 11.1953ZM10.4844 9.74219C10.7188 9.55469 11.0703 9.60156 11.2578 9.85938L14.6328 14.3594C14.8203 14.5938 14.7734 14.9453 14.5156 15.1328C14.2812 15.3203 13.9297 15.2734 13.7422 15.0391L10.3672 10.5391C10.1797 10.2812 10.2266 9.92969 10.4844 9.74219Z" fill="#FD8B25"/>
</svg>
