<svg width="72" height="72" viewBox="0 0 72 72" fill="none" xmlns="http://www.w3.org/2000/svg">
<path d="M58.2302 37.2099C57.1402 37.0099 60.9702 35.8899 60.9702 35.8899L57.2602 35.1099L60.4002 34.6199L63.3602 34.1499L63.5702 33.4799C60.8002 33.1799 56.6302 32.7299 56.5902 32.7299C56.5502 32.7299 60.5302 31.9899 64.1702 31.4999L64.2902 31.1199C65.4002 27.4699 63.3102 23.5999 59.7302 22.7199L22.8602 13.6799C19.4202 12.8399 15.9902 15.1099 15.2602 18.7299L13.3602 28.1599C16.5802 28.0499 19.5802 29.1199 20.3402 29.0799C20.4102 29.0799 20.4602 29.0699 20.4902 29.0699C20.5502 29.0699 20.4902 29.0699 20.3402 29.0799C19.4602 29.1699 15.6402 29.8099 12.9302 30.2599L12.8002 30.9099C14.1502 30.9899 14.9702 31.0999 15.2102 31.0899C22.9002 30.9099 13.6402 32.6999 12.3102 33.3299L9.29019 47.9799C8.51019 51.8299 11.1302 55.5199 14.8802 55.8799L50.4002 58.4599C53.3402 58.7399 56.0702 57.9999 56.9702 55.0599L62.3102 37.5799C60.7402 37.4799 58.8302 37.3399 58.2102 37.2299L58.2302 37.2099Z" fill="#FFD5DA"/>
<path d="M34.9497 34.8801C31.7397 34.8801 29.1297 32.2801 29.1297 29.0601L28.1397 24.8801L36.4497 20.8501L41.7297 23.7101L40.7697 29.0501C40.7697 32.2601 38.1697 34.8701 34.9497 34.8701H34.9597L34.9497 34.8801Z" fill="white"/>
<path d="M50.7297 58.3401L19.1797 56.5901V49.7801C19.1797 43.0401 24.6497 37.5701 31.3897 37.5701H38.5197C45.2597 37.5701 50.7297 43.0401 50.7297 49.7801V58.3401Z" fill="#FF9BA7"/>
<path d="M21.7297 53.2399C21.2997 53.2399 20.9497 52.8899 20.9497 52.4599V50.0299C20.9497 45.4499 23.8197 41.2499 28.0997 39.5899C28.4997 39.4299 28.9497 39.6299 29.1097 40.0299C29.2697 40.4299 29.0597 40.8799 28.6697 41.0399C24.9897 42.4699 22.5197 46.0799 22.5197 50.0299V52.4599C22.5197 52.8899 22.1697 53.2399 21.7397 53.2399H21.7297Z" fill="white"/>
<path d="M32.1397 34.44C32.1397 34.44 29.1097 35.45 27.2197 35.24C25.3297 35.03 22.6797 34.02 22.6797 34.02C22.6797 34.02 25.7397 32.42 25.2997 28.15C24.8597 23.88 22.9797 16.57 27.2197 14.94C31.4597 13.31 33.6697 11.35 37.3797 12.2C41.0897 13.05 44.5497 17.27 44.5497 17.27L45.8697 23.52L44.7697 28.75L44.9197 31.73L47.1497 34.25C47.1497 34.25 41.3397 36.64 37.6897 34.5C37.6897 34.5 40.1697 32.69 40.4597 30.88C40.7497 29.07 41.7097 23.72 41.7097 23.72C41.7097 23.72 36.3797 22.62 36.4297 20.86C36.4897 19.1 35.4697 24.05 30.6897 24.18C25.9097 24.32 28.1097 24.88 28.1097 24.88C28.1097 24.88 29.1497 33.44 32.1197 34.44H32.1397Z" fill="#FFF3CD"/>
<path d="M50.1197 69.6399C58.1112 69.6399 64.5897 63.1615 64.5897 55.1699C64.5897 47.1784 58.1112 40.7 50.1197 40.7C42.1281 40.7 35.6497 47.1784 35.6497 55.1699C35.6497 63.1615 42.1281 69.6399 50.1197 69.6399Z" fill="white"/>
<path d="M50.1197 66.12C56.1672 66.12 61.0697 61.2175 61.0697 55.17C61.0697 49.1224 56.1672 44.22 50.1197 44.22C44.0722 44.22 39.1697 49.1224 39.1697 55.17C39.1697 61.2175 44.0722 66.12 50.1197 66.12Z" fill="#FF9BA7"/>
<path d="M49.1597 54.8901L55.1797 49.1201L58.0297 51.6501L48.4897 61.2201L43.1297 55.3701L46.0997 52.5201L48.7497 55.2801L49.1597 54.8901Z" fill="white"/>
<path d="M52.1905 8.72998V13.39" stroke="#F96073" stroke-width="1.4" stroke-linecap="round" stroke-linejoin="round"/>
<path d="M49.8605 11.0601H54.5205" stroke="#F96073" stroke-width="1.4" stroke-linecap="round" stroke-linejoin="round"/>
<path d="M67.8905 40.7L64.5905 43.99" stroke="#F96073" stroke-width="1.4" stroke-linecap="round" stroke-linejoin="round"/>
<path d="M64.5905 40.7L67.8905 43.99" stroke="#F96073" stroke-width="1.4" stroke-linecap="round" stroke-linejoin="round"/>
<path d="M3.98047 34.3501L7.28047 37.6501" stroke="#F96073" stroke-width="1.4" stroke-linecap="round" stroke-linejoin="round"/>
<path d="M3.98047 37.6501L7.28047 34.3501" stroke="#F96073" stroke-width="1.4" stroke-linecap="round" stroke-linejoin="round"/>
<path d="M14.6205 62.19C15.6974 62.19 16.5705 61.317 16.5705 60.24C16.5705 59.1631 15.6974 58.29 14.6205 58.29C13.5435 58.29 12.6705 59.1631 12.6705 60.24C12.6705 61.317 13.5435 62.19 14.6205 62.19Z" stroke="#FFDA6A" stroke-width="1.4" stroke-linecap="round" stroke-linejoin="round"/>
<path d="M21.5405 8.72007C22.6174 8.72007 23.4905 7.84702 23.4905 6.77007C23.4905 5.69311 22.6174 4.82007 21.5405 4.82007C20.4635 4.82007 19.5905 5.69311 19.5905 6.77007C19.5905 7.84702 20.4635 8.72007 21.5405 8.72007Z" stroke="#FFDA6A" stroke-width="1.4" stroke-linecap="round" stroke-linejoin="round"/>
<path d="M19.1805 56.6001V49.5301C19.1805 42.9301 24.5305 37.5801 31.1305 37.5801H38.7805C41.0505 37.5801 43.1705 38.2101 44.9805 39.3101" stroke="#2A3539" stroke-width="1.41" stroke-linecap="round" stroke-linejoin="round"/>
<path d="M41.6604 35.1601C44.5404 35.6101 47.1604 34.0201 47.1604 34.0201C44.6204 32.9701 44.2704 30.6201 45.0604 27.3201C46.8204 19.9701 43.7804 12.3501 34.9304 12.3501C26.0804 12.3501 23.0404 19.9801 24.8004 27.3201C25.5904 30.6301 25.2404 32.9801 22.7004 34.0201C22.7004 34.0201 25.3204 35.6101 28.1904 35.1601" stroke="#2A3539" stroke-width="1.41" stroke-linecap="round" stroke-linejoin="round"/>
<path d="M37.0705 18.9202C35.5805 22.6902 31.6405 25.2302 27.2305 24.8902" stroke="#2A3539" stroke-width="1.41" stroke-linecap="round" stroke-linejoin="round"/>
<path d="M42.6105 24.17C39.9405 24.12 37.6405 22.66 36.4405 20.51" stroke="#2A3539" stroke-width="1.41" stroke-linecap="round" stroke-linejoin="round"/>
<path d="M41.1904 26.8701C40.7804 31.3901 38.1104 34.8701 34.8904 34.8701C31.8904 34.8701 29.3804 31.8601 28.7104 27.8001" stroke="#2A3539" stroke-width="1.41" stroke-linecap="round" stroke-linejoin="round"/>
<path d="M26.0705 49.76V57.89" stroke="#2A3539" stroke-width="1.41" stroke-linecap="round" stroke-linejoin="round"/>
<path d="M62.8605 54.75C62.9705 58.15 61.7305 61.5901 59.1305 64.1901C54.1505 69.1701 46.0805 69.1701 41.1005 64.1901C36.1205 59.2101 36.1205 51.14 41.1005 46.16C46.0805 41.18 54.1505 41.18 59.1305 46.16C60.5205 47.55 61.5205 49.18 62.1405 50.92" stroke="#2A3539" stroke-width="1.4" stroke-linecap="round" stroke-linejoin="round"/>
<path d="M52.1405 57.35C50.1405 59.38 48.2505 61.1 48.2505 61.1L43.0005 55.37L45.9105 52.57L48.5105 55.27L50.9305 52.95L53.0605 50.91L54.8005 49.24L57.5905 51.72C57.5905 51.72 56.0705 53.3 54.2605 55.17" stroke="#2A3539" stroke-width="1.4" stroke-linecap="round" stroke-linejoin="round"/>
</svg>
