<svg width="16" height="16" viewBox="0 0 16 16" fill="none" xmlns="http://www.w3.org/2000/svg">
<path d="M2.375 7.09375V13.1875C2.375 13.4922 2.11719 13.75 1.8125 13.75C1.50781 13.75 1.25 13.4922 1.25 13.1875V6.25C1.25 6.01562 1.39062 5.82812 1.60156 5.73438L7.27344 3.39062C7.50781 3.29688 7.74219 3.25 8 3.25C8.25781 3.25 8.49219 3.29688 8.72656 3.39062L14.3984 5.73438C14.6094 5.82812 14.75 6.01562 14.75 6.25C14.75 6.48438 14.6094 6.67188 14.3984 6.76562L8.72656 9.10938C8.49219 9.20312 8.25781 9.25 8 9.25C7.74219 9.25 7.50781 9.20312 7.27344 9.10938L2.375 7.09375ZM3.5 8.78125V8.75781L6.85156 10.1406C7.22656 10.3047 7.60156 10.375 8 10.375C8.39844 10.375 8.79688 10.3047 9.14844 10.1406L12.5 8.75781V11.5C12.5 12.7422 10.4844 13.75 8 13.75C5.51562 13.75 3.5 12.7422 3.5 11.5V8.78125Z" fill="#B85EFF"/>
</svg>
