<svg width="48" height="48" viewBox="0 0 48 48" fill="none" xmlns="http://www.w3.org/2000/svg">
<path d="M15.4645 20.0176H11.3406V34.8065H15.4645V20.0176Z" fill="#D2C2F2"/>
<path d="M21.9347 20.0176H17.8108V34.8065H21.9347V20.0176Z" fill="#D2C2F2"/>
<path d="M28.4049 20.0176H24.281V34.8065H28.4049V20.0176Z" fill="#D2C2F2"/>
<path d="M34.8749 20.0176H30.751V34.8065H34.8749V20.0176Z" fill="#D2C2F2"/>
<path d="M37.9495 40.2104H8.26563C6.52782 40.2104 5.91595 37.9065 7.42485 37.0443L11.3405 34.8068H34.8749L38.7905 37.0443C40.2994 37.9065 39.6875 40.2104 37.9497 40.2104H37.9495Z" fill="#D2C2F2"/>
<path d="M36.0838 17.6949H10.3214C9.68007 17.6949 9.16016 18.2149 9.16016 18.8562V18.8564C9.16016 19.4977 9.68007 20.0176 10.3214 20.0176H36.0838C36.7251 20.0176 37.245 19.4977 37.245 18.8564V18.8562C37.245 18.2149 36.7251 17.6949 36.0838 17.6949Z" fill="#D2C2F2"/>
<path d="M38.5604 14.2262L24.614 8.10573C23.654 7.68448 22.5617 7.68448 21.6017 8.10573L7.65526 14.2262C5.8601 15.014 6.4226 17.695 8.38292 17.695H37.8328C39.7931 17.695 40.3556 15.014 38.5604 14.2262ZM23.1079 15.6923C21.9298 15.6923 20.9748 14.7373 20.9748 13.5593C20.9748 12.3814 21.9298 11.4262 23.1079 11.4262C24.286 11.4262 25.2409 12.3812 25.2409 13.5593C25.2409 14.7375 24.2859 15.6923 23.1079 15.6923Z" fill="#8C66DD"/>
</svg>
