<svg width="12" height="12" viewBox="0 0 12 12" fill="none" xmlns="http://www.w3.org/2000/svg">
<path d="M2.5 0.5H9.5C9.77083 0.5 10 0.736328 10 1.01563C10 1.31641 9.77083 1.53125 9.5 1.53125H9.33333V1.93945C9.33333 2.82031 9 3.63672 8.39583 4.25977L6.6875 6L8.39583 7.76172C9 8.36328 9.33333 9.20117 9.33333 10.0605V10.4688H9.5C9.77083 10.4688 10 10.7051 10 10.9844C10 11.2852 9.77083 11.5 9.5 11.5H2.5C2.20833 11.5 2 11.2852 2 10.9844C2 10.7051 2.20833 10.4688 2.5 10.4688H2.66667V10.0605C2.66667 9.20117 3 8.36328 3.58333 7.76172L5.29167 6L3.58333 4.25977C3 3.63672 2.66667 2.82031 2.66667 1.93945V1.53125H2.5C2.20833 1.53125 2 1.31641 2 1.01563C2 0.736328 2.20833 0.5 2.5 0.5ZM6 6.73047L4.29167 8.49219C3.89583 8.90039 3.66667 9.48047 3.66667 10.0605V10.4688H8.33333V10.0605C8.33333 9.48047 8.10417 8.90039 7.6875 8.49219L6 6.73047ZM6 5.26953V5.29102L7.6875 3.5293C8.10417 3.09961 8.33333 2.54102 8.33333 1.93945V1.53125H3.66667V1.93945C3.66667 2.54102 3.89583 3.09961 4.29167 3.5293L6 5.26953Z" fill="#4C24EC"/>
</svg>
