<svg width="12" height="12" viewBox="0 0 12 12" fill="none" xmlns="http://www.w3.org/2000/svg">
<path d="M10.2725 2.61426L6.99121 5.89551L10.2451 9.14941C10.5186 9.39551 10.5186 9.80566 10.2451 10.0518C9.99902 10.3252 9.58887 10.3252 9.34277 10.0518L6.06152 6.79785L2.80762 10.0518C2.56152 10.3252 2.15137 10.3252 1.90527 10.0518C1.63184 9.80566 1.63184 9.39551 1.90527 9.12207L5.15918 5.86816L1.90527 2.61426C1.63184 2.36816 1.63184 1.95801 1.90527 1.68457C2.15137 1.43848 2.56152 1.43848 2.83496 1.68457L6.08887 4.96582L9.34277 1.71191C9.58887 1.43848 9.99902 1.43848 10.2725 1.71191C10.5186 1.95801 10.5186 2.36816 10.2725 2.61426Z" fill="#C80000"/>
</svg>
