<svg width="12" height="12" viewBox="0 0 12 12" fill="none" xmlns="http://www.w3.org/2000/svg">
<path d="M1.6875 2.96094C1.45312 2.75 1.45312 2.375 1.6875 2.16406C1.89844 1.95312 2.25 1.95312 2.46094 2.16406L6 5.70312L9.53906 2.16406C9.77344 1.95312 10.125 1.95312 10.3359 2.16406C10.5703 2.39844 10.5703 2.75 10.3359 2.96094L6.79688 6.5L10.3359 10.0391C10.5703 10.25 10.5703 10.625 10.3359 10.8359C10.125 11.0469 9.77344 11.0469 9.53906 10.8359L6 7.29688L2.46094 10.8359C2.25 11.0469 1.89844 11.0469 1.6875 10.8359C1.45312 10.625 1.45312 10.25 1.6875 10.0391L5.22656 6.5L1.6875 2.96094Z" fill="#00BD79"/>
</svg>
